<?xml version="1.0" encoding="utf-8"?>
<!-- Generator: Adobe Illustrator 24.0.1, SVG Export Plug-In . SVG Version: 6.00 Build 0)  -->
<svg version="1.1" xmlns="http://www.w3.org/2000/svg" xmlns:xlink="http://www.w3.org/1999/xlink" x="0px" y="0px"
	 viewBox="0 0 2000 2000" style="enable-background:new 0 0 2000 2000;" xml:space="preserve">
<style type="text/css">
	.st0{display:none;}
	.st1{display:inline;fill:#F9A602;}
	.st2{display:inline;fill:url(#SVGID_1_);}
	.st3{display:inline;}
	.st4{fill:#1D3F1D;}
	.st5{fill:#003CB3;}
	.st6{fill:#990033;}
	.st7{fill:none;stroke:#231F20;stroke-miterlimit:10;}
	.st8{fill:#193F19;}
	.st9{fill:none;stroke:#DFBE33;stroke-width:16;stroke-miterlimit:10;}
	.st10{fill:#DFBE30;}
	.st11{fill:#16680E;}
	.st12{fill:#F9A602;}
	.st13{fill:#AA710C;}
	.st14{display:inline;fill:none;stroke:#231F20;stroke-miterlimit:10;}
	.st15{display:inline;fill:#AA710C;}
</style>
<g id="Layer_3" class="st0">
</g>
<g id="Layer_2" class="st0">
	<path class="st1" d="M4371.01,695.48c-42.42-100.29-103.15-190.36-180.49-267.71c-77.34-77.34-167.41-138.07-267.71-180.49
		c-103.85-43.92-214.15-66.19-327.84-66.19c-113.69,0-223.99,22.27-327.84,66.19c-100.29,42.42-190.36,103.15-267.71,180.49
		s-138.07,167.41-180.49,267.71c-43.92,103.85-66.19,214.15-66.19,327.84s22.27,223.99,66.19,327.84
		c42.42,100.29,103.15,190.36,180.49,267.71c77.34,77.34,167.41,138.07,267.71,180.49c103.85,43.92,214.15,66.19,327.84,66.19
		c84.62,0,167.35-12.34,246.94-36.76l-7.29-33.76c-75.75,23.57-156.25,36.28-239.66,36.28c-445.53,0-807.99-362.46-807.99-807.99
		c0-445.53,362.46-807.99,807.99-807.99s807.99,362.46,807.99,807.99c0,220.45-88.75,420.55-232.38,566.47l18.56,30.41
		c0.45-0.45,0.92-0.89,1.37-1.34c77.34-77.34,138.07-167.41,180.49-267.71c43.92-103.85,66.19-214.15,66.19-327.84
		S4414.93,799.32,4371.01,695.48z"/>
	<linearGradient id="SVGID_1_" gradientUnits="userSpaceOnUse" x1="4186.5562" y1="1589.2086" x2="4289.3882" y2="1472.0492">
		<stop  offset="0" style="stop-color:#AA710C"/>
		<stop  offset="1" style="stop-color:#F9A602"/>
	</linearGradient>
	<path class="st2" d="M4170.58,1589.79l18.56,30.41c0.45-0.45,0.92-0.89,1.37-1.34c53.44-53.44,98.93-112.96,135.95-177.72
		l-35.48-7.83C4257.27,1490.32,4216.77,1542.86,4170.58,1589.79z"/>
	<g class="st3">
		<path class="st4" d="M-1601.58,1719.13"/>
		<path class="st4" d="M-1633.58,1448.21"/>
		<g>
			<path class="st5" d="M-1679.46,1670.43c16.19-10.56,43.63-39.41,43.63-39.41c23.93-34.13,9.5-78.99,9.5-78.99l-23.93-59.46
				c-1.94-5.63,3.17-3.17,3.17-3.17l12.14,2.29c8.62-1.23-1.76-13.55-1.76-13.55l-28.5-32.72c-8.44-10.56-10.91,2.11-10.91,2.11
				l-5.1,37.47c-0.18,4.05,2.81,3.87,2.81,3.87c2.29,0.53,4.46,5.98,4.46,5.98l34.72,92.89c4.69,23.46-7.04,28.62-7.04,28.62
				c-8.38,8.83-53.2,33.24-53.2,33.24l-20.9,10.34l-94.32,41.8c-218.15,51.61-151.53-159.04-151.53-159.04
				c3.75-15.48-4.69-11.26-4.69-11.26c-58.17,146.37,13.14,192.35,13.14,192.35C-1886,1800.26-1679.46,1670.43-1679.46,1670.43z"/>
			<path class="st5" d="M-1278.81,1501.77l-24.59-130.87c-1.19-11.9,3.57-7.14,3.57-7.14l9.91,10.31
				c12.69,9.91,4.36-12.29,4.36-12.29l-25.38-57.5c-7.14-19.04-11.49-5.16-11.49-5.16l-9.52,26.17c-4.76,9.91,3.97,11.9,3.97,11.9
				c5.95,1.59,5.55,11.5,5.55,11.5l30.54,196.7c15.47,95.57-30.54,84.47-30.54,84.47c-39.66-1.26-46.79-57.11-46.79-57.11
				l-46-263.32c-1.98-22.21-10.31,0-10.31,0c-6.74,15.86-3.57,32.12-3.57,32.12l17.05,109.06c0,0,16.66,86.45,21.02,125.71
				c4.76,46.4,11.5,62.26-6.34,88.43c-53.93,19.04-51.95-13.88-51.95-13.88c0.4-21.02-12.69-0.79-12.69-0.79
				c-48.38,58.69-47.59,0.79-47.59,0.79c1.19-14.28-6.35-4.36-6.35-4.36s-6.34,7.53-13.88,17.45c-63.85,53.93-62.26-11.5-62.26-11.5
				c2.78-15.86-10.71,3.17-10.71,3.17c-32.52,38.07-74.95,26.17-74.95,26.17s-11.3,1.36-22.55-23.47
				c-6.43-12.35-17.39-44.63-26.76-127.89c0,0-10.05-120.56-29.08-178.19l-8.99-26.17c0,0-4.23-14.54-9.25-3.44l-5.68,16.26
				c0,0-4.76,8.06,0.66,17.71c0,0,32.69,109.32,34.06,163.78c1.19,47.5,8.99,116.91,21.49,149.58
				c7.03,18.43,19.14,28.08,19.14,28.08c46.4,38.86,94.78-13.88,94.78-13.88c27.76,66.62,82.88-2.38,82.88-2.38
				c25.38,49.57,61.07-3.17,61.07-3.17s21.02,32.91,57.9,18.24c36.88-14.67,35.69-63.05,35.69-63.05
				c26.57,46.4,70.99,17.85,70.99,17.85C-1251.05,1621.54-1278.81,1501.77-1278.81,1501.77z"/>
			<path class="st5" d="M-1219.53,1777.57c-5.22-2.14-2.83-105.75-13.64-158.63c-0.92-14.46-18.61-159.51-18.61-159.51
				s-5.27-0.85-7.28-4.75c-1.53-6.97,15.33-30.57,19.7-30.35s28.19,68.8,25.3,70.22c-2.89,1.42-20.88-21.11-20.88-21.11
				l24.35,188.63c0,0,4.36,37.83,2.85,67.83S-1214.31,1779.71-1219.53,1777.57z"/>
			<path class="st5" d="M-1411.03,1769.95l113.65-44.34c0,0,22.99-8.87,15.11,5.58l-118.25,46.64
				C-1400.52,1777.83-1434.03,1787.03-1411.03,1769.95z"/>
			<path class="st5" d="M-1597.22,1386.29l112.98-44.08c0,0,22.86-8.82,15.02,5.55l-117.56,46.37
				C-1586.77,1394.12-1620.08,1403.27-1597.22,1386.29z"/>
			<path class="st5" d="M-1814.76,1392.76l-4-1.63c2.18-4.81,4.05-10.78,4-17.08c0,0,0.24-16.82-14.21-8.29
				c0,0-22.03,11.61-8.05,26.29c0,0,3.2,2.39,8.48,5.06c-7.81,10.7-24.15,25.06-57.99,41.37c0,0-19.9,10.66,1.42,4.03
				c0,0,35.89-11.01,59.81-40.39c0,0,0.78-0.96,1.91-2.65c2.21,0.91,4.62,1.79,7.21,2.53c0,0,4.26,2.2,5.45-3.4
				C-1809.55,1393-1810.94,1395.25-1814.76,1392.76z M-1831.58,1385.89c0,0-8.53-2.01-4.03-8.65c0,0,2.92-3.27,5.05-4.93
				s8.45-3.95,8.68,5.05c0,0,1.32,4.28-1.94,11.7L-1831.58,1385.89z"/>
			<path class="st5" d="M-1676.77,1422.64l-35.46-22.52c-1.79-1.14-2.32-3.52-1.19-5.31l15.86-24.97c1.14-1.79,3.52-2.32,5.31-1.19
				l35.46,22.52c1.79,1.14,2.32,3.52,1.19,5.31l-15.86,24.97C-1672.6,1423.25-1674.98,1423.78-1676.77,1422.64z"/>
			<path class="st5" d="M-1431.76,1264.02c1.4,1.11,2.69,2.17,4.01,3.18c6.32,4.86,13.46,6.23,21.14,4.65
				c4.22-0.87,6.86-3.88,8.7-7.63c2.78-5.65,3.41-11.76,3.27-17.88c-0.24-10.64-2.01-21.04-6.7-30.71c-1.26-2.59-3-5.03-4.9-7.21
				c-1.11-1.27-2.95-1.9-4.47-2.82c-0.2,0.19-0.39,0.39-0.59,0.58c0.93,6.48,2.05,12.94,2.73,19.45c0.53,5.1,2.45,12.02,2.12,17.11
				c-0.44,6.79-5.97,10.56-13.48,8.9c-3.21-0.41-6.77-2.69-7.71-5.58c-1.47-4.52-2.84-9.16-3.47-13.85
				c-0.96-7.21-1.3-14.5-1.78-21.77c-0.16-2.39-1.03-4.04-2.99-5.53c-2.88-2.19-5.42-4.81-8.11-7.25c-0.32,0.25-0.64,0.49-0.95,0.74
				c0.04,1.01,0.06,2.02,0.13,3.02c0.74,11.52,3.28,25.16,3.8,36.69c0.18,4.12-0.23,8.34-0.94,12.42
				c-0.97,5.57-4.28,7.68-10.47,7.41c-4.5-0.2-11.69-5-12.02-10.3c-0.42-6.8-0.25-13.64-0.25-20.46c0-3.55,0.21-7.09,0.24-10.64
				c0.01-0.75-0.08-1.7-0.52-2.24c-3.39-4.19-4.26-8.28-7.29-11.91c-3.52,7.63-7.16,15.53-10.92,23.69c2.25,0.23,4.92,0.5,7.86,0.8
				c0.18,5.67,0.12,11.35,0.62,16.98c0.49,5.54,1.04,11.17,2.46,16.53c3.01,11.38,11.7,16.36,23.34,14.53
				c6.63-1.04,11.85-3.97,15.76-9.36C-1432.72,1264.99-1432.2,1264.51-1431.76,1264.02z"/>
		</g>
		<g>
			<path class="st6" d="M-1772.13,1656.04l-35.46-22.52c-1.79-1.14-2.32-3.52-1.19-5.31l15.86-24.97c1.14-1.79,3.52-2.33,5.31-1.19
				l35.46,22.52c1.79,1.14,2.32,3.52,1.19,5.31l-15.86,24.97C-1767.96,1656.65-1770.34,1657.18-1772.13,1656.04z"/>
			<path class="st6" d="M-1522.78,1460.12l15.07,97.16l15.47,97.95l9.25,47.4c0,0,12.96,93.78,14.55,118.36c0,0,4.76,57.11,10.31,0
				c0,0,3.37-43.23-5.68-127.56c-3.58-20.33-36.35-206.35-36.35-206.35c-0.4-11.5,1.19-16.26,5.55-10.71s8.33,10.71,8.33,10.71
				s11.5,13.88,6.74-4.36c-4.76-18.24-23-57.11-25.38-61.07c-2.38-3.97-8.86-22.6-17.85,0
				C-1534.28,1447.43-1527.54,1459.33-1522.78,1460.12z"/>
			<path class="st6" d="M-1951.11,1863.16l104-40.58c0,0,21.04-8.12,13.83,5.11l-108.21,42.68
				C-1941.49,1870.38-1972.15,1878.79-1951.11,1863.16z"/>
			<path class="st6" d="M-1832.73,1468.62l104-40.58c0,0,21.04-8.12,13.83,5.11l-108.21,42.68
				C-1823.11,1475.84-1853.77,1484.25-1832.73,1468.62z"/>
			<path class="st6" d="M-1746.99,1764.5l93.06-36.31c0,0,18.83-7.26,12.37,4.57l-96.83,38.19
				C-1738.38,1770.95-1765.82,1778.48-1746.99,1764.5z"/>
			<path class="st6" d="M-1950.58,1510.71c1.17,0.92,2.24,1.8,3.34,2.64c5.25,4.03,11.18,5.17,17.56,3.86
				c3.5-0.72,5.7-3.23,7.23-6.34c2.31-4.69,2.83-9.77,2.72-14.86c-0.2-8.84-1.67-17.48-5.57-25.52c-1.05-2.16-2.49-4.18-4.07-5.99
				c-0.92-1.06-2.45-1.58-3.71-2.34c-0.16,0.16-0.33,0.32-0.49,0.48c0.77,5.38,1.7,10.75,2.27,16.16c0.44,4.23,2.04,9.98,1.76,14.21
				c-0.37,5.64-4.96,8.77-11.2,7.39c-2.67-0.34-5.63-2.23-6.41-4.63c-1.22-3.76-2.36-7.61-2.88-11.51
				c-0.8-5.99-1.08-12.05-1.48-18.09c-0.13-1.98-0.85-3.36-2.48-4.59c-2.39-1.82-4.51-4-6.74-6.03c-0.26,0.21-0.53,0.41-0.79,0.62
				c0.04,0.84,0.05,1.68,0.11,2.51c0.62,9.57,2.73,20.9,3.16,30.49c0.15,3.43-0.19,6.93-0.78,10.32c-0.81,4.63-3.56,6.38-8.7,6.16
				c-3.74-0.16-9.71-4.15-9.98-8.56c-0.35-5.65-0.21-11.33-0.21-17c0-2.95,0.17-5.89,0.2-8.84c0.01-0.63-0.07-1.41-0.43-1.86
				c-2.81-3.48-3.54-6.88-6.06-9.89c-2.92,6.34-5.95,12.9-9.07,19.68c1.87,0.19,4.09,0.42,6.53,0.67c0.15,4.71,0.1,9.43,0.51,14.11
				c0.41,4.61,0.86,9.28,2.04,13.73c2.5,9.45,9.73,13.6,19.39,12.08c5.51-0.87,9.85-3.3,13.1-7.78
				C-1951.38,1511.52-1950.95,1511.13-1950.58,1510.71z"/>
			<path class="st6" d="M-1977.26,1434.53l-4.1-1.67c2.23-4.93,4.15-11.06,4.1-17.52c0,0,0.24-17.25-14.58-8.5
				c0,0-22.6,11.91-8.26,26.97c0,0,3.28,2.45,8.7,5.19c-8.01,10.97-24.78,25.7-59.48,42.43c0,0-20.41,10.93,1.46,4.13
				c0,0,36.81-11.3,61.35-41.43c0,0,0.8-0.99,1.96-2.72c2.27,0.94,4.74,1.83,7.4,2.6c0,0,4.37,2.26,5.59-3.49
				S-1973.34,1437.09-1977.26,1434.53z M-1994.51,1427.49c0,0-8.75-2.07-4.13-8.87c0,0,3-3.36,5.18-5.06
				c2.19-1.7,8.67-4.05,8.91,5.18c0,0,1.36,4.39-1.99,12L-1994.51,1427.49z"/>
			<path class="st6" d="M-2012.56,1776.47l-24.95-15.85c-1.26-0.8-1.64-2.48-0.83-3.74l11.16-17.57c0.8-1.26,2.48-1.64,3.74-0.83
				l24.95,15.85c1.26,0.8,1.64,2.48,0.83,3.74l-11.16,17.57C-2009.63,1776.9-2011.3,1777.28-2012.56,1776.47z"/>
			<path class="st6" d="M-1949.71,1776.47l-24.95-15.85c-1.26-0.8-1.64-2.48-0.83-3.74l11.16-17.57c0.8-1.26,2.48-1.64,3.74-0.83
				l24.95,15.85c1.26,0.8,1.64,2.48,0.83,3.74l-11.16,17.57C-1946.77,1776.9-1948.44,1777.28-1949.71,1776.47z"/>
			<path class="st6" d="M-1517.68,1809.4c-1.82-28.91-8.65-58.07-8.65-58.1c-8.33-47.27-34.1-193.59-34.1-193.59
				c-0.4-11.5,1.19-16.26,5.55-10.71c4.36,5.55,8.33,10.71,8.33,10.71s11.5,13.88,6.74-4.36s-23-57.11-25.38-61.07
				c-2.38-3.97-8.86-22.6-17.85,0c-11.5,25.78-4.76,37.67,0,38.47l15.07,97.16l15.47,97.95l5.9,30.24c0,0,5.26,29.99,7.51,57.27
				c1.18,14.25,3.07,30.17-4.01,39.97c-25.73,21.5-60.45,5.35-71.34-1.9c-9.91-7.93-0.96-11.07,27.76-25.78
				c48.3-24.74-7.14-44.02-7.14-44.02c-26.97-7.14-43.62-7.05-84.47-6.74c-40.85,0.31-46.79,26.17-46.79,26.17
				c-3.97,19.83,11.5,12.29,11.5,12.29c13.88-4.21,27.07,6.95,35.82,15.47c9.78,9.52,2.03,13.52,0.15,14.18
				c-62.81,22.12-113.14,78.3-125.2,94.21c-12.43,16.39-53.09,89.73-94.78,49.44c-28.99-28.02,20.22-108.66,20.22-108.66
				c-14.65,10.84-28.02,24.85-37.67,55.12c-13.62,37.94,1.71,69.36,18.05,79.29c26.8,16.3,73.16-7.1,98.54-46.77
				c40.85-63.85,147.8-107.87,147.8-107.87s50.09,64.24,107.19,20.22C-1517.03,1857.64-1516.11,1834.3-1517.68,1809.4z
				 M-1648.94,1823.02l-11.63-15.6c-3.17-9.52,9.93-8.15,9.93-8.15l33.54,4.73c9.94,3.95,1.74,10.03,1.74,10.03
				s-2.64,2.38-13.75,8.99C-1640.21,1829.63-1648.94,1823.02-1648.94,1823.02z"/>
			<path class="st6" d="M-1903.12,1548.22l2.64-15.86c0,0,1.32-14.28,11.1-3.7l18.51,17.18c0,0,11.1,9.78,0,11.37
				c0,0-5.02,0.53-2.11,5.29c0,0,28.55,26.44,33.58,45.21c0,0,13.48,31.2-8.46,56.58c0,0,108.39,15.33,24.85,88.3
				c0,0-155.98,121.35-229.48,65.57c-61.02-46.32-33.47-129.63-22.36-156.57c2.27-5.51,2.87-4.67,1.52,1.76
				c-3.85,18.46-10.63,57.04-5.33,79.2c7.14,29.87,47.32,49.97,47.32,49.97s98.61,22.2,198.02-58.69
				c26.97-21.94,27.5-29.61,7.93-34.63c-19.56-5.02-64.51-5.02-64.51-5.02s-43.89,6.87-21.15-31.2
				c9.52-9.78,31.46-10.58,31.46-10.58s34.37-3.97,29.35-24.06c-5.02-20.09-48.91-69-48.91-69S-1905.27,1561.08-1903.12,1548.22z"/>
		</g>
		<path class="st7" d="M-2012.27,1790.93"/>
		<g>
			<g>
				<path class="st8" d="M-2195.96,1993.66c-26.34-32.46-127.34-84.39-160.6-81.74c20.07,24.78,37.25,49.37,65.67,65.32
					c15.99,8.97,31.42,16.24,48.98,20.87C-2225.63,2002.4-2211.11,1999.78-2195.96,1993.66z"/>
				<path class="st8" d="M-2103.79,2073.64c-52.96-27.52-118.44-40.87-173.01-35.62
					C-2223.53,2093.25-2141.1,2106.94-2103.79,2073.64z"/>
				<path class="st8" d="M-2005.2,2129.55c-58.35-12.53-125.03-8.09-176.27,11.41C-2115.48,2180.13-2032.37,2171.53-2005.2,2129.55z
					"/>
				<path class="st8" d="M-2223.6,1285.41c31.48-55.66,42.19-113.28,37.71-173.92C-2219.21,1134.65-2259.12,1233.93-2223.6,1285.41z
					"/>
				<path class="st8" d="M-2274.02,1401.81c20.28-60.65,19.79-119.25,3.81-177.92C-2298.5,1252.99-2318.72,1358.06-2274.02,1401.81z
					"/>
				<path class="st8" d="M-2301.8,1509.5c6.77-63.59-6.3-120.71-34.51-174.59C-2357.68,1369.42-2354.85,1476.38-2301.8,1509.5z"/>
				<path class="st8" d="M-2312.33,1633.08c-5.19-63.74-28.66-117.43-66.41-165.11
					C-2393.32,1505.85-2370.63,1610.41-2312.33,1633.08z"/>
				<path class="st8" d="M-2304.04,1755.19c-14.06-62.39-44.83-112.26-88.88-154.18
					C-2402.05,1640.56-2364.94,1740.91-2304.04,1755.19z"/>
				<path class="st8" d="M-2264.44,1881.79c-28.65-57.17-70.51-98.18-123.35-128.28
					C-2387.14,1794.09-2326.98,1882.57-2264.44,1881.79z"/>
				<path class="st8" d="M-2142.96,1193.32c40.9-54.67,65.12-108.69,63.33-166.31C-2122.07,1059.13-2168.72,1149.07-2142.96,1193.32
					z"/>
				<path class="st8" d="M-1888.27,2166.51c-55.93,1.07-111.53,2.27-160.28,42.7c17.87,9.17,37.03,11.42,54.92,9.62
					C-1952.83,2214.72-1914.01,2204.01-1888.27,2166.51z"/>
				<path class="st8" d="M-1965.08,2011.04c14.9,53.92,29.84,107.49,81.1,144.69c4.45-19.58,1.88-38.71-4.3-55.59
					C-1902.37,2061.63-1922.38,2026.68-1965.08,2011.04z"/>
				<path class="st8" d="M-2069.47,1970.14c17.68,50.44,35.38,100.54,86.64,132.7c2.98-18.95-0.7-37.02-7.68-52.72
					C-2006.43,2014.32-2027.75,1982.3-2069.47,1970.14z"/>
				<path class="st8" d="M-2049.65,1122.23c16.87-21.15,34.16-41.98,50.42-63.59c2.28-3.03,4.29-6.43,9.29-14.07
					c14.62-26.21,23.7-51.79,22.62-80.84c-23.19,18.48-45.35,38.78-62.12,65.12c-18.27,28.71-20.71,93.21-20.71,93.21
					S-2049.89,1122.16-2049.65,1122.23z"/>
				<path class="st8" d="M-1793.52,1013.78c-72.11-2.24-129.06,24.12-177.66,71.81
					C-1906.11,1079.97-1849.76,1052.08-1793.52,1013.78z"/>
				<path class="st8" d="M-2029.09,1145.7c47,27.52,95.4,29.13,145.62,18.46C-1915.6,1124.1-1997.27,1112.84-2029.09,1145.7z"/>
				<path class="st8" d="M-2053.35,1274.86c-40.09-30.54-123.91-11.8-140.83,30.54
					C-2144.37,1309.89-2097.84,1301.67-2053.35,1274.86z"/>
				<path class="st8" d="M-2119.51,1344.48c-45.8-21.04-123.49,15.57-130.75,60.58
					C-2200.66,1398.57-2157.06,1380.38-2119.51,1344.48z"/>
				<path class="st8" d="M-2162.36,1423.3c-44.86-6.82-95.91,26.95-120.13,95.79C-2231.29,1501.73-2193.69,1467.73-2162.36,1423.3z"
					/>
				<path class="st8" d="M-2122.9,1211.35c51.71,23.8,124.38,22.06,145.7-4.19c-14.41-6.39-27.66-14.95-42.1-18.16
					C-2055.73,1180.88-2087.61,1197.35-2122.9,1211.35z"/>
				<path class="st8" d="M-2175.79,1975.45c19.62-52.89,18.16-103.36,10.08-154.62
					C-2202.14,1848.47-2209.57,1903.64-2175.79,1975.45z"/>
				<path class="st8" d="M-2234.69,1870.07c29.35-48.17,37.55-97.99,39.39-149.86C-2236.33,1740.4-2254.15,1793.14-2234.69,1870.07z
					"/>
				<path class="st8" d="M-2092.66,2039.82c6.34-56.05-7.19-104.7-27.36-152.52C-2148.74,1922.89-2142.7,1978.23-2092.66,2039.82z"
					/>
				<path class="st8" d="M-2279.3,1740.36c40.18-20.93,81.5-93.44,69.67-120.67C-2249.08,1634.76-2267.4,1666.2-2279.3,1740.36z"/>
				<path class="st8" d="M-2283.66,1627.9c42.22-16.42,91.2-83.99,82.42-112.35C-2242.1,1526.23-2263.74,1555.47-2283.66,1627.9z"/>
				<path class="st8" d="M-1891.01,1472.81c0,0-0.45-0.31-0.45-0.3C-1891.46,1472.52-1891.01,1472.81-1891.01,1472.81z"/>
				<path class="st8" d="M-1891.75,1472.84c0,0,0.6-0.54,0.6-0.55c0-0.01,0.14,0.53,0.14,0.52c0-0.01-0.45-0.3-0.45-0.31
					C-1891.46,1472.49-1891.75,1472.84-1891.75,1472.84z"/>
			</g>
			<g>
				<path class="st8" d="M-1100.65,1993.66c26.34-32.46,127.34-84.39,160.6-81.74c-20.07,24.78-37.25,49.37-65.67,65.32
					c-15.99,8.97-31.42,16.24-48.98,20.87C-1070.98,2002.4-1085.5,1999.78-1100.65,1993.66z"/>
				<path class="st8" d="M-1192.82,2073.64c52.96-27.52,118.44-40.87,173.01-35.62
					C-1073.08,2093.25-1155.52,2106.94-1192.82,2073.64z"/>
				<path class="st8" d="M-1291.42,2129.55c58.35-12.53,125.03-8.09,176.27,11.41C-1181.13,2180.13-1264.25,2171.53-1291.42,2129.55
					z"/>
				<path class="st8" d="M-1073.01,1285.41c-31.48-55.66-42.19-113.28-37.71-173.92
					C-1077.4,1134.65-1037.49,1233.93-1073.01,1285.41z"/>
				<path class="st8" d="M-1022.59,1401.81c-20.28-60.65-19.79-119.25-3.81-177.92C-998.11,1252.99-977.89,1358.06-1022.59,1401.81z
					"/>
				<path class="st8" d="M-994.82,1509.5c-6.77-63.59,6.3-120.71,34.51-174.59C-938.94,1369.42-941.76,1476.38-994.82,1509.5z"/>
				<path class="st8" d="M-984.28,1633.08c5.19-63.74,28.66-117.43,66.41-165.11C-903.29,1505.85-925.98,1610.41-984.28,1633.08z"/>
				<path class="st8" d="M-992.57,1755.19c14.06-62.39,44.83-112.26,88.88-154.18C-894.56,1640.56-931.67,1740.91-992.57,1755.19z"
					/>
				<path class="st8" d="M-1032.18,1881.79c28.65-57.17,70.51-98.18,123.35-128.28C-909.48,1794.09-969.63,1882.57-1032.18,1881.79z
					"/>
				<path class="st8" d="M-1153.65,1193.32c-40.9-54.67-65.12-108.69-63.33-166.31
					C-1174.54,1059.13-1127.89,1149.07-1153.65,1193.32z"/>
				<path class="st8" d="M-1408.34,2166.51c55.93,1.07,111.53,2.27,160.28,42.7c-17.87,9.17-37.03,11.42-54.92,9.62
					C-1343.78,2214.72-1382.6,2204.01-1408.34,2166.51z"/>
				<path class="st8" d="M-1331.53,2011.04c-14.9,53.92-29.84,107.49-81.1,144.69c-4.45-19.58-1.88-38.71,4.3-55.59
					C-1394.24,2061.63-1374.23,2026.68-1331.53,2011.04z"/>
				<path class="st8" d="M-1227.15,1970.14c-17.68,50.44-35.38,100.54-86.64,132.7c-2.98-18.95,0.7-37.02,7.68-52.72
					C-1290.19,2014.32-1268.86,1982.3-1227.15,1970.14z"/>
				<path class="st8" d="M-1246.97,1122.23c-16.87-21.15-34.16-41.98-50.42-63.59c-2.28-3.03-4.29-6.43-9.29-14.07
					c-14.62-26.21-23.7-51.79-22.62-80.84c23.19,18.48,45.35,38.78,62.12,65.12c18.27,28.71,20.71,93.21,20.71,93.21
					S-1246.72,1122.16-1246.97,1122.23z"/>
				<path class="st8" d="M-1503.1,1013.78c72.11-2.24,129.06,24.12,177.66,71.81C-1390.5,1079.97-1446.85,1052.08-1503.1,1013.78z"
					/>
				<path class="st8" d="M-1267.52,1145.7c-47,27.52-95.4,29.13-145.62,18.46C-1381.01,1124.1-1299.35,1112.84-1267.52,1145.7z"/>
				<path class="st8" d="M-1243.26,1274.86c40.09-30.54,123.91-11.8,140.83,30.54C-1152.25,1309.89-1198.77,1301.67-1243.26,1274.86
					z"/>
				<path class="st8" d="M-1177.11,1344.48c45.8-21.04,123.49,15.57,130.75,60.58C-1095.95,1398.57-1139.55,1380.38-1177.11,1344.48
					z"/>
				<path class="st8" d="M-1134.25,1423.3c44.86-6.82,95.91,26.95,120.13,95.79C-1065.32,1501.73-1102.93,1467.73-1134.25,1423.3z"
					/>
				<path class="st8" d="M-1173.72,1211.35c-51.71,23.8-124.38,22.06-145.7-4.19c14.41-6.39,27.66-14.95,42.1-18.16
					C-1240.88,1180.88-1209,1197.35-1173.72,1211.35z"/>
				<path class="st8" d="M-1120.82,1975.45c-19.62-52.89-18.16-103.36-10.08-154.62
					C-1094.47,1848.47-1087.04,1903.64-1120.82,1975.45z"/>
				<path class="st8" d="M-1061.93,1870.07c-29.35-48.17-37.55-97.99-39.39-149.86C-1060.28,1740.4-1042.46,1793.14-1061.93,1870.07
					z"/>
				<path class="st8" d="M-1203.95,2039.82c-6.34-56.05,7.19-104.7,27.36-152.52C-1147.87,1922.89-1153.91,1978.23-1203.95,2039.82z
					"/>
				<path class="st8" d="M-1017.31,1740.36c-40.18-20.93-81.5-93.44-69.67-120.67C-1047.54,1634.76-1029.21,1666.2-1017.31,1740.36z
					"/>
				<path class="st8" d="M-1012.95,1627.9c-42.22-16.42-91.2-83.99-82.42-112.35C-1054.51,1526.23-1032.87,1555.47-1012.95,1627.9z"
					/>
				<path class="st8" d="M-1405.61,1472.81c0,0,0.45-0.31,0.45-0.3C-1405.15,1472.52-1405.61,1472.81-1405.61,1472.81z"/>
				<path class="st8" d="M-1404.86,1472.84c0,0-0.6-0.54-0.6-0.55c0-0.01-0.14,0.53-0.14,0.52c0-0.01,0.45-0.3,0.45-0.31
					C-1405.16,1472.49-1404.86,1472.84-1404.86,1472.84z"/>
			</g>
		</g>
		<g>
			<polygon class="st9" points="-1550.7,2131.34 -1548.35,2094.05 -1579.78,2121.88 -1645.6,2057.26 -1711.42,2121.88 
				-1742.85,2094.05 -1740.5,2131.34 -1827.72,2093.5 -1781.08,2250.51 -1645.6,2250.51 -1510.11,2250.51 -1463.48,2093.5 			"/>
			<polygon class="st10" points="-1570.98,2184.96 -1569.19,2137.88 -1592.13,2151.49 -1645.6,2101.74 -1700.43,2154.01 
				-1717.93,2142.87 -1714.98,2179.74 -1789.48,2136.33 -1752.98,2230.24 -1533.98,2231.24 -1507.98,2142.61 			"/>
		</g>
	</g>
	<g class="st3">
		<g>
			<path class="st11" d="M-1471.5,3693.2c17.88-11.66,48.21-43.54,48.21-43.54c26.44-37.71,10.5-87.28,10.5-87.28l-26.44-65.7
				c-2.14-6.22,3.5-3.5,3.5-3.5l13.41,2.53c9.52-1.36-1.94-14.97-1.94-14.97l-31.49-36.15c-9.33-11.66-12.05,2.33-12.05,2.33
				l-5.64,41.4c-0.19,4.47,3.11,4.28,3.11,4.28c2.53,0.58,4.92,6.61,4.92,6.61l38.36,102.63c5.18,25.92-7.78,31.62-7.78,31.62
				c-9.26,9.76-58.78,36.73-58.78,36.73l-23.09,11.42l-104.21,46.19c-241.03,57.02-167.42-175.72-167.42-175.72
				c4.15-17.11-5.18-12.44-5.18-12.44c-64.27,161.72,14.51,212.52,14.51,212.52C-1699.7,3836.65-1471.5,3693.2-1471.5,3693.2z"/>
			<path class="st11" d="M-1402.38,3707.28"/>
			<path class="st11" d="M-1426.33,3504.5"/>
			<path class="st11" d="M-1028.82,3506.86l-27.17-144.59c-1.31-13.14,3.94-7.89,3.94-7.89l10.95,11.39
				c14.02,10.95,4.82-13.58,4.82-13.58l-28.04-63.53c-7.89-21.03-12.7-5.7-12.7-5.7l-10.52,28.92c-5.26,10.95,4.38,13.14,4.38,13.14
				c6.57,1.75,6.13,12.71,6.13,12.71l33.74,217.33c17.09,105.6-33.74,93.33-33.74,93.33c-43.82-1.39-51.7-63.09-51.7-63.09
				l-50.83-290.94c-2.19-24.54-11.39,0-11.39,0c-7.45,17.53-3.94,35.49-3.94,35.49l18.84,120.49c0,0,18.4,95.52,23.22,138.9
				c5.26,51.26,12.71,68.79-7.01,97.71c-59.59,21.03-57.4-15.34-57.4-15.34c0.44-23.22-14.02-0.88-14.02-0.88
				c-53.46,64.85-52.58,0.88-52.58,0.88c1.31-15.77-7.01-4.82-7.01-4.82s-7.01,8.32-15.34,19.28
				c-70.54,59.59-68.79-12.71-68.79-12.71c3.07-17.53-11.83,3.51-11.83,3.51c-35.93,42.06-82.81,28.92-82.81,28.92
				s-12.49,1.5-24.91-25.93c-7.11-13.65-19.21-49.31-29.56-141.3c0,0-11.1-133.2-32.13-196.88l-9.93-28.92c0,0-4.67-16.07-10.22-3.8
				l-6.28,17.96c0,0-5.26,8.91,0.73,19.57c0,0,36.12,120.79,37.63,180.96c1.32,52.48,9.93,129.17,23.74,165.27
				c7.77,20.36,21.15,31.03,21.15,31.03c51.26,42.94,104.72-15.34,104.72-15.34c30.67,73.61,91.57-2.63,91.57-2.63
				c28.04,54.77,67.48-3.51,67.48-3.51s23.22,36.37,63.97,20.16c40.75-16.21,39.43-69.67,39.43-69.67
				c29.36,51.26,78.43,19.72,78.43,19.72C-998.15,3639.18-1028.82,3506.86-1028.82,3506.86z"/>
			<path class="st11" d="M-963.32,3819.06c-5.77-2.37-3.12-116.84-15.07-175.27c-1.01-15.98-20.56-176.24-20.56-176.24
				s-5.82-0.94-8.05-5.25c-1.69-7.7,16.93-33.77,21.77-33.53c4.84,0.24,31.15,76.01,27.95,77.58s-23.06-23.32-23.06-23.32
				l26.91,208.41c0,0,4.82,41.79,3.15,74.95C-951.95,3799.55-957.56,3821.43-963.32,3819.06z"/>
			<path class="st11" d="M-1167.43,3788.19l125.57-48.99c0,0,25.4-9.8,16.69,6.17l-130.65,51.54
				C-1155.82,3796.9-1192.84,3807.06-1167.43,3788.19z"/>
			<path class="st11" d="M-1392.16,3379.58l124.83-48.71c0,0,25.26-9.74,16.6,6.13l-129.89,51.23
				C-1380.62,3388.24-1417.42,3398.34-1392.16,3379.58z"/>
			<path class="st11" d="M-1634.53,3370.29l-7.39-3.02c4.03-8.9,7.49-19.95,7.39-31.59c0,0,0.44-31.11-26.29-15.34
				c0,0-40.75,21.47-14.9,48.64c0,0,5.91,4.42,15.69,9.36c-14.45,19.79-44.68,46.35-107.27,76.52c0,0-36.81,19.72,2.63,7.45
				c0,0,66.38-20.37,110.63-74.71c0,0,1.44-1.78,3.53-4.91c4.09,1.69,8.55,3.31,13.34,4.69c0,0,7.89,4.07,10.08-6.29
				C-1624.89,3370.73-1627.46,3374.89-1634.53,3370.29z M-1665.64,3357.59c0,0-15.77-3.72-7.45-15.99c0,0,5.4-6.05,9.35-9.12
				c3.94-3.07,15.63-7.31,16.06,9.34c0,0,2.44,7.92-3.6,21.64L-1665.64,3357.59z"/>
			<path class="st11" d="M-1663.46,3540.04l-39.18-24.88c-1.98-1.26-2.57-3.89-1.31-5.87l17.52-27.59c1.26-1.98,3.89-2.57,5.87-1.31
				l39.18,24.88c1.98,1.26,2.57,3.89,1.31,5.87l-17.52,27.59C-1658.85,3540.71-1661.47,3541.3-1663.46,3540.04z"/>
			<path class="st11" d="M-1212.78,3256.89c1.55,1.23,2.98,2.39,4.44,3.52c6.98,5.36,14.87,6.88,23.35,5.13
				c4.66-0.96,7.58-4.29,9.61-8.43c3.07-6.24,3.77-12.99,3.62-19.76c-0.26-11.75-2.22-23.24-7.4-33.93
				c-1.39-2.87-3.32-5.56-5.41-7.97c-1.22-1.41-3.26-2.1-4.93-3.11c-0.22,0.21-0.43,0.43-0.65,0.64c1.03,7.16,2.26,14.3,3.02,21.48
				c0.59,5.63,2.71,13.28,2.34,18.9c-0.49,7.51-6.6,11.67-14.9,9.83c-3.54-0.46-7.48-2.97-8.52-6.16c-1.63-5-3.14-10.12-3.83-15.31
				c-1.06-7.97-1.44-16.03-1.97-24.06c-0.17-2.64-1.13-4.46-3.3-6.11c-3.18-2.42-5.99-5.32-8.96-8.01c-0.35,0.27-0.7,0.55-1.06,0.82
				c0.05,1.11,0.07,2.23,0.14,3.34c0.82,12.73,3.63,27.8,4.2,40.54c0.2,4.56-0.25,9.22-1.04,13.72c-1.08,6.15-4.73,8.49-11.57,8.19
				c-4.97-0.22-12.91-5.52-13.28-11.38c-0.46-7.51-0.27-15.07-0.28-22.61c0-3.92,0.23-7.84,0.27-11.76
				c0.01-0.83-0.09-1.88-0.57-2.47c-3.74-4.62-4.71-9.15-8.06-13.16c-3.88,8.43-7.91,17.16-12.06,26.17
				c2.48,0.25,5.44,0.55,8.69,0.89c0.2,6.26,0.13,12.54,0.68,18.76c0.54,6.13,1.15,12.35,2.71,18.26
				c3.33,12.57,12.93,18.08,25.79,16.06c7.32-1.15,13.09-4.38,17.41-10.34C-1213.84,3257.97-1213.27,3257.44-1212.78,3256.89z"/>
		</g>
		<g>
			<path class="st12" d="M-1616.39,3494.59l16.65,107.35l17.09,108.22l10.22,52.37c0,0,14.32,103.61,16.07,130.78
				c0,0,5.26,63.09,11.39,0c0,0,3.72-47.76-6.28-140.94c-3.96-22.46-40.16-227.99-40.16-227.99c-0.44-12.71,1.31-17.96,6.13-11.83
				c4.82,6.13,9.2,11.83,9.2,11.83s12.71,15.34,7.45-4.82c-5.26-20.16-25.41-63.09-28.04-67.48c-2.63-4.38-9.79-24.97-19.72,0
				C-1629.1,3480.57-1621.65,3493.71-1616.39,3494.59z"/>
			<path class="st12" d="M-2059.85,3922.7l114.91-44.84c0,0,23.25-8.97,15.28,5.65l-119.56,47.16
				C-2049.22,3930.67-2083.1,3939.97-2059.85,3922.7z"/>
			<path class="st12" d="M-1946.07,3473.08l114.91-44.84c0,0,23.25-8.97,15.28,5.65l-119.56,47.16
				C-1935.44,3481.05-1969.31,3490.35-1946.07,3473.08z"/>
			<path class="st12" d="M-1835.68,3865.77l102.82-40.12c0,0,20.8-8.02,13.67,5.05l-106.99,42.2
				C-1826.17,3872.9-1856.48,3881.22-1835.68,3865.77z"/>
			<path class="st12" d="M-2037.82,3553.28c1.7,1.35,3.26,2.62,4.85,3.85c7.64,5.87,16.27,7.53,25.56,5.62
				c5.1-1.05,8.29-4.7,10.52-9.22c3.36-6.83,4.13-14.22,3.96-21.63c-0.29-12.87-2.43-25.44-8.1-37.13
				c-1.52-3.14-3.63-6.08-5.92-8.72c-1.34-1.54-3.57-2.3-5.4-3.41c-0.24,0.23-0.48,0.47-0.71,0.7c1.12,7.84,2.48,15.65,3.3,23.51
				c0.65,6.16,2.96,14.53,2.56,20.69c-0.54,8.21-7.22,12.77-16.31,10.76c-3.88-0.5-8.19-3.25-9.33-6.74
				c-1.78-5.47-3.44-11.08-4.19-16.75c-1.16-8.72-1.57-17.54-2.16-26.33c-0.19-2.89-1.24-4.88-3.61-6.69
				c-3.48-2.65-6.56-5.82-9.81-8.77c-0.38,0.3-0.77,0.6-1.15,0.9c0.05,1.22,0.08,2.44,0.16,3.66c0.9,13.93,3.97,30.42,4.6,44.37
				c0.22,4.99-0.27,10.09-1.14,15.02c-1.18,6.74-5.17,9.29-12.66,8.96c-5.44-0.24-14.14-6.05-14.53-12.46
				c-0.51-8.22-0.3-16.49-0.3-24.74c0-4.29,0.25-8.58,0.29-12.87c0.01-0.91-0.1-2.06-0.62-2.71c-4.1-5.06-5.15-10.02-8.82-14.4
				c-4.25,9.22-8.65,18.78-13.2,28.64c2.72,0.28,5.95,0.61,9.51,0.97c0.22,6.86,0.15,13.73,0.75,20.54
				c0.59,6.71,1.26,13.51,2.97,19.99c3.64,13.76,14.15,19.79,28.23,17.57c8.02-1.26,14.33-4.8,19.06-11.32
				C-2038.98,3554.46-2038.36,3553.88-2037.82,3553.28z"/>
			<path class="st12" d="M-2065.03,3426.7l-5.85-2.39c3.19-7.04,5.93-15.79,5.85-25.01c0,0,0.35-24.63-20.81-12.14
				c0,0-32.26,17-11.79,38.51c0,0,4.68,3.5,12.42,7.41c-11.44,15.66-35.37,36.7-84.92,60.58c0,0-29.14,15.61,2.08,5.9
				c0,0,52.56-16.13,87.59-59.15c0,0,1.14-1.41,2.8-3.89c3.24,1.34,6.77,2.62,10.56,3.71c0,0,6.24,3.22,7.98-4.98
				C-2057.39,3427.04-2059.43,3430.34-2065.03,3426.7z M-2089.65,3416.64c0,0-12.49-2.95-5.9-12.66c0,0,4.28-4.79,7.4-7.22
				s12.37-5.79,12.72,7.39c0,0,1.93,6.27-2.85,17.14L-2089.65,3416.64z"/>
			<path class="st12" d="M-1948.39,4033.14l-27.57-17.51c-1.39-0.89-1.81-2.73-0.92-4.13l12.33-19.41c0.89-1.4,2.73-1.81,4.13-0.92
				l27.57,17.51c1.4,0.89,1.81,2.73,0.92,4.13l-12.33,19.41C-1945.15,4033.61-1947,4034.02-1948.39,4033.14z"/>
			<path class="st12" d="M-1894.64,4027.3l-27.57-17.51c-1.4-0.89-1.81-2.73-0.92-4.13l12.33-19.41c0.89-1.39,2.73-1.81,4.13-0.92
				l27.57,17.51c1.4,0.89,1.81,2.74,0.92,4.13l-12.33,19.41C-1891.4,4027.77-1893.25,4028.18-1894.64,4027.3z"/>
			<path class="st12" d="M-1889.68,3969.92l-27.57-17.51c-1.39-0.89-1.81-2.73-0.92-4.13l12.33-19.41c0.89-1.4,2.73-1.81,4.13-0.92
				l27.57,17.51c1.4,0.89,1.81,2.74,0.92,4.13l-12.33,19.41C-1886.43,3970.39-1888.28,3970.81-1889.68,3969.92z"/>
			<path class="st12" d="M-1586.26,3927.55c-2.01-31.94-9.55-64.16-9.56-64.19c-9.2-52.23-37.68-213.89-37.68-213.89
				c-0.44-12.71,1.31-17.96,6.13-11.83c4.82,6.13,9.2,11.83,9.2,11.83s12.71,15.34,7.45-4.82c-5.26-20.16-25.41-63.09-28.04-67.48
				c-2.63-4.38-9.79-24.97-19.72,0c-12.71,28.48-5.26,41.63,0,42.5l16.65,107.35l17.09,108.22l6.52,33.42c0,0,5.81,33.13,8.3,63.27
				c1.3,15.75,3.39,33.33-4.43,44.16c-28.43,23.76-66.79,5.91-78.82-2.09c-10.95-8.76-1.06-12.23,30.67-28.48
				c53.37-27.34-7.89-48.64-7.89-48.64c-29.79-7.89-48.2-7.79-93.33-7.45c-45.13,0.35-51.7,28.92-51.7,28.92
				c-4.38,21.91,12.71,13.58,12.71,13.58c15.34-4.66,29.91,7.68,39.58,17.09c10.81,10.52,2.24,14.94,0.17,15.67
				c-69.4,24.44-125,86.51-138.33,104.09c-13.73,18.11-58.66,99.15-104.72,54.62c-32.04-30.96,22.35-120.05,22.35-120.05
				c-16.18,11.98-30.96,27.46-41.62,60.9c-15.04,41.92,1.89,76.63,19.94,87.6c29.61,18.01,80.84-7.84,108.88-51.67
				c45.13-70.54,163.3-119.18,163.3-119.18s55.34,70.98,118.44,22.35C-1585.55,3980.85-1584.53,3955.06-1586.26,3927.55z
				 M-1731.29,3942.59l-12.85-17.23c-3.51-10.52,10.97-9.01,10.97-9.01l37.06,5.23c10.98,4.36,1.92,11.08,1.92,11.08
				s-2.92,2.63-15.19,9.93C-1721.66,3949.89-1731.29,3942.59-1731.29,3942.59z"/>
			<path class="st12" d="M-1961.99,3570.85l2.92-17.53c0,0,1.46-15.77,12.27-4.09l20.45,18.99c0,0,12.27,10.81,0,12.56
				c0,0-5.55,0.58-2.34,5.84c0,0,31.55,29.21,37.1,49.95c0,0,14.9,34.47-9.35,62.51c0,0,119.76,16.94,27.46,97.56
				c0,0-172.34,134.08-253.55,72.44c-67.42-51.17-36.98-143.22-24.71-173c2.51-6.09,3.17-5.16,1.68,1.95
				c-4.26,20.4-11.74,63.03-5.89,87.5c7.89,33.01,52.29,55.21,52.29,55.21s108.96,24.52,218.79-64.85
				c29.79-24.24,30.38-32.72,8.76-38.27s-71.27-5.55-71.27-5.55s-48.49,7.59-23.37-34.47c10.52-10.81,34.76-11.68,34.76-11.68
				s37.97-4.38,32.42-26.58c-5.55-22.2-54.04-76.24-54.04-76.24S-1964.35,3585.06-1961.99,3570.85z"/>
		</g>
		<path class="st7" d="M-1746.62,3720.96"/>
		<path class="st13" d="M-1881.58,3440.35c-183.65-232.21-156.88-465-156.88-465l-18.92,14.25c0,0-53.61,238.09,107.83,476.86
			L-1881.58,3440.35z"/>
		<path class="st13" d="M-1825.05,3418.31c-70.72-366.34,106.44-608.32,106.44-608.32l-28.12,3.88c0,0-205.07,251.25-146.5,630.97
			L-1825.05,3418.31z"/>
		<g>
			<path id="XMLID_30_" class="st11" d="M-2047.94,2979.75c-11.64,19.39-12.18,21.71-20.81,41.24l-17.9,8.65l9.92,14.01
				c-12.33,32.7-16.35,66.12-19.89,95.57l-22.57,7.69l20.82,27.63c-2.81,46.37-0.22,92.6-0.22,92.6
				C-2269.07,3051.22-2047.94,2979.75-2047.94,2979.75z"/>
			<path id="XMLID_20_" class="st11" d="M-2039.53,2982.04c-28.26,6.56-30.98,7.95-57.02,16.73l-22.51-6l-6.13,17.62
				c-41.98,16.2-78.18,38.78-110.1,58.68l-25.19-10.02l-11.13,35.63c-48.09,33.27-91.83,70.24-91.83,70.24
				C-2282.54,2880.98-2039.53,2982.04-2039.53,2982.04z"/>
			<path id="XMLID_21_" class="st11" d="M-1782.02,3032.79c-20.28-9.23-22.58-9.69-42.52-16.65l-10.99-13.75l-11.84,7.22
				c-33.08-10.04-65.57-13.8-94.21-17.12l-10.79-17.26l-23.17,15.18c-44.66-3.13-88.36-2.16-88.36-2.16
				C-1884.04,2863.75-1782.02,3032.79-1782.02,3032.79z"/>
			<path id="XMLID_29_" class="st11" d="M-2058.47,2987.04c17.6,11.94,18.98,13.71,34.06,26.95l18.7,0.3l-2.93,15.87
				c23.46,23.02,40.1,49.94,54.78,73.67l22.3-2.37l-6.84,31.81c20.74,38.45,36.82,78.92,36.82,78.92
				C-1841.53,2960.54-2058.47,2987.04-2058.47,2987.04z"/>
		</g>
		<g>
			<path id="XMLID_43_" class="st11" d="M-1752.11,2820.04c32.2-8.09,35.93-7.91,68.07-10.06c7.11-5.58,14.36-11.05,21.73-16.42
				c5.14,5.86,10.14,11.78,15,17.75c53.94,2.43,104.59,21.23,147.06,41.9c9.31-5.18,18.75-10.21,28.31-15.1
				c7.26,14.68,13.93,29.44,20.01,44.24c63.41,39.94,112.5,98.16,112.19,98.11c-42.48-199.6-187.05-248.42-274.89-236.63
				C-1709.96,2753.73-1748.57,2824.24-1752.11,2820.04z"/>
			<path id="XMLID_15_" class="st11" d="M-1728.87,2819.16c-24.91-21.95-28.3-23.5-55.88-40.15c-3.76-8.22-7.69-16.41-11.79-24.56
				c-7.26,2.86-14.41,5.82-21.47,8.9c-49.05-22.57-102.68-29.09-149.9-30.19c-5.9-8.87-11.98-17.67-18.24-26.4
				c-13.18,9.72-25.87,19.78-38.06,30.15c-74.66,6.43-144.99,35.66-144.69,35.75c129.26-157.91,280.12-135.01,352.79-84.27
				C-1735.94,2740.91-1733.95,2821.27-1728.87,2819.16z"/>
			<path id="XMLID_14_" class="st11" d="M-1717.97,2821.65c-27.09,0.48-29.8,1.4-55.12,5.03l-20.16-12.7l-7.94,18.98
				c-41.07,8.22-77.58,25.35-109.77,40.44l-22.14-18.07l-14.87,38.7c-48.92,26.57-94.27,58.56-94.27,58.56
				C-1930.98,2642.23-1717.97,2821.65-1717.97,2821.65z"/>
			<path id="XMLID_18_" class="st11" d="M-1735.96,2812.38c22.25,15.47,23.99,17.74,43.01,34.84l23.82,0.66l-3.96,20.19
				c29.55,29.68,50.37,64.22,68.72,94.67l28.45-2.7l-9.17,40.43c25.87,49.29,45.76,101.1,45.76,101.1
				C-1459.15,2781.77-1735.96,2812.38-1735.96,2812.38z"/>
		</g>
		<path class="st12" d="M-1402.74,4139.62c0.91,0.18,1.83,0.37,2.74,0.55C-1401.06,4140.73-1401.94,4140.35-1402.74,4139.62z"/>
		<g>
			<path class="st12" d="M-1237.79,4197.34c-1.18,2.92-0.15,5.85,0.06,8.74c5.11,72.13-42.6,137.87-112.05,154.34
				c-71.73,17.01-143.76-19.33-171.7-87c-13.75-33.31-14.93-67.33-4.19-101.82c1.71-5.5,3.76-6.26,9.03-4.33
				c16.41,6.01,32.96,11.67,49.62,16.96c5.88,1.87,7.85,3.48,5.72,10.38c-10.63,34.5,3.84,71.52,34.49,90.26
				c30.86,18.87,70.21,14.88,96.29-9.77c26.21-24.78,32.77-63.85,15.88-95.51c-2.51-4.7-4.95-9.59-9.57-12.77
				c-10.68-16.15-26.64-24.16-44.84-27.82c-10.27-2.06-21.02-4.52-31.19,1.25c0,0,0.25-0.07,0.25-0.07
				c-0.91-0.18-1.83-0.37-2.74-0.55c-3.26-1.46-2.19-4.67-2.55-7.06c-2.68-17.79-4.87-35.66-7.75-53.42
				c-1.01-6.21,1.18-7.69,6.86-8.42c43.41-5.53,81.97,5.56,115.93,33c2.91,2.35,5.87,4.65,8.81,6.97c0.39,0.7,0.66,1.52,1.19,2.08
				c15.27,16.38,27.37,34.58,34.63,56.05C-1242.45,4178.23-1241.12,4188.04-1237.79,4197.34z"/>
			<path class="st12" d="M-1135.77,4144.11c5.74,27.03,4.75,53.69-3.82,80.08c-1.71,5.28-3.59,6.5-8.97,4.46
				c-19-7.21-38.19-13.91-57.31-20.8c10.67-26.4,7.58-51.39-7.71-75.12c-12.82-18.71-31.73-28.38-52.42-35.51
				c-14.49-4.99-28.94-10.11-43.83-13.75c-5.15-1.26-7.22-2.79-5.05-8.59c21.24-56.65,61.58-91.22,121.38-98.91
				c60.2-7.74,108.77,15.4,142.43,66.06c26.3,39.58,30.47,82.92,16,128.16c-1.77,5.52-3.62,7.16-9.56,4.9
				c-18.8-7.16-37.86-13.66-56.81-20.42c5.19-11.97,7.48-24.51,6.46-37.48c-1.02-13-2.76-25.92-12.24-36.12
				c-12.71-23.01-33.07-34.59-58.33-38.09c-12.01-1.66-24.19-1.64-35.06,5.41c-1.05,0.06-2.55-0.3-3.05,0.26
				c-1.91,2.11,0.55,2.53,1.66,3.3c8.14,5.65,16.16,11.45,23.41,18.25C-1156.93,4090.56-1143.41,4115.62-1135.77,4144.11z"/>
			<path class="st13" d="M-1213.59,4132.73c15.3,23.73,18.39,48.72,7.71,75.12c-10.64-3.5-21.28-7.01-31.92-10.51
				c-3.33-9.3-4.66-19.11-7.84-28.52c-7.26-21.47-19.35-39.67-34.63-56.05c-0.53-0.57-0.8-1.38-1.19-2.08
				c19.52,6.73,39.03,13.48,58.57,20.15C-1219.88,4131.87-1216.99,4133.64-1213.59,4132.73z"/>
			<path class="st13" d="M-1346.23,3942.53c16.64-8.24,36.61-1.5,44.56,15.05c7.84,16.32,1.12,36.03-15.04,44.08
				c-16.29,8.12-35.9,1.64-44.04-14.58C-1369.26,3970.13-1362.97,3950.82-1346.23,3942.53z"/>
			<path class="st13" d="M-1400.25,4140.24c10.17-5.77,20.92-3.31,31.19-1.25c18.2,3.66,34.16,11.67,44.84,27.82
				C-1349.77,4158.57-1375.3,4150.23-1400.25,4140.24z"/>
			<g>
				<path class="st12" d="M-1282.68,4323.58c-87.49,39.05-184.34,61.51-286.18,61.51c-388.43,0-704.44-316.01-704.44-704.44
					c0-160.06,53.67-307.82,143.95-426.25l-17.88-17.88c-37.83,49.13-69.13,102.78-93.46,160.31
					c-38.02,89.9-57.3,185.39-57.3,283.82c0,98.43,19.28,193.92,57.3,283.82c36.72,86.83,89.3,164.8,156.25,231.76
					c66.96,66.96,144.93,119.53,231.76,156.25c89.9,38.02,185.39,57.3,283.82,57.3c76.73,0,151.67-11.72,223.57-34.9
					C-1318.02,4358.32-1297.75,4340.19-1282.68,4323.58z"/>
				<path class="st12" d="M-897.02,3396.84c-36.73-86.83-89.3-164.8-156.26-231.76c-66.96-66.96-144.93-119.53-231.76-156.26
					c-68.04-28.78-139.28-46.81-212.57-53.88l0.71,24.92c354.76,36.16,632.48,336.65,632.48,700.79
					c0,189.5-74.93,361.45-197.08,488.2l25.38,9.44c58.63-62.75,105.65-134.75,139.09-213.82c38.02-89.9,57.3-185.39,57.3-283.82
					C-839.72,3582.23-859,3486.74-897.02,3396.84z"/>
			</g>
		</g>
	</g>
	<g class="st3">
		<path class="st11" d="M3696.2,1073.37c20.3-13.24,54.73-49.44,54.73-49.44c30.02-42.82,11.92-99.1,11.92-99.1l-30.02-74.6
			c-2.43-7.06,3.97-3.97,3.97-3.97l15.23,2.87c10.81-1.54-2.21-16.99-2.21-16.99l-35.75-41.05c-10.59-13.24-13.68,2.65-13.68,2.65
			l-6.4,47.01c-0.22,5.08,3.53,4.86,3.53,4.86c2.87,0.66,5.59,7.5,5.59,7.5l43.55,116.53c5.89,29.43-8.83,35.9-8.83,35.9
			c-10.51,11.08-66.74,41.71-66.74,41.71l-26.22,12.97l-118.33,52.44c-273.67,64.74-190.1-199.51-190.1-199.51
			c4.71-19.42-5.89-14.12-5.89-14.12c-72.98,183.62,16.48,241.3,16.48,241.3C3437.1,1236.25,3696.2,1073.37,3696.2,1073.37z"/>
		<path class="st11" d="M3774.69,1089.37"/>
		<path class="st11" d="M3747.49,859.11"/>
		<path class="st11" d="M4198.83,861.8l-30.84-164.17c-1.49-14.92,4.48-8.95,4.48-8.95l12.44,12.93
			c15.92,12.44,5.47-15.42,5.47-15.42l-31.84-72.14c-8.96-23.88-14.42-6.47-14.42-6.47l-11.95,32.83
			c-5.97,12.44,4.98,14.92,4.98,14.92c7.46,1.99,6.96,14.43,6.96,14.43l38.31,246.76c19.4,119.9-38.31,105.97-38.31,105.97
			c-49.75-1.58-58.7-71.64-58.7-71.64l-57.71-330.34c-2.49-27.86-12.93,0-12.93,0c-8.46,19.9-4.48,40.3-4.48,40.3l21.39,136.81
			c0,0,20.89,108.45,26.37,157.71c5.97,58.21,14.43,78.11-7.96,110.94c-67.66,23.88-65.17-17.41-65.17-17.41
			c0.5-26.37-15.92-0.99-15.92-0.99c-60.69,73.63-59.7,0.99-59.7,0.99c1.49-17.91-7.96-5.47-7.96-5.47s-7.96,9.45-17.41,21.89
			c-80.1,67.66-78.11-14.43-78.11-14.43c3.48-19.9-13.43,3.98-13.43,3.98c-40.79,47.76-94.03,32.83-94.03,32.83
			s-14.18,1.71-28.29-29.44c-8.07-15.5-21.82-55.98-33.57-160.43c0,0-12.6-151.24-36.48-223.54l-11.28-32.83
			c0,0-5.31-18.24-11.61-4.31l-7.13,20.4c0,0-5.97,10.12,0.83,22.22c0,0,41.01,137.14,42.73,205.47
			c1.5,59.59,11.28,146.67,26.96,187.65c8.82,23.12,24.01,35.23,24.01,35.23c58.21,48.75,118.9-17.41,118.9-17.41
			c34.82,83.58,103.98-2.98,103.98-2.98c31.84,62.19,76.61-3.98,76.61-3.98s26.37,41.29,72.63,22.88
			c46.27-18.41,44.77-79.1,44.77-79.1c33.33,58.21,89.05,22.39,89.05,22.39C4233.65,1012.04,4198.83,861.8,4198.83,861.8z"/>
		<path class="st11" d="M4273.2,1216.28c-6.55-2.69-3.55-132.67-17.11-199.01c-1.15-18.14-23.35-200.11-23.35-200.11
			s-6.61-1.07-9.14-5.96c-1.92-8.75,19.23-38.35,24.72-38.07c5.49,0.28,35.37,86.31,31.74,88.09c-3.63,1.78-26.19-26.48-26.19-26.48
			l30.55,236.64c0,0,5.48,47.45,3.58,85.1C4286.11,1194.13,4279.75,1218.97,4273.2,1216.28z"/>
		<path class="st11" d="M4015.07,1193.58l142.58-55.63c0,0,28.85-11.13,18.96,7.01l-148.35,58.51
			C4028.26,1203.47,3986.23,1215.01,4015.07,1193.58z"/>
		<path class="st11" d="M3786.28,717.29l141.74-55.3c0,0,28.68-11.06,18.84,6.96l-147.48,58.17
			C3799.39,727.12,3757.61,738.59,3786.28,717.29z"/>
		<path class="st11" d="M3511.1,706.74l-8.39-3.43c4.57-10.1,8.5-22.65,8.39-35.87c0,0,0.5-35.32-29.85-17.41
			c0,0-46.27,24.38-16.91,55.22c0,0,6.71,5.02,17.82,10.62c-16.4,22.47-50.73,52.63-121.79,86.89c0,0-41.79,22.39,2.98,8.46
			c0,0,75.37-23.13,125.62-84.82c0,0,1.64-2.02,4.01-5.57c4.64,1.92,9.7,3.75,15.14,5.32c0,0,8.95,4.62,11.44-7.14
			C3522.04,707.23,3519.12,711.96,3511.1,706.74z M3475.77,692.31c0,0-17.91-4.23-8.46-18.16c0,0,6.14-6.87,10.61-10.35
			c4.48-3.48,17.74-8.3,18.24,10.6c0,0,2.77,8.99-4.08,24.57L3475.77,692.31z"/>
		<path class="st11" d="M3478.25,899.47l-44.48-28.25c-2.25-1.43-2.92-4.41-1.49-6.66l19.89-31.33c1.43-2.25,4.41-2.92,6.66-1.49
			l44.48,28.25c2.25,1.43,2.92,4.41,1.49,6.66l-19.89,31.33C3483.48,900.24,3480.5,900.9,3478.25,899.47z"/>
		<path class="st11" d="M3999.12,570.35c1.76,1.4,3.38,2.72,5.04,3.99c7.92,6.09,16.88,7.81,26.52,5.83
			c5.29-1.09,8.6-4.87,10.91-9.57c3.48-7.09,4.28-14.75,4.11-22.43c-0.3-13.35-2.52-26.39-8.41-38.52
			c-1.58-3.25-3.77-6.31-6.14-9.04c-1.39-1.6-3.7-2.38-5.6-3.53c-0.25,0.24-0.49,0.48-0.74,0.73c1.17,8.13,2.57,16.23,3.42,24.39
			c0.67,6.39,3.07,15.07,2.66,21.46c-0.56,8.52-7.49,13.25-16.92,11.16c-4.02-0.52-8.49-3.37-9.68-7
			c-1.85-5.67-3.57-11.49-4.35-17.38c-1.2-9.04-1.63-18.2-2.24-27.31c-0.2-2.99-1.29-5.07-3.75-6.94c-3.61-2.75-6.8-6.04-10.17-9.1
			c-0.4,0.31-0.8,0.62-1.2,0.93c0.05,1.26,0.08,2.53,0.16,3.79c0.93,14.45,4.12,31.56,4.77,46.03c0.23,5.17-0.29,10.47-1.18,15.58
			c-1.22,6.99-5.37,9.63-13.13,9.29c-5.64-0.25-14.66-6.27-15.07-12.92c-0.53-8.53-0.31-17.11-0.31-25.67c0-4.45,0.26-8.9,0.3-13.35
			c0.01-0.95-0.1-2.13-0.65-2.81c-4.25-5.25-5.34-10.39-9.15-14.94c-4.41,9.57-8.98,19.48-13.69,29.71c2.82,0.29,6.17,0.63,9.86,1
			c0.23,7.11,0.15,14.24,0.77,21.3c0.61,6.96,1.3,14.02,3.08,20.74c3.78,14.27,14.68,20.53,29.28,18.23
			c8.32-1.31,14.87-4.98,19.77-11.74C3997.91,571.57,3998.56,570.97,3999.12,570.35z"/>
	</g>
	<g class="st3">
		<path class="st12" d="M3531.69,847.87l18.9,121.89l19.4,122.88l11.6,59.46c0,0,16.26,117.64,18.25,148.49c0,0,5.97,71.64,12.93,0
			c0,0,4.23-54.23-7.13-160.03c-4.49-25.51-45.6-258.86-45.6-258.86c-0.5-14.43,1.49-20.4,6.97-13.43
			c5.47,6.96,10.45,13.43,10.45,13.43s14.43,17.41,8.46-5.47c-5.97-22.88-28.85-71.64-31.84-76.61c-2.98-4.97-11.11-28.36-22.39,0
			C3517.26,831.95,3525.72,846.87,3531.69,847.87z"/>
		<path class="st12" d="M3028.18,1333.95l130.47-50.91c0,0,26.4-10.18,17.35,6.41L3040.24,1343
			C3040.24,1343,3001.78,1353.56,3028.18,1333.95z"/>
		<path class="st12" d="M3282.71,1269.31l116.75-45.55c0,0,23.62-9.11,15.52,5.74l-121.47,47.91
			C3293.51,1277.41,3259.09,1286.86,3282.71,1269.31z"/>
		<path class="st12" d="M3053.19,914.51c1.93,1.53,3.7,2.97,5.51,4.37c8.67,6.67,18.48,8.55,29.02,6.38
			c5.79-1.19,9.41-5.33,11.94-10.47c3.81-7.76,4.68-16.14,4.5-24.55c-0.33-14.61-2.75-28.88-9.2-42.16c-1.73-3.56-4.12-6.9-6.72-9.9
			c-1.52-1.75-4.05-2.61-6.13-3.87c-0.27,0.27-0.54,0.53-0.81,0.8c1.28,8.9,2.81,17.77,3.75,26.7c0.73,7,3.36,16.5,2.91,23.49
			c-0.61,9.33-8.2,14.5-18.52,12.22c-4.4-0.57-9.3-3.69-10.59-7.66c-2.02-6.21-3.9-12.58-4.76-19.02
			c-1.31-9.9-1.79-19.92-2.45-29.89c-0.22-3.28-1.41-5.55-4.1-7.59c-3.95-3.01-7.45-6.61-11.14-9.96c-0.44,0.34-0.87,0.68-1.31,1.02
			c0.06,1.38,0.09,2.77,0.18,4.15c1.02,15.82,4.51,34.54,5.22,50.38c0.25,5.66-0.31,11.46-1.29,17.05
			c-1.34,7.65-5.88,10.55-14.37,10.17c-6.18-0.27-16.05-6.87-16.5-14.14c-0.58-9.34-0.34-18.73-0.34-28.09
			c0-4.87,0.28-9.74,0.33-14.61c0.01-1.04-0.11-2.33-0.71-3.07c-4.65-5.75-5.85-11.37-10.01-16.35
			c-4.83,10.47-9.83,21.32-14.99,32.52c3.09,0.31,6.75,0.69,10.79,1.1c0.25,7.79,0.17,15.59,0.85,23.32
			c0.67,7.61,1.43,15.34,3.37,22.7c4.14,15.62,16.07,22.47,32.05,19.95c9.1-1.43,16.27-5.45,21.64-12.85
			C3051.87,915.85,3052.58,915.19,3053.19,914.51z"/>
		<path class="st12" d="M3022.3,770.78l-6.65-2.71c3.62-8,6.73-17.93,6.65-28.4c0,0,0.39-27.97-23.63-13.79
			c0,0-36.63,19.3-13.39,43.72c0,0,5.31,3.97,14.11,8.41c-12.99,17.79-40.16,41.67-96.43,68.79c0,0-33.09,17.72,2.36,6.7
			c0,0,59.67-18.32,99.45-67.16c0,0,1.3-1.6,3.17-4.41c3.68,1.52,7.68,2.97,11.99,4.22c0,0,7.09,3.66,9.06-5.65
			C3030.96,771.17,3028.65,774.92,3022.3,770.78z M2994.33,759.36c0,0-14.18-3.35-6.7-14.38c0,0,4.86-5.44,8.4-8.2
			c3.54-2.76,14.05-6.57,14.44,8.39c0,0,2.2,7.12-3.23,19.46L2994.33,759.36z"/>
		<path class="st12" d="M3154.73,1459.35l-31.3-19.88c-1.58-1.01-2.05-3.11-1.05-4.69l14-22.04c1.01-1.58,3.11-2.05,4.69-1.05
			l31.3,19.88c1.58,1.01,2.05,3.11,1.05,4.69l-14,22.04C3158.41,1459.89,3156.31,1460.35,3154.73,1459.35z"/>
		<path class="st12" d="M3215.75,1452.71l-31.3-19.88c-1.58-1.01-2.05-3.11-1.05-4.69l14-22.04c1.01-1.58,3.11-2.05,4.69-1.05
			l31.3,19.88c1.58,1.01,2.05,3.11,1.05,4.69l-14,22.04C3219.44,1453.25,3217.34,1453.72,3215.75,1452.71z"/>
		<path class="st12" d="M3221.39,1387.57l-31.3-19.88c-1.58-1.01-2.05-3.11-1.05-4.69l14-22.04c1.01-1.58,3.11-2.05,4.69-1.05
			l31.3,19.88c1.58,1.01,2.05,3.11,1.05,4.69l-14,22.04C3225.08,1388.11,3222.98,1388.57,3221.39,1387.57z"/>
		<path class="st12" d="M3565.9,1339.46c-2.28-36.27-10.85-72.85-10.85-72.88c-10.45-59.3-42.78-242.86-42.78-242.86
			c-0.5-14.43,1.49-20.4,6.97-13.43c5.47,6.96,10.45,13.43,10.45,13.43s14.43,17.41,8.46-5.47c-5.97-22.88-28.85-71.64-31.84-76.61
			c-2.99-4.97-11.11-28.36-22.39,0c-14.43,32.34-5.97,47.26,0,48.26l18.9,121.89l19.4,122.88l7.4,37.94c0,0,6.6,37.62,9.42,71.84
			c1.47,17.88,3.84,37.85-5.03,50.14c-32.28,26.97-75.84,6.71-89.49-2.38c-12.44-9.95-1.2-13.88,34.82-32.34
			c60.6-31.04-8.95-55.22-8.95-55.22c-33.83-8.95-54.72-8.85-105.97-8.46c-51.24,0.39-58.7,32.83-58.7,32.83
			c-4.98,24.87,14.43,15.42,14.43,15.42c17.41-5.29,33.97,8.72,44.94,19.4c12.27,11.94,2.55,16.96,0.19,17.79
			c-78.8,27.76-141.93,98.22-157.07,118.19c-15.59,20.56-66.6,112.57-118.9,62.02c-36.37-35.16,25.37-136.31,25.37-136.31
			c-18.38,13.6-35.16,31.18-47.26,69.15c-17.08,47.59,2.15,87.01,22.64,99.47c33.63,20.44,91.78-8.9,123.62-58.67
			c51.24-80.1,185.41-135.32,185.41-135.32s62.84,80.59,134.48,25.37C3566.7,1399.98,3567.86,1370.69,3565.9,1339.46z
			 M3401.22,1356.54l-14.59-19.57c-3.98-11.94,12.45-10.23,12.45-10.23l42.08,5.94c12.47,4.95,2.18,12.58,2.18,12.58
			s-3.32,2.98-17.25,11.28C3412.17,1364.83,3401.22,1356.54,3401.22,1356.54z"/>
		<path class="st12" d="M3139.29,934.45l3.32-19.9c0,0,1.66-17.91,13.93-4.64l23.22,21.56c0,0,13.93,12.27,0,14.26
			c0,0-6.3,0.66-2.65,6.63c0,0,35.82,33.17,42.12,56.71c0,0,16.91,39.14-10.61,70.98c0,0,135.98,19.24,31.18,110.78
			c0,0-195.68,152.23-287.88,82.25c-76.55-58.1-41.99-162.62-28.05-196.42c2.85-6.91,3.6-5.86,1.91,2.21
			c-4.84,23.16-13.33,71.56-6.69,99.36c8.96,37.48,59.37,62.68,59.37,62.68s123.71,27.85,248.42-73.63
			c33.83-27.53,34.49-37.15,9.95-43.45c-24.54-6.3-80.93-6.3-80.93-6.3s-55.06,8.62-26.53-39.14
			c11.94-12.27,39.47-13.27,39.47-13.27s43.12-4.97,36.81-30.18c-6.3-25.21-61.36-86.56-61.36-86.56S3136.6,950.59,3139.29,934.45z"
			/>
	</g>
	<path class="st14" d="M3383.82,1104.89"/>
	<path class="st1" d="M3774.28,1580.25c1.04,0.21,2.07,0.42,3.11,0.63C3776.18,1581.51,3775.19,1581.08,3774.28,1580.25z"/>
	<g class="st3">
		<path class="st12" d="M3961.56,1645.79c-1.34,3.31-0.16,6.64,0.07,9.93c5.8,81.9-48.37,156.54-127.23,175.24
			c-81.44,19.31-163.23-21.95-194.95-98.79c-15.62-37.82-16.95-76.44-4.76-115.61c1.94-6.24,4.27-7.11,10.25-4.92
			c18.63,6.83,37.42,13.26,56.34,19.26c6.68,2.12,8.91,3.95,6.5,11.79c-12.07,39.17,4.36,81.2,39.16,102.48
			c35.03,21.43,79.72,16.89,109.33-11.1c29.76-28.13,37.2-72.5,18.03-108.45c-2.85-5.34-5.62-10.89-10.87-14.5
			c-12.13-18.33-30.25-27.43-50.92-31.59c-11.66-2.34-23.87-5.13-35.41,1.42c0,0,0.28-0.08,0.28-0.08
			c-1.04-0.21-2.07-0.42-3.11-0.63c-3.7-1.65-2.49-5.3-2.9-8.02c-3.05-20.2-5.53-40.49-8.8-60.65c-1.14-7.05,1.34-8.74,7.79-9.56
			c49.28-6.28,93.07,6.31,131.63,37.47c3.31,2.67,6.67,5.28,10,7.92c0.45,0.8,0.75,1.72,1.35,2.37
			c17.34,18.6,31.08,39.26,39.32,63.64C3956.27,1624.09,3957.78,1635.23,3961.56,1645.79z"/>
		<path class="st12" d="M4077.39,1585.34c6.51,30.69,5.39,60.96-4.34,90.93c-1.94,5.99-4.07,7.38-10.18,5.07
			c-21.57-8.18-43.36-15.79-65.07-23.62c12.12-29.98,8.61-58.34-8.76-85.29c-14.55-21.24-36.03-32.22-59.52-40.32
			c-16.45-5.67-32.86-11.48-49.76-15.62c-5.85-1.43-8.2-3.17-5.74-9.75c24.11-64.32,69.92-103.57,137.82-112.3
			c68.35-8.79,123.5,17.48,161.72,75.01c29.86,44.94,34.59,94.14,18.16,145.52c-2.01,6.27-4.11,8.13-10.85,5.56
			c-21.35-8.13-42.98-15.51-64.51-23.19c5.9-13.59,8.49-27.83,7.34-42.55c-1.16-14.76-3.13-29.43-13.9-41.01
			c-14.43-26.13-37.55-39.28-66.23-43.25c-13.63-1.89-27.46-1.87-39.8,6.15c-1.19,0.07-2.9-0.34-3.47,0.29
			c-2.17,2.39,0.62,2.87,1.88,3.75c9.24,6.42,18.35,12.99,26.57,20.72C4053.37,1524.55,4068.73,1553,4077.39,1585.34z"/>
		<path class="st13" d="M3989.04,1572.43c17.37,26.95,20.88,55.31,8.76,85.29c-12.08-3.98-24.16-7.95-36.24-11.93
			c-3.78-10.56-5.29-21.7-8.9-32.38c-8.24-24.38-21.97-45.04-39.32-63.64c-0.6-0.65-0.91-1.57-1.35-2.37
			c22.16,7.64,44.32,15.31,66.5,22.88C3981.89,1571.45,3985.18,1573.46,3989.04,1572.43z"/>
		<path class="st13" d="M3838.44,1356.47c18.89-9.36,41.57-1.7,50.59,17.08c8.9,18.53,1.27,40.91-17.07,50.05
			c-18.5,9.22-40.76,1.86-50.01-16.55C3812.28,1387.81,3819.43,1365.88,3838.44,1356.47z"/>
		<path class="st13" d="M3777.1,1580.95c11.54-6.55,23.75-3.76,35.41-1.42c20.67,4.15,38.79,13.26,50.92,31.59
			C3834.41,1601.77,3805.43,1592.3,3777.1,1580.95z"/>
	</g>
	<path class="st15" d="M1192.33,969c0,0,55.58,93.98,6.28,153c-23.01-7.57-46.02-15.15-69.04-22.73
		c-7.2-20.11-10.07-41.33-16.95-61.68c-15.69-46.44-41.86-85.8-74.89-121.23c-1.15-1.23-1.73-2.99-2.58-4.51
		c42.22,14.55,126.68,43.59,126.68,43.59L1192.33,969z"/>
	<path class="st1" d="M1129.56,1099.27c0.94,10.38,1.82,20.79,2.26,27.05c11.05,156.01-94.27,290.05-244.49,325.66
		c-155.13,36.78-310.93-41.81-371.35-188.18c-29.74-72.05-32.28-145.62-9.06-220.22c3.7-11.9,8.14-13.54,19.53-9.37
		c35.49,13.01,71.29,25.25,107.32,36.68c12.72,4.04,16.98,7.53,12.38,22.45c-22.98,74.61,8.3,154.68,74.59,195.22
		c66.73,40.81,151.86,32.18,208.26-21.14c56.7-53.59,68.51-136.3,31.98-204.78c-5.42-10.17-11.05-19.89-18.34-29.43
		c-23.1-34.92-57.62-52.26-96.99-60.17c-22.22-4.46-45.47-9.78-67.46,2.7c0,0-3.57-0.66-5.39-1.35c-4.66-2.2-4.75-10.1-5.53-15.27
		c-5.8-38.48-10.54-77.13-16.77-115.53c-1.56-11.29,2.55-16.64,14.83-18.21c93.88-11.97,177.28,12.02,250.75,71.37
		c6.3,5.09,12.7,10.06,19.05,15.08c0.85,1.52,1.43,3.28,2.58,4.51c33.04,35.43,59.2,74.79,74.89,121.23
		C1119.5,1057.94,1125.63,1078.39,1129.56,1099.27z"/>
	<path class="st1" d="M1350.14,983.85c0.05,0.19,0.1,0.38,0.14,0.57c12.34,58.36,10.17,115.93-8.32,172.92
		c-3.7,11.41-7.76,14.06-19.4,9.65c-41.09-15.59-82.6-30.08-123.95-44.99c23.09-57.1,16.4-111.14-16.69-162.47
		c-27.72-40.47-68.63-61.37-113.37-76.8c-31.33-10.8-62.59-21.87-94.79-29.75c-11.14-2.72-13.51-11.56-8.82-24.09
		c45.94-122.53,131.08-191.77,260.42-208.4c130.2-16.74,235.26,33.3,308.06,142.88c56.88,85.6,65.9,179.33,34.6,277.19
		c-3.82,11.94-7.83,15.49-20.68,10.6c-37.79-14.39-76.05-27.56-114.18-41.08c-4.67-1.66-7.05-6.84-5.3-11.47
		c8.81-23.34,12.55-47.65,10.58-72.68c-2.21-28.12-9.76-51.33-26.48-78.13c-27.48-49.77-71.53-74.82-126.17-82.38
		c-25.83-3.57-52.03-3.55-75.43,11.46c-0.26,0.16-0.51,0.34-0.75,0.53c-1.73,1.36-1.87,1.47-2.94,2.55
		c-3.28,3.28-2.12,3.2,0.28,4.87c17.6,12.23,34.95,24.75,50.62,39.47C1304.38,868.26,1333.62,922.36,1350.14,983.85z"/>
	<path class="st15" d="M778.2,975.77c21.99-12.48,45.24-7.17,67.46-2.7c39.37,7.91,73.89,25.25,96.99,60.17
		C887.36,1015.42,832.16,997.38,778.2,975.77z"/>
	<path class="st1" d="M1129.57,1099.27"/>
</g>
<g id="Layer_4">
	<g>
		<circle class="st13" cx="837.14" cy="508.18" r="98.97"/>
		<g>
			<path class="st13" d="M1343.72,1263.76l-700.61-330.3l-3.93-182.37c-0.21-9.61,9.59-16.22,18.42-12.44l739.63,316.61
				l-29.23,195.52C1366.32,1262.15,1354.13,1268.67,1343.72,1263.76z"/>
		</g>
		<path class="st12" d="M1741.7,820.69c-15.31-53.55-40.53-103.03-74.96-147.06c-34.43-44.03-76.37-80.43-124.65-108.2
			c-50.04-28.78-104.65-46.94-162.32-54s-115.05-2.59-170.55,13.27c-53.55,15.31-103.03,40.53-147.06,74.96
			c-14.81,11.58-28.73,24.03-41.78,37.26c-25.74,26.12-47.99,55.35-66.42,87.39c-6.57,11.42-12.58,23.08-18.04,34.96
			c-5.31,11.55,1.4,25.06,13.77,27.99c32.95,7.79,94.47,26.05,145.69,62.28c73.9,52.28,129.47,154,118.4,244.52
			c-4.04,33.05-16.54,66.2-32.78,92.98l166.02,78.27c10,4.71,21.93,0.52,26.8-9.4c21.13-43.04,34.81-89.1,40.7-137.29
			c7.06-57.67,2.59-115.05-13.27-170.55c-15.31-53.55-40.53-103.03-74.96-147.06c-22.62-28.92-48.5-54.53-77.27-76.59
			c33.71-12.39,70.83-17.01,108.91-11.9c122.63,16.47,210.36,128.83,196.6,251.79c-3.7,33.07-14.31,63.67-30.21,90.57
			c-5.99,10.14-2.17,23.22,8.38,28.46l145.09,71.98c9.67,4.8,21.4,1.16,26.65-8.26c3.47-6.24,6.94-12.6,8.66-16.05
			c21.82-43.75,35.89-90.65,41.9-139.76C1762.03,933.57,1757.57,876.19,1741.7,820.69z"/>
		<path class="st12" d="M1086.77,1041.79c-15.31-53.55-40.53-103.03-74.96-147.06c-34.43-44.03-76.37-80.43-124.65-108.2
			c-50.04-28.78-104.65-46.94-162.32-54c-22.07-2.7-44.1-3.71-66-3.04c-11.12,0.34-19.9,9.54-19.66,20.66l3.95,183.31
			c20.25-2.63,41.21-2.57,62.44,0.52c121.22,17.66,207.42,129.1,194.08,250.87c-13.97,127.6-130.71,218.85-257.92,201.56
			c-120.46-16.36-207.56-125.44-196.77-246.52c2.54-28.54,10.22-55.32,22.01-79.56c4.84-9.96,0.73-22.1-9.2-27.01l-145.11-71.71
			c-10.04-4.96-22.21-0.82-27.14,9.24c-21.02,42.92-34.62,88.84-40.5,136.88c-7.06,57.67-2.59,115.05,13.27,170.55
			c15.31,53.55,40.53,103.03,74.96,147.06c34.43,44.03,76.37,80.43,124.65,108.2c50.04,28.78,104.65,46.94,162.32,54
			c57.67,7.06,115.05,2.59,170.55-13.27c53.55-15.31,103.03-40.53,147.06-74.96c44.03-34.43,80.43-76.37,108.2-124.66
			c28.78-50.04,46.94-104.65,54-162.32C1107.1,1154.67,1102.63,1097.29,1086.77,1041.79z"/>
	</g>
</g>
</svg>
