<svg fill="none" xmlns="http://www.w3.org/2000/svg" viewBox="0 0 2875 989"><rect x="3.68077" y="3.68077" width="2867.29" height="980.802" rx="143.55" fill="#fff" stroke="#000" stroke-width="7.36154"/><path d="M1211.89 643.221h52.17l-25.67-80.834-26.5 80.834zm2.65-127.801h48.55l72.82 205.43h-46.6l-13.25-42.229h-75.75l-14.23 42.229h-44.92l73.38-205.43zM1436.35 568.938h42.69l-54.82 151.912h-41.99l-54.55-151.912h44.64l31.67 112.053 32.36-112.053zM1579.77 646.984c-2.51 1.58-5.07 2.881-7.68 3.903-2.51.929-5.99 1.812-10.46 2.648l-8.93 1.672c-8.37 1.487-14.37 3.299-17.99 5.436-6.14 3.623-9.21 9.244-9.21 16.863 0 6.783 1.86 11.707 5.58 14.773 3.81 2.974 8.42 4.46 13.81 4.46 8.56 0 16.42-2.508 23.58-7.526 7.25-5.017 11.02-14.169 11.3-27.455v-14.774zm-24.14-18.536c7.35-.929 12.6-2.09 15.77-3.484 5.67-2.416 8.51-6.179 8.51-11.289 0-6.225-2.19-10.499-6.56-12.822-4.28-2.416-10.6-3.623-18.97-3.623-9.4 0-16.05 2.322-19.95 6.968-2.79 3.438-4.65 8.083-5.58 13.937h-38.36c.83-13.287 4.55-24.204 11.16-32.752 10.5-13.379 28.55-20.069 54.12-20.069 16.65 0 31.44 3.298 44.36 9.895 12.93 6.597 19.39 19.047 19.39 37.351v69.685c0 4.831.1 10.685.28 17.56.28 5.204 1.07 8.734 2.37 10.592 1.31 1.859 3.26 3.392 5.86 4.6v5.853h-43.24c-1.21-3.066-2.05-5.946-2.51-8.641-.47-2.694-.84-5.76-1.12-9.198-5.49 5.946-11.81 11.01-18.97 15.191-8.56 4.925-18.23 7.387-29.02 7.387-13.76 0-25.15-3.903-34.18-11.707-8.92-7.898-13.39-19.047-13.39-33.449 0-18.675 7.21-32.194 21.63-40.556 7.9-4.553 19.53-7.805 34.87-9.756l13.53-1.673zM1689.84 720.85h-39.76V515.42h39.76v205.43zM1806.89 646.984c-2.51 1.58-5.07 2.881-7.68 3.903-2.51.929-5.99 1.812-10.46 2.648l-8.93 1.672c-8.37 1.487-14.37 3.299-17.99 5.436-6.14 3.623-9.21 9.244-9.21 16.863 0 6.783 1.86 11.707 5.58 14.773 3.81 2.974 8.42 4.46 13.81 4.46 8.56 0 16.42-2.508 23.58-7.526 7.25-5.017 11.02-14.169 11.3-27.455v-14.774zm-24.14-18.536c7.35-.929 12.6-2.09 15.77-3.484 5.67-2.416 8.51-6.179 8.51-11.289 0-6.225-2.19-10.499-6.56-12.822-4.28-2.416-10.6-3.623-18.97-3.623-9.4 0-16.05 2.322-19.95 6.968-2.79 3.438-4.65 8.083-5.58 13.937h-38.36c.83-13.287 4.55-24.204 11.16-32.752 10.5-13.379 28.55-20.069 54.12-20.069 16.65 0 31.44 3.298 44.36 9.895 12.93 6.597 19.39 19.047 19.39 37.351v69.685c0 4.831.1 10.685.28 17.56.28 5.204 1.07 8.734 2.38 10.592 1.3 1.859 3.25 3.392 5.85 4.6v5.853h-43.24c-1.21-3.066-2.05-5.946-2.51-8.641-.47-2.694-.84-5.76-1.12-9.198-5.49 5.946-11.81 11.01-18.97 15.191-8.56 4.925-18.23 7.387-29.02 7.387-13.76 0-25.15-3.903-34.17-11.707-8.93-7.898-13.4-19.047-13.4-33.449 0-18.675 7.21-32.194 21.63-40.556 7.9-4.553 19.53-7.805 34.87-9.756l13.53-1.673zM1960.62 565.314c15.72 0 28.55 4.135 38.51 12.404 10.04 8.176 15.06 21.788 15.06 40.835V720.85h-40.73v-92.402c0-7.99-1.07-14.122-3.21-18.396-3.91-7.805-11.35-11.708-22.32-11.708-13.49 0-22.74 5.715-27.76 17.143-2.61 6.039-3.91 13.751-3.91 23.135v82.228h-39.62V569.216h38.37v22.16c5.11-7.805 9.95-13.426 14.5-16.864 8.19-6.132 18.56-9.198 31.11-9.198zM2136.12 623.431c-.74-5.668-2.65-10.778-5.72-15.331-4.46-6.132-11.39-9.198-20.78-9.198-13.4 0-22.56 6.643-27.48 19.93-2.61 7.061-3.91 16.445-3.91 28.152 0 11.15 1.3 20.116 3.91 26.899 4.74 12.636 13.67 18.954 26.78 18.954 9.3 0 15.9-2.509 19.81-7.526 3.9-5.017 6.28-11.521 7.11-19.512h40.6c-.93 12.079-5.3 23.507-13.11 34.285-12.47 17.375-30.93 26.062-55.39 26.062s-42.45-7.247-53.98-21.741c-11.54-14.495-17.3-33.31-17.3-56.445 0-26.109 6.37-46.41 19.11-60.904 12.74-14.495 30.32-21.742 52.73-21.742 19.07 0 34.64 4.274 46.73 12.822 12.19 8.548 19.39 23.646 21.63 45.295h-40.74zM2282.47 565.035c9.39 0 17.9 1.626 25.52 4.878 7.72 3.252 14.05 8.223 18.98 14.913 4.18 5.667 6.74 11.521 7.67 17.56.93 5.947 1.39 15.702 1.39 29.268v89.196h-40.59v-92.402c0-8.176-1.4-14.773-4.19-19.79-3.62-7.062-10.51-10.592-20.64-10.592-10.51 0-18.51 3.53-24 10.592-5.39 6.968-8.09 16.956-8.09 29.964v82.228h-39.62V516.117h39.62v72.611c5.77-8.827 12.42-14.959 19.95-18.397 7.63-3.53 15.63-5.296 24-5.296zM2427.55 597.648c-9.2 0-16.37 2.88-21.48 8.641-5.02 5.76-8.18 13.565-9.49 23.414h61.8c-.65-10.5-3.86-18.444-9.62-23.833-5.68-5.481-12.74-8.222-21.21-8.222zm0-32.752c12.65 0 24.04 2.369 34.18 7.108 10.14 4.738 18.51 12.218 25.11 22.438 5.95 9.013 9.81 19.465 11.58 31.358 1.02 6.969 1.44 17.003 1.26 30.104h-104.07c.55 15.238 5.34 25.923 14.37 32.055 5.48 3.809 12.09 5.714 19.8 5.714 8.19 0 14.84-2.323 19.95-6.968 2.79-2.509 5.26-5.993 7.4-10.453h40.59c-1.02 9.013-5.72 18.164-14.09 27.456-13.02 14.773-31.25 22.159-54.68 22.159-19.35 0-36.41-6.225-51.2-18.675-14.79-12.45-22.18-32.705-22.18-60.765 0-26.294 6.65-46.457 19.95-60.486 13.39-14.03 30.74-21.045 52.03-21.045zM1274.07 263.189h70.44c13.92 0 25.15 3.939 33.67 11.818 8.53 7.807 12.79 18.808 12.79 33.003 0 12.208-3.8 22.854-11.4 31.939-7.61 9.014-19.29 13.521-35.06 13.521h-49.24v66.113h-21.2V263.189zm95.48 44.928c0-11.498-4.26-19.306-12.79-23.422-4.69-2.2-11.12-3.301-19.29-3.301h-42.2v54.19h42.2c9.52 0 17.23-2.023 23.13-6.068 5.96-4.046 8.95-11.179 8.95-21.399zM1455.98 407.233c12.71 0 21.42-4.79 26.1-14.372 4.76-9.653 7.14-20.37 7.14-32.152 0-10.646-1.7-19.305-5.11-25.977-5.4-10.504-14.71-15.756-27.92-15.756-11.72 0-20.25 4.471-25.58 13.414-5.32 8.943-7.99 19.731-7.99 32.365 0 12.136 2.67 22.25 7.99 30.342 5.33 8.091 13.79 12.136 25.37 12.136zm.74-104.972c14.71 0 27.14 4.897 37.3 14.692 10.16 9.795 15.24 24.202 15.24 43.224 0 18.382-4.48 33.571-13.43 45.566-8.95 11.995-22.84 17.992-41.67 17.992-15.7 0-28.16-5.288-37.4-15.863-9.23-10.646-13.85-24.912-13.85-42.798 0-19.163 4.86-34.423 14.6-45.779 9.73-11.356 22.8-17.034 39.21-17.034zM1536.65 305.561l21.95 89.855 22.27-89.855h21.53l22.38 89.323 23.34-89.323h19.18l-33.14 114.022h-19.93L1591 331.325l-22.49 88.258h-19.93l-32.92-114.022h20.99zM1728.68 303.006c8.1 0 15.95 1.917 23.55 5.749 7.6 3.762 13.39 8.659 17.37 14.692 3.84 5.749 6.4 12.456 7.68 20.122 1.13 5.252 1.7 13.627 1.7 25.125h-83.65c.35 11.569 3.09 20.867 8.2 27.893 5.12 6.956 13.04 10.433 23.77 10.433 10.01 0 18.01-3.3 23.97-9.901 3.41-3.832 5.83-8.268 7.25-13.307h18.86c-.5 4.187-2.17 8.871-5.01 14.053-2.77 5.11-5.89 9.297-9.37 12.562-5.83 5.678-13.04 9.511-21.64 11.498-4.61 1.136-9.84 1.704-15.66 1.704-14.21 0-26.25-5.146-36.13-15.437-9.87-10.363-14.81-24.842-14.81-43.437 0-18.312 4.97-33.181 14.92-44.608s22.95-17.141 39-17.141zm30.59 50.464c-.79-8.304-2.6-14.941-5.44-19.909-5.26-9.227-14.03-13.84-26.32-13.84-8.81 0-16.2 3.194-22.17 9.582-5.96 6.316-9.12 14.372-9.48 24.167h63.41zM1798.81 305.561h18.22v19.696c1.49-3.833 5.15-8.481 10.97-13.947 5.83-5.536 12.54-8.304 20.14-8.304.36 0 .96.036 1.82.107.85.071 2.3.213 4.37.426v20.228c-1.14-.213-2.21-.355-3.2-.426-.93-.071-1.96-.107-3.09-.107-9.66 0-17.09 3.123-22.27 9.369-5.19 6.175-7.78 13.308-7.78 21.399v65.581h-19.18V305.561zM1914.11 303.006c8.1 0 15.95 1.917 23.55 5.749 7.6 3.762 13.39 8.659 17.37 14.692 3.84 5.749 6.4 12.456 7.67 20.122 1.14 5.252 1.71 13.627 1.71 25.125h-83.65c.35 11.569 3.09 20.867 8.2 27.893 5.12 6.956 13.04 10.433 23.77 10.433 10.01 0 18.01-3.3 23.97-9.901 3.41-3.832 5.83-8.268 7.25-13.307h18.86c-.5 4.187-2.17 8.871-5.01 14.053-2.77 5.11-5.89 9.297-9.37 12.562-5.83 5.678-13.04 9.511-21.64 11.498-4.61 1.136-9.84 1.704-15.66 1.704-14.21 0-26.25-5.146-36.13-15.437-9.87-10.363-14.81-24.842-14.81-43.437 0-18.312 4.97-33.181 14.92-44.608s22.95-17.141 39-17.141zm30.59 50.464c-.79-8.304-2.6-14.941-5.44-19.909-5.26-9.227-14.03-13.84-26.32-13.84-8.81 0-16.2 3.194-22.17 9.582-5.96 6.316-9.12 14.372-9.48 24.167h63.41zM1995.85 363.903c0 12.208 2.59 22.428 7.78 30.661s13.5 12.35 24.94 12.35c8.88 0 16.16-3.797 21.84-11.392 5.76-7.665 8.63-18.631 8.63-32.897 0-14.407-2.95-25.054-8.84-31.938-5.9-6.956-13.18-10.434-21.85-10.434-9.66 0-17.51 3.691-23.55 11.072-5.97 7.382-8.95 18.241-8.95 32.578zm28.88-60.364c8.74 0 16.06 1.845 21.95 5.536 3.41 2.129 7.28 5.855 11.62 11.178v-57.596h18.43v156.926h-17.26V403.72c-4.48 7.027-9.77 12.101-15.88 15.224-6.11 3.123-13.11 4.685-20.99 4.685-12.72 0-23.73-5.324-33.04-15.97-9.3-10.717-13.96-24.948-13.96-42.691 0-16.609 4.23-30.981 12.68-43.118 8.53-12.207 20.68-18.311 36.45-18.311zM2155.71 262.657h18.64v56.745c4.2-5.465 9.2-9.618 15.03-12.457 5.82-2.91 12.15-4.364 18.97-4.364 14.21 0 25.72 4.897 34.52 14.691 8.88 9.724 13.32 24.096 13.32 43.118 0 18.027-4.36 33.003-13.1 44.927-8.74 11.924-20.85 17.886-36.34 17.886-8.67 0-15.99-2.094-21.95-6.282-3.56-2.484-7.36-6.458-11.41-11.923v14.585h-17.68V262.657zm49.87 143.618c10.37 0 18.11-4.116 23.23-12.349 5.18-8.234 7.78-19.093 7.78-32.578 0-11.995-2.6-21.931-7.78-29.81-5.12-7.878-12.68-11.817-22.7-11.817-8.74 0-16.41 3.229-23.02 9.688-6.53 6.459-9.8 17.105-9.8 31.939 0 10.717 1.35 19.412 4.05 26.083 5.04 12.563 14.45 18.844 28.24 18.844zM2345.61 305.561h21.2c-2.7 7.311-8.7 23.99-18.01 50.038-6.96 19.589-12.78 35.558-17.47 47.908-11.09 29.1-18.9 46.844-23.45 53.232-4.54 6.387-12.36 9.581-23.44 9.581-2.7 0-4.8-.106-6.29-.319-1.42-.213-3.2-.603-5.33-1.171v-17.46c3.34.922 5.76 1.49 7.25 1.703 1.49.213 2.81.32 3.94.32 3.55 0 6.15-.604 7.78-1.81 1.71-1.136 3.13-2.555 4.26-4.259.36-.568 1.64-3.478 3.84-8.73 2.2-5.252 3.8-9.156 4.8-11.711l-42.2-117.322h21.74l30.58 92.836 30.8-92.836z" fill="#000"/><circle cx="691.985" cy="492.95" r="316.546" fill="#000"/><path fill-rule="evenodd" clip-rule="evenodd" d="M522.08 636.362h74.258c13.18 0 19.769 0 25.704-1.764 6.461-1.922 12.371-5.35 17.245-10.002 4.477-4.274 7.746-9.991 14.281-21.426l97.225-170.083c6.441-11.269 9.663-16.905 11.076-22.849 1.538-6.468 1.535-13.208-.008-19.676-1.419-5.942-4.645-11.574-11.096-22.838h-.001l-37.498-65.47c-8.871-15.491-13.307-23.236-18.941-26.113-6.086-3.109-13.299-3.103-19.381.014-5.629 2.886-10.054 10.637-18.903 26.14L493.455 587.127l-.003.006v.001c-8.721 15.277-13.081 22.915-12.728 29.18.381 6.771 3.975 12.954 9.673 16.638 5.273 3.41 14.076 3.41 31.683 3.41zm253.098-.001h86.095c17.793 0 26.69 0 31.979-3.444 5.718-3.721 9.299-9.958 9.631-16.766.306-6.301-4.181-13.976-13.157-29.325l-43.118-73.73-.003-.005c-8.848-15.131-13.273-22.697-18.866-25.525-6.045-3.056-13.187-3.051-19.228.014-5.588 2.837-10.003 10.41-18.832 25.555l-42.976 73.732c-8.942 15.339-13.412 23.01-13.099 29.306.337 6.803 3.922 13.033 9.636 16.749 5.288 3.439 14.172 3.439 31.938 3.439z" fill="#fff"/></svg>