<svg height="512" viewBox="0 0 512 512" width="512" xmlns="http://www.w3.org/2000/svg"><g id="flat"><g fill="#97661d"><path d="m64.568 435.14 10.339-62.033a8 8 0 1 0 -15.782-2.63l-10.963 65.777-7.923 31.691a8 8 0 1 0 15.522 3.881l4.573-18.292 14.009 14.009a8 8 0 0 0 11.314-11.314z"/><path d="m472 413.886h-65a8 8 0 0 0 0 16h29l21.6 28.8a8 8 0 1 0 12.8-9.6l-14.4-19.2h16a8 8 0 0 0 0-16z"/><path d="m72 66.572v-20.686a8 8 0 1 0 -16 0v13.753l-22.06-5.514a8 8 0 1 0 -3.88 15.522l29.85 7.463 22.433 22.433a8 8 0 0 0 11.314-11.314z"/><path d="m478.14 63.288-24 .227 9.478-12.89a8 8 0 1 0 -12.89-9.478l-38.913 52.921a8 8 0 1 0 12.891 9.478l17.587-23.918 36-.341a8 8 0 0 0 -.151-16z"/></g><circle cx="256" cy="253.886" fill="#c38325" r="232"/><g fill="#fbb540"><path d="m311.993 496a7.962 7.962 0 0 1 -4.643-1.49l-112-80a8 8 0 1 1 9.3-13.02l112 80a8 8 0 0 1 -4.657 14.51z"/><path d="m396.527 456.912a8.063 8.063 0 0 1 -1.812-.208l-134.089-31.05a8 8 0 0 1 3.609-15.588l134.09 31.05a8 8 0 0 1 -1.8 15.8z"/><path d="m323.873 411.08a8 8 0 0 1 -1.306-15.893l135.765-22.627a8 8 0 0 1 2.63 15.782l-135.762 22.627a8.087 8.087 0 0 1 -1.327.111z"/><path d="m375.007 373.906a8 8 0 0 1 -4.242-14.788l116.771-72.86a8 8 0 1 1 8.469 13.575l-116.771 72.859a7.961 7.961 0 0 1 -4.227 1.214z"/><path d="m407.993 320a8 8 0 0 1 -6.5-12.65l80-112a8 8 0 1 1 13.02 9.3l-80 112a7.989 7.989 0 0 1 -6.52 3.35z"/><path d="m417.867 257.571a8.007 8.007 0 0 1 -7.8-9.806l31.05-134.09a8 8 0 0 1 15.588 3.61l-31.05 134.089a8 8 0 0 1 -7.788 6.197z"/><path d="m403.068 194.005a8 8 0 0 1 -7.881-6.686l-22.627-135.765a8 8 0 0 1 15.782-2.631l22.627 135.765a8 8 0 0 1 -6.575 9.207 8.1 8.1 0 0 1 -1.326.11z"/><path d="m365.913 142.887a8 8 0 0 1 -6.8-3.766l-72.855-116.771a8 8 0 0 1 13.575-8.47l72.859 116.771a8 8 0 0 1 -6.779 12.236z"/><path d="m311.993 109.886a7.969 7.969 0 0 1 -4.643-1.49l-112-80a8 8 0 0 1 9.3-13.02l112 80a8 8 0 0 1 -4.657 14.51z"/><path d="m249.576 100.028a8.055 8.055 0 0 1 -1.811-.208l-134.09-31.05a8 8 0 1 1 3.61-15.588l134.089 31.05a8 8 0 0 1 -1.8 15.8z"/><path d="m52.343 137.437a8 8 0 0 1 -1.305-15.893l135.762-22.627a8 8 0 1 1 2.631 15.782l-135.763 22.627a8.078 8.078 0 0 1 -1.325.111z"/><path d="m20.237 224.841a8 8 0 0 1 -4.237-14.788l116.771-72.86a8 8 0 0 1 8.469 13.575l-116.776 72.859a7.961 7.961 0 0 1 -4.227 1.214z"/><path d="m23.993 320a8 8 0 0 1 -6.5-12.65l80-112a8 8 0 0 1 13.02 9.3l-80 112a7.989 7.989 0 0 1 -6.52 3.35z"/><path d="m63.1 404.522a8.008 8.008 0 0 1 -7.8-9.807l31.05-134.089a8 8 0 0 1 15.588 3.609l-31.05 134.09a8 8 0 0 1 -7.788 6.197z"/><path d="m131.54 467.648a8 8 0 0 1 -7.882-6.686l-22.627-135.762a8 8 0 1 1 15.782-2.631l22.627 135.763a8.006 8.006 0 0 1 -7.9 9.316z"/><path d="m218.962 499.771a7.994 7.994 0 0 1 -6.795-3.766l-72.859-116.771a8 8 0 1 1 13.574-8.469l72.86 116.771a8 8 0 0 1 -6.78 12.235z"/></g><circle cx="256" cy="256" fill="#97661d" r="168"/><path d="m407.51 328.67a168.332 168.332 0 0 1 -34.32 47.7l-225.81 7.79a168.992 168.992 0 0 1 -29.59-32.62z" fill="#d18d28"/><path d="m424 256a168.154 168.154 0 0 1 -6.86 47.67l-326.14-15.92a168.543 168.543 0 0 1 -3-31.75q0-4.035.19-8.01l334.12-15.91a169.963 169.963 0 0 1 1.69 23.92z" fill="#ea9d2d"/><path d="m411.37 192h-310.74c.31-.75.62-1.49.94-2.24s.64-1.48.97-2.22c.66-1.47 1.33-2.93 2.03-4.37q1.35-2.8 2.8-5.54c.26-.51.53-1.01.8-1.51q1.575-2.9 3.25-5.72c.41-.69.82-1.37 1.24-2.06s.84-1.36 1.27-2.04q1.35-2.13 2.76-4.23c.76-1.12 1.53-2.22 2.31-3.32s1.57-2.18 2.38-3.26c.4-.54.81-1.08 1.22-1.61.32-.43.66-.86 1-1.29.43-.57.88-1.13 1.32-1.68l.36-.45c.44-.54.88-1.07 1.32-1.6a168.061 168.061 0 0 1 18.29-18.87h.01l248.43 29.23.04.05a166.723 166.723 0 0 1 17.92 32.54z" fill="#d18d28"/><ellipse cx="232" cy="204" fill="#eaeae8" rx="56" ry="68"/><ellipse cx="185.223" cy="300.767" fill="#fbfbf9" rx="56" ry="68" transform="matrix(.5 -.866 .866 .5 -167.86 310.791)"/><ellipse cx="333.949" cy="253.684" fill="#fbfdff" rx="68" ry="56" transform="matrix(.907 -.421 .421 .907 -75.754 164.123)"/></g></svg>