<svg id="Layer_5" enable-background="new 0 0 64 64" height="512" viewBox="0 0 64 64" width="512" xmlns="http://www.w3.org/2000/svg"><g><path d="m39 45h4v2h-4z"/><path d="m7 45h4v2h-4z"/><path d="m29 45h4v2h-4z"/><path d="m49 45h4v2h-4z"/><path d="m41 23h-14v10h14zm-12 2h2v2h-2zm10 6h-10v-2h10zm0-4h-6v-2h6z"/><circle cx="54" cy="26" r="1"/><path d="m60 21h-3v-7c0-.551-.448-1-1-1h-52c-.552 0-1 .449-1 1v36c0 .551.448 1 1 1h10c.552 0 1-.449 1-1v-2c0-2.757 2.243-5 5-5s5 2.243 5 5v2c0 .551.448 1 1 1h30c.552 0 1-.449 1-1v-7h3c.552 0 1-.449 1-1v-20c0-.551-.448-1-1-1zm-55-4c0-1.103.897-2 2-2h2c1.103 0 2 .897 2 2v22c0 1.103-.897 2-2 2h-2c-1.103 0-2-.897-2-2zm8 32h-8v-6h8zm6-10c0 1.103-.897 2-2 2h-2c-1.103 0-2-.897-2-2v-22c0-1.103.897-2 2-2h2c1.103 0 2 .897 2 2zm34-24h2v2h-2zm-4 0h2v2h-2zm-4 0h2v2h-2zm-10 34h-8v-6h8zm-2-14v4h-2v-4h-2v4h-2v-4h-2v-2h-4v-2h4v-2h-4v-2h4v-2h-4v-2h4v-2h2v-4h2v4h2v-4h2v4h2v-4h2v4h2v-4h2v4h2v2h4v2h-4v2h4v2h-4v2h4v2h-4v2h-2v4h-2v-4h-2v4h-2v-4zm12 14h-8v-6h8zm10 0h-8v-6h8zm-1-10c-1.654 0-3-1.346-3-3s1.346-3 3-3 3 1.346 3 3-1.346 3-3 3zm0-10c-1.654 0-3-1.346-3-3s1.346-3 3-3 3 1.346 3 3-1.346 3-3 3z"/><path d="m7 17h2v22h-2z"/><path d="m15 17h2v22h-2z"/><circle cx="54" cy="36" r="1"/></g></svg>