<svg version="1.2" xmlns="http://www.w3.org/2000/svg" viewBox="0 0 200 180" width="200" height="180">
	<title>cta-illustration-svg</title>
	<style>
		.s0 { opacity: .2;fill: #ffffff } 
	</style>
	<path id="Layer" fill-rule="evenodd" class="s0" d="m9.1 180h-4.6l-3.1-1.5l-23.2-11.3l0.5 7.5l10.8 5.3h-4.5l-6.2-3l0.2 3h-2l-0.4-6.3l-0.5-7.5l-0.9-12.1l-0.5-7.5l-0.4-5l5.9-4l6.3-4.2l10.1-6.8l6.2-4.2l10.1-6.8l6.2-4.2l8.2-5.5l10.1-6.8l49.4 23.9c5.7 2.8 11.7 5.7 17.9 8.4c6 2.1 12.4 4 19 5.6c6.2 1.1 12.9 2.1 20.4 3c6.6 0.8 13.7 1.8 20.7 2.9c7.2 1.1 13.8 2.6 20 4.4q1.9 0.5 3.9 1.1q1.9 0.7 3.8 1.3q1.9 0.7 3.8 1.5q1.8 0.7 3.7 1.6v2.1q-1.9-0.8-3.9-1.6q-1.9-0.8-3.9-1.5q-1.9-0.7-3.9-1.4q-2-0.6-4-1.2c-6.2-1.8-12.7-3.2-19.8-4.3c-7-1.2-14-2.1-20.6-2.9c-7.6-0.9-14.3-1.9-20.6-3.1c-6.7-1.5-13.2-3.4-19.4-5.7c-6.2-2.7-12.3-5.6-18-8.4l-48.4-23.4l-6.2 4.2l51.8 25.1q4.4 2.1 8.7 4.1l0.3 0.2q2.1 1 4.3 1.9l0.1 0.1q2.2 0.9 4.5 1.8q2.3 0.8 4.7 1.5q2.5 0.7 4.9 1.3q2.4 0.6 4.9 1.1q2.4 0.5 4.9 1c5.9 0.9 12.3 1.7 20.7 2.4q0.7 0.1 1.4 0.2q0.7 0 1.3 0.1q0.7 0 1.4 0.1q0.7 0.1 1.3 0.1l1 0.1q0.4 0.1 0.7 0.1q0.4 0 0.8 0.1q0.4 0 0.8 0q0.4 0.1 0.8 0.1q0.4 0.1 0.8 0.1q0.3 0 0.7 0.1q0.4 0 0.7 0q0.4 0.1 0.8 0.1l0.5 0.1q1.1 0.1 2.2 0.2l0.5 0.1q1 0.1 2 0.2l0.7 0.1q0.8 0.1 1.6 0.2l1 0.1c7.4 1 14 2.2 20.3 3.9q2.5 0.7 4.9 1.4q1.6 0.5 3.2 1.1q1.6 0.6 3.2 1.2q1.6 0.6 3.2 1.3q1.6 0.6 3.1 1.4v2.2q-1.6-0.8-3.3-1.5q-1.6-0.7-3.3-1.4q-1.6-0.6-3.3-1.2q-1.7-0.6-3.4-1.2q-0.6-0.2-1.2-0.3q-0.6-0.2-1.2-0.4q-0.6-0.2-1.2-0.3q-0.6-0.2-1.2-0.4c-6.2-1.6-12.8-2.9-20-3.8q-0.6-0.1-1.2-0.1q-0.7-0.1-1.4-0.2l-1-0.1q-0.8-0.1-1.7-0.2l-0.8-0.1q-0.9-0.1-1.8-0.2l-1-0.1q-0.8-0.1-1.5-0.2l-1.5-0.1l-1-0.1q-0.3-0.1-0.6-0.1q-0.3 0-0.6 0q-0.3-0.1-0.6-0.1q-0.3 0-0.7-0.1q-2.7-0.2-5.6-0.5c-8.5-0.7-14.9-1.5-20.8-2.5q-2.5-0.4-5-0.9q-2.5-0.5-5-1.1q-2.5-0.6-4.9-1.4q-2.5-0.7-4.9-1.5h-0.1q-1.1-0.5-2.2-0.9q-1.2-0.5-2.3-1q-1.1-0.5-2.2-1q-1.2-0.5-2.3-1q-1.1-0.6-2.3-1.1q-1.1-0.5-2.2-1.1q-1.1-0.5-2.2-1q-1.2-0.6-2.3-1.1l-52.8-25.6l-6.3 4.2l56.3 27.3c6.2 3 11.9 5.6 17.9 8q2.4 0.7 4.8 1.3q2.5 0.7 4.9 1.2q2.5 0.5 5 1q2.5 0.4 5 0.7c5.9 0.8 12.4 1.3 21 1.8c8 0.4 14.7 0.9 21.4 1.5c7.5 0.7 14.2 1.8 20.5 3.4c6.7 1.6 13.1 3.9 19 6.7q0.1 0.1 0.3 0.2q0.1 0 0.2 0.1q0.2 0.1 0.3 0.1q0.2 0.1 0.3 0.2v2.2q-0.2-0.1-0.5-0.2q-0.2-0.1-0.4-0.2q-0.3-0.2-0.5-0.3q-0.3-0.1-0.5-0.2l-0.1-0.1c-5.7-2.8-12-5-18.6-6.6c-6.2-1.5-12.8-2.6-20.2-3.3c-7.3-0.7-14.8-1.1-21.3-1.5c-8.6-0.5-15.2-1-21.2-1.8q-2.5-0.3-5.1-0.8q-2.5-0.4-5-0.9q-2.5-0.6-5-1.2q-2.5-0.7-4.9-1.4h-0.1q-0.1-0.1-0.2-0.1c-6-2.4-11.7-5.1-17.9-8l-57.3-27.8l-6.2 4.2l60.7 29.4c5.4 2.6 11.6 5.5 18 7.7c6.1 2 12.5 3.3 19.8 4c6.1 0.6 12.6 1 21.4 1.2c6.6 0.2 14.2 0.4 21.6 0.9c7.6 0.5 14.4 1.4 20.8 2.8c6.8 1.5 13.2 3.7 19.1 6.5l0.2 0.1q0.4 0.2 0.8 0.4q0.5 0.3 0.9 0.5q0.4 0.2 0.8 0.4q0.5 0.3 0.9 0.5v2.3q-0.5-0.3-1.1-0.6q-0.5-0.3-1-0.6q-0.6-0.3-1.1-0.5q-0.6-0.3-1.1-0.6l-0.2-0.1c-5.7-2.7-12-4.9-18.6-6.3c-6.3-1.4-13-2.3-20.5-2.8c-7.4-0.5-15-0.7-21.6-0.9c-8.7-0.2-15.4-0.6-21.5-1.2c-7.4-0.7-14-2.1-20.2-4.1c-6.5-2.2-12.8-5.1-18.3-7.8l-61.7-29.9l-6.3 4.2l65.1 31.6c5.5 2.6 11.7 5.5 18.1 7.5c6 1.9 12.7 3.2 20 3.8c6.1 0.5 12.9 0.7 21.5 0.7c7.5 0 14.8 0 22 0.3c7.7 0.2 14.6 1 21 2.3c7 1.3 13.4 3.4 19.3 6.3h0.1q0.8 0.4 1.6 0.8q0.7 0.4 1.5 0.8q0.8 0.5 1.5 0.9q0.8 0.4 1.5 0.9v2h-0.6q-0.8-0.5-1.6-1q-0.8-0.4-1.6-0.9q-0.8-0.4-1.6-0.9q-0.9-0.4-1.7-0.8c-5.7-2.8-12-4.8-18.7-6.2c-6.4-1.2-13.1-2-20.8-2.2c-7.1-0.3-14.4-0.3-21.8-0.3c-8.7 0-15.6-0.2-21.8-0.7c-7.4-0.6-14.2-1.9-20.4-3.8c-6.6-2.2-12.8-5.1-18.3-7.7l-66.2-32.1l-6.2 4.2l69.5 33.8c5.5 2.5 11.7 5.4 18.1 7.5c6.1 1.9 12.8 3.1 20 3.6c6.3 0.4 13.2 0.5 21.8 0.3h0.5c7.2-0.1 14.5-0.3 21.6-0.2c7.9 0.1 14.9 0.7 21.3 1.8c6.6 1.2 12.8 3 18.3 5.6h-5.1c-4.3-1.6-8.8-2.8-13.5-3.6c-6.4-1.1-13.2-1.7-21-1.8c-7.1-0.1-14.4 0.1-21.5 0.2l-0.6 0.1c-8.6 0.1-15.6 0-21.9-0.4c-7.4-0.5-14.3-1.8-20.5-3.7c-6.6-2.1-12.8-5-18.3-7.6l-70.7-34.3l-6.2 4.2l56.3 27.3q8.8 4.3 17.7 8.6c5.7 2.7 11.7 5.5 18.1 7.6c5.3 1.6 11 2.8 17 3.4h-12.1q-0.7-0.2-1.4-0.3q-0.7-0.2-1.4-0.4q-0.6-0.2-1.3-0.4q-0.7-0.2-1.4-0.4c-6.5-2.2-12.6-5-18.3-7.7q-2.2-1.1-4.5-2.2q-2.2-1-4.4-2.1q-2.2-1.1-4.4-2.1q-2.3-1.1-4.5-2.2l-57.3-27.8l-6.3 4.2l63.6 30.8q7.4 3.6 14.9 7.2q0.9 0.5 1.8 0.9q0.9 0.4 1.8 0.8q1 0.5 1.9 0.9q0.9 0.4 1.8 0.8h-4.8q-0.4-0.2-0.9-0.4q-0.4-0.2-0.8-0.4q-0.4-0.2-0.8-0.4q-0.4-0.2-0.9-0.4q-7.3-3.5-14.6-7l-3.1-1.5l-61.8-30l-4 2.7l0.2 2.7l63.6 30.9q4 1.9 8 3.8h-4.7l-1.1-0.5l-3.9-1.9l-61.7-30l0.5 7.5l51.3 24.9h-4.6l-46.5-22.6l0.5 7.5zm147.3 0h-18.7q1.2 0 2.3 0q1.1-0.1 2.2-0.1q1.2 0 2.3 0q1.1 0 2.2-0.1q5.1 0 9.7 0.2z"/>
</svg>