<?xml version="1.0" encoding="utf-8"?>
<!-- Generator: Adobe Illustrator 24.0.1, SVG Export Plug-In . SVG Version: 6.00 Build 0)  -->
<svg version="1.1" xmlns="http://www.w3.org/2000/svg" xmlns:xlink="http://www.w3.org/1999/xlink" x="0px" y="0px"
	 viewBox="0 0 1984.25 2408.31" style="enable-background:new 0 0 1984.25 2408.31;" xml:space="preserve">
<style type="text/css">
	.st0{fill:none;}
	.st1{fill:none;stroke:url(#SVGID_1_);stroke-miterlimit:10;}
	.st2{fill:url(#SVGID_2_);}
	.st3{fill:url(#SVGID_3_);}
	.st4{fill:none;stroke:url(#SVGID_4_);stroke-miterlimit:10;}
	.st5{fill:none;stroke:url(#SVGID_5_);stroke-miterlimit:10;}
	.st6{fill:url(#SVGID_6_);}
	.st7{fill:none;stroke:url(#SVGID_7_);stroke-miterlimit:10;}
	.st8{fill:url(#SVGID_8_);}
	.st9{fill:url(#SVGID_9_);}
	.st10{fill:none;stroke:url(#SVGID_10_);stroke-miterlimit:10;}
	.st11{fill:none;stroke:url(#SVGID_11_);stroke-miterlimit:10;}
	.st12{fill:url(#SVGID_12_);}
	.st13{fill:none;stroke:url(#SVGID_13_);stroke-miterlimit:10;}
	.st14{fill:url(#SVGID_14_);}
	.st15{fill:url(#SVGID_15_);}
	.st16{fill:none;stroke:url(#SVGID_16_);stroke-miterlimit:10;}
	.st17{fill:none;stroke:url(#SVGID_17_);stroke-miterlimit:10;}
	.st18{fill:url(#SVGID_18_);}
	.st19{fill:none;stroke:url(#SVGID_19_);stroke-miterlimit:10;}
	.st20{fill:none;stroke:url(#SVGID_20_);stroke-miterlimit:10;}
	.st21{fill:url(#SVGID_21_);}
	.st22{fill:url(#SVGID_22_);}
	.st23{fill:url(#SVGID_23_);}
	.st24{fill:none;stroke:url(#SVGID_24_);stroke-miterlimit:10;}
	.st25{fill:none;stroke:url(#SVGID_25_);stroke-miterlimit:10;}
	.st26{fill:none;stroke:url(#SVGID_26_);stroke-miterlimit:10;}
	.st27{fill:url(#SVGID_27_);}
	.st28{fill:none;stroke:url(#SVGID_28_);stroke-miterlimit:10;}
	.st29{fill:none;stroke:url(#SVGID_29_);stroke-miterlimit:10;}
	.st30{fill:url(#SVGID_30_);}
	.st31{fill:url(#SVGID_31_);}
	.st32{fill:none;stroke:url(#SVGID_32_);stroke-miterlimit:10;}
	.st33{fill:url(#SVGID_33_);}
	.st34{fill:none;stroke:url(#SVGID_34_);stroke-miterlimit:10;}
	.st35{fill:none;stroke:url(#SVGID_35_);stroke-miterlimit:10;}
	.st36{fill:url(#SVGID_36_);}
	.st37{fill:url(#SVGID_37_);}
	.st38{fill:url(#SVGID_38_);}
	.st39{fill:none;stroke:url(#SVGID_39_);stroke-miterlimit:10;}
	.st40{fill:none;stroke:url(#SVGID_40_);stroke-miterlimit:10;}
	.st41{fill:none;stroke:url(#SVGID_41_);stroke-miterlimit:10;}
	.st42{fill:url(#SVGID_42_);}
	.st43{fill:url(#SVGID_43_);}
	.st44{fill:url(#SVGID_44_);}
	.st45{fill:none;stroke:url(#SVGID_45_);stroke-miterlimit:10;}
	.st46{fill:none;stroke:url(#SVGID_46_);stroke-width:4;stroke-miterlimit:10;}
	.st47{fill:none;stroke:url(#SVGID_47_);stroke-width:4;stroke-miterlimit:10;}
	.st48{fill:none;stroke:url(#SVGID_48_);stroke-width:4;stroke-miterlimit:10;}
	.st49{fill:none;stroke:url(#SVGID_49_);stroke-width:4;stroke-miterlimit:10;}
	.st50{fill:none;stroke:url(#SVGID_50_);stroke-miterlimit:10;}
	.st51{fill:none;stroke:url(#SVGID_51_);stroke-width:4;stroke-miterlimit:10;}
	.st52{fill:url(#SVGID_52_);}
	.st53{fill:url(#SVGID_53_);}
	.st54{fill:url(#SVGID_54_);}
	.st55{fill:#EB2D7C;}
	.st56{fill:url(#SVGID_55_);}
	.st57{fill:none;stroke:url(#SVGID_56_);stroke-width:4;stroke-miterlimit:10;}
	.st58{fill:none;stroke:url(#SVGID_57_);stroke-width:4;stroke-miterlimit:10;}
	.st59{fill:none;stroke:url(#SVGID_58_);stroke-width:4;stroke-miterlimit:10;}
	.st60{fill:none;stroke:url(#SVGID_59_);stroke-width:4;stroke-miterlimit:10;}
	.st61{fill:none;stroke:url(#SVGID_60_);stroke-width:4;stroke-miterlimit:10;}
	.st62{fill:none;stroke:url(#SVGID_61_);stroke-width:4;stroke-miterlimit:10;}
	.st63{fill:none;stroke:url(#SVGID_62_);stroke-miterlimit:10;}
	.st64{fill:url(#SVGID_63_);}
	.st65{fill:url(#SVGID_64_);}
	.st66{fill:url(#SVGID_65_);}
	.st67{fill:url(#SVGID_66_);}
	.st68{fill:none;stroke:url(#SVGID_67_);stroke-width:4;stroke-miterlimit:10;}
	.st69{fill:url(#SVGID_68_);}
	.st70{fill:url(#SVGID_69_);}
	.st71{fill:none;stroke:url(#SVGID_70_);stroke-width:4;stroke-miterlimit:10;}
	.st72{fill:none;stroke:url(#SVGID_71_);stroke-width:4;stroke-miterlimit:10;}
	.st73{fill:url(#SVGID_72_);}
	.st74{fill:url(#SVGID_73_);}
	.st75{fill:none;stroke:url(#SVGID_74_);stroke-width:4;stroke-miterlimit:10;}
	.st76{fill:url(#SVGID_75_);}
	.st77{fill:url(#SVGID_76_);}
	.st78{fill:url(#SVGID_77_);}
	.st79{fill:url(#SVGID_78_);}
	.st80{fill:url(#SVGID_79_);}
	.st81{fill:url(#SVGID_80_);}
	.st82{fill:url(#SVGID_81_);}
	.st83{fill:url(#SVGID_82_);}
	.st84{fill:url(#SVGID_83_);}
	.st85{fill:url(#SVGID_84_);}
	.st86{fill:url(#SVGID_85_);}
	.st87{fill:url(#SVGID_86_);}
	.st88{fill:none;stroke:url(#SVGID_87_);stroke-width:4;stroke-miterlimit:10;}
	.st89{fill:url(#SVGID_88_);}
	.st90{fill:url(#SVGID_89_);}
	.st91{fill:none;stroke:url(#SVGID_90_);stroke-width:4;stroke-miterlimit:10;}
	.st92{fill:none;stroke:url(#SVGID_91_);stroke-width:4;stroke-miterlimit:10;}
	.st93{fill:url(#SVGID_92_);}
	.st94{fill:url(#SVGID_93_);}
	.st95{fill:none;stroke:url(#SVGID_94_);stroke-width:4;stroke-miterlimit:10;}
	.st96{fill:url(#SVGID_95_);}
	.st97{fill:url(#SVGID_96_);}
	.st98{fill:url(#SVGID_97_);}
	.st99{fill:url(#SVGID_98_);}
	.st100{fill:url(#SVGID_99_);}
	.st101{fill:url(#SVGID_100_);}
	.st102{fill:url(#SVGID_101_);}
	.st103{fill:url(#SVGID_102_);}
	.st104{fill:url(#SVGID_103_);}
	.st105{fill:url(#SVGID_104_);}
	.st106{fill:url(#SVGID_105_);}
	.st107{fill:none;stroke:url(#SVGID_106_);stroke-width:4;stroke-miterlimit:10;}
	.st108{fill:none;stroke:url(#SVGID_107_);stroke-width:4;stroke-miterlimit:10;}
	.st109{fill:none;stroke:url(#SVGID_108_);stroke-width:4;stroke-miterlimit:10;}
	.st110{fill:none;stroke:url(#SVGID_109_);stroke-width:4;stroke-miterlimit:10;}
	.st111{fill:none;stroke:url(#SVGID_110_);stroke-width:4;stroke-miterlimit:10;}
	.st112{fill:none;stroke:url(#SVGID_111_);stroke-width:4;stroke-miterlimit:10;}
	.st113{fill:none;stroke:url(#SVGID_112_);stroke-width:4;stroke-miterlimit:10;}
	.st114{fill:none;stroke:url(#SVGID_113_);stroke-width:4;stroke-miterlimit:10;}
	.st115{fill:none;stroke:url(#SVGID_114_);stroke-width:4;stroke-miterlimit:10;}
	.st116{fill:none;stroke:url(#SVGID_115_);stroke-width:4;stroke-miterlimit:10;}
	.st117{fill:none;stroke:url(#SVGID_116_);stroke-width:4;stroke-miterlimit:10;}
	.st118{fill:none;stroke:url(#SVGID_117_);stroke-width:4;stroke-miterlimit:10;}
	.st119{fill:none;stroke:url(#SVGID_118_);stroke-width:4;stroke-miterlimit:10;}
	.st120{fill:none;stroke:url(#SVGID_119_);stroke-width:4;stroke-miterlimit:10;}
	.st121{fill:none;stroke:url(#SVGID_120_);stroke-width:4;stroke-miterlimit:10;}
	.st122{fill:none;stroke:url(#SVGID_121_);stroke-width:4;stroke-miterlimit:10;}
	.st123{fill:url(#SVGID_122_);}
	.st124{fill:url(#SVGID_123_);}
	.st125{fill:url(#SVGID_124_);}
	.st126{fill:url(#SVGID_125_);}
	.st127{fill:#FFFFFF;}
	.st128{fill:url(#SVGID_126_);}
	.st129{fill:none;stroke:url(#SVGID_127_);stroke-width:4;stroke-miterlimit:10;}
	.st130{fill:url(#SVGID_128_);}
	.st131{fill:url(#SVGID_129_);}
	.st132{fill:none;stroke:url(#SVGID_130_);stroke-width:4;stroke-miterlimit:10;}
	.st133{fill:none;stroke:url(#SVGID_131_);stroke-width:4;stroke-miterlimit:10;}
	.st134{fill:url(#SVGID_132_);}
	.st135{fill:url(#SVGID_133_);}
	.st136{fill:none;stroke:url(#SVGID_134_);stroke-width:4;stroke-miterlimit:10;}
	.st137{fill:url(#SVGID_135_);}
	.st138{fill:url(#SVGID_136_);}
	.st139{fill:url(#SVGID_137_);}
	.st140{fill:url(#SVGID_138_);}
	.st141{fill:url(#SVGID_139_);}
	.st142{fill:url(#SVGID_140_);}
	.st143{fill:url(#SVGID_141_);}
	.st144{fill:url(#SVGID_142_);}
	.st145{fill:url(#SVGID_143_);}
	.st146{fill:url(#SVGID_144_);}
	.st147{fill:url(#SVGID_145_);}
	.st148{fill:url(#SVGID_146_);}
	.st149{fill:none;stroke:url(#SVGID_147_);stroke-width:4;stroke-miterlimit:10;}
	.st150{fill:url(#SVGID_148_);}
	.st151{fill:url(#SVGID_149_);}
	.st152{fill:none;stroke:url(#SVGID_150_);stroke-width:4;stroke-miterlimit:10;}
	.st153{fill:none;stroke:url(#SVGID_151_);stroke-width:4;stroke-miterlimit:10;}
	.st154{fill:url(#SVGID_152_);}
	.st155{fill:url(#SVGID_153_);}
	.st156{fill:none;stroke:url(#SVGID_154_);stroke-width:4;stroke-miterlimit:10;}
	.st157{fill:url(#SVGID_155_);}
	.st158{fill:url(#SVGID_156_);}
	.st159{fill:url(#SVGID_157_);}
	.st160{fill:url(#SVGID_158_);}
	.st161{fill:url(#SVGID_159_);}
	.st162{fill:url(#SVGID_160_);}
	.st163{fill:url(#SVGID_161_);}
	.st164{fill:url(#SVGID_162_);}
	.st165{fill:url(#SVGID_163_);}
	.st166{fill:url(#SVGID_164_);}
	.st167{fill:url(#SVGID_165_);}
	.st168{fill:none;stroke:url(#SVGID_166_);stroke-width:4;stroke-miterlimit:10;}
	.st169{fill:none;stroke:url(#SVGID_167_);stroke-width:4;stroke-miterlimit:10;}
	.st170{fill:none;stroke:url(#SVGID_168_);stroke-width:4;stroke-miterlimit:10;}
	.st171{fill:none;stroke:url(#SVGID_169_);stroke-miterlimit:10;}
	.st172{fill:none;stroke:url(#SVGID_170_);stroke-miterlimit:10;}
	.st173{fill:none;stroke:url(#SVGID_171_);stroke-miterlimit:10;}
	.st174{fill:none;stroke:url(#SVGID_172_);stroke-width:4;stroke-miterlimit:10;}
	.st175{fill:none;stroke:url(#SVGID_173_);stroke-width:4;stroke-miterlimit:10;}
	.st176{fill:none;stroke:url(#SVGID_174_);stroke-width:4;stroke-miterlimit:10;}
	.st177{fill:none;stroke:url(#SVGID_175_);stroke-width:4;stroke-miterlimit:10;}
	.st178{fill:none;stroke:url(#SVGID_176_);stroke-width:4;stroke-miterlimit:10;}
	.st179{fill:none;stroke:url(#SVGID_177_);stroke-width:4;stroke-miterlimit:10;}
	.st180{fill:none;stroke:url(#SVGID_178_);stroke-width:4;stroke-miterlimit:10;}
	.st181{fill:none;stroke:url(#SVGID_179_);stroke-width:4;stroke-miterlimit:10;}
	.st182{fill:none;stroke:url(#SVGID_180_);stroke-width:4;stroke-miterlimit:10;}
	.st183{fill:none;stroke:url(#SVGID_181_);stroke-width:4;stroke-miterlimit:10;}
	.st184{fill:none;stroke:url(#SVGID_182_);stroke-width:4;stroke-miterlimit:10;}
	.st185{fill:none;stroke:url(#SVGID_183_);stroke-width:4;stroke-miterlimit:10;}
	.st186{fill:none;stroke:url(#SVGID_184_);stroke-width:4;stroke-miterlimit:10;}
	.st187{fill:url(#SVGID_185_);}
	.st188{fill:url(#SVGID_186_);}
	.st189{fill:url(#SVGID_187_);}
	.st190{fill:url(#SVGID_188_);}
	.st191{fill:url(#SVGID_189_);}
	.st192{fill:url(#New_Pattern_4);stroke:url(#SVGID_190_);stroke-miterlimit:10;}
	.st193{fill:#414142;}
	.st194{fill:#231F20;}
	.st195{fill:url(#SVGID_191_);}
	.st196{fill:url(#SVGID_192_);}
	.st197{fill:url(#SVGID_193_);}
	.st198{fill:url(#SVGID_194_);}
	.st199{fill:url(#SVGID_195_);}
	.st200{fill:#595A5C;}
	.st201{fill:url(#SVGID_196_);}
	.st202{fill:url(#SVGID_197_);}
	.st203{fill:url(#SVGID_198_);}
	.st204{fill:url(#SVGID_199_);}
	.st205{fill:#443992;}
	.st206{fill:url(#New_Pattern_4);}
	.st207{fill:url(#SVGID_200_);}
	.st208{fill:#433692;}
	.st209{fill:none;stroke:url(#SVGID_201_);stroke-width:4;stroke-miterlimit:10;}
	.st210{fill:none;stroke:url(#SVGID_202_);stroke-width:4;stroke-miterlimit:10;}
	.st211{fill:none;stroke:url(#SVGID_203_);stroke-width:4;stroke-miterlimit:10;}
	.st212{fill:none;stroke:url(#SVGID_204_);stroke-width:4;stroke-miterlimit:10;}
	.st213{fill:none;stroke:url(#SVGID_205_);stroke-miterlimit:10;}
	.st214{fill:none;stroke:url(#SVGID_206_);stroke-width:4;stroke-miterlimit:10;}
	.st215{fill:url(#SVGID_207_);}
	.st216{fill:url(#SVGID_208_);}
	.st217{fill:url(#SVGID_209_);}
	.st218{fill:url(#SVGID_210_);}
	.st219{fill:none;stroke:url(#SVGID_211_);stroke-width:4;stroke-miterlimit:10;}
	.st220{fill:none;stroke:url(#SVGID_212_);stroke-width:4;stroke-miterlimit:10;}
	.st221{fill:none;stroke:url(#SVGID_213_);stroke-width:4;stroke-miterlimit:10;}
	.st222{fill:none;stroke:url(#SVGID_214_);stroke-width:4;stroke-miterlimit:10;}
	.st223{fill:none;stroke:url(#SVGID_215_);stroke-width:4;stroke-miterlimit:10;}
	.st224{fill:none;stroke:url(#SVGID_216_);stroke-width:4;stroke-miterlimit:10;}
	.st225{fill:none;stroke:url(#SVGID_217_);stroke-miterlimit:10;}
	.st226{fill:url(#SVGID_218_);}
	.st227{fill:url(#SVGID_219_);}
	.st228{fill:url(#SVGID_220_);}
	.st229{fill:url(#SVGID_221_);}
	.st230{fill:none;stroke:url(#SVGID_222_);stroke-width:4;stroke-miterlimit:10;}
	.st231{fill:url(#SVGID_223_);}
	.st232{fill:url(#SVGID_224_);}
	.st233{fill:none;stroke:url(#SVGID_225_);stroke-width:4;stroke-miterlimit:10;}
	.st234{fill:none;stroke:url(#SVGID_226_);stroke-width:4;stroke-miterlimit:10;}
	.st235{fill:url(#SVGID_227_);}
	.st236{fill:url(#SVGID_228_);}
	.st237{fill:none;stroke:url(#SVGID_229_);stroke-width:4;stroke-miterlimit:10;}
	.st238{fill:url(#SVGID_230_);}
	.st239{fill:url(#SVGID_231_);}
	.st240{fill:url(#SVGID_232_);}
	.st241{fill:url(#SVGID_233_);}
	.st242{fill:url(#SVGID_234_);}
	.st243{fill:url(#SVGID_235_);}
	.st244{fill:url(#SVGID_236_);}
	.st245{fill:url(#SVGID_237_);}
	.st246{fill:url(#SVGID_238_);}
	.st247{fill:url(#SVGID_239_);}
	.st248{fill:url(#SVGID_240_);}
	.st249{fill:url(#SVGID_241_);}
	.st250{fill:none;stroke:url(#SVGID_242_);stroke-width:4;stroke-miterlimit:10;}
	.st251{fill:url(#SVGID_243_);}
	.st252{fill:url(#SVGID_244_);}
	.st253{fill:none;stroke:url(#SVGID_245_);stroke-width:4;stroke-miterlimit:10;}
	.st254{fill:none;stroke:url(#SVGID_246_);stroke-width:4;stroke-miterlimit:10;}
	.st255{fill:url(#SVGID_247_);}
	.st256{fill:url(#SVGID_248_);}
	.st257{fill:none;stroke:url(#SVGID_249_);stroke-width:4;stroke-miterlimit:10;}
	.st258{fill:url(#SVGID_250_);}
	.st259{fill:url(#SVGID_251_);}
	.st260{fill:url(#SVGID_252_);}
	.st261{fill:url(#SVGID_253_);}
	.st262{fill:url(#SVGID_254_);}
	.st263{fill:url(#SVGID_255_);}
	.st264{fill:url(#SVGID_256_);}
	.st265{fill:url(#SVGID_257_);}
	.st266{fill:url(#SVGID_258_);}
	.st267{fill:url(#SVGID_259_);}
	.st268{fill:url(#SVGID_260_);}
	.st269{fill:none;stroke:url(#SVGID_261_);stroke-width:4;stroke-miterlimit:10;}
	.st270{fill:none;stroke:url(#SVGID_262_);stroke-width:4;stroke-miterlimit:10;}
	.st271{fill:none;stroke:url(#SVGID_263_);stroke-width:4;stroke-miterlimit:10;}
	.st272{fill:none;stroke:url(#SVGID_264_);stroke-width:4;stroke-miterlimit:10;}
	.st273{fill:none;stroke:url(#SVGID_265_);stroke-width:4;stroke-miterlimit:10;}
	.st274{fill:none;stroke:url(#SVGID_266_);stroke-width:4;stroke-miterlimit:10;}
	.st275{fill:none;stroke:url(#SVGID_267_);stroke-width:4;stroke-miterlimit:10;}
	.st276{fill:none;stroke:url(#SVGID_268_);stroke-width:4;stroke-miterlimit:10;}
	.st277{fill:none;stroke:url(#SVGID_269_);stroke-width:4;stroke-miterlimit:10;}
	.st278{fill:none;stroke:url(#SVGID_270_);stroke-width:4;stroke-miterlimit:10;}
	.st279{fill:none;stroke:url(#SVGID_271_);stroke-width:4;stroke-miterlimit:10;}
	.st280{fill:none;stroke:url(#SVGID_272_);stroke-width:4;stroke-miterlimit:10;}
	.st281{fill:none;stroke:url(#SVGID_273_);stroke-width:4;stroke-miterlimit:10;}
	.st282{fill:none;stroke:url(#SVGID_274_);stroke-width:4;stroke-miterlimit:10;}
	.st283{fill:none;stroke:url(#SVGID_275_);stroke-width:4;stroke-miterlimit:10;}
	.st284{fill:none;stroke:url(#SVGID_276_);stroke-width:4;stroke-miterlimit:10;}
	.st285{fill:url(#SVGID_277_);}
	.st286{fill:url(#SVGID_278_);}
	.st287{fill:url(#SVGID_279_);}
	.st288{fill:url(#SVGID_280_);}
	.st289{fill:url(#SVGID_281_);}
	.st290{fill:none;stroke:url(#SVGID_282_);stroke-width:4;stroke-miterlimit:10;}
	.st291{fill:url(#SVGID_283_);}
	.st292{fill:url(#SVGID_284_);}
	.st293{fill:none;stroke:url(#SVGID_285_);stroke-width:4;stroke-miterlimit:10;}
	.st294{fill:none;stroke:url(#SVGID_286_);stroke-width:4;stroke-miterlimit:10;}
	.st295{fill:url(#SVGID_287_);}
	.st296{fill:url(#SVGID_288_);}
	.st297{fill:none;stroke:url(#SVGID_289_);stroke-width:4;stroke-miterlimit:10;}
	.st298{fill:url(#SVGID_290_);}
	.st299{fill:url(#SVGID_291_);}
	.st300{fill:url(#SVGID_292_);}
	.st301{fill:url(#SVGID_293_);}
	.st302{fill:url(#SVGID_294_);}
	.st303{fill:url(#SVGID_295_);}
	.st304{fill:url(#SVGID_296_);}
	.st305{fill:url(#SVGID_297_);}
	.st306{fill:url(#SVGID_298_);}
	.st307{fill:url(#SVGID_299_);}
	.st308{fill:url(#SVGID_300_);}
	.st309{fill:url(#SVGID_301_);}
	.st310{fill:none;stroke:url(#SVGID_302_);stroke-width:4;stroke-miterlimit:10;}
	.st311{fill:url(#SVGID_303_);}
	.st312{fill:url(#SVGID_304_);}
	.st313{fill:none;stroke:url(#SVGID_305_);stroke-width:4;stroke-miterlimit:10;}
	.st314{fill:none;stroke:url(#SVGID_306_);stroke-width:4;stroke-miterlimit:10;}
	.st315{fill:url(#SVGID_307_);}
	.st316{fill:url(#SVGID_308_);}
	.st317{fill:none;stroke:url(#SVGID_309_);stroke-width:4;stroke-miterlimit:10;}
	.st318{fill:url(#SVGID_310_);}
	.st319{fill:url(#SVGID_311_);}
	.st320{fill:url(#SVGID_312_);}
	.st321{fill:url(#SVGID_313_);}
	.st322{fill:url(#SVGID_314_);}
	.st323{fill:url(#SVGID_315_);}
	.st324{fill:url(#SVGID_316_);}
	.st325{fill:url(#SVGID_317_);}
	.st326{fill:url(#SVGID_318_);}
	.st327{fill:url(#SVGID_319_);}
	.st328{fill:url(#SVGID_320_);}
	.st329{fill:none;stroke:url(#SVGID_321_);stroke-width:4;stroke-miterlimit:10;}
	.st330{fill:none;stroke:url(#SVGID_322_);stroke-width:4;stroke-miterlimit:10;}
	.st331{fill:none;stroke:url(#SVGID_323_);stroke-width:4;stroke-miterlimit:10;}
	.st332{fill:none;stroke:url(#SVGID_324_);stroke-miterlimit:10;}
	.st333{fill:none;stroke:url(#SVGID_325_);stroke-miterlimit:10;}
	.st334{fill:none;stroke:url(#SVGID_326_);stroke-miterlimit:10;}
	.st335{fill:none;stroke:url(#SVGID_327_);stroke-width:4;stroke-miterlimit:10;}
	.st336{fill:none;stroke:url(#SVGID_328_);stroke-width:4;stroke-miterlimit:10;}
	.st337{fill:none;stroke:url(#SVGID_329_);stroke-width:4;stroke-miterlimit:10;}
	.st338{fill:none;stroke:url(#SVGID_330_);stroke-width:4;stroke-miterlimit:10;}
	.st339{fill:none;stroke:url(#SVGID_331_);stroke-width:4;stroke-miterlimit:10;}
	.st340{fill:none;stroke:url(#SVGID_332_);stroke-width:4;stroke-miterlimit:10;}
	.st341{fill:none;stroke:url(#SVGID_333_);stroke-width:4;stroke-miterlimit:10;}
	.st342{fill:none;stroke:url(#SVGID_334_);stroke-width:4;stroke-miterlimit:10;}
	.st343{fill:none;stroke:url(#SVGID_335_);stroke-width:4;stroke-miterlimit:10;}
	.st344{fill:none;stroke:url(#SVGID_336_);stroke-width:4;stroke-miterlimit:10;}
	.st345{fill:none;stroke:url(#SVGID_337_);stroke-width:4;stroke-miterlimit:10;}
	.st346{fill:none;stroke:url(#SVGID_338_);stroke-width:4;stroke-miterlimit:10;}
	.st347{fill:none;stroke:url(#SVGID_339_);stroke-width:4;stroke-miterlimit:10;}
	.st348{fill:url(#SVGID_340_);}
	.st349{fill:url(#SVGID_341_);}
	.st350{fill:url(#SVGID_342_);}
	.st351{fill:url(#SVGID_343_);}
	.st352{fill:url(#SVGID_344_);}
	.st353{fill:url(#New_Pattern_4);stroke:url(#SVGID_345_);stroke-miterlimit:10;}
	.st354{fill:url(#SVGID_346_);}
	.st355{fill:url(#SVGID_347_);}
	.st356{fill:url(#SVGID_348_);}
	.st357{fill:url(#SVGID_349_);}
	.st358{fill:url(#SVGID_350_);}
	.st359{fill:url(#SVGID_351_);}
	.st360{fill:url(#SVGID_352_);}
	.st361{fill:url(#SVGID_353_);}
	.st362{fill:url(#SVGID_354_);}
	.st363{fill:none;stroke:#000000;stroke-width:3;stroke-miterlimit:10;}
</style>
<pattern  x="-5000.63" y="1649.09" width="1034.16" height="1011.22" patternUnits="userSpaceOnUse" id="New_Pattern_4" viewBox="70.08 -1090.51 1034.16 1011.22" style="overflow:visible;">
	<g>
		<rect x="70.08" y="-1090.51" class="st0" width="1034.16" height="1011.22"/>
		<g>
			
				<linearGradient id="SVGID_1_" gradientUnits="userSpaceOnUse" x1="941.7933" y1="-12268.3145" x2="1083.0785" y2="-12268.3145" gradientTransform="matrix(1 0 0 -1 -166.1705 -12325.1709)">
				<stop  offset="0" style="stop-color:#433692"/>
				<stop  offset="1" style="stop-color:#EB2D7C"/>
			</linearGradient>
			<path class="st1" d="M776.13-106.45h40.13c0.51,32.71,27.18,59.05,60.01,59.05v-59.05h40.14v99.2h-40.14
				C821.27-7.26,776.63-51.58,776.13-106.45z"/>
			
				<linearGradient id="SVGID_2_" gradientUnits="userSpaceOnUse" x1="760.828" y1="-12268.3145" x2="860.9608" y2="-12268.3145" gradientTransform="matrix(1 0 0 -1 -166.1705 -12325.1709)">
				<stop  offset="0" style="stop-color:#433692"/>
				<stop  offset="1" style="stop-color:#EB2D7C"/>
			</linearGradient>
			<circle class="st2" cx="644.72" cy="-56.86" r="50.07"/>
			
				<linearGradient id="SVGID_3_" gradientUnits="userSpaceOnUse" x1="1244.3789" y1="-1985.042" x2="1284.7867" y2="-1985.042" gradientTransform="matrix(0.7071 -0.7071 -0.7071 -0.7071 -1251.153 -566.298)">
				<stop  offset="0" style="stop-color:#433692"/>
				<stop  offset="1" style="stop-color:#EB2D7C"/>
			</linearGradient>
			<path class="st3" d="M1018.4-113.71l85.14,85.14L1074.96,0l-85.14-85.14L1018.4-113.71z"/>
			
				<linearGradient id="SVGID_4_" gradientUnits="userSpaceOnUse" x1="790.1904" y1="-12066.6885" x2="831.5983" y2="-12066.6885" gradientTransform="matrix(1 0 0 -1 -166.1705 -12325.1709)">
				<stop  offset="0" style="stop-color:#433692"/>
				<stop  offset="1" style="stop-color:#EB2D7C"/>
			</linearGradient>
			<rect x="624.52" y="-318.69" class="st4" width="40.41" height="120.41"/>
			
				<linearGradient id="SVGID_5_" gradientUnits="userSpaceOnUse" x1="7727.3291" y1="-18891.2324" x2="7768.7368" y2="-18891.2324" gradientTransform="matrix(0.7071 0.7071 0.7071 -0.7071 8926.1104 -19098.6348)">
				<stop  offset="0" style="stop-color:#433692"/>
				<stop  offset="1" style="stop-color:#EB2D7C"/>
			</linearGradient>
			
				<rect x="1026.47" y="-322.03" transform="matrix(0.7071 -0.7071 0.7071 0.7071 491.7061 663.4257)" class="st5" width="40.41" height="120.41"/>
			
				<linearGradient id="SVGID_6_" gradientUnits="userSpaceOnUse" x1="972.2504" y1="-12030.958" x2="1079.8696" y2="-12093.0918" gradientTransform="matrix(1 0 0 -1 -166.1705 -12325.1709)">
				<stop  offset="0" style="stop-color:#433692"/>
				<stop  offset="1" style="stop-color:#EB2D7C"/>
			</linearGradient>
			<path class="st6" d="M886.44-214.38v29.51h-1.25v-0.02h-15.05c-0.54-0.01-1.07-0.01-1.6-0.03c-0.31-0.01-0.63-0.02-0.94-0.03
				c-0.96-0.03-1.91-0.09-2.86-0.16c-0.53-0.04-1.07-0.09-1.6-0.14c-0.99-0.1-1.99-0.21-2.98-0.36c-0.28-0.04-0.55-0.08-0.83-0.12
				c-0.12-0.02-0.23-0.03-0.34-0.06c-0.3-0.04-0.61-0.09-0.91-0.15c-0.61-0.1-1.21-0.21-1.81-0.33c-0.3-0.06-0.6-0.12-0.89-0.18
				c-0.3-0.06-0.59-0.13-0.89-0.19c-0.92-0.2-1.82-0.42-2.72-0.65c-0.27-0.08-0.54-0.15-0.81-0.22c-1.53-0.42-3.04-0.89-4.52-1.4
				c-0.22-0.08-0.43-0.15-0.64-0.23c-0.31-0.11-0.62-0.22-0.93-0.33c-0.25-0.1-0.51-0.19-0.76-0.29c-0.28-0.11-0.56-0.22-0.84-0.33
				c-0.27-0.11-0.55-0.22-0.83-0.34c-1.38-0.57-2.73-1.17-4.07-1.82c-0.27-0.13-0.53-0.26-0.8-0.39c-0.54-0.27-1.09-0.55-1.62-0.84
				c-0.25-0.13-0.5-0.26-0.74-0.4c-1.04-0.56-2.06-1.16-3.07-1.77c-0.46-0.28-0.91-0.56-1.35-0.85
				c-7.5-4.81-14.06-10.93-19.37-18.06c-0.35-0.47-0.7-0.94-1.04-1.43c-0.17-0.24-0.33-0.48-0.5-0.72
				c-0.32-0.46-0.63-0.92-0.93-1.38c-0.02-0.03-0.03-0.06-0.06-0.09c-0.16-0.25-0.32-0.5-0.48-0.75c-0.18-0.27-0.34-0.53-0.51-0.81
				c-0.15-0.23-0.29-0.46-0.43-0.69c-1.07-1.77-2.07-3.59-2.99-5.45c-0.13-0.27-0.26-0.53-0.39-0.8c-0.64-1.34-1.25-2.69-1.81-4.08
				c-0.11-0.27-0.22-0.55-0.33-0.83c-0.21-0.54-0.42-1.08-0.62-1.62c-0.13-0.35-0.25-0.69-0.37-1.04c-0.09-0.24-0.17-0.48-0.25-0.71
				c-0.13-0.39-0.26-0.77-0.38-1.15c-0.15-0.45-0.28-0.91-0.42-1.36c-0.69-2.32-1.27-4.69-1.73-7.11c-0.05-0.26-0.1-0.52-0.15-0.79
				c-0.3-1.68-0.54-3.38-0.73-5.09c-0.05-0.39-0.09-0.78-0.12-1.17c-0.02-0.17-0.03-0.35-0.05-0.52c-0.04-0.48-0.08-0.96-0.1-1.45
				c-0.11-1.62-0.17-3.26-0.17-4.91c0-1.65,0.06-3.29,0.17-4.91c0.03-0.48,0.07-0.97,0.1-1.45c0.02-0.17,0.03-0.34,0.05-0.52
				c0.03-0.39,0.07-0.79,0.12-1.17c0.19-1.72,0.43-3.42,0.73-5.1c0.05-0.27,0.1-0.53,0.15-0.79c0.46-2.42,1.04-4.78,1.73-7.11
				c0.14-0.45,0.27-0.91,0.42-1.36c0.12-0.38,0.25-0.76,0.38-1.15c0.08-0.24,0.16-0.48,0.25-0.72c0.12-0.35,0.24-0.69,0.37-1.04
				c0.2-0.54,0.41-1.08,0.62-1.62c0.11-0.28,0.22-0.56,0.33-0.83c0.57-1.38,1.17-2.74,1.81-4.08c0.13-0.27,0.26-0.53,0.39-0.8
				c0.92-1.86,1.92-3.67,2.99-5.45c0.14-0.23,0.28-0.46,0.43-0.69c0.17-0.27,0.33-0.54,0.51-0.81c0.15-0.25,0.32-0.5,0.48-0.74
				c0.02-0.03,0.04-0.06,0.06-0.09c0.31-0.46,0.62-0.93,0.93-1.38c0.17-0.24,0.33-0.48,0.5-0.72c0.34-0.48,0.69-0.96,1.04-1.43
				c5.3-7.12,11.87-13.25,19.37-18.06c0.45-0.29,0.89-0.57,1.35-0.84c1.01-0.62,2.03-1.21,3.07-1.78c0.24-0.14,0.49-0.27,0.74-0.4
				c0.54-0.28,1.08-0.57,1.62-0.84c0.27-0.13,0.53-0.26,0.8-0.39c1.34-0.65,2.69-1.26,4.07-1.82c0.28-0.12,0.56-0.23,0.83-0.34
				c0.28-0.11,0.56-0.22,0.84-0.33c0.25-0.09,0.51-0.19,0.76-0.28c0.31-0.12,0.62-0.23,0.93-0.34c0.21-0.08,0.42-0.15,0.64-0.23
				c1.48-0.51,2.99-0.98,4.52-1.4c0.27-0.08,0.54-0.15,0.81-0.22c0.9-0.23,1.81-0.45,2.72-0.65c0.3-0.07,0.59-0.13,0.89-0.19
				c0.3-0.07,0.6-0.13,0.89-0.18c0.61-0.12,1.21-0.23,1.81-0.33c0.3-0.05,0.6-0.1,0.91-0.15c0.11-0.02,0.22-0.04,0.34-0.06
				c0.28-0.04,0.55-0.08,0.83-0.12c0.99-0.14,1.98-0.26,2.98-0.36c0.53-0.05,1.07-0.1,1.6-0.14c0.95-0.07,1.9-0.13,2.86-0.16
				c0.32-0.01,0.63-0.02,0.94-0.03c0.53-0.01,1.07-0.03,1.6-0.03h15.05v29.49h-14.75c-0.1,0-0.2,0-0.3,0.01
				c-4.92,0.03-9.65,0.87-14.05,2.4c-2.04,0.69-4.01,1.54-5.89,2.53c-0.32,0.16-0.63,0.32-0.93,0.5c-0.31,0.17-0.62,0.34-0.93,0.52
				c-0.31,0.17-0.61,0.35-0.91,0.54c-0.3,0.18-0.6,0.37-0.89,0.56c-0.32,0.21-0.63,0.41-0.94,0.63c-0.27,0.19-0.54,0.37-0.81,0.57
				c-0.29,0.2-0.57,0.41-0.85,0.62c-1.93,1.46-3.74,3.07-5.4,4.81c-0.25,0.26-0.49,0.51-0.72,0.77c-0.24,0.26-0.47,0.52-0.7,0.79
				c-0.14,0.16-0.28,0.32-0.41,0.48c-0.55,0.65-1.08,1.31-1.58,1.99c-0.21,0.28-0.41,0.55-0.61,0.84c-1.03,1.45-1.98,2.96-2.83,4.53
				c-0.17,0.31-0.34,0.62-0.5,0.94c-1.15,2.24-2.11,4.59-2.86,7.02c-0.1,0.34-0.21,0.69-0.31,1.03c-0.1,0.35-0.19,0.7-0.28,1.05
				c-0.18,0.69-0.34,1.39-0.48,2.09c-0.17,0.83-0.32,1.67-0.44,2.51c-0.09,0.62-0.16,1.24-0.23,1.87c-0.01,0.1-0.02,0.2-0.03,0.3
				c-0.06,0.59-0.1,1.19-0.14,1.78c-0.04,0.8-0.07,1.61-0.07,2.42c0,0.81,0.02,1.62,0.07,2.42c0.03,0.6,0.08,1.19,0.14,1.78
				c0.01,0.1,0.02,0.2,0.03,0.3c0.07,0.63,0.14,1.25,0.23,1.87c0.12,0.85,0.27,1.69,0.44,2.52c0.15,0.7,0.31,1.4,0.48,2.09
				c0.09,0.35,0.18,0.7,0.28,1.05c0.09,0.35,0.2,0.69,0.31,1.03c0.75,2.44,1.71,4.78,2.86,7.02c0.16,0.32,0.33,0.63,0.5,0.94
				c0.85,1.57,1.8,3.08,2.83,4.53c0.2,0.28,0.4,0.56,0.61,0.83c0.51,0.68,1.04,1.35,1.58,2c0.14,0.16,0.27,0.32,0.41,0.48
				c0.23,0.27,0.46,0.53,0.7,0.79c0.23,0.26,0.47,0.52,0.72,0.77c1.66,1.75,3.47,3.36,5.4,4.81c0.28,0.21,0.56,0.42,0.85,0.63
				c0.26,0.2,0.53,0.38,0.81,0.57c0.31,0.21,0.62,0.42,0.94,0.62c0.3,0.2,0.59,0.38,0.89,0.57c0.3,0.19,0.6,0.37,0.91,0.54
				c0.31,0.18,0.61,0.36,0.93,0.52c0.31,0.18,0.62,0.34,0.93,0.5c1.88,0.99,3.86,1.83,5.89,2.53c4.41,1.52,9.13,2.36,14.05,2.4
				c0.1,0.01,0.2,0.01,0.3,0.01H886.44z"/>
		</g>
		<g>
			
				<linearGradient id="SVGID_7_" gradientUnits="userSpaceOnUse" x1="424.7114" y1="-12268.3145" x2="565.9966" y2="-12268.3145" gradientTransform="matrix(1 0 0 -1 -166.1705 -12325.1709)">
				<stop  offset="0" style="stop-color:#433692"/>
				<stop  offset="1" style="stop-color:#EB2D7C"/>
			</linearGradient>
			<path class="st7" d="M259.05-106.45h40.13c0.51,32.71,27.18,59.05,60.01,59.05v-59.05h40.14v99.2h-40.14
				C304.19-7.26,259.55-51.58,259.05-106.45z"/>
			
				<linearGradient id="SVGID_8_" gradientUnits="userSpaceOnUse" x1="243.7462" y1="-12268.3145" x2="343.8789" y2="-12268.3145" gradientTransform="matrix(1 0 0 -1 -166.1705 -12325.1709)">
				<stop  offset="0" style="stop-color:#433692"/>
				<stop  offset="1" style="stop-color:#EB2D7C"/>
			</linearGradient>
			<circle class="st8" cx="127.64" cy="-56.86" r="50.07"/>
			
				<linearGradient id="SVGID_9_" gradientUnits="userSpaceOnUse" x1="878.7468" y1="-1619.4099" x2="919.1547" y2="-1619.4099" gradientTransform="matrix(0.7071 -0.7071 -0.7071 -0.7071 -1251.153 -566.298)">
				<stop  offset="0" style="stop-color:#433692"/>
				<stop  offset="1" style="stop-color:#EB2D7C"/>
			</linearGradient>
			<path class="st9" d="M501.31-113.71l85.14,85.14L557.88,0l-85.14-85.14L501.31-113.71z"/>
			
				<linearGradient id="SVGID_10_" gradientUnits="userSpaceOnUse" x1="273.1086" y1="-12066.6885" x2="314.5165" y2="-12066.6885" gradientTransform="matrix(1 0 0 -1 -166.1705 -12325.1709)">
				<stop  offset="0" style="stop-color:#433692"/>
				<stop  offset="1" style="stop-color:#EB2D7C"/>
			</linearGradient>
			<rect x="107.44" y="-318.69" class="st10" width="40.41" height="120.41"/>
			
				<linearGradient id="SVGID_11_" gradientUnits="userSpaceOnUse" x1="7361.6968" y1="-19256.8652" x2="7403.105" y2="-19256.8652" gradientTransform="matrix(0.7071 0.7071 0.7071 -0.7071 8926.1104 -19098.6348)">
				<stop  offset="0" style="stop-color:#433692"/>
				<stop  offset="1" style="stop-color:#EB2D7C"/>
			</linearGradient>
			
				<rect x="509.39" y="-322.03" transform="matrix(0.7071 -0.7071 0.7071 0.7071 340.2564 297.7936)" class="st11" width="40.41" height="120.41"/>
			
				<linearGradient id="SVGID_12_" gradientUnits="userSpaceOnUse" x1="455.1686" y1="-12030.958" x2="562.7878" y2="-12093.0918" gradientTransform="matrix(1 0 0 -1 -166.1705 -12325.1709)">
				<stop  offset="0" style="stop-color:#433692"/>
				<stop  offset="1" style="stop-color:#EB2D7C"/>
			</linearGradient>
			<path class="st12" d="M369.36-214.38v29.51h-1.25v-0.02h-15.05c-0.54-0.01-1.07-0.01-1.6-0.03c-0.31-0.01-0.63-0.02-0.94-0.03
				c-0.96-0.03-1.91-0.09-2.86-0.16c-0.53-0.04-1.07-0.09-1.6-0.14c-0.99-0.1-1.99-0.21-2.98-0.36c-0.28-0.04-0.55-0.08-0.83-0.12
				c-0.12-0.02-0.23-0.03-0.34-0.06c-0.3-0.04-0.61-0.09-0.91-0.15c-0.61-0.1-1.21-0.21-1.81-0.33c-0.3-0.06-0.6-0.12-0.89-0.18
				c-0.3-0.06-0.59-0.13-0.89-0.19c-0.92-0.2-1.82-0.42-2.72-0.65c-0.27-0.08-0.54-0.15-0.81-0.22c-1.53-0.42-3.04-0.89-4.52-1.4
				c-0.22-0.08-0.43-0.15-0.64-0.23c-0.31-0.11-0.62-0.22-0.93-0.33c-0.25-0.1-0.51-0.19-0.76-0.29c-0.28-0.11-0.56-0.22-0.84-0.33
				c-0.27-0.11-0.55-0.22-0.83-0.34c-1.38-0.57-2.73-1.17-4.07-1.82c-0.27-0.13-0.53-0.26-0.8-0.39c-0.54-0.27-1.09-0.55-1.62-0.84
				c-0.25-0.13-0.5-0.26-0.74-0.4c-1.04-0.56-2.06-1.16-3.07-1.77c-0.46-0.28-0.91-0.56-1.35-0.85
				c-7.5-4.81-14.06-10.93-19.37-18.06c-0.35-0.47-0.7-0.94-1.04-1.43c-0.17-0.24-0.33-0.48-0.5-0.72
				c-0.32-0.46-0.63-0.92-0.93-1.38c-0.02-0.03-0.03-0.06-0.06-0.09c-0.16-0.25-0.32-0.5-0.48-0.75c-0.18-0.27-0.34-0.53-0.51-0.81
				c-0.15-0.23-0.29-0.46-0.43-0.69c-1.07-1.77-2.07-3.59-2.99-5.45c-0.13-0.27-0.26-0.53-0.39-0.8c-0.64-1.34-1.25-2.69-1.81-4.08
				c-0.11-0.27-0.22-0.55-0.33-0.83c-0.21-0.54-0.42-1.08-0.62-1.62c-0.13-0.35-0.25-0.69-0.37-1.04c-0.09-0.24-0.17-0.48-0.25-0.71
				c-0.13-0.39-0.26-0.77-0.38-1.15c-0.15-0.45-0.28-0.91-0.42-1.36c-0.69-2.32-1.27-4.69-1.73-7.11c-0.05-0.26-0.1-0.52-0.15-0.79
				c-0.3-1.68-0.54-3.38-0.73-5.09c-0.05-0.39-0.09-0.78-0.12-1.17c-0.02-0.17-0.03-0.35-0.05-0.52c-0.04-0.48-0.08-0.96-0.1-1.45
				c-0.11-1.62-0.17-3.26-0.17-4.91c0-1.65,0.06-3.29,0.17-4.91c0.03-0.48,0.07-0.97,0.1-1.45c0.02-0.17,0.03-0.34,0.05-0.52
				c0.03-0.39,0.07-0.79,0.12-1.17c0.19-1.72,0.43-3.42,0.73-5.1c0.05-0.27,0.1-0.53,0.15-0.79c0.46-2.42,1.04-4.78,1.73-7.11
				c0.14-0.45,0.27-0.91,0.42-1.36c0.12-0.38,0.25-0.76,0.38-1.15c0.08-0.24,0.16-0.48,0.25-0.72c0.12-0.35,0.24-0.69,0.37-1.04
				c0.2-0.54,0.41-1.08,0.62-1.62c0.11-0.28,0.22-0.56,0.33-0.83c0.57-1.38,1.17-2.74,1.81-4.08c0.13-0.27,0.26-0.53,0.39-0.8
				c0.92-1.86,1.92-3.67,2.99-5.45c0.14-0.23,0.28-0.46,0.43-0.69c0.17-0.27,0.33-0.54,0.51-0.81c0.15-0.25,0.32-0.5,0.48-0.74
				c0.02-0.03,0.04-0.06,0.06-0.09c0.31-0.46,0.62-0.93,0.93-1.38c0.17-0.24,0.33-0.48,0.5-0.72c0.34-0.48,0.69-0.96,1.04-1.43
				c5.3-7.12,11.87-13.25,19.37-18.06c0.45-0.29,0.89-0.57,1.35-0.84c1.01-0.62,2.03-1.21,3.07-1.78c0.24-0.14,0.49-0.27,0.74-0.4
				c0.54-0.28,1.08-0.57,1.62-0.84c0.27-0.13,0.53-0.26,0.8-0.39c1.34-0.65,2.69-1.26,4.07-1.82c0.28-0.12,0.56-0.23,0.83-0.34
				c0.28-0.11,0.56-0.22,0.84-0.33c0.25-0.09,0.51-0.19,0.76-0.28c0.31-0.12,0.62-0.23,0.93-0.34c0.21-0.08,0.42-0.15,0.64-0.23
				c1.48-0.51,2.99-0.98,4.52-1.4c0.27-0.08,0.54-0.15,0.81-0.22c0.9-0.23,1.81-0.45,2.72-0.65c0.3-0.07,0.59-0.13,0.89-0.19
				c0.3-0.07,0.6-0.13,0.89-0.18c0.61-0.12,1.21-0.23,1.81-0.33c0.3-0.05,0.6-0.1,0.91-0.15c0.11-0.02,0.22-0.04,0.34-0.06
				c0.28-0.04,0.55-0.08,0.83-0.12c0.99-0.14,1.98-0.26,2.98-0.36c0.53-0.05,1.07-0.1,1.6-0.14c0.95-0.07,1.9-0.13,2.86-0.16
				c0.32-0.01,0.63-0.02,0.94-0.03c0.53-0.01,1.07-0.03,1.6-0.03h15.05v29.49h-14.75c-0.1,0-0.2,0-0.3,0.01
				c-4.92,0.03-9.65,0.87-14.05,2.4c-2.04,0.69-4.01,1.54-5.89,2.53c-0.32,0.16-0.63,0.32-0.93,0.5c-0.31,0.17-0.62,0.34-0.93,0.52
				c-0.31,0.17-0.61,0.35-0.91,0.54c-0.3,0.18-0.6,0.37-0.89,0.56c-0.32,0.21-0.63,0.41-0.94,0.63c-0.27,0.19-0.54,0.37-0.81,0.57
				c-0.29,0.2-0.57,0.41-0.85,0.62c-1.93,1.46-3.74,3.07-5.4,4.81c-0.25,0.26-0.49,0.51-0.72,0.77c-0.24,0.26-0.47,0.52-0.7,0.79
				c-0.14,0.16-0.28,0.32-0.41,0.48c-0.55,0.65-1.08,1.31-1.58,1.99c-0.21,0.28-0.41,0.55-0.61,0.84c-1.03,1.45-1.98,2.96-2.83,4.53
				c-0.17,0.31-0.34,0.62-0.5,0.94c-1.15,2.24-2.11,4.59-2.86,7.02c-0.1,0.34-0.21,0.69-0.31,1.03c-0.1,0.35-0.19,0.7-0.28,1.05
				c-0.18,0.69-0.34,1.39-0.48,2.09c-0.17,0.83-0.32,1.67-0.44,2.51c-0.09,0.62-0.16,1.24-0.23,1.87c-0.01,0.1-0.02,0.2-0.03,0.3
				c-0.06,0.59-0.1,1.19-0.14,1.78c-0.04,0.8-0.07,1.61-0.07,2.42c0,0.81,0.02,1.62,0.07,2.42c0.03,0.6,0.08,1.19,0.14,1.78
				c0.01,0.1,0.02,0.2,0.03,0.3c0.07,0.63,0.14,1.25,0.23,1.87c0.12,0.85,0.27,1.69,0.44,2.52c0.15,0.7,0.31,1.4,0.48,2.09
				c0.09,0.35,0.18,0.7,0.28,1.05c0.09,0.35,0.2,0.69,0.31,1.03c0.75,2.44,1.71,4.78,2.86,7.02c0.16,0.32,0.33,0.63,0.5,0.94
				c0.85,1.57,1.8,3.08,2.83,4.53c0.2,0.28,0.4,0.56,0.61,0.83c0.51,0.68,1.04,1.35,1.58,2c0.14,0.16,0.27,0.32,0.41,0.48
				c0.23,0.27,0.46,0.53,0.7,0.79c0.23,0.26,0.47,0.52,0.72,0.77c1.66,1.75,3.47,3.36,5.4,4.81c0.28,0.21,0.56,0.42,0.85,0.63
				c0.26,0.2,0.53,0.38,0.81,0.57c0.31,0.21,0.62,0.42,0.94,0.62c0.3,0.2,0.59,0.38,0.89,0.57c0.3,0.19,0.6,0.37,0.91,0.54
				c0.31,0.18,0.61,0.36,0.93,0.52c0.31,0.18,0.62,0.34,0.93,0.5c1.88,0.99,3.86,1.83,5.89,2.53c4.41,1.52,9.13,2.36,14.05,2.4
				c0.1,0.01,0.2,0.01,0.3,0.01H369.36z"/>
		</g>
		<g>
			
				<linearGradient id="SVGID_13_" gradientUnits="userSpaceOnUse" x1="1200.3342" y1="-11762.7061" x2="1341.6194" y2="-11762.7061" gradientTransform="matrix(1 0 0 -1 -166.1705 -12325.1709)">
				<stop  offset="0" style="stop-color:#433692"/>
				<stop  offset="1" style="stop-color:#EB2D7C"/>
			</linearGradient>
			<path class="st13" d="M1034.67-612.06h40.13c0.51,32.71,27.18,59.05,60.01,59.05v-59.05h40.14v99.2h-40.14
				C1079.81-512.87,1035.18-557.19,1034.67-612.06z"/>
			
				<linearGradient id="SVGID_14_" gradientUnits="userSpaceOnUse" x1="1019.369" y1="-11762.7061" x2="1119.5017" y2="-11762.7061" gradientTransform="matrix(1 0 0 -1 -166.1705 -12325.1709)">
				<stop  offset="0" style="stop-color:#433692"/>
				<stop  offset="1" style="stop-color:#EB2D7C"/>
			</linearGradient>
			<circle class="st14" cx="903.26" cy="-562.46" r="50.07"/>
			
				<linearGradient id="SVGID_15_" gradientUnits="userSpaceOnUse" x1="1220.6184" y1="-11935.5049" x2="1321.3397" y2="-11935.5049" gradientTransform="matrix(1 0 0 -1 -166.1705 -12325.1709)">
				<stop  offset="0" style="stop-color:#433692"/>
				<stop  offset="1" style="stop-color:#EB2D7C"/>
			</linearGradient>
			<path class="st15" d="M1155.17-437.55v40.42c-31.67,0-57.64,24.35-60.23,55.35h-40.49
				C1057.1-395.11,1101.18-437.55,1155.17-437.55z"/>
			
				<linearGradient id="SVGID_16_" gradientUnits="userSpaceOnUse" x1="1048.7313" y1="-11561.0801" x2="1090.1393" y2="-11561.0801" gradientTransform="matrix(1 0 0 -1 -166.1705 -12325.1709)">
				<stop  offset="0" style="stop-color:#433692"/>
				<stop  offset="1" style="stop-color:#EB2D7C"/>
			</linearGradient>
			<rect x="883.06" y="-824.29" class="st16" width="40.41" height="120.41"/>
			
				<linearGradient id="SVGID_17_" gradientUnits="userSpaceOnUse" x1="7535.5254" y1="-18902.2461" x2="7576.9336" y2="-18902.2461" gradientTransform="matrix(0.7071 0.7071 0.7071 -0.7071 8926.1104 -19098.6348)">
				<stop  offset="0" style="stop-color:#433692"/>
				<stop  offset="1" style="stop-color:#EB2D7C"/>
			</linearGradient>
			
				<rect x="883.06" y="-449.87" transform="matrix(0.7071 -0.7071 0.7071 0.7071 540.0956 524.5742)" class="st17" width="40.41" height="120.41"/>
			
				<linearGradient id="SVGID_18_" gradientUnits="userSpaceOnUse" x1="1230.7914" y1="-11525.3496" x2="1338.4105" y2="-11587.4834" gradientTransform="matrix(1 0 0 -1 -166.1705 -12325.1709)">
				<stop  offset="0" style="stop-color:#433692"/>
				<stop  offset="1" style="stop-color:#EB2D7C"/>
			</linearGradient>
			<path class="st18" d="M1144.98-719.98v29.51h-1.25v-0.02h-15.05c-0.54-0.01-1.07-0.01-1.6-0.03c-0.31-0.01-0.63-0.02-0.94-0.03
				c-0.96-0.03-1.91-0.09-2.86-0.16c-0.53-0.04-1.07-0.09-1.6-0.14c-0.99-0.1-1.99-0.21-2.98-0.36c-0.28-0.04-0.55-0.08-0.83-0.12
				c-0.12-0.02-0.23-0.03-0.34-0.06c-0.3-0.04-0.61-0.09-0.91-0.15c-0.61-0.1-1.21-0.21-1.81-0.33c-0.3-0.06-0.6-0.12-0.89-0.18
				c-0.3-0.06-0.59-0.13-0.89-0.19c-0.92-0.2-1.82-0.42-2.72-0.65c-0.27-0.08-0.54-0.15-0.81-0.22c-1.53-0.42-3.04-0.89-4.52-1.4
				c-0.22-0.08-0.43-0.15-0.64-0.23c-0.31-0.11-0.62-0.22-0.92-0.33c-0.25-0.1-0.51-0.19-0.76-0.29c-0.28-0.11-0.56-0.22-0.84-0.33
				c-0.27-0.11-0.55-0.22-0.83-0.34c-1.38-0.57-2.73-1.17-4.07-1.82c-0.27-0.13-0.53-0.26-0.8-0.39c-0.54-0.27-1.09-0.55-1.62-0.84
				c-0.25-0.13-0.5-0.26-0.74-0.4c-1.04-0.56-2.06-1.16-3.07-1.77c-0.46-0.28-0.91-0.56-1.35-0.85
				c-7.49-4.81-14.06-10.93-19.37-18.06c-0.35-0.47-0.7-0.94-1.04-1.43c-0.17-0.24-0.33-0.48-0.5-0.72
				c-0.32-0.46-0.63-0.92-0.93-1.38c-0.02-0.03-0.03-0.06-0.06-0.09c-0.16-0.25-0.32-0.5-0.48-0.75c-0.18-0.27-0.34-0.53-0.51-0.81
				c-0.15-0.23-0.29-0.46-0.43-0.69c-1.07-1.77-2.07-3.59-2.99-5.45c-0.13-0.27-0.26-0.53-0.39-0.8c-0.64-1.34-1.25-2.69-1.81-4.08
				c-0.11-0.27-0.22-0.55-0.33-0.83c-0.21-0.54-0.42-1.08-0.62-1.62c-0.13-0.35-0.25-0.69-0.37-1.04c-0.09-0.24-0.17-0.48-0.25-0.71
				c-0.13-0.39-0.26-0.77-0.38-1.15c-0.15-0.45-0.28-0.91-0.42-1.36c-0.69-2.32-1.27-4.69-1.73-7.11c-0.05-0.26-0.1-0.52-0.15-0.79
				c-0.3-1.68-0.54-3.38-0.73-5.09c-0.05-0.39-0.09-0.78-0.12-1.17c-0.02-0.17-0.03-0.35-0.05-0.52c-0.04-0.48-0.08-0.96-0.1-1.45
				c-0.11-1.62-0.17-3.26-0.17-4.91c0-1.65,0.06-3.29,0.17-4.91c0.03-0.48,0.07-0.97,0.1-1.45c0.02-0.17,0.03-0.34,0.05-0.52
				c0.03-0.39,0.07-0.79,0.12-1.17c0.19-1.72,0.43-3.42,0.73-5.1c0.05-0.27,0.1-0.53,0.15-0.79c0.46-2.42,1.04-4.78,1.73-7.11
				c0.14-0.45,0.27-0.91,0.42-1.36c0.12-0.38,0.25-0.76,0.38-1.15c0.08-0.24,0.16-0.48,0.25-0.72c0.12-0.35,0.24-0.69,0.37-1.04
				c0.2-0.54,0.41-1.08,0.62-1.62c0.11-0.28,0.22-0.56,0.33-0.83c0.57-1.38,1.17-2.74,1.81-4.08c0.13-0.27,0.26-0.53,0.39-0.8
				c0.92-1.86,1.92-3.67,2.99-5.45c0.14-0.23,0.28-0.46,0.43-0.69c0.17-0.27,0.33-0.54,0.51-0.81c0.15-0.25,0.32-0.5,0.48-0.74
				c0.02-0.03,0.04-0.06,0.06-0.09c0.31-0.46,0.62-0.93,0.93-1.38c0.17-0.24,0.33-0.48,0.5-0.72c0.34-0.48,0.69-0.96,1.04-1.43
				c5.3-7.12,11.87-13.25,19.37-18.06c0.45-0.29,0.89-0.57,1.35-0.84c1.01-0.62,2.03-1.21,3.07-1.78c0.24-0.14,0.49-0.27,0.74-0.4
				c0.54-0.28,1.08-0.57,1.62-0.84c0.27-0.13,0.53-0.26,0.8-0.39c1.34-0.65,2.69-1.26,4.07-1.82c0.28-0.12,0.56-0.23,0.83-0.34
				c0.28-0.11,0.56-0.22,0.84-0.33c0.25-0.09,0.51-0.19,0.76-0.28c0.31-0.12,0.62-0.23,0.92-0.34c0.21-0.08,0.42-0.15,0.64-0.23
				c1.48-0.51,2.99-0.98,4.52-1.4c0.27-0.08,0.54-0.15,0.81-0.22c0.9-0.23,1.81-0.45,2.72-0.65c0.3-0.07,0.59-0.13,0.89-0.19
				c0.3-0.07,0.6-0.13,0.89-0.18c0.61-0.12,1.21-0.23,1.81-0.33c0.3-0.05,0.6-0.1,0.91-0.15c0.11-0.02,0.22-0.04,0.34-0.06
				c0.28-0.04,0.55-0.08,0.83-0.12c0.99-0.14,1.98-0.26,2.98-0.36c0.53-0.05,1.07-0.1,1.6-0.14c0.95-0.07,1.9-0.13,2.86-0.16
				c0.32-0.01,0.63-0.02,0.94-0.03c0.53-0.01,1.07-0.03,1.6-0.03h15.05v29.49h-14.75c-0.1,0-0.2,0-0.3,0.01
				c-4.92,0.03-9.65,0.87-14.05,2.4c-2.04,0.69-4.01,1.54-5.89,2.53c-0.32,0.16-0.63,0.32-0.93,0.5c-0.31,0.17-0.62,0.34-0.93,0.52
				c-0.31,0.17-0.61,0.35-0.91,0.54c-0.3,0.18-0.6,0.37-0.89,0.56c-0.32,0.21-0.63,0.41-0.94,0.63c-0.27,0.19-0.54,0.37-0.81,0.57
				c-0.29,0.2-0.57,0.41-0.85,0.62c-1.93,1.46-3.74,3.07-5.4,4.81c-0.25,0.26-0.49,0.51-0.72,0.77c-0.24,0.26-0.47,0.52-0.7,0.79
				c-0.14,0.16-0.28,0.32-0.41,0.48c-0.55,0.65-1.08,1.31-1.58,1.99c-0.21,0.28-0.41,0.55-0.61,0.84c-1.03,1.45-1.98,2.96-2.83,4.53
				c-0.17,0.31-0.34,0.62-0.5,0.94c-1.15,2.24-2.11,4.59-2.86,7.02c-0.1,0.34-0.21,0.69-0.31,1.03c-0.1,0.35-0.19,0.7-0.28,1.05
				c-0.18,0.69-0.34,1.39-0.48,2.09c-0.17,0.83-0.32,1.67-0.44,2.51c-0.09,0.62-0.16,1.24-0.23,1.87c-0.01,0.1-0.02,0.2-0.03,0.3
				c-0.06,0.59-0.1,1.19-0.14,1.78c-0.04,0.8-0.07,1.61-0.07,2.42c0,0.81,0.02,1.62,0.07,2.42c0.03,0.6,0.08,1.19,0.14,1.78
				c0.01,0.1,0.02,0.2,0.03,0.3c0.07,0.63,0.14,1.25,0.23,1.87c0.12,0.85,0.27,1.69,0.44,2.52c0.15,0.7,0.31,1.4,0.48,2.09
				c0.09,0.35,0.18,0.7,0.28,1.05c0.09,0.35,0.2,0.69,0.31,1.03c0.75,2.44,1.71,4.78,2.86,7.02c0.16,0.32,0.33,0.63,0.5,0.94
				c0.85,1.57,1.8,3.08,2.83,4.53c0.2,0.28,0.4,0.56,0.61,0.83c0.51,0.68,1.04,1.35,1.58,2c0.14,0.16,0.27,0.32,0.41,0.48
				c0.23,0.27,0.46,0.53,0.7,0.79c0.23,0.26,0.47,0.52,0.72,0.77c1.66,1.75,3.47,3.36,5.4,4.81c0.28,0.21,0.56,0.42,0.85,0.63
				c0.26,0.2,0.53,0.38,0.81,0.57c0.31,0.21,0.62,0.42,0.94,0.62c0.3,0.2,0.59,0.38,0.89,0.57c0.3,0.19,0.6,0.37,0.91,0.54
				c0.31,0.18,0.61,0.36,0.93,0.52c0.31,0.18,0.62,0.34,0.93,0.5c1.88,0.99,3.86,1.83,5.89,2.53c4.41,1.52,9.13,2.36,14.05,2.4
				c0.1,0.01,0.2,0.01,0.3,0.01H1144.98z"/>
		</g>
		<g>
			
				<linearGradient id="SVGID_19_" gradientUnits="userSpaceOnUse" x1="933.664" y1="-11919.4844" x2="974.9528" y2="-11960.7725" gradientTransform="matrix(1 0 0 -1 -166.1705 -12325.1709)">
				<stop  offset="0" style="stop-color:#433692"/>
				<stop  offset="1" style="stop-color:#EB2D7C"/>
			</linearGradient>
			<circle class="st19" cx="788.14" cy="-385.04" r="28.7"/>
			
				<linearGradient id="SVGID_20_" gradientUnits="userSpaceOnUse" x1="683.2523" y1="-11762.7061" x2="824.5375" y2="-11762.7061" gradientTransform="matrix(1 0 0 -1 -166.1705 -12325.1709)">
				<stop  offset="0" style="stop-color:#433692"/>
				<stop  offset="1" style="stop-color:#EB2D7C"/>
			</linearGradient>
			<path class="st20" d="M517.59-612.06h40.13c0.51,32.71,27.18,59.05,60.01,59.05v-59.05h40.14v99.2h-40.14
				C562.73-512.87,518.09-557.19,517.59-612.06z"/>
			
				<linearGradient id="SVGID_21_" gradientUnits="userSpaceOnUse" x1="502.2871" y1="-11762.7061" x2="602.4199" y2="-11762.7061" gradientTransform="matrix(1 0 0 -1 -166.1705 -12325.1709)">
				<stop  offset="0" style="stop-color:#433692"/>
				<stop  offset="1" style="stop-color:#EB2D7C"/>
			</linearGradient>
			<circle class="st21" cx="386.18" cy="-562.46" r="50.07"/>
			
				<linearGradient id="SVGID_22_" gradientUnits="userSpaceOnUse" x1="703.5366" y1="-11935.5049" x2="804.2579" y2="-11935.5049" gradientTransform="matrix(1 0 0 -1 -166.1705 -12325.1709)">
				<stop  offset="0" style="stop-color:#433692"/>
				<stop  offset="1" style="stop-color:#EB2D7C"/>
			</linearGradient>
			<path class="st22" d="M638.09-437.55v40.42c-31.67,0-57.64,24.35-60.23,55.35h-40.49C540.01-395.11,584.09-437.55,638.09-437.55z
				"/>
			
				<linearGradient id="SVGID_23_" gradientUnits="userSpaceOnUse" x1="1419.0815" y1="-1444.7073" x2="1459.4894" y2="-1444.7073" gradientTransform="matrix(0.7071 -0.7071 -0.7071 -0.7071 -1251.153 -566.298)">
				<stop  offset="0" style="stop-color:#433692"/>
				<stop  offset="1" style="stop-color:#EB2D7C"/>
			</linearGradient>
			<path class="st23" d="M759.85-619.32l85.14,85.14l-28.57,28.57l-85.14-85.14L759.85-619.32z"/>
			
				<linearGradient id="SVGID_24_" gradientUnits="userSpaceOnUse" x1="531.6495" y1="-11561.0801" x2="573.0574" y2="-11561.0801" gradientTransform="matrix(1 0 0 -1 -166.1705 -12325.1709)">
				<stop  offset="0" style="stop-color:#433692"/>
				<stop  offset="1" style="stop-color:#EB2D7C"/>
			</linearGradient>
			<rect x="365.98" y="-824.29" class="st24" width="40.41" height="120.41"/>
			
				<linearGradient id="SVGID_25_" gradientUnits="userSpaceOnUse" x1="7169.8936" y1="-19267.8789" x2="7211.3013" y2="-19267.8789" gradientTransform="matrix(0.7071 0.7071 0.7071 -0.7071 8926.1104 -19098.6348)">
				<stop  offset="0" style="stop-color:#433692"/>
				<stop  offset="1" style="stop-color:#EB2D7C"/>
			</linearGradient>
			
				<rect x="365.98" y="-449.87" transform="matrix(0.7071 -0.7071 0.7071 0.7071 388.6458 158.9421)" class="st25" width="40.41" height="120.41"/>
			
				<linearGradient id="SVGID_26_" gradientUnits="userSpaceOnUse" x1="7186.9941" y1="-18716.5293" x2="7228.4023" y2="-18716.5293" gradientTransform="matrix(0.7071 0.7071 0.7071 -0.7071 8926.1104 -19098.6348)">
				<stop  offset="0" style="stop-color:#433692"/>
				<stop  offset="1" style="stop-color:#EB2D7C"/>
			</linearGradient>
			
				<rect x="767.93" y="-827.64" transform="matrix(0.7071 -0.7071 0.7071 0.7071 773.4999 332.5206)" class="st26" width="40.41" height="120.41"/>
			
				<linearGradient id="SVGID_27_" gradientUnits="userSpaceOnUse" x1="713.7095" y1="-11525.3496" x2="821.3287" y2="-11587.4834" gradientTransform="matrix(1 0 0 -1 -166.1705 -12325.1709)">
				<stop  offset="0" style="stop-color:#433692"/>
				<stop  offset="1" style="stop-color:#EB2D7C"/>
			</linearGradient>
			<path class="st27" d="M627.9-719.98v29.51h-1.25v-0.02h-15.05c-0.54-0.01-1.07-0.01-1.6-0.03c-0.31-0.01-0.63-0.02-0.94-0.03
				c-0.96-0.03-1.91-0.09-2.86-0.16c-0.53-0.04-1.07-0.09-1.6-0.14c-0.99-0.1-1.99-0.21-2.98-0.36c-0.28-0.04-0.55-0.08-0.83-0.12
				c-0.12-0.02-0.23-0.03-0.34-0.06c-0.3-0.04-0.61-0.09-0.91-0.15c-0.61-0.1-1.21-0.21-1.81-0.33c-0.3-0.06-0.6-0.12-0.89-0.18
				c-0.3-0.06-0.59-0.13-0.89-0.19c-0.92-0.2-1.82-0.42-2.72-0.65c-0.27-0.08-0.54-0.15-0.81-0.22c-1.53-0.42-3.04-0.89-4.52-1.4
				c-0.22-0.08-0.43-0.15-0.64-0.23c-0.31-0.11-0.62-0.22-0.92-0.33c-0.25-0.1-0.51-0.19-0.76-0.29c-0.28-0.11-0.56-0.22-0.84-0.33
				c-0.27-0.11-0.55-0.22-0.83-0.34c-1.38-0.57-2.73-1.17-4.07-1.82c-0.27-0.13-0.53-0.26-0.8-0.39c-0.54-0.27-1.09-0.55-1.62-0.84
				c-0.25-0.13-0.5-0.26-0.74-0.4c-1.04-0.56-2.06-1.16-3.07-1.77c-0.46-0.28-0.91-0.56-1.35-0.85
				c-7.49-4.81-14.06-10.93-19.37-18.06c-0.35-0.47-0.7-0.94-1.04-1.43c-0.17-0.24-0.33-0.48-0.5-0.72
				c-0.32-0.46-0.63-0.92-0.93-1.38c-0.02-0.03-0.03-0.06-0.06-0.09c-0.16-0.25-0.32-0.5-0.48-0.75c-0.18-0.27-0.34-0.53-0.51-0.81
				c-0.15-0.23-0.29-0.46-0.43-0.69c-1.07-1.77-2.07-3.59-2.99-5.45c-0.13-0.27-0.26-0.53-0.39-0.8c-0.64-1.34-1.25-2.69-1.81-4.08
				c-0.11-0.27-0.22-0.55-0.33-0.83c-0.21-0.54-0.42-1.08-0.62-1.62c-0.13-0.35-0.25-0.69-0.37-1.04c-0.09-0.24-0.17-0.48-0.25-0.71
				c-0.13-0.39-0.26-0.77-0.38-1.15c-0.15-0.45-0.28-0.91-0.42-1.36c-0.69-2.32-1.27-4.69-1.73-7.11c-0.05-0.26-0.1-0.52-0.15-0.79
				c-0.3-1.68-0.54-3.38-0.73-5.09c-0.05-0.39-0.09-0.78-0.12-1.17c-0.02-0.17-0.03-0.35-0.05-0.52c-0.04-0.48-0.08-0.96-0.1-1.45
				c-0.11-1.62-0.17-3.26-0.17-4.91c0-1.65,0.06-3.29,0.17-4.91c0.03-0.48,0.07-0.97,0.1-1.45c0.02-0.17,0.03-0.34,0.05-0.52
				c0.03-0.39,0.07-0.79,0.12-1.17c0.19-1.72,0.43-3.42,0.73-5.1c0.05-0.27,0.1-0.53,0.15-0.79c0.46-2.42,1.04-4.78,1.73-7.11
				c0.14-0.45,0.27-0.91,0.42-1.36c0.12-0.38,0.25-0.76,0.38-1.15c0.08-0.24,0.16-0.48,0.25-0.72c0.12-0.35,0.24-0.69,0.37-1.04
				c0.2-0.54,0.41-1.08,0.62-1.62c0.11-0.28,0.22-0.56,0.33-0.83c0.57-1.38,1.17-2.74,1.81-4.08c0.13-0.27,0.26-0.53,0.39-0.8
				c0.92-1.86,1.92-3.67,2.99-5.45c0.14-0.23,0.28-0.46,0.43-0.69c0.17-0.27,0.33-0.54,0.51-0.81c0.15-0.25,0.32-0.5,0.48-0.74
				c0.02-0.03,0.04-0.06,0.06-0.09c0.31-0.46,0.62-0.93,0.93-1.38c0.17-0.24,0.33-0.48,0.5-0.72c0.34-0.48,0.69-0.96,1.04-1.43
				c5.3-7.12,11.87-13.25,19.37-18.06c0.45-0.29,0.89-0.57,1.35-0.84c1.01-0.62,2.03-1.21,3.07-1.78c0.24-0.14,0.49-0.27,0.74-0.4
				c0.54-0.28,1.08-0.57,1.62-0.84c0.27-0.13,0.53-0.26,0.8-0.39c1.34-0.65,2.69-1.26,4.07-1.82c0.28-0.12,0.56-0.23,0.83-0.34
				c0.28-0.11,0.56-0.22,0.84-0.33c0.25-0.09,0.51-0.19,0.76-0.28c0.31-0.12,0.62-0.23,0.92-0.34c0.21-0.08,0.42-0.15,0.64-0.23
				c1.48-0.51,2.99-0.98,4.52-1.4c0.27-0.08,0.54-0.15,0.81-0.22c0.9-0.23,1.81-0.45,2.72-0.65c0.3-0.07,0.59-0.13,0.89-0.19
				c0.3-0.07,0.6-0.13,0.89-0.18c0.61-0.12,1.21-0.23,1.81-0.33c0.3-0.05,0.6-0.1,0.91-0.15c0.11-0.02,0.22-0.04,0.34-0.06
				c0.28-0.04,0.55-0.08,0.83-0.12c0.99-0.14,1.98-0.26,2.98-0.36c0.53-0.05,1.07-0.1,1.6-0.14c0.95-0.07,1.9-0.13,2.86-0.16
				c0.32-0.01,0.63-0.02,0.94-0.03c0.53-0.01,1.07-0.03,1.6-0.03h15.05v29.49h-14.75c-0.1,0-0.2,0-0.3,0.01
				c-4.92,0.03-9.65,0.87-14.05,2.4c-2.04,0.69-4.01,1.54-5.89,2.53c-0.32,0.16-0.63,0.32-0.93,0.5c-0.31,0.17-0.62,0.34-0.93,0.52
				c-0.31,0.17-0.61,0.35-0.91,0.54c-0.3,0.18-0.6,0.37-0.89,0.56c-0.32,0.21-0.63,0.41-0.94,0.63c-0.27,0.19-0.54,0.37-0.81,0.57
				c-0.29,0.2-0.57,0.41-0.85,0.62c-1.93,1.46-3.74,3.07-5.4,4.81c-0.25,0.26-0.49,0.51-0.72,0.77c-0.24,0.26-0.47,0.52-0.7,0.79
				c-0.14,0.16-0.28,0.32-0.41,0.48c-0.55,0.65-1.08,1.31-1.58,1.99c-0.21,0.28-0.41,0.55-0.61,0.84c-1.03,1.45-1.98,2.96-2.83,4.53
				c-0.17,0.31-0.34,0.62-0.5,0.94c-1.15,2.24-2.11,4.59-2.86,7.02c-0.1,0.34-0.21,0.69-0.31,1.03c-0.1,0.35-0.19,0.7-0.28,1.05
				c-0.18,0.69-0.34,1.39-0.48,2.09c-0.17,0.83-0.32,1.67-0.44,2.51c-0.09,0.62-0.16,1.24-0.23,1.87c-0.01,0.1-0.02,0.2-0.03,0.3
				c-0.06,0.59-0.1,1.19-0.14,1.78c-0.04,0.8-0.07,1.61-0.07,2.42c0,0.81,0.02,1.62,0.07,2.42c0.03,0.6,0.08,1.19,0.14,1.78
				c0.01,0.1,0.02,0.2,0.03,0.3c0.07,0.63,0.14,1.25,0.23,1.87c0.12,0.85,0.27,1.69,0.44,2.52c0.15,0.7,0.31,1.4,0.48,2.09
				c0.09,0.35,0.18,0.7,0.28,1.05c0.09,0.35,0.2,0.69,0.31,1.03c0.75,2.44,1.71,4.78,2.86,7.02c0.16,0.32,0.33,0.63,0.5,0.94
				c0.85,1.57,1.8,3.08,2.83,4.53c0.2,0.28,0.4,0.56,0.61,0.83c0.51,0.68,1.04,1.35,1.58,2c0.14,0.16,0.27,0.32,0.41,0.48
				c0.23,0.27,0.46,0.53,0.7,0.79c0.23,0.26,0.47,0.52,0.72,0.77c1.66,1.75,3.47,3.36,5.4,4.81c0.28,0.21,0.56,0.42,0.85,0.63
				c0.26,0.2,0.53,0.38,0.81,0.57c0.31,0.21,0.62,0.42,0.94,0.62c0.3,0.2,0.59,0.38,0.89,0.57c0.3,0.19,0.6,0.37,0.91,0.54
				c0.31,0.18,0.61,0.36,0.93,0.52c0.31,0.18,0.62,0.34,0.93,0.5c1.88,0.99,3.86,1.83,5.89,2.53c4.41,1.52,9.13,2.36,14.05,2.4
				c0.1,0.01,0.2,0.01,0.3,0.01H627.9z"/>
		</g>
		<g>
			
				<linearGradient id="SVGID_28_" gradientUnits="userSpaceOnUse" x1="416.5822" y1="-11919.4844" x2="457.8709" y2="-11960.7725" gradientTransform="matrix(1 0 0 -1 -166.1705 -12325.1709)">
				<stop  offset="0" style="stop-color:#433692"/>
				<stop  offset="1" style="stop-color:#EB2D7C"/>
			</linearGradient>
			<circle class="st28" cx="271.06" cy="-385.04" r="28.7"/>
			
				<linearGradient id="SVGID_29_" gradientUnits="userSpaceOnUse" x1="166.1705" y1="-11762.7061" x2="307.4557" y2="-11762.7061" gradientTransform="matrix(1 0 0 -1 -166.1705 -12325.1709)">
				<stop  offset="0" style="stop-color:#433692"/>
				<stop  offset="1" style="stop-color:#EB2D7C"/>
			</linearGradient>
			<path class="st29" d="M0.5-612.06h40.13c0.51,32.71,27.18,59.05,60.01,59.05v-59.05h40.14v99.2h-40.14
				C45.64-512.87,1.01-557.19,0.5-612.06z"/>
			
				<linearGradient id="SVGID_30_" gradientUnits="userSpaceOnUse" x1="186.4548" y1="-11935.5049" x2="287.1761" y2="-11935.5049" gradientTransform="matrix(1 0 0 -1 -166.1705 -12325.1709)">
				<stop  offset="0" style="stop-color:#433692"/>
				<stop  offset="1" style="stop-color:#EB2D7C"/>
			</linearGradient>
			<path class="st30" d="M121.01-437.55v40.42c-31.67,0-57.64,24.35-60.23,55.35H20.28C22.93-395.11,67.01-437.55,121.01-437.55z"/>
			
				<linearGradient id="SVGID_31_" gradientUnits="userSpaceOnUse" x1="1053.4495" y1="-1079.0752" x2="1093.8574" y2="-1079.0752" gradientTransform="matrix(0.7071 -0.7071 -0.7071 -0.7071 -1251.153 -566.298)">
				<stop  offset="0" style="stop-color:#433692"/>
				<stop  offset="1" style="stop-color:#EB2D7C"/>
			</linearGradient>
			<path class="st31" d="M242.77-619.32l85.14,85.14l-28.57,28.57l-85.14-85.14L242.77-619.32z"/>
			
				<linearGradient id="SVGID_32_" gradientUnits="userSpaceOnUse" x1="6821.3623" y1="-19082.1621" x2="6862.77" y2="-19082.1621" gradientTransform="matrix(0.7071 0.7071 0.7071 -0.7071 8926.1104 -19098.6348)">
				<stop  offset="0" style="stop-color:#433692"/>
				<stop  offset="1" style="stop-color:#EB2D7C"/>
			</linearGradient>
			
				<rect x="250.85" y="-827.64" transform="matrix(0.7071 -0.7071 0.7071 0.7071 622.0502 -33.1115)" class="st32" width="40.41" height="120.41"/>
			
				<linearGradient id="SVGID_33_" gradientUnits="userSpaceOnUse" x1="196.6277" y1="-11525.3496" x2="304.2469" y2="-11587.4834" gradientTransform="matrix(1 0 0 -1 -166.1705 -12325.1709)">
				<stop  offset="0" style="stop-color:#433692"/>
				<stop  offset="1" style="stop-color:#EB2D7C"/>
			</linearGradient>
			<path class="st33" d="M110.82-719.98v29.51h-1.25v-0.02H94.51c-0.54-0.01-1.07-0.01-1.6-0.03c-0.31-0.01-0.63-0.02-0.94-0.03
				c-0.96-0.03-1.91-0.09-2.86-0.16c-0.53-0.04-1.07-0.09-1.6-0.14c-0.99-0.1-1.99-0.21-2.98-0.36c-0.28-0.04-0.55-0.08-0.83-0.12
				c-0.12-0.02-0.23-0.03-0.34-0.06c-0.3-0.04-0.61-0.09-0.91-0.15c-0.61-0.1-1.21-0.21-1.81-0.33c-0.3-0.06-0.6-0.12-0.89-0.18
				c-0.3-0.06-0.59-0.13-0.89-0.19c-0.92-0.2-1.82-0.42-2.72-0.65c-0.27-0.08-0.54-0.15-0.81-0.22c-1.53-0.42-3.04-0.89-4.52-1.4
				c-0.22-0.08-0.43-0.15-0.64-0.23c-0.31-0.11-0.62-0.22-0.93-0.33c-0.25-0.1-0.51-0.19-0.76-0.29c-0.28-0.11-0.56-0.22-0.84-0.33
				c-0.27-0.11-0.55-0.22-0.83-0.34c-1.38-0.57-2.73-1.17-4.07-1.82c-0.27-0.13-0.53-0.26-0.8-0.39c-0.54-0.27-1.09-0.55-1.62-0.84
				c-0.25-0.13-0.5-0.26-0.74-0.4c-1.04-0.56-2.06-1.16-3.07-1.77c-0.46-0.28-0.91-0.56-1.35-0.85
				c-7.5-4.81-14.06-10.93-19.37-18.06c-0.35-0.47-0.7-0.94-1.04-1.43c-0.17-0.24-0.33-0.48-0.5-0.72
				c-0.32-0.46-0.63-0.92-0.93-1.38c-0.02-0.03-0.03-0.06-0.06-0.09c-0.16-0.25-0.32-0.5-0.48-0.75c-0.18-0.27-0.34-0.53-0.51-0.81
				c-0.15-0.23-0.29-0.46-0.43-0.69c-1.07-1.77-2.07-3.59-2.99-5.45c-0.13-0.27-0.26-0.53-0.39-0.8c-0.64-1.34-1.25-2.69-1.81-4.08
				c-0.11-0.27-0.22-0.55-0.33-0.83c-0.21-0.54-0.42-1.08-0.62-1.62c-0.13-0.35-0.25-0.69-0.37-1.04c-0.09-0.24-0.17-0.48-0.25-0.71
				c-0.13-0.39-0.26-0.77-0.38-1.15c-0.15-0.45-0.28-0.91-0.42-1.36c-0.69-2.32-1.27-4.69-1.73-7.11c-0.05-0.26-0.1-0.52-0.15-0.79
				c-0.3-1.68-0.54-3.38-0.73-5.09c-0.05-0.39-0.09-0.78-0.12-1.17c-0.02-0.17-0.03-0.35-0.05-0.52c-0.04-0.48-0.08-0.96-0.1-1.45
				c-0.11-1.62-0.17-3.26-0.17-4.91c0-1.65,0.06-3.29,0.17-4.91c0.03-0.48,0.07-0.97,0.1-1.45c0.02-0.17,0.03-0.34,0.05-0.52
				c0.03-0.39,0.07-0.79,0.12-1.17c0.19-1.72,0.43-3.42,0.73-5.1c0.05-0.27,0.1-0.53,0.15-0.79c0.46-2.42,1.04-4.78,1.73-7.11
				c0.14-0.45,0.27-0.91,0.42-1.36c0.12-0.38,0.25-0.76,0.38-1.15c0.08-0.24,0.16-0.48,0.25-0.72c0.12-0.35,0.24-0.69,0.37-1.04
				c0.2-0.54,0.41-1.08,0.62-1.62c0.11-0.28,0.22-0.56,0.33-0.83c0.57-1.38,1.17-2.74,1.81-4.08c0.13-0.27,0.26-0.53,0.39-0.8
				c0.92-1.86,1.92-3.67,2.99-5.45c0.14-0.23,0.28-0.46,0.43-0.69c0.17-0.27,0.33-0.54,0.51-0.81c0.15-0.25,0.32-0.5,0.48-0.74
				c0.02-0.03,0.04-0.06,0.06-0.09c0.31-0.46,0.62-0.93,0.93-1.38c0.17-0.24,0.33-0.48,0.5-0.72c0.34-0.48,0.69-0.96,1.04-1.43
				c5.3-7.12,11.87-13.25,19.37-18.06c0.45-0.29,0.89-0.57,1.35-0.84c1.01-0.62,2.03-1.21,3.07-1.78c0.24-0.14,0.49-0.27,0.74-0.4
				c0.54-0.28,1.08-0.57,1.62-0.84c0.27-0.13,0.53-0.26,0.8-0.39c1.34-0.65,2.69-1.26,4.07-1.82c0.28-0.12,0.56-0.23,0.83-0.34
				c0.28-0.11,0.56-0.22,0.84-0.33c0.25-0.09,0.51-0.19,0.76-0.28c0.31-0.12,0.62-0.23,0.93-0.34c0.21-0.08,0.42-0.15,0.64-0.23
				c1.48-0.51,2.99-0.98,4.52-1.4c0.27-0.08,0.54-0.15,0.81-0.22c0.9-0.23,1.81-0.45,2.72-0.65c0.3-0.07,0.59-0.13,0.89-0.19
				c0.3-0.07,0.6-0.13,0.89-0.18c0.61-0.12,1.21-0.23,1.81-0.33c0.3-0.05,0.6-0.1,0.91-0.15c0.11-0.02,0.22-0.04,0.34-0.06
				c0.28-0.04,0.55-0.08,0.83-0.12c0.99-0.14,1.98-0.26,2.98-0.36c0.53-0.05,1.07-0.1,1.6-0.14c0.95-0.07,1.9-0.13,2.86-0.16
				c0.32-0.01,0.63-0.02,0.94-0.03c0.53-0.01,1.07-0.03,1.6-0.03h15.05v29.49H94.81c-0.1,0-0.2,0-0.3,0.01
				c-4.92,0.03-9.65,0.87-14.05,2.4c-2.04,0.69-4.01,1.54-5.89,2.53c-0.32,0.16-0.63,0.32-0.93,0.5c-0.31,0.17-0.62,0.34-0.93,0.52
				c-0.31,0.17-0.61,0.35-0.91,0.54c-0.3,0.18-0.6,0.37-0.89,0.56c-0.32,0.21-0.63,0.41-0.94,0.63c-0.27,0.19-0.54,0.37-0.81,0.57
				c-0.29,0.2-0.57,0.41-0.85,0.62c-1.93,1.46-3.74,3.07-5.4,4.81c-0.25,0.26-0.49,0.51-0.72,0.77c-0.24,0.26-0.47,0.52-0.7,0.79
				c-0.14,0.16-0.28,0.32-0.41,0.48c-0.55,0.65-1.08,1.31-1.58,1.99c-0.21,0.28-0.41,0.55-0.61,0.84c-1.03,1.45-1.98,2.96-2.83,4.53
				c-0.17,0.31-0.34,0.62-0.5,0.94c-1.15,2.24-2.11,4.59-2.86,7.02c-0.1,0.34-0.21,0.69-0.31,1.03c-0.1,0.35-0.19,0.7-0.28,1.05
				c-0.18,0.69-0.34,1.39-0.48,2.09c-0.17,0.83-0.32,1.67-0.44,2.51c-0.09,0.62-0.16,1.24-0.23,1.87c-0.01,0.1-0.02,0.2-0.03,0.3
				c-0.06,0.59-0.1,1.19-0.14,1.78c-0.04,0.8-0.07,1.61-0.07,2.42c0,0.81,0.02,1.62,0.07,2.42c0.03,0.6,0.08,1.19,0.14,1.78
				c0.01,0.1,0.02,0.2,0.03,0.3c0.07,0.63,0.14,1.25,0.23,1.87c0.12,0.85,0.27,1.69,0.44,2.52c0.15,0.7,0.31,1.4,0.48,2.09
				c0.09,0.35,0.18,0.7,0.28,1.05c0.09,0.35,0.2,0.69,0.31,1.03c0.75,2.44,1.71,4.78,2.86,7.02c0.16,0.32,0.33,0.63,0.5,0.94
				c0.85,1.57,1.8,3.08,2.83,4.53c0.2,0.28,0.4,0.56,0.61,0.83c0.51,0.68,1.04,1.35,1.58,2c0.14,0.16,0.27,0.32,0.41,0.48
				c0.23,0.27,0.46,0.53,0.7,0.79c0.23,0.26,0.47,0.52,0.72,0.77c1.66,1.75,3.47,3.36,5.4,4.81c0.28,0.21,0.56,0.42,0.85,0.63
				c0.26,0.2,0.53,0.38,0.81,0.57c0.31,0.21,0.62,0.42,0.94,0.62c0.3,0.2,0.59,0.38,0.89,0.57c0.3,0.19,0.6,0.37,0.91,0.54
				c0.31,0.18,0.61,0.36,0.93,0.52c0.31,0.18,0.62,0.34,0.93,0.5c1.88,0.99,3.86,1.83,5.89,2.53c4.41,1.52,9.13,2.36,14.05,2.4
				c0.1,0.01,0.2,0.01,0.3,0.01H110.82z"/>
		</g>
		<g>
			
				<linearGradient id="SVGID_34_" gradientUnits="userSpaceOnUse" x1="1192.205" y1="-11413.876" x2="1233.4937" y2="-11455.165" gradientTransform="matrix(1 0 0 -1 -166.1705 -12325.1709)">
				<stop  offset="0" style="stop-color:#433692"/>
				<stop  offset="1" style="stop-color:#EB2D7C"/>
			</linearGradient>
			<circle class="st34" cx="1046.68" cy="-890.65" r="28.7"/>
			
				<linearGradient id="SVGID_35_" gradientUnits="userSpaceOnUse" x1="941.7933" y1="-11257.0986" x2="1083.0785" y2="-11257.0986" gradientTransform="matrix(1 0 0 -1 -166.1705 -12325.1709)">
				<stop  offset="0" style="stop-color:#433692"/>
				<stop  offset="1" style="stop-color:#EB2D7C"/>
			</linearGradient>
			<path class="st35" d="M776.13-1117.67h40.13c0.51,32.71,27.18,59.05,60.01,59.05v-59.05h40.14v99.2h-40.14
				C821.27-1018.47,776.63-1062.8,776.13-1117.67z"/>
			
				<linearGradient id="SVGID_36_" gradientUnits="userSpaceOnUse" x1="760.828" y1="-11257.0986" x2="860.9608" y2="-11257.0986" gradientTransform="matrix(1 0 0 -1 -166.1705 -12325.1709)">
				<stop  offset="0" style="stop-color:#433692"/>
				<stop  offset="1" style="stop-color:#EB2D7C"/>
			</linearGradient>
			<circle class="st36" cx="644.72" cy="-1068.07" r="50.07"/>
			
				<linearGradient id="SVGID_37_" gradientUnits="userSpaceOnUse" x1="962.0775" y1="-11429.8965" x2="1062.7988" y2="-11429.8965" gradientTransform="matrix(1 0 0 -1 -166.1705 -12325.1709)">
				<stop  offset="0" style="stop-color:#433692"/>
				<stop  offset="1" style="stop-color:#EB2D7C"/>
			</linearGradient>
			<path class="st37" d="M896.63-943.16v40.42c-31.67,0-57.64,24.35-60.23,55.35h-40.49C798.55-900.72,842.63-943.16,896.63-943.16z
				"/>
			
				<linearGradient id="SVGID_38_" gradientUnits="userSpaceOnUse" x1="1959.4163" y1="-1270.0046" x2="1999.8242" y2="-1270.0046" gradientTransform="matrix(0.7071 -0.7071 -0.7071 -0.7071 -1251.153 -566.298)">
				<stop  offset="0" style="stop-color:#433692"/>
				<stop  offset="1" style="stop-color:#EB2D7C"/>
			</linearGradient>
			<path class="st38" d="M1018.4-1124.93l85.14,85.14l-28.57,28.57l-85.14-85.14L1018.4-1124.93z"/>
			
				<linearGradient id="SVGID_39_" gradientUnits="userSpaceOnUse" x1="6995.1909" y1="-18727.5449" x2="7036.5986" y2="-18727.5449" gradientTransform="matrix(0.7071 0.7071 0.7071 -0.7071 8926.1104 -19098.6348)">
				<stop  offset="0" style="stop-color:#433692"/>
				<stop  offset="1" style="stop-color:#EB2D7C"/>
			</linearGradient>
			
				<rect x="624.52" y="-955.48" transform="matrix(0.7071 -0.7071 0.7071 0.7071 821.8894 193.669)" class="st39" width="40.41" height="120.41"/>
		</g>
		<g>
			
				<linearGradient id="SVGID_40_" gradientUnits="userSpaceOnUse" x1="675.1231" y1="-11413.876" x2="716.4118" y2="-11455.165" gradientTransform="matrix(1 0 0 -1 -166.1705 -12325.1709)">
				<stop  offset="0" style="stop-color:#433692"/>
				<stop  offset="1" style="stop-color:#EB2D7C"/>
			</linearGradient>
			<circle class="st40" cx="529.6" cy="-890.65" r="28.7"/>
			
				<linearGradient id="SVGID_41_" gradientUnits="userSpaceOnUse" x1="424.7114" y1="-11257.0986" x2="565.9966" y2="-11257.0986" gradientTransform="matrix(1 0 0 -1 -166.1705 -12325.1709)">
				<stop  offset="0" style="stop-color:#433692"/>
				<stop  offset="1" style="stop-color:#EB2D7C"/>
			</linearGradient>
			<path class="st41" d="M259.05-1117.67h40.13c0.51,32.71,27.18,59.05,60.01,59.05v-59.05h40.14v99.2h-40.14
				C304.19-1018.47,259.55-1062.8,259.05-1117.67z"/>
			
				<linearGradient id="SVGID_42_" gradientUnits="userSpaceOnUse" x1="243.7462" y1="-11257.0986" x2="343.8789" y2="-11257.0986" gradientTransform="matrix(1 0 0 -1 -166.1705 -12325.1709)">
				<stop  offset="0" style="stop-color:#433692"/>
				<stop  offset="1" style="stop-color:#EB2D7C"/>
			</linearGradient>
			<circle class="st42" cx="127.64" cy="-1068.07" r="50.07"/>
			
				<linearGradient id="SVGID_43_" gradientUnits="userSpaceOnUse" x1="444.9957" y1="-11429.8965" x2="545.717" y2="-11429.8965" gradientTransform="matrix(1 0 0 -1 -166.1705 -12325.1709)">
				<stop  offset="0" style="stop-color:#433692"/>
				<stop  offset="1" style="stop-color:#EB2D7C"/>
			</linearGradient>
			<path class="st43" d="M379.55-943.16v40.42c-31.67,0-57.64,24.35-60.23,55.35h-40.49C281.47-900.72,325.55-943.16,379.55-943.16z
				"/>
			
				<linearGradient id="SVGID_44_" gradientUnits="userSpaceOnUse" x1="1593.7842" y1="-904.3726" x2="1634.1921" y2="-904.3726" gradientTransform="matrix(0.7071 -0.7071 -0.7071 -0.7071 -1251.153 -566.298)">
				<stop  offset="0" style="stop-color:#433692"/>
				<stop  offset="1" style="stop-color:#EB2D7C"/>
			</linearGradient>
			<path class="st44" d="M501.31-1124.93l85.14,85.14l-28.57,28.57l-85.14-85.14L501.31-1124.93z"/>
			
				<linearGradient id="SVGID_45_" gradientUnits="userSpaceOnUse" x1="6629.5586" y1="-19093.1758" x2="6670.9668" y2="-19093.1758" gradientTransform="matrix(0.7071 0.7071 0.7071 -0.7071 8926.1104 -19098.6348)">
				<stop  offset="0" style="stop-color:#433692"/>
				<stop  offset="1" style="stop-color:#EB2D7C"/>
			</linearGradient>
			
				<rect x="107.44" y="-955.48" transform="matrix(0.7071 -0.7071 0.7071 0.7071 670.4396 -171.9631)" class="st45" width="40.41" height="120.41"/>
		</g>
	</g>
</pattern>
<g id="Layer_1">
	<rect width="1984.25" height="2408.31"/>
	<linearGradient id="SVGID_46_" gradientUnits="userSpaceOnUse" x1="-106.5157" y1="105.5157" x2="2090.7678" y2="2302.7993">
		<stop  offset="0" style="stop-color:#433692"/>
		<stop  offset="1" style="stop-color:#EB2D7C"/>
	</linearGradient>
	<rect style="fill:url(#New_Pattern_4);stroke:url(#SVGID_46_);stroke-miterlimit:10;" width="1984.25" height="2408.31"/>
</g>
<g id="Layer_1_copy">
	<rect width="1984.25" height="2408.31"/>
	<linearGradient id="SVGID_47_" gradientUnits="userSpaceOnUse" x1="-106.5157" y1="105.5157" x2="2090.7678" y2="2302.7993">
		<stop  offset="0" style="stop-color:#433692"/>
		<stop  offset="1" style="stop-color:#EB2D7C"/>
	</linearGradient>
	<rect style="fill:url(#New_Pattern_4);stroke:url(#SVGID_47_);stroke-miterlimit:10;" width="1984.25" height="2408.31"/>
</g>
</svg>
