<svg id="Capa_1" enable-background="new 0 0 512 512" height="512" viewBox="0 0 512 512" width="512" xmlns="http://www.w3.org/2000/svg"><g><g><g><path d="m28.446 437.322h455.108c11.568 0 20.946-9.463 20.946-21.137v-61.722c0-10.033-3.95-19.656-10.98-26.75l-20.057-20.241c-5.097-5.144-5.097-13.483 0-18.627l7.233-7.299c5.591-5.642 7.557-13.982 5.082-21.561l-8.677-26.569c-2.83-8.666-10.851-14.521-19.892-14.521h-4.958c-6.204 0-12.153-2.487-16.54-6.913l-17.775-17.937c-17.75-17.912-41.825-27.976-66.928-27.976h-116.561c-19.946 0-39.383 6.359-55.535 18.169l-119.715 87.534c-5.296 3.872-8.603 9.927-9.02 16.513l-.85 13.433c-.519 8.199-5.495 15.433-12.926 18.791l-15.93 7.198c-7.892 3.567-12.971 11.478-12.971 20.203v68.274c0 11.674 9.378 21.138 20.946 21.138z" fill="#22b37f"/><path d="m493.52 327.712-20.057-20.241c-5.097-5.144-5.097-13.483 0-18.627l7.233-7.299c5.592-5.643 7.557-13.982 5.082-21.561l-8.677-26.569c-2.83-8.666-10.851-14.521-19.892-14.521h-4.958c-6.204 0-12.153-2.487-16.54-6.914l-17.775-17.937c-17.75-17.913-41.825-27.976-66.928-27.976h-30c25.103 0 49.178 10.063 66.928 27.976l17.775 17.937c4.387 4.426 10.336 6.914 16.54 6.914h4.958c9.042 0 17.062 5.854 19.892 14.521l8.677 26.569c2.475 7.579.509 15.918-5.082 21.561l-7.233 7.299c-5.097 5.144-5.097 13.483 0 18.627l20.057 20.241c7.03 7.094 10.98 16.717 10.98 26.75v61.722c0 11.674-9.378 21.137-20.946 21.137h30c11.568 0 20.946-9.463 20.946-21.137v-61.722c0-10.033-3.95-19.655-10.98-26.75z" fill="#09a76d"/><path d="m28.446 437.322h455.108c11.568 0 20.946-9.463 20.946-21.137v-9.431h-497v9.431c0 11.673 9.378 21.137 20.946 21.137z" fill="#57be92"/><path d="m474.5 416.185c0 11.674-9.378 21.137-20.946 21.137h30c11.568 0 20.946-9.463 20.946-21.137v-9.431h-30z" fill="#22b37f"/><path d="m411.026 267.831c0 13.615-5.305 26.685-14.771 36.387l-32.073 32.876c-8.531 8.744-20.182 13.668-32.341 13.668h-94.731c-13.509 0-26.315-6.073-34.938-16.567l-25.238-30.719c-7.646-9.306-11.83-21.015-11.83-33.104v-2.542h245.922z" fill="#02905d"/><path d="m165.103 267.831c0-18.849 8.994-36.567 24.21-47.693l10.082-7.372c10.26-7.503 22.381-11.468 35.052-11.468h116.561c15.957 0 30.959 6.271 42.243 17.658l.659.665c10.964 11.064 17.115 26.01 17.115 41.586v6.624z" fill="#b3dafe"/></g><g><ellipse cx="286" cy="113.391" fill="#fedf30" rx="105.891" ry="105.891" transform="matrix(.707 -.707 .707 .707 3.588 235.444)"/><path d="m317.701 12.33c26.758 19.218 44.19 50.603 44.19 86.062 0 58.482-47.409 105.891-105.892 105.891-11.044 0-21.692-1.693-31.701-4.83 17.374 12.479 38.678 19.83 61.701 19.83 58.482 0 105.892-47.409 105.892-105.891 0-47.439-31.195-87.589-74.19-101.062z" fill="#fac600"/><path d="m305.455 41.452c5.99-.048 9.984 5.447 7.977 10.627-5.332 13.766-11.234 27.359-16.989 40.955-.348.823-.099 1.166.583 1.56 10.776 6.221 21.528 12.483 32.314 18.686 5.314 3.056 6.16 9.274 1.726 13.48-19.536 18.533-39.104 37.033-58.664 55.541-3.281 3.104-6.512 3.809-9.875 2.18-3.664-1.774-5.462-5.943-3.966-9.807 2.041-5.274 4.277-10.473 6.448-15.695 3.504-8.425 7.008-16.85 10.558-25.255.362-.858.059-1.163-.602-1.543-10.91-6.274-21.928-12.422-32.702-18.926-5.015-3.028-5.608-9.202-1.332-13.253 19.549-18.522 39.154-36.985 58.664-55.548 1.801-1.712 3.775-2.935 5.86-3.002z" fill="#fea95c"/><path d="m329.341 113.28c-10.786-6.203-21.538-12.465-32.314-18.686-.682-.394-.931-.737-.583-1.56 5.755-13.596 11.657-27.189 16.989-40.955 2.006-5.181-1.987-10.676-7.977-10.627-2.085.068-4.059 1.29-5.859 3.002-7.031 6.689-14.082 13.358-21.131 20.029-.909 3.201-7.345 16.197-10.202 24.13-1.158 3.216.171 6.792 3.13 8.504 9.316 5.389 18.619 10.798 27.948 16.163 5.314 3.056 6.16 9.274 1.726 13.48-12.45 11.811-24.92 23.601-37.385 35.395-1.743 4.159-3.493 8.315-5.12 12.519-1.495 3.865.303 8.034 3.966 9.808 3.364 1.628 6.594.924 9.875-2.18 19.56-18.508 39.128-37.008 58.664-55.541 4.433-4.207 3.587-10.425-1.727-13.481z" fill="#fe9738"/></g><g><ellipse cx="397.552" cy="439.552" fill="#baafb9" rx="64.948" ry="64.948" transform="matrix(.25 -.968 .968 .25 -127.53 714.401)"/><path d="m397.552 464.5c-13.756 0-24.948-11.191-24.948-24.948 0-13.756 11.192-24.948 24.948-24.948s24.948 11.192 24.948 24.948-11.192 24.948-24.948 24.948z" fill="#9b8e99"/></g><path d="m44.523 360.37v-46.187c-2.137 2.68-4.898 4.87-8.123 6.327l-15.93 7.199c-7.891 3.566-12.97 11.477-12.97 20.202v26.693h22.789c7.861 0 14.234-6.373 14.234-14.234z" fill="#fedf30"/><g><ellipse cx="120.448" cy="439.552" fill="#baafb9" rx="64.948" ry="64.948" transform="matrix(.25 -.968 .968 .25 -335.261 446.122)"/><path d="m120.448 464.5c-13.756 0-24.948-11.191-24.948-24.948 0-13.756 11.192-24.948 24.948-24.948s24.948 11.192 24.948 24.948-11.192 24.948-24.948 24.948z" fill="#9b8e99"/></g></g><path d="m498.847 322.431-20.058-20.238c-2.202-2.224-2.2-5.85-.008-8.068l7.251-7.3c7.604-7.686 10.239-18.859 6.877-29.164l-8.68-26.568c-3.845-11.779-14.703-19.693-27.02-19.693h-4.96c-4.229 0-8.21-1.669-11.212-4.698l-17.77-17.941c-10.319-10.415-22.764-18.469-36.389-23.625 7.995-15.522 12.512-33.116 12.512-51.745.002-62.524-50.866-113.391-113.39-113.391s-113.392 50.867-113.392 113.392c0 33.68 14.765 63.971 38.156 84.757-8.458 3.167-18.368 10.443-25.882 15.937-28.903 21.131-36.876 65.937-13.744 94.152l25.238 30.719c10.08 12.269 24.927 19.306 40.732 19.306h94.731c14.088 0 27.833-5.807 37.709-15.931l32.073-32.876c12.579-12.903 16.907-30.368 16.907-48.245 0-17.669-6.852-34.314-19.316-46.893-9.617-9.705-21.672-16.489-34.734-19.16 5.363-5.149 10.219-10.821 14.492-16.93 12.637 4.325 24.183 11.546 33.641 21.091l17.771 17.941c5.756 5.81 13.727 9.141 21.867 9.141h4.96c5.807 0 10.935 3.756 12.761 9.349l8.68 26.567c1.61 4.937.353 10.285-3.271 13.948l-7.254 7.303c-7.956 8.051-7.954 21.141.008 29.182l20.058 20.237c5.681 5.738 8.81 13.364 8.81 21.473v44.79h-39.276c-13.017-19.372-35.129-32.146-60.172-32.146-36.647 0-67.005 27.356-71.776 62.716h-133.553c-.728-5.399-2.042-10.613-3.896-15.57h118.806c4.143 0 7.5-3.358 7.5-7.5s-3.357-7.5-7.5-7.5h-126.514c-10.228-15.222-26.077-26.354-44.547-30.431l3.483-3.744c12.015-12.914 16.537-30.815 12.099-47.886l-22.663-87.159 48.107-35.175c3.344-2.445 4.072-7.137 1.628-10.481-2.447-3.344-7.138-4.073-10.481-1.627l-52.224 38.185c-.061.045-.123.087-.182.134l-61.062 44.647c-7.129 5.206-11.532 13.265-12.083 22.104l-.85 13.429c-.191 3.023-1.288 5.834-3.065 8.119-.049.058-.094.119-.141.178-1.404 1.749-3.212 3.177-5.327 4.133l-15.927 7.198c-10.561 4.765-17.385 15.377-17.385 27.036v68.27c0 15.792 12.763 28.64 28.45 28.64h19.744c2.552 37.097 34.919 67.18 72.254 67.18 38.336 0 69.54-30.045 72.252-67.18h132.598c2.626 37.255 33.829 67.18 72.254 67.18 37.519 0 69.718-30.271 72.252-67.18h13.746c15.688 0 28.45-12.848 28.45-28.64v-61.72c0-12.088-4.671-23.462-13.153-32.029zm-107.96-23.451-32.073 32.876c-7.071 7.248-16.902 11.405-26.973 11.405h-94.731c-11.3 0-21.922-5.04-29.143-13.828l-25.238-30.718c-5.478-6.668-8.882-14.83-9.838-23.386h230c-1.492 8.893-5.618 17.105-12.004 23.651zm-2.304-74.081c9.433 9.519 14.718 22.07 14.939 35.431h-230.369c2.008-13.551 9.386-25.95 20.58-34.133 9.312-6.807 20.92-14.838 32.195-16.677 17.43 10.931 38.023 17.263 60.071 17.263 22.531 0 43.547-6.607 61.216-17.983h3.794c14.277.002 27.467 5.9 37.574 16.099zm-102.583-13.116c-54.253 0-98.392-44.138-98.392-98.391 0-54.254 44.139-98.392 98.392-98.392s98.392 44.138 98.392 98.392c0 54.253-44.139 98.391-98.392 98.391zm-271 136.127c0-5.773 3.357-11.019 8.559-13.366l13.465-6.086v31.911c0 3.713-3.021 6.734-6.734 6.734h-15.29zm33.672 81.91h-20.222c-7.416 0-13.45-6.119-13.45-13.64v-1.93h37.568c-1.854 4.957-3.167 10.171-3.896 15.57zm-33.672-30.57v-17.146h15.289c11.984 0 21.734-9.75 21.734-21.734v-43.775c2.759-4.221 4.459-9.151 4.792-14.401l.85-13.438c.272-4.379 2.444-8.363 5.962-10.932l52.343-38.272 21.168 81.412c3.143 12.083-.06 24.753-8.563 33.894l-11.473 12.331c-23.658 1.082-44.391 13.558-56.825 32.062h-45.277zm105.448 22.854c9.621 0 17.448 7.827 17.448 17.448s-7.827 17.448-17.448 17.448-17.448-7.827-17.448-17.448 7.827-17.448 17.448-17.448zm-52.531 40.66c-3.152-7.103-4.917-14.953-4.917-23.212 0-29.134 21.805-53.254 49.948-56.943v25.38c-14.286 3.394-24.948 16.253-24.948 31.563 0 3.707.633 7.267 1.783 10.588zm52.531 34.236c-18.048 0-34.17-8.374-44.71-21.431l22.11-12.765c5.848 5.685 13.819 9.196 22.6 9.196 9.255 0 17.611-3.901 23.528-10.139l21.981 12.69c-10.513 13.639-26.997 22.449-45.509 22.449zm53.048-35.416-21.977-12.688c.892-2.96 1.377-6.096 1.377-9.344 0-15.31-10.662-28.168-24.948-31.563v-25.38c28.144 3.688 49.948 27.809 49.948 56.943 0 7.802-1.569 15.243-4.4 22.032zm241.504-22.032c0 9.621-7.827 17.448-17.448 17.448s-17.448-7.827-17.448-17.448 7.827-17.448 17.448-17.448 17.448 7.827 17.448 17.448zm-69.98 23.213c-3.152-7.104-4.917-14.954-4.917-23.213 0-29.134 21.805-53.254 49.948-56.943v25.38c-14.286 3.395-24.948 16.253-24.948 31.563 0 3.707.633 7.268 1.783 10.588zm52.532 34.235c-18.048 0-34.17-8.373-44.71-21.431l22.11-12.766c5.848 5.685 13.819 9.196 22.599 9.196 9.255 0 17.611-3.901 23.528-10.139l21.981 12.69c-10.512 13.64-26.996 22.45-45.508 22.45zm53.048-35.416-21.977-12.688c.892-2.96 1.377-6.096 1.377-9.344 0-15.31-10.662-28.168-24.948-31.563v-25.38c28.143 3.688 49.948 27.809 49.948 56.943 0 7.802-1.57 15.243-4.4 22.032zm46.4-45.404c0 7.521-6.034 13.64-13.45 13.64h-14.222c-.729-5.399-2.042-10.613-3.896-15.57h31.568zm-163.92-309.402c-9.199-5.29-18.373-10.622-27.558-15.937 5.018-11.781 10.19-23.892 14.903-36.053 1.809-4.667 1.189-9.911-1.656-14.028-5.78-8.362-16.874-8.844-24.343-1.739-19.661 18.705-39.087 36.997-58.654 55.537-3.775 3.577-5.637 8.435-5.108 13.328.524 4.846 3.34 9.143 7.725 11.79 9.345 5.641 18.761 10.955 28.098 16.291-4.647 11.091-10.338 24.159-14.92 36.003-2.887 7.461.421 15.743 7.693 19.264 5.711 2.765 12.279 2.212 18.299-3.483 19.138-18.104 39.5-37.36 58.671-55.548 3.818-3.623 5.673-8.513 5.088-13.417-.591-4.961-3.593-9.337-8.238-12.008zm-7.175 14.541c-20.534 19.48-57.956 55.517-59.934 56.488-.146-.057-.506-.19-.416-.426 5.242-13.691 11.595-28.121 16.922-40.74 1.486-3.521.897-8.275-3.771-10.962-10.84-6.238-21.797-12.344-32.565-18.846-.8-.483-.766-.71-.051-1.388 20.884-19.789 57.963-55.306 59.804-56.459.396.085.544.299.545.384-5.304 13.668-11.217 27.315-16.9 40.739-1.795 4.24-.293 8.652 3.739 10.98 10.779 6.222 21.536 12.488 32.325 18.692 1.098.632 1.138.746.302 1.538z"/></g></svg>