<svg id="Capa_1" enable-background="new 0 0 512 512" height="512" viewBox="0 0 512 512" width="512" xmlns="http://www.w3.org/2000/svg"><g><g><path d="m342.484 223.625-13.934 13.155c-6.653 6.261-10.425 14.992-10.425 24.128v47.792h-33.133v-62.109c0-9.136 3.772-17.866 10.425-24.128l22.896-21.589z" fill="#ece6e3"/><path d="m355.4 7.5c18.299 0 33.133 14.834 33.133 33.133v125.375c0 9.136-3.772 17.866-10.425 24.128l-15.103 14.215 19.245 18.113c6.653 6.261 10.425 14.992 10.425 24.128v64.108h-33.133v-49.793c0-9.136-3.772-17.866-10.425-24.128l-49.559-46.643c-6.653-6.261-10.425-14.992-10.425-24.128v-125.375c0-18.299 14.834-33.133 33.133-33.133z" fill="#f8f6f6"/><path d="m382.25 222.464-19.245-18.113 15.103-14.215c6.653-6.262 10.425-14.992 10.425-24.128v-125.375c0-18.299-14.834-33.133-33.133-33.133h-23.033c18.299 0 33.133 14.834 33.133 33.133v125.375c0 9.136-3.772 17.866-10.425 24.128l-15.103 14.215 19.245 18.113c6.653 6.261 10.425 14.992 10.425 24.128v64.108h23.033v-64.109c0-9.135-3.772-17.866-10.425-24.127z" fill="#ece6e3"/><ellipse cx="338.833" cy="164.883" fill="#e6ded9" rx="16.567" ry="16.567" transform="matrix(.802 -.597 .597 .802 -31.434 234.859)"/><g><path d="m123.467 7.5h-66.267c-18.299 0-33.133 14.834-33.133 33.133v8.283c0 4.575 3.709 8.283 8.283 8.283h2.15v1.187c-6.11 2.439-10.433 8.4-10.433 15.38 0 6.594 3.857 12.277 9.434 14.943.619.296.999.935.999 1.621v.006c0 .686-.38 1.325-.999 1.621-5.577 2.665-9.434 8.349-9.434 14.943s3.857 12.277 9.434 14.943c.619.296.999.935.999 1.621v.006c0 .686-.38 1.325-.999 1.621-5.577 2.665-9.434 8.349-9.434 14.943s3.857 12.277 9.434 14.943c.619.296.999.935.999 1.621v.006c0 .686-.38 1.325-.999 1.621-5.577 2.665-9.434 8.349-9.434 14.943s3.857 12.277 9.434 14.943c.619.296.999.935.999 1.621v.006c0 .686-.38 1.325-.999 1.621-5.577 2.665-9.434 8.349-9.434 14.943s3.857 12.277 9.434 14.943c.619.296.999.935.999 1.621v.006c0 .686-.38 1.325-.999 1.621-5.577 2.665-9.434 8.349-9.434 14.943 0 6.98 4.323 12.941 10.433 15.38v1.184h-2.15c-4.575 0-8.283 3.709-8.283 8.283v8.283c0 18.299 14.834 33.133 33.133 33.133h33.133c9.149 0 16.567 7.417 16.567 16.567v165.667c0 9.15 7.417 16.567 16.567 16.567h16.567c9.149 0 16.567-7.417 16.567-16.567v-447.3c-.001-18.299-14.835-33.133-33.134-33.133z" fill="#9cd2fc"/><path d="m123.467 7.5h-23c18.299 0 33.133 14.834 33.133 33.133v447.3c0 8.048-5.741 14.751-13.35 16.249 1.041.205 2.115.318 3.217.318h16.567c9.149 0 16.567-7.417 16.567-16.567v-447.3c-.001-18.299-14.835-33.133-33.134-33.133z" fill="#8cb7e8"/><path d="m106.9 438.233h49.7v33.133h-49.7z" fill="#ece6e3"/><path d="m133.6 438.233h23v33.133h-23z" fill="#e6ded9"/></g><path d="m420.58 355.743c-4.088-.392-7.196-3.846-7.196-7.953v-25.523c0-9.15-7.417-16.567-16.567-16.567h-41.417c-9.15 0-16.567 7.417-16.567 16.567 0-9.15-7.417-16.567-16.567-16.567h-41.416c-9.15 0-16.567 7.417-16.567 16.567v25.523c0 4.106-3.109 7.561-7.196 7.953-38.379 3.676-68.263 36.451-67.332 76.005.931 39.547 33.184 71.801 72.731 72.731 41.995.988 76.348-32.758 76.348-74.529 0 41.77 34.353 75.517 76.348 74.529 39.547-.931 71.8-33.184 72.731-72.731.93-39.554-28.954-72.329-67.333-76.005zm-156.297 115.624c-22.874 0-41.417-18.543-41.417-41.417s18.543-41.417 41.417-41.417 41.417 18.543 41.417 41.417-18.543 41.417-41.417 41.417zm149.1 0c-22.874 0-41.417-18.543-41.417-41.417s18.543-41.417 41.417-41.417 41.417 18.543 41.417 41.417-18.543 41.417-41.417 41.417z" fill="#de5964"/><g fill="#d14a54"><path d="m420.58 355.743c-4.088-.392-7.196-3.846-7.196-7.953v-25.523c0-9.15-7.417-16.567-16.567-16.567h-23c9.15 0 16.567 7.417 16.567 16.567v25.523c0 4.106 3.109 7.561 7.196 7.953 38.379 3.676 68.263 36.451 67.332 76.005-.853 36.26-28.045 66.37-63.042 71.845 4.328.671 8.771.994 13.31.887 39.547-.931 71.8-33.184 72.731-72.731.932-39.555-28.952-72.33-67.331-76.006z"/><path d="m322.267 305.7h-23c9.15 0 16.567 7.417 16.567 16.567v107.683c0 37.255-27.335 68.104-63.037 73.642 3.172.496 6.403.809 9.69.887 41.995.988 76.348-32.758 76.348-74.529v-107.683c-.002-9.15-7.419-16.567-16.568-16.567z"/></g></g><g><path d="m123.467 0h-66.267c-22.405 0-40.633 18.228-40.633 40.633v8.283c0 4.251 1.697 8.108 4.44 10.949-2.792 3.93-4.44 8.725-4.44 13.902 0 6.416 2.528 12.248 6.635 16.567-4.106 4.319-6.635 10.151-6.635 16.567s2.528 12.248 6.635 16.567c-4.106 4.319-6.635 10.151-6.635 16.567s2.528 12.248 6.635 16.567c-4.106 4.319-6.635 10.151-6.635 16.566 0 6.416 2.528 12.248 6.635 16.567-4.106 4.319-6.635 10.151-6.635 16.566 0 6.416 2.528 12.248 6.635 16.567-4.106 4.319-6.635 10.151-6.635 16.567 0 5.176 1.648 9.972 4.44 13.902-2.743 2.841-4.44 6.697-4.44 10.948v8.284c0 22.405 18.228 40.633 40.633 40.633h33.133c4.999 0 9.066 4.067 9.066 9.066v165.667c0 13.271 10.796 24.067 24.067 24.067h16.566c13.27 0 24.067-10.796 24.067-24.067v-250.068c0-4.142-3.358-7.5-7.5-7.5s-7.5 3.358-7.5 7.5v192.866h-34.7v-108.466c0-13.271-10.796-24.066-24.066-24.066h-33.133c-14.134 0-25.633-11.499-25.633-25.633v-8.284c0-.432.352-.783.783-.783h57.983c4.142 0 7.5-3.358 7.5-7.5s-3.358-7.5-7.5-7.5h-49.7c-4.999 0-9.066-4.067-9.066-9.067 0-4.999 4.067-9.066 9.066-9.066h49.7c4.142 0 7.5-3.358 7.5-7.5s-3.358-7.5-7.5-7.5h-49.7c-4.999 0-9.066-4.067-9.066-9.067 0-4.999 4.067-9.066 9.066-9.066h49.7c4.142 0 7.5-3.358 7.5-7.5s-3.358-7.5-7.5-7.5h-49.7c-4.999 0-9.066-4.067-9.066-9.067 0-4.999 4.067-9.066 9.066-9.066h49.7c4.142 0 7.5-3.358 7.5-7.5s-3.358-7.5-7.5-7.5h-49.7c-4.999 0-9.066-4.067-9.066-9.067 0-4.999 4.067-9.066 9.066-9.066h49.7c4.142 0 7.5-3.358 7.5-7.5s-3.358-7.5-7.5-7.5h-49.7c-4.999 0-9.066-4.067-9.066-9.067 0-4.999 4.067-9.066 9.066-9.066h49.7c4.142 0 7.5-3.358 7.5-7.5s-3.358-7.5-7.5-7.5h-49.7c-4.999 0-9.066-4.067-9.066-9.067 0-4.999 4.067-9.066 9.066-9.066h49.7c4.142 0 7.5-3.358 7.5-7.5s-3.358-7.5-7.5-7.5h-57.983c-.432 0-.783-.352-.783-.784v-8.283c0-14.137 11.499-25.636 25.633-25.636h66.267c14.134 0 25.633 11.499 25.633 25.633v167.234c0 4.142 3.358 7.5 7.5 7.5s7.5-3.358 7.5-7.5v-167.234c0-22.405-18.228-40.633-40.633-40.633zm16.566 497h-16.566c-4.999 0-9.067-4.067-9.067-9.067v-9.066h34.7v9.066c0 5-4.067 9.067-9.067 9.067zm9.067-51.267v18.133h-34.7v-18.133z"/><path d="m413.383 381.033c-26.973 0-48.916 21.944-48.916 48.917s21.944 48.917 48.916 48.917c26.973 0 48.917-21.944 48.917-48.917s-21.944-48.917-48.917-48.917zm0 82.834c-18.702 0-33.916-15.215-33.916-33.917s15.215-33.917 33.916-33.917c18.702 0 33.917 15.215 33.917 33.917s-15.215 33.917-33.917 33.917z"/><path d="m472.083 372.622c-13.81-14.139-31.77-22.645-51.2-24.388v-25.968c0-12.13-9.023-22.188-20.708-23.827v-51.848c0-11.158-4.66-21.942-12.785-29.589l-13.442-12.651 9.3-8.753c8.125-7.646 12.785-18.431 12.785-29.589v-125.376c0-22.405-18.228-40.633-40.633-40.633h-33.133c-22.405 0-40.633 18.228-40.633 40.633v67.833c0 4.142 3.358 7.5 7.5 7.5s7.5-3.358 7.5-7.5v-67.833c0-14.134 11.499-25.633 25.633-25.633h9.067v127.02c-9.608 3.16-16.567 12.212-16.567 22.863 0 12.118 9.005 22.168 20.673 23.823l41.67 39.219c5.125 4.824 8.065 11.627 8.065 18.666v51.609h-18.133v-37.293c0-11.158-4.66-21.942-12.785-29.589l-49.559-46.644c-5.125-4.824-8.065-11.628-8.065-18.667v-27.541c0-4.142-3.358-7.5-7.5-7.5s-7.5 3.358-7.5 7.5v27.541c0 11.157 4.66 21.942 12.785 29.589l9.301 8.753-13.442 12.651c-8.125 7.646-12.785 18.431-12.785 29.589v51.848c-11.686 1.639-20.708 11.697-20.708 23.827v25.968c-19.43 1.743-37.39 10.249-51.201 24.388-15.567 15.938-23.851 36.999-23.326 59.302.496 21.064 9.047 40.942 24.079 55.974s34.911 23.583 55.974 24.08c.667.016 1.33.023 1.995.023 21.56 0 41.845-8.248 57.306-23.35 7.302-7.132 13.081-15.38 17.223-24.356 4.142 8.977 9.921 17.225 17.223 24.357 15.462 15.102 35.744 23.35 57.306 23.35.663 0 1.329-.008 1.995-.023 21.063-.496 40.941-9.048 55.974-24.08 15.032-15.032 23.583-34.91 24.079-55.974.524-22.302-7.76-43.363-23.328-59.301zm-91.05-331.989v125.375c0 7.039-2.939 13.843-8.065 18.667l-9.963 9.377-10.195-9.595c6.102-4.37 10.089-11.512 10.089-19.573 0-10.652-6.959-19.704-16.566-22.863v-127.021h9.066c14.135 0 25.634 11.499 25.634 25.633zm-42.2 115.184c4.999 0 9.066 4.067 9.066 9.066s-4.067 9.067-9.066 9.067c-5 0-9.067-4.067-9.067-9.067.001-4.999 4.068-9.066 9.067-9.066zm13.208 142.623c-5.082.713-9.657 3.019-13.208 6.395-3.551-3.377-8.126-5.682-13.209-6.395v-37.532c0-7.038 2.94-13.842 8.065-18.666l5.143-4.841 5.143 4.841c5.125 4.824 8.065 11.628 8.065 18.666v37.532zm-59.549-51.849c0-7.039 2.94-13.842 8.065-18.666l14.105-13.275 13.229 12.451-4.481 4.217c-8.125 7.646-12.785 18.431-12.785 29.589v37.293h-18.133zm18.638 231.329c-13.023 12.721-30.258 19.485-48.467 19.061-35.836-.844-64.567-29.575-65.41-65.41-.429-18.231 6.34-35.444 19.061-48.468 12.725-13.028 29.761-20.203 47.97-20.203 4.142 0 7.5-3.358 7.5-7.5v-33.133c0-4.999 4.067-9.066 9.067-9.066h4.142 33.133 4.142c5 0 9.067 4.067 9.067 9.066v107.683c-.002 18.209-7.177 35.244-20.205 47.97zm103.874 19.061c-18.247.438-35.443-6.34-48.467-19.061-13.028-12.726-20.204-29.761-20.204-47.97v-107.683c0-4.999 4.067-9.066 9.066-9.066h4.142 33.133 4.142c4.999 0 9.066 4.067 9.066 9.066v33.133c0 4.142 3.358 7.5 7.5 7.5 18.209 0 35.245 7.175 47.97 20.203 12.721 13.024 19.49 30.237 19.061 48.468-.842 35.835-29.574 64.566-65.409 65.41z"/><path d="m264.283 381.033c-26.973 0-48.916 21.944-48.916 48.917s21.944 48.917 48.916 48.917c26.973 0 48.917-21.944 48.917-48.917s-21.944-48.917-48.917-48.917zm0 82.834c-18.702 0-33.916-15.215-33.916-33.917s15.215-33.917 33.916-33.917c18.702 0 33.917 15.215 33.917 33.917s-15.215 33.917-33.917 33.917z"/></g></g></svg>