<?xml version="1.0" encoding="UTF-8" standalone="no"?>
<svg
   width="2040"
   height="286"
   version="1.1"
   id="svg35"
   sodipodi:docname="illustration-section-03.svg"
   inkscape:version="1.1 (c68e22c387, 2021-05-23)"
   xmlns:inkscape="http://www.inkscape.org/namespaces/inkscape"
   xmlns:sodipodi="http://sodipodi.sourceforge.net/DTD/sodipodi-0.dtd"
   xmlns="http://www.w3.org/2000/svg"
   xmlns:svg="http://www.w3.org/2000/svg">
  <sodipodi:namedview
     id="namedview37"
     pagecolor="#ffffff"
     bordercolor="#666666"
     borderopacity="1.0"
     inkscape:pageshadow="2"
     inkscape:pageopacity="0.0"
     inkscape:pagecheckerboard="0"
     showgrid="false"
     inkscape:zoom="1.1504902"
     inkscape:cx="1020"
     inkscape:cy="212.51811"
     inkscape:window-width="2560"
     inkscape:window-height="1377"
     inkscape:window-x="-8"
     inkscape:window-y="-8"
     inkscape:window-maximized="1"
     inkscape:current-layer="svg35" />
  <defs
     id="defs31">
    <linearGradient
       x1="1342.9411"
       y1="188.63133"
       x2="1690.3365"
       y2="516.51243"
       id="a"
       gradientTransform="matrix(-1.096792,0,0,-0.91174989,2055.4713,541.46249)"
       gradientUnits="userSpaceOnUse">
      <stop
         stop-color="#f235a7"
         stop-opacity="0"
         offset="0%"
         id="stop24" />
      <stop
         stop-color="#f235a7"
         stop-opacity=".32"
         offset="53.022%"
         id="stop26" />
      <stop
         stop-color="##f235a7"
         stop-opacity="0"
         offset="100%"
         id="stop28" />
    </linearGradient>
  </defs>
  <path
     d="m 728.47129,482.98048 -15.203,8.42601 -106.086,-63.44601 -16.77,-10.117 -7.37,-4.458 -8.965,-5.433 c -9.284,-5.648 -19.106,-11.732 -28.68,-18.25799 -1.347,-0.91701 -2.689,-1.84401 -4.027,-2.78101 a 216.81,216.81 0 0 1 -15.73901,-12.243 204.422,204.422 0 0 1 -14.24,-13.396 c -8.88599,-9.241 -17.47,-19.784 -26.244,-32.23 -5.38,-7.632 -10.723,-15.578 -15.947,-23.417 l -3.893,-5.853 c -1.481,-2.228 -2.962,-4.457 -4.446,-6.682 l -1.429,-2.13 c -8.541,-12.663 -16.506,-23.11 -24.305,-31.884 -9.197,-10.35 -19.193,-18.865 -29.73,-25.332 l -1.11,-0.672 c -10.946,-6.546 -23.589,-11.55 -37.578,-14.87 -12.26,-2.913 -25.723,-5.013 -42.368,-6.607 l -14.537,-1.382 c -9.631,-0.922 -19.417,-1.903 -28.94,-3.084 -15.22,-1.887 -28.674,-4.534 -41.13,-8.091 -12.492,-3.584 -24.973,-8.51 -37.092,-14.633 -10.622,-5.41 -21.014,-11.327 -30.789,-17.046 l -3.697,-2.17 c -10.233,-6.033 -20.44,-12.084 -30.632,-18.129 L 30.961316,83.347482 l 0.30501,-17.34 110.886964,66.318998 c 4.86,2.885 9.726,5.77 14.596,8.654 l 11.452,6.775 7.738,4.57 2.585,1.517 c 11.518,6.738 21.55,12.354 32.123,17.48 12.292,5.92 25.152,10.476 38.22,13.539 12.628,2.958 26.527,5.041 42.495,6.368 7.235,0.601 14.61599,1.115 21.89499,1.597 l 13.798,0.907 8.663,0.584 a 424.528,424.528 0 0 1 6.016,0.464 c 13.797,1.166 25.802,2.905 36.548,5.29 13.53,3.002 25.745,7.657 36.319,13.84 l 1.039,0.617 c 10.689,6.422 20.78,15.095 29.998,25.778 8.19,9.493 16.393,20.807 25.082,34.59 a 2183.033,2183.033 0 0 1 5.719,9.125 l 6.524,10.466 c 3.7,5.926 7.47,11.922 11.242,17.755 8.62801,13.345 16.92801,24.538 25.37301,34.218 8.76,10.04 18.697,19.184 29.534,27.178 10.723,7.853 22.036,14.923 32.664,21.394 8.113,4.93 16.224,9.83 24.321,14.716 l 8.841,5.332 113.534,67.9 z m -32.42201,17.979 -97.6,-58.371 c -8.264,-4.97999 -16.546,-9.97 -24.835,-14.984 l -8.29,-5.023 c -9.934,-6.031 -21.60799,-13.218 -32.868,-20.796 -11.162,-7.553 -21.51,-15.767 -30.757,-24.415 -9.396,-8.81999 -18.656,-18.949 -27.525,-30.109 -7.405,-9.317 -14.699,-19.184 -21.802,-28.89 l -3.681,-5.037 c -9.725,-13.312 -18.164,-23.68 -26.558,-32.626 -9.363,-9.981 -19.422,-18.295 -29.92,-24.733 l -1.205,-0.73 c -10.94,-6.538 -23.47,-11.713 -37.24,-15.383 -11.864,-3.16 -25.056,-5.7 -41.519,-7.996 l -5.98,-0.835 c -12.01,-1.686 -24.276,-3.47 -36.259,-5.663 -14.132,-2.587 -27.542,-6.027 -39.852,-10.223 -12.254,-4.2 -24.158,-9.389 -36.39,-15.867 -12.036,-6.395 -23.599,-13.114 -34.303,-19.422 l -9.025,-5.336 c -4.809,-2.844 -9.616,-5.69 -14.415,-8.536 l -9.20599,-5.463 -34.432004,-20.588 -61.75197,-36.932 0.30401,-17.337998 91.116974,54.495998 1.006,0.6 c 3.432,2.052 6.856,4.1 10.29199,6.157 7.498,4.448 14.998,8.898 22.51,13.341 l 11.345,6.697 3.645,2.14 c 9.8,5.733 20.22,11.667 30.891,17.1 12.229,6.18 24.827,11.15 37.447,14.773 12.554,3.585 26.10699,6.253 41.433,8.152 10.735,1.332 21.78999,2.41 32.58299,3.433 l 10.949,1.039 c 16.55,1.586 29.925,3.67 42.097,6.562 13.405,3.188 25.549,7.931 36.111,14.108 l 1.09,0.646 c 10.701,6.43 20.853,15.007 30.17,25.495 8.189,9.216 16.55,20.27 25.565,33.795 l 2.224,3.34 2.22,3.34 c 6.456,9.711 13.13,19.753 19.87,29.315 8.834,12.527 17.48201,23.146 26.44001,32.466 a 205.975,205.975 0 0 0 13.566,12.813 217.445,217.445 0 0 0 16.715,13.082 376.386,376.386 0 0 0 4.096,2.83 c 9.65,6.576 19.456,12.647 28.71,18.274 l 1.335,0.808 a 7937.02,7937.02 0 0 0 15.024,9.097 l 16.812,10.144 105.05,62.82501 z m -17.23199,9.55201 -89.112,-53.29301 c -8.269,-4.979 -16.554,-9.967 -24.847,-14.978 l -11.353,-6.874 c -8.666,-5.26799 -19.36,-11.85 -29.96,-18.721 -6.42,-4.19 -12.423,-8.39 -18.12,-12.67 l -2.27,-1.712 -0.552,-0.43 c -3.62001,-2.786 -7.12201,-5.609 -10.52001,-8.492 -9.77,-8.29999 -19.481,-17.693 -28.86,-27.92 a 526.305,526.305 0 0 1 -6.525,-7.26499 l -1.628,-1.85501 c -4.892,-5.594 -9.845,-11.463 -15.198,-17.908 l -4.389,-5.3 -0.752,-0.905 c -9.772,-11.756 -18.124,-20.984 -26.16,-28.912 a 176.52,176.52 0 0 0 -4.737,-4.497 l -1.197,-1.09 c -0.55,-0.498 -1.097,-1.01 -1.651,-1.499 l -0.912,-0.782 c -7.033,-6.128 -14.297,-11.51 -21.708,-16.052 l -1.323,-0.8 c -10.92,-6.528 -23.292,-11.94 -36.772,-16.09 -2.121,-0.654 -4.297,-1.294 -6.539,-1.927 l -1.782,-0.498 c -8.982,-2.48 -19.012,-4.824 -30.853,-7.218 l -1.18999,-0.24 c -13.11,-2.628 -27.118,-5.54 -40.712,-9.016 -1.691,-0.435 -3.374,-0.881 -5.047,-1.337 -11.711,-3.197 -22.96,-6.92 -33.503,-11.09 -11.723,-4.663 -23.416,-10.224 -35.746,-16.998 -6.442,-3.562 -12.904,-7.237 -19.272,-10.89 l -8.858,-5.094 -6.13,-3.53 -120.362964,-71.986 0.302,-17.336 93.998974,56.22 10.42499,6.176 c 4.802,2.85 9.612,5.696 14.426,8.543 3.007,1.78 6.002,3.562 9.015,5.339 l 3.606,2.12 c 9.697,5.69 20.043,11.643 30.775,17.347 12.325,6.526 24.323,11.758 36.68,15.99 12.405,4.23 25.91,7.694 40.14,10.299 13.019,2.382 26.354,4.282 39.33299,6.094 l 2.988,0.417 c 16.383,2.284 29.499,4.811 41.28,7.95 13.59,3.62 25.947,8.723 36.728,15.166 l 0.254,0.152 c 10.683,6.42 20.923,14.816 30.441,24.961 7.93,8.453 15.907,18.192 24.993,30.52 l 1.476,2.012 3.55,4.859 c 7.135,9.75 14.463,19.665 21.913,29.04001 8.938,11.24299 18.266,21.44399 27.72501,30.323 9.325,8.721 19.756,17.00199 31.004,24.61399 11.19,7.53401 22.449,14.47201 32.95,20.848 8.1,4.91601 16.197,9.803 24.28,14.67701 l 8.89,5.35699 96.57,57.75401 z m -2.024,1.11999 -15.20401,8.42801 -113.837,-68.08501 -4.776,-2.95299 -10.61299,-6.55001 a 2421.076,2421.076 0 0 1 -17.69,-11.013 c -12.01701,-7.623 -22.51101,-14.93 -32.08301,-22.335 -10.02,-7.755 -20.141,-16.478 -30.085,-25.924 l -1.68,-1.606 c -9.218,-8.847 -18.006,-17.881 -25.025,-25.20699 l -4.404,-4.6 c -7.409,-7.70201 -16.691,-17.10101 -26.444,-25.86801 a 222.014,222.014 0 0 0 -5.739,-4.969 c -8.108,-6.823 -16.406,-12.853 -24.761,-17.961 l -1.504,-0.913 c -10.856,-6.493 -23.04,-12.187 -36.215,-16.927 -12.415,-4.468 -25.137,-8.216 -35.46599,-11.11 l -6.682,-1.86 c -14.42,-4.023 -25.619,-7.39 -35.973,-10.809 -13.058,-4.321 -25.632,-9.176 -37.371,-14.43 -11.129,-5.01 -22.64,-10.892 -35.193,-17.985 -5.918,-3.366 -11.887,-6.81 -17.756,-10.208 l -12.882,-7.465 c -1.174,-0.68 -2.347,-1.358 -3.518,-2.034 l -111.953964,-66.95699 0.302,-17.33501 119.379964,71.4 6.409,3.685 6.116,3.521 c 7.179,4.128 14.495,8.302 21.79,12.333 12.425,6.827 24.192,12.422 35.973,17.106 1.51599,0.6 3.046,1.19 4.59,1.77 10.81,4.067 22.29,7.671 34.2,10.734 9.094,2.325 18.36,4.393 27.421,6.296 3.022,0.635 6.022,1.253 8.984,1.854 l 5.64999,1.141 2.408,0.492 c 11.515,2.376 21.276,4.706 30.015,7.173 2.229,0.629 4.393,1.268 6.506,1.919 13.34,4.108 25.565,9.455 36.335,15.893 l 0.26,0.156 c 10.673,6.413 21.065,14.578 30.89,24.271 l 1.172,1.165 c 7.833,7.827 16.033,16.958 25.637,28.545 l 2.617,3.163 c 9.07,10.95 16.933,20.22301 25.156,29.2 9.432,10.28601 19.202,19.73801 29.04,28.093 a 275.874,275.874 0 0 0 5.116,4.23201 l 2.232,1.79 a 298.663,298.663 0 0 0 5.081,3.92699 c 6.03,4.56801 12.39701,9.04401 19.237,13.508 l 1.888,1.22 c 11.328,7.301 22.549,14.158 31.184,19.39 11.063,6.70401 22.12,13.36 33.178,20.018 l 88.08801,52.682 z m -32.43001,17.974 -105.357,-63.012 -6.932,-4.258 -6.943,-4.254 c -6.433,-3.939 -12.87,-7.883 -19.29899,-11.86 l -2.22401,-1.386 c -11.735,-7.339 -21.435,-13.77499 -30.37,-20.14999 -10.367,-7.40001 -20.842,-15.54701 -31.136,-24.21701 l -1.752,-1.47999 c -9.905,-8.4 -19.425,-16.94201 -26.937,-23.75901 l -3.884,-3.524 c -7.753,-7.017 -17.482,-15.648 -27.706,-23.956 -10.334,-8.395 -20.416,-15.563 -30.762,-21.865 l -1.518,-0.917 -0.223,-0.134 c -10.956,-6.55 -22.61,-12.376 -35.626,-17.81 l -2.127,-0.881 c -11.70299,-4.822 -23.47699,-9.131 -32.993,-12.522 l -6.83,-2.43 c -9.781,-3.494 -21.687,-7.844 -33.414,-12.517 -12.616,-5.03 -24.847,-10.47 -36.35,-16.169 l -1.867,-0.93 c -9.984,-5.008 -20.49199,-10.716 -32.878,-17.855 -4.392,-2.542 -8.775,-5.094 -13.154,-7.649 l -6.567,-3.834 c -4.79,-2.798 -9.577,-5.595 -14.358,-8.373 l -103.564954,-61.94 0.30199,-17.32999 110.980964,66.37699 5.143,2.975 14.029,8.13 c 4.98,2.88 10.01201,5.778 15.01201,8.622 12.60699,7.123 24.173,13.033 35.35799,18.069 11.8,5.281 24.439,10.161 37.562,14.504 l 2.174,0.712 c 12.318,4.01 24.591,7.533 34.476,10.288 l 6.198,1.725 c 10.305,2.892 22.959,6.624 35.225,11.036 12.599,4.533 24.282,9.947 34.749,16.1 l 1.482,0.88 c 10.614,6.378 21.152,14.247 31.327,23.394 9.751,8.773 18.988,18.125 26.351,25.782 l 5.602,5.847 c 7.248,7.548 16.211,16.71801 25.56,25.616 9.996,9.49601 20.171,18.263 30.238,26.057 9.591,7.423 20.135,14.76501 32.239,22.444 6.847,4.31201 13.811,8.62001 20.615,12.818 l 2.905,1.79201 c 3.194,1.971 6.387,3.93999 9.587,5.92199 l 112.855,67.499 -15.199,8.423 z m -17.22399,9.549 -130.27101,-77.91 a 1783.21,1783.21 0 0 0 -8.08,-5.21 l -4.05,-2.595 c -6.809,-4.36 -13.85,-8.87 -20.705,-13.435 -9.87,-6.576 -19.953,-13.73 -29.997,-21.289 l -2.008,-1.517 c -9.565,-7.252 -18.997,-14.74 -26.807,-21.018 l -7.84,-6.317 c -7.987,-6.42 -17.802,-14.19 -27.859,-21.664 -11.208,-8.338 -22.006,-15.599 -32.93,-22.121 -10.953,-6.551 -22.443,-12.626 -35.122,-18.57 l -2.06899,-0.966 c -10.349,-4.81 -20.726,-9.307 -29.458,-13.015 l -9.948,-4.205 c -12.456,-5.28 -22.37,-9.63 -31.646,-13.877 -12.344,-5.674 -24.292,-11.596 -35.512,-17.605 -5.449,-2.92 -10.923,-5.946 -16.301,-8.943 l -11.812,-6.59 c -2.155,-1.198 -4.307,-2.391 -6.456,-3.574 l -129.008964,-77.158 0.303,-17.33 102.566974,61.344 7.05199,4.107 7.049,4.115 c 4.438,2.591 8.877,5.184 13.322,7.77 l 6.677,3.873 2.31,1.326 c 12.2,6.988 22.597,12.582 32.545,17.517 11.509,5.705 23.789,11.167 36.5,16.236 l 2.103,0.834 c 11.215,4.425 22.331,8.48 31.517,11.76 l 9.329,3.321 c 9.577,3.435 21.07499,7.7 32.38499,12.422 12.214,5.098 23.67,10.785 34.074,16.913 l 1.738,1.033 c 10.291,6.184 20.302,13.214 30.545,21.452 l 1.281,1.036 c 8.08,6.564 16.53,13.86 27.059,23.373 l 7.331,6.644 c 7.536,6.80601 16.635,14.906 25.862,22.677 10.37,8.731 20.886,16.912 31.262,24.318 l 1.689,1.199 c 9.059,6.40101 18.972,12.923 31.014,20.408 a 3796.94,3796.94 0 0 0 12.873,7.922 l 6.434,3.943 c 4.63,2.835 9.256,5.668 13.883,8.516 l 104.375,62.426 z M 31.629326,46.387482 150.79929,117.66148 l 8.029,4.75501 c 5.74,3.40199 11.482,6.80399 17.23,10.20199 l 8.63,5.093 2.221,1.303 c 9.737,5.703 20.909,12.053 32.634,17.478 12.245,5.606 25.338,9.783 38.915,12.417 12.711,2.466 26.853,4.135 43.23599,5.103 5.136,0.304 10.352,0.577 15.504,0.837 l 12.703,0.634 c 5.503,0.278 11.074,0.572 16.554,0.903 16.283,0.983 30.252,2.79 42.705,5.52 13.926,3.055 26.442,7.866 37.2,14.298 l 0.217,0.13 c 10.677,6.416 20.75,15.097 29.935,25.806 8.3,9.673 16.457,21.06 24.937,34.81 3.585,5.806 7.178,11.758 10.686,17.586 l 5.252,8.727 a 1807.77,1807.77 0 0 0 7.11901,11.725 c 8.512,13.884 16.563,25.481 24.613,35.454 8.651,10.719 18.362,20.245 28.866,28.318 10.624,8.12 21.911,15.21 32.526,21.66501 a 9454.618,9454.618 0 0 0 22.371,13.52999 l 10.796,6.51 122.016,72.974 -15.191,8.42 -114.526,-68.49199 -0.746,-0.45001 c -10.781,-6.50199 -21.593,-13.02 -32.407,-19.59299 l -3.361,-2.053 c -9.58,-5.87301 -19.601,-12.241 -29.157,-19.24401 a 183.113,183.113 0 0 1 -29.212,-26.882 c -8.373,-9.589 -16.616,-20.707 -25.20001,-33.987 -3.793,-5.866 -7.586,-11.899 -11.309,-17.861 l -3.697,-5.93 c -2.817,-4.52 -5.634,-9.041 -8.469,-13.538 l -1.413,-2.227 c -8.221,-12.867 -16.037,-23.55 -23.846,-32.603 -9.099,-10.553 -19.049,-19.175 -29.592,-25.645 l -1.078,-0.653 c -10.953,-6.546 -23.66,-11.452 -37.767,-14.583 -10.833,-2.403 -22.925,-4.155 -36.812,-5.328 -1.984,-0.168 -4.004,-0.324 -6.063,-0.468 l -8.686,-0.587 -13.807,-0.907 c -7.257,-0.482 -14.613,-0.993 -21.82,-1.591 -15.86699,-1.319 -29.673,-3.387 -42.20299,-6.323 -12.944,-3.037 -25.664,-7.543 -37.805,-13.393 -10.867,-5.262 -21.219,-11.088 -33.267,-18.157 l -4.89201,-2.88 -8.264,-4.883 -8.938,-5.295 c -4.43499,-2.63 -8.80499,-5.224 -13.05499,-7.75 L 31.326316,63.699492 l 0.302,-17.312 z m 0.124,-8.964 9.381,-5.2 118.410964,70.818008 4.708,2.79499 c 6.468,3.839 12.94,7.681 19.423,11.518 l 9.731,5.75 c 10.273,6.054 22.297,12.98 34.997,18.588 12.056,5.285 25.326,9.17 39.442,11.55 12.67399,2.137 26.94799,3.58 43.63499,4.411 3.126,0.155 6.256,0.302 9.387,0.447 l 12.334,0.569 c 7.682,0.36 15.47,0.752 23.098,1.24 16.078,1.029 29.996,2.919 42.547,5.775 13.467,3.07 25.651,7.76 36.232,13.946 l 1.1,0.653 c 10.685,6.42 20.789,15.046 30.035,25.639 8.426,9.652 16.634,20.954 25.094,34.55 5.505,8.846 10.979,18.025 16.273,26.904 2.235,3.75 4.47,7.497 6.712,11.23 8.537,14.206 16.452,26.02 24.2,36.113 8.66,11.274 18.193,21.099 28.34,29.204 10.41,8.255 21.73,15.4 32.413,21.889 a 9358.265,9358.265 0 0 0 23.279,14.069 l 9.893,5.96 119.59001,71.523 -0.22,12.695 -4.06,2.252 -123.00801,-73.566 -0.899,-0.542 c -10.73,-6.47 -21.49,-12.96 -32.257,-19.493 -10.596,-6.446 -21.848,-13.517 -32.349,-21.543 -10.376,-7.975 -19.975,-17.392 -28.526,-27.989 -7.99,-9.9 -15.994,-21.426 -24.466,-35.24 -2.37,-3.865 -4.75199,-7.802 -7.104,-11.704 l -7.012,-11.649 a 1630.44,1630.44 0 0 0 -8.942,-14.691 c -8.556,-13.868 -16.773,-25.336 -25.12,-35.063 -9.09,-10.59 -19.04,-19.233 -29.594,-25.712 l -1.051,-0.637 c -10.954,-6.546 -23.67,-11.436 -37.798,-14.534 -12.547,-2.754 -26.619,-4.574 -43.014,-5.566 -6.571,-0.395 -13.27,-0.738 -19.825,-1.066 l -9.415,-0.47 c -5.16,-0.26 -10.384,-0.533 -15.525,-0.836 -16.298,-0.964 -30.354,-2.623 -42.972,-5.07 -13.442,-2.61 -26.383,-6.738 -38.458,-12.272 -11.348,-5.25 -22.07,-11.267 -34.679,-18.687 -11.282,-6.65 -22.533,-13.326 -33.764,-19.99 L 31.635316,44.034482 Z m 26.633,-14.745 109.927964,65.743 a 12975.163,12975.163 0 0 0 33.853,20.079998 l 2.513,1.48 c 10.112,5.939 20.919,12.024 32.571,16.98 11.96,5.049 25.334,8.76 39.754,11.027 12.697,1.997 26.58899,3.346 43.71899,4.248 l 14.667,0.763 c 9.949,0.525 20.06,1.1 29.916,1.867 15.827,1.23 29.622,3.32 42.176,6.387 13.685,3.341 26.11,8.315 36.937,14.783 l 0.237,0.143 c 10.73,6.447 20.896,14.965 30.222,25.322 8.605,9.56 16.932,20.659 25.45501,33.933 6.162,9.6 12.245,19.61 18.159,29.395 l 5.042,8.346 1.287,2.12 c 7.892,12.943 14.88,23.445 21.811,32.776 l 1.012,1.358 c 8.7,11.592 18.129,21.59 28.025,29.716 9.632,7.889 19.89,14.524 32.33,22.062 a 13565.45,13565.45 0 0 0 33.182,20.012 l 111.185,66.497 -0.302,17.338 -118.602,-70.93 -17.024,-10.265 a 9423.237,9423.237 0 0 1 -16.139,-9.76 l -2.784,-1.697 c -9.79,-5.997 -19.992,-12.565 -29.422,-20.048 -10.022,-8 -19.442,-17.71 -27.997,-28.857 l -1.286,-1.689 c -7.298,-9.66 -14.768,-20.884 -22.787,-34.236 -1.483,-2.468 -2.962,-4.943 -4.44,-7.42 l -2.217,-3.719 c -5.316,-8.915 -10.81201,-18.133 -16.34401,-27.022 -8.525,-13.69 -16.795,-25.076 -25.285,-34.807 -9.12,-10.456 -19.084,-19.03 -29.632,-25.504 l -1.107,-0.67 c -10.96,-6.552 -23.641,-11.497 -37.69,-14.7 -12.636,-2.88 -26.657,-4.783 -42.864,-5.821 -7.63,-0.488 -15.414,-0.88 -23.091,-1.24 l -7.632,-0.353 c -4.712,-0.217 -9.423,-0.432 -14.125,-0.666 l -2.744,-0.143 c -15.42399,-0.84 -28.74999,-2.231 -40.65799,-4.24 -13.956,-2.353 -27.068,-6.192 -38.97,-11.411 -11.735,-5.18 -22.911,-11.512 -32.647,-17.222 l -2.138,-1.258 a 8866.736,8866.736 0 0 1 -18.827,-11.14 l -15.018,-8.911 L 43.185326,31.104482 Z m 17.20997,-9.563 135.242994,80.885 3.429,1.98301 c 9.654,5.569988 20.377,11.579988 31.753,16.307998 11.856,4.92599 25.254,8.59399 39.822,10.89999 l 1.755,0.27301 c 11.761,1.79399 24.74299,3.13299 40.58399,4.18699 l 9.565,0.627 c 11.896,0.788 24.011,1.646 35.764,2.81 15.527,1.539 29.158,3.902 41.674,7.224 13.485,3.58 25.838,8.692 36.714,15.191 l 0.258,0.155 c 10.771,6.472 21.016,14.856 30.456,24.923 8.82,9.409 17.313,20.236 25.96101,33.102 6.811,10.137 13.406,20.597 19.815,30.872 l 3.822,6.138 c 9.034,14.513 16.748,25.934 24.278,35.942 8.778,11.666 18.179,21.706 27.941,29.838 10.516,8.76 22.185,16.016 32.298,22.131 11.076,6.698 22.143,13.352 33.192,19.995 l 102.785,61.472 -0.302,17.33 -110.198,-65.904 c -11.036,-6.64 -22.1,-13.304 -33.173,-20.008 l -2.367,-1.44 c -11.31,-6.908 -20.805,-13.147 -29.73,-20.456 -9.784,-8.041 -19.101,-17.923 -27.696,-29.372 l -0.54,-0.723 -0.54,-0.728 c -7.25,-9.777 -14.562,-20.83 -22.907,-34.624 l -3.083,-5.098 a 4582.83,4582.83 0 0 0 -6.133,-10.128 c -2.934,-4.83 -5.898,-9.678 -8.896,-14.474 -0.742,-1.187 -1.49,-2.353 -2.236,-3.532 l -1.922,-3.046 -0.969,-1.52 c -8.57601,-13.363 -16.96701,-24.546 -25.65401,-34.193 -9.19,-10.206 -19.191,-18.655 -29.745,-25.132 l -1.174,-0.712 c -10.995,-6.569 -23.608,-11.62 -37.486,-15.01 -12.665,-3.092 -26.565,-5.198 -42.497,-6.437 -9.868,-0.768 -19.984,-1.343 -29.935,-1.868 l -14.699,-0.766 c -17.02,-0.89099 -30.84599,-2.234 -43.51199,-4.225 -14.258,-2.24299 -27.477,-5.908 -39.285,-10.893 -12.494,-5.314 -24.066,-11.974 -34.848,-18.34 -11.31,-6.68 -22.589,-13.381998 -33.847,-20.077988 l -108.929964,-65.14701 15.19597,-8.432 z m 17.242,-9.5369999 126.744994,75.8019999 3.425,1.993 c 9.645,5.598 20.357,11.63901 31.716,16.378 11.788,4.919998 25.136,8.664998 39.673,11.129998 l 1.632,0.273 c 11.21999,1.849 23.78599,3.36 39.21999,4.72 l 2.28,0.198 c 5.13,0.439 10.214,0.88 15.255,1.341 l 2.682,0.248 c 2.237,0.21 4.462,0.424 6.68,0.644 a 908.987,908.987 0 0 1 9.96,1.044 c 1.632,0.182 3.26,0.368 4.882,0.56 l 4.087,0.492 c 15.238,1.908 28.682,4.583 41.101,8.178 13.286,3.846 25.559,9.105 36.477,15.628 10.92,6.536 21.35,14.825 30.988,24.663 9.018,9.203 17.696,19.72 26.53,32.153 a 626.032,626.032 0 0 1 3.61,5.142 c 5.906,8.496 11.715,17.272 17.29,25.8 l 4.663,7.147 c 6.244,9.537 11.815,17.657 17.072,24.872 l 0.562,0.77 a 381.311,381.311 0 0 0 5.69,7.58 c 8.92,11.576 18.366,21.535 28.075,29.597 9.977,8.283 20.519,14.935 32.281,22.162 l 127.63501,76.333 -0.304,17.33 -101.80801,-60.888 c -11.033,-6.634 -22.098,-13.286 -33.174,-19.985 l -2.1,-1.273 c -9.542,-5.804 -20.26,-12.609 -29.952,-20.683 -9.636,-8.026 -18.93,-17.952 -27.624,-29.504 l -1.043,-1.394 c -7.142,-9.593 -14.527,-20.577 -23.133,-34.401 l -3.84,-6.167 c -6.438,-10.32 -13.054,-20.814 -19.838,-30.902 -8.71,-12.96 -17.267,-23.87 -26.16,-33.354 -9.276,-9.895 -19.326,-18.186 -29.892,-24.667 l -1.256,-0.76 c -11.033,-6.595 -23.558,-11.778 -37.226,-15.407 -12.618,-3.352 -26.352,-5.733 -41.99,-7.281 -13.002,-1.289 -26.43,-2.202 -39.52,-3.06 l -4.683,-0.305 -3.534,-0.238 c -15.495,-1.079 -28.224,-2.449 -39.815,-4.28 -14.397,-2.276 -27.642,-5.9 -39.367,-10.772 -12.62,-5.244 -24.485,-12.114998 -34.94,-18.169998 l -134.210994,-80.269 z m 17.207004,-9.559 118.27999,70.7389999 4.585,2.68 c 9.334,5.43 19.625,11.215 30.44,15.858 11.84,5.08101 24.704,8.905 39.32899,11.689 l 1.55,0.291 c 11.411,2.121 23.844,3.9 39.91,5.711998 l 5.715,0.642 c 11.98,1.356 25.356,2.955 38.248,4.946 14.947,2.308 28.197,5.31 40.509,9.176 13.074,4.103 25.267,9.506 36.238,16.063 l 0.274,0.165 1.352,0.839 c 0.835,0.513 1.669,1.024 2.499,1.555 7.738,4.974 15.244,10.751 22.388,17.237 0.36,0.327 0.726,0.644 1.086,0.975 l 0.244,0.232 a 183.733,183.733 0 0 1 3.42,3.248 c 9.21301,8.984 18.08801,19.177 27.13301,31.163 l 1.508,2.007 c 7.271,9.722 14.354,19.803 22.536,31.665 l 2.096,3.037 c 9.256,13.378 16.697,23.472 23.979,32.538 9.241,11.502 18.535,20.994 28.414,29.02 10.105,8.207 21.08,15.077 32.38,21.976 l 119.228,71.305 -0.303,17.336 -126.637,-75.737 -3.852,-2.376 c -10.156,-6.294 -19.41,-12.326 -28.189,-19.616 -9.597,-7.97 -18.94,-17.821 -27.77,-29.28 a 396.272,396.272 0 0 1 -7.691,-10.34 l -0.882,-1.229 c -4.732,-6.62 -9.757,-14.016 -15.324,-22.542 l -3.563,-5.467 c -5.833,-8.933 -11.946,-18.18 -18.235,-27.2 a 607.77,607.77 0 0 0 -3.144,-4.468 c -8.891,-12.517 -17.635,-23.113 -26.73101,-32.395 -9.376,-9.567 -19.487,-17.696 -30.075,-24.18199 l -1.317,-0.798 c -11.065,-6.61201 -23.494,-11.93801 -36.945,-15.83201 -12.52,-3.625 -26.065,-6.32 -41.41,-8.24 l -1.648,-0.193 a 683.673,683.673 0 0 0 -11.472,-1.303 c -1.957,-0.207 -3.92,-0.408 -5.892,-0.603 l -3.271,-0.32 -4.724,-0.447 -1.444,-0.132 c -3.767,-0.344 -7.547,-0.681 -11.355,-1.013 l -6.088,-0.526 c -16.122,-1.42 -29.104,-3.007 -40.69599,-4.973 -14.39,-2.44 -27.59,-6.14 -39.24,-11.001998 -12.628,-5.27 -24.464,-12.172 -34.897,-18.257 L 94.851296,2.4414821 Z m 34.45999,-19.0870001 101.293,60.58 3.469,2.049 a 1570.688,1570.688 0 0 0 6.78,3.978 l 2.692,1.566 1.576,0.909 2.671,1.532 c 5.737,3.273 11.403,6.398 17.224,9.41301 l 0.066,0.032 c 12.55,5.417 25.46699,9.83801 38.39099,13.14 l 2.234,0.563 c 10.241,2.55 21.45,4.9 35.666,7.477 l 9.455,1.695 c 1.538,0.277 3.052,0.551 4.547,0.82401 l 3.733,0.687 2.515,0.47 3.591,0.67599 1.796,0.34401 3.275,0.635 1.951,0.385 3.297,0.65799 1.788,0.366 3.525,0.728 c 0.95,0.19901 1.894,0.404 2.84,0.608 0.736,0.157 1.474,0.31201 2.207,0.473 14.387,3.144 27.253,6.797 39.335,11.163 3.18,1.15 6.32,2.366 9.41,3.646 9.17,3.802998 17.925,8.181998 26.132,13.066998 l 0.28,0.162 c 9.92,5.98001 19.61,12.98001 28.78601,20.894 l 1.144,0.995 c 0.605,0.53 1.216,1.05201 1.818,1.59001 9.553,8.55099 18.818,18.10299 28.325,29.20199 8.472,9.886 16.855,20.339 24.721,30.284 l 3.03,3.834 c 9.832,12.402 17.701,21.76 25.355,30.16 8.911,9.775 18.758,19.024 29.321,27.535 9.857,6.863 20.134,13.237 29.35,18.827 l 3.733,2.257 102.248,61.149 -0.302,17.33801 -109.842,-65.69101 -3.356,-2.041 c -9.565,-5.833 -19.564,-12.097 -29.207,-19.044 a 249.724,249.724 0 0 1 -28.38,-28.374 l -1.479,-1.75 c -6.921,-8.24 -14.15,-17.512 -23.062,-29.585 l -1.285,-1.744 c -8.081,-10.986 -16.784,-22.68 -25.682,-33.75 -9.324,-11.603 -18.457,-21.54 -27.925,-30.38099 -9.90001,-9.24701 -20.49701,-17.28601 -31.50301,-23.899 l -0.36,-0.21501 c -11.13,-6.64999 -23.376,-12.254 -36.402,-16.65499 -12.289,-4.153998 -25.435,-7.506008 -40.19,-10.247008 -12.723,-2.362 -25.527,-4.317 -40.682,-6.48799 l -1.523,-0.218 c -17.108,-2.44501 -29.975,-4.684 -41.72,-7.25701 a 244.74,244.74 0 0 1 -38.70499,-11.92899 c -11.572,-5.78 -22.87,-12.35501 -34.382,-19.14301 l -108.77699,-65.058 15.19499,-8.422 z m 19.263,-10.684 15.196,-8.422 84.326,50.4320001 c 10.287,6.1559999 20.396,12.1729999 30.674,17.9769999 l 3.475,1.95 c 11.76199,5.82 24.11799,11.141 36.76699,15.83 11.703,3.755 24.056,7.318 37.708,10.879 l 8.26,2.141 c 10.962,2.847 22.157,5.799 33.202,8.973 13.911,4 26.41,8.277 38.212,13.076 11.939,4.858 23.38,10.493 34.033,16.763 l 1.879,1.117 c 10.889,6.541998 21.56001,14.116998 31.72601,22.519998 9.81,8.105 19.453,17.043 29.481,27.324 l 1.879,1.931 c 7.803,8.047 15.339,16.144 24.022,25.539 l 2.106,2.28 c 9.993,10.819 19.257,20.356 28.354,29.186 9.97,8.87 20.349,17.201 30.89,24.792 10.294,6.67 20.917,13.102 31.02,19.155 l 87.79,52.503 -0.302,17.329 -95.58,-57.164 c -11.289,-6.775 -20.92,-12.704 -30.4,-19.043 -10.234,-7.768 -20.33,-16.428 -29.97,-25.708 l -1.776,-1.9 c -7.718,-8.295 -15.76,-17.362 -24.49,-27.615 l -5.882,-6.91 c -7.934,-9.291 -15.022,-17.433 -22.348,-25.456 -9.836,-10.765 -19.347,-20.067 -29.08,-28.434 a 240.413,240.413 0 0 0 -15.70001,-12.407 c -0.878,-0.635 -1.762,-1.253 -2.647,-1.876 l -1.304,-0.922 c -0.934,-0.648 -1.874,-1.277 -2.814,-1.907 l -1.28,-0.865 -0.929,-0.603 -0.931,-0.6 c -0.81,-0.524 -1.619,-1.05 -2.432,-1.562 l -0.436,-0.268 c -1.114,-0.698 -2.23,-1.391 -3.35,-2.065 l -0.454,-0.27 c -11.172,-6.669998 -23.256,-12.518998 -35.915,-17.381998 -12.036,-4.627 -24.795,-8.614 -39.003,-12.188 -12.793,-3.22 -26.037,-6.14 -37.75,-8.668 l -2.895,-0.623 c -14.854,-3.194 -28.036,-6.354 -40.25,-9.644 -12.91,-4.223 -25.413,-9.136 -37.15999,-14.603 -11.087,-5.99 -21.895,-12.373 -32.08,-18.466 z m 34.45,-19.085998 15.199,-8.426 77.455,46.319998 a 3612.918,3612.918 0 0 0 23.85599,14.1430001 535.493,535.493 0 0 0 35.502,17.8549999 c 11.792,4.911 24.058,9.656 37.511,14.51 l 13.02,4.542 c 8.329,2.912 16.778,5.887 25.077,8.901 13.571,4.933 25.706,9.834 37.098,14.983 12.208,5.52 24.001,11.666 35.052,18.268 a 351.282,351.282 0 0 1 32.65001,22.175 c 9.933,7.587998 19.95399,15.915998 30.636,25.459998 8.05,7.19 16.14,14.595 24.025,21.83 l 5.65,5.187 c 10.493,9.437 20.375,17.94 30.238,26.018 a 534.118,534.118 0 0 0 32.091,22.7 l 2.995,1.832 c 10.487,6.403 20.99,12.685 30.35199,18.28 l 68.82501,41.16 -0.303,17.339 -76.30201,-45.632 c -7.91,-4.73 -15.687,-9.398 -23.367,-14.112 l -2.924,-1.804 -2.915,-1.81 c -1.31,-0.815 -2.629,-1.625 -3.934,-2.446 a 448.474,448.474 0 0 1 -31.316,-23.548 c -9.575,-8.507 -19.402,-17.753 -29.205,-27.48 l -9.206,-9.137 c -6.474,-6.417 -13.078,-12.923 -19.678,-19.24 l -1.027,-0.977 -1.025,-0.968 c -8.642,-8.19 -16.957,-15.513 -25.26799,-22.248 l -1.247,-1.006 c -0.544,-0.437 -1.09,-0.882 -1.634,-1.315 -10.04,-7.981998 -20.478,-15.299998 -31.13101,-21.729998 l -1.527,-0.914 c -11.122,-6.645 -23.056,-12.72 -35.468,-18.053 -11.638,-5 -24.012,-9.61 -37.827,-14.094 -2.744,-0.89 -5.506,-1.773 -8.276,-2.649 -1.48,-0.467 -2.963,-0.928 -4.445,-1.39 -1.236,-0.387 -2.472,-0.777 -3.709,-1.15999 -3.407,-1.05701 -6.81,-2.10401 -10.192,-3.14 l -12.313,-3.76301 c -13.317,-4.07799 -26.218,-8.418 -38.308,-12.88999 a 446.042,446.042 0 0 1 -35.875,-16.7799999 c -9.99599,-5.736 -19.78199,-11.55001 -30.39699,-17.896 z m 556.886,335.379996 -0.303,17.331 -84.631,-50.613 c -10.626,-6.356 -21.94,-13.165 -33.077,-20.379 -10.44,-7.52 -20.766,-15.808 -30.657,-24.606 -9.033,-8.771 -18.272,-18.282 -28.246,-29.078 l -4.565,-4.94 c -7.376,-7.97 -15.404,-16.579 -23.48,-24.85 -10.082,-10.335 -19.776,-19.32 -29.636,-27.47 -10.24,-8.464 -20.99001,-16.093998 -31.95701,-22.683998 l -0.512,-0.306 c -11.13,-6.652 -23.139,-12.613 -35.69,-17.722 -11.868,-4.828 -24.433,-9.129 -38.414,-13.143 -13.397,-3.847 -27.424,-7.48 -39.798,-10.685 l -3.168,-0.826 c -13.1,-3.443 -24.951,-6.874 -36.103,-10.45 -12.546,-4.653 -24.837,-9.945 -36.48999,-15.709 -11.439,-6.383 -22.634,-13.042 -34.048,-19.8729999 l -83.338,-49.8400001 15.192,-8.418998 83.401,49.8729981 c 8.953,5.34 17.016,10.109 25.31999,14.8859999 l 1.167,0.67 a 446.086,446.086 0 0 0 36.105,16.888 c 12.162,4.498 25.1,8.851 38.453,12.94 l 12.687,3.878 c 3.223,0.987 6.467,1.984 9.714,2.992 a 1324.794,1324.794 0 0 1 16.502,5.223 c 13.757,4.465 26.073,9.054 37.654,14.03 12.332,5.297 24.184,11.33 35.233,17.931 11.02001,6.575 21.95801,14.167 32.43301,22.488998 l 0.885,0.71 0.885,0.714 c 8.448,6.798 16.893,14.193 25.676,22.488 l 1.741,1.647 c 0.291,0.276 0.583,0.554 0.875,0.834 6.612,6.333 13.235,12.856 19.727,19.291 l 9.13,9.061 c 9.835,9.757 19.688,19.026 29.315,27.58 a 450.547,450.547 0 0 0 31.518,23.7 l 1.347,0.837 c 9.31,5.829 18.726,11.515 28.323,17.261 l 11.835,7.08 68.995,41.26 z m -0.991,56.635 -101.254,-60.554 -3.723,-2.252 c -9.189,-5.572 -19.43,-11.924 -29.189,-18.717 -10.426,-8.402 -20.197,-17.58 -29.043,-27.282 l -1.014,-1.117 c -7.11,-7.86 -14.512,-16.678 -23.622,-28.147 l -5.355,-6.767 c -7.383,-9.311 -15.187,-18.997 -23.073,-28.202 -9.57001,-11.168 -18.89701,-20.783 -28.51,-29.39 -0.522,-0.468 -1.054,-0.92 -1.58,-1.383 -0.747,-0.655 -1.49,-1.316 -2.242,-1.96 l -0.287,-0.24 c -8.42401,-7.173 -17.25301,-13.598 -26.32901,-19.145 l -1.441,-0.872 -0.464,-0.272 c -8.278,-4.93 -17.119,-9.353 -26.389,-13.194998 a 220.247,220.247 0 0 0 -9.5,-3.682 c -12.137,-4.39199 -25.086,-8.066 -39.587,-11.236 l -1.099,-0.237 -3.959,-0.844 -1.705,-0.353 c -1.209,-0.25 -2.42,-0.50099 -3.639,-0.748 l -3.248,-0.649 -2.678,-0.526 -3.179,-0.615 -3.25,-0.617 -3,-0.563 -4.978,-0.917 -5.069,-0.919 -8.784,-1.575 c -15.215,-2.756 -26.965,-5.251 -37.765,-8.01 -12.78,-3.264 -25.58399,-7.645 -38.05899,-13.02499 l -1.904,-1 c -0.794,-0.41801 -1.59,-0.83101 -2.381,-1.25301 l -1.106,-0.59899 a 443.58,443.58 0 0 1 -3.2,-1.72901 l -1.09,-0.604 c -1.05601,-0.582 -2.112,-1.164 -3.165,-1.754 l -1.61,-0.91 c -0.877,-0.49299 -1.753,-0.986 -2.628,-1.486 l -3.044,-1.74799 -2.08001,-1.202 c -4.01199,-2.33001 -8.024,-4.69801 -12.05999,-7.091 l -100.297,-59.98401 15.19399,-8.423 92.81001,55.505 c 10.865,6.503 22.46,13.38301 34.273,19.76 11.84599,5.512 24.43299,10.46001 37.45799,14.72 12.297,3.31201 25.512,6.48 40.4,9.682 l 4.925,1.062 c 11.573,2.505 23.687,5.19801 35.653,8.212 14.108,3.552 26.792,7.51401 38.775,12.118 12.573,4.83 24.554,10.626 35.607,17.229998 11.01,6.556 21.804,14.38 32,23.146 9.694,8.336 19.149,17.581 28.906,28.265 8.316,9.103 16.346,18.416 23.942,27.331 l 5.253,6.17 c 9.05,10.589 17.354,19.904 25.354,28.436 9.765,9.396 19.921,18.109 30.232,25.933 10.303,6.887 20.681,13.237 33.07,20.651 l 94.03001,56.232 z m -118.926,-31.424 c -11.246,-6.867 -22.167,-13.7 -32.153,-21.819 -9.773,-7.944 -18.97,-17.338 -28.116,-28.718 l -0.967,-1.21 c -6.94,-8.712 -14.103,-18.464 -22.926,-31.213 l -4.607,-6.67 c -7.712,-11.14 -14.52,-20.75 -21.58,-30.107 -9.108,-12.066 -18.049,-22.333 -27.33301,-31.39 -1.98,-1.932 -3.998,-3.79 -6.035,-5.607 -0.492,-0.438 -0.98,-0.89 -1.475,-1.321 l -0.924,-0.784 c -6.106,-5.257 -12.448,-10.01 -18.974,-14.196 -1.011,-0.65 -2.032,-1.275 -3.053,-1.9 l -1.172,-0.727 c -11.108,-6.638 -23.444,-12.106 -36.667,-16.254 -12.407,-3.897 -25.754,-6.92099 -40.802,-9.244 -11.802,-1.824 -23.998,-3.318 -35.163,-4.597998 l -9.97,-1.125 c -16.241,-1.85 -28.722,-3.668 -40.222,-5.858 -14.46999,-2.752 -27.19899,-6.533 -38.91199,-11.561 -12.54,-5.383 -24.37,-12.315 -34.798,-18.428 L 112.0913,-7.0985179 l 15.195,-8.4220001 109.77899,65.656 3.585,2.11 c 10.665,6.26 20.56,11.928 31.039,17.158 a 246.65,246.65 0 0 0 39.05799,12.039 l 1.52,0.33 c 10.677,2.295 22.306,4.33 37.122,6.49 l 8.82,1.268 c 11.418,1.652 24.102,3.579 36.527,5.888 14.66,2.725 27.719,6.052998 39.918,10.175998 12.889,4.357 25.006,9.9 36.013,16.477 l 0.252,0.151 c 0.593,0.358 1.182,0.733 1.772,1.098 l 1.433,0.881 a 68.147,68.147 0 0 1 0.713,0.449 c 6.018,3.84 11.9,8.11 17.6,12.767 l 2.245,1.846 c 0.375,0.315 0.742,0.644 1.116,0.964 a 196.604,196.604 0 0 1 6.39401,5.702 c 9.377,8.754 18.448,18.623 27.73,30.173 8.25,10.264 16.38,21.131 24.004,31.475 l 1.626,2.208 c 10.183,13.847 18.175,24.082 25.914,33.188 a 251.031,251.031 0 0 0 28.67,28.652 c 10.9,7.856 22.161,14.791 32.765,21.226 l 110.834,66.284 -0.305,17.334 z m 118.58,165.495 0.22,-12.713 0.017,0.01 0.384,-21.951 v -0.003 l 0.684,-39.287 v -0.002 l 0.303,-17.341 v 0.002 l 0.384,-21.95 v -0.001 l 0.344,-19.649 v -0.002 l 0.303,-17.353 0.01,0.005 0.383,-21.952 -0.01,-0.005 0.303,-17.33 v 0.002 l 0.385,-21.95 -80.946,-48.413 a 2669.61,2669.61 0 0 1 -22.177,-13.426 532.19,532.19 0 0 1 -31.92,-22.58 c -9.812,-8.036 -19.673,-16.519 -30.133,-25.929 l -2.697,-2.476 c -8.813,-8.09 -17.925,-16.454 -26.992,-24.554 -10.72,-9.577 -20.78,-17.936 -30.754,-25.557998 -9.9,-7.563 -20.126,-14.57 -30.435,-20.85 l -2.40201,-1.45 c -11.117,-6.642 -22.978,-12.824 -35.255,-18.373 -11.439,-5.171 -23.62,-10.092 -37.24,-15.042 -8.308,-3.017 -16.762,-5.995 -25.096,-8.908 l -13.014,-4.54 c -13.412,-4.84 -25.65,-9.573 -37.38,-14.458 a 534.45,534.45 0 0 1 -35.315,-17.7599999 l -2.985,-1.755 A 4067.764,4067.764 0 0 1 289.87629,-19.870518 l -76.415,-45.699998 -17.223,9.546 -0.008,-0.005 -19.248,10.667998 0.003,10e-4 -17.218,9.544 0.004,0.002 -17.247,9.559 0.003,10e-4 -17.21799,9.544 h 0.002 l -15.198,8.4260001 -0.015,-0.01 -19.250004,10.67 0.018,0.01 -15.206,8.4249999 -0.01,-0.007 -19.24997,10.68 0.012,0.006 -15.22,8.435 -0.014,-0.01 -11.398,6.32 -0.16,8.95 0.033,0.019 -0.301,17.326 -0.021,-0.012 -0.384,21.951 0.018,0.011 -0.304,17.346998 -0.017,-0.01 -0.383,21.952 v 0.003 l -0.30301,17.334 v -0.002 l -0.382,21.952 0.01,0.006 -0.343,19.636 130.033964,77.77 a 1793.837,1793.837 0 0 1 8.633,4.789 l 9.66,5.39 c 4.487,2.5 9.041,5.022 13.594,7.487 l 2.733,1.471 c 11.255,6.027 23.24,11.969 35.622,17.66 l 3.61,1.644 c 8.76,3.963 18.267,8.104 30.025,13.076 l 6.378,2.692 c 9.606,4.067 21.443,9.178 33.094,14.645 12.617,5.913 24.047,11.956 34.943,18.473 10.434,6.214 20.679,13.086 31.312,20.933 l 1.453,1.076 c 9.99,7.426 19.747,15.148 27.702,21.541 l 7.938,6.397 c 7.82,6.286 17.266,13.786 26.85,21.05 10.74,8.144 21.542,15.841 32.104,22.877 5.153,3.432 10.406,6.83 15.586,10.155 l 5.15,3.3 a 2475.968,2475.968 0 0 1 12.149,7.817 l 131.292,78.522 34.448,-19.096 h 0.002 l 53.708,-29.77 -0.006,-0.003 15.20801,-8.429 v 0.003 z"
     fill="url(#a)"
     fill-rule="evenodd"
     id="path33"
     style="fill:url(#a)" />
</svg>
