<svg width="95" height="95" viewBox="0 0 95 95" fill="none" xmlns="http://www.w3.org/2000/svg">
<path d="M85.8075 31.3168C83.7137 26.3663 80.7155 21.9194 76.8974 18.1023C73.0794 14.2842 68.6334 11.287 63.6829 9.19317C58.5567 7.02432 53.1123 5.92517 47.4997 5.92517C41.8871 5.92517 36.4426 7.02432 31.3164 9.19222C26.366 11.286 21.919 14.2842 18.1019 18.1013C14.2848 21.9184 11.2866 26.3654 9.1928 31.3158C7.02395 36.443 5.9248 41.8874 5.9248 47.5C5.9248 53.1126 7.02396 58.5571 9.19186 63.6833C11.2857 68.6337 14.2839 73.0797 18.101 76.8978C21.919 80.7158 26.365 83.7131 31.3155 85.8078C36.4417 87.9757 41.8861 89.0749 47.4987 89.0749C51.6759 89.0749 55.7599 88.4659 59.6882 87.2604L59.3281 85.5941C55.5889 86.7578 51.6151 87.3848 47.4978 87.3848C25.5072 87.3848 7.61486 69.4925 7.61486 47.5C7.61486 25.5075 25.5072 7.61522 47.4997 7.61522C69.4922 7.61522 87.3845 25.5075 87.3845 47.5C87.3845 58.3823 83.004 68.2594 75.9132 75.4633L76.83 76.9643C76.8528 76.9424 76.8756 76.9206 76.8974 76.8978C80.7155 73.0797 83.7127 68.6337 85.8075 63.6833C87.9754 58.5571 89.0745 53.1126 89.0745 47.5C89.0745 41.8874 87.9754 36.443 85.8075 31.3168Z" fill="#F9A61A"/>
<path d="M75.9131 75.4633L76.8298 76.9643C76.8526 76.9425 76.8754 76.9206 76.8973 76.8978C79.5354 74.2597 81.7812 71.3223 83.6081 68.1246L81.8563 67.7379C80.1928 70.5528 78.1931 73.1463 75.9131 75.4633Z" fill="url(#paint0_linear)"/>
<path d="M52.4971 49.971C53.4993 49.3174 55.1989 47.5305 55.1989 47.5305C56.6809 45.4167 55.7869 42.6389 55.7869 42.6389L54.3049 38.9567C54.1852 38.6081 54.5006 38.761 54.5006 38.761L55.2521 38.9025C55.786 38.8265 55.1428 38.0637 55.1428 38.0637L53.3777 36.0373C52.8552 35.3837 52.7023 36.1684 52.7023 36.1684L52.3859 38.4893C52.3755 38.7401 52.5598 38.7287 52.5598 38.7287C52.7013 38.761 52.8362 39.0992 52.8362 39.0992L54.9861 44.8515C55.2768 46.304 54.55 46.6232 54.55 46.6232C54.0313 47.1704 51.2554 48.6819 51.2554 48.6819L49.9606 49.3222L44.12 51.9109C30.611 55.1067 34.7359 42.0623 34.7359 42.0623C34.9686 41.1037 34.4452 41.365 34.4452 41.365C30.8428 50.4289 35.2584 53.2761 35.2584 53.2761C39.7072 58.0109 52.4971 49.971 52.4971 49.971Z" fill="#54AE6F"/>
<path d="M77.3083 39.5267L75.7854 31.4222C75.7113 30.685 76.0068 30.9805 76.0068 30.9805L76.6205 31.6189C77.4061 32.2326 76.8903 30.8579 76.8903 30.8579L75.319 27.2973C74.8772 26.1184 74.6074 26.9781 74.6074 26.9781L74.0175 28.5988C73.723 29.2125 74.2635 29.336 74.2635 29.336C74.6321 29.4339 74.6074 30.0485 74.6074 30.0485L76.4979 42.2294C77.4555 48.1479 74.6074 47.4601 74.6074 47.4601C72.1517 47.3822 71.7099 43.9242 71.7099 43.9242L68.8609 27.6165C68.7383 26.2409 68.2225 27.6165 68.2225 27.6165C67.8054 28.5988 68.0011 29.6058 68.0011 29.6058L69.0575 36.3594C69.0575 36.3594 70.0892 41.7126 70.359 44.1446C70.6535 47.0174 71.0715 48.0007 69.9657 49.6214C66.6255 50.8003 66.749 48.7616 66.749 48.7616C66.7737 47.4601 65.9634 48.7122 65.9634 48.7122C62.9671 52.3469 63.0165 48.7616 63.0165 48.7616C63.0906 47.8772 62.6232 48.4918 62.6232 48.4918C62.6232 48.4918 62.2299 48.9583 61.7634 49.572C57.8095 52.9122 57.9074 48.8595 57.9074 48.8595C58.0793 47.8772 57.2443 49.0561 57.2443 49.0561C55.2303 51.414 52.6026 50.6768 52.6026 50.6768C52.6026 50.6768 51.9024 50.7614 51.2061 49.2233C50.808 48.4586 50.1288 46.4598 49.5493 41.3041C49.5493 41.3041 48.927 33.8381 47.7481 30.2699L47.1914 28.6492C47.1914 28.6492 46.9292 27.7486 46.6185 28.4364L46.2661 29.4434C46.2661 29.4434 45.9716 29.9431 46.3069 30.5406C46.3069 30.5406 48.3314 37.3103 48.4159 40.6828C48.49 43.624 48.9726 47.9228 49.7469 49.9463C50.182 51.0872 50.9325 51.6848 50.9325 51.6848C53.8053 54.0911 56.8016 50.825 56.8016 50.825C58.5211 54.9509 61.9344 50.6778 61.9344 50.6778C63.5057 53.7472 65.7164 50.4811 65.7164 50.4811C65.7164 50.4811 67.0179 52.5198 69.3017 51.6107C71.5855 50.7015 71.5123 47.7062 71.5123 47.7062C73.1577 50.579 75.908 48.811 75.908 48.811C79.0278 46.9433 77.3083 39.5267 77.3083 39.5267Z" fill="#54AE6F"/>
<path d="M80.9791 57.0258C80.6561 56.8928 80.8043 50.4765 80.1346 47.2018C80.0776 46.306 78.9822 37.3237 78.9822 37.3237C78.9822 37.3237 78.6554 37.2705 78.531 37.0292C78.436 36.5979 79.48 35.1359 79.7508 35.1501C80.0215 35.1644 81.4969 39.4109 81.3173 39.4983C81.1378 39.5866 80.0244 38.1911 80.0244 38.1911L81.533 49.8723C81.533 49.8723 81.8037 52.215 81.7097 54.0732C81.6156 55.9314 81.3031 57.1578 80.9791 57.0258Z" fill="#54AE6F"/>
<path d="M68.2376 55.9046L75.2752 53.1582C75.2752 53.1582 76.6992 52.6091 76.2109 53.504L68.8883 56.392C68.8883 56.3929 66.8135 56.9629 68.2376 55.9046Z" fill="#54AE6F"/>
<path d="M56.944 32.3932L63.9408 29.6629C63.9408 29.6629 65.3563 29.1167 64.8708 30.0068L57.591 32.8787C57.591 32.8787 55.5285 33.4449 56.944 32.3932Z" fill="#54AE6F"/>
<path d="M43.3599 31.8725L42.9456 31.7034C43.1717 31.2047 43.3656 30.5853 43.3599 29.9326C43.3599 29.9326 43.3846 28.1894 41.8864 29.0729C41.8864 29.0729 39.6026 30.2765 41.0513 31.7984C41.0513 31.7984 41.3829 32.0464 41.9311 32.3228C41.1216 33.4315 39.4268 34.9211 35.9194 36.6121C35.9194 36.6121 33.857 37.7169 36.0667 37.0291C36.0667 37.0291 39.7869 35.8872 42.2674 32.8425C42.2674 32.8425 42.3481 32.7427 42.4649 32.567C42.6939 32.662 42.9437 32.7522 43.2126 32.8301C43.2126 32.8301 43.6544 33.0581 43.7779 32.4777C43.9014 31.8972 43.756 32.1309 43.3599 31.8725ZM41.6156 31.161C41.6156 31.161 40.7312 30.952 41.1986 30.2642C41.1986 30.2642 41.5016 29.925 41.723 29.7531C41.9443 29.5811 42.5989 29.3436 42.6236 30.2765C42.6236 30.2765 42.7604 30.7202 42.4222 31.4897L41.6156 31.161Z" fill="#54AE6F"/>
<path d="M41.7383 41.3868L39.5428 39.9922C39.4317 39.9219 39.3984 39.7747 39.4697 39.6635L40.452 38.1169C40.5223 38.0058 40.6695 37.9725 40.7807 38.0438L42.9761 39.4384C43.0873 39.5087 43.1205 39.6559 43.0493 39.7671L42.067 41.3137C41.9967 41.4248 41.8494 41.4571 41.7383 41.3868Z" fill="#54AE6F"/>
<path d="M67.4501 25.1399C67.5365 25.2093 67.6173 25.2739 67.699 25.3366C68.0904 25.6377 68.5321 25.7223 69.0081 25.6244C69.2693 25.5703 69.4327 25.3841 69.5467 25.1523C69.7187 24.8027 69.7576 24.4246 69.7491 24.0446C69.7339 23.3853 69.6246 22.7421 69.3339 22.1427C69.256 21.9821 69.1477 21.8311 69.0309 21.6962C68.9625 21.6173 68.8485 21.5784 68.7544 21.5214C68.7421 21.5337 68.7297 21.5451 68.7183 21.5575C68.7763 21.9584 68.8447 22.3583 68.8874 22.7621C68.9207 23.0775 69.0394 23.5059 69.0185 23.8213C68.991 24.2422 68.649 24.4749 68.1835 24.3723C67.9849 24.3467 67.7645 24.2061 67.7056 24.0265C67.6144 23.7463 67.5299 23.4594 67.4909 23.1687C67.432 22.7222 67.4102 22.27 67.3807 21.8206C67.3712 21.6724 67.3171 21.5708 67.1955 21.4786C67.0169 21.3428 66.8592 21.1803 66.6929 21.0293C66.673 21.0445 66.653 21.0597 66.634 21.0749C66.6369 21.1376 66.6378 21.2003 66.6416 21.262C66.6872 21.9755 66.8449 22.82 66.8772 23.5344C66.8886 23.79 66.863 24.0512 66.8193 24.3039C66.7585 24.6488 66.5542 24.7799 66.1714 24.7628C65.893 24.7504 65.4475 24.4531 65.4275 24.1253C65.4019 23.7045 65.4123 23.2808 65.4123 22.858C65.4123 22.6386 65.4247 22.4191 65.4275 22.1987C65.4285 22.1522 65.4228 22.0933 65.3952 22.06C65.1853 21.8007 65.1311 21.547 64.944 21.3228C64.7264 21.795 64.5013 22.2842 64.2676 22.7896C64.4063 22.8039 64.5725 22.821 64.754 22.839C64.7654 23.1905 64.7616 23.542 64.792 23.8907C64.8224 24.2336 64.8566 24.5823 64.944 24.9138C65.1302 25.6178 65.6688 25.9275 66.3899 25.8135C66.8003 25.7489 67.1233 25.5674 67.3655 25.234C67.3902 25.2007 67.4225 25.1713 67.4501 25.1399Z" fill="#54AE6F"/>
<path d="M44.3758 38.8398L45.3087 44.8561L46.2663 50.9219L46.8392 53.8574C46.8392 53.8574 47.6419 59.6647 47.7398 61.1876C47.7398 61.1876 48.0343 64.7235 48.3782 61.1876C48.3782 61.1876 48.5872 58.5105 48.0257 53.2883C47.8044 52.0296 45.7742 40.5099 45.7742 40.5099C45.7495 39.7974 45.8483 39.5029 46.1181 39.8468C46.3879 40.1907 46.634 40.5099 46.634 40.5099C46.634 40.5099 47.3465 41.3696 47.051 40.2401C46.7565 39.1105 45.627 36.7042 45.4797 36.4581C45.3325 36.2121 44.9316 35.0588 44.3749 36.4581C43.6633 38.0532 44.0813 38.7904 44.3758 38.8398Z" fill="#F9A61A"/>
<path d="M19.5214 62.8339L25.9624 60.3212C25.9624 60.3212 27.2658 59.8186 26.8184 60.6375L20.1171 63.2804C20.1171 63.2804 18.218 63.802 19.5214 62.8339Z" fill="#F9A61A"/>
<path d="M32.0858 59.6429L37.8485 57.3942C37.8485 57.3942 39.0141 56.9449 38.6151 57.6773L32.6187 60.0428C32.6187 60.0428 30.9192 60.5093 32.0858 59.6429Z" fill="#F9A61A"/>
<path d="M20.7556 42.1287C20.8506 42.2038 20.938 42.276 21.0273 42.3444C21.4557 42.6731 21.9393 42.7662 22.4599 42.6598C22.7458 42.6009 22.9244 42.3966 23.0489 42.143C23.237 41.7601 23.2797 41.3459 23.2712 40.9308C23.255 40.2097 23.1353 39.5048 22.8171 38.8493C22.7316 38.6736 22.6138 38.5083 22.4855 38.361C22.4105 38.2746 22.2851 38.2318 22.1825 38.1701C22.1692 38.1834 22.1559 38.1967 22.1426 38.209C22.2053 38.6479 22.2813 39.0859 22.3278 39.5267C22.3639 39.8725 22.4941 40.3408 22.4713 40.6857C22.4409 41.1464 22.0666 41.401 21.5574 41.2889C21.3398 41.2614 21.0985 41.1066 21.0349 40.9109C20.9351 40.604 20.842 40.2895 20.8002 39.9722C20.7356 39.4839 20.7119 38.989 20.6796 38.4969C20.6691 38.3354 20.6102 38.2233 20.4772 38.1216C20.2825 37.9734 20.1096 37.7958 19.9272 37.6305C19.9053 37.6476 19.8844 37.6637 19.8626 37.6808C19.8654 37.7492 19.8673 37.8176 19.8711 37.886C19.9215 38.6669 20.0934 39.5913 20.1286 40.3731C20.1409 40.6524 20.1134 40.9384 20.0649 41.2148C19.9984 41.592 19.7752 41.7355 19.3553 41.7174C19.0503 41.7041 18.563 41.3782 18.5411 41.0191C18.5126 40.5584 18.524 40.0948 18.524 39.6321C18.524 39.3918 18.5383 39.1514 18.5402 38.9111C18.5411 38.8598 18.5345 38.7961 18.505 38.7591C18.2751 38.475 18.2162 38.1976 18.011 37.9516C17.7726 38.4684 17.5256 39.0042 17.271 39.5571C17.423 39.5723 17.6044 39.5913 17.8039 39.6112C17.8163 39.996 17.8125 40.3807 17.8457 40.7626C17.879 41.1388 17.916 41.5198 18.012 41.8827C18.2162 42.6541 18.8052 42.9914 19.5937 42.8679C20.0431 42.7976 20.3965 42.599 20.6615 42.2333C20.69 42.1952 20.7252 42.1629 20.7556 42.1287Z" fill="#F9A61A"/>
<path d="M19.2303 35.0341L18.9026 34.9002C19.0812 34.505 19.2351 34.0148 19.2303 33.498C19.2303 33.498 19.2493 32.1176 18.0637 32.8178C18.0637 32.8178 16.2559 33.7706 17.4025 34.9762C17.4025 34.9762 17.6647 35.1719 18.0989 35.3913C17.4576 36.2691 16.1162 37.4481 13.3394 38.7866C13.3394 38.7866 11.7063 39.6616 13.4562 39.1172C13.4562 39.1172 16.4022 38.2128 18.3658 35.8027C18.3658 35.8027 18.4295 35.7238 18.5226 35.5851C18.704 35.6602 18.9016 35.7314 19.1144 35.7932C19.1144 35.7932 19.464 35.9737 19.5619 35.5139C19.6588 35.0531 19.5438 35.2384 19.2303 35.0341ZM17.85 34.4698C17.85 34.4698 17.1498 34.3045 17.5194 33.7602C17.5194 33.7602 17.7588 33.4913 17.9345 33.3555C18.1103 33.2196 18.628 33.0306 18.647 33.7697C18.647 33.7697 18.7553 34.1212 18.4874 34.7301L17.85 34.4698Z" fill="#F9A61A"/>
<path d="M25.768 69.0241L24.2223 68.0427C24.1444 67.9933 24.1207 67.8898 24.171 67.8109L24.8617 66.7232C24.9111 66.6453 25.0146 66.6215 25.0935 66.6719L26.6391 67.6532C26.717 67.7026 26.7408 67.8062 26.6904 67.885L25.9998 68.9728C25.9494 69.0507 25.8459 69.0735 25.768 69.0241Z" fill="#F9A61A"/>
<path d="M28.7807 68.6963L27.235 67.715C27.1571 67.6656 27.1334 67.562 27.1837 67.4832L27.8744 66.3954C27.9238 66.3175 28.0273 66.2938 28.1062 66.3441L29.6518 67.3255C29.7297 67.3749 29.7535 67.4784 29.7031 67.5573L29.0125 68.645C28.9621 68.7229 28.8586 68.7457 28.7807 68.6963Z" fill="#F9A61A"/>
<path d="M29.059 65.4806L27.5133 64.4993C27.4354 64.4499 27.4117 64.3463 27.462 64.2675L28.1527 63.1797C28.2021 63.1018 28.3056 63.0781 28.3845 63.1284L29.9301 64.1098C30.008 64.1592 30.0318 64.2627 29.9814 64.3416L29.2908 65.4293C29.2404 65.5072 29.1369 65.53 29.059 65.4806Z" fill="#F9A61A"/>
<path d="M46.0635 63.1056C45.9504 61.3158 45.5277 59.5098 45.5277 59.5079C45.0118 56.58 43.4158 47.5199 43.4158 47.5199C43.3911 46.8074 43.4899 46.5129 43.7597 46.8568C44.0295 47.2007 44.2756 47.5199 44.2756 47.5199C44.2756 47.5199 44.9881 48.3796 44.6926 47.2501C44.3981 46.1205 43.2686 43.7142 43.1213 43.4682C42.9741 43.2221 42.5732 42.0688 42.0165 43.4682C41.304 45.0641 41.722 45.8013 42.0165 45.8498L42.9494 51.8661L43.907 57.9319L44.2727 59.8043C44.2727 59.8043 44.5986 61.6616 44.7382 63.3507C44.8114 64.2332 44.9282 65.2193 44.4903 65.8254C42.8971 67.1573 40.7473 66.157 40.0728 65.7076C39.4591 65.2165 40.0139 65.0227 41.7923 64.1116C44.7838 62.5793 41.3505 61.3861 41.3505 61.3861C39.6804 60.9443 38.6487 60.9491 36.1198 60.969C33.59 60.988 33.2223 62.5897 33.2223 62.5897C32.9763 63.8181 33.9348 63.3507 33.9348 63.3507C34.7946 63.0894 35.6116 63.781 36.1531 64.3083C36.7592 64.8973 36.2785 65.1452 36.1626 65.187C32.2733 66.5569 29.1563 70.0358 28.4096 71.021C27.6401 72.0356 25.1217 76.5775 22.5405 74.0828C20.745 72.3472 23.7926 67.354 23.7926 67.354C22.8854 68.0256 22.057 68.893 21.4594 70.7673C20.6158 73.1167 21.5658 75.0623 22.5766 75.6769C24.2363 76.6858 27.1072 75.2371 28.6794 72.7804C31.2093 68.8265 37.8317 66.1009 37.8317 66.1009C37.8317 66.1009 40.9335 70.0795 44.4694 67.353C46.1034 66.0933 46.1604 64.6474 46.0635 63.1056ZM37.9353 63.9492L37.2152 62.983C37.0185 62.394 37.8298 62.4786 37.8298 62.4786L39.9065 62.7721C40.5221 63.0163 40.0148 63.3934 40.0148 63.3934C40.0148 63.3934 39.8514 63.5407 39.1636 63.9501C38.4758 64.3577 37.9353 63.9492 37.9353 63.9492Z" fill="#F9A61A"/>
<path d="M25.0052 43.1139L25.1686 42.1316C25.1686 42.1316 25.2503 41.2472 25.8564 41.9027L27.0021 42.9667C27.0021 42.9667 27.6899 43.5728 27.0021 43.6706C27.0021 43.6706 26.6914 43.7029 26.871 43.9984C26.871 43.9984 28.6389 45.6352 28.9505 46.798C28.9505 46.798 29.7856 48.7303 28.4271 50.3016C28.4271 50.3016 35.1398 51.2516 29.9661 55.7698C29.9661 55.7698 20.3065 63.2843 15.755 59.8301C11.9759 56.9621 13.6821 51.8026 14.3699 50.1344C14.5105 49.7934 14.5476 49.8456 14.464 50.2437C14.2255 51.3865 13.8056 53.7758 14.1334 55.1485C14.5751 56.9982 17.0641 58.2427 17.0641 58.2427C17.0641 58.2427 23.1707 59.6173 29.3267 54.608C30.9968 53.2495 31.0291 52.7745 29.8179 52.4629C28.6066 52.1522 25.8231 52.1522 25.8231 52.1522C25.8231 52.1522 23.1052 52.5778 24.5131 50.2199C25.1021 49.6138 26.4615 49.5654 26.4615 49.5654C26.4615 49.5654 28.5895 49.3193 28.2789 48.0758C27.9682 46.8322 25.2503 43.8027 25.2503 43.8027C25.2503 43.8027 24.8731 43.91 25.0052 43.1139Z" fill="#F9A61A"/>
<path d="M56.3511 74.9919C56.4024 75.0024 56.4537 75.0128 56.505 75.0233C56.4451 75.0537 56.3957 75.0328 56.3511 74.9919Z" fill="#F9A61A"/>
<path d="M65.5951 78.2267C65.5286 78.3901 65.5865 78.5544 65.5989 78.7169C65.8848 82.7601 63.2115 86.4442 59.3184 87.3676C55.298 88.3204 51.2615 86.2836 49.6949 82.4912C48.9245 80.6245 48.858 78.7178 49.4603 76.7846C49.5562 76.4768 49.6712 76.434 49.9666 76.5414C50.8862 76.8786 51.8144 77.1959 52.7473 77.4923C53.0769 77.5968 53.1871 77.6871 53.0684 78.0747C52.4727 80.0079 53.2831 82.0827 55.0016 83.1334C56.7306 84.1908 58.9365 83.9675 60.3986 82.5853C61.8682 81.1964 62.2349 79.0066 61.2887 77.232C61.1481 76.9689 61.0113 76.6943 60.752 76.5157C60.1535 75.6104 59.2586 75.161 58.2383 74.9568C57.6626 74.8409 57.0603 74.7031 56.4903 75.0271L56.5045 75.0233C56.4532 75.0128 56.4019 75.0024 56.3506 74.9919C56.1682 74.9102 56.2281 74.7307 56.2072 74.5958C56.0571 73.5983 55.9345 72.597 55.773 71.6014C55.717 71.2537 55.8386 71.1701 56.1578 71.1292C58.5907 70.8195 60.752 71.4408 62.6558 72.9789C62.8192 73.1109 62.9845 73.2392 63.1498 73.3693C63.1716 73.4083 63.1868 73.4539 63.2163 73.4862C64.0722 74.4039 64.7505 75.4242 65.1571 76.6278C65.3348 77.156 65.4089 77.7061 65.5951 78.2267Z" fill="#F9A61A"/>
<path d="M71.313 75.2439C71.6341 76.7591 71.579 78.2535 71.0993 79.7326C71.0033 80.0281 70.8979 80.0974 70.5968 79.9825C69.5318 79.5787 68.4564 79.2035 67.3848 78.8168C67.9833 77.3367 67.8095 75.9364 66.9526 74.6064C66.2344 73.5576 65.1742 73.0161 64.0142 72.6162C63.202 72.3359 62.3925 72.049 61.5575 71.8457C61.2687 71.7754 61.1528 71.689 61.2744 71.3641C62.4648 68.1892 64.7257 66.2512 68.0773 65.8208C71.4517 65.3867 74.1735 66.6834 76.0602 69.523C77.5346 71.7412 77.7683 74.1704 76.957 76.7059C76.8582 77.0156 76.7537 77.1068 76.4212 76.9805C75.3676 76.5796 74.2998 76.2148 73.2368 75.8357C73.5275 75.165 73.6557 74.462 73.5987 73.7353C73.5417 73.0066 73.4439 72.2827 72.9129 71.7108C72.2004 70.4207 71.0594 69.7719 69.643 69.5762C68.9704 69.4831 68.2873 69.484 67.6783 69.8792C67.6194 69.883 67.5349 69.8621 67.5073 69.8935C67.4 70.0113 67.5378 70.035 67.6005 70.0787C68.0565 70.396 68.5058 70.72 68.9124 71.1019C70.1275 72.2428 70.8855 73.6469 71.313 75.2439Z" fill="#F9A61A"/>
<path d="M66.9528 74.6062C67.8097 75.9362 67.9835 77.3365 67.385 78.8166C66.7884 78.62 66.1928 78.4243 65.5962 78.2276C65.41 77.7061 65.3349 77.157 65.1573 76.6297C64.7507 75.4261 64.0724 74.4058 63.2164 73.4881C63.187 73.4558 63.1718 73.4102 63.1499 73.3712C64.2443 73.7484 65.3378 74.1265 66.4331 74.5008C66.5994 74.5568 66.7618 74.6566 66.9528 74.6062Z" fill="#AA732A"/>
<path d="M59.5179 63.9454C60.4508 63.4837 61.5699 63.8618 62.0154 64.789C62.4553 65.7039 62.0781 66.8087 61.1728 67.26C60.2598 67.715 59.1607 67.3512 58.7047 66.443C58.2268 65.492 58.5793 64.41 59.5179 63.9454Z" fill="#AA732A"/>
<path d="M56.4907 75.0262C57.0607 74.7032 57.663 74.84 58.2387 74.9559C59.259 75.1611 60.1539 75.6105 60.7524 76.5149C59.3198 76.0541 57.8891 75.5867 56.4907 75.0262Z" fill="#AA732A"/>
<defs>
<linearGradient id="paint0_linear" x1="76.702" y1="75.4342" x2="81.7781" y2="69.6509" gradientUnits="userSpaceOnUse">
<stop stop-color="#AA732A"/>
<stop offset="1" stop-color="#F9A61A"/>
</linearGradient>
</defs>
</svg>
