<?xml version="1.0" encoding="utf-8"?>
<!-- Generator: Adobe Illustrator 24.0.1, SVG Export Plug-In . SVG Version: 6.00 Build 0)  -->
<svg version="1.1" id="Layer_1" xmlns="http://www.w3.org/2000/svg" xmlns:xlink="http://www.w3.org/1999/xlink" x="0px" y="0px"
	 viewBox="0 0 1984.25 1984.25" style="enable-background:new 0 0 1984.25 1984.25;" xml:space="preserve">
<style type="text/css">
	.st0{fill:url(#SVGID_1_);}
	.st1{fill:url(#SVGID_2_);}
	.st2{fill:url(#SVGID_3_);}
	.st3{fill:#EB2D7C;}
	.st4{fill:url(#SVGID_4_);}
	.st5{fill:#443992;}
</style>
<g>
	<g>
		<linearGradient id="SVGID_1_" gradientUnits="userSpaceOnUse" x1="1078.0603" y1="1174.1417" x2="1078.0603" y2="622.1346">
			<stop  offset="0" style="stop-color:#433692"/>
			<stop  offset="1" style="stop-color:#EB2D7C"/>
		</linearGradient>
		<path class="st0" d="M1028.79,622.13v552.01h98.55V622.13H1028.79z"/>
		<linearGradient id="SVGID_2_" gradientUnits="userSpaceOnUse" x1="184.3501" y1="808.7621" x2="540.7684" y2="1014.5402">
			<stop  offset="0" style="stop-color:#433692"/>
			<stop  offset="1" style="stop-color:#EB2D7C"/>
		</linearGradient>
		<path class="st1" d="M252.3,920.03c-0.15,2.67-0.22,5.38-0.22,8.08c0,2.71,0.07,5.41,0.22,8.08c0.1,2,0.25,3.98,0.45,5.97
			c0.02,0.34,0.05,0.67,0.08,1.01c0.22,2.1,0.47,4.17,0.77,6.24c0.4,2.82,0.89,5.63,1.46,8.4c0.49,2.35,1.03,4.67,1.61,6.97
			c0.29,1.18,0.6,2.35,0.94,3.51c0.32,1.16,0.67,2.3,1.03,3.45c2.5,8.15,5.71,15.98,9.55,23.46c0.54,1.06,1.09,2.1,1.66,3.14
			c2.84,5.24,6,10.3,9.44,15.14c0.67,0.94,1.34,1.87,2.03,2.79c1.7,2.27,3.46,4.5,5.29,6.67c0.45,0.54,0.91,1.08,1.36,1.6
			c0.77,0.89,1.55,1.76,2.35,2.64c0.77,0.87,1.58,1.73,2.4,2.59c5.56,5.85,11.6,11.23,18.05,16.08c0.94,0.72,1.88,1.41,2.84,2.08
			c0.87,0.66,1.78,1.28,2.69,1.9c1.03,0.71,2.08,1.41,3.14,2.08c0.99,0.66,1.98,1.28,2.99,1.88c1.01,0.64,2.02,1.24,3.04,1.81
			c1.03,0.6,2.05,1.19,3.09,1.75c1.04,0.59,2.07,1.14,3.13,1.66c6.3,3.29,12.89,6.13,19.7,8.45c14.72,5.09,30.52,7.9,46.96,8.02
			c0.34,0.02,0.66,0.02,0.99,0.02h49.29v98.55h-50.28c-1.8-0.02-3.58-0.03-5.36-0.08c-1.04-0.03-2.1-0.07-3.16-0.1
			c-3.19-0.12-6.39-0.3-9.56-0.55c-1.78-0.13-3.58-0.29-5.36-0.47c-3.33-0.34-6.66-0.72-9.95-1.19c-0.92-0.13-1.85-0.27-2.77-0.4
			c-0.39-0.05-0.76-0.12-1.14-0.18c-1.01-0.15-2.02-0.32-3.03-0.49c-2.03-0.34-4.05-0.71-6.05-1.11c-0.99-0.18-2-0.39-2.99-0.6
			c-0.99-0.2-1.98-0.42-2.97-0.64c-3.06-0.67-6.08-1.41-9.09-2.18c-0.91-0.25-1.82-0.49-2.71-0.74c-5.11-1.39-10.15-2.96-15.13-4.67
			c-0.72-0.25-1.43-0.5-2.13-0.76c-1.03-0.37-2.07-0.74-3.09-1.13c-0.84-0.32-1.7-0.64-2.54-0.96c-0.92-0.35-1.87-0.72-2.79-1.09
			c-0.92-0.37-1.85-0.74-2.77-1.13c-4.6-1.9-9.14-3.93-13.6-6.1c-0.89-0.44-1.78-0.87-2.67-1.31c-1.81-0.91-3.63-1.85-5.43-2.81
			c-0.82-0.44-1.65-0.87-2.45-1.33c-3.46-1.88-6.89-3.87-10.25-5.93c-1.53-0.92-3.03-1.87-4.52-2.82
			c-25.04-16.07-46.97-36.54-64.7-60.35c-1.18-1.56-2.34-3.16-3.48-4.77c-0.57-0.79-1.13-1.6-1.68-2.4
			c-1.06-1.53-2.1-3.08-3.13-4.62c-0.05-0.1-0.12-0.19-0.18-0.29c-0.54-0.82-1.08-1.65-1.6-2.49c-0.59-0.89-1.14-1.78-1.7-2.69
			c-0.49-0.77-0.96-1.55-1.43-2.32c-3.58-5.92-6.92-11.98-10-18.2c-0.44-0.89-0.87-1.78-1.29-2.67c-2.15-4.47-4.17-9.01-6.05-13.63
			c-0.37-0.92-0.76-1.85-1.11-2.77c-0.71-1.8-1.39-3.6-2.07-5.41c-0.42-1.16-0.82-2.32-1.23-3.48c-0.29-0.79-0.55-1.6-0.82-2.39
			c-0.44-1.28-0.86-2.57-1.26-3.85c-0.49-1.51-0.96-3.03-1.41-4.54c-2.3-7.76-4.24-15.68-5.78-23.75c-0.17-0.87-0.34-1.75-0.5-2.64
			c-1.01-5.61-1.82-11.29-2.44-17.02c-0.15-1.29-0.29-2.6-0.4-3.92c-0.05-0.57-0.1-1.16-0.15-1.75c-0.13-1.6-0.27-3.21-0.35-4.82
			c-0.37-5.43-0.55-10.89-0.55-16.4c0-5.51,0.18-10.99,0.55-16.4c0.08-1.61,0.22-3.23,0.35-4.82c0.05-0.59,0.1-1.16,0.15-1.75
			c0.12-1.31,0.25-2.62,0.4-3.92c0.62-5.73,1.43-11.41,2.44-17.02c0.17-0.89,0.34-1.76,0.5-2.64c1.55-8.07,3.48-15.98,5.78-23.75
			c0.45-1.51,0.92-3.03,1.41-4.54c0.4-1.28,0.82-2.55,1.26-3.85c0.27-0.79,0.54-1.6,0.82-2.39c0.4-1.16,0.81-2.32,1.23-3.48
			c0.67-1.81,1.36-3.61,2.07-5.41c0.35-0.92,0.74-1.85,1.11-2.77c1.88-4.6,3.9-9.16,6.05-13.63c0.42-0.89,0.86-1.78,1.29-2.67
			c3.08-6.22,6.42-12.28,10-18.2c0.47-0.77,0.94-1.55,1.43-2.32c0.55-0.89,1.11-1.8,1.7-2.69c0.52-0.84,1.06-1.66,1.6-2.49
			c0.07-0.1,0.13-0.19,0.18-0.29c1.03-1.55,2.07-3.09,3.13-4.62c0.55-0.81,1.11-1.61,1.68-2.4c1.14-1.61,2.3-3.21,3.48-4.77
			c17.71-23.8,39.66-44.28,64.7-60.35c1.5-0.96,2.99-1.9,4.52-2.82c3.36-2.05,6.77-4.03,10.25-5.93c0.81-0.45,1.63-0.89,2.45-1.33
			c1.8-0.96,3.61-1.9,5.43-2.81c0.89-0.44,1.78-0.87,2.67-1.31c4.45-2.17,8.99-4.2,13.6-6.1c0.92-0.39,1.85-0.76,2.77-1.13
			c0.92-0.37,1.87-0.74,2.79-1.09c0.84-0.32,1.7-0.64,2.54-0.96c1.03-0.39,2.05-0.76,3.09-1.13c0.71-0.25,1.41-0.5,2.13-0.76
			c4.96-1.71,10-3.28,15.13-4.67c0.89-0.25,1.8-0.49,2.71-0.74c3.01-0.77,6.03-1.51,9.09-2.18c0.99-0.22,1.98-0.44,2.97-0.64
			c0.99-0.22,2-0.42,2.99-0.61c2.02-0.4,4.03-0.77,6.05-1.11c1.01-0.17,2.02-0.34,3.03-0.49c0.37-0.07,0.76-0.13,1.14-0.18
			c0.92-0.13,1.85-0.27,2.77-0.4c3.29-0.47,6.6-0.86,9.95-1.19c1.78-0.18,3.58-0.34,5.36-0.47c3.18-0.25,6.35-0.44,9.56-0.55
			c1.06-0.03,2.12-0.07,3.16-0.1c1.78-0.05,3.56-0.08,5.36-0.08h50.28v98.55h-49.29c-0.34,0-0.66,0-0.99,0.02
			c-16.44,0.12-32.23,2.92-46.96,8.02c-6.81,2.32-13.39,5.16-19.7,8.45c-1.06,0.52-2.08,1.08-3.13,1.66
			c-1.04,0.55-2.07,1.14-3.09,1.75c-1.03,0.57-2.03,1.18-3.04,1.81c-1.01,0.61-2,1.23-2.99,1.88c-1.06,0.69-2.1,1.38-3.14,2.08
			c-0.91,0.62-1.82,1.24-2.69,1.9c-0.96,0.67-1.9,1.36-2.84,2.08c-6.45,4.87-12.49,10.25-18.05,16.08c-0.82,0.86-1.63,1.71-2.4,2.59
			c-0.81,0.87-1.58,1.75-2.35,2.64c-0.45,0.54-0.92,1.08-1.36,1.61c-1.83,2.17-3.6,4.39-5.29,6.66c-0.69,0.92-1.36,1.85-2.03,2.79
			c-3.45,4.84-6.6,9.9-9.44,15.14c-0.57,1.04-1.13,2.08-1.66,3.14c-3.83,7.48-7.04,15.33-9.55,23.46c-0.35,1.14-0.71,2.29-1.03,3.45
			c-0.34,1.16-0.64,2.34-0.94,3.51c-0.59,2.3-1.13,4.62-1.61,6.97c-0.57,2.77-1.06,5.58-1.46,8.4c-0.3,2.07-0.55,4.13-0.77,6.23
			c-0.03,0.34-0.07,0.67-0.08,1.01C252.56,916.05,252.4,918.03,252.3,920.03z"/>
		<linearGradient id="SVGID_3_" gradientUnits="userSpaceOnUse" x1="444.0802" y1="706.0782" x2="941.7103" y2="993.3851">
			<stop  offset="0" style="stop-color:#433692"/>
			<stop  offset="1" style="stop-color:#EB2D7C"/>
		</linearGradient>
		<path class="st2" d="M984.75,682.23v98.57c-81.41,0-147.4,65.98-147.4,147.39v245.95H738.8c-135.84,0-245.95-110.13-245.95-245.95
			V627.21h-0.3v-5.08h98.55v60.1h109.46v98.55H591.4v147.4c0,81.41,66,147.39,147.4,147.39V928.19
			C738.8,792.36,848.91,682.23,984.75,682.23z"/>
		<circle class="st3" cx="1760.25" cy="1103.68" r="70.46"/>
		<linearGradient id="SVGID_4_" gradientUnits="userSpaceOnUse" x1="1248.0281" y1="1102.1086" x2="1697.9489" y2="652.1878">
			<stop  offset="0" style="stop-color:#433692"/>
			<stop  offset="1" style="stop-color:#EB2D7C"/>
		</linearGradient>
		<path class="st4" d="M1667.9,622.13v306.17c-0.03,65.78-25.88,125.51-67.96,169.62c-2.24,2.35-4.52,4.66-6.87,6.92
			c-1.9,1.83-3.81,3.65-5.78,5.43c-1.65,1.5-3.29,2.97-4.99,4.4c-0.76,0.66-1.53,1.33-2.32,1.97c-3.88,3.28-7.87,6.42-11.95,9.43
			c-2.42,1.8-4.87,3.53-7.36,5.24c-0.86,0.59-1.73,1.18-2.62,1.76c-0.86,0.57-1.7,1.13-2.55,1.68c-1.7,1.11-3.43,2.2-5.18,3.26
			c-0.87,0.54-1.75,1.06-2.62,1.58c-0.87,0.54-1.75,1.04-2.64,1.55c-0.64,0.39-1.29,0.76-1.95,1.13c-1.13,0.64-2.25,1.28-3.39,1.88
			c-0.69,0.39-1.38,0.76-2.07,1.13c-1.11,0.59-2.22,1.18-3.34,1.75c-0.91,0.47-1.83,0.94-2.74,1.39c-0.91,0.45-1.83,0.91-2.76,1.34
			c-0.92,0.45-1.87,0.89-2.79,1.33c-0.92,0.44-1.87,0.86-2.79,1.28c-0.94,0.44-1.87,0.84-2.81,1.26c-1.88,0.82-3.8,1.63-5.71,2.4
			c-1.78,0.74-3.58,1.45-5.39,2.13c-0.17,0.07-0.35,0.13-0.54,0.2c-0.91,0.34-1.81,0.67-2.72,1.01c-0.97,0.35-1.95,0.71-2.92,1.04
			c-0.97,0.34-1.97,0.67-2.94,1.01c-5.98,2-12.05,3.78-18.23,5.34c-0.94,0.22-1.87,0.45-2.81,0.67c-2.03,0.49-4.08,0.96-6.15,1.38
			c-0.91,0.2-1.82,0.39-2.74,0.57c-1.16,0.24-2.3,0.45-3.46,0.66c-1.04,0.2-2.07,0.39-3.13,0.55c-0.79,0.13-1.6,0.27-2.4,0.4
			c-3.88,0.62-7.81,1.16-11.78,1.6c-0.79,0.1-1.6,0.18-2.39,0.25c-1.34,0.15-2.69,0.27-4.03,0.39c-0.72,0.07-1.46,0.12-2.18,0.17
			c-2.08,0.17-4.17,0.3-6.27,0.4c-2.03,0.1-4.08,0.18-6.12,0.23c-2.17,0.05-4.35,0.08-6.54,0.08c-23.6,0-46.4-3.33-68-9.51
			c-1.73-0.5-3.45-1.01-5.14-1.55c-20.22-6.29-39.31-15.11-56.92-26.1c-2.52-1.58-4.99-3.19-7.45-4.84
			c-6.92-4.67-13.6-9.7-19.98-15.02c-1.16-0.97-2.32-1.95-3.46-2.94c-8.94-7.75-17.31-16.12-25.04-25.04
			c-0.99-1.14-1.97-2.3-2.94-3.46c-5.33-6.4-10.35-13.06-15.02-19.98c-1.65-2.45-3.26-4.92-4.84-7.44
			c-10.99-17.61-19.81-36.7-26.1-56.92c-0.54-1.7-1.04-3.41-1.55-5.14c-6.18-21.6-9.51-44.4-9.51-68c0-2.18,0.03-4.37,0.08-6.54
			c0.05-2.03,0.13-4.08,0.24-6.12c0.1-2.1,0.24-4.18,0.4-6.27c0.05-0.72,0.1-1.45,0.18-2.17c0.1-1.36,0.22-2.71,0.37-4.05
			c0.07-0.79,0.15-1.6,0.25-2.39c0.44-3.97,0.97-7.88,1.6-11.78c0.13-0.81,0.27-1.61,0.4-2.4c0.17-1.06,0.35-2.08,0.55-3.13
			c0.2-1.16,0.44-2.32,0.66-3.46c0.18-0.92,0.37-1.83,0.57-2.74c0.44-2.07,0.89-4.12,1.38-6.15c0.22-0.94,0.45-1.87,0.67-2.81
			c1.56-6.17,3.34-12.25,5.34-18.23c0.34-0.97,0.67-1.97,1.01-2.94c0.34-0.97,0.69-1.95,1.04-2.92c0.34-0.91,0.67-1.81,1.01-2.72
			c0.07-0.18,0.13-0.35,0.2-0.54c0.69-1.81,1.39-3.61,2.13-5.39c0.77-1.93,1.58-3.83,2.4-5.71c0.42-0.94,0.82-1.87,1.26-2.81
			c0.42-0.92,0.84-1.87,1.28-2.79c0.44-0.92,0.87-1.87,1.33-2.79c0.44-0.92,0.89-1.85,1.34-2.76c0.45-0.91,0.92-1.83,1.39-2.74
			c0.57-1.13,1.16-2.24,1.75-3.34c0.37-0.69,0.74-1.38,1.13-2.07c0.62-1.14,1.24-2.29,1.88-3.39c0.37-0.66,0.74-1.31,1.13-1.95
			c0.5-0.89,1.03-1.76,1.55-2.64c0.52-0.87,1.04-1.75,1.58-2.62c0.54-0.87,1.08-1.75,1.61-2.59c0.54-0.87,1.09-1.73,1.65-2.59
			s1.11-1.7,1.68-2.55c0.59-0.87,1.18-1.76,1.76-2.62c1.7-2.49,3.45-4.94,5.24-7.36c3.03-4.08,6.17-8.07,9.43-11.95
			c0.64-0.79,1.31-1.56,1.97-2.32c1.45-1.7,2.92-3.36,4.4-4.99c1.78-1.97,3.6-3.88,5.43-5.78c2.27-2.34,4.57-4.62,6.92-6.87
			c44.12-42.08,103.84-67.93,169.62-67.96h103.49v98.55h-103.49c-38.57,0.03-73.64,14.86-99.89,39.14
			c-0.91,0.82-1.82,1.68-2.71,2.55c-0.91,0.86-1.78,1.73-2.62,2.62c-0.82,0.81-1.61,1.63-2.37,2.47c-0.15,0.17-0.32,0.35-0.47,0.52
			c-0.72,0.74-1.39,1.5-2.05,2.25c-0.1,0.1-0.18,0.22-0.29,0.32c-0.81,0.89-1.58,1.78-2.32,2.69c-0.69,0.81-1.38,1.63-2.03,2.45
			c-0.18,0.25-0.37,0.49-0.57,0.72c-0.66,0.82-1.31,1.66-1.93,2.5c-0.05,0.07-0.1,0.13-0.15,0.18c-0.76,0.97-1.48,1.97-2.18,2.96
			c-0.69,0.94-1.36,1.9-2,2.86c-1.45,2.12-2.84,4.27-4.18,6.47c-3.92,6.37-7.33,13.07-10.22,20.05c-0.5,1.16-0.97,2.34-1.41,3.51
			c-0.91,2.3-1.75,4.64-2.5,7.01c-0.05,0.12-0.08,0.24-0.12,0.34c-0.39,1.14-0.74,2.29-1.08,3.45c-0.37,1.21-0.72,2.44-1.04,3.66
			c-0.35,1.23-0.67,2.47-0.96,3.71c-0.6,2.45-1.14,4.94-1.61,7.46c0,0.05-0.02,0.1-0.03,0.13c-0.47,2.52-0.89,5.08-1.23,7.65
			c-0.35,2.57-0.62,5.16-0.82,7.76c0,0.02,0,0.02,0,0.02c-0.32,3.93-0.49,7.92-0.49,11.93c0,11.13,1.23,21.97,3.58,32.38
			c1.39,6.25,3.19,12.35,5.36,18.28c0,0,0.02,0,0.02,0.02c1.23,3.39,2.59,6.71,4.07,9.97c1.97,4.35,4.15,8.6,6.52,12.72
			c1.18,2.07,2.4,4.08,3.68,6.07c0,0,0,0,0.02,0.02c1.9,2.99,3.93,5.9,6.05,8.74c8.49,11.34,18.57,21.43,29.91,29.91
			c2.84,2.12,5.75,4.15,8.74,6.05c0,0.02,0.02,0.02,0.02,0.02c1.98,1.28,4,2.5,6.07,3.68c4.12,2.37,8.35,4.55,12.72,6.52
			c3.26,1.48,6.57,2.84,9.97,4.07c0,0,0,0.02,0.02,0.02c5.93,2.17,12.03,3.97,18.28,5.36c10.42,2.35,21.26,3.58,32.38,3.58
			c4.02,0,8-0.17,11.93-0.49h0.02c2.6-0.2,5.19-0.47,7.76-0.82c2.57-0.34,5.13-0.76,7.65-1.23c0.05,0,0.08-0.02,0.13-0.03
			c2.52-0.47,5.01-1.01,7.46-1.61c1.24-0.29,2.49-0.6,3.71-0.96c1.23-0.32,2.45-0.67,3.66-1.04c1.16-0.34,2.3-0.69,3.45-1.08
			c0.12-0.02,0.24-0.07,0.34-0.12c2.37-0.76,4.71-1.6,7.01-2.5c1.18-0.44,2.35-0.91,3.51-1.41c6.97-2.89,13.68-6.3,20.05-10.22
			c2.2-1.33,4.35-2.72,6.47-4.18c0.96-0.64,1.92-1.31,2.86-2c0.99-0.71,1.98-1.43,2.96-2.18c0.07-0.03,0.13-0.08,0.18-0.15
			c0.84-0.62,1.68-1.28,2.5-1.93c0.24-0.18,0.47-0.37,0.72-0.57c0.82-0.66,1.65-1.34,2.45-2.03c0.91-0.74,1.8-1.51,2.69-2.32
			c0.1-0.07,0.2-0.17,0.32-0.29c0.76-0.66,1.51-1.33,2.25-2.05c0.17-0.13,0.34-0.29,0.52-0.47c0.84-0.76,1.66-1.55,2.47-2.37
			c0.89-0.84,1.76-1.71,2.62-2.62c0.87-0.89,1.73-1.8,2.55-2.71c24.28-26.25,39.11-61.32,39.14-99.89V622.13H1667.9z"/>
	</g>
	<g>
		<path class="st5" d="M908.93,1235.81l-6.38,10.57c-9.06-5.14-17.47-8.5-28.18-8.5c-13.37,0-26,7.65-26,21.09
			c0,17.34,17.58,21.8,29.88,25.49c18.22,5.08,37.54,15.63,38.56,38.43c0,19.54-15.58,39.23-43.33,39.23
			c-12.12,0-26.8-3.55-40.65-12.79l6.67-11.3c9.93,6.31,21.63,10.36,33.5,10.64h0.05h0.05c18.14,0,30.26-11.84,30.26-25.78
			c-0.28-15.82-18.28-23.48-32.68-27.25c-16.59-4.39-35.76-14.19-35.76-36.67c0-19,17.64-33.8,39.53-33.8
			C889.48,1225.16,899.54,1230.28,908.93,1235.81z"/>
		<path class="st5" d="M1073.85,1293.66c0,37.73-30.72,68.45-68.45,68.45c-37.73,0-68.45-30.72-68.45-68.45s30.72-68.45,68.45-68.45
			C1043.13,1225.21,1073.85,1255.93,1073.85,1293.66z M949.37,1293.66c0,31.02,25.02,56.03,56.03,56.03
			c31.02,0,56.03-25.01,56.03-56.03s-25.02-56.03-56.03-56.03C974.38,1237.63,949.37,1262.65,949.37,1293.66z"/>
		<path class="st5" d="M1103.82,1228.35v118.25h74.2v12.35h-86.55v-130.6H1103.82z"/>
		<path class="st5" d="M1205.42,1228.36v87.53c0,18.69,15.48,33.87,34.92,33.87s34.93-15.18,34.93-33.87v-87.53h12.35v87.53
			c0,25.54-21.33,46.23-47.28,46.23c-25.95,0-47.28-20.68-47.28-46.23v-87.53H1205.42z"/>
		<path class="st5" d="M1355.14,1228.35h13.02h47.38v12.35h-47.71v118.25h-12.35V1240.7h-47.71v-12.35H1355.14z"/>
		<path class="st5" d="M1447.92,1228.35v130.6h-12.35v-130.6H1447.92z"/>
		<path class="st5" d="M1604.74,1293.66c0,37.73-30.72,68.45-68.45,68.45s-68.45-30.72-68.45-68.45s30.72-68.45,68.45-68.45
			S1604.74,1255.93,1604.74,1293.66z M1480.25,1293.66c0,31.02,25.02,56.03,56.03,56.03c31.02,0,56.03-25.01,56.03-56.03
			s-25.02-56.03-56.03-56.03C1505.27,1237.63,1480.25,1262.65,1480.25,1293.66z"/>
		<path class="st5" d="M1634.88,1228.35l82.56,109.74v-109.74h12.35v130.6h-12.52l-82.56-110.22v110.22h-12.35v-130.6H1634.88z"/>
		<path class="st5" d="M1820.97,1235.81l-6.38,10.57c-9.06-5.14-17.47-8.5-28.18-8.5c-13.37,0-26,7.65-26,21.09
			c0,17.34,17.58,21.8,29.88,25.49c18.22,5.08,37.54,15.63,38.56,38.43c0,19.54-15.58,39.23-43.33,39.23
			c-12.12,0-26.8-3.55-40.65-12.79l6.67-11.3c9.93,6.31,21.63,10.36,33.5,10.64h0.05h0.05c18.14,0,30.26-11.84,30.26-25.78
			c-0.28-15.82-18.28-23.48-32.68-27.25c-16.59-4.39-35.76-14.19-35.76-36.67c0-19,17.64-33.8,39.53-33.8
			C1801.52,1225.16,1811.58,1230.28,1820.97,1235.81z"/>
	</g>
</g>
</svg>
