<?xml version="1.0" encoding="UTF-8"?>
<svg xmlns="http://www.w3.org/2000/svg" xmlns:xlink="http://www.w3.org/1999/xlink" width="375pt" height="374.999991pt" viewBox="0 0 375 374.999991" version="1.2">
<defs>
<clipPath id="clip1">
  <path d="M 66.035156 64.027344 L 309.035156 64.027344 L 309.035156 310.777344 L 66.035156 310.777344 Z M 66.035156 64.027344 "/>
</clipPath>
<clipPath id="clip2">
  <path d="M 151.8125 76.824219 L 223 76.824219 L 223 154.074219 L 151.8125 154.074219 Z M 151.8125 76.824219 "/>
</clipPath>
</defs>
<g id="surface1">
<g clip-path="url(#clip1)" clip-rule="nonzero">
<path style=" stroke:none;fill-rule:nonzero;fill:rgb(85.099792%,85.099792%,85.099792%);fill-opacity:1;" d="M 308.847656 115.519531 C 308.816406 115.402344 308.765625 115.296875 308.71875 115.1875 C 308.628906 114.957031 308.53125 114.734375 308.402344 114.523438 C 308.332031 114.40625 308.253906 114.300781 308.167969 114.191406 C 308.03125 114.003906 307.878906 113.835938 307.703125 113.679688 C 307.601562 113.582031 307.5 113.492188 307.386719 113.40625 C 307.324219 113.359375 307.273438 113.296875 307.207031 113.253906 C 307.058594 113.152344 306.894531 113.09375 306.734375 113.015625 C 306.652344 112.972656 306.59375 112.914062 306.507812 112.878906 L 189.078125 64.335938 C 188.082031 63.921875 186.972656 63.921875 185.976562 64.335938 L 68.546875 112.878906 C 68.460938 112.914062 68.394531 112.972656 68.316406 113.015625 C 68.15625 113.089844 67.996094 113.152344 67.847656 113.25 C 67.785156 113.292969 67.734375 113.355469 67.671875 113.402344 C 67.558594 113.488281 67.460938 113.582031 67.359375 113.675781 C 67.1875 113.832031 67.035156 114 66.894531 114.1875 C 66.808594 114.296875 66.730469 114.402344 66.660156 114.519531 C 66.527344 114.730469 66.433594 114.953125 66.34375 115.183594 C 66.296875 115.296875 66.246094 115.398438 66.214844 115.515625 C 66.121094 115.871094 66.054688 116.238281 66.054688 116.613281 L 66.054688 258.191406 C 66.054688 259.832031 67.042969 261.308594 68.554688 261.929688 L 185.984375 310.472656 C 186.035156 310.492188 186.09375 310.484375 186.144531 310.503906 C 186.59375 310.667969 187.058594 310.777344 187.535156 310.777344 C 188.011719 310.777344 188.472656 310.667969 188.925781 310.503906 C 188.976562 310.484375 189.035156 310.492188 189.085938 310.472656 L 306.515625 261.929688 C 308.027344 261.308594 309.015625 259.832031 309.015625 258.191406 L 309.015625 116.613281 C 309.015625 116.238281 308.949219 115.871094 308.847656 115.519531 Z M 187.535156 72.449219 L 294.375 116.613281 L 187.535156 160.777344 L 80.695312 116.613281 Z M 74.152344 122.667969 L 183.484375 167.859375 L 183.484375 300.679688 L 74.152344 255.492188 Z M 300.917969 255.492188 L 191.585938 300.683594 L 191.585938 167.859375 L 300.917969 122.667969 Z M 300.917969 255.492188 "/>
</g>
<g clip-path="url(#clip2)" clip-rule="nonzero">
<path style=" stroke:none;fill-rule:nonzero;fill:rgb(54.899597%,32.159424%,100%);fill-opacity:1;" d="M 151.929688 99.277344 C 182.207031 114.019531 177.394531 133.957031 169.03125 154.054688 C 178.867188 130.683594 193.527344 119.542969 222.976562 132.191406 C 194.28125 117.90625 193.242188 99.484375 204.609375 76.824219 C 194.769531 96.238281 182.753906 112.839844 151.929688 99.277344 Z M 151.929688 99.277344 "/>
</g>
</g>
</svg>
