<svg id="Layer_1" enable-background="new 0 0 511.999 511.999" height="512" viewBox="0 0 511.999 511.999" width="512" xmlns="http://www.w3.org/2000/svg"><g><g clip-rule="evenodd" fill-rule="evenodd"><path d="m453.757 214.586c22.889-30.171 19.5-42.924 5.517-59.947-47.341-57.633-78.61-49.903-104.655-26.69l21 18c-4.742 17.982-4.932 31.022-13.728 41.17-4.223 4.871-10.428 9.076-20.072 12.841-17.066 6.663-34.133 13.326-51.2 19.989-23.484-6.72-46.969-13.441-70.453-20.161-29.516-8.446-59.031-16.892-88.546-25.338l-6.323-19.558c-3.643-11.269-11.009-16.855-24.443-18.839l-85.883-14.547c20.693 49.051 27.778 60.486 55.19 74.104l73.611 36.573c19.786 9.83 29.493 18.561 36.651 39.248l31.146 90.018h105.86c-3.523-11.037-5.431-22.795-5.431-35 0-63.513 51.487-115 115-115 9.215.001 18.172 1.091 26.759 3.137z" fill="#ff5a58"/><path d="m361.891 187.12c-63.272-36.169-98.678-66.494-141.725 12.669 23.484 6.72 46.969 13.441 70.453 20.161 17.067-6.663 34.134-13.326 51.2-19.989 9.644-3.765 15.849-7.97 20.072-12.841z" fill="#ff9c9b"/><g fill="#6d91ac"><path d="m160 326.45c0-41.422-33.579-75-75-75s-75 33.579-75 75c0 41.422 33.579 75 75 75s75-33.579 75-75zm-75-35c19.33 0 35 15.67 35 35s-15.67 35-35 35-35-15.67-35-35 15.67-35 35-35z"/><path d="m407.583 253.987c-32.01 8.555-55.584 37.756-55.584 72.463 0 41.422 33.579 75 75 75 41.422 0 75-33.579 75-75 0-41.422-33.579-75-75-75-6.714 0-13.223.882-19.416 2.537zm-15.584 72.463c0-16.197 11.002-29.824 25.939-33.816 2.89-.772 5.928-1.184 9.061-1.184 19.33 0 35 15.67 35 35s-15.67 35-35 35-35-15.67-35-35z"/></g></g><g><path d="m426.999 241.45c-4.138 0-8.203.312-12.185.887l-5.208-19.438c5.66-.948 11.469-1.449 17.394-1.449 8.243 0 16.466.964 24.439 2.864 3.856.919 7.891-.526 10.285-3.684 23.225-30.613 24.557-48.867 5.278-72.339-24.882-30.29-47.775-45.854-69.99-47.58-16.642-1.297-32.668 5.176-49.046 19.773-2.154 1.919-3.374 4.676-3.347 7.562.028 2.886 1.301 5.618 3.492 7.496l16.328 13.996c-.667 2.899-1.241 5.637-1.772 8.173-1.366 6.516-2.447 11.645-4.172 15.898-2.355-1.372-4.675-2.729-6.954-4.064-33.558-19.651-60.059-35.174-87.041-27.707-17.925 4.96-33.654 19.699-49.164 46.167l-75.842-21.703-4.683-14.486c-4.82-14.912-15.113-23.062-32.388-25.64l-85.783-14.529c-3.599-.612-7.244.79-9.51 3.652-2.266 2.861-2.792 6.73-1.374 10.094 21.365 50.643 29.458 64.021 59.955 79.174l73.611 36.572c18.995 9.437 25.798 16.651 31.65 33.563l14.445 41.748h-16.025c-4.968-42.171-40.908-75-84.392-75-46.869 0-85 38.131-85 85s38.131 85 85 85c43.485 0 79.425-32.829 84.392-75h22.945l9.781 28.27c1.394 4.028 5.188 6.73 9.45 6.73h105.86c3.191 0 6.192-1.523 8.075-4.101s2.422-5.899 1.451-8.939c-3.289-10.308-4.957-21.06-4.957-31.96 0-44.989 28.443-83.454 68.289-98.372l5.211 19.449c-31.314 12.544-53.5 43.182-53.5 78.924 0 46.869 38.131 85 85 85s85-38.131 85-85-38.129-85.001-84.998-85.001zm-341.999 150c-35.841 0-65-29.159-65-65s29.159-65 65-65c32.441 0 59.405 23.89 64.23 55h-20.363c-4.561-20.014-22.491-35-43.867-35-24.813 0-45 20.187-45 45s20.187 45 45 45c21.376 0 39.305-14.986 43.867-35h20.363c-4.825 31.11-31.789 55-64.23 55zm0-55h22.907c-3.866 8.82-12.676 15-22.907 15-13.785 0-25-11.215-25-25s11.215-25 25-25c10.231 0 19.041 6.18 22.907 15h-22.907c-5.523 0-10 4.478-10 10s4.477 10 10 10zm184.834-175.336c18.829-5.209 42.118 8.426 71.601 25.689.786.46 1.584.927 2.379 1.393-1.69.825-3.551 1.637-5.631 2.449l-48.057 18.762-54.871-15.702c11.624-18.683 22.992-29.385 34.579-32.591zm53.318 95.836h-32.66c-5.522 0-10 4.478-10 10s4.478 10 10 10h21.736c-2.775 6.409-5.026 13.093-6.704 20.001h-37.529c-5.522 0-10 4.478-10 10s4.478 10 10 10h34.362c-.237 3.136-.359 6.303-.359 9.499 0 8.438.841 16.803 2.508 25h-85.816l-28.818-83.287c-8.514-24.608-21.208-34.778-41.652-44.936l-73.61-36.572c-20.657-10.263-27.953-17.953-43.176-52.218l67.75 11.476c.07.012.139.023.209.033 11.036 1.63 14.273 5.482 16.388 12.022l6.323 19.558c1.025 3.17 3.561 5.621 6.764 6.538l159 45.5c2.104.603 4.35.497 6.388-.299l51.2-19.989c29.225-11.409 32.729-28.115 36.785-47.46.886-4.226 1.803-8.596 3.047-13.316.979-3.707-.25-7.647-3.161-10.143l-11.754-10.075c8.695-5.824 16.842-8.264 25.088-7.631 16.27 1.265 35.14 14.836 56.086 40.335 4.96 6.039 8.921 10.873 8.87 17.821l-13.614-5.603c-5.112-2.104-10.952.335-13.054 5.44-2.103 5.107.334 10.952 5.44 13.054l14.234 5.859c-1.148 1.857-2.445 3.821-3.925 5.922-7.405-1.348-14.946-2.028-22.501-2.028-43.222-.001-81.388 22.054-103.845 55.499zm103.847 134.5c-35.841 0-65-29.159-65-65 0-26.491 15.939-49.317 38.723-59.431l5.266 19.654c-14.254 7.56-23.989 22.549-23.989 39.777 0 24.813 20.187 45 45 45s45-20.187 45-45-20.187-45-45-45c-.568 0-1.131.022-1.693.043l-5.269-19.665c2.289-.245 4.61-.378 6.963-.378 35.841 0 65 29.159 65 65s-29.16 65-65.001 65zm-9.659-62.412c1.197 4.468 5.237 7.415 9.653 7.415.856 0 1.728-.111 2.594-.344 5.335-1.43 8.501-6.913 7.071-12.247l-5.93-22.133c12.023 1.806 21.271 12.203 21.271 24.721 0 13.785-11.215 25-25 25s-25-11.215-25-25c0-7.895 3.682-14.942 9.415-19.527z"/><path d="m245.495 256.95h-.007c-5.523 0-9.997 4.478-9.997 10s4.481 10 10.004 10 10-4.478 10-10-4.477-10-10-10z"/></g></g></svg>