<?xml version="1.0"?>
<svg xmlns="http://www.w3.org/2000/svg" viewBox="0 0 512 512" width="512" height="512"><g id="Outline"><path d="M440,48V88h8a32.036,32.036,0,0,1,32,32V328H464V120a16.019,16.019,0,0,0-16-16h-8V328H424V48a16.019,16.019,0,0,0-16-16H104A16.019,16.019,0,0,0,88,48V328H72V104H64a16.019,16.019,0,0,0-16,16v24H32V120A32.036,32.036,0,0,1,64,88h8V48a32.036,32.036,0,0,1,32-32H408A32.036,32.036,0,0,1,440,48ZM120,48H104V64h16Zm32,16V48H136V64Zm32-16H168V64h16ZM343.869,161.447l-14.433,86.6a24,24,0,0,1,4.867,47.107,24,24,0,1,1-44.927.846H222.624A24,24,0,1,1,200,280H328a8,8,0,0,0,0-16H192a8,8,0,0,1-7.891-6.685l-16-96A8,8,0,0,1,176,152H329.441l4.142-20.707a24.07,24.07,0,0,1,19.683-18.968,24,24,0,1,1,.408,16.463,8.014,8.014,0,0,0-4.4,5.643ZM368,120a8,8,0,1,0,8-8A8.009,8.009,0,0,0,368,120ZM208,232H196.11l2.667,16H208Zm0-32H190.777l2.667,16H208Zm0-32H185.444l2.666,16H208Zm40,64H224v16h24Zm0-32H224v16h24Zm0-32H224v16h24Zm40,64H264v16h24Zm0-32H264v16h24Zm0-32H264v16h24Zm27.89,64H304v16h9.223Zm5.333-32H304v16h14.556Zm5.333-32H304v16h19.89ZM208,304a8,8,0,1,0-8,8A8.009,8.009,0,0,0,208,304Zm112,0a8,8,0,1,0-8,8A8.009,8.009,0,0,0,320,304ZM288,64V88h8a8,8,0,0,1,5,14.247l-40,32a8,8,0,0,1-10,0l-40-32A8,8,0,0,1,216,88h8V64a8,8,0,0,1,8-8h48A8,8,0,0,1,288,64Zm-12.8,38.4A7.985,7.985,0,0,1,272,96V72H240V96a7.985,7.985,0,0,1-3.2,6.4L256,117.755ZM496,368v80a8,8,0,0,1-8,8H360a8,8,0,0,1-6.074-2.794L322.035,416H221.952l-19.2,64h106.5l-13.71-45.7,15.325-4.6L325.952,480H344v16H168V480h18.048l19.2-64H64a32.036,32.036,0,0,1-32-32V160H48V344H304v16H48v24a16.019,16.019,0,0,0,16,16H308.5a24.98,24.98,0,0,1-4.5-14.277v-.752a24.971,24.971,0,0,1,42.627-17.658L352,372.687V304a24,24,0,0,1,48,0v41.371a23.979,23.979,0,0,1,24,4.755,23.958,23.958,0,0,1,32,0A23.988,23.988,0,0,1,496,368Zm-16,0a8,8,0,0,0-16,0,8,8,0,0,1-16,0,8,8,0,0,0-16,0,8,8,0,0,1-16,0,8,8,0,0,0-16,0,8,8,0,0,1-16,0V304a8,8,0,0,0-16,0v88a8,8,0,0,1-13.657,5.657l-19.029-19.029A8.97,8.97,0,0,0,320,384.971v.752a8.977,8.977,0,0,0,2.16,5.838L363.68,440H480ZM120,88H104v16h16ZM104,216h16V120H104Z"/></g></svg>
