<?xml version="1.0" standalone="no"?>
<svg
  width="600"
  height="600"
  viewBox="0 0 600 600"
  xmlns="http://www.w3.org/2000/svg"
>
  <g transform="translate(300,300)">
    <path d="M125,-160.4C159.9,-146.7,184.6,-107.3,178.8,-70.9C173.1,-34.4,137,-0.8,128.8,47.3C120.7,95.5,140.6,158.2,123.8,198.4C107,238.6,53.5,256.3,5.4,248.9C-42.7,241.5,-85.4,208.9,-112.7,172.1C-140,135.3,-151.8,94.2,-146.3,59.7C-140.8,25.1,-117.9,-2.9,-104,-30.1C-90.1,-57.3,-85,-83.7,-69.1,-103.5C-53.3,-123.4,-26.6,-136.7,9.2,-149.4C45.1,-162,90.1,-174,125,-160.4Z" fill="#FFB4BC" />
  </g>
</svg>
  