<svg width="64" height="64" viewBox="0 0 64 64" fill="none" xmlns="http://www.w3.org/2000/svg">
    <path d="M50.7226 22.0638C50.5425 21.7393 50.2263 21.5471 49.8913 21.5233C49.8805 21.5 49.7625 21.2637 49.4337 20.6026C49.1895 20.1123 48.608 19.9204 48.1368 20.1743L47.6725 20.4251L47.1954 19.5647C46.9543 19.1302 46.4598 18.9115 45.9917 19.0335L39.0138 20.8539C37.0742 21.3601 35.3478 22.4133 33.9846 23.9154C33.7334 23.8519 33.4722 23.9395 33.3023 24.15C32.9997 24.5253 32.7177 24.9245 32.4645 25.3369C32.4029 25.4369 32.347 25.5401 32.2965 25.6459C30.8436 23.2179 28.57 21.5283 25.986 20.8539L19.0078 19.0335C18.54 18.9115 18.0452 19.1302 17.8044 19.5647L17.3273 20.4251L16.8627 20.1743C16.3921 19.9204 15.8103 20.1123 15.5661 20.6026C15.5661 20.61 15.1506 21.4321 15.1085 21.5233C14.7737 21.5471 14.4573 21.739 14.2775 22.0638C13.7123 23.0803 14.0522 24.2626 14.9191 24.8258L19.9365 28.0862C20.1903 28.2511 20.5248 28.1709 20.6832 27.9063C20.8415 27.6421 20.7642 27.2937 20.5104 27.1288L15.493 23.8684C15.0987 23.612 14.9697 23.0856 15.1958 22.6647L31.958 31.7127V34.5684C31.9366 34.5546 23.5394 29.0974 22.6558 28.523C22.402 28.3581 22.0675 28.4387 21.9091 28.7029C21.7508 28.9675 21.8281 29.3155 22.0819 29.4804L27.8626 33.2371L22.3385 36.2189C21.6 36.6175 21.0798 37.3656 20.9465 38.2204C20.8475 38.8574 20.5406 39.445 20.0819 39.8782L19.2539 40.5149C18.0347 41.4523 17.6133 43.1719 18.2515 44.6032C18.4189 44.9782 18.8633 45.1129 19.1972 44.8959L31.958 36.6031V37.1636C31.958 37.4755 32.2008 37.728 32.5 37.728C32.7995 37.728 33.042 37.4755 33.042 37.1636C33.042 33.3497 33.042 31.1536 33.042 27.1662C33.042 26.725 33.1581 26.3026 33.378 25.9448C33.394 25.9181 33.4107 25.8916 33.4271 25.8652V39.9438C33.3032 39.8947 33.166 39.8947 33.042 39.9438V39.7971C33.042 39.4855 32.7995 39.2327 32.5 39.2327C32.2008 39.2327 31.958 39.4855 31.958 39.7971V40.8982C31.958 41.4288 32.5415 41.7283 32.9455 41.4085L33.2346 41.1798L33.5236 41.4085C33.9284 41.7289 34.5111 41.4279 34.5111 40.8982V37.5575L45.8029 44.8959C46.1385 45.114 46.582 44.9765 46.7485 44.6032C47.3868 43.1716 46.9653 41.4523 45.7461 40.5149L44.9182 39.8782C44.4595 39.445 44.1526 38.8571 44.0535 38.2204C43.9203 37.3656 43.4 36.6175 42.6619 36.2189L37.1375 33.2371L50.0807 24.8258C50.9448 24.2643 51.2892 23.0832 50.7226 22.0638ZM18.7444 20.1285L25.7223 21.9489C28.4695 22.6655 30.7928 24.6897 31.9578 27.3746V27.5336C29.8765 24.9016 27.0437 23.0286 23.8324 22.1908C23.5419 22.115 23.2475 22.2987 23.1749 22.6009C23.1021 22.9033 23.2785 23.2096 23.5687 23.2855C26.2618 23.988 28.6683 25.4736 30.5336 27.5539L18.2908 20.9454L18.7444 20.1285ZM16.4723 21.2349C17.8984 22.0047 30.2358 28.6644 31.958 29.5939V30.4413L16.1397 21.903L16.4723 21.2349ZM19.0809 43.6411C18.9197 42.8157 19.2257 41.9397 19.8976 41.4229C20.7952 40.7327 20.758 40.763 20.7851 40.7377C21.4389 40.131 21.8761 39.3012 22.0164 38.4012C22.0949 37.8973 22.4017 37.4561 22.8367 37.2212L28.9308 33.9317L31.4762 35.5857L19.0809 43.6411ZM39.2775 21.9489L46.2568 20.1291L46.7093 20.9451L42.5286 23.2017C42.263 23.3451 42.1591 23.6858 42.2969 23.9624C42.4346 24.239 42.7618 24.3472 43.0274 24.2038L48.5275 21.2349L48.8601 21.9027L34.5108 29.6483V28.8008L40.7821 25.4157C41.048 25.2723 41.1516 24.9316 41.0139 24.655C40.8761 24.3781 40.5489 24.2702 40.2833 24.4136L34.5108 27.5295V27.5063C36.3872 25.4357 38.7753 23.9783 41.4308 23.2855C41.7213 23.2096 41.8977 22.9033 41.8249 22.6009C41.752 22.2984 41.4579 22.115 41.1674 22.1908C38.6703 22.8422 36.3928 24.1223 34.5108 25.9219V24.9907C35.7695 23.4854 37.4136 22.4351 39.2775 21.9489ZM42.9834 38.4012C43.1234 39.3012 43.5609 40.131 44.2147 40.7377C44.2418 40.763 44.1772 40.7119 45.102 41.4229C45.7741 41.9397 46.0798 42.8157 45.9189 43.6411L34.5108 36.2274V33.0907C46.215 39.4082 40.2497 36.1886 42.1628 37.221C42.5981 37.4561 42.9049 37.8973 42.9834 38.4012ZM49.5068 23.8684L36.019 32.6336C35.446 32.3244 35.0663 32.1195 34.5108 31.8194V30.9199C35.6597 30.2997 49.1085 23.0403 49.804 22.6647C50.0301 23.0856 49.9011 23.612 49.5068 23.8684Z" fill="white"/>
</svg>