<svg width="64" height="64" viewBox="0 0 64 64" fill="none" xmlns="http://www.w3.org/2000/svg">
<path d="M29.8616 36.199L31.5695 38.0396C31.6803 38.1591 31.836 38.227 31.999 38.227C32.162 38.227 32.3176 38.1591 32.4285 38.0396L34.1363 36.199H37.1443C37.9573 36.199 38.6188 35.5383 38.6188 34.7262V29.5043C38.6188 28.6913 37.9573 28.0298 37.1443 28.0298H26.8537C26.0416 28.0298 25.3809 28.6913 25.3809 29.5043V34.7262C25.3809 35.5383 26.0416 36.199 26.8537 36.199H29.8616ZM26.5527 34.7262V29.5043C26.5527 29.3402 26.6906 29.2017 26.8537 29.2017H37.1443C37.3084 29.2017 37.447 29.3402 37.447 29.5043V34.7262C37.447 34.8893 37.3084 35.0272 37.1443 35.0272H33.8808C33.7178 35.0272 33.5621 35.0951 33.4513 35.2146L31.999 36.7796L30.5468 35.2146C30.436 35.0951 30.2804 35.0272 30.1173 35.0272H26.8538C26.6906 35.0272 26.5527 34.8893 26.5527 34.7262V34.7262Z" fill="white"/>
<path d="M35.1514 32.7014C35.4749 32.7014 35.7373 32.439 35.7373 32.1155V32.1121C35.7373 31.7886 35.4749 31.5278 35.1514 31.5278C34.8278 31.5278 34.5654 31.7919 34.5654 32.1154C34.5654 32.439 34.8278 32.7014 35.1514 32.7014V32.7014Z" fill="white"/>
<path d="M31.999 32.7014C32.3226 32.7014 32.585 32.439 32.585 32.1155V32.1121C32.585 31.7886 32.3226 31.5278 31.999 31.5278C31.6755 31.5278 31.4131 31.7919 31.4131 32.1154C31.4131 32.439 31.6755 32.7014 31.999 32.7014V32.7014Z" fill="white"/>
<path d="M28.8484 32.7014C29.1719 32.7014 29.4343 32.439 29.4343 32.1155V32.1121C29.4343 31.7886 29.1719 31.5278 28.8484 31.5278C28.5248 31.5278 28.2625 31.7919 28.2625 32.1154C28.2625 32.439 28.5248 32.7014 28.8484 32.7014V32.7014Z" fill="white"/>
<path d="M43.4318 36.5858C44.0174 35.1302 44.314 33.5906 44.314 31.9991C44.314 30.4085 44.0173 28.8693 43.4316 27.4138C44.174 27.1508 44.8551 26.7236 45.4297 26.1501C47.5184 24.0593 47.5184 20.659 45.4296 18.5701C44.4171 17.5576 43.0708 17 41.6387 17C40.2059 17 38.8601 17.5578 37.8497 18.5699C37.2756 19.1435 36.8481 19.8246 36.5851 20.5676C35.1279 19.9811 33.5885 19.684 31.9991 19.684C30.407 19.684 28.8665 19.9809 27.4103 20.5671C27.1527 19.8374 26.7329 19.1527 26.1504 18.5701C25.138 17.5576 23.7917 17 22.3596 17C20.9268 17 19.5809 17.5578 18.5706 18.5699C17.5578 19.5818 17 20.9277 17 22.3596C17 23.7913 17.5578 25.1375 18.5704 26.1503C19.1441 26.7239 19.8247 27.1511 20.5672 27.414C20.3298 28.0067 20.1378 28.6184 19.9948 29.2405C19.9224 29.5559 20.1194 29.8702 20.4348 29.9427C20.4789 29.9528 20.523 29.9577 20.5664 29.9577C20.8334 29.9577 21.0747 29.774 21.137 29.5027C21.2799 28.8806 21.4776 28.2702 21.7244 27.6817C21.9338 27.7063 22.1456 27.7203 22.3596 27.7203C23.7898 27.7203 25.136 27.1628 26.1506 26.15C27.3562 24.9433 27.8645 23.3004 27.6783 21.7251C29.0451 21.1487 30.4963 20.8558 31.9992 20.8558C33.4992 20.8558 34.9495 21.1488 36.3175 21.7256C36.293 21.9345 36.2791 22.1459 36.2791 22.3595C36.2791 23.7913 36.8369 25.1374 37.8495 26.1502C38.8621 27.1627 40.2078 27.7203 41.6387 27.7203C41.8527 27.7203 42.0644 27.7063 42.2738 27.6817C42.8495 29.0478 43.1421 30.4978 43.1421 31.9991C43.1421 33.5013 42.8496 34.9519 42.2738 36.3181C42.0644 36.2935 41.8527 36.2796 41.6387 36.2796C40.2059 36.2796 38.8601 36.8373 37.8496 37.8495C36.8369 38.8614 36.279 40.2073 36.279 41.6391C36.279 41.8531 36.293 42.0649 36.3176 42.2742C34.9514 42.8499 33.5011 43.1425 31.9991 43.1425C30.4962 43.1425 29.045 42.8496 27.6782 42.2732C27.8642 40.6978 27.356 39.0554 26.1503 37.8497C25.1378 36.8373 23.7915 36.2796 22.3595 36.2796C22.1461 36.2796 21.9349 36.2935 21.7261 36.3179C21.4788 35.7306 21.2811 35.1223 21.1384 34.5034C21.0656 34.188 20.751 33.991 20.4358 34.0641C20.1204 34.1368 19.9238 34.4513 19.9965 34.7667C20.1391 35.3853 20.3311 35.9943 20.5684 36.5851C19.8247 36.8479 19.1436 37.2754 18.5705 37.8495C17.5578 38.8616 17 40.2074 17 41.6392C17 43.0709 17.5578 44.4171 18.5704 45.4299C19.5829 46.4424 20.9285 47 22.3596 47C23.7899 47 25.1361 46.4425 26.1506 45.4297C26.7332 44.8465 27.1529 44.1614 27.4105 43.4313C28.8667 44.0175 30.4071 44.3144 31.9992 44.3144C33.5904 44.3144 35.1299 44.0178 36.5854 43.4322C36.8484 44.1751 37.2758 44.8561 37.8495 45.4299C38.862 46.4424 40.2077 47 41.6387 47C43.069 47 44.4152 46.4425 45.4297 45.4297C47.5184 43.339 47.5184 39.9386 45.4296 37.8497C44.8558 37.276 44.1747 36.8487 43.4318 36.5858V36.5858ZM22.3596 26.5485C22.0902 26.5485 21.8248 26.5226 21.5659 26.4731C21.5203 26.4572 21.4739 26.4479 21.4274 26.4436C20.9478 26.335 20.493 26.1429 20.0805 25.874C20.1683 25.1941 20.5595 24.5841 21.143 24.2166C21.5025 24.4208 21.9175 24.5381 22.3596 24.5381C22.8022 24.5381 23.2176 24.4207 23.5774 24.2163C24.1604 24.5837 24.5512 25.1939 24.6388 25.8743C23.9654 26.3126 23.1804 26.5485 22.3596 26.5485ZM21.0588 22.0637C21.0588 21.3455 21.6423 20.7613 22.3596 20.7613C23.0778 20.7613 23.6621 21.3455 23.6621 22.0637C23.6621 22.7819 23.0778 23.3662 22.3596 23.3662C21.6423 23.3662 21.0588 22.7819 21.0588 22.0637ZM25.6222 24.9864C25.3933 24.3568 24.9846 23.8015 24.4447 23.3933C24.6907 23.009 24.8339 22.5529 24.8339 22.0637C24.8339 20.6994 23.724 19.5894 22.3596 19.5894C20.9961 19.5894 19.8869 20.6994 19.8869 22.0637C19.8869 22.5529 20.0301 23.009 20.2759 23.3933C19.7357 23.8014 19.3268 24.3563 19.0976 24.9854C18.4981 24.2434 18.1718 23.3265 18.1718 22.3595C18.1718 21.2409 18.6076 20.1894 19.3994 19.3983C20.1889 18.6075 21.2401 18.1719 22.3596 18.1719C23.4787 18.1719 24.5307 18.6076 25.3218 19.3987C26.8467 20.9237 26.9464 23.3431 25.6222 24.9864ZM22.3596 45.8281C21.5378 45.8281 20.7525 45.5919 20.0796 45.1529C20.1676 44.4726 20.56 43.8631 21.1442 43.4969C21.5035 43.7007 21.9181 43.8177 22.3597 43.8177C22.8018 43.8177 23.2168 43.7006 23.5764 43.4966C24.16 43.8627 24.552 44.4724 24.6399 45.1532C23.9662 45.592 23.1809 45.8281 22.3596 45.8281V45.8281ZM21.0588 41.3434C21.0588 40.6251 21.6423 40.0409 22.3596 40.0409C23.0778 40.0409 23.6621 40.6252 23.6621 41.3434C23.6621 42.0615 23.0778 42.6458 22.3596 42.6458C21.6423 42.6458 21.0588 42.0616 21.0588 41.3434ZM25.6224 44.2658C25.3934 43.636 24.9852 43.0803 24.4449 42.6727C24.6907 42.2884 24.8339 41.8324 24.8339 41.3434C24.8339 39.979 23.724 38.869 22.3596 38.869C20.9961 38.869 19.8869 39.979 19.8869 41.3434C19.8869 41.8324 20.0301 42.2884 20.2757 42.6727C19.7352 43.0801 19.3266 43.6355 19.0974 44.2649C18.4981 43.5228 18.1719 42.6062 18.1719 41.6392C18.1719 40.5206 18.6076 39.4692 19.3994 38.678C20.189 37.8871 21.2402 37.4515 22.3596 37.4515C23.4787 37.4515 24.5306 37.8872 25.3218 38.6783C26.8466 40.2032 26.9463 42.6225 25.6224 44.2658V44.2658ZM38.3768 24.9855C37.7773 24.2434 37.451 23.3266 37.451 22.3596C37.451 21.241 37.8867 20.1895 38.6785 19.3984C39.4681 18.6075 40.5193 18.1719 41.6387 18.1719C42.7578 18.1719 43.8098 18.6076 44.6009 19.3987C46.1259 20.9237 46.2256 23.3432 44.9012 24.9866C44.6723 24.3571 44.2643 23.8011 43.7242 23.3928C43.9699 23.0086 44.1131 22.5526 44.1131 22.0637C44.1131 20.6993 43.0031 19.5893 41.6387 19.5893C40.2753 19.5893 39.1661 20.6993 39.1661 22.0637C39.1661 22.5525 39.309 23.0083 39.5546 23.3925C39.0142 23.8006 38.6059 24.3563 38.3768 24.9855ZM42.9412 22.0637C42.9412 22.7819 42.3569 23.3662 41.6387 23.3662C40.9214 23.3662 40.3379 22.7819 40.3379 22.0637C40.3379 21.3455 40.9214 20.7613 41.6387 20.7613C42.3569 20.7612 42.9412 21.3455 42.9412 22.0637ZM41.6387 26.5485C40.8174 26.5485 40.0323 26.3125 39.3596 25.8739C39.4474 25.194 39.8385 24.5842 40.4223 24.2167C40.7818 24.4208 41.1967 24.5381 41.6387 24.5381C42.0811 24.5381 42.4964 24.4208 42.8561 24.2166C43.4395 24.5843 43.8303 25.1943 43.9179 25.8743C43.2445 26.3126 42.4595 26.5485 41.6387 26.5485V26.5485ZM41.6387 45.8281C40.8173 45.8281 40.0323 45.5921 39.3596 45.1535C39.4474 44.473 39.8389 43.8632 40.4233 43.4969C40.7825 43.7007 41.1971 43.8178 41.6387 43.8178C42.0807 43.8178 42.4957 43.7007 42.8552 43.4968C43.4391 43.8634 43.8303 44.4733 43.9179 45.1539C43.2446 45.5922 42.4595 45.8281 41.6387 45.8281V45.8281ZM40.3379 41.3434C40.3379 40.6251 40.9215 40.0409 41.6387 40.0409C42.3569 40.0409 42.9412 40.6252 42.9412 41.3434C42.9412 42.0615 42.3569 42.6458 41.6387 42.6458C40.9215 42.6458 40.3379 42.0616 40.3379 41.3434ZM44.9013 44.2662C44.6724 43.6365 44.2641 43.0807 43.7238 42.673C43.9698 42.2886 44.1131 41.8326 44.1131 41.3434C44.1131 39.979 43.0031 38.869 41.6387 38.869C40.2753 38.869 39.1661 39.979 39.1661 41.3434C39.1661 41.8324 39.3092 42.2884 39.5549 42.6727C39.0144 43.0802 38.6059 43.6357 38.3767 44.2651C37.7773 43.523 37.451 42.6062 37.451 41.6392C37.451 40.5206 37.8867 39.4692 38.6785 38.678C39.4681 37.8871 40.5194 37.4515 41.6387 37.4515C42.7578 37.4515 43.8097 37.8873 44.6009 38.6783C46.1259 40.2034 46.2255 42.6228 44.9013 44.2662Z" fill="white"/>
<path d="M20.856 32.0022V31.9988C20.856 31.6752 20.5936 31.4146 20.27 31.4146C19.9465 31.4146 19.6841 31.6786 19.6841 32.0021C19.6841 32.3257 19.9465 32.5881 20.27 32.5881C20.5936 32.5881 20.856 32.3257 20.856 32.0022Z" fill="white"/>
</svg>
