<svg height="512pt" viewBox="0 0 512 512" width="512pt" xmlns="http://www.w3.org/2000/svg"><path d="m504.5 256c0 137.242188-111.257812 248.5-248.5 248.5s-248.5-111.257812-248.5-248.5 111.257812-248.5 248.5-248.5 248.5 111.257812 248.5 248.5zm0 0" fill="#ffd54f"/><path d="m57.5 256c0-128.804688 97.996094-234.714844 223.5-247.253906-8.222656-.820313-16.5625-1.246094-25-1.246094-137.242188 0-248.5 111.257812-248.5 248.5s111.257812 248.5 248.5 248.5c8.4375 0 16.777344-.425781 25-1.246094-125.503906-12.539062-223.5-118.449218-223.5-247.253906zm0 0" fill="#fabc36"/><path d="m74.554688 436.585938c.007812.011718.019531.019531.035156.03125.128906.132812.257812.269531.390625.402343 48.351562 48.351563 112.640625 74.980469 181.019531 74.980469s132.667969-26.628906 181.019531-74.980469c.132813-.132812.257813-.269531.390625-.402343.011719-.011719.023438-.019532.035156-.03125.019532-.015626.035157-.035157.050782-.054688 48.046875-48.296875 74.503906-112.378906 74.503906-180.53125 0-68.378906-26.628906-132.667969-74.980469-181.019531-.109375-.109375-.222656-.214844-.332031-.324219-.035156-.035156-.0625-.070312-.097656-.105469-.058594-.058593-.117188-.105469-.175782-.160156-48.285156-47.976563-112.316406-74.390625-180.414062-74.390625s-132.128906 26.414062-180.414062 74.390625c-.058594.054687-.117188.101563-.175782.160156-.035156.035157-.0625.070313-.097656.105469-.109375.109375-.222656.214844-.332031.324219-48.351563 48.351562-74.980469 112.640625-74.980469 181.019531 0 68.152344 26.457031 132.234375 74.503906 180.527344.015625.019531.03125.039062.050782.058594zm60.902343 28.203124c-16.058593-9.308593-31.132812-20.535156-44.921875-33.578124l15.894532-15.894532 39.25 39.25zm181.007813-259.507812 39.25-39.25 39.25 39.25-39.25 39.25zm78.5 99.714844-39.25 39.25-39.25-39.25 39.25-39.25zm-49.859375-49.855469-39.25 39.25-39.25-39.25 39.25-39.25zm-49.855469 49.855469-39.25 39.25-39.25-39.25 39.25-39.25zm-39.25-60.464844-39.25-39.25 39.25-39.25 39.25 39.25zm-10.605469 10.609375-39.25 39.25-39.25-39.25 39.25-39.25zm-89.109375-10.609375-39.25-39.25 39.25-39.25 39.25 39.25zm39.25 60.464844-39.25 39.25-39.25-39.25 39.25-39.25zm0 99.714844-39.25 39.25-39.25-39.25 39.25-39.25zm-28.640625-49.859376 39.25-39.25 39.25 39.25-39.25 39.25zm89.105469 10.609376 39.25 39.25-39.25 39.25-39.25-39.25zm10.605469-10.609376 39.25-39.25 39.25 39.25-39.25 39.25zm89.109375 10.609376 39.25 39.25-39.25 39.25-39.25-39.25zm10.605468-10.609376 39.25-39.25 39.25 39.25-39.25 39.25zm0-99.710937 39.25-39.25 39.25 39.25-39.25 39.25zm0-99.714844 39.25-39.25 39.25 39.25-39.25 39.25zm-10.605468-10.605469-39.25-39.25 39.25-39.25 39.25 39.25zm-10.609375 10.605469-39.25 39.25-39.25-39.25 39.25-39.25zm-89.105469-10.605469-39.25-39.25 39.25-39.25 39.25 39.25zm-10.605469 10.605469-39.25 39.25-39.25-39.25 39.25-39.25zm-89.109375-10.605469-39.25-39.25 39.25-39.25 39.25 39.25zm-10.605468 10.605469-39.25 39.25-39.25-39.25 39.25-39.25zm0 99.714844-39.25 39.25-39.25-39.25 39.25-39.25zm0 99.710937-39.25 39.25-39.25-39.25 39.25-39.25zm3.582031 117.34375 7.023437-7.023437 17.496094 17.496094c-8.363281-3.027344-16.542969-6.527344-24.519531-10.472657zm54.390625 19.128907-36.757813-36.757813 39.25-39.25 39.25 39.25-37.628906 37.625c-1.375-.277344-2.746094-.566406-4.113281-.867187zm52.347656 5.675781c-10.105469 0-20.117188-.621094-29.988281-1.835938l29.988281-29.992187 29.988281 29.992187c-9.871093 1.214844-19.882812 1.835938-29.988281 1.835938zm48.234375-4.808594-37.628906-37.625 39.25-39.25 39.25 39.25-36.757813 36.757813c-1.367187.300781-2.738281.589843-4.113281.867187zm33.984375-9.523437 17.496094-17.496094 7.023437 7.023437c-7.976562 3.945313-16.160156 7.445313-24.519531 10.472657zm38.324219-17.878907-10.222657-10.222656 39.25-39.25 15.894532 15.894532c-13.789063 13.042968-28.863282 24.269531-44.921875 33.578124zm55.496093-44.214843-15.863281-15.863281 39.25-39.25 9.996094 9.992187c-9.230469 16.125-20.402344 31.257813-33.382813 45.121094zm40.722657-58.992188-6.730469-6.730469 16.636719-16.632812c-2.882813 7.957031-6.191407 15.753906-9.90625 23.363281zm18.5625-53.234375-35.898438 35.898438-39.25-39.25 39.25-39.25 37.054688 37.054687c-.363281 1.855469-.75 3.703125-1.15625 5.546875zm5.675781-52.347656c0 9.578125-.566406 19.070312-1.664062 28.441406l-29.304688-29.300781 29.132812-29.132813c1.214844 9.875 1.835938 19.886719 1.835938 29.992188zm-4.808594-48.234375-36.765625 36.765625-39.25-39.25 39.25-39.25 35.390625 35.390625c.484375 2.109375.945313 4.222656 1.375 6.34375zm-19.996094-58.503906c3.515626 7.101562 6.667969 14.371093 9.453126 21.78125l-15.617188-15.617188zm-7.40625-13.804688-9.363281 9.363281-39.25-39.25 15.035157-15.035156c13.042968 13.789063 24.269531 28.863282 33.578124 44.921875zm-89.335937-88.878906c16.125 9.230469 31.257813 20.402344 45.121094 33.382813l-15.003907 15.003906-39.25-39.25zm-13.871094-7.339844-5.867187 5.867188-14.757813-14.753907c7.011719 2.632813 13.890625 5.601563 20.625 8.886719zm-51.003906-18.054687 34.527344 34.53125-39.25 39.25-39.25-39.25 36.195312-36.195313c2.605469.511719 5.195313 1.070313 7.777344 1.664063zm-54.578125-6.183594c9.578125 0 19.070312.566406 28.441406 1.664062l-28.441406 28.441407-28.441406-28.441407c9.371094-1.097656 18.863281-1.664062 28.441406-1.664062zm-46.800781 4.519531 36.195312 36.195313-39.25 39.25-39.25-39.25 34.527344-34.53125c2.582031-.59375 5.171875-1.152344 7.777344-1.664063zm-38.15625 10.832031-14.757813 14.753907-5.863281-5.867188c6.730469-3.285156 13.609375-6.253906 20.621094-8.886719zm-34.496094 16.226563 9.132813 9.136719-39.25 39.25-15.003907-15.003906c13.863281-12.980469 28.996094-24.152344 45.121094-33.382813zm-55.757813 43.957031 15.035157 15.035156-39.25 39.25-9.359375-9.359374c9.304687-16.0625 20.53125-31.136719 33.574218-44.925782zm-40.984374 58.726563 6.164062 6.164062-15.617188 15.617188c2.785157-7.410157 5.9375-14.679688 9.453126-21.78125zm-18.621094 52.160156 35.390625-35.390625 39.25 39.25-39.25 39.25-36.765625-36.765625c.429687-2.121094.890625-4.234375 1.375-6.34375zm-6.183594 54.578125c0-10.105469.621094-20.117188 1.835938-29.988281l29.128906 29.128906-29.304688 29.300781c-1.09375-9.371094-1.660156-18.863281-1.660156-28.441406zm4.519531 46.800781 37.054688-37.054687 39.25 39.25-39.25 39.25-35.898438-35.898438c-.40625-1.84375-.792969-3.691406-1.15625-5.546875zm19.71875 58.78125c-3.714843-7.609375-7.023437-15.402343-9.90625-23.363281l16.636719 16.632812zm17.335938 3.878907 39.25 39.25-15.863281 15.863281c-12.980469-13.863281-24.152344-28.996094-33.382813-45.121094zm0 0"/></svg>