<svg viewBox="0 0 512 512" xmlns="http://www.w3.org/2000/svg"><path d="m504.5 256c0 137.242188-111.257812 248.5-248.5 248.5s-248.5-111.257812-248.5-248.5 111.257812-248.5 248.5-248.5 248.5 111.257812 248.5 248.5zm0 0" fill="#f5b96e"/><path d="m37.5 256c0-132.203125 103.242188-240.277344 233.5-248.035156-4.964844-.296875-9.960938-.464844-15-.464844-137.242188 0-248.5 111.257812-248.5 248.5s111.257812 248.5 248.5 248.5c5.039062 0 10.035156-.167969 15-.464844-130.257812-7.757812-233.5-115.832031-233.5-248.035156zm0 0" fill="#e8af68"/><g fill="#dca663"><path d="m132.042969 91.890625v40.148437h-40.152344c11.460937-15.152343 24.996094-28.6875 40.152344-40.148437zm0 0"/><path d="m241.914062 50.824219v81.214843h-81.699218v-58.054687c24.6875-13.039063 52.355468-21.1875 81.699218-23.160156zm0 0"/><path d="m351.785156 73.960938v58.078124h-81.699218v-81.222656c29.355468 1.980469 57.011718 10.128906 81.699218 23.144532zm0 0"/><path d="m420.109375 132.042969h-40.148437v-40.152344c15.152343 11.460937 28.6875 24.996094 40.148437 40.152344zm0 0"/><path d="m132.042969 160.214844v81.699218h-81.226563c1.980469-29.355468 10.128906-57.011718 23.144532-81.699218zm0 0"/><path d="m160.214844 160.214844h81.699218v81.699218h-81.699218zm0 0"/><path d="m270.085938 160.214844h81.699218v81.699218h-81.699218zm0 0"/><path d="m461.183594 241.914062h-81.226563v-81.699218h58.082031c13.015626 24.6875 21.164063 52.34375 23.144532 81.699218zm0 0"/><path d="m132.042969 270.085938v81.699218h-58.082031c-13.015626-24.6875-21.160157-52.34375-23.144532-81.699218zm0 0"/><path d="m160.214844 270.085938h81.699218v81.699218h-81.699218zm0 0"/><path d="m270.085938 270.085938h81.699218v81.699218h-81.699218zm0 0"/><path d="m461.183594 270.085938c-1.980469 29.355468-10.128906 57.007812-23.144532 81.699218h-58.078124v-81.699218zm0 0"/><path d="m132.042969 379.957031v40.152344c-15.15625-11.460937-28.691407-24.996094-40.152344-40.152344zm0 0"/><path d="m241.914062 379.957031v81.226563c-29.355468-1.980469-57.011718-10.128906-81.699218-23.144532v-58.078124h81.699218zm0 0"/><path d="m351.785156 379.957031v58.082031c-24.6875 13.015626-52.34375 21.160157-81.699218 23.144532v-81.226563zm0 0"/><path d="m420.109375 379.957031c-11.460937 15.15625-24.996094 28.691407-40.148437 40.152344v-40.152344zm0 0"/></g><path d="m15 256c0-132.886719 108.113281-241 241-241 59.335938 0 116.347656 21.753906 160.542969 61.253906 3.089843 2.765625 7.828125 2.492188 10.589843-.59375 2.761719-3.085937 2.496094-7.828125-.59375-10.589844-46.945312-41.960937-107.511718-65.070312-170.539062-65.070312-68.378906 0-132.667969 26.628906-181.019531 74.980469-48.351563 48.351562-74.980469 112.640625-74.980469 181.019531 0 62.273438 22.625 122.292969 63.707031 169 1.484375 1.6875 3.554688 2.546875 5.636719 2.546875 1.757812 0 3.523438-.613281 4.949219-1.867187 3.109375-2.734376 3.414062-7.476563.679687-10.585938-38.675781-43.96875-59.972656-100.46875-59.972656-159.09375zm0 0"/><path d="m446.933594 85.464844c-2.761719-3.085938-7.503906-3.355469-10.589844-.59375-3.089844 2.761718-3.355469 7.5-.597656 10.589844 39.5 44.195312 61.253906 101.207031 61.253906 160.539062 0 132.886719-108.113281 241-241 241-59.496094 0-116.625-21.859375-160.871094-61.550781-3.082031-2.765625-7.824218-2.507813-10.589844.578125-2.765624 3.082031-2.507812 7.824218.574219 10.589844 47 42.164062 107.6875 65.382812 170.886719 65.382812 68.378906 0 132.667969-26.628906 181.019531-74.980469 48.351563-48.351562 74.980469-112.640625 74.980469-181.019531 0-63.023438-23.109375-123.589844-65.066406-170.535156zm0 0"/><path d="m139.542969 91.890625c0-2.84375-1.613281-5.445313-4.160157-6.714844-2.546874-1.265625-5.59375-.984375-7.863281.730469-15.722656 11.890625-29.722656 25.890625-41.609375 41.613281-1.71875 2.269531-2 5.316407-.734375 7.863281 1.269531 2.546876 3.871094 4.15625 6.714844 4.15625h40.152344c4.140625 0 7.5-3.355468 7.5-7.5zm-15 32.652344h-16.816407c5.265626-5.9375 10.878907-11.554688 16.816407-16.816407zm0 0"/><path d="m249.414062 50.824219c0-2.074219-.859374-4.058594-2.378906-5.476563-1.515625-1.417968-3.554687-2.136718-5.625-2.003906-29.828125 2.003906-58.324218 10.082031-84.695312 24.007812-2.460938 1.300782-4 3.851563-4 6.632813v58.058594c0 4.140625 3.359375 7.5 7.5 7.5h81.699218c4.144532 0 7.5-3.359375 7.5-7.5zm-15 73.71875h-66.699218v-45.980469c20.984375-10.488281 43.371094-17.046875 66.699218-19.554688zm0 0"/><path d="m359.285156 73.960938c0-2.78125-1.539062-5.335938-4.003906-6.636719-26.378906-13.90625-54.875-21.976563-84.6875-23.992188-2.074219-.128906-4.113281.585938-5.628906 2.003907-1.519532 1.417968-2.378906 3.402343-2.378906 5.476562v81.230469c0 4.140625 3.355468 7.5 7.5 7.5h81.699218c4.144532 0 7.5-3.359375 7.5-7.5zm-15 50.582031h-66.699218v-65.546875c23.320312 2.515625 45.707031 9.074218 66.699218 19.546875zm0 0"/><path d="m379.957031 139.542969h40.152344.019531c4.144532 0 7.5-3.359375 7.5-7.5 0-1.878907-.691406-3.597657-1.832031-4.910157-11.824219-15.566406-25.722656-29.433593-41.316406-41.226562-2.269531-1.714844-5.316407-1.996094-7.863281-.730469-2.546876 1.269531-4.15625 3.871094-4.15625 6.714844v40.152344c-.003907 4.140625 3.355468 7.5 7.496093 7.5zm7.5-31.816407c5.9375 5.265626 11.554688 10.878907 16.816407 16.816407h-16.816407zm0 0"/><path d="m139.542969 160.214844c0-4.144532-3.359375-7.5-7.5-7.5h-58.082031c-2.78125 0-5.335938 1.539062-6.632813 4.003906-13.90625 26.378906-21.980469 54.875-23.996094 84.6875-.140625 2.074219.585938 4.113281 2.003907 5.628906 1.417968 1.519532 3.402343 2.378906 5.480468 2.378906h81.226563c4.140625 0 7.5-3.355468 7.5-7.5zm-15 74.199218h-65.542969c2.511719-23.320312 9.070312-45.707031 19.542969-66.699218h46zm0 0"/><path d="m249.414062 160.214844c0-4.144532-3.359374-7.5-7.5-7.5h-81.699218c-4.144532 0-7.5 3.355468-7.5 7.5v81.699218c0 4.144532 3.355468 7.5 7.5 7.5h81.699218c4.140626 0 7.5-3.355468 7.5-7.5zm-15 74.199218h-66.699218v-66.699218h66.699218zm0 0"/><path d="m359.285156 160.214844c0-4.144532-3.355468-7.5-7.5-7.5h-81.699218c-4.144532 0-7.5 3.355468-7.5 7.5v81.699218c0 4.144532 3.355468 7.5 7.5 7.5h81.699218c4.144532 0 7.5-3.355468 7.5-7.5zm-15 74.199218h-66.699218v-66.699218h66.699218zm0 0"/><path d="m468.628906 240.84375c-2.078125-29.609375-10.136718-57.914062-23.953125-84.125-1.300781-2.464844-3.855469-4.003906-6.636719-4.003906h-58.082031c-4.140625 0-7.5 3.355468-7.5 7.5v81.699218c0 4.144532 3.359375 7.5 7.5 7.5h81.230469.019531c4.140625 0 7.5-3.355468 7.5-7.5-.003906-.363281-.027343-.722656-.078125-1.070312zm-81.171875-6.429688v-66.699218h46c10.472657 20.992187 17.03125 43.378906 19.546875 66.699218zm0 0"/><path d="m139.542969 270.085938c0-4.144532-3.359375-7.5-7.5-7.5h-81.226563c-2.078125 0-4.0625.859374-5.480468 2.378906-1.417969 1.515625-2.144532 3.554687-2.003907 5.628906 2.015625 29.8125 10.085938 58.308594 23.996094 84.6875 1.296875 2.464844 3.851563 4.003906 6.632813 4.003906h58.082031c4.140625 0 7.5-3.355468 7.5-7.5zm-15 74.199218h-46c-10.472657-20.992187-17.03125-43.378906-19.542969-66.699218h65.539062v66.699218zm0 0"/><path d="m249.414062 270.085938c0-4.144532-3.359374-7.5-7.5-7.5h-81.699218c-4.144532 0-7.5 3.355468-7.5 7.5v81.699218c0 4.144532 3.355468 7.5 7.5 7.5h81.699218c4.140626 0 7.5-3.355468 7.5-7.5zm-15 74.199218h-66.699218v-66.699218h66.699218zm0 0"/><path d="m359.285156 270.085938c0-4.144532-3.355468-7.5-7.5-7.5h-81.699218c-4.144532 0-7.5 3.355468-7.5 7.5v81.699218c0 4.144532 3.355468 7.5 7.5 7.5h81.699218c4.144532 0 7.5-3.355468 7.5-7.5zm-15 74.199218h-66.699218v-66.699218h66.699218zm0 0"/><path d="m444.675781 355.28125c13.90625-26.378906 21.976563-54.875 23.992188-84.6875.140625-2.074219-.585938-4.113281-2.003907-5.628906-1.417968-1.519532-3.402343-2.378906-5.476562-2.378906h-81.230469c-4.140625 0-7.5 3.355468-7.5 7.5v81.699218c0 4.144532 3.359375 7.5 7.5 7.5h58.082031c2.78125 0 5.335938-1.539062 6.636719-4.003906zm-57.21875-10.996094v-66.699218h65.546875c-2.515625 23.320312-9.074218 45.707031-19.546875 66.699218zm0 0"/><path d="m132.042969 372.457031h-40.152344c-2.847656 0-5.449219 1.613281-6.714844 4.160157-1.269531 2.546874-.984375 5.59375.730469 7.863281 11.890625 15.722656 25.890625 29.722656 41.609375 41.609375 1.328125 1.003906 2.921875 1.519531 4.523437 1.519531 1.140626 0 2.285157-.257813 3.34375-.785156 2.546876-1.269531 4.15625-3.871094 4.15625-6.714844v-40.152344c.003907-4.140625-3.355468-7.5-7.496093-7.5zm-7.5 31.816407c-5.9375-5.265626-11.550781-10.878907-16.816407-16.816407h16.816407zm0 0"/><path d="m241.914062 372.457031h-81.699218c-4.144532 0-7.5 3.359375-7.5 7.5v58.082031c0 2.78125 1.539062 5.335938 4.003906 6.636719 26.382812 13.90625 54.875 21.976563 84.6875 23.992188.171875.011719.339844.019531.507812.019531 1.894532 0 3.726563-.71875 5.121094-2.023438 1.515625-1.417968 2.378906-3.402343 2.378906-5.476562v-81.230469c0-4.140625-3.359374-7.5-7.5-7.5zm-7.5 80.546875c-23.320312-2.515625-45.703124-9.074218-66.699218-19.546875v-46h66.699218zm0 0"/><path d="m351.785156 372.457031h-81.699218c-4.144532 0-7.5 3.359375-7.5 7.5v81.230469c0 2.074219.859374 4.058594 2.378906 5.476562 1.394531 1.304688 3.226562 2.023438 5.121094 2.023438.167968 0 .335937-.007812.507812-.019531 29.8125-2.015625 58.304688-10.085938 84.6875-23.992188 2.464844-1.300781 4.003906-3.855469 4.003906-6.636719v-58.082031c0-4.140625-3.355468-7.5-7.5-7.5zm-7.5 61c-20.996094 10.472657-43.378906 17.03125-66.699218 19.546875v-65.546875h66.699218zm0 0"/><path d="m420.109375 372.457031h-40.152344c-4.140625 0-7.5 3.359375-7.5 7.5v40.152344c0 2.84375 1.613281 5.445313 4.160157 6.714844 1.058593.527343 2.199218.785156 3.339843.785156 1.605469 0 3.195313-.515625 4.523438-1.519531 15.722656-11.886719 29.722656-25.886719 41.609375-41.609375 1.71875-2.269531 2-5.316407.734375-7.863281-1.269531-2.546876-3.871094-4.160157-6.714844-4.160157zm-32.652344 31.816407v-16.816407h16.816407c-5.261719 5.9375-10.878907 11.554688-16.816407 16.816407zm0 0"/></svg>