<svg xmlns="http://www.w3.org/2000/svg" height="50pt" version="1.1" viewBox="0 -124 933.74778 933" width="50pt">
<g id="surface1">
<path d="M 918.1875 560.625 L 887.066406 560.625 L 887.066406 78.183594 C 887.011719 35.230469 852.199219 0.421875 809.253906 0.375 L 124.503906 0.375 C 81.546875 0.421875 46.730469 35.230469 46.6875 78.183594 L 46.6875 560.625 L 15.5625 560.625 C 6.96875 560.625 0 567.59375 0 576.1875 L 0 622.875 C 0 657.25 27.863281 685.128906 62.25 685.128906 L 871.503906 685.128906 C 905.878906 685.128906 933.746094 657.25 933.746094 622.875 L 933.746094 576.1875 C 933.746094 567.59375 926.785156 560.625 918.1875 560.625 Z M 77.8125 78.183594 C 77.8125 52.398438 98.707031 31.496094 124.503906 31.496094 L 809.253906 31.496094 C 835.035156 31.496094 855.9375 52.398438 855.9375 78.183594 L 855.9375 560.625 L 824.816406 560.625 L 824.816406 78.183594 C 824.816406 69.589844 817.847656 62.621094 809.253906 62.621094 L 124.503906 62.621094 C 115.910156 62.621094 108.941406 69.589844 108.941406 78.183594 L 108.941406 560.625 L 77.8125 560.625 Z M 793.683594 93.746094 L 793.683594 560.625 L 562.085938 560.625 C 545.511719 560.566406 530.34375 569.9375 522.996094 584.785156 C 520.863281 589.070312 516.496094 591.765625 511.722656 591.746094 L 422.023438 591.746094 C 417.246094 591.765625 412.878906 589.070312 410.761719 584.785156 C 403.398438 569.9375 388.238281 560.566406 371.660156 560.625 L 140.0625 560.625 L 140.0625 93.746094 Z M 902.625 622.875 C 902.625 640.058594 888.695312 653.996094 871.503906 653.996094 L 62.25 653.996094 C 45.054688 653.996094 31.121094 640.058594 31.121094 622.875 L 31.121094 591.746094 L 371.660156 591.746094 C 376.433594 591.722656 380.800781 594.421875 382.933594 598.699219 C 390.28125 613.550781 405.449219 622.921875 422.023438 622.875 L 511.722656 622.875 C 528.300781 622.921875 543.460938 613.550781 550.824219 598.699219 C 552.941406 594.421875 557.308594 591.722656 562.085938 591.746094 L 902.625 591.746094 Z M 902.625 622.875 " style=" stroke:none;fill-rule:nonzero;fill:rgb(0%,0%,0%);fill-opacity:1;" />
<path d="M 292.574219 498.371094 L 641.335938 498.371094 C 652.625 498.371094 663.03125 492.257812 668.523438 482.386719 C 674.007812 472.519531 673.734375 460.453125 667.78125 450.855469 L 493.488281 169.171875 C 487.808594 160.019531 477.804688 154.441406 467.03125 154.441406 C 456.25 154.441406 446.246094 160.019531 440.566406 169.171875 L 266.183594 450.855469 C 260.242188 460.449219 259.949219 472.5 265.429688 482.363281 C 270.910156 492.230469 281.296875 498.347656 292.574219 498.371094 Z M 466.875 185.566406 L 641.246094 467.246094 L 292.574219 467.246094 Z M 466.875 185.566406 " style=" stroke:none;fill-rule:nonzero;fill:rgb(0%,0%,0%);fill-opacity:1;" />
<path d="M 451.3125 280.5 L 482.4375 280.5 L 482.4375 373.871094 L 451.3125 373.871094 Z M 451.3125 280.5 " style=" stroke:none;fill-rule:nonzero;fill:rgb(0%,0%,0%);fill-opacity:1;" />
<path d="M 451.3125 405 L 482.4375 405 L 482.4375 436.125 L 451.3125 436.125 Z M 451.3125 405 " style=" stroke:none;fill-rule:nonzero;fill:rgb(0%,0%,0%);fill-opacity:1;" />
</g>
</svg>