<svg id="Capa_1" enable-background="new 0 0 512 512" height="512" viewBox="0 0 512 512" width="512" xmlns="http://www.w3.org/2000/svg"><g><g><path d="m355.452 7.5h99.385c18.299 0 33.133 14.834 33.133 33.133v66.267c0 18.299-14.834 33.133-33.133 33.133h-13.791c-1.792 0-3.536.581-4.97 1.657l-50.804 38.103c-5.461 4.096-13.253.199-13.253-6.627v-24.85c0-4.575-3.709-8.283-8.283-8.283h-8.283c-18.299 0-33.133-14.834-33.133-33.133v-66.267c-.002-18.299 14.833-33.133 33.132-33.133z" fill="#edf6ff"/><g fill="#d8e2f3"><path d="m454.837 7.5h-23c18.299 0 33.133 14.834 33.133 33.133v66.267c0 18.299-14.834 33.134-33.133 33.134h23c18.299 0 33.133-14.834 33.133-33.134v-66.267c0-18.299-14.834-33.133-33.133-33.133z"/><path d="m413.076 141.69-41.058 30.794v.683c0 6.826 7.793 10.722 13.253 6.627l50.804-38.104c1.434-1.075 3.178-1.656 4.97-1.656h-23c-1.791 0-3.535.581-4.969 1.656z"/></g><g><path d="m255.903 305.534h16.558c36.575 0 66.225 29.65 66.225 66.226l.002 124.462c0 4.572-3.706 8.279-8.279 8.279h-314.585c-4.572 0-8.279-3.707-8.279-8.279v-124.46c0-36.575 29.65-66.225 66.226-66.225l16.558-.002h165.574z" fill="#c9dbfd"/><g><path d="m189.674 404.876 16.557 99.624h-66.229l16.557-99.624v-6.84h33.17z" fill="#c1e3a0"/><path d="m189.674 404.876.055-6.84h-23l-.055 6.84 16.557 99.624h23z" fill="#a8d4a4"/></g><path d="m338.687 371.759c0-36.575-29.65-66.226-66.225-66.226h-16.559-6.422c36.567.01 66.206 29.656 66.206 66.225l.002 124.462c0 4.572-3.706 8.279-8.279 8.279h23c4.572 0 8.279-3.706 8.279-8.279z" fill="#aecafc"/><path d="m206.231 377.283-16.557 27.593h-33.115l-16.557-27.594v-35.246l33.114 13.171 33.115-13.171z" fill="#c1e3a0"/><path d="m189.78 348.58.002 17.737-23.137 38.559h23.029l16.557-27.593v-35.247z" fill="#a8d4a4"/><path d="m131.722 240.705h82.787v114.503h-82.787z" fill="#f6e2c1"/><path d="m191.51 240.706h23v114.502h-23z" fill="#f2d0ac"/><path d="m131.722 288.973-41.393 16.561 29.327 73.313c1.953 4.882 7.903 6.73 12.278 3.814l41.181-27.453z" fill="#edf6ff"/><path d="m214.51 288.973 41.393 16.561-29.327 73.313c-1.953 4.882-7.903 6.73-12.278 3.814l-41.181-27.453z" fill="#edf6ff"/><g><path d="m255.903 106.846h16.557c9.144 0 16.557 7.413 16.557 16.557v33.115c0 9.144-7.413 16.557-16.557 16.557h-16.557-165.573-16.557c-9.144 0-16.557-7.413-16.557-16.557v-33.115c0-9.144 7.413-16.557 16.557-16.557h16.557z" fill="#f6e2c1"/><path d="m173.117 10.5-82.786 74.788.001 87.788c0 45.721 37.064 82.786 82.786 82.786s82.786-37.064 82.786-82.786v-87.788z" fill="#f6e2c1"/><path d="m232.903 64.51v108.566c0 41.817-31.011 76.372-71.286 81.973 3.761.523 7.596.813 11.5.813 45.721 0 82.786-37.064 82.786-82.786l.001-87.788z" fill="#f2d0ac"/><path d="m214.509 7.5h-82.785c-22.861 0-41.394 18.533-41.394 41.394l.001 41.394h16.555c9.144 0 16.557-7.413 16.557-16.558v-16.558h99.345v16.558c0 9.145 7.413 16.558 16.558 16.558h16.557v-41.394c0-22.861-18.533-41.394-41.394-41.394z" fill="#817d84"/><path d="m214.509 7.5h-23c22.861 0 41.394 18.533 41.394 41.394v40.093c1.98.837 4.158 1.3 6.443 1.3h16.557v-41.393c0-22.861-18.533-41.394-41.394-41.394z" fill="#756e79"/></g><path d="m232.025 295.98-31.107 77.76 13.38 8.919c4.375 2.917 10.326 1.068 12.279-3.814l29.327-73.313z" fill="#d8e2f3"/></g><g><path d="m256.07 504.492h-173.901c-4.573 0-8.281-3.709-8.281-8.283v-16.567c0-4.575 3.708-8.283 8.281-8.283h173.901z" fill="#756e79"/><path d="m487.938 471.359c9.147 0 16.562-7.417 16.562-16.567v-182.225c0-9.15-7.415-16.567-16.562-16.567h-231.868c-9.147 0-16.562 7.417-16.562 16.567v182.226c0 9.15 7.415 16.567 16.562 16.567v5h231.868z" fill="#817d84"/><path d="m487.938 256h-23c9.147 0 16.562 7.417 16.562 16.567v182.226c0 9.15-7.415 16.567-16.562 16.567v5h23v-5c9.147 0 16.562-7.417 16.562-16.567v-182.226c0-9.15-7.415-16.567-16.562-16.567z" fill="#756e79"/><path d="m496.5 504.492h-248.992c-4.418 0-8-3.582-8-8v-17.133c0-4.418 3.582-8 8-8h248.992c4.418 0 8 3.582 8 8v17.133c0 4.419-3.582 8-8 8z" fill="#817d84"/><path d="m496.5 471.359h-22.933c4.418 0 8 3.582 8 8v17.133c0 4.418-3.582 8-8 8h22.933c4.418 0 8-3.582 8-8v-17.133c0-4.418-3.582-8-8-8z" fill="#756e79"/></g></g><g><path d="m147.493 140.033v-8.282c0-4.143-3.358-7.5-7.5-7.5s-7.5 3.357-7.5 7.5v8.282c0 4.143 3.358 7.5 7.5 7.5s7.5-3.357 7.5-7.5z"/><path d="m206.242 147.533c4.142 0 7.5-3.357 7.5-7.5v-8.282c0-4.143-3.358-7.5-7.5-7.5s-7.5 3.357-7.5 7.5v8.282c0 4.143 3.358 7.5 7.5 7.5z"/><path d="m201.126 187.28c2.074-3.586.849-8.174-2.736-10.248-3.585-2.071-8.174-.85-10.248 2.736-3.096 5.352-8.854 8.677-15.025 8.677-6.172 0-11.93-3.325-15.027-8.679-2.074-3.586-6.661-4.81-10.247-2.737-3.586 2.074-4.811 6.662-2.737 10.247 5.769 9.974 16.502 16.169 28.011 16.169s22.241-6.194 28.009-16.165z"/><path d="m512 272.566c0-13.271-10.794-24.066-24.062-24.066h-183.92c-4.142 0-7.5 3.357-7.5 7.5s3.358 7.5 7.5 7.5h183.92c4.997 0 9.062 4.067 9.062 9.066v182.226c0 5-4.065 9.067-9.062 9.067h-231.868c-4.997 0-9.062-4.067-9.062-9.067v-182.226c0-4.999 4.066-9.066 9.062-9.066h17.947c4.142 0 7.5-3.357 7.5-7.5s-3.358-7.5-7.5-7.5h-17.947c-13.268 0-24.062 10.796-24.062 24.066v15.485l-9.985-3.996v-34.978c22.916-14.823 38.723-39.737 41.091-68.407h9.376c13.268 0 24.062-10.796 24.062-24.066v-33.135c0-13.271-10.794-24.067-24.062-24.067h-9.062v-50.485c0-26.973-21.939-48.917-48.905-48.917h-82.809c-26.967 0-48.906 21.944-48.906 48.917v50.484h-9.062c-13.268 0-24.062 10.796-24.062 24.066v33.134c0 13.271 10.794 24.067 24.062 24.067h9.377c2.367 28.669 18.173 53.584 41.089 68.407v34.979l-35.35 14.147-15.118.002c-40.662.001-73.744 33.091-73.744 73.764v57.739c0 4.143 3.358 7.5 7.5 7.5s7.5-3.357 7.5-7.5v-57.739c0-32.402 26.353-58.763 58.745-58.763l11.484-.001 27.449 68.638c1.775 4.437 5.41 7.795 9.973 9.212 1.544.479 3.126.716 4.698.716 3.073 0 6.106-.903 8.736-2.656l1.525-1.017 11.095 18.496-9.542 57.268h-56.993c-8.702 0-15.781 7.08-15.781 15.783v16.566c0 .267.027.527.04.791h-50.648c-.431 0-.781-.352-.781-.783v-36.511c0-4.143-3.358-7.5-7.5-7.5s-7.5 3.357-7.5 7.5v36.511c0 8.703 7.079 15.783 15.781 15.783l480.719-.008c8.547 0 15.5-6.953 15.5-15.5v-17.133c0-4.18-1.671-7.972-4.37-10.763 2.749-3.911 4.37-8.671 4.37-13.805zm-304.926 191.293-9.542-57.268 11.095-18.495 1.524 1.016c2.63 1.753 5.663 2.656 8.736 2.656 1.571 0 3.154-.236 4.698-.716 3.495-1.085 6.437-3.316 8.424-6.292v70.031c0 3.207.635 6.267 1.779 9.067h-26.714zm24.934-118.544-12.379 30.955c-.034.086-.139.347-.494.457-.355.112-.587-.045-.663-.096l-35.136-23.429 34.225-54.777 14.448 5.781v41.109zm40.482-230.913c4.997 0 9.062 4.067 9.062 9.067v33.135c0 4.999-4.065 9.066-9.062 9.066h-9.062v-51.268zm-140.776-99.402h82.809c18.695 0 33.905 15.215 33.905 33.917v33.917h-9.061c-4.997 0-9.062-4.067-9.062-9.066v-9.068h.783c4.142 0 7.5-3.357 7.5-7.5s-3.358-7.5-7.5-7.5h-115.937c-4.142 0-7.5 3.357-7.5 7.5s3.358 7.5 7.5 7.5h.78v9.067c0 4.999-4.065 9.066-9.062 9.066h-9.06v-33.917c-.001-18.701 15.209-33.916 33.905-33.916zm-67.03 141.602v-33.134c0-4.999 4.065-9.066 9.062-9.066h9.062v51.268h-9.063c-4.995-.001-9.061-4.068-9.061-9.068zm33.125 16.568-.001-75.336h9.06c13.268 0 24.062-10.796 24.062-24.066v-9.068h84.372v9.067c0 13.271 10.795 24.066 24.062 24.066h9.061v75.336c0 41.538-33.784 75.332-75.309 75.332s-75.307-33.793-75.307-75.331zm75.309 90.332c11.986 0 23.43-2.353 33.905-6.613v30.094l-33.905 54.267-33.906-54.268v-30.093c10.475 4.259 21.92 6.613 33.906 6.613zm-46.018 113.226c-.355-.11-.46-.371-.494-.457l-26.551-66.392 28.62-11.453 34.224 54.777-35.136 23.429c-.076.051-.307.207-.663.096zm46.018-12.31 23.015 15.347-10.699 17.836h-24.63l-10.699-17.837zm-10.208 48.183h20.417l8.54 51.259h-37.498zm-81.522 67.042c0-.432.351-.783.781-.783h149.864c-.005.167-.025.331-.025.5v17.133c0 .169.02.333.025.5h-149.863c-.431 0-.781-.352-.781-.783v-16.567zm415.612 16.849c0 .275-.224.5-.5.5h-240.43-8.562c-.276 0-.5-.225-.5-.5v-17.133c0-.275.224-.5.5-.5h8.562 231.868 8.562c.276 0 .5.225.5.5z"/><path d="m281.694 413.666c0 8.547 6.953 15.5 15.5 15.5h149.62c8.547 0 15.5-6.953 15.5-15.5v-99.966c0-8.547-6.953-15.5-15.5-15.5h-149.62c-8.547 0-15.5 6.953-15.5 15.5zm15-99.966c0-.275.224-.5.5-.5h149.62c.276 0 .5.225.5.5v99.966c0 .275-.224.5-.5.5h-149.62c-.276 0-.5-.225-.5-.5z"/><path d="m355.442 147.533h8.281c.431 0 .781.352.781.783v24.851c0 6.018 3.343 11.427 8.726 14.117 2.251 1.126 4.668 1.68 7.071 1.68 3.341 0 6.655-1.072 9.454-3.172l50.792-38.105c.133-.1.298-.154.465-.154h13.802c22.4 0 40.624-18.228 40.624-40.633v-66.266c0-22.405-18.224-40.634-40.624-40.634h-99.372c-22.4 0-40.624 18.229-40.624 40.634v66.266c0 22.406 18.224 40.633 40.624 40.633zm-25.624-106.899c0-14.135 11.495-25.634 25.624-25.634h99.372c14.129 0 25.624 11.499 25.624 25.634v66.266c0 14.134-11.495 25.633-25.624 25.633h-13.802c-3.395 0-6.758 1.122-9.469 3.158l-50.79 38.102c-.125.094-.386.288-.816.073-.433-.216-.433-.543-.433-.7v-24.852c-.001-8.702-7.081-15.782-15.781-15.782h-8.281c-14.129 0-25.624-11.499-25.624-25.633z"/><path d="m355.442 48.134h99.372c4.142 0 7.5-3.357 7.5-7.5s-3.358-7.5-7.5-7.5h-99.372c-4.142 0-7.5 3.357-7.5 7.5s3.358 7.5 7.5 7.5z"/><path d="m355.442 81.267h99.372c4.142 0 7.5-3.357 7.5-7.5s-3.358-7.5-7.5-7.5h-99.372c-4.142 0-7.5 3.357-7.5 7.5s3.358 7.5 7.5 7.5z"/><path d="m355.442 114.4h33.124c4.142 0 7.5-3.357 7.5-7.5s-3.358-7.5-7.5-7.5h-33.124c-4.142 0-7.5 3.357-7.5 7.5s3.358 7.5 7.5 7.5z"/></g></g></svg>