<svg width="27" height="27" viewBox="0 0 27 27" fill="none" xmlns="http://www.w3.org/2000/svg">
<g clip-path="url(#clip0)">
<path d="M10.6079 5.81153V0.964031C10.6077 0.431447 10.1758 -0.000169455 9.64325 4.99091e-08C9.37012 5.65516e-05 9.10988 0.115998 8.92704 0.318895L0.248439 9.96186C-0.0689308 10.3153 -0.0816437 10.8472 0.21855 11.2155L8.89721 21.8227C9.23441 22.2349 9.84191 22.2957 10.2542 21.9585C10.4774 21.7758 10.6072 21.5027 10.6079 21.2142V16.4092C18.2258 16.657 22.9797 19.9134 25.1225 26.3414C25.2539 26.7347 25.622 26.9998 26.0366 27C26.0886 27.0002 26.1406 26.9959 26.1919 26.9875C26.6583 26.9113 27.0009 26.5084 27.0009 26.0357C27.0009 14.6801 20.165 6.33802 10.6079 5.81153ZM9.64354 14.4641C9.11095 14.4641 8.67922 14.8959 8.67922 15.4285V18.5142L2.23487 10.6368L8.67928 3.47694V6.74974C8.67928 7.28233 9.11101 7.71406 9.64359 7.71406C17.223 7.71406 22.8949 12.9589 24.567 20.9615C21.4629 16.6454 16.465 14.4641 9.64354 14.4641Z" fill="black" fill-opacity="0.6"/>
</g>
<defs>
<clipPath id="clip0">
<rect width="27" height="27" fill="white"/>
</clipPath>
</defs>
</svg>
