<svg width="47" height="47" viewBox="0 0 47 47" fill="none" xmlns="http://www.w3.org/2000/svg">
<path d="M23.5 0C10.5417 0 0 10.5417 0 23.5C0 36.4583 10.5417 47 23.5 47C36.4583 47 47 36.4583 47 23.5C47 10.5417 36.4583 0 23.5 0ZM30.7596 24.8846L20.9679 34.6762C20.586 35.0581 20.0847 35.25 19.5833 35.25C19.082 35.25 18.5806 35.0581 18.1987 34.6762C17.4331 33.9105 17.4331 32.6728 18.1987 31.9071L26.6059 23.5L18.1988 15.0929C17.4331 14.3272 17.4331 13.0895 18.1988 12.3238C18.9645 11.5581 20.2022 11.5581 20.9679 12.3238L30.7596 22.1155C31.5253 22.8812 31.5253 24.1188 30.7596 24.8846Z" fill="#00C6C2"/>
</svg>
