<svg width="27" height="27" viewBox="0 0 27 27" fill="none" xmlns="http://www.w3.org/2000/svg">
<path d="M17.5409 25.7682C17.8809 24.8795 18.8661 24.4308 19.7815 24.774C20.9324 25.2227 22.1878 24.29 22.1268 23.0583C22.0919 22.0993 22.8068 21.3074 23.7571 21.2458C25.0126 21.1402 25.7623 19.8381 25.2131 18.7119C24.8033 17.8585 25.1433 16.829 25.9629 16.3803C27.0526 15.7996 27.2183 14.2599 26.268 13.4681C25.5531 12.8522 25.4223 11.7876 25.9977 11.0397C26.7824 10.0455 26.3029 8.61139 25.1172 8.23306C24.2017 7.96031 23.6612 7.03648 23.8966 6.11265C24.2017 4.88088 23.1817 3.7459 21.9611 3.92186C21.0108 4.06264 20.1651 3.41156 19.9908 2.47894C19.7903 1.24717 18.3953 0.631282 17.3404 1.28236C16.5296 1.79266 15.4747 1.55511 14.9603 0.772055C14.2802 -0.257352 12.7545 -0.257352 12.0396 0.772055C11.4991 1.56391 10.4442 1.80146 9.65952 1.28236C8.60459 0.631282 7.21837 1.24717 7.00913 2.47894C6.84348 3.40276 5.95421 4.05384 5.03878 3.92186C3.81821 3.7547 2.79816 4.88088 3.10331 6.11265C3.3387 7.03648 2.79816 7.9955 1.88274 8.23306C0.697039 8.57619 0.217529 10.0455 1.00218 11.0397C1.57759 11.7964 1.48169 12.8874 0.731912 13.4681C-0.218389 14.2863 -0.0527401 15.7996 1.03706 16.3803C1.88274 16.829 2.18788 17.8497 1.78683 18.7119C1.2463 19.8381 1.98736 21.1754 3.2428 21.2458C4.1931 21.3162 4.90801 22.1345 4.87313 23.0583C4.83826 24.3252 6.05883 25.2139 7.21837 24.774C8.09893 24.4308 9.0841 24.8795 9.45899 25.7682C9.9385 26.9296 11.3945 27.2375 12.3099 26.3841C12.9899 25.733 14.071 25.733 14.751 26.3841C15.5793 27.2727 17.0701 26.9296 17.5409 25.7682ZM13.4694 22.1696C8.68306 22.1696 4.81211 18.2632 4.81211 13.4329C4.81211 8.60259 8.68306 4.69612 13.4694 4.69612C18.2558 4.69612 22.1268 8.60259 22.1268 13.4329C22.1268 18.228 18.2558 22.1696 13.4694 22.1696Z" fill="black" fill-opacity="0.6"/>
</svg>
