<svg width="26" height="26" viewBox="0 0 26 26" fill="none" xmlns="http://www.w3.org/2000/svg">
<ellipse cx="13" cy="13" rx="10" ry="7" fill="white"/>
<path d="M13 0C5.94626 0 0.228088 5.82029 0.228088 13C0.228088 20.1796 5.94626 25.9999 13 25.9999C20.0537 25.9999 25.7719 20.1796 25.7719 13C25.7644 5.8235 20.0506 0.00767159 13 0ZM20.0309 9.01363L10.9081 18.2993C10.5519 18.6619 9.97439 18.6619 9.61817 18.2993L5.96904 14.585C5.60662 14.2288 5.59657 13.641 5.94658 13.2721C6.2966 12.9032 6.87412 12.8929 7.23653 13.2492C7.24412 13.2567 7.25161 13.2643 7.25898 13.2721L10.2631 16.3299L18.741 7.70064C19.1034 7.34437 19.6809 7.3546 20.0309 7.72344C20.3724 8.0833 20.3724 8.65377 20.0309 9.01363Z" fill="#00C6C2"/>
</svg>
