<svg width="41" height="28" viewBox="0 0 41 28" fill="none" xmlns="http://www.w3.org/2000/svg">
<path d="M36.5156 0.097229H4.48438C2.01172 0.097229 0 2.08169 0 4.52084V23.4792C0 25.9183 2.01172 27.9028 4.48438 27.9028H36.5156C38.9883 27.9028 41 25.9183 41 23.4792V4.52084C41 2.08169 38.9883 0.097229 36.5156 0.097229ZM4.48438 2.62501H36.5156C37.5753 2.62501 38.4375 3.47552 38.4375 4.52084V7.04862H2.5625V4.52084C2.5625 3.47552 3.4247 2.62501 4.48438 2.62501ZM36.5156 25.375H4.48438C3.4247 25.375 2.5625 24.5245 2.5625 23.4792V9.5764H38.4375V23.4792C38.4375 24.5245 37.5753 25.375 36.5156 25.375Z" fill="#656565"/>
<path d="M8.96875 21.5833H7.6875C6.97993 21.5833 6.40625 21.0174 6.40625 20.3195V19.0556C6.40625 18.3576 6.97993 17.7917 7.6875 17.7917H8.96875C9.67632 17.7917 10.25 18.3576 10.25 19.0556V20.3195C10.25 21.0174 9.67632 21.5833 8.96875 21.5833Z" fill="#656565"/>
<path d="M32.375 14H21.875C21.392 14 21 14.3899 21 14.8702C21 15.3506 21.392 15.7404 21.875 15.7404H32.375C32.858 15.7404 33.2501 15.3505 33.2501 14.8702C33.2501 14.3898 32.858 14 32.375 14Z" fill="#656565"/>
<path d="M32.375 19H21.875C21.392 19 21 19.3899 21 19.8702C21 20.3506 21.392 20.7405 21.875 20.7405H32.375C32.858 20.7405 33.2501 20.3506 33.2501 19.8702C33.25 19.3899 32.858 19 32.375 19Z" fill="#656565"/>
</svg>
