<svg width="27" height="27" viewBox="0 0 27 27" fill="none" xmlns="http://www.w3.org/2000/svg">
<path d="M13.5 5.67542C11.4885 5.67542 9.59583 6.45032 8.17293 7.85972C6.75003 9.26912 5.96703 11.1429 5.96703 13.1355C5.96703 15.1281 6.75003 17.0019 8.17293 18.4086C9.59583 19.818 11.4885 20.5929 13.5 20.5929C15.5115 20.5929 17.4042 19.818 18.8271 18.4086C20.25 17.0019 21.033 15.1281 21.033 13.1355C21.033 11.1429 20.25 9.26912 18.8271 7.85972C17.4069 6.45032 15.5115 5.67542 13.5 5.67542ZM13.5 19.0215C10.2222 19.0215 7.55193 16.3836 7.55193 13.1355C7.55193 9.89012 10.2195 7.24952 13.5 7.24952C16.7778 7.24952 19.4481 9.89012 19.4481 13.1355C19.4481 16.3809 16.7805 19.0215 13.5 19.0215ZM13.5864 3.74762C14.0238 3.74762 14.3802 3.39662 14.3802 2.95922V1.05842C14.3802 0.62372 14.0238 0.27002 13.5864 0.27002C13.149 0.27002 12.7899 0.62102 12.7899 1.05842V2.96192C12.7926 3.39662 13.149 3.74762 13.5864 3.74762ZM6.91203 6.41522C7.11723 6.41522 7.31973 6.33692 7.47363 6.18302C7.78413 5.87522 7.78413 5.37842 7.47363 5.07062L6.11553 3.72332C5.80503 3.41552 5.30283 3.41552 4.99233 3.72332C4.68183 4.03112 4.68183 4.52792 4.99233 4.83572L6.35043 6.18032C6.50433 6.33692 6.70683 6.41522 6.91203 6.41522ZM4.09323 11.3994H2.17083C1.73343 11.3994 1.37433 11.7504 1.37433 12.1878C1.37433 12.6225 1.73073 12.9762 2.17083 12.9762H4.09323C4.53063 12.9762 4.88973 12.6252 4.88973 12.1878C4.88973 11.7531 4.53333 11.3994 4.09323 11.3994ZM24.8292 11.5776H22.9068C22.4694 11.5776 22.1103 11.9286 22.1103 12.366C22.1103 12.8007 22.4667 13.1544 22.9068 13.1544H24.8292C25.2666 13.1544 25.6257 12.8034 25.6257 12.366C25.6257 11.9286 25.2693 11.5776 24.8292 11.5776ZM20.2176 6.53942C20.4228 6.53942 20.6253 6.46112 20.7792 6.30992L22.1373 4.96262C22.4478 4.65482 22.4478 4.15802 22.1373 3.85022C21.8268 3.54242 21.3246 3.54242 21.0114 3.85022L19.6506 5.19752C19.3401 5.50532 19.3401 6.00212 19.6506 6.30992C19.8099 6.46112 20.0097 6.53942 20.2176 6.53942ZM16.4349 22.1643H10.5678C10.1304 22.1643 9.77133 22.518 9.77133 22.9527C9.77133 23.3874 10.1277 23.7411 10.5678 23.7411H16.4349C16.8723 23.7411 17.2314 23.3901 17.2314 22.9527C17.2287 22.518 16.8723 22.1643 16.4349 22.1643ZM15.3738 25.1532H11.6289C11.1915 25.1532 10.8324 25.5042 10.8324 25.9416C10.8324 26.3763 11.1888 26.73 11.6289 26.73H15.3711C15.8085 26.73 16.1676 26.3763 16.1676 25.9416C16.1676 25.5069 15.8112 25.1532 15.3738 25.1532Z" fill="#889096"/>
</svg>
