<svg width="58" height="52" viewBox="0 0 58 52" fill="black" xmlns="http://www.w3.org/2000/svg">
<path d="M57.6654 19.6053V38.0853C57.6654 41.0187 55.5289 43.4827 52.7395 44.0693V49.5253C52.7395 50.816 51.6712 51.8133 50.4249 51.8133C49.8314 51.8133 49.2379 51.5787 48.7631 51.168L41.7599 44.2453H20.5724C17.2489 44.2453 14.5782 41.664 14.4001 38.496L17.9611 34.976H18.6732V38.144C18.6732 39.1413 19.5041 40.0213 20.5724 40.0213H43.5404L48.407 44.832V40.0213H51.4931C52.5021 40.0213 53.3923 39.2 53.3923 38.144V19.6053C53.3923 18.608 52.5614 17.728 51.4931 17.728H47.7542V13.4453H51.4931C54.876 13.504 57.6654 16.2613 57.6654 19.6053ZM16.2399 30.928L9.23678 37.8507C8.82133 38.2613 8.22785 38.496 7.63436 38.496C7.04087 38.496 6.50673 38.2613 6.03194 37.8507C5.55715 37.44 5.31975 36.7947 5.31975 36.1493V30.6933C2.53036 30.1067 0.393799 27.6427 0.393799 24.7093V6.28801C0.393799 2.88534 3.18319 0.186676 6.56608 0.186676H37.4275C40.8697 0.186676 43.5998 2.94401 43.5998 6.28801V24.768C43.5998 28.1707 40.8104 30.8693 37.4275 30.8693H16.2399V30.928ZM31.3739 24.768H35.7657V6.46401H31.3739V24.768ZM23.6585 24.768H28.0504V15.616H23.6585V24.768ZM12.6197 20.544H8.22785V24.768H12.6197V20.544ZM15.9432 24.768H20.335V11.4507H15.9432V24.768Z" fill="black"/>
</svg>
