<svg width="100" height="43" viewBox="0 0 100 43" fill="none" xmlns="http://www.w3.org/2000/svg">
<path d="M0.716759 39.3616H1.6873V32.6307H0.703125V31.5948H2.81284V34.5951C3.47545 33.8892 4.24238 33.5539 5.18871 33.5539C7.19935 33.5539 8.63708 35.0893 8.63708 37.0538C8.63708 39.0386 7.16941 40.5646 5.15058 40.5646C4.24238 40.5646 3.53502 40.2441 2.8333 39.53V40.4179H0.716759V39.3616V39.3616ZM5.12894 34.6427C3.88257 34.6427 2.81284 35.6731 2.81284 37.0905C2.81284 38.4195 3.88257 39.4716 5.11265 39.4716C6.36702 39.4716 7.43408 38.4684 7.43408 37.0293C7.43408 35.6365 6.36702 34.6427 5.12894 34.6427ZM10.0964 41.523H11.1404L11.6631 40.2171L9.50171 34.7677H8.62068V33.714H11.5979V34.7677H10.6788L12.2428 38.748L13.8176 34.7677H12.9026V33.714H15.8675V34.7677H14.9986L12.3174 41.523H13.2461V42.5739H10.0964V41.523H10.0964ZM22.8512 35.9975H28.2109V40.4179H27.2579V39.0251C26.2886 40.0812 25.1821 40.5917 23.8489 40.5917C21.2043 40.5917 19.3281 38.5254 19.3281 35.9459C19.3281 33.5621 21.2423 31.417 23.9643 31.417C24.9813 31.417 25.7917 31.7007 26.6498 32.3374V31.5948H27.615V33.9612H26.5235C25.7646 33.0815 24.9377 32.6551 23.895 32.6551C22.0094 32.6551 20.6179 34.1852 20.6179 35.9853C20.6179 37.9198 22.0584 39.3726 23.8788 39.3726C25.2487 39.3726 26.4774 38.4684 26.8859 37.0618H22.8512V35.9975V35.9975ZM36.0253 38.2947C35.4552 39.7582 34.2251 40.5754 32.7508 40.5754C30.789 40.5754 29.2509 39.0251 29.2509 37.0741C29.2509 35.0811 30.8759 33.5348 32.7142 33.5348C34.6732 33.5348 36.2371 35.0634 36.2371 37.1244C36.2371 37.2248 36.2371 37.3498 36.2141 37.5099H30.4782C30.6642 38.7033 31.6131 39.4852 32.7358 39.4852C33.5831 39.4852 34.2998 39.0753 34.7098 38.2947H36.0253H36.0253ZM34.9977 36.557C34.6962 35.3147 33.8519 34.6073 32.7508 34.6073C31.6348 34.6073 30.6981 35.3649 30.4782 36.557H34.9977ZM37.6259 34.7512H36.5928V33.714H37.6259V31.5948H38.7527V33.714H39.7451V34.7512H38.7527V39.3616H39.7451V40.4179H37.6259V34.7512V34.7512ZM41.3825 34.7512H40.3548V33.714H41.3825V31.5948H42.5133V33.714H43.5004V34.7512H42.5133V39.3616H43.5004V40.4179H41.3825V34.7512V34.7512ZM45.6453 41.523H46.6893L47.2134 40.2171L45.0493 34.7677H44.171V33.714H47.1482V34.7677H46.2277L47.7903 38.748L49.3733 34.7677H48.4515V33.714H51.4233V34.7677H50.5504L47.865 41.523H48.8019V42.5739H45.6453V41.523V41.523ZM54.8188 39.3496H55.799V32.6551H54.8188V31.5948H58.0336V32.6551H57.0248V39.3496H58.0336V40.4179H54.8188V39.3496ZM58.9743 39.3617H59.9288V34.7513H58.9839V33.7141H61.0447V34.6671C61.4574 33.9449 62.0383 33.6041 62.8707 33.6041C63.8509 33.6041 64.5663 34.0726 64.9749 34.9387C65.4962 34.0237 66.1343 33.592 67.0384 33.592C68.6908 33.592 69.4468 34.7934 69.4468 36.4537V39.3617H70.4148V40.4179H67.3589V39.3617H68.316V36.3912C68.316 35.2617 67.7947 34.6563 66.8675 34.6563C65.799 34.6563 65.2275 35.4492 65.2275 37.0294V39.3617H66.1995V40.4179H63.1667V39.3617H64.1332V37.1379C64.1332 35.5646 63.9595 34.6563 62.6453 34.6563C61.6284 34.6563 61.0447 35.4492 61.0447 37.0294V39.3617H62.0153V40.4179H58.9743V39.3617V39.3617ZM76.5661 39.53C75.8603 40.2442 75.1488 40.5647 74.2556 40.5647C72.2218 40.5647 70.7692 39.0386 70.7692 37.0539C70.7692 35.0894 72.1702 33.5621 74.2093 33.5621C75.1638 33.5621 75.9282 33.8743 76.5947 34.5951V33.7141H78.6623V34.7513H77.7106V39.3496H78.6733V40.4179H76.5661V39.53V39.53ZM74.2718 34.6427C73.031 34.6427 71.9611 35.6366 71.9611 37.0294C71.9611 38.4685 73.031 39.4716 74.2786 39.4716C75.5059 39.4716 76.5757 38.4278 76.5757 37.0905C76.5757 35.6731 75.5059 34.6427 74.2718 34.6427V34.6427ZM80.9281 40.8116C81.1657 41.5231 81.797 41.9032 82.742 41.9032C83.9367 41.9032 84.94 41.0452 84.9887 39.8084L84.9996 39.4716C84.3304 40.2171 83.5959 40.551 82.6701 40.551C80.6839 40.551 79.2203 39.0495 79.2203 37.0539C79.2203 35.1287 80.6349 33.5539 82.632 33.5539C83.5959 33.5539 84.3683 33.9001 85.0146 34.6563V33.7141H87.0863V34.7677H86.132V39.3155C86.132 41.6181 84.8015 42.8861 82.742 42.8861C81.1142 42.8861 80.0513 42.191 79.618 40.8116H80.9281H80.9281ZM85.0146 37.1014C85.0146 35.6882 83.9583 34.6427 82.7162 34.6427C81.4794 34.6427 80.411 35.6473 80.411 37.0402C80.411 38.4928 81.489 39.4852 82.7162 39.4852C83.9461 39.4852 85.0146 38.4278 85.0146 37.1014ZM94.283 38.2947C93.7113 39.7582 92.4855 40.5754 91.0058 40.5754C89.0453 40.5754 87.5017 39.0252 87.5017 37.0741C87.5017 35.0812 89.1322 33.5349 90.9704 33.5349C92.9308 33.5349 94.4961 35.0635 94.4961 37.1245C94.4961 37.2249 94.4961 37.3498 94.4716 37.51H88.7317C88.9231 38.7033 89.8666 39.4852 90.9935 39.4852C91.8406 39.4852 92.5575 39.0754 92.9646 38.2947H94.283H94.283ZM93.2526 36.557C92.9566 35.3147 92.1109 34.6073 91.0058 34.6073C89.8897 34.6073 88.957 35.3649 88.7317 36.557H93.2526ZM95.1858 38.3056H96.3058C96.3058 38.9518 96.8623 39.6006 97.6946 39.6006C98.3992 39.6006 98.8146 39.2232 98.8146 38.5757C98.8146 37.8603 98.277 37.5968 97.0987 37.3592C95.5986 37.0539 95.2753 36.2718 95.2753 35.46C95.2753 34.3441 96.0654 33.5254 97.3335 33.5254C97.8833 33.5254 98.3137 33.7141 98.6749 34.1078V33.7005H99.6048V35.4871H98.5716C98.4154 34.8301 98.0422 34.5341 97.4081 34.5341C96.7891 34.5341 96.4402 34.8409 96.4402 35.3649C96.4402 36.1075 97.0472 36.2474 98.091 36.5149C99.3943 36.8665 99.9999 37.4122 99.9999 38.5038C99.9999 39.7582 99.1282 40.5917 97.7422 40.5917C97.1081 40.5917 96.6276 40.3923 96.204 39.9291V40.4262H95.1858V38.3056V38.3056Z" fill="white"/>
<path d="M5.55489 26.302H0.741587V8.33367H5.55489V26.302ZM10.1755 19.3739C11.6586 21.0024 13.9169 22.2265 16.287 22.2265C18.5097 22.2265 20.0659 20.8541 20.0659 18.9656C20.0659 15.633 15.2517 15.2251 11.7693 13.1888C9.73252 12.0019 8.10014 10.2241 8.10014 7.29545C8.10014 2.66616 12.3635 0 16.6587 0C19.2877 0 21.7329 0.63025 24.1791 2.44516L21.5866 6.14845C20.5465 5.18548 18.8063 4.44685 17.1016 4.44685C15.2151 4.44685 13.1022 5.25914 13.1022 7.25935C13.1022 11.4467 25.068 10.148 25.068 18.8929C25.068 23.4841 20.9538 26.6699 16.287 26.6699C12.8056 26.6699 9.58323 25.2282 6.91559 22.7802L10.1755 19.3739H10.1755ZM40.0258 26.302C39.3969 26.5225 37.9496 26.6699 37.0251 26.6699C34.1349 26.6699 32.0259 25.7069 30.8009 24.0774C29.8755 22.8553 29.4671 21.2644 29.4671 18.706V12.4087H24.467V8.33367H29.4671V3.3326H34.2833V8.33367H40.2107V12.4087H34.2833V19.2598C34.2833 20.3755 34.4672 21.039 34.8765 21.5225C35.3551 22.079 36.1333 22.4104 37.3187 22.4104C38.0237 22.4104 38.9521 22.3025 39.2853 22.2265L40.0258 26.302ZM50.705 7.96337C56.1481 7.96337 60.2613 12.1502 60.2613 17.3366C60.2613 22.5221 56.1481 26.6699 50.705 26.6699C45.2609 26.6699 41.1468 22.5221 41.1468 17.3366C41.1468 12.1502 45.2609 7.96337 50.705 7.96337ZM50.705 22.2265C53.5199 22.2265 55.4441 20.0404 55.4441 17.3366C55.4441 14.6314 53.5199 12.4087 50.705 12.4087C47.8881 12.4087 45.9639 14.6314 45.9639 17.3366C45.9639 20.0404 47.8881 22.2265 50.705 22.2265V22.2265ZM79.2774 22.6337C77.1635 25.4497 74.495 26.6699 71.1262 26.6699C65.5705 26.6699 61.4939 22.5221 61.4939 17.3366C61.4939 12.1136 65.6803 7.96337 71.1637 7.96337C74.2754 7.96337 77.0528 9.40985 78.7197 11.5564L75.3116 14.5568C74.3505 13.298 72.9069 12.4087 71.1637 12.4087C68.3854 12.4087 66.311 14.5963 66.311 17.3366C66.311 20.152 68.3498 22.2265 71.2765 22.2265C73.2381 22.2265 74.7935 21.0391 75.5716 19.8555L79.2774 22.6337V22.6337ZM90.1077 16.4097L100 26.302H93.5159L85.9204 18.5197V26.302H81.1071V0.3703H85.9204V14.1519L92.106 8.33367H98.8887L90.1077 16.4097V16.4097ZM0 3.14868C0 1.40891 1.41089 0 3.14918 0C4.88845 0 6.29737 1.40891 6.29737 3.14868C6.29737 4.88549 4.88845 6.29726 3.14918 6.29726C1.41089 6.29726 0 4.88549 0 3.14868V3.14868Z" fill="white"/>
</svg>
