<svg width="27" height="27" viewBox="0 0 27 27" fill="none" xmlns="http://www.w3.org/2000/svg">
<path d="M27 0H0V27H27V0Z" fill="white" fill-opacity="0.01"/>
<path fill-rule="evenodd" clip-rule="evenodd" d="M4.5 6.1875H5.625C6.24632 6.1875 6.75 6.69118 6.75 7.3125V8.4375C6.75 9.05882 6.24632 9.5625 5.625 9.5625H4.5C3.87868 9.5625 3.375 9.05882 3.375 8.4375V7.3125C3.375 6.69118 3.87868 6.1875 4.5 6.1875ZM4.5 11.8125H5.625C6.24632 11.8125 6.75 12.3162 6.75 12.9375V14.0625C6.75 14.6838 6.24632 15.1875 5.625 15.1875H4.5C3.87868 15.1875 3.375 14.6838 3.375 14.0625V12.9375C3.375 12.3162 3.87868 11.8125 4.5 11.8125ZM10.125 6.1875H11.25C11.8713 6.1875 12.375 6.69118 12.375 7.3125V8.4375C12.375 9.05882 11.8713 9.5625 11.25 9.5625H10.125C9.50368 9.5625 9 9.05882 9 8.4375V7.3125C9 6.69118 9.50368 6.1875 10.125 6.1875ZM10.125 11.8125H11.25C11.8713 11.8125 12.375 12.3162 12.375 12.9375V14.0625C12.375 14.6838 11.8713 15.1875 11.25 15.1875H10.125C9.50368 15.1875 9 14.6838 9 14.0625V12.9375C9 12.3162 9.50368 11.8125 10.125 11.8125ZM15.75 6.1875H16.875C17.4963 6.1875 18 6.69118 18 7.3125V8.4375C18 9.05882 17.4963 9.5625 16.875 9.5625H15.75C15.1287 9.5625 14.625 9.05882 14.625 8.4375V7.3125C14.625 6.69118 15.1287 6.1875 15.75 6.1875ZM15.75 11.8125H16.875C17.4963 11.8125 18 12.3162 18 12.9375V14.0625C18 14.6838 17.4963 15.1875 16.875 15.1875H15.75C15.1287 15.1875 14.625 14.6838 14.625 14.0625V12.9375C14.625 12.3162 15.1287 11.8125 15.75 11.8125ZM21.375 6.1875H22.5C23.1213 6.1875 23.625 6.69118 23.625 7.3125V8.4375C23.625 9.05882 23.1213 9.5625 22.5 9.5625H21.375C20.7537 9.5625 20.25 9.05882 20.25 8.4375V7.3125C20.25 6.69118 20.7537 6.1875 21.375 6.1875ZM21.375 11.8125H22.5C23.1213 11.8125 23.625 12.3162 23.625 12.9375V14.0625C23.625 14.6838 23.1213 15.1875 22.5 15.1875H21.375C20.7537 15.1875 20.25 14.6838 20.25 14.0625V12.9375C20.25 12.3162 20.7537 11.8125 21.375 11.8125ZM6.75 18.5625H21.375V20.8125H6.75V18.5625Z" fill="#889096"/>
</svg>
