<?xml version="1.0" encoding="utf-8"?>
<!-- Generator: Adobe Illustrator 24.0.1, SVG Export Plug-In . SVG Version: 6.00 Build 0)  -->
<svg version="1.1" id="Calque_1" xmlns="http://www.w3.org/2000/svg" xmlns:xlink="http://www.w3.org/1999/xlink" x="0px" y="0px"
	 viewBox="0 0 176.66 192.58" style="enable-background:new 0 0 176.66 192.58;" xml:space="preserve">
<style type="text/css">
	.st0{fill:url(#SVGID_1_);}
	.st1{clip-path:url(#SVGID_3_);}
	.st2{opacity:0.41;fill:#FDC677;}
	.st3{opacity:0.41;}
	.st4{fill:#FDC677;}
	.st5{fill:#AA732A;}
	.st6{fill:#A36F25;}
	.st7{fill:#FAA529;}
	.st8{fill:#53AE6F;}
	.st9{fill:#F9A61A;}
	.st10{fill:none;stroke:#53AE6F;stroke-miterlimit:10;}
	.st11{fill:url(#SVGID_4_);}
	.st12{clip-path:url(#SVGID_6_);}
	.st13{filter:url(#Adobe_OpacityMaskFilter);}
	.st14{fill:url(#SVGID_8_);}
	.st15{mask:url(#SVGID_7_);}
	.st16{clip-path:url(#SVGID_10_);fill:url(#SVGID_11_);}
	.st17{clip-path:url(#SVGID_13_);fill:url(#SVGID_14_);}
	.st18{filter:url(#Adobe_OpacityMaskFilter_1_);}
	.st19{fill:url(#SVGID_16_);}
	.st20{mask:url(#SVGID_15_);}
	.st21{clip-path:url(#SVGID_18_);fill:url(#SVGID_19_);}
	.st22{clip-path:url(#SVGID_21_);fill:url(#SVGID_22_);}
	.st23{fill:url(#SVGID_23_);}
	.st24{clip-path:url(#SVGID_25_);}
	.st25{fill:#FFFFFF;}
</style>
<g>
	<defs>
		<filter id="Adobe_OpacityMaskFilter" filterUnits="userSpaceOnUse" x="7.2" y="20.24" width="160.69" height="167.41">
			<feFlood  style="flood-color:white;flood-opacity:1" result="back"/>
			<feBlend  in="SourceGraphic" in2="back" mode="normal"/>
		</filter>
	</defs>
	<mask maskUnits="userSpaceOnUse" x="7.2" y="20.24" width="160.69" height="167.41" id="SVGID_1_">
		<g class="st13">
			
				<linearGradient id="SVGID_3_" gradientUnits="userSpaceOnUse" x1="-1141.5145" y1="-221.2216" x2="-1141.5145" y2="-105.0633" gradientTransform="matrix(-0.8719 -0.4897 0.4897 -0.8719 -805.3268 -573.8455)">
				<stop  offset="0" style="stop-color:#FFFFFF"/>
				<stop  offset="1" style="stop-color:#000000"/>
			</linearGradient>
			<path style="fill:url(#SVGID_3_);" d="M96.55,233.5l-25.75-48.33l5.43-116.06c0,0,0.15-52.43,1.25-53.72s28.93-5.44,35.66-3.19
				c6.73,2.25,60.55,56.84,63.84,62.49c3.29,5.65,23.27,35.14,22.1,44s-6.65,30.13-7.86,33.64c-1.21,3.51-36.56,65.09-36.56,65.09
				L96.55,233.5z"/>
		</g>
	</mask>
	<g style="mask:url(#SVGID_1_);">
		<path class="st9" d="M7.7,98.32c-1.16,10.32-0.31,20.65,2.51,30.69c2.82,10.04,7.47,19.3,13.83,27.51
			c6.58,8.5,14.72,15.51,24.17,20.82s19.67,8.61,30.35,9.81c10.32,1.16,20.65,0.31,30.69-2.51c10.04-2.82,19.3-7.47,27.51-13.83
			c8.5-6.58,15.51-14.72,20.82-24.17c5.31-9.45,8.61-19.67,9.81-30.35c1.16-10.32,0.31-20.65-2.51-30.69
			c-2.82-10.04-7.47-19.3-13.83-27.51c-6.58-8.5-14.72-15.51-24.17-20.82c-7.04-3.95-14.49-6.79-22.25-8.48l-0.97,3.15
			c7.4,1.58,14.69,4.28,21.62,8.18c37.05,20.81,50.26,67.88,29.46,104.93c-20.81,37.05-67.88,50.26-104.93,29.46
			S-0.45,106.61,20.36,69.56c10.3-18.33,27.02-30.83,45.78-36.25l-0.12-3.4c-0.06,0.02-0.12,0.03-0.18,0.05
			c-10.04,2.82-19.3,7.47-27.51,13.83c-8.5,6.58-15.51,14.72-20.82,24.17C12.2,77.42,8.9,87.63,7.7,98.32"/>
		<g>
			<defs>
				<path id="SVGID_9_" d="M66.14,33.31l-0.12-3.4c-0.06,0.02-0.12,0.03-0.18,0.05c-6.94,1.95-13.5,4.77-19.61,8.43l2.58,2.31
					C54.28,37.53,60.1,35.05,66.14,33.31"/>
			</defs>
			<clipPath id="SVGID_4_">
				<use xlink:href="#SVGID_9_"  style="overflow:visible;"/>
			</clipPath>
			
				<linearGradient id="SVGID_6_" gradientUnits="userSpaceOnUse" x1="-1113.8568" y1="656.1757" x2="-1113.6733" y2="656.1757" gradientTransform="matrix(-76.398 26.9149 26.9149 76.398 -102692.7344 -20119.0371)">
				<stop  offset="0" style="stop-color:#AA732A"/>
				<stop  offset="1" style="stop-color:#F9A61A"/>
			</linearGradient>
			<polygon style="clip-path:url(#SVGID_4_);fill:url(#SVGID_6_);" points="71.46,41.87 49.58,49.58 41.96,27.95 63.84,20.24 			"/>
		</g>
		<path class="st9" d="M10.92,98.68c-1.11,9.91-0.3,19.82,2.41,29.46c2.71,9.64,7.17,18.52,13.28,26.4
			c6.32,8.16,14.12,14.88,23.2,19.98c9.07,5.1,18.88,8.26,29.13,9.41c9.91,1.11,19.82,0.3,29.46-2.41
			c9.64-2.71,18.52-7.17,26.4-13.28c8.16-6.32,14.88-14.12,19.98-23.2c5.1-9.07,8.26-18.88,9.41-29.13
			c1.11-9.91,0.3-19.82-2.41-29.46c-2.71-9.64-7.17-18.52-13.28-26.4c-6.32-8.16-14.12-14.88-23.2-19.98
			c-6.75-3.79-13.91-6.52-21.36-8.13l-0.93,3.02c7.1,1.51,14.1,4.11,20.75,7.85c35.56,19.97,48.24,65.14,28.27,100.7
			c-19.97,35.56-65.14,48.24-100.7,28.27S3.09,106.64,23.06,71.08C32.94,53.49,48.99,41.5,67,36.29l-0.12-3.26
			c-0.06,0.02-0.11,0.03-0.17,0.05c-9.64,2.71-18.52,7.17-26.4,13.28c-8.16,6.32-14.88,14.12-19.98,23.2
			C15.23,78.62,12.07,88.42,10.92,98.68"/>
		<g>
			<defs>
				<path id="SVGID_12_" d="M67,36.29l-0.12-3.26c-0.06,0.02-0.11,0.03-0.17,0.05c-6.66,1.87-12.96,4.58-18.82,8.09l2.48,2.22
					C55.62,40.34,61.21,37.96,67,36.29"/>
			</defs>
			<clipPath id="SVGID_7_">
				<use xlink:href="#SVGID_12_"  style="overflow:visible;"/>
			</clipPath>
			
				<linearGradient id="SVGID_8_" gradientUnits="userSpaceOnUse" x1="-1113.8552" y1="656.2148" x2="-1113.6791" y2="656.2148" gradientTransform="matrix(-76.398 26.9149 26.9149 76.398 -102692.7344 -20119.0371)">
				<stop  offset="0" style="stop-color:#AA732A"/>
				<stop  offset="1" style="stop-color:#F9A61A"/>
			</linearGradient>
			<polygon style="clip-path:url(#SVGID_7_);fill:url(#SVGID_8_);" points="72.11,44.5 51.11,51.9 43.79,31.15 64.8,23.75 			"/>
		</g>
	</g>
	<g>
		<g>
			<path class="st8" d="M58.28,62.28l-4.29,1.56c-0.02,0.02-0.04,0.03-0.06,0.03c-0.25,0-0.38-0.15-0.38-0.44
				c0-0.12,0.08-0.21,0.24-0.26l2.94-1.03c-0.55-0.8-0.82-1.46-0.82-1.97c0-0.35,0.08-0.71,0.24-1.09c0.2-0.67,0.58-1.23,1.16-1.7
				c0.58-0.47,1.18-0.71,1.81-0.71c1.14,0,1.71,0.65,1.71,1.94c0,0.33-0.03,0.67-0.09,1C60.52,60.88,59.71,61.77,58.28,62.28z
				 M58.95,57.72c-0.98-0.2-1.7,0.28-2.15,1.44c-0.12,0.29-0.18,0.59-0.18,0.88c0,0.78,0.46,1.25,1.38,1.41
				c1.12,0.2,1.81-0.38,2.09-1.73C60.33,58.51,59.95,57.84,58.95,57.72z"/>
			<path class="st8" d="M67.76,96.97c0,4.15-2.29,6.91-6.88,8.26l-1.15,0.15h-6l-1.15-0.15c-4.58-1.35-6.88-4.13-6.88-8.35v-9.55
				c0-2.27,1.44-3.94,4.32-5v14.81c0.49,2.68,1.85,4.03,4.08,4.03h5.23c2.21,0,3.58-1.34,4.09-4.03V77.89
				c2.88,0.88,4.32,2.46,4.32,4.73V96.97z M58.19,71.5c0.4,0.4,0.6,0.89,0.6,1.46c0,0.57-0.2,1.05-0.6,1.46
				c-0.4,0.4-0.89,0.6-1.46,0.6s-1.05-0.2-1.46-0.6c-0.4-0.4-0.6-0.89-0.6-1.46c0-0.57,0.2-1.05,0.6-1.46c0.4-0.4,0.89-0.6,1.46-0.6
				S57.79,71.1,58.19,71.5z"/>
			<path class="st8" d="M75.81,87.18c0.43,2.8,1.93,4.24,4.5,4.32v4.17h-0.5c-3.27,0.02-5.85-1.86-7.73-5.64
				c-0.33-0.84-0.5-1.68-0.5-2.53V71.6c0.06-2.31,1.47-3.99,4.23-5.03V87.18z"/>
			<path class="st8" d="M95.15,69.08c-0.02,0.02-0.05,0.03-0.09,0.03c-0.24,0-0.35-0.15-0.35-0.44c0-0.12,0.08-0.21,0.24-0.26
				l6.58-2.38c0.02-0.02,0.05-0.03,0.09-0.03c0.24,0,0.35,0.15,0.35,0.44c0,0.12-0.07,0.21-0.21,0.26L95.15,69.08z"/>
			<path class="st8" d="M111.91,92.89c-1.33,1.04-2.49,1.8-3.47,2.29c-0.84,0.33-1.69,0.5-2.53,0.5h-1.35
				c-1.59,0-3.46-0.81-5.61-2.44h-0.5c-2.2,1.63-4.08,2.44-5.64,2.44h-1.35c-1.98,0-3.98-0.94-6-2.82
				c-2.08,1.88-4.03,2.82-5.85,2.82h-0.76V91.5h0.32c2.74-0.02,4.12-1.89,4.12-5.61v-8.35h4.29v9.67c0,2.14,1.43,3.54,4.29,4.2
				c3.02-0.55,4.53-2.05,4.53-4.5v-9.38h4.44v8.61c0,2.94,1.25,4.63,3.76,5.08h1.12c2.72-0.41,4.08-2.01,4.08-4.79v-8.91h4.29v9.32
				c0.25,3.08,1.35,4.63,3.29,4.64v4.17C115.79,95.68,113.96,94.75,111.91,92.89z"/>
			<path class="st8" d="M124.31,58.91c-0.57,0.22-1.26,0.02-2.09-0.59c-0.29,1.25-0.89,1.88-1.79,1.88c-0.76,0-1.39-0.39-1.88-1.18
				c-0.45-0.72-0.68-1.54-0.68-2.44c0-0.14,0.12-0.21,0.35-0.21c0.12,0,0.18,0.07,0.18,0.21c0,1.94,0.62,2.91,1.85,2.91
				c1.04,0,1.56-0.54,1.56-1.62c0-0.41-0.13-0.82-0.38-1.23c-0.08-0.14-0.12-0.25-0.12-0.32c0-0.1,0.05-0.15,0.15-0.15
				c0.12,0,0.22,0.11,0.29,0.32c0.35,1.2,0.98,1.79,1.88,1.79c0.94,0,1.41-0.47,1.41-1.41c0-0.76-0.34-1.56-1.03-2.38
				c-0.06-0.06-0.09-0.11-0.09-0.15c0-0.14,0.13-0.21,0.38-0.21c0.06,0,0.1,0.01,0.12,0.03c0.73,0.86,1.09,1.77,1.09,2.73
				C125.52,57.93,125.11,58.6,124.31,58.91z"/>
			<path class="st8" d="M118.5,111.02c-0.02,0.02-0.05,0.03-0.09,0.03c-0.24,0-0.35-0.15-0.35-0.44c0-0.12,0.08-0.21,0.24-0.26
				l6.58-2.38c0.02-0.02,0.05-0.03,0.09-0.03c0.24,0,0.35,0.15,0.35,0.44c0,0.12-0.07,0.21-0.21,0.26L118.5,111.02z"/>
			<path class="st8" d="M116.34,95.68l-0.03-4.17h0.03h4.12V66.4h4.32v25.1h1.73l-0.03,4.17H116.34z"/>
			<path class="st8" d="M135.27,87.09c0,4.23-2.29,7.04-6.88,8.44l-1.18,0.15h-1.71l0.03-4.17h1.59c2.02,0,3.29-1.34,3.82-4.03
				v-20.9c2.88,1.06,4.32,2.74,4.32,5.06V87.09z"/>
			<path class="st8" d="M137.51,95.68v-29.1c2.84,1.06,4.26,2.74,4.26,5.06v24.04H137.51z"/>
			<path class="st9" d="M58.09,114.5l-4.29,1.56c-0.02,0.02-0.04,0.03-0.06,0.03c-0.25,0-0.38-0.15-0.38-0.44
				c0-0.12,0.08-0.21,0.24-0.26l2.94-1.03c-0.55-0.8-0.82-1.46-0.82-1.97c0-0.35,0.08-0.71,0.24-1.09c0.2-0.65,0.58-1.21,1.16-1.69
				s1.18-0.72,1.81-0.72c1.14,0,1.71,0.65,1.71,1.94c0,0.33-0.03,0.67-0.09,1C60.33,113.1,59.52,113.99,58.09,114.5z M59.91,121.47
				c-0.57,0.2-1.26,0.01-2.09-0.56c-0.29,1.23-0.89,1.85-1.79,1.85c-0.76,0-1.39-0.39-1.88-1.18c-0.45-0.72-0.68-1.54-0.68-2.44
				c0-0.14,0.12-0.21,0.35-0.21c0.12,0,0.18,0.07,0.18,0.21c0,1.94,0.62,2.91,1.85,2.91c1.04,0,1.56-0.54,1.56-1.62
				c0-0.41-0.13-0.82-0.38-1.23c-0.08-0.14-0.12-0.25-0.12-0.32c0-0.1,0.05-0.15,0.15-0.15c0.12,0,0.21,0.11,0.29,0.32
				c0.35,1.2,0.98,1.79,1.88,1.79c0.94,0,1.41-0.47,1.41-1.41c0-0.78-0.34-1.58-1.03-2.38c-0.06-0.08-0.09-0.13-0.09-0.15
				c0-0.14,0.13-0.21,0.38-0.21c0.06,0,0.1,0.01,0.12,0.03c0.72,0.86,1.09,1.77,1.09,2.73C61.12,120.49,60.71,121.15,59.91,121.47z
				 M58.76,109.95c-0.98-0.2-1.7,0.28-2.15,1.44c-0.12,0.29-0.18,0.59-0.18,0.88c0,0.78,0.46,1.25,1.38,1.41
				c1.12,0.2,1.81-0.38,2.09-1.73C60.15,110.73,59.76,110.06,58.76,109.95z"/>
			<path class="st9" d="M71.43,149.68c-2.43,0.14-4.49-1.73-6.17-5.61l-0.24-2.2v-6.35h-12.4c-2.63,0.49-3.94,1.73-3.94,3.73v3.29
				h6.73c2.35,0,3.89,0.29,4.62,0.88c2.27,1.74,3.41,4.06,3.41,6.94v1.38c0,3.02-1.77,5.41-5.32,7.17c0.84-2.9,1.26-5.39,1.26-7.47
				v-0.82c0-2.27-1.37-3.62-4.12-4.03H44.63v-7.35c0-3.04,1.77-5.45,5.32-7.23c0.84-0.31,1.63-0.47,2.35-0.47h16.84v9.38
				c0,2.96,0.76,4.49,2.29,4.58h1.03v4.17H71.43z M49.77,158.03c-0.57,0-1.05-0.2-1.46-0.6c-0.4-0.4-0.6-0.89-0.6-1.46
				c0-0.55,0.2-1.02,0.6-1.43c0.4-0.4,0.89-0.6,1.46-0.6s1.05,0.2,1.46,0.6c0.4,0.4,0.6,0.88,0.6,1.43c0,0.57-0.2,1.05-0.6,1.46
				C50.82,157.82,50.34,158.03,49.77,158.03z M54.3,158.03c-0.57,0-1.05-0.2-1.46-0.6c-0.4-0.4-0.6-0.89-0.6-1.46
				c0-0.57,0.2-1.05,0.6-1.44c0.4-0.39,0.89-0.59,1.46-0.59c0.57,0,1.05,0.2,1.45,0.59c0.4,0.39,0.6,0.87,0.6,1.44
				c0,0.57-0.2,1.05-0.6,1.46C55.35,157.82,54.86,158.03,54.3,158.03z"/>
			<path class="st9" d="M75.28,169.13c-0.02,0.02-0.05,0.03-0.09,0.03c-0.24,0-0.35-0.15-0.35-0.44c0-0.12,0.08-0.21,0.24-0.26
				l6.58-2.38c0.02-0.02,0.05-0.03,0.09-0.03c0.24,0,0.35,0.15,0.35,0.44c0,0.12-0.07,0.21-0.21,0.26L75.28,169.13z"/>
			<path class="st9" d="M78.37,131.13c2.9,1.14,4.35,2.75,4.35,4.85v5.76c-0.12,3.12-2.03,5.6-5.73,7.44
				c-0.84,0.33-1.69,0.5-2.56,0.5H71.7v-4.17h1.41c3.51-0.16,5.26-2.04,5.26-5.64V131.13z M77.18,152.22c0.4,0.4,0.6,0.89,0.6,1.46
				s-0.2,1.05-0.6,1.46c-0.4,0.4-0.89,0.6-1.46,0.6s-1.05-0.2-1.44-0.6c-0.39-0.4-0.59-0.89-0.59-1.46s0.2-1.05,0.59-1.46
				c0.39-0.4,0.87-0.6,1.44-0.6S76.78,151.82,77.18,152.22z"/>
			<path class="st9" d="M88.29,123.17c-0.02,0.02-0.05,0.03-0.09,0.03c-0.24,0-0.35-0.15-0.35-0.44c0-0.12,0.08-0.21,0.24-0.26
				l6.58-2.38c0.02-0.02,0.05-0.03,0.09-0.03c0.24,0,0.35,0.15,0.35,0.44c0,0.12-0.07,0.21-0.21,0.26L88.29,123.17z"/>
			<path class="st9" d="M96.97,145.5h1.71v4.17h-1.71v2.23l-0.24,1.62c-1.7,3.9-4.19,5.85-7.47,5.85h-1.79
				c-2.2-0.06-4.09-1.31-5.67-3.76h5.44c3.76,0,5.64-1.34,5.64-4.03l0.03-15.29c0-2.12,1.35-3.66,4.06-4.64V145.5z"/>
			<path class="st9" d="M107.41,123.08c-0.02,0.02-0.05,0.03-0.09,0.03c-0.24,0-0.35-0.15-0.35-0.44c0-0.12,0.08-0.21,0.24-0.26
				l6.58-2.38c0.02-0.02,0.05-0.03,0.09-0.03c0.24,0,0.35,0.15,0.35,0.44c0,0.12-0.07,0.21-0.21,0.26L107.41,123.08z"/>
			<path class="st9" d="M112.52,145.5h11.52v4.17H97.09v-4.17H108v-6.58c0-0.94,0.35-2.12,1.06-3.53c-3.55,0.16-5.65,1.08-6.32,2.76
				h-3.29c0-1.53,0.27-2.63,0.82-3.29c1.69-2.21,3.93-3.32,6.73-3.32h6.61c2.98,0,5.33,1.42,7.05,4.26
				c0.27,0.53,0.41,1.09,0.41,1.68v0.68h-3.35c-0.49-1.7-2.58-2.63-6.26-2.76c0.67,1.45,1.02,2.57,1.06,3.35V145.5z"/>
			<path class="st9" d="M132.04,141.09c0,4.23-2.29,7.04-6.88,8.44l-1.18,0.15h-1.71l0.03-4.17h1.59c2.02,0,3.29-1.34,3.82-4.03
				v-20.9c2.88,1.06,4.32,2.74,4.32,5.06V141.09z"/>
			<path class="st9" d="M134.27,149.68v-29.1c2.84,1.06,4.26,2.74,4.26,5.06v24.04H134.27z"/>
		</g>
	</g>
	<g>
		<path class="st9" d="M78.13,26.65c0.1,0.02,0.2,0.04,0.3,0.06C78.31,26.77,78.21,26.73,78.13,26.65"/>
		<path class="st9" d="M95.99,32.91c-0.13,0.32-0.02,0.63,0.01,0.95c0.55,7.81-4.61,14.93-12.13,16.71
			c-7.77,1.84-15.57-2.09-18.59-9.42c-1.49-3.61-1.62-7.29-0.45-11.03c0.19-0.6,0.41-0.68,0.98-0.47c1.78,0.65,3.57,1.26,5.37,1.84
			c0.64,0.2,0.85,0.38,0.62,1.12c-1.15,3.74,0.42,7.74,3.73,9.77c3.34,2.04,7.6,1.61,10.43-1.06c2.84-2.68,3.55-6.91,1.72-10.34
			c-0.27-0.51-0.54-1.04-1.04-1.38c-1.16-1.75-2.88-2.62-4.86-3.01c-1.11-0.22-2.28-0.49-3.38,0.14c0,0,0.03-0.01,0.03-0.01
			c-0.1-0.02-0.2-0.04-0.3-0.06c-0.35-0.16-0.24-0.51-0.28-0.76c-0.29-1.93-0.53-3.86-0.84-5.78c-0.11-0.67,0.13-0.83,0.74-0.91
			c4.7-0.6,8.88,0.6,12.55,3.57c0.32,0.25,0.64,0.5,0.95,0.76c0.04,0.08,0.07,0.16,0.13,0.23c1.65,1.77,2.96,3.74,3.75,6.07
			C95.48,30.84,95.63,31.9,95.99,32.91"/>
		<path class="st9" d="M107.04,27.14c0.62,2.93,0.51,5.81-0.41,8.67c-0.19,0.57-0.39,0.7-0.97,0.48c-2.06-0.78-4.14-1.51-6.21-2.25
			c1.16-2.86,0.82-5.56-0.84-8.13c-1.39-2.03-3.44-3.07-5.68-3.85c-1.57-0.54-3.13-1.1-4.75-1.49c-0.56-0.14-0.78-0.3-0.55-0.93
			c2.3-6.14,6.67-9.88,13.14-10.71c6.52-0.84,11.78,1.67,15.42,7.15c2.85,4.29,3.3,8.98,1.73,13.88c-0.19,0.6-0.39,0.78-1.04,0.53
			c-2.04-0.78-4.1-1.48-6.15-2.21c0.56-1.3,0.81-2.65,0.7-4.06c-0.11-1.41-0.3-2.81-1.33-3.91c-1.38-2.49-3.58-3.75-6.32-4.12
			c-1.3-0.18-2.62-0.18-3.8,0.59c-0.11,0.01-0.28-0.03-0.33,0.03c-0.21,0.23,0.06,0.27,0.18,0.36c0.88,0.61,1.75,1.24,2.53,1.98
			C104.74,21.34,106.21,24.06,107.04,27.14"/>
		<path class="st5" d="M98.61,25.91c1.66,2.57,1.99,5.28,0.84,8.13c-1.15-0.38-2.3-0.76-3.46-1.14c-0.36-1.01-0.5-2.07-0.85-3.09
			c-0.79-2.33-2.1-4.3-3.75-6.07c-0.06-0.06-0.09-0.15-0.13-0.23c2.11,0.73,4.23,1.46,6.34,2.18
			C97.93,25.81,98.24,26.01,98.61,25.91"/>
		<path class="st5" d="M84.25,5.31c1.8-0.89,3.96-0.16,4.83,1.63c0.85,1.77,0.12,3.9-1.63,4.77c-1.76,0.88-3.89,0.18-4.77-1.58
			C81.75,8.3,82.43,6.21,84.25,5.31"/>
		<path class="st5" d="M78.4,26.72c1.1-0.62,2.27-0.36,3.38-0.14c1.97,0.4,3.7,1.26,4.86,3.01C83.86,28.71,81.1,27.8,78.4,26.72"/>
	</g>
</g>
</svg>
