<svg width="28" height="28" viewBox="0 0 28 28" fill="none" xmlns="http://www.w3.org/2000/svg">
<path d="M27.0604 5.73878L25.0976 5.73868V3.70695C25.0976 3.24179 24.7573 2.84659 24.2972 2.77776C24.2169 2.7657 22.3048 2.48796 20.0023 2.90692C17.4355 3.37396 15.3884 4.52573 14 6.26691C12.6115 4.52573 10.5644 3.37396 7.9976 2.90692C5.69501 2.48805 3.78291 2.7657 3.70268 2.77776C3.24262 2.84668 2.90228 3.24188 2.90228 3.70695V5.73868H0.939552C0.420753 5.73868 0 6.15944 0 6.67833V24.3838C0 24.688 0.147259 24.9734 0.395298 25.1497C0.643338 25.326 0.96133 25.3712 1.24859 25.2711C1.31911 25.2467 8.3599 22.8438 13.61 25.2386C13.8578 25.3516 14.1422 25.3516 14.39 25.2386C19.6254 22.8506 26.6813 25.2469 26.7514 25.2711C26.8521 25.3062 26.9564 25.3234 27.0603 25.3234C27.2529 25.3234 27.4435 25.2642 27.6047 25.1498C27.8527 24.9735 28 24.6881 28 24.3839V6.67843C27.9999 6.15953 27.5792 5.73878 27.0604 5.73878ZM1.8792 23.1266V7.61788H2.90228V20.1307C2.90228 20.4038 3.02173 20.663 3.22829 20.8415C3.43484 21.0199 3.70956 21.1 3.97957 21.0601C4.03142 21.0526 8.11318 20.4922 11.0953 22.5383C7.42186 21.9101 3.74529 22.6367 1.8792 23.1266ZM13.0604 21.6909C11.7469 20.5042 10.0361 19.7017 7.9976 19.3308C7.01657 19.1522 6.10643 19.1002 5.37862 19.1002C5.16254 19.1002 4.96249 19.1048 4.78157 19.1121V4.56976H4.78148C6.58733 4.4883 10.9803 4.68138 13.0604 8.20758V21.6909ZM14.9395 8.20767C17.0122 4.69656 21.412 4.49472 23.2184 4.57212V19.1121C22.4281 19.0802 21.2745 19.0993 20.0023 19.3308C17.9638 19.7017 16.253 20.5041 14.9395 21.6909V8.20767ZM16.9015 22.5388C19.884 20.4915 23.9679 21.0525 24.0188 21.06C24.2895 21.1006 24.564 21.0211 24.7712 20.8427C24.9785 20.6641 25.0976 20.4043 25.0976 20.1307V7.61798H26.1207V23.1266C24.254 22.6365 20.576 21.9096 16.9015 22.5388Z" fill="#656565"/>
</svg>
