<svg width="87" height="86" viewBox="0 0 87 86" fill="none" xmlns="http://www.w3.org/2000/svg">
<g clip-path="url(#clip0)">
<path d="M69.3563 42.1666C69.3563 58.9608 57.4132 72.5752 42.6808 72.5752C27.9483 72.5752 16.0052 58.9608 16.0052 42.1666C16.0052 25.3724 27.9483 11.758 42.6808 11.758C57.4132 11.758 69.3563 25.3724 69.3563 42.1666Z" fill="white"/>
<path d="M43.5 0.270297C34.8965 0.270297 26.4862 2.78428 19.3327 7.49433C12.1792 12.2044 6.60367 18.8989 3.31126 26.7315C0.0188478 34.564 -0.842597 43.1827 0.83586 51.4977C2.51432 59.8126 6.65729 67.4504 12.7409 73.4452C18.8245 79.4399 26.5754 83.5224 35.0136 85.1763C43.4518 86.8303 52.1982 85.9814 60.1467 82.7371C68.0953 79.4928 74.8891 73.9987 79.6689 66.9496C84.4488 59.9005 87 51.613 87 43.1351C87 31.7667 82.417 20.8638 74.2591 12.8251C66.1013 4.7864 55.0369 0.270297 43.5 0.270297ZM43.5 61.5058C39.8128 61.5058 36.2084 60.4284 33.1426 58.4098C30.0768 56.3912 27.6873 53.5221 26.2763 50.1653C24.8652 46.8085 24.496 43.1148 25.2154 39.5512C25.9347 35.9876 27.7103 32.7143 30.3175 30.1451C32.9248 27.576 36.2466 25.8263 39.863 25.1175C43.4793 24.4086 47.2278 24.7724 50.6343 26.1629C54.0409 27.5533 56.9525 29.9079 59.001 32.929C61.0495 35.95 62.1429 39.5018 62.1429 43.1351C62.1429 48.0073 60.1787 52.68 56.6825 56.1252C53.1863 59.5703 48.4444 61.5058 43.5 61.5058Z" fill="#EE3442"/>
</g>
<defs>
<clipPath id="clip0">
<rect width="87" height="86" fill="white"/>
</clipPath>
</defs>
</svg>
