<svg width="35" height="35" viewBox="0 0 35 35" fill="none" xmlns="http://www.w3.org/2000/svg">
<path d="M21.3871 9.53741H14.0528C9.66243 9.53741 6.09033 13.1095 6.09033 17.4999C6.09033 18.0799 6.56038 18.5499 7.14033 18.5499C7.72028 18.5499 8.19033 18.0799 8.19033 17.4999C8.19033 14.2673 10.8202 11.6374 14.0528 11.6374H21.3871C24.6197 11.6374 27.2496 14.2673 27.2496 17.4999C27.2496 20.7325 24.6197 23.3624 21.3871 23.3624H16.6544V21.8193C16.6544 21.4441 16.4542 21.0976 16.1294 20.91C15.8046 20.7224 15.4042 20.7224 15.0794 20.91L10.5875 23.5031C10.2627 23.6907 10.0625 24.0372 10.0625 24.4124C10.0625 24.7876 10.2627 25.1341 10.5875 25.3217L15.0794 27.9149C15.2418 28.0087 15.4231 28.0556 15.6044 28.0556C15.7857 28.0556 15.967 28.0087 16.1294 27.9149C16.4542 27.7273 16.6544 27.3808 16.6544 27.0056V25.4624H21.3871C25.7775 25.4624 29.3496 21.8903 29.3496 17.4999C29.3496 13.1095 25.7775 9.53741 21.3871 9.53741Z" fill="#757085"/>
</svg>
