<svg width="46" height="46" viewBox="0 0 46 46" fill="none" xmlns="http://www.w3.org/2000/svg">
<g clip-path="url(#clip0)">
<path d="M15.9467 2.34037e-08C15.705 -3.81588e-05 15.4658 0.0475304 15.2425 0.139986C15.0193 0.232441 14.8164 0.367972 14.6455 0.538839C14.4747 0.709707 14.3391 0.912564 14.2467 1.13582C14.1542 1.35908 14.1067 1.59836 14.1067 1.84V44.16C14.1067 44.648 14.3005 45.116 14.6456 45.4611C14.9907 45.8061 15.4587 46 15.9467 46C16.4347 46 16.9027 45.8061 17.2478 45.4611C17.5928 45.116 17.7867 44.648 17.7867 44.16V1.84C17.7867 1.59836 17.7392 1.35907 17.6467 1.13582C17.5543 0.91256 17.4187 0.709707 17.2479 0.538839C17.077 0.367972 16.8741 0.232438 16.6509 0.139984C16.4276 0.0475286 16.1883 -3.8519e-05 15.9467 2.34037e-08Z" fill="white"/>
<path d="M8.89334 8.22852C8.6517 8.22848 8.41242 8.27604 8.18916 8.3685C7.96591 8.46095 7.76305 8.59649 7.59218 8.76735C7.42132 8.93822 7.28578 9.14108 7.19333 9.36433C7.10087 9.58759 7.05331 9.82687 7.05334 10.0685V35.9309C7.05334 36.4189 7.2472 36.8869 7.59227 37.232C7.93734 37.5771 8.40535 37.7709 8.89334 37.7709C9.38134 37.7709 9.84936 37.5771 10.1944 37.232C10.5395 36.8869 10.7333 36.4189 10.7333 35.9309V10.0685C10.7334 9.82687 10.6858 9.58759 10.5934 9.36433C10.5009 9.14108 10.3654 8.93822 10.1945 8.76735C10.0236 8.59649 9.82079 8.46095 9.59753 8.3685C9.37427 8.27604 9.13499 8.22848 8.89334 8.22852Z" fill="white"/>
<path d="M23 8.22852C22.7584 8.22848 22.5191 8.27604 22.2959 8.3685C22.0726 8.46095 21.8697 8.59649 21.6989 8.76735C21.528 8.93822 21.3925 9.14108 21.3 9.36433C21.2076 9.58759 21.16 9.82687 21.16 10.0685V35.9309C21.16 36.4189 21.3539 36.8869 21.699 37.232C22.044 37.5771 22.512 37.7709 23 37.7709C23.488 37.7709 23.9561 37.5771 24.3011 37.232C24.6462 36.8869 24.84 36.4189 24.84 35.9309V10.0685C24.8401 9.82687 24.7925 9.58759 24.7001 9.36433C24.6076 9.14108 24.4721 8.93822 24.3012 8.76735C24.1303 8.59649 23.9275 8.46095 23.7042 8.3685C23.481 8.27604 23.2417 8.22848 23 8.22852Z" fill="white"/>
<path d="M37.1066 8.22852C36.865 8.22848 36.6257 8.27604 36.4024 8.3685C36.1792 8.46095 35.9763 8.59649 35.8054 8.76735C35.6346 8.93822 35.499 9.14108 35.4066 9.36433C35.3141 9.58759 35.2666 9.82687 35.2666 10.0685V35.9309C35.2666 36.4189 35.4605 36.8869 35.8055 37.232C36.1506 37.5771 36.6186 37.7709 37.1066 37.7709C37.5946 37.7709 38.0626 37.5771 38.4077 37.232C38.7527 36.8869 38.9466 36.4189 38.9466 35.9309V10.0685C38.9466 9.82687 38.8991 9.58759 38.8066 9.36433C38.7142 9.14108 38.5786 8.93822 38.4078 8.76735C38.2369 8.59649 38.034 8.46095 37.8108 8.3685C37.5875 8.27604 37.3482 8.22848 37.1066 8.22852Z" fill="white"/>
<path d="M30.0534 15.2819C29.8117 15.2818 29.5725 15.3294 29.3492 15.4218C29.1259 15.5143 28.9231 15.6498 28.7522 15.8207C28.5813 15.9916 28.4458 16.1944 28.3534 16.4177C28.2609 16.6409 28.2133 16.8802 28.2134 17.1219V28.8776C28.2134 29.3656 28.4072 29.8336 28.7523 30.1787C29.0974 30.5238 29.5654 30.7176 30.0534 30.7176C30.5414 30.7176 31.0094 30.5238 31.3545 30.1787C31.6995 29.8336 31.8934 29.3656 31.8934 28.8776V17.1219C31.8934 16.8802 31.8459 16.6409 31.7534 16.4177C31.6609 16.1944 31.5254 15.9916 31.3545 15.8207C31.1837 15.6498 30.9808 15.5143 30.7576 15.4218C30.5343 15.3294 30.295 15.2818 30.0534 15.2819Z" fill="white"/>
<path d="M44.1599 15.2819C43.9183 15.2818 43.679 15.3294 43.4558 15.4218C43.2325 15.5143 43.0297 15.6498 42.8588 15.8207C42.6879 15.9916 42.5524 16.1944 42.4599 16.4177C42.3675 16.6409 42.3199 16.8802 42.3199 17.1219V28.8776C42.3199 29.3656 42.5138 29.8336 42.8589 30.1787C43.2039 30.5238 43.6719 30.7176 44.1599 30.7176C44.6479 30.7176 45.116 30.5238 45.461 30.1787C45.8061 29.8336 45.9999 29.3656 45.9999 28.8776V17.1219C46 16.8802 45.9524 16.6409 45.86 16.4177C45.7675 16.1944 45.632 15.9916 45.4611 15.8207C45.2902 15.6498 45.0874 15.5143 44.8641 15.4218C44.6409 15.3294 44.4016 15.2818 44.1599 15.2819Z" fill="white"/>
<path d="M1.84 15.2819C1.59836 15.2818 1.35907 15.3294 1.13582 15.4218C0.912562 15.5143 0.709707 15.6498 0.538839 15.8207C0.367972 15.9916 0.232439 16.1944 0.139984 16.4177C0.0475284 16.6409 -3.85191e-05 16.8802 2.34039e-08 17.1219V28.8776C1.32198e-08 29.1193 0.0475943 29.3585 0.140063 29.5818C0.232532 29.805 0.368065 30.0078 0.538925 30.1787C0.709785 30.3496 0.912625 30.4851 1.13586 30.5776C1.3591 30.67 1.59837 30.7176 1.84 30.7176C2.08163 30.7176 2.3209 30.67 2.54414 30.5776C2.76738 30.4851 2.97022 30.3496 3.14108 30.1787C3.31194 30.0078 3.44747 29.805 3.53994 29.5818C3.63241 29.3585 3.68 29.1193 3.68 28.8776V17.1219C3.68004 16.8802 3.63247 16.6409 3.54002 16.4177C3.44756 16.1944 3.31203 15.9916 3.14116 15.8207C2.9703 15.6498 2.76744 15.5143 2.54418 15.4218C2.32093 15.3294 2.08164 15.2818 1.84 15.2819Z" fill="white"/>
</g>
<defs>
<clipPath id="clip0">
<rect width="46" height="46" fill="white"/>
</clipPath>
</defs>
</svg>
