<svg width="32" height="23" viewBox="0 0 32 23" fill="none" xmlns="http://www.w3.org/2000/svg">
<g clip-path="url(#clip0)">
<path d="M24.8557 -0.396362C26.8263 0.640861 28.5106 2.17845 29.751 4.07261C30.9915 5.96677 31.7475 8.15561 31.9485 10.4344V12.8887C31.7552 15.107 31.0359 17.2415 29.8543 19.103C28.6728 20.9644 27.0656 22.4952 25.1753 23.5594L23.9279 21.0732C25.5815 20.1329 26.9556 18.7431 27.9021 17.0537C28.8485 15.3644 29.3314 13.4396 29.2985 11.4871C29.2656 9.53452 28.7182 7.62833 27.7154 5.97416C26.7127 4.31999 25.2925 2.98063 23.6083 2.10059L24.8557 -0.396362Z" fill="#00C6C2"/>
<path d="M22.5773 4.14935C23.7862 4.88581 24.7897 5.9345 25.4896 7.19281C26.1895 8.45112 26.5618 9.87594 26.5701 11.3279C26.5784 12.7798 26.2225 14.2091 25.537 15.4759C24.8516 16.7427 23.8601 17.8036 22.6597 18.5548L21.4123 16.0579C22.1721 15.5452 22.7948 14.8427 23.2233 14.0153C23.6517 13.1879 23.872 12.2621 23.8637 11.3234C23.8555 10.3847 23.6191 9.46319 23.1763 8.64394C22.7334 7.82468 22.0984 7.13402 21.3298 6.63563L22.5773 4.14935Z" fill="#00C6C2"/>
<path d="M6.18182 6.13333H0V16.8667H6.18182L17 23V0L6.18182 6.13333Z" fill="#00C6C2"/>
</g>
<defs>
<clipPath id="clip0">
<rect width="32" height="23" fill="white"/>
</clipPath>
</defs>
</svg>
