<svg width="170" height="170" viewBox="0 0 170 170" fill="none" xmlns="http://www.w3.org/2000/svg">
<path d="M85.5001 9C43.2533 9 9 43.2533 9 85.5001C9 127.747 43.2533 162 85.5001 162C127.747 162 162 127.747 162 85.5001C162 43.2533 127.747 9 85.5001 9ZM85.5001 159.33C44.7833 159.33 11.6697 126.216 11.6697 85.5001C11.6697 44.7833 44.7833 11.6697 85.5001 11.6697C126.217 11.6697 159.33 44.7833 159.33 85.5001C159.33 126.216 126.217 159.33 85.5001 159.33Z" fill="white"/>
<path d="M120.294 87.6478C120.688 102.07 115.155 115.243 105.897 126.936C102.548 131.163 98.4607 136.704 92.4033 131.409C87.0353 126.722 90.8274 122.265 94.3896 117.99C111.593 97.3341 111.478 72.699 94.2747 52.1094C93.339 50.9912 92.4197 49.8564 91.3855 48.8533C88.2665 45.8602 86.8383 42.4067 90.22 39.0189C93.7165 35.5325 97.4429 36.2561 100.742 39.8906C112.874 53.2113 120.819 68.2588 120.294 87.6478Z" fill="white"/>
<path d="M93.6676 83.7174C93.7169 96.4296 90.1875 105.458 84.4584 113.796C81.8319 117.61 79.0413 121.378 73.9852 118.154C68.8471 114.882 69.7828 110.523 73.148 106.247C79.0741 98.732 80.9455 90.131 79.5501 80.8065C78.6144 74.6231 75.4462 69.4099 71.6214 64.5585C68.962 61.1872 68.2561 57.5693 71.9661 54.5762C76.0208 51.3036 79.4681 52.9973 82.4229 56.5988C89.4324 65.2326 93.3393 75.0178 93.6676 83.7174Z" fill="white"/>
<path d="M66.8607 86.2336C66.2534 92.1868 65.4162 97.8111 60.3109 101.84C57.7008 103.912 55.1071 104.767 52.5462 102.498C50.0346 100.278 49.9361 97.6466 52.3 94.8674C56.8472 89.4897 57.0113 83.9312 52.4642 78.3563C50.4286 75.8566 49.7227 73.2253 52.4149 70.6434C55.5011 67.6997 58.2425 69.2949 60.869 71.4163C65.6132 75.2645 65.9086 80.9217 66.8607 86.2336Z" fill="white"/>
<path fill-rule="evenodd" clip-rule="evenodd" d="M85.5 167C130.511 167 167 130.511 167 85.5C167 40.4888 130.511 4 85.5 4C40.4888 4 4 40.4888 4 85.5C4 130.511 40.4888 167 85.5 167ZM85.6364 161.003C127.26 161.003 161.003 127.26 161.003 85.6362C161.003 44.0122 127.26 10.2692 85.6364 10.2692C44.0123 10.2692 10.2693 44.0122 10.2693 85.6362C10.2693 127.26 44.0123 161.003 85.6364 161.003Z" fill="white"/>
</svg>
