<svg width="55" height="45" viewBox="0 0 55 45" fill="none" xmlns="http://www.w3.org/2000/svg">
<g clip-path="url(#clip0)">
<path d="M53.5204 6.16921C54.3365 6.16921 55 5.4813 55 4.63587V1.51859C55 0.673164 54.3365 -0.01474 53.5204 -0.01474H1.43649C0.620659 -0.01474 -0.0431595 0.673164 -0.0431595 1.51859V4.63587C-0.0431595 5.4813 0.620659 6.16921 1.43649 6.16921H1.77663V38.2051H1.43649C0.620659 38.2051 -0.0431595 38.8927 -0.0431595 39.7384V42.8554C-0.0431595 43.7011 0.620659 44.3887 1.43649 44.3887H53.5204C54.3365 44.3887 55 43.7011 55 42.8554V39.7384C55 38.8927 54.3365 38.2051 53.5204 38.2051H53.1799V6.16921H53.5204ZM51.4043 40.3769H3.55221V3.99738H51.4043V40.3769ZM21.0857 30.58V14.2596C21.0857 13.9308 21.255 13.6271 21.5296 13.463C21.8041 13.2983 22.1428 13.2983 22.4173 13.463L36.0561 21.6232C36.3307 21.7873 36.5 22.091 36.5 22.4198C36.5 22.7486 36.3307 23.0523 36.0561 23.2164L22.4173 31.3766C22.2801 31.4587 22.1266 31.5 21.9734 31.5C21.8203 31.5 21.6668 31.4587 21.5296 31.3766C21.255 31.2125 21.0857 30.9088 21.0857 30.58Z" fill="white"/>
</g>
<defs>
<clipPath id="clip0">
<rect width="55" height="45" fill="white"/>
</clipPath>
</defs>
</svg>
