<svg width="50" height="52" viewBox="0 0 50 52" fill="none" xmlns="http://www.w3.org/2000/svg">
<path d="M49.3617 16.7767L32.6563 0.767231C32.4881 0.605141 32.2902 0.478468 32.0739 0.394407C31.8576 0.310401 31.6271 0.270612 31.3956 0.277419C31.1642 0.284281 30.9363 0.337518 30.7251 0.434141C30.5139 0.530764 30.3235 0.668892 30.1649 0.840556C30.0062 1.01222 29.8823 1.2141 29.8004 1.43463C29.7184 1.6551 29.6801 1.88991 29.6874 2.1256C29.6947 2.36124 29.7477 2.59306 29.8432 2.80783C29.9386 3.02266 30.0748 3.21613 30.2438 3.37722L46.9492 19.3868C47.2893 19.7114 47.742 19.8854 48.208 19.8705C48.6739 19.8557 49.115 19.6532 49.4345 19.3075C49.754 18.9619 49.9258 18.5013 49.9121 18.0268C49.8984 17.5523 49.7005 17.1027 49.3617 16.7767Z" fill="white"/>
<path d="M43.4346 19.9033L29.9502 6.98059C26.2146 11.0222 18.4782 14.9599 13.4483 17.4332C9.74637 19.2571 8.32186 22.2325 7.7648 26.1422C6.52735 34.7015 5.76681 39.0694 3.82327 45.2408C3.72692 45.5181 3.57186 45.7704 3.36898 45.9802C3.16615 46.1899 2.92056 46.3515 2.64952 46.4539C2.41387 46.5529 2.20643 46.7106 2.04605 46.9126C1.88572 47.1141 1.77757 47.3537 1.73154 47.6094C1.68545 47.8645 1.703 48.1273 1.78246 48.3742C1.86197 48.6204 2.00088 48.8429 2.18654 49.0211L23.6884 25.7579C23.3553 25.0532 23.2748 24.2521 23.4611 23.4934C23.6473 22.7348 24.0885 22.0664 24.7081 21.6043C25.3277 21.1422 26.0866 20.9155 26.8532 20.9635C27.6197 21.0116 28.3456 21.3313 28.9049 21.8672C29.4641 22.4032 29.8215 23.1216 29.915 23.8978C30.0085 24.674 29.8322 25.459 29.4168 26.1168C29.0013 26.7745 28.3728 27.2634 27.6404 27.4987C26.908 27.7339 26.1178 27.7007 25.4069 27.4047L3.90501 50.668C4.09061 50.8456 4.31708 50.9735 4.56365 51.0393C4.81023 51.1052 5.06909 51.1068 5.31653 51.0449C5.56403 50.9823 5.79224 50.8578 5.98034 50.6829C6.16844 50.5075 6.31039 50.2873 6.39327 50.0415C6.47713 49.7599 6.62077 49.5009 6.81404 49.2817C7.0073 49.0631 7.2455 48.8899 7.5117 48.7754C13.4434 46.4262 17.679 45.3886 25.9945 43.6127C29.7934 42.8097 32.6239 41.1816 34.1876 37.3085C36.3075 32.0465 39.6989 23.9449 43.4346 19.9033Z" fill="white"/>
</svg>
