<svg xmlns="http://www.w3.org/2000/svg" width="80" height="36" fill="none"><path fill="url(#a)" fill-opacity=".8" fill-rule="evenodd" d="M32.546 10.302c.79-2.16.292-4.674-1.352-6.352-2.67-2.593-9.11-4.18-16.617-1.735-2.706.882-6.872 2.56-10.543 6.604-3.673 4.04-5.49 10.423-2.622 14.972 2.09 3.314 6.39 5.296 11.265 5.21 3.531-.06 7.506-1.828 11.041-4.543-.68 2.025.42 3.296 1.704 3.653 2.844.768 5.01-2.503 5.01-2.503 0 .02.002.037.003.056.07 1.084.102 1.582 1.11 2.138 1.73.947 2.928-.344 3.555-1.417.126.816.779 1.717 1.667 1.848 1.402.22 2.686-.785 3.484-1.74 2.815-3.372 3.943-7.78 3.886-12.055.69.136 1.204.1 1.81.058l.265-.017c.408-.024.73-.047 1.138-.1-1.267 2.339-2.34 4.826-3.015 7.502l-.002.01c-.374 1.782-.808 3.849.13 5.362.394.688 1.123 1.071 1.952 1.014 1.048-.033 2.204-1.153 2.785-2.042.394-.532 1.107-1.863 1.444-2.81.152-.057.304-.111.456-.165a11.94 11.94 0 0 0 1.104-.434 8.26 8.26 0 0 0 .271-.121c-.467 1.043-.98 2.245-1.008 3.408-.033.806.272 1.603.978 1.98 1.167.57 2.845-.698 3.823-1.438l.023-.017c.133.5.321 1.04.786 1.34.55.35 1.428.312 2.092-.153 1.638-1.146 2.78-2.897 3.887-4.596.206-.314.41-.628.616-.935l.139-.201a4.042 4.042 0 0 0 1.193-.188c-.558.822-1.07 1.694-1.442 2.626-.464 1.136-.67 2.686.179 3.557.447.404 1.217.259 1.661.057 1.383-.678 2.5-1.866 3.533-2.963l.146-.155.078-.076c-.213.72-.343 1.728-.14 2.431.113.416.478.832.888.905 1.072.146 1.876-.54 2.67-1.219.139-.118.277-.236.417-.35.087-.07.18-.158.264-.235.07-.064.131-.122.177-.159-.382.795-.855 1.614-1.326 2.431-.397.688-.793 1.374-1.134 2.043a9.343 9.343 0 0 1-.124.232c-.226.415-.568 1.04-.563 1.505.007.639.349 1.17 1.21 1.487.163.06.272 0 .316-.119.046-1.037.467-1.787 1.233-3.12l1.006-1.83a507.217 507.217 0 0 0 3.48-6.391c.328-.63.72-1.612.251-2.269-.176-.182-.4-.255-.672-.239-.389.043-.71.314-.919.642-.245.349-.484.704-.723 1.06-.806 1.2-1.62 2.412-2.714 3.413-.422.39-.986.868-1.456.733-.116-.036-.195-.122-.202-.377.037-1.263.861-2.485 1.607-3.59.111-.165.22-.327.325-.486.266-.353.514-.882.424-1.305a.655.655 0 0 0-.427-.462c-.597-.188-1.082.217-1.506.611a53.73 53.73 0 0 0-1.44 1.641c-1.115 1.307-2.255 2.642-3.619 3.67a5.258 5.258 0 0 0-.133.084c-.24.155-.493.318-.778.217-.142-.06-.23-.202-.233-.41.02-.88.595-2.058 1.225-2.933.16-.222.316-.41.465-.59.279-.336.534-.643.741-1.081.152-.367.123-.738-.18-1.022a.71.71 0 0 0-.648-.155 7.147 7.147 0 0 0-.53.162c-.398.133-.798.266-1.234.238.042-.073.085-.145.128-.216.19-.316.375-.624.448-.996.06-.39.05-.846-.265-1.087-.309-.209-.756-.228-1.14-.036-1.134.667-1.569 2.12-1.459 3.385-.667 1.404-1.734 2.63-2.862 3.678l-.114.092c-.368.3-.75.61-1.221.549-.342-.086-.441-.368-.421-.807l.315-.35c.665-.738 1.377-1.528 1.842-2.345.421-.737 1.028-1.884.733-2.763-.053-.21-.269-.399-.533-.445-.491-.109-.945.158-1.32.439-1.481 1.28-2.208 3.029-2.715 4.87-.348.541-.82 1.067-1.409 1.394-.282.162-.716.277-.979.059a.75.75 0 0 1-.178-.575c.113-1.093.738-2.034 1.336-2.933l.156-.235c.439-.663.827-1.114 1.132-1.468.491-.57.765-.888.682-1.44a.87.87 0 0 0-.604-.686c-.384-.141-.895-.03-1.233.28l-.072.07c-.74.723-1.51 1.474-2.432 1.989l-.174.09c-.486.251-.935.483-1.6.587.056-.383.067-.78.044-1.15-.073-1.179-.485-2.417-1.78-2.662-.451-.086-.94.03-1.29.139.57-1.534 1.386-2.974 2.5-4.155.218-.232.466-.457.71-.68.515-.468 1.014-.923 1.196-1.389a.97.97 0 0 0-.193-1.054c-.29-.258-.63-.346-1.054-.262-.875.236-1.545.959-2.131 1.627-.932.611-2.112.69-3.274.65-1.556 0-2.379-.657-3.123-1.797-.208-.275-.477-.589-.868-.655-.4-.108-.894.152-1.123.388-.289.277-.414.73-.293 1.1.145.393.313.771.481 1.148.429.963.856 1.924.893 3.156.01.4 0 .79-.1 1.175-3.272.922-5.81 3.96-6.505 7.163-.07.113-.141.236-.216.366-.496.855-1.139 1.962-2.068 1.668-.52-.256-.819-2.265 2.095-7.217.055-.148.115-.296.176-.444.26-.64.526-1.293.35-2.008-.129-.498-.678-.726-1.129-.828-3.504-.532-6.615 2.734-8.947 5.182l-.316.331c-2.867 2.718-5.805 4.04-8.593 4.622-6.84 1.434-13.407-1.447-12.16-8.24 1.186-6.464 6.987-12.774 16.313-14.065 7.209-.998 10.96 2.248 9.89 6.064-.52 1.857-3.265 7.268-12.157 8.087-1.53.14-4.131-.31-4.857-1.78-1.134-2.332.05-4.529 1.518-5.917 2.507-2.213 6.024-3.059 9.445-3.038.276.015.525-.047.74-.308.13-.179.173-.367.139-.644-.086-.387-.394-.549-.73-.602-3.036-.34-6.036.206-8.576 1.424-3.047 1.602-5.626 4.03-6.247 7.37-.387 2.184.565 4.493 2.554 5.587 2.224 1.133 5.731.866 8.155.32 5.123-1.37 10-4.784 11.88-9.574ZM26.64 23.788c1.098-2.23 3.046-4.975 5.377-6.29l.008-.003c.307-.146 1.032-.492 1.272-.014.066.275-.122.853-.289 1.127-1.525 2.504-3.869 5.87-5.059 6.663-1.615 1.074-1.876-.64-1.31-1.483Zm11.407-1.283c.63-1.463 1.817-2.876 3.454-3.333l.087-.02c-.182 1.51-.826 2.901-1.558 4.203-.399.623-.873 1.32-1.526 1.77-.191.14-.526.277-.719.04-.467-.627-.069-1.894.262-2.66Zm9.866-2.896c-.851.438-1.336 1.856-1.502 2.642-.205.987-.395 2.333.056 2.924.104.1.24.172.405.168.676.014 1.147-1.027 1.412-1.625.444-.994.843-2.567.7-3.571-.054-.518-.55-.747-1.071-.538Z" clip-rule="evenodd"/><defs><linearGradient id="a" x1="0" x2="78" y1="17.518" y2="17.518" gradientUnits="userSpaceOnUse"><stop stop-color="#6366F1"/><stop offset="1" stop-color="#818CF8"/></linearGradient></defs></svg>