<svg xmlns="http://www.w3.org/2000/svg" width="88" height="36" fill="none"><path fill="url(#a)" fill-opacity=".8" fill-rule="evenodd" d="M41.834 5.155c24.27-4.203 44.915-2.07 46.112 4.763.606 3.462-3.901 7.464-11.643 11.12.22-.32.36-.695.4-1.138.03-.314.032-.44.033-.61v-2.505h-3.345v1.408h.946V19.5c.001.096-.001.232-.022.346-.01.066-.132.647-.913.647-.788 0-.909-.581-.92-.647a1.896 1.896 0 0 1-.021-.346v-4.219c0-.17.012-.323.037-.43.044-.194.219-.647.895-.647.685 0 .852.452.891.647.027.127.03.332.03.344v.547h2.404v-.378c0-.094.002-.339-.022-.569-.188-1.909-1.894-2.306-3.286-2.306-1.798 0-3.095.673-3.292 2.305a6.335 6.335 0 0 0-.039.613v3.882c0 .175.005.304.032.611.154 1.689 1.637 2.308 3.298 2.308.072 0 .14-.005.209-.01l.11-.007c-7.3 3.099-16.892 5.863-27.561 7.71C21.896 34.104 1.252 31.974.054 25.14c-.614-3.513 4.036-7.582 11.987-11.28-.102.209-.173.43-.212.659-.075.46-.067.825.023 1.253.234 1.095 1.423 1.742 2.483 2.318.783.427 1.495.814 1.696 1.314.083.209.063.481.017.666-.099.402-.386.599-.876.599-.519 0-.899-.288-.899-.808l-.001-.926H11.72l-.001.743c0 1.571.982 2.71 3.401 2.71 1.733 0 3.095-.594 3.315-2.135.108-.753.04-1.279-.01-1.524-.224-1.107-1.503-1.789-2.59-2.367-.79-.42-1.477-.787-1.584-1.222a1.139 1.139 0 0 1-.01-.473c.09-.396.365-.597.813-.597.532 0 .833.31.833.808v.599h2.38v-.678c0-.66-.196-1.19-.584-1.577-.496-.492-1.313-.743-2.414-.767 7.168-2.93 16.372-5.534 26.565-7.3ZM23.792 13.8l1.218 8.228h2.552l-1.716-9.292H21.66l-1.726 9.292H22.5l1.25-8.228h.043Zm13.563 8.228-.057-8.07h-.04l-1.51 8.07h-2.41l-1.502-8.07h-.043l-.055 8.07h-2.386l.207-9.292h3.838l1.118 6.902h.055l1.12-6.902h3.838l.206 9.292h-2.38Zm7.954.314c1.253 0 3.026-.314 3.283-2.114.107-.75.039-1.268-.01-1.51-.223-1.095-1.489-1.767-2.565-2.339-.785-.416-1.468-.78-1.575-1.214a1.124 1.124 0 0 1-.011-.467c.09-.392.362-.591.813-.591.508 0 .824.293.824.8v.59h2.357v-.67c0-.653-.195-1.178-.58-1.56-.515-.513-1.374-.77-2.555-.77-1.32 0-2.96.353-3.237 2.053-.075.456-.069.817.023 1.242.228 1.079 1.41 1.724 2.46 2.298.775.423 1.479.808 1.676 1.298.08.204.062.474.016.66-.098.397-.382.59-.867.59-.543 0-.895-.303-.895-.8l-.002-.914h-2.52l-.002.734c0 1.8 1.287 2.684 3.367 2.684Zm12.013-2.958c.004.174-.014.522-.023.612-.144 1.53-1.245 2.309-3.264 2.309-2.027 0-3.13-.778-3.272-2.31a7.354 7.354 0 0 1-.023-.61v-6.65h2.411v6.86c-.002.154.005.267.02.346.03.152.183.648.864.648.678 0 .83-.496.863-.646.013-.082.022-.2.022-.348v-6.86h2.402v6.649Zm7.035 2.549h3.356v-9.197h-2.356l.123 7.07h-.049l-2.081-7.07h-3.497v9.197h2.34l-.126-7.36h.038l2.252 7.36Z" clip-rule="evenodd"/><defs><linearGradient id="a" x1="0" x2="88" y1="17.528" y2="17.528" gradientUnits="userSpaceOnUse"><stop stop-color="#6366F1"/><stop offset="1" stop-color="#818CF8"/></linearGradient></defs></svg>