<svg xmlns="http://www.w3.org/2000/svg" width="89" height="36" fill="none"><path fill="url(#a)" fill-opacity=".8" fill-rule="evenodd" d="M45.275 14.364c.986-.537 1.972-.806 3.227-.806 3.048 0 5.38 2.69 5.38 6.365 0 4.663-2.87 7.621-7.621 7.621-1.704 0-3.408-.269-5.022-.628.09-1.883.18-13.358 0-15.51-.177-1.076-.448-1.524-1.254-1.703l-.627-.09v-.538L45.365 8c-.09.896-.09 3.496-.09 6.364Zm.089 12.105c.268.089.717.089 1.076.089 1.883 0 3.228-2.779 3.228-6.366 0-2.869-1.075-5.2-3.05-5.2-.448 0-.806.09-1.344.27-.09 4.661 0 9.952.09 11.207ZM.984 8.359h15.78l.09 5.289-.897.27c-.896-2.691-2.151-4.215-4.572-4.215H8.247c-.09 1.704-.18 4.572-.18 7.62l2.152-.09c1.345 0 1.971-1.075 2.24-2.599h.808v6.364h-.807c-.27-1.524-.896-2.6-2.241-2.6l-2.152-.09c0 2.33.09 4.214.18 5.38.179 1.704.627 2.51 1.793 2.6l1.075.18v.717H.985v-.717l.896-.18c1.166-.09 1.613-.896 1.792-2.6.18-2.778.27-8.606 0-11.834-.178-1.703-.627-2.42-1.792-2.6l-.897-.09v-.806ZM28.596 20.46c0-4.034-2.242-7.082-6.725-7.082s-6.993 3.227-6.993 7.082c0 4.035 2.241 7.084 6.724 7.084 4.483 0 6.994-3.229 6.994-7.084Zm-9.504 0c0-3.496.538-6.186 2.51-6.186 1.884 0 2.78 2.78 2.78 6.186 0 3.497-.54 6.186-2.6 6.186-1.794 0-2.69-2.78-2.69-6.186Zm42.854-7.082c-4.572 0-6.903 3.496-6.903 7.172 0 4.125 2.869 6.993 6.903 6.994 2.51 0 4.482-1.256 5.38-2.511l-.359-.448c-.897.628-1.614.986-3.049.986-3.228 0-4.841-2.421-4.751-5.738h8.338c0-3.676-1.794-6.455-5.559-6.455Zm1.434 5.379-4.213.09c.089-2.063.897-4.573 2.42-4.573 1.524 0 1.793 2.69 1.793 4.483Zm10.672-5.38c1.613 0 3.047.27 4.123.718l.092 3.497-.627.179c-.808-2.421-1.884-3.408-3.497-3.408-1.076 0-1.884.807-1.884 1.973s.896 1.793 3.407 2.78c2.33.896 3.318 1.972 3.318 3.855 0 2.778-2.242 4.572-5.74 4.572-1.703 0-3.675-.359-4.75-.807l-.09-3.944.627-.18c.986 2.69 2.242 3.675 3.945 3.675 1.434 0 2.242-.986 2.242-2.061 0-1.076-.629-1.704-2.87-2.51-2.154-.718-3.676-1.704-3.676-4.035 0-2.331 2.063-4.303 5.38-4.303Zm-39.45 3.14c1.434-3.229 4.125-3.676 5.648-2.78l-1.434 3.676c-1.793-1.166-3.766-.628-4.214 0-.09 2.151-.09 5.558.09 7.262.09 1.075.359 1.613 1.255 1.703l1.076.09v.717h-8.338v-.717l.628-.09c.807-.09 1.165-.628 1.255-1.703.09-1.882.18-5.648 0-7.8-.09-1.166-.448-1.614-1.255-1.704l-.628-.09v-.537l6.006-1.166-.089 3.138Z" clip-rule="evenodd"/><defs><linearGradient id="a" x1=".984" x2="78.984" y1="17.772" y2="17.772" gradientUnits="userSpaceOnUse"><stop stop-color="#6366F1"/><stop offset="1" stop-color="#818CF8"/></linearGradient></defs></svg>