<svg xmlns="http://www.w3.org/2000/svg" width="110" height="36" fill="none"><path fill="url(#a)" fill-opacity=".8" fill-rule="evenodd" d="m10.998 11.973-4.273 4.27-2.487-2.484L10.998 7l6.759 6.76-2.485 2.487-4.274-4.274Zm-8.516 3.541L-.004 18l2.486 2.486L4.967 18l-2.485-2.486Zm4.242 4.242 4.273 4.272 4.274-4.274 2.487 2.483-.002.002-6.759 6.76-6.76-6.757-.003-.003 2.49-2.483Zm12.785-4.24-2.486 2.486 2.486 2.486 2.486-2.486-2.486-2.486ZM13.519 18l-2.522-2.523-1.864 1.864-.216.214-.44.441-.004.004.003.005 2.521 2.52L13.52 18 13.52 18h-.001Zm17.763-5.667h-5.407v11.663h5.541a7.427 7.427 0 0 0 1.788-.2 4.181 4.181 0 0 0 1.382-.6c.371-.255.674-.6.88-1a3.03 3.03 0 0 0 .308-1.401v-.033c0-.776-.194-1.384-.58-1.824a3.936 3.936 0 0 0-1.594-1.043c.211-.11.409-.244.59-.4a2.713 2.713 0 0 0 .935-2.12v-.033a2.692 2.692 0 0 0-.798-1.966c-.688-.695-1.703-1.043-3.045-1.043Zm.808 4.424a2.674 2.674 0 0 1-1.35.292h-2.365v-2.466h2.53c.545 0 .961.103 1.25.308a1.03 1.03 0 0 1 .432.891v.033a1.008 1.008 0 0 1-.497.942Zm.671 4.684a2.467 2.467 0 0 1-1.338.308h-3.048v-2.572h2.97c.667 0 1.15.116 1.449.348a1.095 1.095 0 0 1 .45.924v.033a1.056 1.056 0 0 1-.483.96Zm6.235-9.108h2.566v11.666h-2.566V12.332Zm8.816 0h-2.367v11.666h2.537v-7.416l5.65 7.416h2.183V12.332h-2.533v7.18l-5.47-7.18Zm15.775-.084h2.363l4.999 11.75h-2.68l-1.066-2.617H62.27l-1.067 2.617h-2.617l5-11.75Zm2.7 6.867-1.553-3.784-1.547 3.784h3.1Zm9.802-6.783h-2.366v11.666h2.533v-7.416l5.649 7.416h2.184V12.332h-2.533v7.18l-5.467-7.18Zm17.235 11.871a6.07 6.07 0 0 1-2.384-.466 5.763 5.763 0 0 1-3.15-3.183 6.175 6.175 0 0 1-.45-2.35v-.034a6.053 6.053 0 0 1 1.701-4.259c.543-.557 1.193-1 1.912-1.3a6.238 6.238 0 0 1 2.465-.474c.5-.004 1 .041 1.491.134a6.2 6.2 0 0 1 1.227.367c.358.15.7.34 1.016.566.31.22.6.465.869.733l-1.632 1.884a6.2 6.2 0 0 0-1.39-.968 3.556 3.556 0 0 0-1.591-.348 3.229 3.229 0 0 0-2.433 1.067c-.304.34-.542.733-.702 1.16-.167.45-.251.928-.248 1.409v.033c-.002.48.082.956.248 1.407.158.428.394.823.695 1.166a3.209 3.209 0 0 0 2.433 1.084 3.565 3.565 0 0 0 1.69-.366c.5-.273.962-.61 1.375-1.001l1.633 1.65c-.288.313-.6.604-.933.87-.327.258-.682.479-1.058.658a5.482 5.482 0 0 1-1.258.415c-.502.1-1.013.15-1.526.146Zm16.589-11.871h-8.78l.005 11.666H110v-2.283h-6.334v-2.45h5.5v-2.283h-5.508v-2.367h6.255v-2.283Z" clip-rule="evenodd"/><defs><linearGradient id="a" x1="-.004" x2="110" y1="18" y2="18" gradientUnits="userSpaceOnUse"><stop stop-color="#6366F1"/><stop offset="1" stop-color="#818CF8"/></linearGradient></defs></svg>