<svg xmlns="http://www.w3.org/2000/svg" width="88" height="36" fill="none"><path fill="url(#a)" fill-opacity=".8" fill-rule="evenodd" d="M7.306 21.386c1.281 2.023 3.63 3.38 6.245 3.38 3.863 0 5.99-3.211 5.99-3.211l.273.855C18.026 24.65 14.831 26 11.256 26c-4.115 0-7.665-1.891-9.298-4.618C1.343 20.355 1 19.208 1 18c0-4.418 4.591-8 10.256-8 4.003 0 7.225 1.651 8.917 4.044l-6.716 3.873 3.833-5.668c-1.097-.664-2.442-1.286-3.833-1.286-3.932 0-7.17 3.16-7.17 6.947 0 1.268.374 2.46 1.02 3.476Zm17.982-.002c-.02.129-.03.26-.03.39 0 1.437 1.21 2.603 2.703 2.603 1.492 0 2.702-1.166 2.702-2.603 0-.131-.01-.262-.03-.392-.196-1.25-1.318-2.211-2.673-2.211s-2.477.96-2.672 2.213ZM36.66 25.74l-1.343-4.357-2.002-6.492s-1.264-3.316-5.254-1.918c-3.99 1.398-4.89 1.917-4.89 1.917h5.408l1.284 4.133c-.988-.84-2.433-1.37-4.043-1.37-2.836 0-5.16 1.645-5.372 3.73a3.23 3.23 0 0 0-.015.314c0 2.233 2.412 4.043 5.387 4.043 2.488 0 4.581-1.264 5.202-2.984l.926 2.984h4.712Zm13.72-4.357v4.357h-4.847v-9.574c0-.704-.593-1.276-1.325-1.276-.546 0-1.036.323-1.234.813V25.74h-4.759V14.89h-2.775s3.86-2.252 5.2-2.252c1.268 0 2.207.939 2.325 2.135.359-.187.718-.381 1.072-.572 1.486-.804 2.891-1.563 3.92-1.563 1.316 0 2.387 1.01 2.424 2.27v6.475Zm8.145 2.148-.675-2.148-2.038-6.492c.11-.847.977-1.665 1.886-1.665.919 0 1.675.668 1.774 1.527l2.014 6.63.574 1.888c.008.065.011.13.011.198 0 .95-.798 1.718-1.784 1.718-.964 0-1.75-.736-1.762-1.656Zm7.042-2.148C64.65 24.064 62.028 26 58.936 26c-3.092 0-5.715-1.935-6.633-4.618a6.485 6.485 0 0 1-.35-2.106c0-3.714 3.126-6.725 6.983-6.725 3.856 0 6.982 3.01 6.982 6.725 0 .736-.123 1.444-.35 2.107Zm8.027 4.357V15.703c.198-.49.689-.813 1.234-.813.732 0 1.325.572 1.325 1.276v9.574h4.848V14.908c-.036-1.26-1.108-2.27-2.424-2.27-1.028 0-2.433.76-3.919 1.562-.354.192-.713.386-1.073.573-.117-1.196-1.056-2.135-2.325-2.135-1.339 0-5.085 2.252-5.085 2.252h2.66v10.85h4.76Z" clip-rule="evenodd"/><defs><linearGradient id="a" x1="1" x2="81.002" y1="18" y2="18" gradientUnits="userSpaceOnUse"><stop stop-color="#6366F1"/><stop offset="1" stop-color="#818CF8"/></linearGradient></defs></svg>