<svg xmlns="http://www.w3.org/2000/svg" width="88" height="36" fill="none"><path fill="url(#a)" fill-opacity=".8" fill-rule="evenodd" d="M34.505 12.822c1.163-.178 1.785.213 2.119.885.13.263.337.51.395.843.116.665-.351 1.485-1.088 2.022-.572.418-1.32.63-2.004.694-.783.072-1.47.139-1.935.044-.466-.095-.71-.353-.965-.93-.244-.551.11-1.333.78-2.022.486-.502 1.169-.955 1.77-1.23.295-.137.65-.263.928-.306ZM1.66 11.62c-1.144.005-1.683-.528-1.66-1.04C.066 9.179 1.874 9.3 2.866 9.244c8.662-.482 19.483-.191 26.293.386 1.238.104 3.795.388 3.759 2.134-.014.624-.477 1.326-1.416 1.729-4.774 2.043-10.842 3.584-15.633 4.76 3.663 1.218 7.347 2.394 11.017 3.597.286.094.587.184.9.274.873-.796 1.755-1.582 2.646-2.358 1.01-.877 1.883-1.626 2.85-1.971 1.147-.409 2.663.061 3.904 1.6 1.261 1.606 2.413 2.702 4.358 1.248 1.463-1.367 3.843-3.631 5.633-4.55.46-.249 1.268-.385 1.725-.176.937.43.926.703 2.065.463 1.85-.39 4.482-.348 5.548 1.66.521.983.631 2.165.222 3.194-.805 2.024-3.437 4.47-6.575 4.948-2.53.385-5.366.025-6.713-2.538-.215-.409-.378-.333-.794-.032-2.222 1.602-4.609 1.979-7.28.159-1.183-.807-2.134-1.75-2.943-1.863l-1.4 1.31c.892.418 1.678.965 2.193 1.749.666 1.013.521 1.972-.798 1.802-.75-.096-1.73-.462-2.207-.597-7.04-1.995-13.925-3.955-20.905-6.02-.313 1.267-.825 2.579-1.503 3.693-1.113 1.83-2.587 1.575-3.025.067-1.038-3.575-.528-9.747.17-11.88.101-.309.131-.256.451-.268 1.763-.066 3.526-.09 5.29-.07.405.004.317.093.24.485-.245 1.235-.51 2.561-.867 3.83 3.373-.652 8.036-2.227 12.852-3.393.691-.163.685-.488.369-.553a313.819 313.819 0 0 0-11.635-.484c-2.507-.119-5.018-.017-7.524.065-.81.026-1.52.013-2.472-.024Zm47.907 8.406c.643-.28 1.277-.407 1.785-.348.663.075.994.456 1.066 1.033.06.49-.051.94-.508 1.333-.239.205-.599.395-1.025.567-.541.234-1.259.338-1.747.281-.46-.053-.702-.249-.894-.611-.215-.446-.109-1.03.363-1.554.23-.255.575-.484.96-.7Z" clip-rule="evenodd"/><defs><linearGradient id="a" x1="0" x2="56.985" y1="17.894" y2="17.894" gradientUnits="userSpaceOnUse"><stop stop-color="#6366F1"/><stop offset="1" stop-color="#818CF8"/></linearGradient></defs></svg>