<svg xmlns="http://www.w3.org/2000/svg" width="88" height="36" fill="none"><path fill="url(#a)" fill-opacity=".8" fill-rule="evenodd" d="M40.87 30h5.673l3.377-18.232h16.9l.168-.941H50.115l.356-2.069s.037-1.97 3.08-1.97h14.193L67.889 6H49.22s-3.872-.146-4.805 4.827H2.546l-.194.941H44.25L40.871 30ZM0 24.455h5.518l.874-4.714s.475-3.442 2.45-3.442c1.362 0 1.036 1.703 1.036 1.703l-1.224 6.413h5.6l.832-4.674s.475-3.442 2.45-3.442c1.362 0 1.036 1.703 1.036 1.703l-1.224 6.413h5.98l1.187-6.413s1.128-3.74-3.123-3.74c-4.252 0-5.72 2.506-5.72 2.506s.238-2.492-2.757-2.492c-2.994 0-5.95 2.378-5.95 2.378l.42-2.268H1.86L0 24.455Zm36.665-10.066c-10.2 0-11.546 3.244-11.774 6.646 0 0-.303 3.536 3.259 3.536 4.376 0 7.523-4.83 7.523-4.83l-.874 4.714 5.656-.02 1.86-10.032h-.053c-.527-.002-4.86-.014-5.597-.014Zm-4.442 7.046s-2.372.182-2.029-2.103c.703-4.663 6.353-4.32 6.353-4.32s-.855 6.422-4.324 6.422Zm28.159-7.814c8.387 0 5.382 5.196 5.382 5.196H55.111s-2.717 5.13 1.356 5.13c2.42 0 4.182-4.202 4.182-4.202h4.907s-.873 4.813-9.284 4.813c-.155 0-.407.004-.721.008-.522.007-1.216.016-1.924.016-6.52 0-4.02-6.061-3.994-6.124.91-2.192 3.12-4.837 8.67-4.837h2.079Zm.082 4.381s1.887-3.759-.943-3.759c-2.401 0-4.02 3.76-4.02 3.76h4.963Zm5.607 6.463h5.534l2.497-13.641h-5.534L66.07 24.465Zm7.9 0h5.533l2.497-13.641h-5.534L73.97 24.465Z" clip-rule="evenodd"/><defs><linearGradient id="a" x1="0" x2="82.001" y1="18" y2="18" gradientUnits="userSpaceOnUse"><stop stop-color="#6366F1"/><stop offset="1" stop-color="#818CF8"/></linearGradient></defs></svg>