<svg xmlns="http://www.w3.org/2000/svg" width="80" height="36" fill="none"><path fill="url(#a)" fill-opacity=".8" fill-rule="evenodd" d="M26.787 8.958c2.724 2.202 6.257 5.955 5.814 10.276-.531 3.416-4.19 5.985-7.29 6.802-3.01.876-6.787.788-9.857.088l-.04.11c-.195.531-.415 1.131-1.022 1.35-.413.145-.944.058-1.269-.205-.404-.374-.486-.903-.566-1.422-.1-.654-.198-1.292-.939-1.584-2.597-1.08-5.4-3.212-6.728-5.84-.177-.525.029-1.05.354-1.459 2.036-1.605 4.603-2.247 7.171-2.744.084.033.1-.018.122-.08.015-.046.033-.099.085-.124.022-.262.042-.524.062-.786.114-1.493.228-2.982.705-4.323a.464.464 0 0 1 .65-.146c1.003.758 1.093 1.93 1.182 3.107.056.726.111 1.454.381 2.089 3.099.146 6.198.292 8.647 2.015.827.67 1.028 1.953.767 2.686-.26.731-1.121 1.255-1.918 1.313h-.165c-.55.005-1.364.012-1.31-.35.022-.154.293-.346.589-.555.474-.335 1.01-.714.68-1.051-.769-.785-4.6-1.252-6.992-1.544l-.027-.004c-.295-.058-.566.03-.566.35-.01.37-.023.746-.036 1.127-.067 1.9-.136 3.9.183 5.676.03.146.207.322.355.35 4.22.672 8.676.292 11.981-2.102 1.535-1.225 2.037-2.949 1.77-4.846-1.327-5.284-6.905-8.467-11.479-10.51A32.589 32.589 0 0 0 3.414 3.966c-.841.06-2.174.348-2.184.642-.004.122.254.178.544.24.412.09.89.192.784.519-.182.557-1.726.226-2.184.088-.457-.14-.413-.789-.295-1.197C1.23 2.243 4.442 2.08 5.893 2.01c8.027-.205 15.789 2.819 20.894 6.948ZM40.243 5.57c.544.025 1.064.23 1.476.584.56.525.708 1.401.442 2.102-1.032 2.102-3.487 3.506-5.164 3.97-1.004.233-2.272.233-3.187-.117-.144.085-.28.232-.417.379-.286.307-.575.619-.941.38-.442-.341-.419-.79-.396-1.239.018-.346.036-.691-.161-.984a.47.47 0 0 0-.175-.133c-.096-.053-.203-.111-.271-.242-.62-1.343.147-2.627 1.003-3.649 1.426-1.574 5.519-3.328 7.791-1.051Zm-4.749 1.05c-.797.147-1.697.49-2.183 1.052-.487.562-.797 1.11-.502 1.693.453-.333.804-.721 1.152-1.107.446-.495.887-.984 1.534-1.345 0-.041.022-.08.043-.115.037-.064.07-.12-.044-.177Zm-.206 3.096c1.446-1.46 2.98-2.978 5.017-2.802.205.087.413.291.502.495.206.526-.089 1.022-.502 1.402-1.417 1.285-3.276 1.839-5.224 1.664-.287-.183-.118-.365.041-.538.07-.076.139-.15.166-.221Zm22.663 5.896c.944 2.277 1.74 5.868 0 8.058-.472.525-1.298 1.01-1.83.613-1.45-1.152-2.277-2.675-3.105-4.198a36.164 36.164 0 0 0-.878-1.554c-.12-.059-.159.029-.199.119a.38.38 0 0 1-.067.115c-.161.734-.154 1.55-.147 2.366.013 1.424.025 2.85-.856 3.852-.531.087-1.028-.183-1.21-.7-.493-1.506-.255-3.058-.02-4.59a25.9 25.9 0 0 0 .226-1.716c.103-.263.191-.537.28-.812.268-.825.539-1.662 1.225-2.254 1.139.45 1.82 1.527 2.465 2.545.19.301.379.598.574.871.227.33.437.676.648 1.022.366.602.732 1.203 1.182 1.722.483-.205.404-.737.337-1.19-.02-.129-.038-.25-.042-.357-.208-1.671-.645-3.229-1.09-4.813l-.18-.646c-.006-.1-.023-.215-.041-.337-.066-.446-.145-.981.248-1.21 1.18.518 1.753 1.656 2.28 2.702.067.133.133.264.2.392Zm-9.56.35c.295-.065.65-.612.65-1.05-.087-.254-.337-.344-.566-.427l-.026-.01c-3.482-.642-7.643-.846-10.387 1.548-.531.584-.531 1.547-.295 2.248.122.328.649.613 1.062.7.625.06 1.254.101 1.882.143 1.538.103 3.068.205 4.492.558.103.04.215.078.331.118.648.223 1.424.49 1.5 1.282-.03.263-.355.526-.62.613l-.023.007c-2.296.64-4.884 1.362-7.208.344-.31-.154-.118-.643.148-.818.903-.432 1.724-.09 2.559.256.911.378 1.837.763 2.9.153.088-.06.204-.1.32-.14.29-.1.591-.203.508-.62-1.83-1.079-4.457-1.546-6.582-.7-.53.28-.85.864-.856 1.606.06.934.866 1.69 1.712 2.16 2.214 1.255 5.549 1.313 7.732-.059.886-.613 1.235-1.7 1.18-2.598-.088-1.138-.512-2.509-1.682-2.803-1.413-.354-2.899-.518-4.38-.681-.838-.093-1.675-.185-2.496-.311-.037-.016-.078-.03-.122-.045-.205-.072-.453-.158-.38-.422 1.643-.542 3.479-.648 5.31-.754 1.129-.065 2.256-.13 3.336-.297Zm-12.248.06c.265 2.803.413 5.402.354 8.35-.047.3-.333.418-.597.526-.07.029-.138.057-.2.087-.472.088-1.082-.012-1.269-.262-.513-.818-.503-1.851-.493-2.875.003-.33.006-.659-.008-.979.014-.34.026-.685.037-1.032.058-1.77.119-3.605.612-5.215.113-.28.443-.526.708-.351.708.35.826 1.051.856 1.752Zm32.787.349c.29-.158.142-.523 0-.76-.295-.437-.767-1.126-1.12-1.196-1.772-.204-3.72 0-5.46.35a7.687 7.687 0 0 1-.778.066c-.523.026-1.041.051-1.495.285-.096.805.48 1.069 1.046 1.328.297.136.59.271.784.482-.186.205-.274.497-.361.785-.15.49-.294.967-.908.967-.354.088-.59.438-.502.847.38.633.082 1.225-.213 1.814-.14.28-.281.56-.348.842-.325 1.226.103 2.669 1.063 3.094 2.556 1.058 4.956-.438 6.816-1.898.183-.411-.025-.777-.218-1.118l-.077-.137c-.884-.19-1.847-.014-2.762.152-.214.04-.425.078-.632.11-.175.024-.343.07-.507.113-.394.105-.76.203-1.116-.024.079-.216.129-.448.18-.678.118-.55.237-1.096.735-1.424.315-.164 1.058-.143 1.852-.12.61.018 1.25.037 1.75-.027.421-.022.593-.995.442-1.256-.445-.628-1.3-.55-2.096-.477-.314.028-.618.056-.885.04-.122.012-.227-.06-.335-.134-.036-.024-.072-.049-.108-.07-.148-.526.177-1.11.59-1.46.524-.06 1.078-.069 1.634-.077 1.074-.018 2.154-.035 3.03-.42ZM6.246 17.716c1.89-.7 4.043-.905 6.08-.934.078.03.081.078.085.124.003.041.007.082.063.11.029 1.955.029 3.823-.266 5.721-1.24-.175-2.602-.927-3.63-1.518-1.028-.592-2.125-1.43-2.893-2.452-.295-.497.178-.905.561-1.051Zm67.08-3.59c-.043 1.25-.645 2.267-1.245 3.28-.618 1.045-1.234 2.086-1.234 3.375a.92.92 0 0 1 .052.056c.064.073.12.137.214.091.43-.464.858-.973 1.295-1.492 1.516-1.798 3.14-3.726 5.316-4.405.738-.058 1.406.576 1.682 1.051.974 1.927.739 4.642-.619 6.393-1.401 1.72-3.837 3.445-6.61 3.153a37.128 37.128 0 0 0-2.392 8.817c-.177.461-.54.26-.858.084a1.872 1.872 0 0 0-.292-.143c-2.135-1.669-.797-5.794-.371-7.105.05-.156.088-.273.106-.34.104-.406.407-1.166.734-1.988.18-.454.369-.927.535-1.37-1.121-1.984-.413-4.378.501-6.218.708-1.226 1.683-2.452 2.834-3.386.146 0 .264.03.353.146ZM77.6 17.53c.136-.143.272-.287.478-.253.046.09.11.176.174.263.1.138.203.277.24.438.088 1.606-.768 3.007-2.125 3.853-.21.085-.42.188-.629.292-.584.289-1.177.582-1.85.496.678-1.808 2.034-3.325 3.39-4.842l.004-.004c.123-.036.22-.14.318-.243Z" clip-rule="evenodd"/><defs><linearGradient id="a" x1="0" x2="80" y1="18.364" y2="18.364" gradientUnits="userSpaceOnUse"><stop stop-color="#6366F1"/><stop offset="1" stop-color="#818CF8"/></linearGradient></defs></svg>