<svg xmlns="http://www.w3.org/2000/svg" width="72" height="36" fill="none"><path fill="url(#a)" fill-opacity=".8" fill-rule="evenodd" d="M70.623 7.613a1.381 1.381 0 1 0 1.275 1.907c.069-.168.104-.348.103-.53a1.378 1.378 0 0 0-1.378-1.377Zm0 2.596a1.214 1.214 0 1 1 .856-2.074 1.21 1.21 0 0 1 .264 1.321 1.211 1.211 0 0 1-1.12.753Z" clip-rule="evenodd"/><path fill="url(#b)" fill-opacity=".8" fill-rule="evenodd" d="M71.33 8.63c0-.13-.058-.268-.174-.333-.116-.068-.246-.075-.377-.075h-.671v1.543h.187v-.712h.347l.441.712h.225l-.467-.712c.275-.008.489-.12.489-.423Zm-.745.275h-.29v-.546h.441c.192 0 .402.029.402.267 0 .315-.337.279-.553.279ZM24.383 31.769l-9-4.394c-.197-.103-.299-.365-.295-.536l.024-2.426a.57.57 0 0 1 .261-.507c.963-.613 3.942-2.262 7.02-6.755 4.1-5.983 0-11.01-6.407-9.641-5.69 1.215-11.483 4.296-13.996 5.972C-.249 14.974.062 16.777 0 18.395c.124.684.373.622.933-.062 4.168-3.856 10.512-6.78 11.694-7.277 1.182-.498 3.981-2.178 7.278-1.431 3.167.717 2.397 5.023 1.43 6.842-1.057 1.99-4.073 4.883-5.442 5.598-.52.272-.715 0-.715-.435l.218-9.362c0-.622-.28-.902-.902-.684l-.995.498c-.685.404-.654.56-.716 1.057l-.15 10.792c-.006.233-.114.42-.242.475l-3.247 1.826c-.746.374-.56.934 0 1.12l2.613 1.244c.622.249.809.435.809 1.057l-.094 5.225c2.333-.466 2.488-1.586 2.55-2.333V30.96c.062-.373.28-.497.591-.435l7.589 3.67c.684.311 1.057.186 1.555-.684.497-.87.56-1.305-.374-1.741Zm13.262-13.183c-1.054.608-1.542 1.748-1.127 2.467.415.72 1.67.84 2.725.231 1.055-.61 1.512-1.717 1.096-2.437-.415-.719-1.639-.871-2.694-.261Z" clip-rule="evenodd"/><path fill="url(#c)" fill-opacity=".8" fill-rule="evenodd" d="M33.758 19.36c-.287.35-.84 1.415-1.151 2.068-.311.653-.964 2.13-1.617 2.13-.69 0-.778-1.71-.778-2.332 0-.622-.373-.715-.56-.684a1.121 1.121 0 0 0-.87.87c-.156.654-.996 3.484-1.93 3.484-.59 0-1.026-1.71-1.056-2.24-.031-.528-.28-.963-.81-.963-.373 0-.839.186-1.026.404-.186.218-.217.56-1.213.342-.902-.03-1.773.436-2.83 2.209-.636 1.067-1.153 3.056-.186 3.856.902.746 2.488-.591 2.954-1.151.467-.56.871-.964 1.058-1.275.186-.31.373-.28.466.031.094.311.622 1.524 1.307 1.493.684-.03 1.555-.56 2.582-2.364.186-.373.466-.342.528-.03.063.31.467 1.337 1.15 1.337.654 0 1.38-1.038 1.743-1.648.248-.42.622-.218.622.186s-.187 9.953-.187 9.953c0 .435.17.559.482.559h1.353c.248 0 .466-.217.466-.56l.28-15.473c0-.373-.42-.637-.777-.202Zm-10.575 6.096c-.28.466-1.026 1.71-1.679 1.493-.342-.187.114-1.43.342-1.866.342-.653 1.345-1.693 1.804-1.431.436.249-.187 1.337-.466 1.804Zm47.389-9.54c-.124.11-.326.296-.778.093-.777-.31-.84-1.772-1.243-3.11-.364-1.201-1.24-1.126-1.555-.575l-.949 1.524c-.171.31-.544 1.026-.918 1.026-.435 0-.24-.622-.217-1.244.015-.42-.25-.948-.684-.948-.498 0-1.026.761-1.431 1.633-.282.609-1.01 2.939-1.929 2.939-.59 0-.653-1.71-.684-2.24-.03-.528-.217-1.181-.746-1.181-.358 0-.59.186-.778.404-.186.217-.217.404-.87.31-.902-.03-2.395.81-3.453 2.582-.636 1.067-1.402 3.305-.435 4.105.902.747 2.52-.995 2.986-1.555.466-.56.87-.964 1.057-1.275.187-.311.373-.28.466.032.094.31.623 1.523 1.307 1.492.685-.03 1.244-.186 2.27-1.99.187-.373.529-.42.591-.109.063.311.125 1.135.778 1.135 1.12 0 2.388-2.724 2.706-3.359.28-.56.73-.404.886.015.222.602.42 2.535 1.633 2.535s2.037-1.29 2.285-1.695c.28-.404.135-.92-.295-.544Zm-13.187 1.866c-.28.467-.902 1.493-1.555 1.275-.342-.186.083-1.088.311-1.523.342-.654 1.345-1.709 1.804-1.447.435.25-.28 1.229-.56 1.695Zm-6.008-1.63s-2.644-1.928-3.39-2.799c-.502-.585-.156-1.026.155-1.275 1.866-1.244 4.79-3.172 5.94-6.158 1.11-2.878-.622-5.38-1.866-5.785-1.705-.553-5.319.56-7.123 3.92-1.168 2.175-1.71 2.892-1.865 8.8-.03 1.12-.063 2.396-.063 3.795 0 1.4-.155 5.194-.311 5.91-.59 1.678 1.182.683 1.99.03.81-.653.747-1.632.747-2.052 0-.53.031-9.86.31-11.943.175-1.296.375-3.701 1.742-5.785 1.37-2.084 2.768-1.244 3.142-.902.373.342.902 1.213.622 2.986-.435 2.751-3.608 5.754-4.417 6.686-.808.933-.622 1.742-.155 2.395.331.465 1.15 1.369 1.99 2.208.84.84.747 1.587.623 2.147-.436 1.679-4.977 6.22-4.977 6.22-.964 1.026.03 2.706.373 3.265.343.56.778.374 1.057-.093 1.12-2.084 5.94-7.122 5.94-7.122 1.402-1.773.81-3.484-.464-4.448Z" clip-rule="evenodd"/><defs><linearGradient id="a" x1="69.242" x2="72.001" y1="8.994" y2="8.994" gradientUnits="userSpaceOnUse"><stop stop-color="#6366F1"/><stop offset="1" stop-color="#818CF8"/></linearGradient><linearGradient id="b" x1="0" x2="71.33" y1="21.081" y2="21.081" gradientUnits="userSpaceOnUse"><stop stop-color="#6366F1"/><stop offset="1" stop-color="#818CF8"/></linearGradient><linearGradient id="c" x1="19.195" x2="71.011" y1="17.797" y2="17.797" gradientUnits="userSpaceOnUse"><stop stop-color="#6366F1"/><stop offset="1" stop-color="#818CF8"/></linearGradient></defs></svg>