<?xml version="1.0" encoding="UTF-8" standalone="no"?>
<!-- Image by <a href="https://www.freepik.com/free-vector/infinity-symbols-collection-black-color_2563274.htm#query=devops&position=9&from_view=search&track=ais">Freepik</a> -->
<svg width="33.110748mm" height="14.109207mm" viewBox="0 0 33.110748 14.109207" version="1.1" id="svg486"
   xmlns="http://www.w3.org/2000/svg" xmlns:svg="http://www.w3.org/2000/svg">
   <defs id="defs483" />
   <g id="layer1" transform="translate(-87.898012,-141.4454)">
      <g id="g67" transform="matrix(0.26458333,0,0,0.26458333,-2.4140661,112.50187)">
         <g id="g65">
            <g id="g49">
               <g id="g47">
                  <path style="fill:none;stroke:#3d3d3d;stroke-width:3;stroke-miterlimit:10"
                     d="m 367.999,161.219 c -3.962,0 -7.939,-0.941 -11.606,-2.846 -8.361,-4.344 -13.556,-12.896 -13.556,-22.319 0,-9.422 5.194,-17.974 13.555,-22.318 8.362,-4.343 18.345,-3.677 26.055,1.739 l 21.462,15.079 21.462,-15.079 c 7.709,-5.417 17.692,-6.083 26.054,-1.739 8.361,4.344 13.555,12.896 13.555,22.318 0,9.423 -5.194,17.975 -13.556,22.319 -8.361,4.344 -18.345,3.677 -26.054,-1.74 l -21.462,-15.08 -21.462,15.08 c -4.328,3.041 -9.374,4.586 -14.447,4.586 z m 0.027,-41.36 c -2.535,0 -5.087,0.617 -7.485,1.862 -5.451,2.832 -8.705,8.189 -8.705,14.332 0,6.143 3.254,11.5 8.705,14.332 5.451,2.833 11.706,2.414 16.731,-1.117 l 18.809,-13.215 -18.809,-13.215 c -2.814,-1.977 -6.016,-2.979 -9.246,-2.979 z m 43.711,16.195 18.809,13.215 c 5.026,3.532 11.28,3.949 16.73,1.118 5.451,-2.832 8.705,-8.19 8.705,-14.333 0,-6.143 -3.254,-11.5 -8.705,-14.332 -5.451,-2.832 -11.704,-2.415 -16.731,1.117 z"
                     id="path45" />
               </g>
            </g>
            <line style="fill:none;stroke:#3d3d3d;stroke-width:3;stroke-miterlimit:10" x1="396.082" y1="136.054"
               x2="403.909" y2="141.55299" id="line51" />
            <line style="fill:none;stroke:#3d3d3d;stroke-width:3;stroke-miterlimit:10" x1="403.909" y1="130.554"
               x2="411.737" y2="136.054" id="line53" />
            <polygon style="fill:#3d3d3d" points="412.462,135.544 404.366,130.234 411.099,125.502 419.564,130.554 "
               id="polygon55" />
            <polygon style="fill:#3d3d3d" points="396.275,146.574 388.178,141.264 394.912,136.532 403.377,141.584 "
               id="polygon57" />
         </g>
      </g>
   </g>
</svg>