<svg xmlns="http://www.w3.org/2000/svg" width="1076" height="378" fill="none"><g filter="url(#a)"><path fill="url(#b)" fill-rule="evenodd" d="m409 733 574-386.9L656.816 251 409 733Z" clip-rule="evenodd"/></g><mask id="c" width="574" height="482" x="409" y="251" maskUnits="userSpaceOnUse" style="mask-type:alpha"><path fill="#fff" fill-rule="evenodd" d="m409 733 574-386.9L656.816 251 409 733Z" clip-rule="evenodd"/></mask><g mask="url(#c)"><path fill="url(#d)" fill-opacity=".64" fill-rule="evenodd" d="M717.652 270.954c-127.706-107.486-298.92-166.567-482.494-166.567-1.242 0-2.487.003-3.732.009-80.444.351-158.458 12.027-231.426 34.085v-6.153c73.028-21.878 151.006-33.491 231.399-33.84.362 0 .722-.002 1.08-.003h.349l.591-.002h1.739c185.065 0 357.758 59.609 486.586 168.04C865.259 387.317 942.94 559.5 947.221 764.904h-6.192c-4.271-203.658-81.23-374.305-223.377-493.95ZM234.987 439.222c-1.17 0-2.367.006-3.54.015-87.416.75-169 28.053-231.447 77.108v-7.575c63.014-48.005 144.37-74.696 231.393-75.443 1.254-.012 2.508-.018 3.762-.018 93.341 0 180.49 29.949 245.749 84.536 71.684 59.957 111.421 145.202 115.591 247.056h-6.213c-9.17-224.043-188.287-325.679-355.295-325.679Zm.003-19.698c-1.173 0-2.358.006-3.534.015-86.327.702-167.293 25.878-231.456 71.405v-7.301c64.616-44.646 145.402-69.315 231.408-70.011 1.251-.012 2.496-.015 3.747-.015 98.741 0 190.927 31.698 259.923 89.453 75.906 63.531 117.872 153.893 122.054 261.831h-6.213c-9.201-237.567-199-345.377-375.929-345.377Zm-3.522-19.68a459.44 459.44 0 0 1 3.522-.015c186.862 0 387.341 113.975 396.56 365.072h6.213c-4.194-114.028-48.387-209.499-128.507-276.609-72.74-60.926-169.963-94.372-274.101-94.372-1.248 0-2.484.003-3.732.015-85.166.654-165.517 23.567-231.423 65.33v7.203c65.55-42.543 146.011-65.97 231.468-66.624Zm3.522-19.709c-1.167 0-2.346.006-3.513.015-84.737.615-164.79 22.547-231.477 62.507v-6.984c66.99-39.293 146.932-60.818 231.429-61.433 1.248-.009 2.481-.015 3.726-.015 109.541 0 211.795 35.192 288.276 99.293 84.341 70.685 130.76 171.268 134.966 291.383h-6.213c-9.237-264.627-220.405-384.766-417.194-384.766Zm-3.504-19.683a456.31 456.31 0 0 1 3.51-.012c206.713 0 428.566 126.302 437.818 404.461h6.213c-4.215-126.202-52.862-231.897-141.421-306.164-80.222-67.268-187.51-104.207-302.451-104.207-1.242 0-2.469.003-3.714.012C147.52 355.124 67.892 375.398 0 412.51v6.786c67.631-37.688 147.373-58.265 231.486-58.844Zm316.203 87.944c-83.681-70.205-196.114-108.341-316.203-107.642-83.582.552-163.05 19.965-231.486 55.647v-6.789c68.645-35.157 148.048-54.216 231.444-54.768 1.242-.009 2.469-.012 3.711-.012 120.338 0 232.66 38.685 316.62 109.124 92.789 77.846 143.665 188.653 147.886 320.945h-6.192c-4.206-130.534-54.359-239.805-145.78-316.505ZM231.492 321.059c125.48-.693 242.947 39.18 330.369 112.556 95.642 80.276 148.021 194.662 152.236 331.286h6.192c-4.227-138.379-57.333-254.301-154.345-335.723-87.698-73.61-205.06-114.041-330.792-114.041-1.239 0-2.457.003-3.702.012-82.985.522-162.136 18.69-231.45 52.137v6.618c69.125-33.903 148.354-52.323 231.492-52.845Zm344.534 97.772C484.87 342.287 362.441 300.57 231.492 301.362 148.759 301.863 69.716 319.319 0 351.608v-6.621c69.87-31.869 148.867-49.037 231.45-49.538l.071-.001a734.69 734.69 0 0 1 3.631-.011c131.135 0 253.518 42.176 344.96 118.951 101.234 85.007 156.575 206.041 160.811 350.513h-6.192c-4.221-142.714-58.836-262.215-158.705-346.07ZM235.152 281.652c135.035 0 260.988 43.394 355.04 122.395 104.096 87.434 160.943 212.047 165.17 360.854h6.191c-4.241-150.562-61.811-276.708-167.272-365.294-95.177-79.946-222.594-123.865-359.126-123.865-1.204 0-2.401.006-3.605.012H231.456C149.182 276.231 70.386 292.71 0 323.18v6.474c70.238-30.842 149.101-47.513 231.489-47.99 1.215-.009 2.448-.012 3.663-.012Zm369.209 107.612c-98.636-82.88-231.15-128.102-372.869-127.295-82.085.456-160.795 16.386-231.492 45.909v-6.474c70.817-29.178 149.488-44.889 231.456-45.348 1.242-.006 2.46-.009 3.699-.009 141.923 0 274.38 45.669 373.295 128.78 109.682 92.159 169.486 223.422 173.734 380.074h-6.192c-4.236-154.9-63.311-284.627-171.631-375.637ZM235.155 242.262c145.82 0 281.844 46.884 383.372 132.215 112.544 94.592 173.857 229.431 178.096 390.424h6.192c-4.251-162.745-66.287-299.12-180.202-394.858-102.656-86.279-240.144-133.691-387.461-133.691-1.219 0-2.418.006-3.643.012h-.059c-81.698.438-160.243 15.48-231.45 43.479v6.348c71.09-28.305 149.698-43.479 231.489-43.92 1.221-.006 2.448-.009 3.666-.009Zm397.538 117.431c-105.272-88.502-246.315-137.125-397.535-137.125-1.221 0-2.451.002-3.669.009C149.926 223 71.465 237.651 0 264.861v-6.351c71.564-26.922 149.98-41.42 231.45-41.843l.105-.001c1.209-.006 2.396-.011 3.597-.011 152.717 0 295.233 49.154 401.627 138.601 118.136 99.317 182.404 240.807 186.661 409.645h-6.192c-4.242-167.083-67.784-307.04-184.555-405.208ZM235.155 202.87c156.611 0 302.688 50.369 411.698 142.033 120.997 101.75 186.781 246.819 191.032 419.998h6.191c-4.259-174.931-70.769-321.533-193.131-424.432C540.81 247.86 393.26 196.96 235.155 196.96c-1.245 0-2.463.003-3.711.009C150.202 197.377 71.867 211.264 0 237.18v6.351c71.783-26.183 150.145-40.241 231.477-40.652 1.227-.006 2.457-.009 3.678-.009Zm425.861 127.246C548.268 235.287 397.16 183.172 235.158 183.172c-1.227 0-2.46.003-3.684.009-81.11.396-159.415 13.83-231.474 39.056v-6.242c72.143-24.99 150.4-38.328 231.441-38.724 1.248-.006 2.469-.009 3.717-.009 163.498 0 316.077 52.643 429.949 148.417 126.59 106.478 195.328 258.198 199.597 439.222h-6.192c-4.257-179.272-72.269-329.459-197.496-434.785ZM231.459 163.483c168.722-.798 326.373 53.127 443.716 151.843C804.63 424.231 874.88 579.533 879.143 764.901h6.192c-4.272-187.117-75.248-343.952-206.068-454.009-117.613-98.941-275.214-153.325-444.112-153.325-1.245 0-2.478.003-3.726.009C150.556 157.96 72.41 170.908 0 195.046v6.243c72.335-24.363 150.52-37.422 231.459-37.806Zm457.879 137.054C569.112 199.378 407.95 143.782 235.158 143.782l-1.941.002-.913.002-.783.002h-.065C150.679 144.16 72.578 156.793 0 180.343V174.1c72.641-23.337 150.715-35.85 231.423-36.219a775.02 775.02 0 0 1 3.735-.009c174.283 0 336.918 56.127 458.266 158.231 135.053 113.635 208.264 275.586 212.539 468.798h-6.192c-4.263-191.46-76.751-351.878-210.433-464.364ZM231.435 124.094c179.494-.714 347.229 56.606 472.057 161.653 137.918 116.062 212.641 281.598 216.91 479.154h6.192c-4.278-199.305-79.727-366.374-219.01-483.585-125.087-105.269-292.755-163.138-472.429-163.138-1.26 0-2.484 0-3.747.006-80.54.36-158.569 12.39-231.408 34.97v6.246c72.785-22.782 150.832-34.946 231.435-35.306Zm3.723-39.402c188.971 0 365.204 60.818 496.651 171.469 146.38 123.224 225.576 298.992 229.851 508.74h6.192c-4.284-211.5-84.206-388.801-231.951-513.171C603.332 140.134 425.62 78.782 235.158 78.782c-1.263 0-2.511.003-3.777.01C151.108 79.13 73.214 90.475 0 111.703v6.156c73.163-21.402 151.087-32.82 231.411-33.162 1.245-.003 2.505-.006 3.747-.006Zm510.805 156.676C610.781 127.559 429.508 64.998 235.158 64.998c-1.251 0-2.511.002-3.765.005C151.189 65.336 73.334 76.463 0 97.238v-6.156c73.38-20.613 151.21-31.656 231.366-31.989 1.266-.006 2.529-.009 3.792-.009 195.859 0 378.584 63.087 514.897 177.85C902.033 364.886 984.193 547.305 988.48 764.901h-6.192c-4.278-215.847-85.715-396.73-236.325-523.533ZM235.158 45.299c199.753 0 386.033 64.299 524.958 181.273 154.847 130.382 238.519 316.383 242.804 538.329h6.19c-4.29-223.695-88.687-411.229-244.902-542.763-140.05-117.919-327.806-182.749-529.05-182.749-1.272 0-2.535.003-3.81.01C151.309 39.724 73.523 50.434 0 70.463v6.156c73.484-20.18 151.288-30.987 231.375-31.314 1.251-.003 2.532-.006 3.783-.006ZM774.27 211.777C631.607 91.643 440.296 25.605 235.158 25.605c-1.26 0-2.544.003-3.804.006C151.387 25.929 73.616 36.38 0 55.997v-6.156C73.652 30.37 151.411 20.02 231.33 19.701c1.281-.006 2.547-.006 3.828-.006 206.632 0 399.419 66.569 543.204 187.651C938.81 342.455 1025.45 535.107 1029.74 764.901h-6.19c-4.28-228.045-90.201-419.164-249.28-553.124ZM235.161 5.91c210.526 0 406.859 67.775 553.263 191.071 163.312 137.539 251.466 333.773 255.756 567.92h6.19c-4.29-235.89-93.174-433.663-257.857-572.351C644.99 68.31 447.178 0 235.161 0c-1.293 0-2.562 0-3.855.006C151.507.318 73.763 10.284 0 29.226v6.156C73.733 16.299 151.486 6.228 231.333 5.916c1.269-.003 2.562-.006 3.828-.006Z" clip-rule="evenodd"/></g><defs><linearGradient id="b" x1="811" x2="591.548" y1="315" y2="513.553" gradientUnits="userSpaceOnUse"><stop stop-color="#6366F1" stop-opacity="0"/><stop offset=".452" stop-color="#6366F1" stop-opacity=".2"/><stop offset="1" stop-color="#6366F1" stop-opacity=".48"/></linearGradient><linearGradient id="d" x1="637" x2="603" y1="497.904" y2="341.5" gradientUnits="userSpaceOnUse"><stop stop-color="#6366F1" stop-opacity=".3"/><stop offset="1" stop-color="#6366F1" stop-opacity="0"/></linearGradient><filter id="a" width="758.843" height="666.843" x="316.578" y="158.578" color-interpolation-filters="sRGB" filterUnits="userSpaceOnUse"><feFlood flood-opacity="0" result="BackgroundImageFix"/><feBlend in="SourceGraphic" in2="BackgroundImageFix" result="shape"/><feGaussianBlur result="effect1_foregroundBlur_4032_1179" stdDeviation="46.211"/></filter></defs></svg>