<svg xmlns="http://www.w3.org/2000/svg" width="846" height="594" fill="none"><g filter="url(#pia)"><path fill="url(#pib)" fill-rule="evenodd" d="m96 19 574 386.9L343.816 501 96 19Z" clip-rule="evenodd"/></g><g filter="url(#pic)"><path fill="url(#pid)" fill-rule="evenodd" d="m176-42 574 386.9L423.816 440 176-42Z" clip-rule="evenodd"/></g><mask id="pif" width="654" height="543" x="96" y="-42" maskUnits="userSpaceOnUse"><path fill="#fff" fill-rule="evenodd" d="M750 344.9 176-42l90.423 175.872L96 19l247.816 482L670 405.9l-39.018-26.3L750 344.9Z" clip-rule="evenodd" filter="url(#pie)"/></mask><g mask="url(#pif)"><path fill="url(#pig)" fill-opacity=".64" fill-rule="evenodd" d="M575.652 131.95C447.946 239.436 276.732 298.518 93.158 298.518c-1.242 0-2.487-.003-3.732-.009C8.982 298.158-69.032 286.482-142 264.423v6.153c73.028 21.879 151.006 33.492 231.4 33.84l1.08.003.348.001.59.001 1.74.001c185.065 0 357.758-59.61 486.586-168.041C723.259 15.588 800.94-156.595 805.221-362h-6.192c-4.271 203.659-81.23 374.306-223.377 493.95ZM92.987-36.318c-1.17 0-2.367-.006-3.54-.015-87.416-.75-169-28.052-231.447-77.108v7.575C-78.986-57.861 2.37-31.17 89.393-30.423c1.254.012 2.508.018 3.762.018 93.341 0 180.49-29.948 245.749-84.536 71.684-59.957 111.421-145.201 115.591-247.056h-6.213c-9.17 224.043-188.287 325.68-355.295 325.68Zm.003 19.698c-1.173 0-2.358-.006-3.534-.015C3.13-17.337-77.837-42.513-142-88.04v7.302C-77.384-36.093 3.402-11.424 89.408-10.728c1.251.012 2.496.015 3.747.015 98.741 0 190.927-31.698 259.923-89.453 75.906-63.53 117.872-153.892 122.054-261.831h-6.213C459.718-124.43 269.919-16.62 92.99-16.62ZM89.468 3.06c1.167.009 2.355.015 3.522.015 186.862 0 387.341-113.975 396.56-365.072h6.213c-4.194 114.029-48.387 209.5-128.507 276.609-72.74 60.926-169.963 94.373-274.1 94.373-1.249 0-2.485-.003-3.733-.015C4.257 8.316-76.094-14.598-142-56.36v-7.203C-76.45-21.021 4.011 2.406 89.468 3.06Zm3.522 19.71c-1.167 0-2.346-.006-3.513-.015C4.74 22.14-75.313.207-142-39.753v6.984C-75.01 6.525 4.932 28.05 89.43 28.665c1.247.009 2.48.015 3.725.015 109.541 0 211.795-35.193 288.276-99.293 84.341-70.686 130.76-171.268 134.966-291.384h-6.213C500.947-97.37 289.779 22.77 92.99 22.77Zm-3.504 19.682c1.158.01 2.352.012 3.51.012 206.713 0 428.566-126.301 437.818-404.461h6.213C532.812-235.794 484.165-130.1 395.606-55.832 315.384 11.436 208.096 48.374 93.156 48.374c-1.243 0-2.47-.003-3.715-.012C5.521 47.78-74.108 27.506-142-9.606v-6.786C-74.369 21.297 5.373 41.873 89.486 42.452ZM405.69-45.492C322.008 24.714 209.575 62.85 89.486 62.15 5.904 61.598-73.564 42.185-142 6.504v6.789C-73.355 48.449 6.048 67.508 89.444 68.06c1.242.01 2.47.012 3.711.012 120.338 0 232.66-38.684 316.62-109.124 92.789-77.846 143.665-188.653 147.886-320.945h-6.192c-4.206 130.534-54.359 239.805-145.78 316.505ZM89.492 81.845c125.48.693 242.947-39.18 330.369-112.556 95.642-80.276 148.021-194.662 152.236-331.286h6.192c-4.227 138.379-57.333 254.301-154.345 335.723-87.698 73.61-205.06 114.04-330.792 114.04-1.239 0-2.457-.002-3.702-.011C6.465 87.233-72.686 69.065-142 35.618V29C-72.875 62.903 6.354 81.323 89.492 81.846Zm344.534-97.772C342.87 60.617 220.441 102.335 89.492 101.543 6.76 101.042-72.284 83.585-142 51.296v6.621c69.87 31.869 148.867 49.038 231.45 49.539h.07c1.219.006 2.42.012 3.632.012 131.135 0 253.518-42.177 344.96-118.952 101.234-85.007 156.575-206.041 160.811-350.513h-6.192c-4.221 142.714-58.836 262.215-158.705 346.07ZM93.152 121.253c135.035 0 260.988-43.395 355.04-122.396 104.096-87.434 160.943-212.047 165.17-360.854h6.191C615.312-211.435 557.742-85.289 452.281 3.297 357.104 83.243 229.687 127.162 93.155 127.162c-1.204 0-2.4-.006-3.605-.012H89.456C7.182 126.673-71.614 110.195-142 79.724V73.25c70.238 30.843 149.101 47.513 231.49 47.991 1.214.008 2.447.012 3.662.012ZM462.361 13.641c-98.636 82.88-231.15 128.101-372.869 127.294C7.407 140.479-71.303 124.549-142 95.027v6.474c70.817 29.177 149.488 44.888 231.456 45.347 1.242.006 2.46.009 3.7.009 141.922 0 274.379-45.668 373.294-128.78C576.132-74.08 635.936-205.344 640.184-361.996h-6.192c-4.236 154.9-63.311 284.628-171.631 375.638ZM93.155 160.642c145.82 0 281.844-46.883 383.372-132.214 112.544-94.592 173.857-229.432 178.096-390.425h6.192c-4.251 162.745-66.287 299.12-180.202 394.858-102.656 86.28-240.144 133.691-387.46 133.691-1.22 0-2.42-.006-3.644-.012h-.059C7.752 166.102-70.793 151.06-142 123.061v-6.347c71.09 28.304 149.698 43.478 231.49 43.919 1.22.006 2.447.009 3.665.009Zm397.538-117.43C385.421 131.712 244.378 180.336 93.158 180.336c-1.22 0-2.45-.003-3.669-.009C7.926 179.905-70.535 165.253-142 138.043v6.351c71.564 26.922 149.98 41.421 231.45 41.844h.105c1.209.006 2.396.012 3.597.012 152.717 0 295.233-49.155 401.627-138.602C612.915-51.668 677.183-193.159 681.44-361.997h-6.192c-4.242 167.083-67.784 307.04-184.555 405.208ZM93.155 200.034c156.611 0 302.688-50.37 411.698-142.034C625.85-43.749 691.634-188.818 695.885-361.997h6.191c-4.259 174.931-70.769 321.533-193.131 424.432-110.135 92.609-257.685 143.51-415.79 143.51-1.245 0-2.463-.003-3.71-.009C8.201 205.528-70.134 191.641-142 165.724v-6.351c71.783 26.184 150.145 40.242 231.477 40.653 1.227.006 2.457.009 3.678.009ZM519.016 72.788C406.268 167.617 255.16 219.732 93.158 219.732c-1.227 0-2.46-.003-3.684-.009C8.364 219.327-69.94 205.894-142 180.667v6.243c72.143 24.989 150.4 38.327 231.441 38.723 1.248.006 2.47.009 3.717.009 163.498 0 316.077-52.643 429.949-148.417 126.59-106.478 195.328-258.198 199.597-439.222h-6.192c-4.257 179.272-72.269 329.46-197.496 434.785ZM89.459 239.421c168.722.798 326.373-53.126 443.716-151.843C662.63-21.327 732.88-176.63 737.143-361.997h6.192C739.063-174.88 668.087-18.045 537.267 92.012 419.654 190.954 262.053 245.337 93.155 245.337c-1.245 0-2.478-.003-3.726-.009C8.556 244.944-69.59 231.996-142 207.858v-6.242c72.335 24.362 150.52 37.421 231.46 37.805Zm457.879-137.053C427.112 203.527 265.95 259.122 93.158 259.122l-1.941-.002-.913-.002-.783-.002h-.065C8.68 258.744-69.422 246.111-142 222.561v6.243c72.641 23.337 150.715 35.85 231.423 36.219 1.254.006 2.481.009 3.735.009 174.283 0 336.918-56.126 458.266-158.23C686.477-6.834 759.688-168.784 763.963-361.997h-6.192c-4.263 191.461-76.751 351.878-210.433 464.365ZM89.435 278.811c179.494.714 347.229-56.607 472.057-161.653C699.41 1.095 774.133-164.44 778.402-361.997h6.192c-4.278 199.306-79.727 366.374-219.01 483.586C440.497 226.857 272.829 284.727 93.155 284.727c-1.26 0-2.484 0-3.747-.006-80.54-.36-158.569-12.39-231.408-34.971v-6.246c72.785 22.782 150.832 34.947 231.435 35.307Zm3.723 39.401c188.971 0 365.204-60.818 496.651-171.469C736.189 23.52 815.385-152.248 819.66-361.997h6.192c-4.284 211.501-84.206 388.802-231.951 513.171C461.332 262.77 283.62 324.122 93.158 324.122c-1.263 0-2.51-.003-3.777-.009C9.108 323.774-68.786 312.428-142 291.201v-6.156c73.163 21.401 151.087 32.819 231.411 33.161 1.245.003 2.505.006 3.747.006Zm510.805-156.676C468.781 275.346 287.508 337.907 93.158 337.907c-1.25 0-2.51-.003-3.765-.006C9.19 337.568-68.666 326.441-142 305.666v6.156c73.38 20.613 151.21 31.656 231.366 31.989 1.266.006 2.53.009 3.792.009 195.859 0 378.584-63.086 514.897-177.85C760.033 38.018 842.193-144.401 846.48-361.997h-6.192c-4.278 215.847-85.715 396.73-236.325 523.533ZM93.158 357.605c199.753 0 386.033-64.298 524.958-181.273C772.963 45.95 856.635-140.051 860.919-361.997h6.192c-4.29 223.695-88.688 411.23-244.903 542.763-140.05 117.92-327.806 182.749-529.05 182.749-1.272 0-2.535-.003-3.81-.009C9.31 363.179-68.477 352.469-142 332.441v-6.156c73.484 20.181 151.288 30.987 231.375 31.314 1.251.003 2.532.006 3.783.006ZM632.27 191.128C489.607 311.261 298.296 377.3 93.158 377.3c-1.26 0-2.544-.003-3.804-.006-79.967-.318-157.738-10.77-231.354-30.387v6.156c73.652 19.473 151.411 29.822 231.33 30.14 1.281.007 2.547.007 3.828.007 206.632 0 399.419-66.57 543.204-187.651C796.81 60.449 883.448-132.203 887.741-361.997h-6.191c-4.284 228.045-90.201 419.164-249.28 553.125ZM93.161 396.994c210.526 0 406.859-67.775 553.263-191.07C809.736 68.384 897.89-127.85 902.177-361.997h6.192c-4.293 235.89-93.173 433.663-257.856 572.351-147.523 124.241-345.335 192.55-557.352 192.55-1.293 0-2.562 0-3.855-.006C9.507 402.586-68.237 392.62-142 373.679v-6.156c73.733 19.082 151.486 29.153 231.333 29.465 1.27.003 2.562.006 3.828.006Z" clip-rule="evenodd"/></g><defs><linearGradient id="pib" x1="-16.293" x2="149.25" y1="177.657" y2="525.961" gradientUnits="userSpaceOnUse"><stop stop-color="#374151" stop-opacity=".8"/><stop offset=".382" stop-color="#374151" stop-opacity=".16"/><stop offset="1" stop-color="#374151" stop-opacity="0"/></linearGradient><linearGradient id="pid" x1="63.707" x2="229.25" y1="116.657" y2="464.961" gradientUnits="userSpaceOnUse"><stop stop-color="#6366F1" stop-opacity=".8"/><stop offset=".382" stop-color="#6366F1" stop-opacity=".32"/><stop offset="1" stop-color="#6366F1" stop-opacity="0"/></linearGradient><linearGradient id="pig" x1="495" x2="422" y1="-95" y2="275" gradientUnits="userSpaceOnUse"><stop stop-color="#6366F1" stop-opacity=".5"/><stop offset="1" stop-color="#6366F1" stop-opacity="0"/></linearGradient><filter id="pie"><feGaussianBlur stdDeviation="96"/></filter><filter id="pia" width="758.843" height="666.843" x="3.578" y="-73.422" color-interpolation-filters="sRGB" filterUnits="userSpaceOnUse"><feFlood flood-opacity="0" result="BackgroundImageFix"/><feBlend in="SourceGraphic" in2="BackgroundImageFix" result="shape"/><feGaussianBlur result="effect1_foregroundBlur_4012_3" stdDeviation="46.211"/></filter><filter id="pic" width="758.843" height="666.843" x="83.578" y="-134.422" color-interpolation-filters="sRGB" filterUnits="userSpaceOnUse"><feFlood flood-opacity="0" result="BackgroundImageFix"/><feBlend in="SourceGraphic" in2="BackgroundImageFix" result="shape"/><feGaussianBlur result="effect1_foregroundBlur_4012_3" stdDeviation="46.211"/></filter></defs></svg>