<?xml version="1.0" encoding="UTF-8" standalone="no" ?>
<!DOCTYPE svg PUBLIC "-//W3C//DTD SVG 1.1//EN" "http://www.w3.org/Graphics/SVG/1.1/DTD/svg11.dtd">
<svg xmlns="http://www.w3.org/2000/svg" xmlns:xlink="http://www.w3.org/1999/xlink" version="1.1" width="1280" height="1024" viewBox="0 0 1280 1024" xml:space="preserve">
<desc>Created with Fabric.js 5.3.0</desc>
<defs>
</defs>
<g transform="matrix(1 0 0 1 640 512)" id="background-logo"  >
<rect style="stroke: none; stroke-width: 0; stroke-dasharray: none; stroke-linecap: butt; stroke-dashoffset: 0; stroke-linejoin: miter; stroke-miterlimit: 4; fill: rgb(0,0,0); fill-rule: nonzero; opacity: 1;"  paint-order="stroke"  x="-640" y="-512" rx="0" ry="0" width="1280" height="1024" />
</g>
<g transform="matrix(1.8396665172730706 0 0 1.8396665172730704 217.54014657980457 512.5994342533859)" id="logo-logo"  >
<g style=""  paint-order="stroke"   >
		<g transform="matrix(0.4237728348672415 0 0 0.4237728348672415 -43.331961572294915 73.80056361101322)"  >
<linearGradient id="SVGID_11_11_11_1145146" gradientUnits="userSpaceOnUse" gradientTransform="matrix(1 0 0 1 163.64165065197074 490.73800659999995)"  x1="0" y1="0" x2="0" y2="67">
<stop offset="0%" style="stop-color:rgb(23,234,217);stop-opacity: 1"/>
<stop offset="100%" style="stop-color:rgb(96,120,234);stop-opacity: 1"/>
</linearGradient>
<path style="stroke: none; stroke-width: 1; stroke-dasharray: none; stroke-linecap: butt; stroke-dashoffset: 0; stroke-linejoin: miter; stroke-miterlimit: 4; fill: url(#SVGID_11_11_11_1145146); fill-rule: nonzero; opacity: 1;"  paint-order="stroke"  transform=" translate(-247.74720172598538, -524.1512299043721)" d="M 213.2841797 547.4058838 C 194.7740479 544.8641968 181.7751007 538.1329346 174.6463471 527.4003905999999 C 164.8279419 512.6174315999999 168.96257020000002 494.5827941999999 169.890915 491.1174315999999 L 169.9839326 490.7380065999999 C 169.9816285 490.7418517999999 134.38941970000002 557.5675658999999 231.8615876 557.5644530999999 C 288.462555 557.5629271999999 331.8527528 517.1633910999999 331.8527528 517.1633910999999 C 331.290741 517.5516357 274.9861755 555.8684692 213.2841797 547.4058838 z" stroke-linecap="round" />
</g>
		<g transform="matrix(0.4237728348672415 0 0 0.4237728348672415 43.33211961720713 73.80056361101327)"  >
<linearGradient id="SVGID_11_11_11_1145147" gradientUnits="userSpaceOnUse" gradientTransform="matrix(1 0 0 1 368.147644 490.73800660000006)"  x1="0" y1="0" x2="0" y2="67">
<stop offset="0%" style="stop-color:rgb(23,234,217);stop-opacity: 1"/>
<stop offset="100%" style="stop-color:rgb(96,120,234);stop-opacity: 1"/>
</linearGradient>
<path style="stroke: none; stroke-width: 1; stroke-dasharray: none; stroke-linecap: butt; stroke-dashoffset: 0; stroke-linejoin: miter; stroke-miterlimit: 4; fill: url(#SVGID_11_11_11_1145147); fill-rule: nonzero; opacity: 1;"  paint-order="stroke"  transform=" translate(-452.25318714775494, -524.1512299043723)" d="M 530.1094971 491.1174316 C 531.0377808 494.5827941 535.1720581 512.6174315999999 525.3536377 527.4003905999999 C 518.2249146 538.1329344999999 505.2263184 544.8641968 486.71618650000005 547.4058838 C 425.01422120000007 555.8684691999999 368.70962520000006 517.5516358 368.147644 517.1633911 C 368.147644 517.1633911 411.5378418 557.5629272 468.1387939 557.5644531 C 565.6109619 557.5675659000001 530.0187377 490.74185180000006 530.0164794 490.73800660000006 L 530.1094971 491.1174316 z" stroke-linecap="round" />
</g>
		<g transform="matrix(0.4237728348672415 0 0 0.4237728348672415 0.3969021353972835 -82.04791004643539)"  >
<linearGradient id="SVGID_11_11_11_1145148" gradientUnits="userSpaceOnUse" gradientTransform="matrix(1 0 0 1 336.9841308 142.4355316)"  x1="0" y1="0" x2="0" y2="28">
<stop offset="0%" style="stop-color:rgb(23,234,217);stop-opacity: 1"/>
<stop offset="100%" style="stop-color:rgb(96,120,234);stop-opacity: 1"/>
</linearGradient>
<path style="stroke: none; stroke-width: 1; stroke-dasharray: none; stroke-linecap: butt; stroke-dashoffset: 0; stroke-linejoin: miter; stroke-miterlimit: 4; fill: url(#SVGID_11_11_11_1145148); fill-rule: nonzero; opacity: 1;"  paint-order="stroke"  transform=" translate(-350.9365997, -156.3870392)" d="M 350.937561 170.3385468 C 343.2437439 170.3385468 336.9841308 164.0808564 336.9841308 156.38896179999998 C 336.9841308 148.69361879999997 343.2437438 142.4355316 350.937561 142.4355316 C 358.6309814 142.4355316 364.88906860000003 148.6936188 364.88906860000003 156.3889618 C 364.8890686 164.0808563 358.6309814 170.3385468 350.937561 170.3385468 z M 350.937561 150.1235809 C 347.4821777 150.1235809 344.6721801 152.9354858 344.6721801 156.3889618 C 344.6721801 159.8424378 347.48217769999997 162.6504974 350.937561 162.6504974 C 354.3910217 162.6504974 357.20101930000004 159.8424377 357.20101930000004 156.3889618 C 357.20101930000004 152.9354859 354.3910217 150.1235809 350.937561 150.1235809 z" stroke-linecap="round" />
</g>
		<g transform="matrix(0.4237728348672415 0 0 0.4237728348672415 34.341703685583184 -48.10310849624946)"  >
<linearGradient id="SVGID_11_11_11_1145149" gradientUnits="userSpaceOnUse" gradientTransform="matrix(1 0 0 1 417.0855407 222.5369415)"  x1="0" y1="0" x2="0" y2="28">
<stop offset="0%" style="stop-color:rgb(23,234,217);stop-opacity: 1"/>
<stop offset="100%" style="stop-color:rgb(96,120,234);stop-opacity: 1"/>
</linearGradient>
<path style="stroke: none; stroke-width: 1; stroke-dasharray: none; stroke-linecap: butt; stroke-dashoffset: 0; stroke-linejoin: miter; stroke-miterlimit: 4; fill: url(#SVGID_11_11_11_1145149); fill-rule: nonzero; opacity: 1;"  paint-order="stroke"  transform=" translate(-431.0380096, -236.48844910000003)" d="M 431.0370483 250.4399567 C 423.3432312 250.4399567 417.08554069999997 244.1822663 417.08554069999997 236.4903717 C 417.08554069999997 228.794632 423.34323109999997 222.5369415 431.0370483 222.5369415 C 438.73046869999996 222.5369415 444.9904785 228.7946319 444.9904785 236.49037170000003 C 444.9904785 244.1822662 438.7304688 250.4399567 431.0370483 250.4399567 z M 431.0370483 230.2249908 C 427.5831909 230.2249908 424.77358999999996 233.0368957 424.77358999999996 236.4903717 C 424.77358999999996 239.9438477 427.58319079999995 242.7519073 431.0370483 242.7519073 C 434.4924316 242.7519073 437.3024292 239.9438476 437.3024292 236.4903717 C 437.3024292 233.0368958 434.4924316 230.2249908 431.0370483 230.2249908 z" stroke-linecap="round" />
</g>
		<g transform="matrix(0.4237728348672415 0 0 0.4237728348672415 -33.54749204196253 -48.10310849624946)"  >
<linearGradient id="SVGID_11_11_11_1145150" gradientUnits="userSpaceOnUse" gradientTransform="matrix(1 0 0 1 256.8846435 222.5369415)"  x1="0" y1="0" x2="0" y2="28">
<stop offset="0%" style="stop-color:rgb(23,234,217);stop-opacity: 1"/>
<stop offset="100%" style="stop-color:rgb(96,120,234);stop-opacity: 1"/>
</linearGradient>
<path style="stroke: none; stroke-width: 1; stroke-dasharray: none; stroke-linecap: butt; stroke-dashoffset: 0; stroke-linejoin: miter; stroke-miterlimit: 4; fill: url(#SVGID_11_11_11_1145150); fill-rule: nonzero; opacity: 1;"  paint-order="stroke"  transform=" translate(-270.8361511, -236.48844910000003)" d="M 270.8361511 250.4399567 C 263.142334 250.4399567 256.8846435 244.1822663 256.8846435 236.4903717 C 256.8846435 228.794632 263.1423339 222.5369415 270.8361511 222.5369415 C 278.5299683 222.5369415 284.7876587 228.7946319 284.7876587 236.49037170000003 C 284.7876587 244.1822662 278.5299683 250.4399567 270.8361511 250.4399567 z M 270.8361511 230.2249908 C 267.3826904 230.2249908 264.57269279999997 233.0368957 264.57269279999997 236.4903717 C 264.57269279999997 239.9438477 267.38269039999994 242.7519073 270.8361511 242.7519073 C 274.28961180000005 242.7519073 277.0996094 239.9438476 277.0996094 236.4903717 C 277.0996094 233.0368958 274.2896118 230.2249908 270.8361511 230.2249908 z" stroke-linecap="round" />
</g>
		<g transform="matrix(0.4237728348672415 0 0 0.4237728348672415 -23.605746162831736 -72.07824518345643)"  >
<linearGradient id="SVGID_11_11_11_1145151" gradientUnits="userSpaceOnUse" gradientTransform="matrix(1 0 0 1 280.3447265 166.0327568)"  x1="0" y1="0" x2="0" y2="28">
<stop offset="0%" style="stop-color:rgb(23,234,217);stop-opacity: 1"/>
<stop offset="100%" style="stop-color:rgb(96,120,234);stop-opacity: 1"/>
</linearGradient>
<path style="stroke: none; stroke-width: 1; stroke-dasharray: none; stroke-linecap: butt; stroke-dashoffset: 0; stroke-linejoin: miter; stroke-miterlimit: 4; fill: url(#SVGID_11_11_11_1145151); fill-rule: nonzero; opacity: 1;"  paint-order="stroke"  transform=" translate(-294.2962341, -179.9130041573862)" d="M 294.2962341 193.7932434 C 290.72244259999997 193.7970886 287.1505737 192.4343872 284.4309387 189.71627809999998 C 281.79583740000004 187.081192 280.34472650000004 183.57505799999998 280.34472650000004 179.85096739999997 C 280.34472650000004 176.12341309999996 281.7958373 172.61727899999997 284.4309387 169.98567199999997 C 289.6976318 164.71511839999997 298.89483640000003 164.71511839999997 304.16152950000003 169.98567199999997 C 306.79699700000003 172.62112429999996 308.2477417 176.12341309999996 308.2477417 179.85096739999997 C 308.2477417 183.57505799999998 306.7969971 187.081192 304.16152950000003 189.71627809999998 C 301.4418945 192.4343872 297.868103 193.7932434 294.2962341 193.7932434 z M 294.2962341 173.5855865 C 292.6240844 173.5855865 291.0511169 174.2390747 289.8667602 175.4214935 C 288.6843566 176.6039276 288.03277579999997 178.1768951 288.03277579999997 179.8509674 C 288.03277579999997 181.5215759 288.68435659999994 183.0980225 289.8667602 184.2808227 C 292.31042479999996 186.7206268 296.2820739 186.7206268 298.7261047 184.2808227 C 299.9085083 183.0980224 300.5596923 181.5215759 300.5596923 179.8509674 C 300.5596923 178.1768951 299.90850819999997 176.6039276 298.7261047 175.4214935 L 298.7261047 175.4214935 C 297.541748 174.2390747 295.9687805 173.5855865 294.2962341 173.5855865 z" stroke-linecap="round" />
</g>
		<g transform="matrix(0.4237728348672415 0 0 0.4237728348672415 24.399466378284444 -72.07743215721422)"  >
<linearGradient id="SVGID_11_11_11_1145152" gradientUnits="userSpaceOnUse" gradientTransform="matrix(1 0 0 1 393.62545779999994 166.03275679999996)"  x1="0" y1="0" x2="0" y2="28">
<stop offset="0%" style="stop-color:rgb(23,234,217);stop-opacity: 1"/>
<stop offset="100%" style="stop-color:rgb(96,120,234);stop-opacity: 1"/>
</linearGradient>
<path style="stroke: none; stroke-width: 1; stroke-dasharray: none; stroke-linecap: butt; stroke-dashoffset: 0; stroke-linejoin: miter; stroke-miterlimit: 4; fill: url(#SVGID_11_11_11_1145152); fill-rule: nonzero; opacity: 1;"  paint-order="stroke"  transform=" translate(-407.57676695, -179.91492269999998)" d="M 407.5769653 193.7970886 C 404.00509639999996 193.7970886 400.4313049 192.4343872 397.7112732 189.71627809999998 C 395.0762024 187.081192 393.6254578 183.57505799999998 393.6254578 179.85096739999997 C 393.6254578 176.12341309999996 395.0762024 172.61727899999997 397.7112732 169.98567199999997 C 402.978363 164.71511839999997 412.1751709 164.71511839999997 417.4422607 169.98567199999997 C 420.0773315 172.61727909999996 421.5280761 176.12341309999996 421.5280761 179.85096739999997 C 421.5280761 183.57505799999998 420.0773315 187.081192 417.4422607 189.71627809999998 L 417.4422607 189.71627809999998 C 414.722229 192.4343872 411.1488342 193.7970886 407.5769653 193.7970886 z M 407.5769653 173.5855865 C 405.9044189 173.5855865 404.3314514 174.2390747 403.14709469999997 175.4214935 C 401.9646911 176.6039276 401.3135071 178.1768951 401.3135071 179.8509674 C 401.3135071 181.5215759 401.9646912 183.0980225 403.14709469999997 184.2808227 C 405.58728019999995 186.717163 409.55892939999995 186.717163 412.0064392 184.2808227 L 412.0064392 184.2808227 C 413.1888428 183.0980224 413.8400268 181.5215759 413.8400268 179.8509674 C 413.8400268 178.1768951 413.18884269999995 176.6039276 412.0064392 175.4214935 C 410.8220825 174.2390747 409.249115 173.5855865 407.5769653 173.5855865 z" stroke-linecap="round" />
</g>
		<g transform="matrix(0.4237728348672415 0 0 0.4237728348672415 0 5.080100809148149)"  >
<linearGradient id="SVGID_11_11_11_1145153" gradientUnits="userSpaceOnUse" gradientTransform="matrix(1 0 0 1 133.99999700621822 189.98331805925937)"  x1="0" y1="0" x2="0" y2="344">
<stop offset="0%" style="stop-color:rgb(23,234,217);stop-opacity: 1"/>
<stop offset="100%" style="stop-color:rgb(96,120,234);stop-opacity: 1"/>
</linearGradient>
<path style="stroke: none; stroke-width: 1; stroke-dasharray: none; stroke-linecap: butt; stroke-dashoffset: 0; stroke-linejoin: miter; stroke-miterlimit: 4; fill: url(#SVGID_11_11_11_1145153); fill-rule: nonzero; opacity: 1;"  paint-order="stroke"  transform=" translate(-350.0000079632465, -361.9877848987628)" d="M 484.8822021 456.9048157 C 539.0014648 456.9048157 566.026123 418.7317505 566 418.7670899 C 565.9976807 418.7648011 527.5228271 379.7218018 430.1525269 399.3205567 C 437.7948304 378.3544922 437.8736268 359.389618 430.2578431 342.7338257 C 417.080536 313.91519170000004 385.9177857 302.7440491 375.021515 300.8712464 C 369.05252090000005 299.8456727 365.4825746 297.4646607 364.1098634 293.5937501 C 362.6187745 289.38876350000004 364.2609559 284.5383607 368.1007386 281.7972108 C 376.7371217 275.63061530000004 396.5807496 258.6227113 394.3104554 233.93063370000002 C 391.1502992 199.5535127 365.8527528 191.98617570000002 354.6239625 190.3313142 C 351.0263673 189.8012239 348.0418397 189.9384614 345.3764039 190.3313142 C 334.1476136 191.98617570000002 308.8500977 199.5535127 305.689911 233.93063370000002 C 303.4192506 258.6227113 323.2632753 275.6306154 331.8996278 281.7972108 C 335.73904430000005 284.5383607 337.38159190000005 289.38876350000004 335.890503 293.5937501 C 334.5177918 297.4646607 330.9478455 299.8456727 324.9788514 300.8712464 C 314.0825806 302.74404910000004 282.9198304 313.91519170000004 269.7425233 342.7338257 C 262.1267396 359.3896179 262.205536 378.3544922 269.8478395 399.3205567 C 172.47755450000002 379.7218018 134.0027162 418.7648011 134.00001540000002 418.7670899 C 133.9742586 418.7317505 160.99891680000002 456.9048157 215.11816420000002 456.9048157 C 215.2842256 456.9048157 170.13539140000003 448.1919556 146.38893140000002 420.3589173 C 157.81951920000003 413.01873789999996 197.82121290000003 392.79379279999995 272.4802553 408.9337159 C 272.9757387 409.0409547 273.4581606 409.1259156 273.94790670000003 409.2231751 C 276.2973635 414.2934266 279.03085350000003 419.46286019999997 282.21868920000003 424.74685669999997 C 295.6320498 446.97726439999997 316.19104030000005 468.17398069999996 341.84988430000004 486.00256349999995 C 299.80703760000006 512.1599732 252.37637360000002 525.6774902999999 223.81872590000006 523.3099976 C 202.25029020000005 521.5220948 183.12550390000007 505.5105896 201.69636570000006 481.13641359999997 C 225.68615760000006 449.6496277 302.5712589000001 454.82406619999995 302.5712589000001 454.82406619999995 C 148.9955600000001 417.07302859999993 131.63287390000008 602.5214844 325.1091617000001 505.61129759999994 C 333.8108829000001 501.25296019999996 342.10705600000006 496.4959716999999 350.00000030000007 491.44107049999997 C 357.8929446000001 496.49597159999996 366.1894839000001 501.2529601 374.8912051000001 505.61129759999994 C 568.3674929000001 602.5214844 551.0044558000001 417.07302859999993 397.4291079000001 454.82406619999995 C 397.4291079000001 454.82406619999995 474.31420920000005 449.64962769999994 498.30361960000005 481.13641359999997 C 516.8748781 505.51058959999995 497.75009180000006 521.5220948 476.1816408 523.3099976 C 447.6239931 525.6774902999999 400.1933596 512.1599732 358.15048240000004 486.00256349999995 C 383.80935690000007 468.17398069999996 404.36834740000006 446.97726439999997 417.78167750000006 424.74685669999997 C 420.96954370000003 419.46286009999994 423.70263700000004 414.29342649999995 426.05249050000003 409.2231751 C 426.5422366 409.1259156 427.02465850000004 409.04095459999996 427.52014190000006 408.9337159 C 502.17916900000006 392.7937928 542.1808475 413.01873789999996 553.6110843 420.3589173 C 529.8649902 448.1919556 484.716156 456.9048157 484.8822021 456.9048157 z M 410.1547546 420.1448059 C 395.6719971 444.1495972 374.0140076 464.5394592 350 480.7266235 C 325.9859924 464.5394592 304.32836910000003 444.1495971 289.8456116 420.1448059 C 287.90130619999996 416.9219665 286.1492005 413.7544861 284.5404969 410.6289062 C 324.6425171 413.0740967 342.5752563 380.1338806 350 358.382843 C 357.4251099 380.1338806 375.3578796 413.0740967 415.4598999 410.62890619999996 C 413.8511658 413.7544861 412.0990601 416.9219666 410.1547546 420.1448059 z M 419.8397827 401.2383423 C 374.8128052 407.2019653 359.6946411 363.1540527 355.5007934 345.68219 C 353.8582458 338.8382874 345.5470886 341.317688 344.49957270000004 345.68219 C 340.30575560000005 363.1540528 325.18759150000005 407.2019654 280.160614 401.2383423 C 271.4823303 380.5105896 270.6693115 362.1315613 277.844574 346.4375611 C 288.1215821 323.96154789999997 313.13427740000003 311.9447327 326.48880010000005 309.65023809999997 C 338.06890870000007 307.65979009999995 342.55911260000005 301.43823249999997 344.28662110000005 296.57055669999994 C 347.0966187 288.63955689999995 344.13211060000003 279.5841980999999 337.07522580000006 274.54776009999995 C 327.90338130000004 267.99829109999996 312.77944940000003 254.11830149999994 314.5592346000001 234.74671949999995 C 316.2951965000001 215.86332719999996 325.8037720000001 206.85409559999997 334.94027710000006 202.57031259999997 C 343.1353455000001 198.72743239999997 356.86505130000006 198.72743239999997 365.06011960000006 202.57031259999997 C 374.19659420000005 206.85409559999997 383.7051696000001 215.86332709999996 385.44113160000006 234.74671949999998 C 387.22091680000005 254.11830149999997 372.09698490000005 267.9982912 362.9251404000001 274.5477601 C 355.8682862000001 279.5841981 352.90377810000007 288.639557 355.7137451000001 296.5705567 C 357.4412536000001 301.43823249999997 361.9314575000001 307.6597901 373.5115967000001 309.6502381 C 386.8661194000001 311.94473270000003 411.8788147000001 323.9615479 422.1554260000001 346.43756110000004 C 429.3310547 362.1315613 428.5180359 380.5105896 419.8397827 401.2383423 z" stroke-linecap="round" />
</g>
		<g transform="matrix(0.4237728348672415 0 0 0.4237728348672415 35.656356105478665 62.83230935743785)"  >
<linearGradient id="SVGID_11_11_11_1145154" gradientUnits="userSpaceOnUse" gradientTransform="matrix(1 0 0 1 369.25665289999995 480.19921869999996)"  x1="0" y1="0" x2="0" y2="36">
<stop offset="0%" style="stop-color:rgb(23,234,217);stop-opacity: 1"/>
<stop offset="100%" style="stop-color:rgb(96,120,234);stop-opacity: 1"/>
</linearGradient>
<path style="stroke: none; stroke-width: 1; stroke-dasharray: none; stroke-linecap: butt; stroke-dashoffset: 0; stroke-linejoin: miter; stroke-miterlimit: 4; fill: url(#SVGID_11_11_11_1145154); fill-rule: nonzero; opacity: 1;"  paint-order="stroke"  transform=" translate(-434.140267016541, -498.26883879496677)" d="M 472.0539246 516.0966797 C 487.6168518 514.8065796 501.7648011 505.3795166 498.56887820000003 490.4816284 C 496.15673830000003 500.6486816 484.5643311 506.9467163 472.0539246 507.9838562 C 448.41625980000003 509.94314579999997 410.5918274 499.9190674 375.145691 480.1992187 C 373.2213746 481.7983398 371.2566834 483.37670890000004 369.2566529 484.935852 C 406.340332 506.8879089 447.1012268 518.1655273 472.0539246 516.0966797 z" stroke-linecap="round" />
</g>
		<g transform="matrix(0.4237728348672415 0 0 0.4237728348672415 -35.65619478909218 62.832309382856636)"  >
<linearGradient id="SVGID_11_11_11_1145155" gradientUnits="userSpaceOnUse" gradientTransform="matrix(1 0 0 1 200.97651525415313 480.19921880000004)"  x1="0" y1="0" x2="0" y2="36">
<stop offset="0%" style="stop-color:rgb(23,234,217);stop-opacity: 1"/>
<stop offset="100%" style="stop-color:rgb(96,120,234);stop-opacity: 1"/>
</linearGradient>
<path style="stroke: none; stroke-width: 1; stroke-dasharray: none; stroke-linecap: butt; stroke-dashoffset: 0; stroke-linejoin: miter; stroke-miterlimit: 4; fill: url(#SVGID_11_11_11_1145155); fill-rule: nonzero; opacity: 1;"  paint-order="stroke"  transform=" translate(-265.8601295770766, -498.26883885494897)" d="M 227.9464417 507.9838562 C 215.4360657 506.9467163 203.8436432 500.6486816 201.4315186 490.4816284 C 198.2355957 505.3795166 212.3835297 514.8065796 227.9464417 516.0966797 C 252.89917 518.1655274 293.6600647 506.88790889999996 330.7437439 484.9358521 C 328.74331670000004 483.376709 326.77902220000004 481.7983399 324.85470580000003 480.1992188 C 289.4085693 499.9190674 251.5841217 509.9431458 227.9464417 507.9838562 z" stroke-linecap="round" />
</g>
</g>
</g>
<g transform="matrix(1.9210878699103018 -0.015921578917169575 0.015921578917169575 1.9210878699103018 490.7254882710926 506.4935993024746)" id="text-logo-0"  >
<g style=""  paint-order="stroke"   >
		<g transform="matrix(1 0 0 1 0 0)" id="text-logo-0-path-0"  >
<linearGradient id="SVGID_1145156" gradientUnits="userSpaceOnUse" gradientTransform="matrix(1 0 0 1 1.6400000000000006 -46.86)"  x1="-1.6435546875" y1="-11.165818125000015" x2="-1.6435546875" y2="63.41418187499998">
<stop offset="0%" style="stop-color:rgb(23,234,217);stop-opacity: 1"/>
<stop offset="100%" style="stop-color:rgb(96,120,234);stop-opacity: 1"/>
</linearGradient>
<path style="stroke: rgb(96,120,234); stroke-width: 2; stroke-dasharray: none; stroke-linecap: butt; stroke-dashoffset: 0; stroke-linejoin: miter; stroke-miterlimit: 4; fill: url(#SVGID_1145156); fill-rule: nonzero; opacity: 1;"  paint-order="stroke"  transform=" translate(-22.67, 23.43)" d="M 1.64 0 L 3.09 0 L 10.44 -16.76 L 34.9 -16.76 L 42.25 0 L 43.7 0 L 23.3 -46.86 L 22.11 -46.86 Z M 10.96 -18.08 L 22.72 -44.96 L 34.32 -18.08 Z" stroke-linecap="round" />
</g>
</g>
</g>
<g transform="matrix(1.92113003679451 -0.009564638918480342 0.009564638918480344 1.9211300367945103 630.5130157857254 505.64977318143434)" id="text-logo-1"  >
<g style=""  paint-order="stroke"   >
		<g transform="matrix(1 0 0 1 0 0)" id="text-logo-1-path-0"  >
<linearGradient id="SVGID_1145157" gradientUnits="userSpaceOnUse" gradientTransform="matrix(1 0 0 1 3.580000000000002 -47.18)"  x1="-3.5771484375" y1="-10.843552500000015" x2="-3.5771484375" y2="63.73644749999998">
<stop offset="0%" style="stop-color:rgb(23,234,217);stop-opacity: 1"/>
<stop offset="100%" style="stop-color:rgb(96,120,234);stop-opacity: 1"/>
</linearGradient>
<path style="stroke: rgb(96,120,234); stroke-width: 2; stroke-dasharray: none; stroke-linecap: butt; stroke-dashoffset: 0; stroke-linejoin: miter; stroke-miterlimit: 4; fill: url(#SVGID_1145157); fill-rule: nonzero; opacity: 1;"  paint-order="stroke"  transform=" translate(-20.935000000000002, 23.43)" d="M 4.54 -7.8 L 3.58 -6.93 C 5.54 -4.96 7.99 -3.25 10.86 -1.84 C 13.73 -0.39 17.11 0.32 20.98 0.32 C 24.69 0.32 29 -0.45 32.42 -2.42 C 35.84 -4.38 38.29 -7.41 38.29 -12.08 C 38.29 -21.62 29.1 -24.11 20.66 -24.11 C 13.44 -24.11 5.54 -26.14 5.54 -35.13 C 5.7 -43.12 13.12 -45.86 20.46 -45.86 C 25.43 -45.86 30.74 -44.57 33.81 -40.12 L 35.03 -40.67 C 32.13 -44.86 28.17 -47.18 20.46 -47.18 C 13.08 -47.18 4.22 -44.05 4.22 -35.13 C 4.22 -25.56 12.18 -22.78 20.66 -22.78 C 27.68 -22.78 36.96 -21.01 36.96 -12.08 C 36.96 -4 28.2 -1 20.98 -1 C 14.95 -1 8.8 -3.35 4.54 -7.8 Z" stroke-linecap="round" />
</g>
</g>
</g>
<g transform="matrix(1.921151228716257 -0.003171276356707472 0.0031712763567074724 1.9211512287162573 770.0621258627689 505.3565167359044)" id="text-logo-2"  >
<g style=""  paint-order="stroke"   >
		<g transform="matrix(0.9999999999999999 0 0 1 0 0)" id="text-logo-2-path-0"  >
<linearGradient id="SVGID_1145158" gradientUnits="userSpaceOnUse" gradientTransform="matrix(1 0 0 1 3.16 -47.12)"  x1="-3.158203125" y1="-10.908005625000015" x2="-3.158203125" y2="63.67199437499998">
<stop offset="0%" style="stop-color:rgb(23,234,217);stop-opacity: 1"/>
<stop offset="100%" style="stop-color:rgb(96,120,234);stop-opacity: 1"/>
</linearGradient>
<path style="stroke: rgb(96,120,234); stroke-width: 2; stroke-dasharray: none; stroke-linecap: butt; stroke-dashoffset: 0; stroke-linejoin: miter; stroke-miterlimit: 4; fill: url(#SVGID_1145158); fill-rule: nonzero; opacity: 1;"  paint-order="stroke"  transform=" translate(-23.334999999999997, 23.365)" d="M 3.16 -23.36 C 3.16 -11.76 12.28 0.39 25.27 0.39 C 31.81 0.39 41.02 -3.64 43.51 -10.51 L 42.25 -10.83 C 40.06 -5.16 31.07 -0.97 25.27 -0.93 C 13.76 -0.93 4.48 -11.57 4.48 -23.36 C 4.48 -34.45 12.18 -45.79 24.49 -45.79 C 31.81 -45.79 37.51 -43.12 41.12 -36.51 L 42.38 -36.9 C 39.35 -42.86 34.26 -47.12 24.49 -47.12 C 18.21 -47.12 12.89 -44.25 9.15 -39.83 C 5.41 -35.42 3.16 -29.42 3.16 -23.36 Z" stroke-linecap="round" />
</g>
</g>
</g>
<g transform="matrix(1.9211515311763492 0.002982423592300204 -0.0029824235923002046 1.9211515311763494 908.8436778337187 505.24324715612676)" id="text-logo-3"  >
<g style=""  paint-order="stroke"   >
		<g transform="matrix(1 0 0 1 0 0)" id="text-logo-3-path-0"  >
<linearGradient id="SVGID_1145159" gradientUnits="userSpaceOnUse" gradientTransform="matrix(1 0 0 1 4.960000000000001 -46.86)"  x1="-4.962890625" y1="-11.165818125000015" x2="-4.962890625" y2="63.41418187499998">
<stop offset="0%" style="stop-color:rgb(23,234,217);stop-opacity: 1"/>
<stop offset="100%" style="stop-color:rgb(96,120,234);stop-opacity: 1"/>
</linearGradient>
<path style="stroke: rgb(96,120,234); stroke-width: 2; stroke-dasharray: none; stroke-linecap: butt; stroke-dashoffset: 0; stroke-linejoin: miter; stroke-miterlimit: 4; fill: url(#SVGID_1145159); fill-rule: nonzero; opacity: 1;"  paint-order="stroke"  transform=" translate(-20.335, 23.43)" d="M 4.96 0 L 35.71 0 L 35.71 -1.32 L 6.28 -1.32 L 6.28 -23.3 L 31.55 -23.3 L 31.55 -24.62 L 6.28 -24.62 L 6.28 -45.54 L 35.13 -45.54 L 35.13 -46.86 L 4.96 -46.86 Z" stroke-linecap="round" />
</g>
</g>
</g>
<g transform="matrix(1.9211316362961792 0.009237781859383223 -0.009237781859383223 1.9211316362961794 1040.8517686238156 505.6531535867077)" id="text-logo-4"  >
<g style=""  paint-order="stroke"   >
		<g transform="matrix(1 0 0 1 0 0)" id="text-logo-4-path-0"  >
<linearGradient id="SVGID_1145160" gradientUnits="userSpaceOnUse" gradientTransform="matrix(1 0 0 1 5.16 -46.86)"  x1="-5.15625" y1="-11.165818125000015" x2="-5.15625" y2="63.41418187499998">
<stop offset="0%" style="stop-color:rgb(23,234,217);stop-opacity: 1"/>
<stop offset="100%" style="stop-color:rgb(96,120,234);stop-opacity: 1"/>
</linearGradient>
<path style="stroke: rgb(96,120,234); stroke-width: 2; stroke-dasharray: none; stroke-linecap: butt; stroke-dashoffset: 0; stroke-linejoin: miter; stroke-miterlimit: 4; fill: url(#SVGID_1145160); fill-rule: nonzero; opacity: 1;"  paint-order="stroke"  transform=" translate(-24.220000000000002, 23.43)" d="M 5.16 0 L 6.48 0 L 6.48 -44.28 L 41.77 0 L 43.28 0 L 43.28 -46.79 L 41.99 -46.79 L 41.99 -1.9 L 6.12 -46.86 L 5.16 -46.86 Z" stroke-linecap="round" />
</g>
</g>
</g>
<g transform="matrix(1.9210878699103018 0.015921578917169575 -0.015921578917169575 1.9210878699103018 1188.5877914360653 506.5054864418977)" id="text-logo-5"  >
<g style=""  paint-order="stroke"   >
		<g transform="matrix(1 0 0 1 0 0)" id="text-logo-5-path-0"  >
<linearGradient id="SVGID_1145161" gradientUnits="userSpaceOnUse" gradientTransform="matrix(1 0 0 1 4.960000000000001 -46.86)"  x1="-4.962890625" y1="-11.165818125000015" x2="-4.962890625" y2="63.41418187499998">
<stop offset="0%" style="stop-color:rgb(23,234,217);stop-opacity: 1"/>
<stop offset="100%" style="stop-color:rgb(96,120,234);stop-opacity: 1"/>
</linearGradient>
<path style="stroke: rgb(96,120,234); stroke-width: 2; stroke-dasharray: none; stroke-linecap: butt; stroke-dashoffset: 0; stroke-linejoin: miter; stroke-miterlimit: 4; fill: url(#SVGID_1145161); fill-rule: nonzero; opacity: 1;"  paint-order="stroke"  transform=" translate(-23.475, 23.43)" d="M 4.96 0 L 20.01 0 C 33.42 0 41.99 -9.28 41.99 -23.49 C 41.99 -36.35 34.8 -46.86 20.01 -46.86 L 4.96 -46.86 Z M 20.01 -1.32 L 6.28 -1.32 L 6.28 -45.54 L 20.01 -45.54 C 33.19 -45.54 40.51 -36.74 40.67 -23.49 C 40.32 -10.63 33.61 -1.32 20.01 -1.32 Z" stroke-linecap="round" />
</g>
</g>
</g>
</svg>