<?xml version="1.0" encoding="iso-8859-1"?>
<!-- Uploaded to: SVG Repo, www.svgrepo.com, Generator: SVG Repo Mixer Tools -->
<svg height="800px" width="800px" version="1.1" id="Capa_1" xmlns="http://www.w3.org/2000/svg" xmlns:xlink="http://www.w3.org/1999/xlink" 
	 viewBox="0 0 30.74 30.74" xml:space="preserve">
<g>
	<path style="fill:#030104;" d="M15.371,10.471c-2.71,0-4.903,2.193-4.903,4.898c0,2.707,2.193,4.902,4.903,4.902
		c2.709,0,4.899-2.195,4.899-4.902C20.27,12.664,18.08,10.471,15.371,10.471z M15.529,19.471c0-0.904,0-6.098,0-8.199
		c2.266,0,4.1,1.836,4.1,4.098C19.629,17.633,17.795,19.471,15.529,19.471z"/>
	<path style="fill:#030104;" d="M14.128,6.602V1.246C14.128,0.557,14.683,0,15.371,0l0,0c0.689,0,1.246,0.557,1.246,1.246l0,0v5.355
		c0,0.689-0.557,1.242-1.246,1.242l0,0C14.683,7.844,14.128,7.291,14.128,6.602L14.128,6.602z"/>
	<path style="fill:#030104;" d="M14.128,29.492V24.14c0-0.689,0.556-1.244,1.243-1.244l0,0c0.689,0,1.246,0.555,1.246,1.244l0,0
		v5.352c0,0.688-0.557,1.248-1.246,1.248l0,0C14.683,30.74,14.128,30.18,14.128,29.492L14.128,29.492z"/>
	<path style="fill:#030104;" d="M20.697,10.049c-0.488-0.488-0.488-1.273,0-1.76l0,0l3.782-3.785c0.484-0.486,1.271-0.486,1.761,0
		l0,0c0.486,0.486,0.486,1.275,0,1.76l0,0l-3.789,3.785c-0.24,0.24-0.558,0.365-0.876,0.365l0,0
		C21.255,10.414,20.937,10.289,20.697,10.049L20.697,10.049z"/>
	<path style="fill:#030104;" d="M4.503,26.236c-0.486-0.484-0.486-1.273,0-1.76l0,0l3.787-3.785c0.485-0.484,1.274-0.484,1.759,0
		l0,0c0.487,0.484,0.487,1.275,0,1.758l0,0l-3.78,3.787C6.023,26.477,5.705,26.6,5.383,26.6l0,0
		C5.066,26.6,4.749,26.477,4.503,26.236L4.503,26.236z"/>
	<path style="fill:#030104;" d="M24.144,16.617c-0.69,0-1.25-0.561-1.25-1.248l0,0c0-0.684,0.56-1.246,1.25-1.246l0,0h5.35
		c0.688,0,1.242,0.562,1.242,1.246l0,0c0,0.688-0.555,1.248-1.242,1.248l0,0H24.144L24.144,16.617z"/>
	<path style="fill:#030104;" d="M1.249,16.617c-0.69,0-1.245-0.56-1.245-1.248l0,0c0-0.684,0.555-1.246,1.245-1.246l0,0h5.35
		c0.688,0,1.248,0.562,1.248,1.246l0,0c0,0.688-0.559,1.248-1.248,1.248l0,0H1.249L1.249,16.617z"/>
	<path style="fill:#030104;" d="M24.479,26.236l-3.782-3.787c-0.488-0.482-0.488-1.273,0-1.758l0,0c0.48-0.484,1.273-0.484,1.754,0
		l0,0l3.789,3.785c0.486,0.486,0.486,1.275,0,1.76l0,0c-0.246,0.24-0.564,0.363-0.883,0.363l0,0
		C25.039,26.6,24.72,26.477,24.479,26.236L24.479,26.236z"/>
	<path style="fill:#030104;" d="M8.29,10.049L4.503,6.264c-0.486-0.484-0.486-1.273,0-1.76l0,0c0.489-0.486,1.277-0.486,1.766,0l0,0
		l3.78,3.785c0.487,0.486,0.487,1.271,0,1.76l0,0c-0.244,0.24-0.564,0.365-0.879,0.365l0,0C8.85,10.414,8.531,10.289,8.29,10.049
		L8.29,10.049z"/>
</g>
</svg>