<svg width="105" height="29" viewBox="0 0 105 29" fill="none" xmlns="http://www.w3.org/2000/svg">
<path d="M7.19667 22.137C7.65567 22.137 8.03367 22.515 8.03367 22.974C8.03367 23.46 7.65567 23.811 7.19667 23.811C3.84867 23.811 1.14867 21.111 1.14867 17.79V4.479C1.14867 4.02 1.52667 3.642 1.98567 3.642C2.44467 3.642 2.82267 4.02 2.82267 4.479V17.79C2.82267 20.193 4.79367 22.137 7.19667 22.137ZM20.4395 12.039C20.8985 12.039 21.2765 12.417 21.2765 12.876V17.709C21.2765 17.736 21.2765 17.736 21.2765 17.736C21.2765 19.167 20.4665 21.138 19.4405 22.137C18.4415 23.163 16.4435 23.973 15.0125 23.973C11.5835 23.973 8.77552 21.165 8.77552 17.709V12.876C8.77552 12.417 9.15352 12.039 9.61252 12.039C10.0715 12.039 10.4495 12.417 10.4495 12.876V17.709C10.4495 20.247 12.5015 22.299 15.0125 22.299C17.5505 22.299 19.6025 20.247 19.6025 17.709V12.876C19.6025 12.417 19.9805 12.039 20.4395 12.039ZM35.9506 12.039C38.8666 12.039 41.2426 14.415 41.2426 17.331V23.082C41.2426 23.541 40.8646 23.919 40.4056 23.919C39.9736 23.919 39.5956 23.541 39.5956 23.082V17.331C39.5956 15.333 37.9486 13.713 35.9506 13.713C33.9526 13.713 32.3326 15.333 32.3326 17.331V23.082C32.3056 23.541 31.9546 23.919 31.4956 23.919C31.0366 23.919 30.6856 23.541 30.6586 23.082V17.331C30.6586 15.333 29.0386 13.713 27.0406 13.713C25.0426 13.713 23.4226 15.333 23.4226 17.331V23.082C23.4226 23.541 23.0446 23.919 22.5856 23.919C22.1266 23.919 21.7486 23.541 21.7486 23.082V17.331C21.7486 14.415 24.1246 12.039 27.0406 12.039C27.8776 12.039 29.1466 12.417 29.8756 12.876C30.4156 13.227 31.1446 13.956 31.4956 14.496C31.8466 13.956 32.5756 13.227 33.1156 12.876C33.8446 12.417 35.1136 12.039 35.9506 12.039ZM54.169 12.039C54.628 12.039 55.006 12.417 55.006 12.876V17.709C55.006 17.736 55.006 17.736 55.006 17.736C55.006 19.167 54.196 21.138 53.17 22.137C52.171 23.163 50.173 23.973 48.742 23.973C45.313 23.973 42.505 21.165 42.505 17.709V12.876C42.505 12.417 42.883 12.039 43.342 12.039C43.801 12.039 44.179 12.417 44.179 12.876V17.709C44.179 20.247 46.231 22.299 48.742 22.299C51.28 22.299 53.332 20.247 53.332 17.709V12.876C53.332 12.417 53.71 12.039 54.169 12.039ZM60.9321 12.039C63.8481 12.039 66.1971 14.415 66.1971 17.331V23.109C66.1971 23.568 65.8461 23.919 65.3871 23.919C64.9281 23.919 64.5501 23.568 64.5501 23.109V17.331C64.5501 15.333 62.9301 13.713 60.9321 13.713C58.9071 13.713 57.2871 15.333 57.2871 17.331V23.109C57.2871 23.568 56.9091 23.946 56.4501 23.946C55.9911 23.946 55.6401 23.568 55.6401 23.109V17.331C55.6401 14.415 58.0161 12.039 60.9321 12.039ZM72.3615 23.973C69.0675 23.973 66.3945 21.3 66.3945 18.006C66.3945 16.656 67.1775 14.766 68.1225 13.794C69.0945 12.822 70.9845 12.039 72.3615 12.039C75.6555 12.039 78.3285 14.712 78.3285 18.006V23.136C78.3285 23.595 77.9505 23.973 77.4915 23.973C77.0325 23.973 76.6545 23.595 76.6545 23.136V18.006C76.6545 15.63 74.7105 13.713 72.3615 13.713C69.9855 13.713 68.0685 15.657 68.0685 18.006C68.0685 20.382 69.9855 22.299 72.3615 22.299C72.9555 22.299 73.8465 22.083 74.3865 21.813C74.4945 21.759 74.6565 21.705 74.7645 21.705C75.2235 21.705 75.6015 22.083 75.6015 22.542C75.6015 22.812 75.4125 23.136 75.1695 23.271C74.4405 23.676 73.1715 23.973 72.3615 23.973ZM84.6013 12.876H80.2273V17.79C80.2273 20.193 82.1983 22.137 84.6013 22.137C85.0603 22.137 85.4383 22.515 85.4383 22.974C85.4383 23.46 85.0603 23.811 84.6013 23.811H84.5743C81.2533 23.811 78.5533 21.111 78.5533 17.79V4.479C78.5533 4.02 78.9313 3.642 79.3903 3.642C79.8493 3.642 80.2273 4.02 80.2273 4.479V11.202H84.6013C85.0603 11.202 85.4383 11.58 85.4383 12.039C85.4383 12.498 85.0603 12.876 84.6013 12.876ZM95.08 21.3C95.215 21.165 95.458 21.084 95.647 21.084C96.106 21.084 96.484 21.462 96.484 21.921C96.484 22.164 96.322 22.461 96.133 22.596C95.215 23.325 93.541 23.919 92.38 23.919C89.113 23.919 86.44 21.273 86.44 17.979C86.44 14.712 89.113 12.039 92.38 12.039C93.541 12.039 95.215 12.633 96.133 13.389C96.295 13.524 96.43 13.821 96.43 14.037C96.43 14.226 96.322 14.496 96.16 14.631L90.733 19.734C90.598 19.896 90.328 20.004 90.139 20.004C89.653 20.004 89.302 19.626 89.302 19.167C89.302 18.951 89.41 18.681 89.599 18.519L94.243 14.145C93.757 13.902 92.92 13.713 92.38 13.713C90.031 13.713 88.114 15.63 88.114 17.979C88.114 20.328 90.031 22.245 92.38 22.245C93.217 22.245 94.432 21.813 95.08 21.3Z" fill="white"/>
<circle cx="97" cy="6" r="4" fill="url(#paint0_linear_4231_345)"/>
<defs>
<linearGradient id="paint0_linear_4231_345" x1="94.327" y1="10" x2="99.673" y2="2" gradientUnits="userSpaceOnUse">
<stop stop-color="#00A270"/>
<stop offset="1" stop-color="#04714F"/>
</linearGradient>
</defs>
</svg>
