<svg width="1080" height="180" xmlns="http://www.w3.org/2000/svg"><path d="M889.07 180h-4.593l-3.087-1.498-23.229-11.272.524 7.5 10.861 5.27h-4.591l-6.118-2.968.207 2.968h-2.005l-.44-6.276.011.005-.525-7.505-.01-.005-.844-12.1.01.004-.526-7.492-.016-.008-.35-5.04 5.879-3.968.007.004 6.256-4.218-.006-.003 10.08-6.804.007.003 6.247-4.214-.008-.004 10.081-6.799.006.003 6.246-4.211h-.001l8.16-5.505-.001-.001 10.08-6.8 49.425 23.981c5.68 2.757 11.737 5.671 17.844 8.31 6.03 2.188 12.459 4.087 19.048 5.621 6.193 1.1 12.888 2.097 20.417 3.04 6.632.831 13.689 1.737 20.668 2.86 7.242 1.163 13.79 2.596 20.016 4.384a118.718 118.718 0 0115.2 5.49v2.19a116.282 116.282 0 00-15.75-5.758c-6.15-1.764-12.622-3.182-19.784-4.332-6.946-1.118-13.985-2.02-20.6-2.85-7.562-.946-14.29-1.95-20.569-3.066-6.719-1.563-13.222-3.485-19.383-5.72-6.2-2.678-12.28-5.603-17.98-8.37l-48.388-23.477-6.242 4.21 51.79 25.129c2.911 1.4 5.797 2.776 8.688 4.11l.312.144c1.435.66 2.873 1.308 4.314 1.943l.11.048c1.474.647 2.955 1.28 4.445 1.895a128.188 128.188 0 0019.431 4.804c5.875.965 12.266 1.731 20.723 2.485a2034.042 2034.042 0 015.429.495l.916.086a903.002 903.002 0 013.15.306 627.383 627.383 0 012.959.303l.559.058c.737.079 1.467.159 2.193.24l.478.052c.666.076 1.329.153 1.988.231l.741.087c.52.063 1.037.128 1.554.192l1.036.128c7.381.95 14.012 2.22 20.273 3.884 1.657.44 3.295.917 4.912 1.427a103.673 103.673 0 0112.695 4.929v2.213a101.589 101.589 0 00-13.297-5.234 107.805 107.805 0 00-4.822-1.4c-6.188-1.643-12.735-2.897-20.014-3.834-.4-.052-.803-.1-1.205-.15-.446-.055-.893-.112-1.34-.166l-1.008-.118c-.555-.065-1.11-.13-1.665-.193l-.853-.094c-.597-.066-1.193-.132-1.787-.195l-.984-.104c-.518-.053-1.035-.108-1.551-.159l-1.492-.149-.972-.097a1443.769 1443.769 0 00-2.468-.235c-1.802-.169-3.662-.338-5.6-.51-8.51-.758-14.945-1.53-20.87-2.503a130.014 130.014 0 01-19.771-4.891h-.001l-.066-.025a242.642 242.642 0 01-9.021-3.953l-.016-.008a632.8 632.8 0 01-8.977-4.239l-52.836-25.635-6.243 4.211 56.236 27.286c6.246 2.982 11.909 5.645 17.906 8.014a121.842 121.842 0 0019.698 4.232c5.94.767 12.436 1.321 21.06 1.793 7.984.436 14.667.858 21.336 1.502 7.49.724 14.207 1.825 20.535 3.365 6.712 1.632 13.09 3.902 18.956 6.746a87.314 87.314 0 011.132.558v2.254a90.66 90.66 0 00-1.9-.96l-.103-.05c-5.737-2.781-11.98-5.002-18.556-6.601-6.233-1.517-12.858-2.602-20.256-3.318-7.328-.71-14.813-1.144-21.253-1.496-8.646-.473-15.185-1.03-21.207-1.807a123.955 123.955 0 01-20.062-4.313l-.04-.016-.037-.013c-.075-.031-.15-.064-.226-.094-5.974-2.367-11.622-5.02-17.852-7.992l-57.285-27.794-6.244 4.21 60.675 29.438c5.448 2.584 11.631 5.516 18.075 7.639 6.022 1.982 12.492 3.304 19.78 4.04 6.055.612 12.64.98 21.352 1.19 6.606.159 14.27.368 21.65.857 7.62.502 14.424 1.43 20.801 2.836 6.806 1.5 13.225 3.699 19.082 6.537l.165.08a79.65 79.65 0 013.441 1.784v2.293a78.12 78.12 0 00-4.315-2.276l-.16-.078c-5.718-2.77-11.989-4.918-18.64-6.382-6.277-1.385-12.985-2.299-20.503-2.795-7.362-.486-14.993-.695-21.566-.853-8.744-.21-15.376-.581-21.506-1.2-7.438-.752-14.048-2.103-20.205-4.13-6.546-2.157-12.797-5.12-18.311-7.732l-61.742-29.956-6.243 4.21 65.126 31.6c5.442 2.567 11.62 5.48 18.11 7.546 5.979 1.901 12.679 3.163 19.914 3.748 6.109.495 12.967.717 21.585.701 7.486-.015 14.795-.006 21.938.262 7.757.288 14.646 1.043 21.064 2.307 6.91 1.363 13.375 3.487 19.213 6.317l.15.072a73.189 73.189 0 016.091 3.344V180h-.564a72.9 72.9 0 00-6.547-3.621c-5.683-2.754-11.983-4.825-18.726-6.152-6.318-1.246-13.106-1.988-20.752-2.274-7.108-.265-14.396-.273-21.86-.259-8.675.017-15.587-.208-21.752-.707-7.381-.597-14.23-1.887-20.356-3.837-6.607-2.102-12.854-5.046-18.366-7.643l-66.18-32.112-6.246 4.21 69.568 33.755c5.453 2.55 11.648 5.45 18.128 7.501 6.019 1.904 12.735 3.125 19.961 3.628 6.264.436 13.173.55 21.744.36l.596-.013c7.11-.157 14.46-.32 21.585-.238 7.881.09 14.853.68 21.312 1.803 6.594 1.149 12.744 3.031 18.299 5.599h-5.19c-4.204-1.584-8.709-2.798-13.452-3.624-6.352-1.105-13.219-1.686-20.992-1.774-7.09-.082-14.424.08-21.518.237l-.596.013c-8.633.193-15.6.077-21.926-.364-7.396-.516-14.269-1.766-20.427-3.717-6.62-2.095-12.869-5.02-18.383-7.601l-70.635-34.27-6.244 4.213 56.315 27.325c5.9 2.844 11.809 5.69 17.733 8.524 5.63 2.693 11.664 5.498 18.096 7.592 5.235 1.69 10.945 2.846 17.011 3.446h-12.144a75.284 75.284 0 01-5.482-1.54c-6.55-2.134-12.653-4.97-18.34-7.69a6490.064 6490.064 0 01-17.74-8.527l-57.36-27.831-6.247 4.212 63.536 30.817c4.973 2.392 9.958 4.789 14.954 7.177h-.001a291.75 291.75 0 007.294 3.382h-4.83a427.056 427.056 0 01-3.332-1.575c-4.897-2.339-9.78-4.687-14.657-7.034l-3.086-1.484-61.81-29.989-3.968 2.676.19 2.722 63.567 30.838c2.665 1.282 5.332 2.564 8.002 3.846h-4.64l-1.103-.53-3.958-1.9-61.689-29.932.522 7.486L908.584 180h-4.595l-46.523-22.573.524 7.498L889.07 180zm147.266 0h-18.619a474.24 474.24 0 018.994-.182c3.372-.032 6.57.028 9.625.182z" fill="#FFF" fill-rule="evenodd" fill-opacity=".16"/></svg>