<svg width="2040" height="286" xmlns="http://www.w3.org/2000/svg"><defs><linearGradient x1="23.955%" y1="28.332%" x2="76.133%" y2="77.579%" id="a"><stop stop-color="#6163FF" stop-opacity="0" offset="0%"/><stop stop-color="#6163FF" stop-opacity=".32" offset="53.022%"/><stop stop-color="#6163FF" stop-opacity="0" offset="100%"/></linearGradient></defs><path d="M1327 58.482l15.203-8.426 106.086 63.446 16.77 10.117 7.37 4.458 8.965 5.433c9.284 5.648 19.106 11.732 28.68 18.258 1.347.917 2.689 1.844 4.027 2.781a216.81 216.81 0 0115.739 12.243 204.422 204.422 0 0114.24 13.396c8.886 9.241 17.47 19.784 26.244 32.23 5.38 7.632 10.723 15.578 15.947 23.417l3.893 5.853c1.481 2.228 2.962 4.457 4.446 6.682l1.429 2.13c8.541 12.663 16.506 23.11 24.305 31.884 9.197 10.35 19.193 18.865 29.73 25.332l1.11.672c10.946 6.546 23.589 11.55 37.578 14.87 12.26 2.913 25.723 5.013 42.368 6.607l14.537 1.382c9.631.922 19.417 1.903 28.94 3.084 15.22 1.887 28.674 4.534 41.13 8.091 12.492 3.584 24.973 8.51 37.092 14.633 10.622 5.41 21.014 11.327 30.789 17.046l3.697 2.17c10.233 6.033 20.44 12.084 30.632 18.129l106.563 63.715-.305 17.34-110.887-66.319c-4.86-2.885-9.726-5.77-14.596-8.654l-11.452-6.775-7.738-4.57-2.585-1.517c-11.518-6.738-21.55-12.354-32.123-17.48-12.292-5.92-25.152-10.476-38.22-13.539-12.628-2.958-26.527-5.041-42.495-6.368-7.235-.601-14.616-1.115-21.895-1.597l-13.798-.907-8.663-.584a424.528 424.528 0 01-6.016-.464c-13.797-1.166-25.802-2.905-36.548-5.29-13.53-3.002-25.745-7.657-36.319-13.84l-1.039-.617c-10.689-6.422-20.78-15.095-29.998-25.778-8.19-9.493-16.393-20.807-25.082-34.59a2183.033 2183.033 0 01-5.719-9.125l-6.524-10.466c-3.7-5.926-7.47-11.922-11.242-17.755-8.628-13.345-16.928-24.538-25.373-34.218-8.76-10.04-18.697-19.184-29.534-27.178-10.723-7.853-22.036-14.923-32.664-21.394-8.113-4.93-16.224-9.83-24.321-14.716l-8.841-5.332-113.534-67.9zm32.422-17.979l97.6 58.371c8.264 4.98 16.546 9.97 24.835 14.984l8.29 5.023c9.934 6.031 21.608 13.218 32.868 20.796 11.162 7.553 21.51 15.767 30.757 24.415 9.396 8.82 18.656 18.949 27.525 30.109 7.405 9.317 14.699 19.184 21.802 28.89l3.681 5.037c9.725 13.312 18.164 23.68 26.558 32.626 9.363 9.981 19.422 18.295 29.92 24.733l1.205.73c10.94 6.538 23.47 11.713 37.24 15.383 11.864 3.16 25.056 5.7 41.519 7.996l5.98.835c12.01 1.686 24.276 3.47 36.259 5.663 14.132 2.587 27.542 6.027 39.852 10.223 12.254 4.2 24.158 9.389 36.39 15.867 12.036 6.395 23.599 13.114 34.303 19.422l9.025 5.336c4.809 2.844 9.616 5.69 14.415 8.536l9.206 5.463 34.432 20.588 61.752 36.932-.304 17.338-91.117-54.496-1.006-.6c-3.432-2.052-6.856-4.1-10.292-6.157-7.498-4.448-14.998-8.898-22.51-13.341l-11.345-6.697-3.645-2.14c-9.8-5.733-20.22-11.667-30.891-17.1-12.229-6.18-24.827-11.15-37.447-14.773-12.554-3.585-26.107-6.253-41.433-8.152-10.735-1.332-21.79-2.41-32.583-3.433l-10.949-1.039c-16.55-1.586-29.925-3.67-42.097-6.562-13.405-3.188-25.549-7.931-36.111-14.108l-1.09-.646c-10.701-6.43-20.853-15.007-30.17-25.495-8.189-9.216-16.55-20.27-25.565-33.795l-2.224-3.34-2.22-3.34c-6.456-9.711-13.13-19.753-19.87-29.315-8.834-12.527-17.482-23.146-26.44-32.466a205.975 205.975 0 00-13.566-12.813 217.445 217.445 0 00-16.715-13.082 376.386 376.386 0 00-4.096-2.83c-9.65-6.576-19.456-12.647-28.71-18.274l-1.335-.808a7937.02 7937.02 0 00-15.024-9.097l-16.812-10.144-105.05-62.825 15.203-8.428zm17.232-9.552l89.112 53.293c8.269 4.979 16.554 9.967 24.847 14.978l11.353 6.874c8.666 5.268 19.36 11.85 29.96 18.721 6.42 4.19 12.423 8.39 18.12 12.67l2.27 1.712.552.43c3.62 2.786 7.122 5.609 10.52 8.492 9.77 8.3 19.481 17.693 28.86 27.92a526.305 526.305 0 016.525 7.265l1.628 1.855c4.892 5.594 9.845 11.463 15.198 17.908l4.389 5.3.752.905c9.772 11.756 18.124 20.984 26.16 28.912a176.52 176.52 0 004.737 4.497l1.197 1.09c.55.498 1.097 1.01 1.651 1.499l.912.782c7.033 6.128 14.297 11.51 21.708 16.052l1.323.8c10.92 6.528 23.292 11.94 36.772 16.09 2.121.654 4.297 1.294 6.539 1.927l1.782.498c8.982 2.48 19.012 4.824 30.853 7.218l1.19.24c13.11 2.628 27.118 5.54 40.712 9.016 1.691.435 3.374.881 5.047 1.337 11.711 3.197 22.96 6.92 33.503 11.09 11.723 4.663 23.416 10.224 35.746 16.998 6.442 3.562 12.904 7.237 19.272 10.89l8.858 5.094 6.13 3.53 120.363 71.986-.302 17.336-93.999-56.22-10.425-6.176c-4.802-2.85-9.612-5.696-14.426-8.543-3.007-1.78-6.002-3.562-9.015-5.339l-3.606-2.12c-9.697-5.69-20.043-11.643-30.775-17.347-12.325-6.526-24.323-11.758-36.68-15.99-12.405-4.23-25.91-7.694-40.14-10.299-13.019-2.382-26.354-4.282-39.333-6.094l-2.988-.417c-16.383-2.284-29.499-4.811-41.28-7.95-13.59-3.62-25.947-8.723-36.728-15.166l-.254-.152c-10.683-6.42-20.923-14.816-30.441-24.961-7.93-8.453-15.907-18.192-24.993-30.52l-1.476-2.012-3.55-4.859c-7.135-9.75-14.463-19.665-21.913-29.04-8.938-11.243-18.266-21.444-27.725-30.323-9.325-8.721-19.756-17.002-31.004-24.614-11.19-7.534-22.449-14.472-32.95-20.848-8.1-4.916-16.197-9.803-24.28-14.677l-8.89-5.357-96.57-57.754 15.202-8.427zm2.024-1.12l15.204-8.428 113.837 68.085 4.776 2.953 10.613 6.55a2421.076 2421.076 0 0117.69 11.013c12.017 7.623 22.511 14.93 32.083 22.335 10.02 7.755 20.141 16.478 30.085 25.924l1.68 1.606c9.218 8.847 18.006 17.881 25.025 25.207l4.404 4.6c7.409 7.702 16.691 17.101 26.444 25.868a222.014 222.014 0 005.739 4.969c8.108 6.823 16.406 12.853 24.761 17.961l1.504.913c10.856 6.493 23.04 12.187 36.215 16.927 12.415 4.468 25.137 8.216 35.466 11.11l6.682 1.86c14.42 4.023 25.619 7.39 35.973 10.809 13.058 4.321 25.632 9.176 37.371 14.43 11.129 5.01 22.64 10.892 35.193 17.985 5.918 3.366 11.887 6.81 17.756 10.208l12.882 7.465c1.174.68 2.347 1.358 3.518 2.034l111.954 66.957-.302 17.335-119.38-71.4-6.409-3.685-6.116-3.521c-7.179-4.128-14.495-8.302-21.79-12.333-12.425-6.827-24.192-12.422-35.973-17.106-1.516-.6-3.046-1.19-4.59-1.77-10.81-4.067-22.29-7.671-34.2-10.734-9.094-2.325-18.36-4.393-27.421-6.296-3.022-.635-6.022-1.253-8.984-1.854l-5.65-1.141-2.408-.492c-11.515-2.376-21.276-4.706-30.015-7.173-2.229-.629-4.393-1.268-6.506-1.919-13.34-4.108-25.565-9.455-36.335-15.893l-.26-.156c-10.673-6.413-21.065-14.578-30.89-24.271l-1.172-1.165c-7.833-7.827-16.033-16.958-25.637-28.545l-2.617-3.163c-9.07-10.95-16.933-20.223-25.156-29.2-9.432-10.286-19.202-19.738-29.04-28.093a275.874 275.874 0 00-5.116-4.232l-2.232-1.79a298.663 298.663 0 00-5.081-3.927c-6.03-4.568-12.397-9.044-19.237-13.508l-1.888-1.22c-11.328-7.301-22.549-14.158-31.184-19.39-11.063-6.704-22.12-13.36-33.178-20.018l-88.088-52.682zm32.43-17.974l105.357 63.012 6.932 4.258 6.943 4.254c6.433 3.939 12.87 7.883 19.299 11.86l2.224 1.386c11.735 7.339 21.435 13.775 30.37 20.15 10.367 7.4 20.842 15.547 31.136 24.217l1.752 1.48c9.905 8.4 19.425 16.942 26.937 23.759l3.884 3.524c7.753 7.017 17.482 15.648 27.706 23.956 10.334 8.395 20.416 15.563 30.762 21.865l1.518.917.223.134c10.956 6.55 22.61 12.376 35.626 17.81l2.127.881c11.703 4.822 23.477 9.131 32.993 12.522l6.83 2.43c9.781 3.494 21.687 7.844 33.414 12.517 12.616 5.03 24.847 10.47 36.35 16.169l1.867.93c9.984 5.008 20.492 10.716 32.878 17.855 4.392 2.542 8.775 5.094 13.154 7.649l6.567 3.834c4.79 2.798 9.577 5.595 14.358 8.373l103.565 61.94-.302 17.33-110.981-66.377-5.143-2.975-14.029-8.13c-4.98-2.88-10.012-5.778-15.012-8.622-12.607-7.123-24.173-13.033-35.358-18.069-11.8-5.281-24.439-10.161-37.562-14.504l-2.174-.712c-12.318-4.01-24.591-7.533-34.476-10.288l-6.198-1.725c-10.305-2.892-22.959-6.624-35.225-11.036-12.599-4.533-24.282-9.947-34.749-16.1l-1.482-.88c-10.614-6.378-21.152-14.247-31.327-23.394-9.751-8.773-18.988-18.125-26.351-25.782l-5.602-5.847c-7.248-7.548-16.211-16.718-25.56-25.616-9.996-9.496-20.171-18.263-30.238-26.057-9.591-7.423-20.135-14.765-32.239-22.444-6.847-4.312-13.811-8.62-20.615-12.818l-2.905-1.792c-3.194-1.971-6.387-3.94-9.587-5.922L1395.91 20.28l15.199-8.423zm17.224-9.549l130.271 77.91a1783.21 1783.21 0 008.08 5.21l4.05 2.595c6.809 4.36 13.85 8.87 20.705 13.435 9.87 6.576 19.953 13.73 29.997 21.289l2.008 1.517c9.565 7.252 18.997 14.74 26.807 21.018l7.84 6.317c7.987 6.42 17.802 14.19 27.859 21.664 11.208 8.338 22.006 15.599 32.93 22.121 10.953 6.551 22.443 12.626 35.122 18.57l2.069.966c10.349 4.81 20.726 9.307 29.458 13.015l9.948 4.205c12.456 5.28 22.37 9.63 31.646 13.877 12.344 5.674 24.292 11.596 35.512 17.605 5.449 2.92 10.923 5.946 16.301 8.943l11.812 6.59c2.155 1.198 4.307 2.391 6.456 3.574l129.009 77.158-.303 17.33-102.567-61.344-7.052-4.107-7.049-4.115c-4.438-2.591-8.877-5.184-13.322-7.77l-6.677-3.873-2.31-1.326c-12.2-6.988-22.597-12.582-32.545-17.517-11.509-5.705-23.789-11.167-36.5-16.236l-2.103-.834c-11.215-4.425-22.331-8.48-31.517-11.76l-9.329-3.321c-9.577-3.435-21.075-7.7-32.385-12.422-12.214-5.098-23.67-10.785-34.074-16.913l-1.738-1.033c-10.291-6.184-20.302-13.214-30.545-21.452l-1.281-1.036c-8.08-6.564-16.53-13.86-27.059-23.373l-7.331-6.644c-7.536-6.806-16.635-14.906-25.862-22.677-10.37-8.731-20.886-16.912-31.262-24.318l-1.689-1.199c-9.059-6.401-18.972-12.923-31.014-20.408a3796.94 3796.94 0 00-12.873-7.922l-6.434-3.943c-4.63-2.835-9.256-5.668-13.883-8.516l-104.375-62.426 15.199-8.424zm595.51 492.767l-119.17-71.274-8.029-4.755c-5.74-3.402-11.482-6.804-17.23-10.202l-8.63-5.093-2.221-1.303c-9.737-5.703-20.909-12.053-32.634-17.478-12.245-5.606-25.338-9.783-38.915-12.417-12.711-2.466-26.853-4.135-43.236-5.103-5.136-.304-10.352-.577-15.504-.837l-12.703-.634c-5.503-.278-11.074-.572-16.554-.903-16.283-.983-30.252-2.79-42.705-5.52-13.926-3.055-26.442-7.866-37.2-14.298l-.217-.13c-10.677-6.416-20.75-15.097-29.935-25.806-8.3-9.673-16.457-21.06-24.937-34.81-3.585-5.806-7.178-11.758-10.686-17.586l-5.252-8.727a1807.77 1807.77 0 00-7.119-11.725c-8.512-13.884-16.563-25.481-24.613-35.454-8.651-10.719-18.362-20.245-28.866-28.318-10.624-8.12-21.911-15.21-32.526-21.665a9454.618 9454.618 0 00-22.371-13.53l-10.796-6.51-122.016-72.974 15.191-8.42 114.526 68.492.746.45c10.781 6.502 21.593 13.02 32.407 19.593l3.361 2.053c9.58 5.873 19.601 12.241 29.157 19.244a183.113 183.113 0 0129.212 26.882c8.373 9.589 16.616 20.707 25.2 33.987 3.793 5.866 7.586 11.899 11.309 17.861l3.697 5.93c2.817 4.52 5.634 9.041 8.469 13.538l1.413 2.227c8.221 12.867 16.037 23.55 23.846 32.603 9.099 10.553 19.049 19.175 29.592 25.645l1.078.653c10.953 6.546 23.66 11.452 37.767 14.583 10.833 2.403 22.925 4.155 36.812 5.328 1.984.168 4.004.324 6.063.468l8.686.587 13.807.907c7.257.482 14.613.993 21.82 1.591 15.867 1.319 29.673 3.387 42.203 6.323 12.944 3.037 25.664 7.543 37.805 13.393 10.867 5.262 21.219 11.088 33.267 18.157l4.892 2.88 8.264 4.883 8.938 5.295c4.435 2.63 8.805 5.224 13.055 7.75l111.785 66.857-.302 17.312zm-.124 8.964l-9.381 5.2-118.411-70.818-4.708-2.795c-6.468-3.839-12.94-7.681-19.423-11.518l-9.731-5.75c-10.273-6.054-22.297-12.98-34.997-18.588-12.056-5.285-25.326-9.17-39.442-11.55-12.674-2.137-26.948-3.58-43.635-4.411-3.126-.155-6.256-.302-9.387-.447l-12.334-.569c-7.682-.36-15.47-.752-23.098-1.24-16.078-1.029-29.996-2.919-42.547-5.775-13.467-3.07-25.651-7.76-36.232-13.946l-1.1-.653c-10.685-6.42-20.789-15.046-30.035-25.639-8.426-9.652-16.634-20.954-25.094-34.55-5.505-8.846-10.979-18.025-16.273-26.904-2.235-3.75-4.47-7.497-6.712-11.23-8.537-14.206-16.452-26.02-24.2-36.113-8.66-11.274-18.193-21.099-28.34-29.204-10.41-8.255-21.73-15.4-32.413-21.889a9358.265 9358.265 0 00-23.279-14.069l-9.893-5.96-119.59-71.523.22-12.695 4.06-2.252 123.008 73.566.899.542c10.73 6.47 21.49 12.96 32.257 19.493 10.596 6.446 21.848 13.517 32.349 21.543 10.376 7.975 19.975 17.392 28.526 27.989 7.99 9.9 15.994 21.426 24.466 35.24 2.37 3.865 4.752 7.802 7.104 11.704l7.012 11.649a1630.44 1630.44 0 008.942 14.691c8.556 13.868 16.773 25.336 25.12 35.063 9.09 10.59 19.04 19.233 29.594 25.712l1.051.637c10.954 6.546 23.67 11.436 37.798 14.534 12.547 2.754 26.619 4.574 43.014 5.566 6.571.395 13.27.738 19.825 1.066l9.415.47c5.16.26 10.384.533 15.525.836 16.298.964 30.354 2.623 42.972 5.07 13.442 2.61 26.383 6.738 38.458 12.272 11.348 5.25 22.07 11.267 34.679 18.687 11.282 6.65 22.533 13.326 33.764 19.99l120.315 71.957-.118 6.611zm-26.633 14.745l-109.928-65.743a12975.163 12975.163 0 00-33.853-20.08l-2.513-1.48c-10.112-5.939-20.919-12.024-32.571-16.98-11.96-5.049-25.334-8.76-39.754-11.027-12.697-1.997-26.589-3.346-43.719-4.248l-14.667-.763c-9.949-.525-20.06-1.1-29.916-1.867-15.827-1.23-29.622-3.32-42.176-6.387-13.685-3.341-26.11-8.315-36.937-14.783l-.237-.143c-10.73-6.447-20.896-14.965-30.222-25.322-8.605-9.56-16.932-20.659-25.455-33.933-6.162-9.6-12.245-19.61-18.159-29.395l-5.042-8.346-1.287-2.12c-7.892-12.943-14.88-23.445-21.811-32.776l-1.012-1.358c-8.7-11.592-18.129-21.59-28.025-29.716-9.632-7.889-19.89-14.524-32.33-22.062a13565.45 13565.45 0 00-33.182-20.012l-111.185-66.497.302-17.338 118.602 70.93 17.024 10.265a9423.237 9423.237 0 0116.139 9.76l2.784 1.697c9.79 5.997 19.992 12.565 29.422 20.048 10.022 8 19.442 17.71 27.997 28.857l1.286 1.689c7.298 9.66 14.768 20.884 22.787 34.236 1.483 2.468 2.962 4.943 4.44 7.42l2.217 3.719c5.316 8.915 10.812 18.133 16.344 27.022 8.525 13.69 16.795 25.076 25.285 34.807 9.12 10.456 19.084 19.03 29.632 25.504l1.107.67c10.96 6.552 23.641 11.497 37.69 14.7 12.636 2.88 26.657 4.783 42.864 5.821 7.63.488 15.414.88 23.091 1.24l7.632.353c4.712.217 9.423.432 14.125.666l2.744.143c15.424.84 28.75 2.231 40.658 4.24 13.956 2.353 27.068 6.192 38.97 11.411 11.735 5.18 22.911 11.512 32.647 17.222l2.138 1.258a8866.736 8866.736 0 0118.827 11.14l15.018 8.911 117.41 70.221-15.201 8.426zm-17.21 9.563l-135.243-80.885-3.429-1.983c-9.654-5.57-20.377-11.58-31.753-16.308-11.856-4.926-25.254-8.594-39.822-10.9l-1.755-.273c-11.761-1.794-24.743-3.133-40.584-4.187l-9.565-.627c-11.896-.788-24.011-1.646-35.764-2.81-15.527-1.539-29.158-3.902-41.674-7.224-13.485-3.58-25.838-8.692-36.714-15.191l-.258-.155c-10.771-6.472-21.016-14.856-30.456-24.923-8.82-9.409-17.313-20.236-25.961-33.102-6.811-10.137-13.406-20.597-19.815-30.872l-3.822-6.138c-9.034-14.513-16.748-25.934-24.278-35.942-8.778-11.666-18.179-21.706-27.941-29.838-10.516-8.76-22.185-16.016-32.298-22.131-11.076-6.698-22.143-13.352-33.192-19.995l-102.785-61.472.302-17.33 110.198 65.904c11.036 6.64 22.1 13.304 33.173 20.008l2.367 1.44c11.31 6.908 20.805 13.147 29.73 20.456 9.784 8.041 19.101 17.923 27.696 29.372l.54.723.54.728c7.25 9.777 14.562 20.83 22.907 34.624l3.083 5.098a4582.83 4582.83 0 006.133 10.128c2.934 4.83 5.898 9.678 8.896 14.474.742 1.187 1.49 2.353 2.236 3.532l1.922 3.046.969 1.52c8.576 13.363 16.967 24.546 25.654 34.193 9.19 10.206 19.191 18.655 29.745 25.132l1.174.712c10.995 6.569 23.608 11.62 37.486 15.01 12.665 3.092 26.565 5.198 42.497 6.437 9.868.768 19.984 1.343 29.935 1.868l14.699.766c17.02.891 30.846 2.234 43.512 4.225 14.258 2.243 27.477 5.908 39.285 10.893 12.494 5.314 24.066 11.974 34.848 18.34 11.31 6.68 22.589 13.382 33.847 20.078l108.93 65.147-15.196 8.432zm-17.242 9.537l-126.745-75.802-3.425-1.993c-9.645-5.598-20.357-11.639-31.716-16.378-11.788-4.92-25.136-8.665-39.673-11.13l-1.632-.273c-11.22-1.849-23.786-3.36-39.22-4.72l-2.28-.198c-5.13-.439-10.214-.88-15.255-1.341l-2.682-.248c-2.237-.21-4.462-.424-6.68-.644a908.987 908.987 0 01-9.96-1.044c-1.632-.182-3.26-.368-4.882-.56l-4.087-.492c-15.238-1.908-28.682-4.583-41.101-8.178-13.286-3.846-25.559-9.105-36.477-15.628-10.92-6.536-21.35-14.825-30.988-24.663-9.018-9.203-17.696-19.72-26.53-32.153a626.032 626.032 0 01-3.61-5.142c-5.906-8.496-11.715-17.272-17.29-25.8l-4.663-7.147c-6.244-9.537-11.815-17.657-17.072-24.872l-.562-.77a381.311 381.311 0 00-5.69-7.58c-8.92-11.576-18.366-21.535-28.075-29.597-9.977-8.283-20.519-14.935-32.281-22.162l-127.635-76.333.304-17.33 101.808 60.888c11.033 6.634 22.098 13.286 33.174 19.985l2.1 1.273c9.542 5.804 20.26 12.609 29.952 20.683 9.636 8.026 18.93 17.952 27.624 29.504l1.043 1.394c7.142 9.593 14.527 20.577 23.133 34.401l3.84 6.167c6.438 10.32 13.054 20.814 19.838 30.902 8.71 12.96 17.267 23.87 26.16 33.354 9.276 9.895 19.326 18.186 29.892 24.667l1.256.76c11.033 6.595 23.558 11.778 37.226 15.407 12.618 3.352 26.352 5.733 41.99 7.281 13.002 1.289 26.43 2.202 39.52 3.06l4.683.305 3.534.238c15.495 1.079 28.224 2.449 39.815 4.28 14.397 2.276 27.642 5.9 39.367 10.772 12.62 5.244 24.485 12.115 34.94 18.17l134.211 80.269-15.199 8.418zm-17.207 9.559l-118.28-70.739-4.585-2.68c-9.334-5.43-19.625-11.215-30.44-15.858-11.84-5.081-24.704-8.905-39.329-11.689l-1.55-.291c-11.411-2.121-23.844-3.9-39.91-5.712l-5.715-.642c-11.98-1.356-25.356-2.955-38.248-4.946-14.947-2.308-28.197-5.31-40.509-9.176-13.074-4.103-25.267-9.506-36.238-16.063l-.274-.165-1.352-.839c-.835-.513-1.669-1.024-2.499-1.555-7.738-4.974-15.244-10.751-22.388-17.237-.36-.327-.726-.644-1.086-.975l-.244-.232a183.733 183.733 0 01-3.42-3.248c-9.213-8.984-18.088-19.177-27.133-31.163l-1.508-2.007c-7.271-9.722-14.354-19.803-22.536-31.665l-2.096-3.037c-9.256-13.378-16.697-23.472-23.979-32.538-9.241-11.502-18.535-20.994-28.414-29.02-10.105-8.207-21.08-15.077-32.38-21.976l-119.228-71.305.303-17.336 126.637 75.737 3.852 2.376c10.156 6.294 19.41 12.326 28.189 19.616 9.597 7.97 18.94 17.821 27.77 29.28a396.272 396.272 0 017.691 10.34l.882 1.229c4.732 6.62 9.757 14.016 15.324 22.542l3.563 5.467c5.833 8.933 11.946 18.18 18.235 27.2a607.77 607.77 0 003.144 4.468c8.891 12.517 17.635 23.113 26.731 32.395 9.376 9.567 19.487 17.696 30.075 24.182l1.317.798c11.065 6.612 23.494 11.938 36.945 15.832 12.52 3.625 26.065 6.32 41.41 8.24l1.648.193a683.673 683.673 0 0011.472 1.303c1.957.207 3.92.408 5.892.603l3.271.32 4.724.447 1.444.132c3.767.344 7.547.681 11.355 1.013l6.088.526c16.122 1.42 29.104 3.007 40.696 4.973 14.39 2.44 27.59 6.14 39.24 11.002 12.628 5.27 24.464 12.172 34.897 18.257l125.74 75.201-15.194 8.422zm-34.46 19.087l-101.293-60.58-3.469-2.049a1570.688 1570.688 0 00-6.78-3.978l-2.692-1.566-1.576-.909-2.671-1.532c-5.737-3.273-11.403-6.398-17.224-9.413l-.066-.032c-12.55-5.417-25.467-9.838-38.391-13.14l-2.234-.563c-10.241-2.55-21.45-4.9-35.666-7.477l-9.455-1.695c-1.538-.277-3.052-.551-4.547-.824l-3.733-.687-2.515-.47-3.591-.676-1.796-.344-3.275-.635-1.951-.385-3.297-.658-1.788-.366-3.525-.728c-.95-.199-1.894-.404-2.84-.608-.736-.157-1.474-.312-2.207-.473-14.387-3.144-27.253-6.797-39.335-11.163-3.18-1.15-6.32-2.366-9.41-3.646-9.17-3.803-17.925-8.182-26.132-13.067l-.28-.162c-9.92-5.98-19.61-12.98-28.786-20.894l-1.144-.995c-.605-.53-1.216-1.052-1.818-1.59-9.553-8.551-18.818-18.103-28.325-29.202-8.472-9.886-16.855-20.339-24.721-30.284l-3.03-3.834c-9.832-12.402-17.701-21.76-25.355-30.16-8.911-9.775-18.758-19.024-29.321-27.535-9.857-6.863-20.134-13.237-29.35-18.827l-3.733-2.257-102.248-61.149.302-17.338 109.842 65.691 3.356 2.041c9.565 5.833 19.564 12.097 29.207 19.044a249.724 249.724 0 0128.38 28.374l1.479 1.75c6.921 8.24 14.15 17.512 23.062 29.585l1.285 1.744c8.081 10.986 16.784 22.68 25.682 33.75 9.324 11.603 18.457 21.54 27.925 30.381 9.9 9.247 20.497 17.286 31.503 23.899l.36.215c11.13 6.65 23.376 12.254 36.402 16.655 12.289 4.154 25.435 7.506 40.19 10.247 12.723 2.362 25.527 4.317 40.682 6.488l1.523.218c17.108 2.445 29.975 4.684 41.72 7.257a244.74 244.74 0 0138.705 11.929c11.572 5.78 22.87 12.355 34.382 19.143l108.777 65.058-15.195 8.422zm-19.263 10.684l-15.196 8.422-84.326-50.432c-10.287-6.156-20.396-12.173-30.674-17.977l-3.475-1.95c-11.762-5.82-24.118-11.141-36.767-15.83-11.703-3.755-24.056-7.318-37.708-10.879l-8.26-2.141c-10.962-2.847-22.157-5.799-33.202-8.973-13.911-4-26.41-8.277-38.212-13.076-11.939-4.858-23.38-10.493-34.033-16.763l-1.879-1.117c-10.889-6.542-21.56-14.117-31.726-22.52-9.81-8.105-19.453-17.043-29.481-27.324l-1.879-1.931c-7.803-8.047-15.339-16.144-24.022-25.539l-2.106-2.28c-9.993-10.819-19.257-20.356-28.354-29.186-9.97-8.87-20.349-17.201-30.89-24.792-10.294-6.67-20.917-13.102-31.02-19.155l-87.79-52.503.302-17.329 95.58 57.164c11.289 6.775 20.92 12.704 30.4 19.043 10.234 7.768 20.33 16.428 29.97 25.708l1.776 1.9c7.718 8.295 15.76 17.362 24.49 27.615l5.882 6.91c7.934 9.291 15.022 17.433 22.348 25.456 9.836 10.765 19.347 20.067 29.08 28.434a240.413 240.413 0 0015.7 12.407c.878.635 1.762 1.253 2.647 1.876l1.304.922c.934.648 1.874 1.277 2.814 1.907l1.28.865.929.603.931.6c.81.524 1.619 1.05 2.432 1.562l.436.268c1.114.698 2.23 1.391 3.35 2.065l.454.27c11.172 6.67 23.256 12.519 35.915 17.382 12.036 4.627 24.795 8.614 39.003 12.188 12.793 3.22 26.037 6.14 37.75 8.668l2.895.623c14.854 3.194 28.036 6.354 40.25 9.644 12.91 4.223 25.413 9.136 37.16 14.603 11.087 5.99 21.895 12.373 32.08 18.466l93.842 56.126zm-34.45 19.086l-15.199 8.426-77.455-46.32a3612.918 3612.918 0 00-23.856-14.143 535.493 535.493 0 00-35.502-17.855c-11.792-4.911-24.058-9.656-37.511-14.51l-13.02-4.542c-8.329-2.912-16.778-5.887-25.077-8.901-13.571-4.933-25.706-9.834-37.098-14.983-12.208-5.52-24.001-11.666-35.052-18.268a351.282 351.282 0 01-32.65-22.175c-9.933-7.588-19.954-15.916-30.636-25.46-8.05-7.19-16.14-14.595-24.025-21.83l-5.65-5.187c-10.493-9.437-20.375-17.94-30.238-26.018a534.118 534.118 0 00-32.091-22.7l-2.995-1.832c-10.487-6.403-20.99-12.685-30.352-18.28l-68.825-41.16.303-17.339 76.302 45.632c7.91 4.73 15.687 9.398 23.367 14.112l2.924 1.804 2.915 1.81c1.31.815 2.629 1.625 3.934 2.446a448.474 448.474 0 0131.316 23.548c9.575 8.507 19.402 17.753 29.205 27.48l9.206 9.137c6.474 6.417 13.078 12.923 19.678 19.24l1.027.977 1.025.968c8.642 8.19 16.957 15.513 25.268 22.248l1.247 1.006c.544.437 1.09.882 1.634 1.315 10.04 7.982 20.478 15.3 31.131 21.73l1.527.914c11.122 6.645 23.056 12.72 35.468 18.053 11.638 5 24.012 9.61 37.827 14.094 2.744.89 5.506 1.773 8.276 2.649 1.48.467 2.963.928 4.445 1.39 1.236.387 2.472.777 3.709 1.16 3.407 1.057 6.81 2.104 10.192 3.14l12.313 3.763c13.317 4.078 26.218 8.418 38.308 12.89a446.042 446.042 0 0135.875 16.78c9.996 5.736 19.782 11.55 30.397 17.896l78.413 46.895zm-556.886-335.38l.303-17.331 84.631 50.613c10.626 6.356 21.94 13.165 33.077 20.379 10.44 7.52 20.766 15.808 30.657 24.606 9.033 8.771 18.272 18.282 28.246 29.078l4.565 4.94c7.376 7.97 15.404 16.579 23.48 24.85 10.082 10.335 19.776 19.32 29.636 27.47 10.24 8.464 20.99 16.094 31.957 22.684l.512.306c11.13 6.652 23.139 12.613 35.69 17.722 11.868 4.828 24.433 9.129 38.414 13.143 13.397 3.847 27.424 7.48 39.798 10.685l3.168.826c13.1 3.443 24.951 6.874 36.103 10.45 12.546 4.653 24.837 9.945 36.49 15.709 11.439 6.383 22.634 13.042 34.048 19.873l83.338 49.84-15.192 8.419-83.401-49.873c-8.953-5.34-17.016-10.109-25.32-14.886l-1.167-.67a446.086 446.086 0 00-36.105-16.888c-12.162-4.498-25.1-8.851-38.453-12.94l-12.687-3.878c-3.223-.987-6.467-1.984-9.714-2.992a1324.794 1324.794 0 01-16.502-5.223c-13.757-4.465-26.073-9.054-37.654-14.03-12.332-5.297-24.184-11.33-35.233-17.931-11.02-6.575-21.958-14.167-32.433-22.489l-.885-.71-.885-.714c-8.448-6.798-16.893-14.193-25.676-22.488l-1.741-1.647c-.291-.276-.583-.554-.875-.834-6.612-6.333-13.235-12.856-19.727-19.291l-9.13-9.061c-9.835-9.757-19.688-19.026-29.315-27.58a450.547 450.547 0 00-31.518-23.7l-1.347-.837c-9.31-5.829-18.726-11.515-28.323-17.261l-11.835-7.08-68.995-41.26zm.991-56.635l101.254 60.554 3.723 2.252c9.189 5.572 19.43 11.924 29.189 18.717 10.426 8.402 20.197 17.58 29.043 27.282l1.014 1.117c7.11 7.86 14.512 16.678 23.622 28.147l5.355 6.767c7.383 9.311 15.187 18.997 23.073 28.202 9.57 11.168 18.897 20.783 28.51 29.39.522.468 1.054.92 1.58 1.383.747.655 1.49 1.316 2.242 1.96l.287.24c8.424 7.173 17.253 13.598 26.329 19.145l1.441.872.464.272c8.278 4.93 17.119 9.353 26.389 13.195a220.247 220.247 0 009.5 3.682c12.137 4.392 25.086 8.066 39.587 11.236l1.099.237 3.959.844 1.705.353c1.209.25 2.42.501 3.639.748l3.248.649 2.678.526 3.179.615 3.25.617 3 .563 4.978.917 5.069.919 8.784 1.575c15.215 2.756 26.965 5.251 37.765 8.01 12.78 3.264 25.584 7.645 38.059 13.025l1.904 1c.794.418 1.59.831 2.381 1.253l1.106.599a443.58 443.58 0 013.2 1.729l1.09.604c1.056.582 2.112 1.164 3.165 1.754l1.61.91c.877.493 1.753.986 2.628 1.486l3.044 1.748 2.08 1.202c4.012 2.33 8.024 4.698 12.06 7.091l100.297 59.984-15.194 8.423-92.81-55.505c-10.865-6.503-22.46-13.383-34.273-19.76-11.846-5.512-24.433-10.46-37.458-14.72-12.297-3.312-25.512-6.48-40.4-9.682l-4.925-1.062c-11.573-2.505-23.687-5.198-35.653-8.212-14.108-3.552-26.792-7.514-38.775-12.118-12.573-4.83-24.554-10.626-35.607-17.23-11.01-6.556-21.804-14.38-32-23.146-9.694-8.336-19.149-17.581-28.906-28.265-8.316-9.103-16.346-18.416-23.942-27.331l-5.253-6.17c-9.05-10.589-17.354-19.904-25.354-28.436-9.765-9.396-19.921-18.109-30.232-25.933-10.303-6.887-20.681-13.237-33.07-20.651l-94.03-56.232.303-17.341zm118.926 31.424c11.246 6.867 22.167 13.7 32.153 21.819 9.773 7.944 18.97 17.338 28.116 28.718l.967 1.21c6.94 8.712 14.103 18.464 22.926 31.213l4.607 6.67c7.712 11.14 14.52 20.75 21.58 30.107 9.108 12.066 18.049 22.333 27.333 31.39 1.98 1.932 3.998 3.79 6.035 5.607.492.438.98.89 1.475 1.321l.924.784c6.106 5.257 12.448 10.01 18.974 14.196 1.011.65 2.032 1.275 3.053 1.9l1.172.727c11.108 6.638 23.444 12.106 36.667 16.254 12.407 3.897 25.754 6.921 40.802 9.244 11.802 1.824 23.998 3.318 35.163 4.598l9.97 1.125c16.241 1.85 28.722 3.668 40.222 5.858 14.47 2.752 27.199 6.533 38.912 11.561 12.54 5.383 24.37 12.315 34.798 18.428l117.247 70.122-15.195 8.422-109.779-65.656-3.585-2.11c-10.665-6.26-20.56-11.928-31.039-17.158a246.65 246.65 0 00-39.058-12.039l-1.52-.33c-10.677-2.295-22.306-4.33-37.122-6.49l-8.82-1.268c-11.418-1.652-24.102-3.579-36.527-5.888-14.66-2.725-27.719-6.053-39.918-10.176-12.889-4.357-25.006-9.9-36.013-16.477l-.252-.151c-.593-.358-1.182-.733-1.772-1.098l-1.433-.881a68.147 68.147 0 01-.713-.449c-6.018-3.84-11.9-8.11-17.6-12.767l-2.245-1.846c-.375-.315-.742-.644-1.116-.964a196.604 196.604 0 01-6.394-5.702c-9.377-8.754-18.448-18.623-27.73-30.173-8.25-10.264-16.38-21.131-24.004-31.475l-1.626-2.208c-10.183-13.847-18.175-24.082-25.914-33.188a251.031 251.031 0 00-28.67-28.652c-10.9-7.856-22.161-14.791-32.765-21.226l-110.834-66.284.305-17.334 118.243 70.716zm-118.58-165.495l-.22 12.713-.017-.01-.384 21.951.005.003-.684 39.287.004.002-.303 17.341-.004-.002-.384 21.95.002.001-.344 19.649.003.002-.303 17.353-.008-.005-.383 21.952.007.005-.303 17.33-.003-.002-.385 21.95 80.946 48.413a2669.61 2669.61 0 0122.177 13.426 532.19 532.19 0 0131.92 22.58c9.812 8.036 19.673 16.519 30.133 25.929l2.697 2.476c8.813 8.09 17.925 16.454 26.992 24.554 10.72 9.577 20.78 17.936 30.754 25.558 9.9 7.563 20.126 14.57 30.435 20.85l2.402 1.45c11.117 6.642 22.978 12.824 35.255 18.373 11.439 5.171 23.62 10.092 37.24 15.042 8.308 3.017 16.762 5.995 25.096 8.908l13.014 4.54c13.412 4.84 25.65 9.573 37.38 14.458a534.45 534.45 0 0135.315 17.76l2.985 1.755a4067.764 4067.764 0 0122.86 13.577l76.415 45.7 17.223-9.546.008.005 19.248-10.668-.003-.001 17.218-9.544-.004-.002 17.247-9.559-.003-.001 17.218-9.544h-.002l15.198-8.426.015.01 19.25-10.67-.018-.01 15.206-8.425.01.007 19.25-10.68-.012-.006 15.22-8.435.014.01 11.398-6.32.16-8.95-.033-.019.301-17.326.021.012.384-21.951-.018-.011.304-17.347.017.01.383-21.952-.005-.003.303-17.334.003.002.382-21.952-.01-.006.343-19.636-130.034-77.77a1793.837 1793.837 0 01-8.633-4.789l-9.66-5.39c-4.487-2.5-9.041-5.022-13.594-7.487l-2.733-1.471c-11.255-6.027-23.24-11.969-35.622-17.66l-3.61-1.644c-8.76-3.963-18.267-8.104-30.025-13.076l-6.378-2.692c-9.606-4.067-21.443-9.178-33.094-14.645-12.617-5.913-24.047-11.956-34.943-18.473-10.434-6.214-20.679-13.086-31.312-20.933l-1.453-1.076c-9.99-7.426-19.747-15.148-27.702-21.541l-7.938-6.397c-7.82-6.286-17.266-13.786-26.85-21.05-10.74-8.144-21.542-15.841-32.104-22.877-5.153-3.432-10.406-6.83-15.586-10.155l-5.15-3.3a2475.968 2475.968 0 01-12.149-7.817L1428.37 0l-34.448 19.096h-.002l-53.708 29.77.006.003-15.208 8.429-.005-.003-23.302 12.919z" transform="translate(0 -282)" fill="url(#a)" fill-rule="evenodd"/></svg>