<?xml version="1.0" encoding="utf-8"?>
<!-- Generator: Adobe Illustrator 24.0.1, SVG Export Plug-In . SVG Version: 6.00 Build 0)  -->
<svg version="1.1" id="Calque_1" xmlns="http://www.w3.org/2000/svg" xmlns:xlink="http://www.w3.org/1999/xlink" x="0px" y="0px"
	 viewBox="0 0 308.08 167.83" style="enable-background:new 0 0 308.08 167.83;" xml:space="preserve">
<style type="text/css">
	.st0{fill:url(#SVGID_1_);}
	.st1{clip-path:url(#SVGID_3_);}
	.st2{opacity:0.41;fill:#FDC677;}
	.st3{opacity:0.41;}
	.st4{fill:#FDC677;}
	.st5{fill:#AA732A;}
	.st6{fill:#A36F25;}
	.st7{fill:#FAA529;}
	.st8{fill:#53AE6F;}
	.st9{fill:#F9A61A;}
	.st10{fill:none;stroke:#53AE6F;stroke-miterlimit:10;}
	.st11{fill:url(#SVGID_4_);}
	.st12{clip-path:url(#SVGID_6_);}
	.st13{filter:url(#Adobe_OpacityMaskFilter);}
	.st14{fill:url(#SVGID_8_);}
	.st15{mask:url(#SVGID_7_);}
	.st16{clip-path:url(#SVGID_10_);fill:url(#SVGID_11_);}
	.st17{clip-path:url(#SVGID_13_);fill:url(#SVGID_14_);}
	.st18{filter:url(#Adobe_OpacityMaskFilter_1_);}
	.st19{fill:url(#SVGID_16_);}
	.st20{mask:url(#SVGID_15_);}
	.st21{clip-path:url(#SVGID_18_);fill:url(#SVGID_19_);}
	.st22{clip-path:url(#SVGID_21_);fill:url(#SVGID_22_);}
	.st23{fill:url(#SVGID_23_);}
	.st24{clip-path:url(#SVGID_25_);}
	.st25{fill:#FFFFFF;}
</style>
<g>
	<g>
		<g>
			<radialGradient id="SVGID_1_" cx="236.6524" cy="83.1674" r="46.2615" gradientUnits="userSpaceOnUse">
				<stop  offset="0.5173" style="stop-color:#FFFFFF"/>
				<stop  offset="0.9986" style="stop-color:#FED59B"/>
			</radialGradient>
			<path class="st0" d="M210.1,36.91c-10.88,0-19.71,8.82-19.71,19.71v53.11c0,10.88,8.82,19.71,19.71,19.71h53.11
				c10.88,0,19.71-8.82,19.71-19.71V56.61c0-10.88-8.82-19.71-19.71-19.71H210.1z"/>
		</g>
		<g>
			<defs>
				<path id="SVGID_5_" d="M210.1,36.91c-10.88,0-19.71,8.82-19.71,19.71v53.11c0,10.88,8.82,19.71,19.71,19.71h53.11
					c10.88,0,19.71-8.82,19.71-19.71V56.61c0-10.88-8.82-19.71-19.71-19.71H210.1z"/>
			</defs>
			<clipPath id="SVGID_3_">
				<use xlink:href="#SVGID_5_"  style="overflow:visible;"/>
			</clipPath>
			<g class="st1">
				<path class="st2" d="M202.19,54.98h0.49c0.83,0,1.32,0.52,1.47,1.57v0.69c0,2.12-1.7,4.51-5.11,7.17l-0.49,0.1v-0.1
					c2.68-2.92,4.03-4.82,4.03-5.69v-0.1c0-0.39-0.2-0.69-0.59-0.88h-0.88c-0.24,0-0.6,0.16-1.08,0.49c-0.13,0-0.2-0.1-0.2-0.29
					C200.18,55.96,200.97,54.98,202.19,54.98z"/>
				<path class="st2" d="M267.01,87.01h0.49c0.83,0,1.32,0.52,1.47,1.57v0.69c0,2.12-1.7,4.51-5.11,7.17l-0.49,0.1v-0.1
					c2.68-2.92,4.03-4.82,4.03-5.69v-0.1c0-0.39-0.2-0.69-0.59-0.88h-0.88c-0.24,0-0.6,0.16-1.08,0.49c-0.13,0-0.2-0.1-0.2-0.29
					C265,88,265.78,87.01,267.01,87.01z"/>
				<path class="st2" d="M243.64,42.56c-0.85,2.71-1.28,4.43-1.28,5.17c0,1.13,0.28,1.7,0.85,1.7c0.41,0,0.86-0.5,1.34-1.51h0.07
					l0.1,0.13c-0.39,2.12-0.96,3.17-1.7,3.17h-0.26c-0.43,0-0.76-0.22-0.98-0.67c-0.12-0.23-0.18-0.48-0.2-0.74
					c-0.02-0.16-0.02-0.29-0.02-0.4v-0.88c0-1.75,0.65-3.74,1.96-5.99H243.64z"/>
				<path class="st2" d="M242.43,97.7h0.07c0.31,0.17,0.46,0.47,0.46,0.88v0.62c-0.31,1.83-0.77,2.75-1.41,2.75h-0.33
					c-0.35,0-0.92-0.14-1.7-0.43c-0.85,0.89-1.7,1.34-2.55,1.34h-0.16c-1.11-0.2-1.76-0.29-1.93-0.29c-1.9,0-4.19,1.49-6.87,4.48
					c-1.51,1.44-2.76,2.16-3.76,2.16c0,0.07-0.25,0.14-0.75,0.23l-0.07-0.16c1.53-0.83,2.92-1.82,4.19-2.98
					c2.86-3.32,4.64-5.04,5.33-5.17c0.79-0.5,1.66-0.75,2.62-0.75l1.93,0.39h0.36c0.68,0,1.39-0.73,2.13-2.19l0.2-0.13h0.16
					c0.11,0,0.16,0.04,0.16,0.13v0.1c0,0.2-0.11,0.54-0.33,1.05c0.24,0.13,0.62,0.2,1.15,0.2h0.65l-0.23-1.05
					C241.74,98.59,241.97,98.2,242.43,97.7z"/>
				<path class="st2" d="M277.21,97.7h0.07c0.31,0.17,0.46,0.47,0.46,0.88v0.62c-0.31,1.83-0.77,2.75-1.41,2.75H276
					c-0.35,0-0.92-0.14-1.7-0.43c-0.85,0.89-1.7,1.34-2.55,1.34h-0.16c-1.11-0.2-1.76-0.29-1.93-0.29c-1.9,0-4.19,1.49-6.87,4.48
					c-1.51,1.44-2.76,2.16-3.76,2.16c0,0.07-0.25,0.14-0.75,0.23l-0.07-0.16c1.53-0.83,2.92-1.82,4.19-2.98
					c2.86-3.32,4.64-5.04,5.33-5.17c0.79-0.5,1.66-0.75,2.62-0.75l1.93,0.39h0.36c0.68,0,1.39-0.73,2.13-2.19l0.2-0.13h0.16
					c0.11,0,0.16,0.04,0.16,0.13v0.1c0,0.2-0.11,0.54-0.33,1.05c0.24,0.13,0.62,0.2,1.15,0.2h0.65l-0.23-1.05
					C276.52,98.59,276.75,98.2,277.21,97.7z"/>
				<path class="st2" d="M253.52,45.16h0.49c0.83,0,1.32,0.52,1.47,1.57v0.69c0,2.12-1.7,4.5-5.11,7.17l-0.49,0.1v-0.1
					c2.68-2.92,4.02-4.82,4.02-5.69v-0.1c0-0.39-0.2-0.69-0.59-0.88h-0.88c-0.24,0-0.6,0.16-1.08,0.49c-0.13,0-0.2-0.1-0.2-0.29
					C251.51,46.14,252.3,45.16,253.52,45.16z"/>
				<path class="st2" d="M236.53,76.96h0.49c0.83,0,1.32,0.52,1.47,1.57v0.69c0,2.12-1.7,4.5-5.11,7.17l-0.49,0.1v-0.1
					c2.68-2.92,4.02-4.82,4.02-5.69v-0.1c0-0.39-0.2-0.69-0.59-0.88h-0.88c-0.24,0-0.6,0.16-1.08,0.49c-0.13,0-0.2-0.1-0.2-0.29
					C234.52,77.94,235.31,76.96,236.53,76.96z"/>
				<path class="st2" d="M210.62,71.96h0.49c0.83,0,1.32,0.52,1.47,1.57v0.69c0,2.12-1.7,4.5-5.11,7.17l-0.49,0.1v-0.1
					c2.68-2.92,4.02-4.82,4.02-5.69v-0.1c0-0.39-0.2-0.69-0.59-0.88h-0.88c-0.24,0-0.6,0.16-1.08,0.49c-0.13,0-0.2-0.1-0.2-0.29
					C208.61,72.94,209.4,71.96,210.62,71.96z"/>
				<path class="st2" d="M236.21,110.19h0.49c0.83,0,1.32,0.52,1.47,1.57v0.69c0,2.12-1.7,4.51-5.11,7.17l-0.49,0.1v-0.1
					c2.68-2.92,4.03-4.82,4.03-5.69v-0.1c0-0.39-0.2-0.69-0.59-0.88h-0.88c-0.24,0-0.6,0.16-1.08,0.49c-0.13,0-0.2-0.1-0.2-0.29
					C234.2,111.17,234.99,110.19,236.21,110.19z"/>
				<path class="st2" d="M203.46,94.52h1c2.9,0,4.67,0.27,5.31,0.82c0,0.05,0.04,0.14,0.13,0.26v0.18
					c-0.19,0.97-1.21,2.45-3.07,4.44c-0.51,0.63-1.8,1.25-3.88,1.86c-1.5,0.43-2.56,0.7-3.19,0.82l-0.05-0.13
					c0.89-0.68,3.05-1.93,6.49-3.76c0.29-0.24,0.43-0.38,0.43-0.43c0-0.37-1.35-0.56-4.06-0.56c-0.24,0-1.23,0.03-2.99,0.08
					l-0.13-0.2c0.99-2.08,1.82-3.12,2.5-3.12C201.95,94.65,202.46,94.57,203.46,94.52z"/>
				<path class="st2" d="M232.56,36.68h1c2.9,0,4.67,0.27,5.31,0.82c0,0.05,0.04,0.14,0.13,0.26v0.18
					c-0.19,0.97-1.21,2.45-3.07,4.44c-0.51,0.63-1.8,1.25-3.88,1.86c-1.5,0.43-2.56,0.7-3.19,0.82l-0.05-0.13
					c0.89-0.68,3.05-1.93,6.49-3.76c0.29-0.24,0.43-0.38,0.43-0.43c0-0.37-1.35-0.56-4.06-0.56c-0.24,0-1.23,0.03-2.99,0.08
					l-0.13-0.2c0.99-2.08,1.82-3.12,2.5-3.12C231.05,36.81,231.55,36.73,232.56,36.68z"/>
				<path class="st2" d="M276.59,74.81h0.46c1.34,0,2.16,0.13,2.46,0.38c0,0.02,0.02,0.06,0.06,0.12v0.08
					c-0.09,0.45-0.56,1.14-1.42,2.06c-0.24,0.29-0.84,0.58-1.8,0.86c-0.69,0.2-1.19,0.32-1.48,0.38l-0.02-0.06
					c0.41-0.32,1.41-0.9,3.01-1.74c0.13-0.11,0.2-0.18,0.2-0.2c0-0.17-0.63-0.26-1.88-0.26c-0.11,0-0.57,0.01-1.39,0.04l-0.06-0.09
					c0.46-0.96,0.84-1.44,1.16-1.44C275.89,74.88,276.12,74.84,276.59,74.81z"/>
				<path class="st2" d="M253.08,104.45l-0.09,1.03c-1.02,0.49-2.68,1.3-4.98,2.44c-1.55,0.8-3.67,1.95-6.34,3.47l0.07-1.01
					c1.29-0.73,3.41-1.89,6.36-3.47C249.3,106.3,250.96,105.48,253.08,104.45z M253.4,106.67l-0.07,1.03
					c-1.02,0.49-2.68,1.3-4.98,2.44c-1.54,0.78-3.67,1.93-6.38,3.45l0.09-1.01c1.28-0.72,3.4-1.87,6.34-3.45
					C249.61,108.51,251.27,107.69,253.4,106.67z"/>
				<path class="st2" d="M205.87,84.89l-0.09,1.03c-1.02,0.49-2.68,1.3-4.98,2.44c-1.55,0.8-3.67,1.95-6.34,3.47l0.07-1.01
					c1.29-0.73,3.41-1.89,6.36-3.47C202.08,86.74,203.74,85.92,205.87,84.89z M206.18,87.11l-0.07,1.03
					c-1.02,0.49-2.68,1.3-4.98,2.44c-1.54,0.78-3.67,1.93-6.38,3.45l0.09-1.01c1.28-0.72,3.4-1.87,6.34-3.45
					C202.39,88.95,204.06,88.13,206.18,87.11z"/>
				<path class="st2" d="M268.7,30.32l-0.14,1.88c-1.87,0.89-4.92,2.37-9.15,4.45c-2.85,1.44-6.75,3.56-11.68,6.37l0.17-1.85
					c2.35-1.32,6.25-3.45,11.68-6.37C261.76,33.69,264.8,32.19,268.7,30.32z"/>
				<path class="st2" d="M213.94,48.64c0.2,1.21,0,2.14-0.59,2.77c-0.59,0.64-1.19,0.95-1.78,0.95c-0.62,0-1.33-0.66-2.12-1.99
					c-0.23,1.84-1.03,2.75-2.41,2.75c-0.73,0-1.33-0.35-1.78-1.06c-0.51-0.85-0.8-3.15-0.89-6.9c0-0.82,0.11-1.23,0.34-1.23
					c0.37,0,0.62,0.38,0.76,1.14c0.28,1.33,0.41,2.77,0.38,4.32c0,0.2,0.15,0.44,0.44,0.74c0.3,0.3,0.54,0.44,0.74,0.44
					c1.07,0,1.61-0.35,1.61-1.06c0-0.76-0.1-1.62-0.3-2.58c-0.23-1.07-0.35-1.65-0.38-1.74c-0.08-1.02,0.14-1.52,0.68-1.52
					c0.31,0,0.49,0.34,0.55,1.02c0.03,0.34,0.1,0.92,0.21,1.74c0.39,0.96,0.71,1.62,0.93,1.99c0.39,0.65,0.83,1.04,1.31,1.19
					c0.45,0.14,0.76,0.04,0.93-0.3c-0.37-0.82-0.9-2.19-1.61-4.11c-0.06-0.28,0.01-0.71,0.19-1.29c0.18-0.58,0.37-0.87,0.57-0.87
					c0.28,0,0.49,0.48,0.64,1.44C212.83,45.31,213.35,46.69,213.94,48.64z"/>
				<path class="st2" d="M249.4,64.22c0.2,1.21,0,2.14-0.59,2.77c-0.59,0.64-1.19,0.95-1.78,0.95c-0.62,0-1.33-0.66-2.12-1.99
					c-0.23,1.84-1.03,2.75-2.41,2.75c-0.73,0-1.33-0.35-1.78-1.06c-0.51-0.85-0.8-3.15-0.89-6.9c0-0.82,0.11-1.23,0.34-1.23
					c0.37,0,0.62,0.38,0.76,1.14c0.28,1.33,0.41,2.77,0.38,4.32c0,0.2,0.15,0.44,0.44,0.74c0.3,0.3,0.54,0.44,0.74,0.44
					c1.07,0,1.61-0.35,1.61-1.06c0-0.76-0.1-1.62-0.3-2.58c-0.23-1.07-0.35-1.65-0.38-1.74c-0.08-1.02,0.14-1.52,0.68-1.52
					c0.31,0,0.49,0.34,0.55,1.02c0.03,0.34,0.1,0.92,0.21,1.74c0.39,0.96,0.71,1.62,0.93,1.99c0.39,0.65,0.83,1.04,1.31,1.19
					c0.45,0.14,0.76,0.04,0.93-0.3c-0.37-0.82-0.9-2.19-1.61-4.11c-0.06-0.28,0.01-0.71,0.19-1.29c0.18-0.58,0.37-0.87,0.57-0.87
					c0.28,0,0.49,0.48,0.64,1.44C248.29,60.89,248.81,62.27,249.4,64.22z"/>
				<path class="st2" d="M242.44,91.82c0.14,0.86,0,1.51-0.42,1.95c-0.42,0.45-0.84,0.67-1.25,0.67c-0.44,0-0.94-0.47-1.49-1.4
					c-0.16,1.29-0.73,1.94-1.7,1.94c-0.52,0-0.93-0.25-1.25-0.75c-0.36-0.6-0.57-2.22-0.63-4.86c0-0.58,0.08-0.87,0.24-0.87
					c0.26,0,0.44,0.27,0.54,0.81c0.2,0.94,0.29,1.95,0.27,3.04c0,0.14,0.1,0.31,0.31,0.52c0.21,0.21,0.38,0.31,0.52,0.31
					c0.76,0,1.13-0.25,1.13-0.75c0-0.54-0.07-1.14-0.21-1.82c-0.16-0.76-0.25-1.16-0.27-1.22c-0.06-0.72,0.1-1.07,0.48-1.07
					c0.22,0,0.35,0.24,0.39,0.72c0.02,0.24,0.07,0.65,0.15,1.22c0.28,0.68,0.5,1.14,0.66,1.4c0.28,0.46,0.59,0.74,0.92,0.84
					c0.32,0.1,0.54,0.03,0.66-0.21c-0.26-0.58-0.64-1.54-1.13-2.89c-0.04-0.2,0-0.5,0.13-0.91c0.13-0.41,0.26-0.61,0.4-0.61
					c0.2,0,0.35,0.34,0.45,1.01C241.65,89.47,242.02,90.45,242.44,91.82z"/>
				<path class="st2" d="M208.9,110.74c0.2,1.21,0,2.14-0.59,2.77c-0.59,0.64-1.19,0.95-1.78,0.95c-0.62,0-1.33-0.66-2.12-1.99
					c-0.23,1.84-1.03,2.75-2.41,2.75c-0.73,0-1.33-0.35-1.78-1.06c-0.51-0.85-0.8-3.15-0.89-6.9c0-0.82,0.11-1.23,0.34-1.23
					c0.37,0,0.62,0.38,0.76,1.14c0.28,1.33,0.41,2.77,0.38,4.32c0,0.2,0.15,0.44,0.44,0.74c0.3,0.3,0.54,0.44,0.74,0.44
					c1.07,0,1.61-0.35,1.61-1.06c0-0.76-0.1-1.62-0.3-2.58c-0.23-1.07-0.35-1.65-0.38-1.74c-0.08-1.02,0.14-1.52,0.68-1.52
					c0.31,0,0.49,0.34,0.55,1.02c0.03,0.34,0.1,0.92,0.21,1.74c0.39,0.96,0.71,1.62,0.93,1.99c0.39,0.65,0.83,1.04,1.31,1.19
					c0.45,0.14,0.76,0.04,0.93-0.3c-0.37-0.82-0.9-2.19-1.61-4.11c-0.06-0.28,0.01-0.71,0.19-1.29c0.18-0.58,0.37-0.87,0.57-0.87
					c0.28,0,0.49,0.48,0.64,1.44C207.79,107.41,208.31,108.79,208.9,110.74z"/>
				<path class="st2" d="M268.3,76.65c0.09,0.26,0.07,0.55-0.06,0.87c-0.13,0.33-0.26,0.46-0.4,0.4c-0.18-0.05-0.66-0.26-1.43-0.66
					c-0.64,1.17-1.95,2.66-3.94,4.5c-1.99,1.83-3.32,2.75-3.98,2.75c-0.14,0-0.23-0.05-0.27-0.16c1.24-1.09,2.48-2.17,3.72-3.25
					c2.07-1.82,3.33-3.19,3.77-4.11c-0.41-0.26-0.83-0.51-1.25-0.77c-0.38-0.32-0.57-0.77-0.57-1.36c0-0.33,0.24-0.83,0.73-1.5
					c0.48-0.67,0.89-1,1.23-1c1.01,0,1.52,0.61,1.52,1.82c0,0.5-0.11,1.02-0.32,1.57C267.43,75.94,267.85,76.25,268.3,76.65z
					 M269.32,70.21c-0.06,0.44-0.33,1-0.79,1.68c-0.56,0.82-0.95,1.23-1.18,1.23c-0.03,0-0.05-0.02-0.05-0.07
					c0-0.23,0.26-0.79,0.79-1.68c0.23-0.36,0.34-0.74,0.34-1.14c0-0.32-0.13-0.48-0.39-0.48c-0.98-0.03-2.32,0.64-4.02,2.02
					c-0.67,0.53-1.24,1.2-1.73,2c-0.48,0.8-0.73,1.48-0.73,2.02c0,0.5,0.21,0.79,0.64,0.89c0.18,0.05,0.44-0.08,0.77-0.39
					c0.39-0.42,0.67-0.64,0.82-0.64c0.06,0,0.09,0.05,0.09,0.14c0,0.21-0.14,0.59-0.43,1.14c-0.45,0.86-1.04,1.29-1.75,1.29
					c-0.44,0-0.74-0.32-0.91-0.95c-0.14-0.53-0.14-1.09-0.02-1.68c0.42-2,1.62-3.8,3.59-5.4c1.68-1.36,3.16-2.04,4.45-2.04
					C269.37,68.14,269.53,68.83,269.32,70.21z M266.39,75.59c0.05-0.15,0.07-0.32,0.07-0.5c0-0.97-0.3-1.36-0.89-1.18
					c-0.29,0.09-0.45,0.26-0.48,0.5C265.05,74.74,265.48,75.13,266.39,75.59z"/>
				<path class="st2" d="M219.08,108.25c0.06,0.17,0.05,0.36-0.04,0.57c-0.08,0.21-0.17,0.3-0.26,0.26
					c-0.12-0.03-0.43-0.17-0.93-0.43c-0.41,0.76-1.26,1.73-2.55,2.91c-1.29,1.19-2.15,1.78-2.58,1.78c-0.09,0-0.15-0.03-0.18-0.1
					c0.8-0.71,1.61-1.41,2.41-2.1c1.34-1.18,2.16-2.06,2.44-2.66c-0.26-0.17-0.53-0.33-0.81-0.5c-0.25-0.21-0.37-0.5-0.37-0.88
					c0-0.22,0.16-0.54,0.47-0.97c0.31-0.43,0.58-0.65,0.79-0.65c0.66,0,0.99,0.39,0.99,1.18c0,0.32-0.07,0.66-0.21,1.01
					C218.52,107.79,218.79,107.98,219.08,108.25z M219.74,104.07c-0.04,0.28-0.21,0.65-0.51,1.09c-0.36,0.53-0.62,0.79-0.76,0.79
					c-0.02,0-0.03-0.01-0.03-0.04c0-0.15,0.17-0.51,0.51-1.09c0.15-0.24,0.22-0.48,0.22-0.74c0-0.21-0.08-0.31-0.25-0.31
					c-0.64-0.02-1.51,0.42-2.6,1.31c-0.43,0.34-0.8,0.77-1.12,1.29c-0.31,0.52-0.47,0.96-0.47,1.31c0,0.32,0.14,0.51,0.41,0.57
					c0.12,0.03,0.28-0.05,0.5-0.25c0.25-0.27,0.43-0.41,0.53-0.41c0.04,0,0.06,0.03,0.06,0.09c0,0.14-0.09,0.38-0.28,0.74
					c-0.29,0.56-0.67,0.84-1.13,0.84c-0.28,0-0.48-0.21-0.59-0.62c-0.09-0.34-0.09-0.71-0.01-1.09c0.27-1.29,1.05-2.46,2.32-3.5
					c1.09-0.88,2.05-1.32,2.88-1.32C219.77,102.73,219.88,103.18,219.74,104.07z M217.85,107.55c0.03-0.1,0.04-0.21,0.04-0.32
					c0-0.63-0.19-0.88-0.57-0.76c-0.19,0.06-0.29,0.17-0.31,0.32C216.98,107.01,217.26,107.26,217.85,107.55z"/>
				<path class="st2" d="M228.75,123.46c0.09,0.26,0.07,0.55-0.06,0.87c-0.13,0.33-0.26,0.46-0.4,0.4
					c-0.18-0.05-0.66-0.26-1.43-0.66c-0.64,1.17-1.95,2.66-3.94,4.5c-1.99,1.83-3.32,2.75-3.98,2.75c-0.14,0-0.23-0.05-0.27-0.16
					c1.24-1.09,2.48-2.17,3.72-3.25c2.07-1.82,3.33-3.19,3.77-4.11c-0.41-0.26-0.83-0.51-1.25-0.77c-0.38-0.32-0.57-0.77-0.57-1.36
					c0-0.33,0.24-0.83,0.73-1.5c0.48-0.67,0.89-1,1.23-1c1.01,0,1.52,0.61,1.52,1.82c0,0.5-0.11,1.02-0.32,1.57
					C227.88,122.75,228.3,123.05,228.75,123.46z M229.77,117.02c-0.06,0.44-0.33,1-0.79,1.68c-0.56,0.82-0.95,1.23-1.18,1.23
					c-0.03,0-0.05-0.02-0.05-0.07c0-0.23,0.26-0.79,0.79-1.68c0.23-0.36,0.34-0.74,0.34-1.14c0-0.32-0.13-0.48-0.39-0.48
					c-0.98-0.03-2.32,0.64-4.02,2.02c-0.67,0.53-1.24,1.2-1.73,2c-0.48,0.8-0.73,1.48-0.73,2.02c0,0.5,0.21,0.79,0.64,0.89
					c0.18,0.05,0.44-0.08,0.77-0.39c0.39-0.42,0.67-0.64,0.82-0.64c0.06,0,0.09,0.05,0.09,0.14c0,0.21-0.14,0.59-0.43,1.14
					c-0.45,0.86-1.04,1.29-1.75,1.29c-0.44,0-0.74-0.32-0.91-0.95c-0.14-0.53-0.14-1.09-0.02-1.68c0.42-2,1.62-3.8,3.59-5.4
					c1.68-1.36,3.16-2.04,4.45-2.04C229.82,114.95,229.98,115.64,229.77,117.02z M226.84,122.4c0.05-0.15,0.07-0.32,0.07-0.5
					c0-0.97-0.3-1.36-0.89-1.18c-0.29,0.09-0.45,0.26-0.48,0.5C225.5,121.55,225.94,121.94,226.84,122.4z"/>
				<path class="st2" d="M205.61,74.24c0.19,0.57,0.16,1.2-0.1,1.88c-0.25,0.68-0.54,0.96-0.86,0.83c-0.51-0.19-1.51-0.65-3-1.38
					c-1.33,2.45-4.09,5.58-8.27,9.41c-4.18,3.83-6.96,5.74-8.36,5.74c-0.29,0-0.48-0.11-0.57-0.33c2.6-2.25,5.22-4.51,7.86-6.76
					c4.35-3.81,6.97-6.69,7.86-8.62c-0.86-0.54-1.73-1.08-2.62-1.62c-0.79-0.7-1.19-1.67-1.19-2.91c0-0.7,0.51-1.73,1.52-3.1
					c1.02-1.37,1.89-2.05,2.62-2.05c2.13,0,3.19,1.27,3.19,3.81c0,1.02-0.22,2.1-0.67,3.24C203.83,72.79,204.68,73.41,205.61,74.24z
					 M201.6,72.05c0.1-0.35,0.14-0.71,0.14-1.1c0-1.65-0.51-2.48-1.52-2.48c-0.79,0-1.24,0.37-1.33,1.1
					C198.79,70.21,199.7,71.03,201.6,72.05z"/>
				<path class="st2" d="M257.24,71.83c0.06,0.19,0.05,0.39-0.03,0.61c-0.08,0.22-0.18,0.31-0.28,0.27
					c-0.17-0.06-0.49-0.21-0.98-0.45c-0.44,0.8-1.33,1.82-2.7,3.07c-1.36,1.25-2.27,1.87-2.73,1.87c-0.09,0-0.16-0.04-0.19-0.11
					c0.85-0.74,1.71-1.47,2.57-2.21c1.42-1.24,2.28-2.18,2.57-2.81c-0.28-0.18-0.57-0.35-0.86-0.53c-0.26-0.23-0.39-0.54-0.39-0.95
					c0-0.23,0.17-0.56,0.5-1.01c0.33-0.45,0.62-0.67,0.86-0.67c0.69,0,1.04,0.41,1.04,1.24c0,0.33-0.07,0.68-0.22,1.06
					C256.66,71.36,256.94,71.56,257.24,71.83z M255.93,71.12c0.03-0.11,0.05-0.23,0.05-0.36c0-0.54-0.17-0.81-0.5-0.81
					c-0.26,0-0.4,0.12-0.44,0.36C255.02,70.52,255.31,70.79,255.93,71.12z"/>
				<path class="st2" d="M277.55,49.67l-0.13,1.79c-1.81,0.86-4.76,2.32-8.84,4.37c-2.74,1.41-6.51,3.46-11.33,6.13l0.17-1.79
					c2.27-1.28,6.04-3.33,11.29-6.16C270.83,52.92,273.78,51.48,277.55,49.67z M278.12,53.61l-0.17,1.79
					c-1.79,0.88-4.73,2.34-8.81,4.37c-2.76,1.41-6.54,3.47-11.33,6.16l0.17-1.82c2.27-1.3,6.04-3.36,11.29-6.16
					C271.37,56.87,274.32,55.42,278.12,53.61z"/>
				<path class="st2" d="M226.06,110.19l-0.2,2.66c-2.69,1.28-7.08,3.45-13.16,6.51c-4.07,2.1-9.69,5.14-16.86,9.12l0.25-2.66
					c3.38-1.91,8.99-4.95,16.81-9.12C216.05,115.08,220.44,112.92,226.06,110.19z"/>
				<path class="st2" d="M230.84,59.57h0.1c2.07,1.64,3.11,3.89,3.11,6.77v0.46c0,1.48-0.59,3.8-1.77,6.94l-0.16,0.98
					c0,1.24,0.33,1.87,0.98,1.87c0.44,0,0.91-0.56,1.41-1.67h0.23c-0.41,2.4-1.04,3.6-1.87,3.6h-0.36
					c-0.85-0.15-1.28-0.97-1.28-2.45v-0.23c0-1.31,0.57-3.43,1.7-6.35c0.11-0.74,0.16-1.29,0.16-1.64v-0.52
					c0-2.03-1.05-4.07-3.14-6.12v-0.1C230.27,60.44,230.56,59.92,230.84,59.57z"/>
				<path class="st2" d="M248.34,88.2c-0.85,2.71-1.28,4.43-1.28,5.17c0,1.13,0.28,1.7,0.85,1.7c0.41,0,0.86-0.5,1.34-1.51h0.07
					l0.1,0.13c-0.39,2.12-0.96,3.17-1.7,3.17h-0.26c-0.55,0-0.93-0.36-1.15-1.08c-0.04-0.31-0.07-0.55-0.07-0.72v-0.88
					c0-1.75,0.65-3.74,1.96-5.99H248.34z"/>
				<path class="st2" d="M276.07,61.59c-0.85,2.71-1.28,4.43-1.28,5.17c0,1.13,0.28,1.7,0.85,1.7c0.41,0,0.86-0.5,1.34-1.51h0.07
					l0.1,0.13c-0.39,2.12-0.96,3.17-1.7,3.17h-0.26c-0.55,0-0.93-0.36-1.15-1.08c-0.04-0.31-0.07-0.55-0.07-0.72v-0.88
					c0-1.75,0.65-3.74,1.96-5.99H276.07z"/>
				<path class="st2" d="M244.72,71.03c-0.85,2.71-1.28,4.43-1.28,5.17c0,1.13,0.28,1.7,0.85,1.7c0.41,0,0.86-0.5,1.34-1.51h0.07
					l0.1,0.13c-0.39,2.12-0.96,3.17-1.7,3.17h-0.26c-0.55,0-0.93-0.36-1.15-1.08c-0.04-0.31-0.07-0.55-0.07-0.72v-0.88
					c0-1.75,0.65-3.74,1.96-5.99H244.72z"/>
				<path class="st2" d="M220.24,62.49c-0.85,2.71-1.28,4.43-1.28,5.17c0,1.13,0.28,1.7,0.85,1.7c0.41,0,0.86-0.5,1.34-1.51h0.07
					l0.1,0.13c-0.39,2.12-0.96,3.17-1.7,3.17h-0.26c-0.55,0-0.93-0.36-1.15-1.08c-0.04-0.31-0.07-0.54-0.07-0.72v-0.88
					c0-1.75,0.65-3.74,1.96-5.99H220.24z"/>
				<path class="st2" d="M261.21,45.59c-0.85,2.71-1.28,4.43-1.28,5.17c0,1.13,0.28,1.7,0.85,1.7c0.41,0,0.86-0.5,1.34-1.51h0.07
					l0.1,0.13c-0.39,2.12-0.96,3.17-1.7,3.17h-0.26c-0.55,0-0.93-0.36-1.15-1.08c-0.04-0.31-0.07-0.54-0.07-0.72v-0.88
					c0-1.75,0.65-3.74,1.96-5.99H261.21z"/>
				<path class="st2" d="M194.26,98.22c-0.85,2.71-1.28,4.43-1.28,5.17c0,1.13,0.28,1.7,0.85,1.7c0.41,0,0.86-0.5,1.34-1.51h0.07
					l0.1,0.13c-0.39,2.12-0.96,3.17-1.7,3.17h-0.26c-0.43,0-0.76-0.22-0.98-0.67c-0.12-0.23-0.18-0.48-0.2-0.74
					c-0.02-0.16-0.02-0.29-0.02-0.4v-0.88c0-1.75,0.65-3.74,1.96-5.99H194.26z"/>
				<path class="st2" d="M251.93,115.65c-0.85,2.71-1.28,4.43-1.28,5.17c0,1.13,0.28,1.7,0.85,1.7c0.41,0,0.86-0.5,1.34-1.51h0.07
					l0.1,0.13c-0.39,2.12-0.96,3.17-1.7,3.17h-0.26c-0.43,0-0.76-0.22-0.98-0.67c-0.12-0.23-0.18-0.48-0.2-0.74
					c-0.02-0.16-0.02-0.29-0.02-0.4v-0.88c0-1.75,0.65-3.74,1.96-5.99H251.93z"/>
				<path class="st2" d="M216.34,80.79c-0.85,2.71-1.28,4.43-1.28,5.17c0,1.13,0.28,1.7,0.85,1.7c0.41,0,0.86-0.5,1.34-1.51h0.07
					l0.1,0.13c-0.39,2.12-0.96,3.17-1.7,3.17h-0.26c-0.43,0-0.76-0.22-0.98-0.67c-0.12-0.23-0.18-0.48-0.2-0.74
					c-0.02-0.16-0.02-0.29-0.02-0.4v-0.88c0-1.75,0.65-3.74,1.96-5.99H216.34z"/>
				<path class="st2" d="M214.14,53.84c-1.77,4.28-2.65,6.99-2.65,8.15c0,1.79,0.59,2.68,1.77,2.68c0.87,0,1.81-0.79,2.81-2.36h0.13
					l0.2,0.2c-0.81,3.34-1.98,5.01-3.53,5.01h-0.56c-1.13,0-1.93-0.57-2.39-1.7c-0.09-0.48-0.13-0.86-0.13-1.15v-1.37
					c0-2.77,1.36-5.92,4.09-9.46H214.14z"/>
				<path class="st2" d="M257.21,87.78c-1.77,4.28-2.65,6.99-2.65,8.15c0,1.79,0.59,2.68,1.77,2.68c0.87,0,1.81-0.79,2.81-2.36h0.13
					l0.2,0.2c-0.81,3.34-1.98,5.01-3.53,5.01h-0.56c-1.13,0-1.93-0.57-2.39-1.7c-0.09-0.48-0.13-0.86-0.13-1.15v-1.37
					c0-2.77,1.36-5.92,4.09-9.46H257.21z"/>
				<path class="st2" d="M227.16,47.29c0.59,0,1.22,0.6,1.9,1.8c0.07,0.11,0.1,0.27,0.1,0.49v0.2c-0.24,1.2-0.5,1.8-0.79,1.8
					c-0.09,0-0.52-0.4-1.31-1.21l-0.49-0.2c-0.87,0-1.73,2.56-2.59,7.69c-0.57,1.59-1,2.39-1.31,2.39c-0.2,0-0.39-0.76-0.59-2.29
					c-0.89-2.66-1.69-4.38-2.39-5.17h-0.33l-0.49,0.39h-0.29c-0.65,0-1.39-0.63-2.19-1.9v-0.2c0.68-1.4,1.21-2.23,1.6-2.49h0.2
					c2.18,0,3.81,2.49,4.88,7.46v0.1h0.1C224.11,50.25,225.44,47.29,227.16,47.29z"/>
				<path class="st2" d="M228.96,91.22c0.59,0,1.22,0.6,1.9,1.8c0.07,0.11,0.1,0.27,0.1,0.49v0.2c-0.24,1.2-0.5,1.8-0.79,1.8
					c-0.09,0-0.52-0.4-1.31-1.21l-0.49-0.2c-0.87,0-1.73,2.56-2.59,7.69c-0.57,1.59-1,2.39-1.31,2.39c-0.2,0-0.39-0.76-0.59-2.29
					c-0.89-2.66-1.69-4.38-2.39-5.17h-0.33l-0.49,0.39h-0.29c-0.65,0-1.39-0.63-2.19-1.9v-0.2c0.68-1.4,1.21-2.23,1.6-2.49h0.2
					c2.18,0,3.81,2.49,4.88,7.46v0.1h0.1C225.9,94.18,227.24,91.22,228.96,91.22z"/>
				<path class="st2" d="M243.71,119.99c0.59,0,1.22,0.6,1.9,1.8c0.07,0.11,0.1,0.27,0.1,0.49v0.2c-0.24,1.2-0.5,1.8-0.79,1.8
					c-0.09,0-0.52-0.4-1.31-1.21l-0.49-0.2c-0.87,0-1.73,2.56-2.59,7.69c-0.57,1.59-1,2.39-1.31,2.39c-0.2,0-0.39-0.76-0.59-2.29
					c-0.89-2.66-1.69-4.38-2.39-5.17h-0.33l-0.49,0.39h-0.29c-0.65,0-1.39-0.63-2.19-1.9v-0.2c0.68-1.4,1.21-2.23,1.6-2.49h0.2
					c2.18,0,3.81,2.49,4.88,7.46v0.1h0.1C240.65,122.95,241.99,119.99,243.71,119.99z"/>
				<path class="st2" d="M282.5,81.72c0.59,0,1.22,0.6,1.9,1.8c0.07,0.11,0.1,0.27,0.1,0.49v0.2c-0.24,1.2-0.5,1.8-0.79,1.8
					c-0.09,0-0.52-0.4-1.31-1.21l-0.49-0.2c-0.87,0-1.73,2.56-2.59,7.69c-0.57,1.59-1,2.39-1.31,2.39c-0.2,0-0.39-0.76-0.59-2.29
					c-0.89-2.66-1.69-4.38-2.39-5.17h-0.33l-0.49,0.39h-0.29c-0.65,0-1.39-0.63-2.19-1.9v-0.2c0.68-1.4,1.21-2.23,1.6-2.49h0.2
					c2.18,0,3.81,2.49,4.88,7.46v0.1h0.1C279.45,84.67,280.78,81.72,282.5,81.72z"/>
				<path class="st2" d="M239.27,51.32c-0.13,0.72-0.25,1.44-0.36,2.16c-0.24,1.11-0.52,1.67-0.85,1.67c-0.39,0-1.13-0.28-2.23-0.85
					c-1-0.52-1.54-0.86-1.62-1c-0.08-0.14-0.14-0.4-0.18-0.77c0.24-0.74,0.53-1.81,0.88-3.21c0.07-0.41,0.18-0.61,0.36-0.59
					l0.56,0.36c0.65,0.26,1.64,0.72,2.95,1.37c0.15,0.04,0.29,0.1,0.43,0.16C239.34,50.69,239.36,50.92,239.27,51.32z"/>
				<path class="st2" d="M227.17,77.48c-0.13,0.72-0.25,1.44-0.36,2.16c-0.24,1.11-0.52,1.67-0.85,1.67c-0.39,0-1.13-0.28-2.23-0.85
					c-1-0.52-1.54-0.86-1.62-1c-0.08-0.14-0.14-0.4-0.18-0.77c0.24-0.74,0.53-1.81,0.88-3.21c0.07-0.41,0.18-0.61,0.36-0.59
					l0.56,0.36c0.65,0.26,1.64,0.72,2.95,1.37c0.15,0.04,0.29,0.1,0.43,0.16C227.23,76.86,227.25,77.09,227.17,77.48z"/>
				<path class="st2" d="M263.29,115.06c-0.13,0.72-0.25,1.44-0.36,2.16c-0.24,1.11-0.52,1.67-0.85,1.67
					c-0.39,0-1.13-0.28-2.23-0.85c-1-0.52-1.54-0.86-1.62-1c-0.08-0.14-0.14-0.4-0.18-0.77c0.24-0.74,0.53-1.81,0.88-3.21
					c0.07-0.41,0.18-0.61,0.36-0.59l0.56,0.36c0.65,0.26,1.64,0.72,2.95,1.37c0.15,0.04,0.29,0.1,0.43,0.16
					C263.36,114.43,263.38,114.66,263.29,115.06z"/>
				<g class="st3">
					<g>
						<path class="st4" d="M219.64,42.73c0-1.96,1.31-2.71,2.05-2.71c0.8,0,2.15,0.65,2.15,2.76c0,1.66-1.5,2.27-2.19,2.27
							C220.32,45.06,219.64,43.94,219.64,42.73z M221.44,41.38c-0.45,0-1.19,0.38-1.19,1.1c0,0.52,0.42,1.19,1.45,1.19
							c0.91,0,1.57-0.68,1.57-0.89C223.27,42.61,222.66,41.38,221.44,41.38z"/>
					</g>
				</g>
				<g class="st3">
					<g>
						<path class="st4" d="M249,83.34c0-1.96,1.31-2.71,2.05-2.71c0.8,0,2.15,0.65,2.15,2.76c0,1.66-1.5,2.27-2.19,2.27
							C249.68,85.67,249,84.55,249,83.34z M250.8,82c-0.45,0-1.19,0.38-1.19,1.1c0,0.52,0.42,1.19,1.45,1.19
							c0.91,0,1.57-0.68,1.57-0.89C252.64,83.22,252.03,82,250.8,82z"/>
					</g>
				</g>
				<g class="st3">
					<g>
						<path class="st4" d="M225.26,68.33c0-1.96,1.31-2.71,2.05-2.71c0.8,0,2.15,0.65,2.15,2.76c0,1.66-1.5,2.27-2.19,2.27
							C225.94,70.65,225.26,69.54,225.26,68.33z M227.06,66.98c-0.45,0-1.19,0.38-1.19,1.1c0,0.52,0.42,1.19,1.45,1.19
							c0.91,0,1.57-0.68,1.57-0.89C228.9,68.21,228.28,66.98,227.06,66.98z"/>
					</g>
				</g>
				<g class="st3">
					<g>
						<path class="st4" d="M187.97,75.78c0-1.96,1.31-2.71,2.05-2.71c0.8,0,2.15,0.65,2.15,2.76c0,1.66-1.5,2.27-2.19,2.27
							C188.65,78.11,187.97,76.99,187.97,75.78z M189.77,74.43c-0.45,0-1.19,0.38-1.19,1.1c0,0.52,0.42,1.19,1.45,1.19
							c0.91,0,1.57-0.68,1.57-0.89C191.6,75.66,190.99,74.43,189.77,74.43z"/>
					</g>
				</g>
			</g>
		</g>
	</g>
	<g>
		<g>
			<path class="st5" d="M234.04,63.78c-0.27,2.19-2.26,3.75-4.46,3.48c-2.19-0.27-3.75-2.26-3.48-4.46
				c0.27-2.19,2.26-3.75,4.46-3.48C232.75,59.59,234.31,61.58,234.04,63.78"/>
			<path class="st6" d="M250.54,93.83l-28.31-13.35l-0.16-7.37c-0.01-0.39,0.39-0.66,0.74-0.5l29.89,12.8l-1.18,7.9
				C251.46,93.76,250.96,94.03,250.54,93.83"/>
			<path class="st7" d="M266.63,75.92c-0.62-2.16-1.64-4.16-3.03-5.94c-1.39-1.78-3.09-3.25-5.04-4.37
				c-2.02-1.16-4.23-1.9-6.56-2.18c-2.33-0.29-4.65-0.1-6.89,0.54c-2.16,0.62-4.16,1.64-5.94,3.03c-0.6,0.47-1.16,0.97-1.69,1.51
				c-1.04,1.06-1.94,2.24-2.68,3.53c-0.27,0.46-0.51,0.93-0.73,1.41c-0.21,0.47,0.06,1.01,0.56,1.13c1.33,0.31,3.82,1.05,5.89,2.52
				c2.99,2.11,5.23,6.22,4.78,9.88c-0.16,1.34-0.67,2.68-1.32,3.76l6.71,3.16c0.4,0.19,0.89,0.02,1.08-0.38
				c0.85-1.74,1.41-3.6,1.64-5.55c0.29-2.33,0.1-4.65-0.54-6.89c-0.62-2.16-1.64-4.16-3.03-5.94c-0.91-1.17-1.96-2.2-3.12-3.1
				c1.36-0.5,2.86-0.69,4.4-0.48c4.96,0.67,8.5,5.21,7.95,10.18c-0.15,1.34-0.58,2.57-1.22,3.66c-0.24,0.41-0.09,0.94,0.34,1.15
				l5.86,2.91c0.39,0.19,0.86,0.05,1.08-0.33c0.14-0.25,0.28-0.51,0.35-0.65c0.88-1.77,1.45-3.66,1.69-5.65
				C267.45,80.48,267.27,78.16,266.63,75.92"/>
			<path class="st7" d="M240.16,84.86c-0.62-2.16-1.64-4.16-3.03-5.94c-1.39-1.78-3.09-3.25-5.04-4.37
				c-2.02-1.16-4.23-1.9-6.56-2.18c-0.89-0.11-1.78-0.15-2.67-0.12c-0.45,0.01-0.8,0.39-0.79,0.83l0.16,7.41
				c0.82-0.11,1.67-0.1,2.52,0.02c4.9,0.71,8.38,5.22,7.84,10.14c-0.56,5.16-5.28,8.84-10.42,8.15c-4.87-0.66-8.39-5.07-7.95-9.96
				c0.1-1.15,0.41-2.24,0.89-3.22c0.2-0.4,0.03-0.89-0.37-1.09l-5.86-2.9c-0.41-0.2-0.9-0.03-1.1,0.37
				c-0.85,1.73-1.4,3.59-1.64,5.53c-0.29,2.33-0.1,4.65,0.54,6.89c0.62,2.16,1.64,4.16,3.03,5.94c1.39,1.78,3.09,3.25,5.04,4.37
				c2.02,1.16,4.23,1.9,6.56,2.18c2.33,0.29,4.65,0.1,6.89-0.54c2.16-0.62,4.16-1.64,5.94-3.03c1.78-1.39,3.25-3.09,4.37-5.04
				c1.16-2.02,1.9-4.23,2.18-6.56C240.98,89.42,240.8,87.1,240.16,84.86"/>
		</g>
	</g>
	<g>
		<g>
			<path class="st8" d="M59.08,43.65l-7.93,3.32c-1.46,0.22-2.5-0.88-2.29-2.17l0.16,0.13c0.83,0.84,1.46,0.88,2.71,0.35
				c0.26-0.13,0.52-0.22,0.73-0.31l4.69-2.03c-0.05-0.13-0.16-0.31-0.31-0.49c-1.04-1.06-3.6-0.66-4.9,0.27
				c-0.99,0.71-0.31,1.15,0.37,1.15c0.37,0,0.68-0.04,0.94-0.13c-0.1,0.4-0.31,0.66-0.57,0.88c-0.63,0.4-1.82,0.18-2.4-0.35
				c-1.72-1.81,1.41-3.71,4.12-3.85C57.51,40.29,58.71,42.1,59.08,43.65z"/>
			<path class="st8" d="M68.41,53.64c-0.21,0.75-0.57,2.08-1.04,3.93c-0.68,2.43-1.41,5.22-2.24,8.31c-0.31,1.06-0.73,2.43-1.2,4.11
				c-0.83,3.89-4.01,8.71-11.11,8.71c-2.87,0-5.16-0.71-6.88-2.12c-2.71-2.17-3.02-5.22-0.57-8.18c1.09,4.38,3.55,6.54,7.35,6.54
				c1.93,0,3.49-0.66,4.69-1.99c0.47-0.49,0.83-1.19,1.2-2.08c0.78-2.08,1.36-3.89,1.77-5.39c0.26-0.97,0.52-1.77,0.68-2.43
				c0.16-0.75,0.42-1.9,0.89-3.49c0.42-1.41,0.63-2.34,0.63-2.83c0-0.62-0.1-1.1-0.26-1.5L68.41,53.64z M53.86,57.84l-3.55-2.96
				l3.65-3.05l3.44,2.96L53.86,57.84z"/>
			<path class="st8" d="M75.08,67.3c-0.1,0.35-0.16,0.66-0.16,0.93c0,0.88,0.63,1.33,1.93,1.33h2.55v3.23h-4.28
				c-2.5,0-5.27-1.24-5.27-3.76c0-0.27,0.05-0.66,0.21-1.24l4.38-16.05c0.31-1.1,0.31-2.03-0.05-2.87l6.1-1.59L75.08,67.3z"/>
			<path class="st8" d="M96.3,49.44l-0.73-1.28l8.92-3.76l0.78,1.28L96.3,49.44z"/>
			<path class="st8" d="M112.26,53.37c-0.37,1.19-1.46,5.26-3.39,12.2l-0.52,1.95c-0.05,0.18-0.05,0.31-0.05,0.4
				c0,0.93,0.63,1.46,1.88,1.64h2.61v3.23h-4.33c-1.04,0-1.98-0.27-2.82-0.84c-0.99,0.57-2.14,0.84-3.55,0.84
				c-2.14,0-3.65-0.93-4.48-2.78c-0.05,0.13-0.16,0.27-0.21,0.35c-0.99,1.64-2.71,2.43-5.06,2.43c-2.24,0-3.75-0.97-4.54-2.92
				c-0.05,0.13-0.1,0.31-0.21,0.49c-1.1,1.64-2.76,2.43-5.11,2.43h-5.16v-3.23h1.3c3.7,0,5.01-1.02,5.89-4.42
				c0.57-1.94,1.15-3.85,1.62-5.75c0.42-1.46,0.63-2.39,0.63-2.87c0-0.62-0.05-1.15-0.21-1.55l6.1-1.59
				c-0.31,1.19-1.41,5.26-3.34,12.2c-0.47,1.81-0.94,3.14-1.3,3.98h0.52c3.49,0.04,4.95-1.02,5.84-4.42
				c0.57-1.94,1.09-3.85,1.62-5.75c0.42-1.46,0.63-2.39,0.63-2.87c0-0.62-0.1-1.15-0.26-1.55l6.1-1.59
				c-0.31,1.19-1.41,5.26-3.34,12.2c-0.47,1.81-0.94,3.14-1.3,3.98h0.42c1.82,0.04,3.13-0.27,3.96-0.88
				c1.62-1.28,2.5-5.53,3.55-9.28c0.37-1.46,0.57-2.39,0.57-2.87c0-0.62-0.05-1.15-0.21-1.55L112.26,53.37z"/>
			<path class="st8" d="M120.65,43.82l-0.73-1.28l8.92-3.76l0.78,1.28L120.65,43.82z M129.46,32.42c-0.16,0.4-0.42,1.24-0.78,2.52
				c-0.47,1.72-0.73,2.52-2.4,2.52c-0.73,0-1.25-0.31-1.51-0.97c-0.05,0.04-0.1,0.09-0.1,0.13c-0.36,0.57-0.94,0.84-1.77,0.84
				c-1.93-0.22-2.87-1.11-2.76-2.65c0.26-0.71,0.37-1.15,0.37-1.28c0-0.22,0-0.44-0.05-0.57l2.14-0.53l-0.73,2.52
				c-0.16,0.66-0.37,1.1-0.52,1.41h0.21c1.25,0,1.77-0.35,2.03-1.55c0.26-0.71,0.42-1.15,0.42-1.28c0-0.22-0.05-0.44-0.1-0.57
				l2.14-0.53c-0.1,0.4-0.36,1.24-0.78,2.52c-0.16,0.66-0.31,1.1-0.47,1.41h0.16c0.68,0,1.15-0.09,1.41-0.31
				c0.57-0.49,1.04-2.21,1.04-2.52c0-0.22,0-0.44-0.05-0.57L129.46,32.42z"/>
			<path class="st8" d="M123,61.99l-1.41,5.3c-0.05,0.4-0.1,0.71-0.1,0.97c0,0.84,0.63,1.28,1.88,1.28h2.61v3.23h-4.33
				c-1.15,0-2.19-0.22-3.18-0.66c-0.89,0.44-1.93,0.66-3.18,0.66h-4.59v-3.23h0.78c2.08,0,3.44-0.22,4.01-0.71
				c1.41-1.06,1.98-4.2,3.39-9.19l1.72-6.5c0.42-1.46,0.63-2.43,0.63-2.92c0-0.62-0.1-1.15-0.26-1.55l6.15-1.59L123,61.99z"/>
			<path class="st8" d="M135.25,65.57c-1.3,4.82-2.14,7.21-6.78,7.21h-4.59v-3.23h0.78c4.17,0,4.8-0.53,5.89-4.42
				c0.57-2.3,2.4-9.15,3.23-11.98c0.42-1.46,0.63-2.43,0.63-2.92c0-0.62-0.1-1.15-0.26-1.55l6.15-1.59L135.25,65.57z"/>
			<path class="st8" d="M145.47,69.77c-0.37,1.33-1.41,2.25-3.18,2.83c-0.89,0.27-1.77,0.4-2.61,0.4c0.31-1.06,0.57-1.9,0.73-2.52
				l5.11-18.7c0.31-1.11,0.26-2.08-0.1-2.92l6.1-1.59L145.47,69.77z"/>
			<path class="st9" d="M29.51,102.77c-0.47,1.72-0.73,2.52-2.4,2.52c-0.78,0-1.3-0.31-1.56-0.97c-0.05,0.04-0.05,0.09-0.05,0.13
				c-0.37,0.57-0.99,0.84-1.77,0.84c-1.93-0.22-2.87-1.11-2.76-2.65c0.26-0.71,0.36-1.15,0.36-1.28c0-0.22,0-0.44-0.05-0.57
				l2.14-0.53c-0.1,0.4-0.37,1.24-0.78,2.52c-0.16,0.66-0.31,1.1-0.47,1.41h0.21c0.63,0,1.09-0.09,1.36-0.31
				c0.63-0.49,1.04-2.21,1.04-2.52c0-0.22,0-0.44-0.05-0.57l2.14-0.53c-0.16,0.4-0.42,1.24-0.78,2.52c-0.16,0.66-0.31,1.1-0.47,1.41
				h0.16c0.63,0,1.1-0.09,1.41-0.31c0.57-0.49,0.99-2.21,0.99-2.52c0-0.22,0-0.44-0.05-0.57l2.14-0.53L29.51,102.77z M32.59,96.22
				l-4.12,1.81c-0.37,0.13-0.83,0.31-1.3,0.53c-0.16,0.09-0.37,0.18-0.63,0.27c-0.89,0.4-1.51,0.66-1.88,0.71
				c-1.46,0.22-2.5-0.88-2.29-2.17l0.16,0.13c0.83,0.84,1.51,0.88,2.71,0.35c0.26-0.13,0.52-0.22,0.73-0.31l0.83-0.35l1.77-0.8
				l2.09-0.88c-0.05-0.13-0.16-0.31-0.31-0.49c-1.04-1.06-3.6-0.66-4.9,0.27c-0.99,0.71-0.31,1.15,0.37,1.15
				c0.37,0,0.68-0.04,0.94-0.13c-0.1,0.4-0.31,0.66-0.57,0.88c-0.63,0.4-1.82,0.18-2.4-0.35c-1.72-1.81,1.41-3.71,4.17-3.85
				C31.03,92.86,32.22,94.68,32.59,96.22z"/>
			<path class="st9" d="M64.19,120.53h-4.28c-2.5,0-5.42-1.33-5.21-3.76c0-0.31,0.05-0.75,0.21-1.37l0.1-0.57
				c0.42-2.08,0.57-3.85,0.47-5.3c-0.37-4.24-4.07-5.13-6.1-4.64c-0.05,0.18-0.83,2.96-2.24,8.31c-0.16,0.53-0.42,1.28-0.68,2.3
				c-0.36,1.15-0.73,1.99-1.09,2.48c-0.99,1.72-2.66,2.56-5.01,2.56H28.73c-2.87,0-5.21-0.66-6.93-1.99
				c-2.71-1.9-3.02-4.55-0.57-7.03c1.09,3.76,3.55,5.66,7.35,5.79h7.98c2.09,0,3.44-0.22,4.07-0.66c0.68-0.58,1.25-1.86,1.77-3.93
				c0.42-1.28,2.14-7.29,3.13-10.79h0.05v-0.04c1.2-0.44,2.45-0.66,3.75-0.71c1.82,0.04,3.55,0.4,5.16,1.06
				c6.26,2.61,6.47,8.18,5.63,11.32l-0.26,1.5c-0.1,0.4-0.16,0.71-0.16,0.93c0,0.88,0.63,1.33,1.93,1.33h2.55V120.53z M33.16,126.33
				l-3.6,3.05l-3.44-2.96l3.6-3.05L33.16,126.33z M42.5,126.33l-3.6,3.05l-3.49-2.96l3.6-3.05L42.5,126.33z"/>
			<path class="st9" d="M65.54,138.53l-0.73-1.28l8.92-3.76l0.78,1.28L65.54,138.53z"/>
			<path class="st9" d="M79.72,101.13c-0.47,1.63-1.62,5.66-3.39,12.16c-1.3,4.82-2.03,7.25-6.78,7.25H62.1v-3.23h3.6
				c2.14,0,3.49-0.27,4.07-0.75c1.41-1.06,2.29-5.17,2.5-6.06l0.94-3.36c0.37-1.46,0.57-2.39,0.57-2.87c0-0.62-0.05-1.15-0.21-1.59
				L79.72,101.13z M69.5,129.6l-3.49-3.01l3.65-3.05l3.49,2.96L69.5,129.6z"/>
			<path class="st9" d="M89.16,96.09l-0.73-1.28l8.92-3.76l0.78,1.28L89.16,96.09z"/>
			<path class="st9" d="M95.26,120.53h-4.33c-0.47,0-0.99-0.04-1.46-0.13c-1.04,3.4-1.72,5.97-6.47,5.97
				c-1.72,0-3.34-0.71-4.85-2.17h0.73c3.6,0,4.9-1.1,5.89-4.46c0.57-2.12,2.5-9.46,3.39-12.51c0.37-1.46,0.57-2.39,0.57-2.87
				c0-0.62-0.05-1.15-0.21-1.55l6.15-1.59c-0.21,0.66-1.46,5.39-3.86,14.1c-0.05,0.27-0.05,0.49-0.05,0.66
				c0,0.88,0.63,1.33,1.88,1.33h2.61V120.53z M94.69,101.22"/>
			<path class="st9" d="M107.04,97.15l-0.73-1.28l8.92-3.76l0.78,1.28L107.04,97.15z"/>
			<path class="st9" d="M122.9,108.11c0.21,3.49-1.25,6.59-4.38,9.19h7.46v3.23H93.02v-3.23h10.32c-2.87-1.46-5.21-4.51-7.09-9.15
				c0.99-0.44,3.55-2.03,7.77-4.82c2.14-1.33,4.95-1.99,8.55-2.03C119.09,101.26,122.74,104.8,122.9,108.11z M106.52,106.12
				c-2.61,1.55-4.22,2.48-4.9,2.78c0.42,2.17,5.79,7.56,9.7,8.4c1.93-0.84,3.49-2.21,4.64-4.07c2.08-3.31,1.77-5.79,0.05-7.34
				C114.08,104.14,109.24,104.53,106.52,106.12z"/>
			<path class="st9" d="M135.25,113.33c-1.3,4.82-2.14,7.21-6.78,7.21h-4.59v-3.23h0.78c4.17,0,4.8-0.53,5.89-4.42
				c0.57-2.3,2.4-9.15,3.23-11.98c0.42-1.46,0.63-2.43,0.63-2.92c0-0.62-0.1-1.15-0.26-1.55l6.15-1.59L135.25,113.33z"/>
			<path class="st9" d="M145.47,117.53c-0.37,1.33-1.41,2.25-3.18,2.83c-0.89,0.27-1.77,0.4-2.61,0.4c0.31-1.06,0.57-1.9,0.73-2.52
				l5.11-18.7c0.31-1.11,0.26-2.08-0.1-2.92l6.1-1.59L145.47,117.53z"/>
		</g>
	</g>
	<line class="st10" x1="170.59" y1="128.74" x2="170.59" y2="39.2"/>
</g>
</svg>
