<svg width="64" height="64" viewBox="-28.5 -28.5 120 120" fill="white" xmlns="http://www.w3.org/2000/svg">
    <g clip-path="url(#clip0)">
        <path d="M63.5201 15.5894C63.2086 15.0503 62.6617 14.731 62.0821 14.6914C62.0636 14.6528 61.8595 14.2603 61.2906 13.1621C60.8683 12.3477 59.8624 12.0288 59.0475 12.4507L58.2442 12.8672L57.419 11.438C57.002 10.7163 56.1466 10.353 55.337 10.5557L43.2672 13.5796C39.9122 14.4204 36.9258 16.1699 34.5679 18.6651C34.1333 18.5596 33.6817 18.7051 33.3877 19.0547C32.8643 19.6782 32.3765 20.3413 31.9385 21.0264C31.8321 21.1924 31.7354 21.3638 31.648 21.5396C29.1348 17.5064 25.2022 14.6997 20.7324 13.5796L8.66211 10.5557C7.85303 10.353 6.99707 10.7163 6.58056 11.438L5.75537 12.8672L4.95166 12.4507C4.13769 12.0288 3.13134 12.3477 2.70898 13.1621C2.70898 13.1743 1.99023 14.5401 1.91747 14.6914C1.33837 14.731 0.791005 15.0498 0.479969 15.5894C-0.497572 17.2779 0.09032 19.2417 1.58983 20.1773L10.2686 25.5933C10.7075 25.8672 11.2861 25.7339 11.5601 25.2945C11.834 24.8555 11.7002 24.2769 11.2612 24.003L2.58251 18.5869C1.90038 18.1612 1.67724 17.2866 2.06835 16.5874L31.0625 31.6172V36.3609C31.0254 36.3379 16.5005 27.273 14.9722 26.3189C14.5332 26.045 13.9546 26.1787 13.6807 26.6177C13.4067 27.0572 13.5405 27.6353 13.9795 27.9092L23.9785 34.1495L14.4234 39.1026C13.146 39.7647 12.2461 41.0074 12.0156 42.4273C11.8442 43.4854 11.3135 44.4615 10.52 45.1812L9.08789 46.2388C6.979 47.796 6.25 50.6524 7.354 53.0299C7.64356 53.6529 8.41211 53.8765 8.98975 53.5162L31.0625 39.7408V40.6719C31.0625 41.19 31.4825 41.6094 32 41.6094C32.5181 41.6094 32.9375 41.19 32.9375 40.6719C32.9375 34.3365 32.9375 30.6885 32.9375 24.065C32.9375 23.3321 33.1382 22.6304 33.5186 22.0362C33.5464 21.9917 33.5752 21.9478 33.6036 21.9038V45.2901C33.3892 45.2086 33.1519 45.2086 32.9375 45.2901V45.0465C32.9375 44.5289 32.5181 44.109 32 44.109C31.4825 44.109 31.0625 44.5289 31.0625 45.0465V46.8756C31.0625 47.7569 32.0718 48.2545 32.7705 47.7232L33.2706 47.3433L33.7706 47.7232C34.4708 48.2554 35.4786 47.7554 35.4786 46.8756V41.3262L55.0103 53.5162C55.5909 53.8785 56.358 53.65 56.6461 53.0299C57.7501 50.6519 57.0211 47.796 54.9122 46.2388L53.4801 45.1812C52.6866 44.4615 52.1558 43.4849 51.9845 42.4273C51.754 41.0074 50.8541 39.7647 49.5772 39.1026L40.0215 34.1495L62.4098 20.1773C63.9044 19.2447 64.5001 17.2827 63.5201 15.5894V15.5894ZM8.20654 12.3745L20.2764 15.3985C25.0284 16.5889 29.0469 19.9512 31.0621 24.4112V24.6753C27.4619 20.3032 22.562 17.1919 17.0073 15.8003C16.5049 15.6743 15.9956 15.9795 15.8701 16.4815C15.7442 16.9839 16.0493 17.4927 16.5513 17.6187C21.2095 18.7857 25.3721 21.2534 28.5987 24.709L7.42188 13.7315L8.20654 12.3745ZM4.27636 14.2124C6.74316 15.4912 28.0835 26.5537 31.0625 28.0977V29.5054L3.70117 15.3223L4.27636 14.2124ZM8.78858 51.4317C8.50977 50.0606 9.03907 48.6055 10.2012 47.7471C11.7539 46.6007 11.6895 46.651 11.7363 46.609C12.8672 45.6011 13.6235 44.2227 13.8662 42.7276C14.002 41.8907 14.5327 41.1578 15.2852 40.7676L25.8262 35.3033L30.229 38.0508L8.78858 51.4317ZM43.7232 15.3985L55.7955 12.3755L56.5782 13.731L49.3468 17.4795C48.8873 17.7178 48.7076 18.2837 48.9459 18.7432C49.1842 19.2027 49.7501 19.3823 50.2095 19.1441L59.7232 14.2124L60.2984 15.3218L35.4781 28.188V26.7803L46.3257 21.1573C46.7857 20.919 46.9649 20.3531 46.7266 19.8936C46.4883 19.4336 45.9224 19.2544 45.463 19.4927L35.4781 24.6685V24.6299C38.7237 21.1905 42.8546 18.7696 47.4478 17.6187C47.9503 17.4927 48.2554 16.9839 48.1295 16.4815C48.0035 15.979 47.4947 15.6743 46.9923 15.8003C42.6729 16.8823 38.7335 19.0088 35.4781 21.9981V20.4512C37.6553 17.9507 40.4991 16.2061 43.7232 15.3985ZM50.1334 42.7276C50.3756 44.2227 51.1324 45.6011 52.2633 46.609C52.3101 46.651 52.1983 46.566 53.7979 47.7471C54.9605 48.6055 55.4893 50.0606 55.211 51.4317L35.4781 39.1168V33.9063C55.7232 44.4005 45.4048 39.0523 48.7139 40.7672C49.4669 41.1578 49.9976 41.8907 50.1334 42.7276V42.7276ZM61.4171 18.5869L38.087 33.147C37.0958 32.6333 36.439 32.293 35.4781 31.7945V30.3003C37.4654 29.2701 60.7281 17.2114 61.9312 16.5874C62.3224 17.2866 62.0992 18.1612 61.4171 18.5869V18.5869Z" fill="white"/>
    </g>
    <defs>
        <clipPath id="clip0">
            <rect width="64" height="64" fill="white"/>
        </clipPath>
    </defs>
</svg>