<svg width="64" height="64" viewBox="0 0 64 64" fill="none" xmlns="http://www.w3.org/2000/svg">
<path d="M46.0741 17H21.3704C20.184 17 19.2222 17.9618 19.2222 19.1481V36.3333H16.537C16.2405 36.3333 16 36.5738 16 36.8704C16 38.0568 16.9618 39.0185 18.1481 39.0185H33.7222V45.463C33.7223 45.7595 33.9627 45.9999 34.2594 45.9999C34.4018 45.9999 34.5382 45.9433 34.6389 45.8426L37.4815 43.0001L40.324 45.8426C40.4247 45.9433 40.5613 46 40.7037 46C40.7743 46.0002 40.8442 45.9864 40.9094 45.9592C41.11 45.876 41.2408 45.6801 41.2407 45.463V39.0185H42.8519C44.0382 39.0185 45 38.0568 45 36.8704V19.6852H47.6852C47.9818 19.6852 48.2222 19.4447 48.2222 19.1481C48.2222 17.9618 47.2605 17 46.0741 17ZM43.9259 19.1481V36.3333H41.7778V37.4074H43.7815C43.5897 37.7396 43.2354 37.9442 42.8519 37.9444H41.2407V37.4074H40.1667V44.1666L37.8612 41.8611C37.6515 41.6514 37.3115 41.6514 37.1018 41.8611L34.7963 44.1666V37.4074H33.7222V37.9444H18.1481C17.7646 37.9442 17.4103 37.7396 17.2185 37.4074H19.7593H33.1852V36.3333H20.2963V19.1481C20.2963 18.5549 20.7771 18.0741 21.3704 18.0741H44.2245C44.0313 18.3992 43.9281 18.7699 43.9259 19.1481ZM45.1445 18.6111C45.4416 18.0977 46.0986 17.9224 46.6121 18.2195C46.7746 18.3136 46.9096 18.4487 47.0037 18.6111H45.1445Z" fill="white"/>
<path d="M42.5444 33.806L41.8565 32.5735L42.5471 31.3421C42.6927 31.0836 42.6012 30.7562 42.3428 30.6107C42.3297 30.6033 42.3164 30.5965 42.3028 30.5902L41.0209 30.0033L40.8554 28.6016C40.8205 28.3071 40.5533 28.0967 40.2588 28.1317C40.2451 28.1333 40.2315 28.1354 40.218 28.1381L38.8335 28.4126L37.876 27.3755C37.6616 27.1578 37.3114 27.1551 37.0937 27.3694C37.0916 27.3714 37.0896 27.3735 37.0876 27.3755L36.1301 28.4126L34.7456 28.1381C34.4546 28.0806 34.1721 28.2698 34.1145 28.5608C34.1119 28.5743 34.1097 28.5879 34.1081 28.6016L33.9427 30.0033L32.6608 30.5913C32.3911 30.7148 32.2726 31.0335 32.396 31.3032C32.4023 31.3168 32.4091 31.3301 32.4164 31.3432L33.1071 32.5735L32.4164 33.805C32.2709 34.0634 32.3624 34.3909 32.6208 34.5364C32.6338 34.5437 32.6472 34.5506 32.6608 34.5568L33.9427 35.1449L34.1081 36.5476C34.1431 36.8421 34.4103 37.0525 34.7048 37.0175C34.7184 37.0159 34.7321 37.0138 34.7456 37.0111L36.1301 36.7366L37.0876 37.7737C37.289 37.9914 37.6288 38.0045 37.8465 37.8031C37.8567 37.7937 37.8665 37.7839 37.876 37.7737L38.8335 36.7366L40.218 37.0111C40.3647 37.0411 40.5173 37.0075 40.6379 36.9187C40.758 36.8302 40.8358 36.6958 40.8528 36.5476L41.0182 35.1459L42.3001 34.5579C42.5697 34.4344 42.6883 34.1157 42.5648 33.846C42.5586 33.8324 42.5517 33.819 42.5444 33.806ZM40.7727 32.8356L41.3254 33.8216L40.2985 34.2926C40.1283 34.3707 40.0111 34.5319 39.9892 34.7179L39.8571 35.8419L38.747 35.6223C38.5641 35.5843 38.3747 35.6455 38.2487 35.7834L37.4818 36.6147L36.7149 35.7845C36.6133 35.6746 36.4704 35.6121 36.3207 35.6121C36.2857 35.6119 36.2508 35.6155 36.2165 35.6228L35.1065 35.8425L34.9743 34.7185C34.9525 34.5324 34.8353 34.3713 34.665 34.2931L33.6382 33.8221L34.1908 32.8361C34.2832 32.6723 34.2854 32.4734 34.1908 32.3109V32.3131L33.6382 31.3271L34.665 30.8561C34.8353 30.7779 34.9525 30.6168 34.9743 30.4307L35.1065 29.3067L36.2165 29.5264C36.3994 29.5639 36.5885 29.5027 36.7149 29.3653L37.4818 28.5323L38.2487 29.3626C38.3747 29.5005 38.5641 29.5618 38.747 29.5237L39.8571 29.304L39.9892 30.4281C40.0111 30.6141 40.1283 30.7753 40.2985 30.8534L41.3254 31.3244L40.7727 32.3104C40.6813 32.4735 40.6813 32.6725 40.7727 32.8356Z" fill="white"/>
<path d="M37.4816 29.8887C35.9986 29.8887 34.7964 31.0909 34.7964 32.5739C34.7981 34.0561 35.9993 35.2572 37.4816 35.259C38.9645 35.259 40.1668 34.0568 40.1668 32.5739C40.1668 31.0909 38.9645 29.8887 37.4816 29.8887ZM37.4816 34.185C36.5918 34.185 35.8705 33.4637 35.8705 32.5739C35.8705 31.6841 36.5918 30.9627 37.4816 30.9627C38.3714 30.9627 39.0927 31.6841 39.0927 32.5739C39.0927 33.4637 38.3714 34.185 37.4816 34.185Z" fill="white"/>
<path d="M36.4075 20.2222H27.8149V21.2962H36.4075V20.2222Z" fill="white"/>
<path d="M41.7777 23.4443H22.4443V24.5184H41.7777V23.4443Z" fill="white"/>
<path d="M41.7777 25.5928H22.4443V26.6668H41.7777V25.5928Z" fill="white"/>
<path d="M29.9629 32.5742H22.9814V33.6483H29.9629V32.5742Z" fill="white"/>
</svg>
