<svg width="64" height="64" viewBox="0 0 64 64" fill="none" xmlns="http://www.w3.org/2000/svg">
<g filter="url(#filter0_d)">
<path d="M46.3657 37.7167H17.6342C16.7331 37.7167 16 36.9839 16 36.0829V20.6338C16 19.7329 16.7331 19 17.6342 19H46.3657C47.2665 19 47.9997 19.7329 47.9997 20.6338V36.0829C47.9997 36.9839 47.2665 37.7167 46.3657 37.7167ZM17.6342 20.3198C17.4609 20.3198 17.3196 20.4606 17.3196 20.6338V36.0829C17.3196 36.2561 17.4609 36.397 17.6342 36.397H46.3657C46.539 36.397 46.68 36.2561 46.68 36.0829V20.6338C46.68 20.4606 46.539 20.3198 46.3657 20.3198H17.6342Z" fill="white"/>
<path d="M28.5837 33.3734C28.367 33.2548 28.2261 33.0339 28.2261 32.7871V23.9304C28.2261 23.6834 28.3641 23.4572 28.5837 23.3439C28.8031 23.2307 29.0672 23.2496 29.2685 23.3927L35.4959 27.821C35.6701 27.9448 35.7733 28.1452 35.7733 28.3588C35.7733 28.5724 35.6701 28.7727 35.4959 28.8965C35.4959 28.8965 30.8251 32.2176 29.2685 33.3247C29.1547 33.4056 28.9095 33.5517 28.5837 33.3734ZM29.546 25.2093V31.5081L33.9748 28.3588L29.546 25.2093Z" fill="white"/>
<path d="M47.34 41.4625H34.7275C34.4346 40.3406 33.4124 39.5103 32.2 39.5103C30.9878 39.5103 29.9659 40.3406 29.6729 41.4625H16.6598C16.2955 41.4625 16 41.758 16 42.1223C16 42.4868 16.2955 42.7822 16.6598 42.7822H29.673C29.9659 43.9041 30.9879 44.7346 32.2001 44.7346C33.4125 44.7346 34.4347 43.9041 34.7276 42.7822H47.34C47.704 42.7822 47.9997 42.4869 47.9997 42.1223C47.9997 41.758 47.704 41.4625 47.34 41.4625ZM32.2 43.4147C31.4877 43.4147 30.9078 42.835 30.9078 42.1223C30.9078 41.4097 31.4877 40.83 32.2 40.83C32.9127 40.83 33.4925 41.4097 33.4925 42.1223C33.4925 42.835 32.9127 43.4147 32.2 43.4147Z" fill="white"/>
</g>
<defs>
<filter id="filter0_d" x="-4" y="0" width="72" height="72" filterUnits="userSpaceOnUse" color-interpolation-filters="sRGB">
<feFlood flood-opacity="0" result="BackgroundImageFix"/>
<feColorMatrix in="SourceAlpha" type="matrix" values="0 0 0 0 0 0 0 0 0 0 0 0 0 0 0 0 0 0 127 0"/>
<feOffset dy="4"/>
<feGaussianBlur stdDeviation="2"/>
<feColorMatrix type="matrix" values="0 0 0 0 0 0 0 0 0 0 0 0 0 0 0 0 0 0 0.25 0"/>
<feBlend mode="normal" in2="BackgroundImageFix" result="effect1_dropShadow"/>
<feBlend mode="normal" in="SourceGraphic" in2="effect1_dropShadow" result="shape"/>
</filter>
</defs>
</svg>
