<?xml version="1.0" encoding="UTF-8" standalone="no"?>
<!-- Created with Inkscape (http://www.inkscape.org/) -->

<svg
   version="1.1"
   id="svg132"
   width="450"
   height="120"
   viewBox="0 0 450.00001 120"
   sodipodi:docname="Deem.svg"
   inkscape:version="1.2 (dc2aeda, 2022-05-15)"
   xmlns:inkscape="http://www.inkscape.org/namespaces/inkscape"
   xmlns:sodipodi="http://sodipodi.sourceforge.net/DTD/sodipodi-0.dtd"
   xmlns="http://www.w3.org/2000/svg"
   xmlns:svg="http://www.w3.org/2000/svg">
  <sodipodi:namedview
     id="namedview136"
     pagecolor="#ffffff"
     bordercolor="#ffffff"
     borderopacity="0.25"
     inkscape:showpageshadow="2"
     inkscape:pageopacity="0.0"
     inkscape:pagecheckerboard="0"
     inkscape:deskcolor="#d1d1d1"
     showgrid="false"
     inkscape:zoom="1.0146581"
     inkscape:cx="265.11393"
     inkscape:cy="173.95022"
     inkscape:window-width="1865"
     inkscape:window-height="1205"
     inkscape:window-x="244"
     inkscape:window-y="25"
     inkscape:window-maximized="0"
     inkscape:current-layer="svg132" />
  <defs
     id="defs136" />
  <g
     id="g138"
     transform="matrix(0.96666662,0,0,0.96666662,-4.311128,-12.902013)">
    <path
       style="fill:#ffffff;stroke-width:0.238644"
       d="m 152.72693,135.20706 c -0.40309,-0.10406 -1.61238,-0.36269 -2.6873,-0.57473 -1.07491,-0.21205 -2.22923,-0.4712 -2.56514,-0.5759 -0.33592,-0.1047 -1.10546,-0.32606 -1.7101,-0.49191 -1.5778,-0.43278 -4.36495,-1.48587 -6.54367,-2.47245 -10.14554,-4.59416 -18.39634,-12.99743 -22.62179,-23.03984 -0.37763,-0.89751 -0.77486,-1.84164 -0.88272,-2.09808 -0.10786,-0.25643 -0.3808,-1.09566 -0.60654,-1.86496 -0.22573,-0.76929 -0.49793,-1.66098 -0.60487,-1.98152 -0.52267,-1.56662 -1.29139,-5.792573 -1.70434,-9.369458 -0.76173,-6.598056 0.22333,-14.25265 2.79926,-21.752063 4.56136,-13.27969 16.21033,-24.271802 30.16467,-28.463725 2.62799,-0.789459 4.72451,-1.265135 7.81759,-1.773724 2.49053,-0.409513 12.43462,-0.402613 15.02443,0.01042 10.51734,1.677371 18.61498,5.527149 25.5443,12.14427 3.99317,3.81325 6.43989,7.039042 9.02986,11.905074 0.38629,0.725761 0.6214,1.236154 1.47656,3.205398 0.12528,0.288486 0.33278,0.760554 0.46111,1.04904 0.48219,1.083973 1.43836,4.083158 1.83944,5.76972 0.22868,0.961621 0.50553,2.115565 0.61521,2.564323 0.58422,2.390287 0.80759,4.876232 0.91548,10.188876 0.0656,3.231886 0.0492,6.142629 -0.0364,6.468321 l -0.15575,0.592166 -36.57126,0.05904 -36.57126,0.05904 0.0744,1.165603 c 0.14177,2.221475 1.47081,6.180849 2.72442,8.116409 0.39996,0.61754 0.72721,1.17277 0.72721,1.23383 0,0.0611 0.45949,0.70974 1.02109,1.44151 6.31706,8.23119 17.49351,12.43616 27.94238,10.5129 1.47033,-0.27063 2.97701,-0.54499 3.34815,-0.60968 0.37115,-0.0647 0.73493,-0.21042 0.8084,-0.32385 0.0735,-0.11343 0.28432,-0.20624 0.46856,-0.20624 0.54342,0 3.29885,-1.29024 5.01077,-2.34631 2.18613,-1.3486 5.31712,-4.31099 7.4989,-7.09505 1.00479,-1.28216 1.95477,-2.39821 2.11106,-2.48012 0.1563,-0.0819 1.21862,0.27542 2.36073,0.79405 3.34181,1.51753 6.75242,3.06297 9.89413,4.48332 5.15942,2.33253 5.98535,2.74068 5.98535,2.95777 0,0.6554 -2.88965,4.87982 -5.15272,7.53282 -4.33606,5.08316 -10.9546,9.80808 -16.95641,12.10502 -2.45312,0.93883 -2.5726,0.98161 -3.78664,1.35562 -2.19182,0.67525 -2.84275,0.84227 -4.76385,1.22236 -1.07491,0.21267 -2.292,0.48405 -2.70464,0.60307 -0.91347,0.26349 -18.00923,0.24519 -19.03803,-0.0204 z m 33.34554,-56.935908 c -0.001,-0.71839 -0.14997,-1.40984 -0.76443,-3.555081 -0.58803,-2.05294 -2.25728,-5.251488 -3.71063,-7.11016 -3.49964,-4.475639 -7.76232,-7.127783 -14.4568,-8.994694 -2.1503,-0.599659 -9.82964,-0.618213 -12.14754,-0.02934 -9.16296,2.327852 -16.86534,9.525193 -19.23888,17.977394 -0.28468,1.013753 -0.46093,1.984116 -0.39166,2.156361 0.1043,0.259358 4.47204,0.31317 25.41862,0.31317 h 25.29269 l -10e-4,-0.757638 z m 66.45088,56.931958 c -0.33591,-0.10512 -1.49023,-0.3633 -2.56515,-0.57373 -1.07491,-0.21042 -2.22923,-0.46825 -2.56514,-0.57295 -0.33592,-0.1047 -1.10546,-0.32606 -1.7101,-0.49191 -3.17581,-0.8711 -8.2424,-3.10307 -11.35994,-5.00435 -2.53378,-1.54527 -6.47651,-4.58383 -8.19848,-6.31834 -5.8889,-5.93181 -10.21896,-13.66045 -12.06404,-21.53288 -0.22537,-0.961618 -0.46633,-1.958206 -0.53545,-2.214637 -0.99294,-3.68362 -1.04799,-15.755117 -0.0914,-20.048321 1.29073,-5.792918 2.33777,-8.76073 4.68794,-13.287841 2.87312,-5.534449 7.26758,-10.834095 12.04836,-14.530094 0.94055,-0.727138 1.85537,-1.4532 2.03292,-1.613469 0.17755,-0.160269 0.40418,-0.291399 0.50361,-0.291399 0.0994,0 0.40424,-0.198657 0.67736,-0.441457 0.27311,-0.2428 0.81603,-0.612891 1.20648,-0.822426 0.39046,-0.209532 1.09469,-0.601478 1.56497,-0.87099 4.9635,-2.844546 10.20549,-4.605661 17.34528,-5.827368 2.48839,-0.425794 12.65819,-0.425794 15.14658,0 5.89698,1.009048 9.50296,2.119262 14.23659,4.383189 10.82553,5.177482 19.03786,14.589539 23.05646,26.424813 0.64522,1.900221 0.78342,2.442243 1.51554,5.944561 0.89194,4.266796 1.04863,6.152805 0.96833,11.656 l -0.0782,5.361763 -36.5114,0.05904 c -20.08126,0.03249 -36.60604,0.149366 -36.72172,0.25976 -0.11759,0.112205 -0.0476,1.011352 0.15867,2.039037 1.0505,5.233289 3.22347,9.129189 7.2124,12.931109 5.46773,5.21138 12.53348,7.89776 20.78876,7.90384 4.84245,0.004 10.80322,-1.81932 14.72936,-4.50445 2.48985,-1.70284 6.60711,-6.0012 8.1065,-8.46309 0.53284,-0.87487 0.66301,-0.85462 3.91495,0.60884 6.2219,2.80003 8.54451,3.85023 13.13111,5.93743 1.94543,0.88529 2.31615,1.36958 1.52687,1.99464 -0.20154,0.15962 -0.36645,0.38323 -0.36645,0.49692 0,0.11369 -0.58678,1.0712 -1.304,2.12782 -5.00843,7.37872 -12.54791,13.30069 -20.92727,16.43754 -0.33591,0.12575 -0.94055,0.35653 -1.34365,0.51285 -0.67729,0.26266 -1.83823,0.62829 -3.66449,1.15411 -0.4031,0.11605 -1.61238,0.38501 -2.6873,0.59769 -1.07492,0.21266 -2.29199,0.48405 -2.70464,0.60307 -0.91781,0.26474 -18.30701,0.24267 -19.16018,-0.0243 z m 33.27882,-57.689599 c -0.0694,-1.426296 -0.85077,-3.956647 -1.87583,-6.074886 -2.53698,-5.242508 -7.84014,-9.837573 -13.70199,-11.872449 -3.64461,-1.265181 -4.57832,-1.402766 -9.39481,-1.384331 -4.77669,0.01829 -5.87365,0.194555 -9.2818,1.491466 -4.35253,1.656291 -9.22368,5.357217 -12.06385,9.165691 -1.08395,1.453494 -3.08432,5.026301 -3.08432,5.50881 0,0.141914 -0.0964,0.440184 -0.21431,0.662822 -0.44712,0.844526 -0.76289,2.104924 -0.76289,3.045038 v 0.975296 l 25.22394,-0.05937 25.22395,-0.05937 z m 102.6868,56.121219 c -8.41177,-0.0465 -11.02562,-0.12832 -11.17297,-0.34968 -0.1058,-0.15894 -0.19404,-12.6302 -0.19609,-27.71392 -0.004,-23.625967 -0.0554,-27.678667 -0.37671,-29.256564 -1.37129,-6.733938 -3.63301,-10.636626 -7.81105,-13.4782 -2.19792,-1.494854 -3.59978,-2.026207 -6.84039,-2.592758 -2.84868,-0.498029 -7.31969,-0.185831 -8.97469,0.626682 -0.23334,0.114541 -0.56837,0.208259 -0.74453,0.208259 -0.53011,0 -3.42479,1.497057 -4.8849,2.526351 -0.75219,0.530244 -1.78661,1.447158 -2.29868,2.037589 -0.51211,0.590428 -1.17487,1.348852 -1.47281,1.685391 -0.48924,0.552586 -2.8331,4.841569 -3.27315,5.98947 -0.19464,0.507736 -0.85821,2.777722 -1.19253,4.079602 -0.66611,2.593773 -0.73681,5.478245 -0.73524,29.995138 0,13.99711 -0.0651,25.61523 -0.14668,25.81804 -0.13219,0.32876 -1.35103,0.36875 -11.2384,0.36875 h -11.09011 l 0.0617,-45.516687 0.0617,-45.516686 10.84321,-0.06073 c 7.80247,-0.0437 10.93674,0.01333 11.17671,0.203386 0.26409,0.209153 0.33533,1.410264 0.34229,5.772166 l 0.009,5.508059 0.49785,-0.582802 c 0.27394,-0.320541 0.99166,-1.207361 1.59496,-1.970716 4.4506,-5.631345 9.96066,-8.884287 17.8637,-10.546101 2.43846,-0.512746 10.99479,-0.578511 13.73906,-0.105599 6.41352,1.105222 12.13086,3.870592 16.21619,7.843455 1.87274,1.821217 3.90932,4.347865 5.05986,6.277554 0.57884,0.970799 1.17176,1.765087 1.31761,1.765087 0.14581,0 0.47297,-0.340938 0.72696,-0.757638 0.25399,-0.416703 0.52505,-0.810093 0.60233,-0.8742 0.0773,-0.06411 0.78355,-0.928614 1.56947,-1.921125 1.91829,-2.422622 5.12612,-5.244914 8.09879,-7.125426 2.41479,-1.527614 7.25149,-3.775052 8.12426,-3.775052 0.24787,0 0.5551,-0.08832 0.68273,-0.196266 0.2438,-0.206178 2.32076,-0.723061 4.99592,-1.243317 2.17048,-0.422102 11.80612,-0.421171 13.80294,0.0014 4.59484,0.972223 6.5264,1.577973 9.47045,2.969989 3.16693,1.497394 4.67095,2.525925 7.41016,5.067543 2.12706,1.97358 4.4956,4.704928 4.4956,5.184185 0,0.08263 0.22255,0.448454 0.49453,0.812933 1.54433,2.069574 3.64034,7.225361 4.49839,11.065285 0.22921,1.025727 0.51878,2.18712 0.64352,2.580873 0.13478,0.425526 0.22676,13.781656 0.22676,32.9282 v 32.2123 h -10.96733 c -9.77544,0 -10.98348,-0.0401 -11.11566,-0.36875 -0.0816,-0.20281 -0.15031,-12.76507 -0.15277,-27.91612 -0.005,-28.52365 -0.0128,-28.797281 -0.97853,-32.209781 -1.43765,-5.08084 -4.68586,-9.293694 -8.58826,-11.138659 -2.50296,-1.183359 -3.82393,-1.549516 -6.69444,-1.855605 -2.16107,-0.230446 -2.83526,-0.209762 -5.01179,0.153751 -2.64257,0.441349 -2.94691,0.529958 -5.10684,1.486871 -4.78689,2.120726 -8.44882,6.343972 -10.45106,12.053002 -0.70242,2.002831 -0.93449,2.931955 -1.50908,6.041719 -0.16684,0.903 -0.25487,10.41777 -0.25487,27.552682 0,14.39536 -0.0825,26.20578 -0.18322,26.24541 -0.10077,0.0396 -5.1245,0.0447 -11.16385,0.0113 z m -377.643652,-0.1962 c -0.09826,-0.0938 -0.178652,-14.70345 -0.178652,-32.46597 V 68.677072 l 5.673407,-5.431101 c 3.120374,-2.987107 5.844428,-5.431101 6.053453,-5.431101 0.209025,0 2.877897,2.391791 5.930827,5.315091 l 5.550783,5.315091 0.0037,21.318873 c 0.0019,11.725375 0.09862,21.461765 0.214583,21.636425 0.173944,0.26198 1.744422,0.29693 8.974273,0.19971 8.944526,-0.12028 10.550307,-0.26164 14.015872,-1.23383 0.739008,-0.20731 1.647315,-0.43148 2.018463,-0.49814 0.371147,-0.0667 0.734925,-0.21402 0.808395,-0.32745 0.07346,-0.11344 0.288985,-0.20625 0.478927,-0.20625 0.540565,0 2.930578,-1.05114 5.70559,-2.50935 4.02259,-2.1138 9.095036,-6.36375 11.872107,-9.94707 1.932926,-2.494097 4.058645,-6.062089 5.009164,-8.407819 0.10391,-0.256431 0.365962,-0.885855 0.582336,-1.39872 1.378367,-3.267089 2.130413,-7.661895 2.142048,-12.517664 0.01495,-6.244992 -0.969783,-10.500245 -3.685273,-15.924702 -0.992004,-1.981707 -3.19545,-5.558073 -3.661416,-5.942837 -0.07764,-0.06411 -0.468755,-0.536174 -0.869153,-1.04904 -1.169179,-1.497599 -4.259041,-4.498616 -6.109615,-5.933944 -5.216376,-4.045887 -11.169037,-6.607263 -18.16624,-7.816766 -1.714988,-0.296445 -5.227194,-0.353051 -21.905914,-0.353051 -10.924901,0 -20.03735,-0.06368 -20.249887,-0.141502 -0.344686,-0.126216 -0.38643,-1.309307 -0.38643,-10.952199 V 15.629028 l 0.549674,-0.130161 c 0.958957,-0.227076 40.99677,0.05761 43.057818,0.306157 1.767811,0.213187 3.883335,0.578144 6.962541,1.201133 4.971471,1.005835 11.587263,3.564399 17.399288,6.728926 4.48584,2.442448 10.516819,7.201705 14.330412,11.308629 2.166259,2.332886 5.403851,6.265994 5.403851,6.564734 0,0.08374 0.263844,0.486188 0.586316,0.894335 0.577645,0.731118 0.74221,0.996952 2.335414,3.772648 1.71628,2.99011 2.51328,4.644237 3.53821,7.343281 0.36516,0.96162 0.74982,1.958208 0.85479,2.214639 0.28707,0.701262 0.66837,1.93764 1.07841,3.4968 1.47317,5.601636 2.11251,10.180487 2.11206,15.126379 -3.7e-4,5.483479 -0.99413,12.025538 -2.55335,16.811063 -0.16711,0.512865 -0.43728,1.352097 -0.6004,1.864963 -0.16311,0.512861 -0.46793,1.352093 -0.67736,1.864959 -0.20943,0.512865 -0.46635,1.142289 -0.57093,1.39872 -1.01127,2.479658 -2.65919,5.663787 -4.2227,8.159197 -1.394247,2.22524 -3.783362,5.61026 -4.39987,6.23395 -0.159519,0.16138 -0.618006,0.71303 -1.018854,1.2259 -1.158952,1.4828 -6.148257,6.29272 -8.044033,7.75481 -0.952618,0.7347 -1.787002,1.3934 -1.854183,1.46379 -0.337713,0.35382 -4.510605,3.08293 -6.183323,4.04395 -2.761952,1.58681 -7.534429,3.81672 -9.451858,4.41632 -0.604642,0.18908 -1.429153,0.47168 -1.832248,0.628 -0.403094,0.15632 -0.952769,0.36816 -1.221497,0.47075 -0.268729,0.1026 -0.763435,0.23664 -1.099349,0.29787 -0.335913,0.0612 -1.380294,0.31635 -2.320845,0.56693 -1.731445,0.46128 -2.727341,0.67443 -6.473943,1.38566 -1.832853,0.34794 -4.614395,0.40426 -23.701643,0.47992 -11.893802,0.0471 -21.705487,0.009 -21.803746,-0.0848 z"
       id="path417" />
  </g>
</svg>
