<?xml version="1.0" encoding="iso-8859-1"?>
<!-- Generator: Adobe Illustrator 19.0.0, SVG Export Plug-In . SVG Version: 6.00 Build 0)  -->
<svg version="1.1" id="Capa_1" xmlns="http://www.w3.org/2000/svg" xmlns:xlink="http://www.w3.org/1999/xlink" x="0px" y="0px"
	 viewBox="-12 -15 84 84" style="enable-background:new 0 0 60 60;" xml:space="preserve">
<g>
	<path d="M59,6H1C0.447,6,0,6.447,0,7v38c0,0.553,0.447,1,1,1h26v3h-5v5h16v-5h-5v-3h26c0.553,0,1-0.447,1-1V7
		C60,6.447,59.553,6,59,6z M36,51v1H24v-1h5v-5h2v5H36z M58,44H33h-6H2V8h56V44z"/>
	<path d="M55,34H42.374l-0.085-0.075c-0.353-0.312-0.73-0.571-1.125-0.775l-4.621-2.989l-0.096-0.055
		c-0.35-0.175-0.738-0.256-1.08-0.328c-0.109-0.022-0.251-0.053-0.367-0.083v-1.302c0.045-0.03,0.092-0.063,0.14-0.096
		c0.677-0.466,0.994-0.699,1.185-0.968c0.693-0.981,1.387-2.037,1.83-3.171c0.961-0.44,1.846-1.29,1.846-2.369v-2.245
		c0-0.413-0.162-0.816-0.48-1.196c-0.237-0.284-0.52-0.744-0.52-1.32v-1.054C38.937,13.562,37.183,9,31,9s-7.937,4.562-8,7v1.027
		c0,0.576-0.282,1.036-0.519,1.319C22.162,18.728,22,19.131,22,19.544v2.245c0,0.964,0.793,1.647,1.353,2.04
		c0.666,2.016,2.682,3.515,3.647,4.138v1.327c-0.261,0.254-1.059,0.633-1.416,0.803c-0.22,0.105-0.414,0.198-0.58,0.289l-4.685,2.72
		c-0.396,0.216-0.777,0.496-1.132,0.83L19.119,34H14v7h41V34z M25.985,32.129c0.117-0.064,0.277-0.14,0.458-0.226
		C27.582,31.361,29,30.687,29,29.455V26.81l-0.521-0.284c-0.787-0.429-2.912-1.902-3.289-3.547l-0.091-0.396l-0.341-0.221
		c-0.618-0.399-0.734-0.604-0.758-0.573v-2.141c0.004-0.004,0.009-0.01,0.016-0.02C24.65,18.869,25,17.944,25,17.027v-1.001
		C25.005,15.821,25.199,11,31,11c5.656,0,5.982,4.516,6,5v1.027c0,0.905,0.34,1.816,1,2.627l0.001,2.121
		c-0.033,0.142-0.438,0.51-0.929,0.66l-0.497,0.153l-0.16,0.496c-0.339,1.053-1.028,2.106-1.673,3.026
		c-0.103,0.102-0.516,0.386-0.737,0.539c-0.424,0.292-0.617,0.428-0.756,0.585L33,27.519V30c0,1.325,1.321,1.602,1.956,1.735
		c0.203,0.042,0.431,0.09,0.56,0.143L38.796,34H22.761L25.985,32.129z M53,39H16v-3h4.069h21.379H53V39z"/>
	<path d="M55,10h-6v6h6V10z M53,14h-2v-2h2V14z"/>
	<path d="M12,34H5v7h7V34z M10,39H7v-3h3V39z"/>
</g>
<g>
</g>
<g>
</g>
<g>
</g>
<g>
</g>
<g>
</g>
<g>
</g>
<g>
</g>
<g>
</g>
<g>
</g>
<g>
</g>
<g>
</g>
<g>
</g>
<g>
</g>
<g>
</g>
<g>
</g>
</svg>
