<?xml version="1.0" encoding="iso-8859-1"?>
<!-- Generator: Adobe Illustrator 19.0.0, SVG Export Plug-In . SVG Version: 6.00 Build 0)  -->
<svg version="1.1" id="Capa_1" xmlns="http://www.w3.org/2000/svg" xmlns:xlink="http://www.w3.org/1999/xlink" x="0px" y="0px"
	 viewBox="-25 -22 110 110" style="enable-background:new 0 0 60.017 60.017;" xml:space="preserve">
<path d="M59.144,3.731l-2.85-2.851c-1.164-1.161-3.057-1.162-4.221,0.001l-3.126,3.126H0v56h56V11.097l0.305-0.305l0,0l2.839-2.839
	C60.308,6.789,60.308,4.895,59.144,3.731z M20.047,36.759l3.22,3.22l-4.428,1.208L20.047,36.759z M52.062,12.206L47.82,7.964
	l1.414-1.414l4.243,4.242L52.062,12.206z M50.648,13.62L25.192,39.076l-4.242-4.242L46.406,9.378L50.648,13.62z M54,13.097v44.91H2
	v-52h44.947L18.829,34.127l-0.188,0.188l-2.121,7.779l-1.226,1.226c-0.391,0.391-0.391,1.023,0,1.414
	c0.195,0.195,0.451,0.293,0.707,0.293s0.512-0.098,0.707-0.293l1.226-1.226l7.779-2.123l26.351-26.35h0l0.447-0.447L54,13.097z
	 M57.73,6.539l-2.839,2.839l-4.243-4.243l2.839-2.839c0.384-0.384,1.009-0.383,1.393,0l2.85,2.85
	C58.114,5.529,58.114,6.155,57.73,6.539z"/>
<g>
</g>
<g>
</g>
<g>
</g>
<g>
</g>
<g>
</g>
<g>
</g>
<g>
</g>
<g>
</g>
<g>
</g>
<g>
</g>
<g>
</g>
<g>
</g>
<g>
</g>
<g>
</g>
<g>
</g>
</svg>
