<?xml version="1.0" encoding="iso-8859-1"?>
<!-- Generator: Adobe Illustrator 19.0.0, SVG Export Plug-In . SVG Version: 6.00 Build 0)  -->
<svg version="1.1" id="Capa_1" xmlns="http://www.w3.org/2000/svg" xmlns:xlink="http://www.w3.org/1999/xlink" x="0px" y="0px"
	 viewBox="-14 -15 90 90" style="enable-background:new 0 0 60 60;" xml:space="preserve">
<path d="M48.937,21.001l8.994-8.095c0.257-0.229,0.405-0.561,0.405-0.906c0-0.345-0.148-0.676-0.402-0.902l-8.997-8.097H29.664V1
	c0-0.553-0.448-1-1-1s-1,0.447-1,1v2.001H10.061c-1.873,0-3.396,1.523-3.396,3.396v11.206c0,1.873,1.523,3.397,3.396,3.397h17.604
	V23H11.063l-8.998,8.098C1.81,31.328,1.664,31.656,1.664,32s0.146,0.672,0.402,0.903L11.063,41h16.601v18c0,0.553,0.448,1,1,1
	s1-0.447,1-1V41h20.604c1.873,0,3.396-1.523,3.396-3.396V26.396c0-1.873-1.523-3.396-3.396-3.396H29.664v-1.999H48.937z
	 M51.664,26.396v11.207c0,0.771-0.626,1.396-1.396,1.396H11.831l-7.778-7l7.778-7h38.437C51.038,25,51.664,25.626,51.664,26.396z
	 M8.664,17.604V6.397c0-0.771,0.626-1.396,1.396-1.396h38.108l7.778,7l-7.778,7H10.061C9.291,19.001,8.664,18.374,8.664,17.604z"/>
<g>
</g>
<g>
</g>
<g>
</g>
<g>
</g>
<g>
</g>
<g>
</g>
<g>
</g>
<g>
</g>
<g>
</g>
<g>
</g>
<g>
</g>
<g>
</g>
<g>
</g>
<g>
</g>
<g>
</g>
</svg>
