<?xml version="1.0" encoding="utf-8"?>
<!-- Generator: Adobe Illustrator 25.1.0, SVG Export Plug-In . SVG Version: 6.00 Build 0)  -->
<svg version="1.1" id="Layer_2" xmlns="http://www.w3.org/2000/svg" xmlns:xlink="http://www.w3.org/1999/xlink" x="0px" y="0px"
	 viewBox="0 0 265 105" style="enable-background:new 0 0 265 105;" xml:space="preserve">
<style type="text/css">
	.st0{fill:#2621F6;}
</style>
<g>
	<path class="st0" d="M152.4,34c-1.3,1.4-2,3.2-2,5.1V79h14V21.4L152.4,34z"/>
	<polygon class="st0" points="150.4,2.7 150.4,24 164.4,9.2 164.4,2.7 	"/>
	<path class="st0" d="M144.4,29.2L144.4,29.2c-0.3-12.1-5.3-17-17.1-17c-5.5,0-26.4,0.1-26.4,0.1v90.4h13.7v-24
		c2.2,0,8.2,0.1,12.6,0.1c11.8,0,16.7-4.9,17-17h0C144.4,61.6,144.4,29.5,144.4,29.2z M122.5,67.6c-5.3,0-7.8,0-7.8-4.6V28.1
		c0-4.6,2.5-4.6,7.8-4.6c5.1,0,7.8,0,7.8,4.6V63C130.4,67.6,127.6,67.5,122.5,67.6z"/>
	<path class="st0" d="M95,29.2L95,29.2c-0.3-12.1-5.3-17-17.1-17c-5.5,0-26.4,0.1-26.4,0.1v90.4h13.7v-24c2.2,0,8.2,0.1,12.6,0.1
		c11.8,0,16.7-4.9,17-17h0C95,61.6,95,29.5,95,29.2z M73.2,67.6c-5.3,0-7.8,0-7.8-4.6V28.1c0-4.6,2.5-4.6,7.8-4.6
		c5.1,0,7.8,0,7.8,4.6V63C81,67.6,78.2,67.5,73.2,67.6z"/>
	<path class="st0" d="M248.6,79V28.2c0-4.6-2.8-4.6-7.8-4.6c-5.3,0-7.8,0-7.8,4.6V79h-13.7V12.4H232c0,0,8-0.1,13.5-0.1
		c11.8,0,16.7,4.9,17,17h0c0,0.3,0,49.7,0,49.7H248.6z"/>
	<path class="st0" d="M213.1,29.3c-0.3-12.1-5.3-17-17-17c-0.6,0-13.1,0-17.5,0l0,11.3c12.9,0,12.1,0,12.7,0c5.1,0,7.8,0,7.8,4.6
		v6.6c-2.4,0-8.1-0.1-12.3-0.1c-11.8,0-16.7,4.9-17,17h0c0,0.3,0,10.1,0,10.4h0c0.3,12.1,5.3,17,17,17c5.5,0,26.4-0.1,26.4-0.1
		L213.1,29.3z M199.4,63.1c0,4.6-2.5,4.6-7.8,4.6c-5.1,0-7.8,0-7.8-4.6V50.5c0-4.6,2.8-4.6,7.8-4.6c5.3,0,7.8,0,7.8,4.6V63.1z"/>
	<path class="st0" d="M45.6,29.3c-0.3-12.1-5.3-17-17-17c-0.6,0-17.5,0-17.5,0l0,11.3c0,0,12.1,0,12.7,0c5.1,0,7.8,0,7.8,4.6v6.6
		c-2.4,0-8.1-0.1-12.3-0.1c-11.8,0-16.7,4.9-17,17h0c0,0.3,0,10.1,0,10.4h0C2.5,73.5,6.9,78.4,17.3,79l10.7-11.4
		c-1.1,0.1-2.4,0.1-4,0.1c-5.1,0-7.8,0-7.8-4.6V50.5c0-4.6,2.8-4.6,7.8-4.6c5.3,0,7.8,0,7.8,4.6v28.4c0.5,0,13.7,0,13.7,0L45.6,29.3
		z"/>
</g>
</svg>
