<svg width="30" height="29" viewBox="0 0 30 29" fill="none" xmlns="http://www.w3.org/2000/svg">
<path d="M24.5 16.9167C25.8347 16.9167 26.9167 15.8347 26.9167 14.5C26.9167 13.1654 25.8347 12.0834 24.5 12.0834C23.1654 12.0834 22.0834 13.1654 22.0834 14.5C22.0834 15.8347 23.1654 16.9167 24.5 16.9167Z" stroke="#00A270" stroke-width="1.5" stroke-linecap="round" stroke-linejoin="round"/>
<path d="M24.5 7.24996C25.8347 7.24996 26.9167 6.16798 26.9167 4.83329C26.9167 3.4986 25.8347 2.41663 24.5 2.41663C23.1654 2.41663 22.0834 3.4986 22.0834 4.83329C22.0834 6.16798 23.1654 7.24996 24.5 7.24996Z" stroke="#00A270" stroke-width="1.5" stroke-linecap="round" stroke-linejoin="round"/>
<path d="M24.5 26.5833C25.8347 26.5833 26.9167 25.5014 26.9167 24.1667C26.9167 22.832 25.8347 21.75 24.5 21.75C23.1654 21.75 22.0834 22.832 22.0834 24.1667C22.0834 25.5014 23.1654 26.5833 24.5 26.5833Z" stroke="#00A270" stroke-width="1.5" stroke-linecap="round" stroke-linejoin="round"/>
<path d="M5.16667 16.9167C6.50135 16.9167 7.58333 15.8347 7.58333 14.5C7.58333 13.1654 6.50135 12.0834 5.16667 12.0834C3.83198 12.0834 2.75 13.1654 2.75 14.5C2.75 15.8347 3.83198 16.9167 5.16667 16.9167Z" stroke="#00A270" stroke-width="1.5" stroke-linecap="round" stroke-linejoin="round"/>
<path d="M7.58337 14.5H22.0834" stroke="#00A270" stroke-width="1.5" stroke-linecap="round" stroke-linejoin="round"/>
<path d="M13.625 14.5V20.5417C13.625 22.9583 14.8333 24.1667 17.25 24.1667H22.0833" stroke="#00A270" stroke-width="1.5" stroke-linecap="round" stroke-linejoin="round"/>
<path d="M22.0833 4.83337H17.25C14.8333 4.83337 13.625 6.04171 13.625 8.45837V9.64252" stroke="#00A270" stroke-width="1.5" stroke-linecap="round" stroke-linejoin="round"/>
</svg>
