<svg width="30" height="29" viewBox="0 0 30 29" fill="none" xmlns="http://www.w3.org/2000/svg">
<g clip-path="url(#clip0_4245_252)">
<path d="M18.1559 27.6191H5.72724C3.82434 27.6191 2.27491 26.0697 2.27491 24.1668V8.97611C2.27491 7.07321 3.82456 5.52378 5.72724 5.52378H18.1559C19.8216 5.52378 21.2171 6.70977 21.538 8.28179C21.9856 8.15644 22.4363 8.05655 22.8895 8.00118C22.4363 5.80306 20.4876 4.14289 18.1559 4.14289H10.8289C11.1491 2.56843 12.5438 1.38111 14.2106 1.38111H20.9166C22.8195 1.38111 24.3689 2.93076 24.3689 4.83344V7.95268C24.8342 7.97372 25.2956 8.03285 25.7498 8.12521V4.83344C25.7498 2.16801 23.5827 0 20.9166 0H14.2106C11.7832 0 9.78642 1.80789 9.448 4.14289H5.72724C3.06247 4.14289 0.893799 6.3109 0.893799 8.97633V24.1668C0.893799 26.8315 3.06247 29 5.72724 29H18.1559C20.2517 29 22.0208 27.6514 22.6899 25.7864C22.2328 25.7202 21.7863 25.6163 21.344 25.4814C20.826 26.7343 19.5935 27.6191 18.1559 27.6191Z" fill="#00A270"/>
<path d="M14.2288 9.14886H5.03674V10.1845H14.2288V9.14886Z" fill="#00A270"/>
<path d="M12.1142 13.7515H5.03674V14.7871H12.1142V13.7515Z" fill="#00A270"/>
<path d="M12.1142 18.3555H5.03674V19.3914H12.1142V18.3555Z" fill="#00A270"/>
<path d="M14.2288 22.9584H5.03674V23.9942H14.2288V22.9584Z" fill="#00A270"/>
<path d="M18.9366 13.3732V14.7699H20.4619V13.3732C20.4619 11.9436 21.6245 10.7827 23.0541 10.7827C24.4806 10.7827 25.6431 11.9436 25.6431 13.3732V14.7699H27.1684V13.3732C27.1684 11.1029 25.3222 9.25671 23.0541 9.25671C20.7829 9.25671 18.9366 11.1029 18.9366 13.3732Z" fill="#00A270"/>
<path d="M28.0113 15.1526H18.0926C17.6744 15.1526 17.3307 15.4952 17.3307 15.9133V23.5409C17.3307 23.9615 17.6746 24.3041 18.0926 24.3041H28.0113C28.4294 24.3041 28.7731 23.9615 28.7731 23.5409V15.9133C28.7731 15.4938 28.4292 15.1526 28.0113 15.1526Z" fill="#00A270"/>
</g>
<defs>
<clipPath id="clip0_4245_252">
<rect width="29" height="29" fill="white" transform="translate(0.333496)"/>
</clipPath>
</defs>
</svg>
