<svg width="29" height="29" viewBox="0 0 29 29" fill="none" xmlns="http://www.w3.org/2000/svg">
<path fill-rule="evenodd" clip-rule="evenodd" d="M1.66675 6.04169C1.66675 3.62544 3.6255 1.66669 6.04175 1.66669C8.20228 1.66669 9.99702 3.23278 10.3527 5.29169H14.5001C14.9143 5.29169 15.2501 5.62747 15.2501 6.04169C15.2501 6.4559 14.9143 6.79169 14.5001 6.79169H10.3527C9.99702 8.85059 8.20228 10.4167 6.04175 10.4167C3.6255 10.4167 1.66675 8.45793 1.66675 6.04169ZM6.04175 3.16669C4.45393 3.16669 3.16675 4.45387 3.16675 6.04169C3.16675 7.62951 4.45393 8.91669 6.04175 8.91669C7.62957 8.91669 8.91675 7.62951 8.91675 6.04169C8.91675 4.45387 7.62957 3.16669 6.04175 3.16669ZM6.79175 14.5C6.79175 14.0858 6.45596 13.75 6.04175 13.75C5.62753 13.75 5.29175 14.0858 5.29175 14.5V18.6474C3.23284 19.0031 1.66675 20.7978 1.66675 22.9584C1.66675 25.3746 3.6255 27.3334 6.04175 27.3334C8.45799 27.3334 10.4167 25.3746 10.4167 22.9584C10.4167 20.7978 8.85065 19.0031 6.79175 18.6474V14.5ZM23.7084 10.3526C25.7673 9.99696 27.3334 8.20222 27.3334 6.04169C27.3334 3.62544 25.3747 1.66669 22.9584 1.66669C20.5422 1.66669 18.5834 3.62544 18.5834 6.04169C18.5834 8.20222 20.1495 9.99696 22.2084 10.3526V14.5C22.2084 14.9142 22.5442 15.25 22.9584 15.25C23.3726 15.25 23.7084 14.9142 23.7084 14.5V10.3526ZM22.9584 8.91669C21.3706 8.91669 20.0834 7.62951 20.0834 6.04169C20.0834 4.45387 21.3706 3.16669 22.9584 3.16669C24.5462 3.16669 25.8334 4.45387 25.8334 6.04169C25.8334 7.62951 24.5462 8.91669 22.9584 8.91669ZM14.5001 22.2084C14.0859 22.2084 13.7501 22.5441 13.7501 22.9584C13.7501 23.3726 14.0859 23.7084 14.5001 23.7084H18.6475C19.0031 25.7673 20.7979 27.3334 22.9584 27.3334C25.3747 27.3334 27.3334 25.3746 27.3334 22.9584C27.3334 20.5421 25.3747 18.5834 22.9584 18.5834C20.7979 18.5834 19.0031 20.1494 18.6475 22.2084H14.5001ZM20.0834 22.9584C20.0834 24.5462 21.3706 25.8334 22.9584 25.8334C24.5462 25.8334 25.8334 24.5462 25.8334 22.9584C25.8334 21.3705 24.5462 20.0834 22.9584 20.0834C21.3706 20.0834 20.0834 21.3705 20.0834 22.9584ZM6.04175 20.0834C4.45393 20.0834 3.16675 21.3705 3.16675 22.9584C3.16675 24.5462 4.45393 25.8334 6.04175 25.8334C7.62957 25.8334 8.91675 24.5462 8.91675 22.9584C8.91675 21.3705 7.62957 20.0834 6.04175 20.0834Z" fill="#00A270"/>
<path d="M18.3891 18.3892L18.7427 18.7427L18.7427 18.7427L18.3891 18.3892ZM16.2979 18.5622L16.5886 18.1554L16.5886 18.1554L16.2979 18.5622ZM18.5622 16.298L18.969 16.0074L18.969 16.0074L18.5622 16.298ZM18.1649 14.6146L17.6651 14.5993L17.6651 14.5993L18.1649 14.6146ZM18.1649 14.3855L18.6647 14.3702L18.6647 14.3702L18.1649 14.3855ZM18.5622 12.7022L18.969 12.9928L18.969 12.9928L18.5622 12.7022ZM18.3891 10.611L18.7427 10.2574L18.7427 10.2574L18.3891 10.611ZM16.2979 10.4379L16.0073 10.0311L16.0073 10.0311L16.2979 10.4379ZM14.6146 10.8352L14.63 10.3354L14.63 10.3354L14.6146 10.8352ZM14.3854 10.8352L14.3701 10.3354L14.3701 10.3354L14.3854 10.8352ZM12.7021 10.4379L12.4115 10.8448L12.4115 10.8448L12.7021 10.4379ZM10.6109 10.611L10.9645 10.9645L10.9645 10.9645L10.6109 10.611ZM10.4379 12.7021L10.031 12.9928L10.031 12.9928L10.4379 12.7021ZM10.8351 14.3855L10.3353 14.3701L10.3353 14.3701L10.8351 14.3855ZM10.8351 14.6147L11.3349 14.5993L11.3349 14.5993L10.8351 14.6147ZM10.4379 16.298L10.8447 16.5886L10.8447 16.5886L10.4379 16.298ZM10.6109 18.3892L10.9645 18.0356L10.9645 18.0356L10.6109 18.3892ZM12.7021 18.5622L12.9927 18.9691L12.9927 18.9691L12.7021 18.5622ZM14.3855 18.165L14.4008 17.6652L14.4008 17.6652L14.3855 18.165ZM14.6146 18.165L14.5992 17.6652L14.5992 17.6652L14.6146 18.165ZM18.0355 18.0356C17.6473 18.4238 17.0353 18.4745 16.5886 18.1554L16.0073 18.9691C16.8519 19.5723 18.0088 19.4766 18.7427 18.7427L18.0355 18.0356ZM18.1553 16.5886C18.4744 17.0354 18.4238 17.6474 18.0355 18.0356L18.7427 18.7427C19.4765 18.0088 19.5723 16.8519 18.969 16.0074L18.1553 16.5886ZM17.6651 14.5993C17.646 15.2248 17.7155 15.9729 18.1553 16.5886L18.969 16.0074C18.722 15.6616 18.6476 15.1855 18.6647 14.63L17.6651 14.5993ZM17.6667 14.5001C17.6667 14.5333 17.6662 14.5664 17.6651 14.5993L18.6647 14.63C18.666 14.5868 18.6667 14.5435 18.6667 14.5001H17.6667ZM17.6652 14.4009C17.6662 14.4338 17.6667 14.4669 17.6667 14.5001H18.6667C18.6667 14.4566 18.666 14.4133 18.6647 14.3702L17.6652 14.4009ZM18.1553 12.4115C17.7155 13.0273 17.646 13.7754 17.6652 14.4009L18.6647 14.3702C18.6476 13.8146 18.7221 13.3386 18.969 12.9928L18.1553 12.4115ZM18.0355 10.9646C18.4238 11.3528 18.4744 11.9648 18.1553 12.4115L18.969 12.9928C19.5723 12.1482 19.4765 10.9913 18.7427 10.2574L18.0355 10.9646ZM16.5886 10.8448C17.0353 10.5257 17.6473 10.5763 18.0355 10.9646L18.7427 10.2574C18.0088 9.52356 16.8519 9.42782 16.0073 10.0311L16.5886 10.8448ZM14.5993 11.3349C15.2248 11.3541 15.9729 11.2846 16.5886 10.8448L16.0073 10.0311C15.6616 10.278 15.1855 10.3525 14.63 10.3354L14.5993 11.3349ZM14.5 11.3334C14.5332 11.3334 14.5663 11.3339 14.5993 11.3349L14.63 10.3354C14.5868 10.3341 14.5435 10.3334 14.5 10.3334V11.3334ZM14.4008 11.3349C14.4337 11.3339 14.4668 11.3334 14.5 11.3334V10.3334C14.4565 10.3334 14.4132 10.3341 14.3701 10.3354L14.4008 11.3349ZM12.4115 10.8448C13.0272 11.2846 13.7753 11.3541 14.4008 11.3349L14.3701 10.3354C13.8145 10.3524 13.3385 10.278 12.9927 10.031L12.4115 10.8448ZM10.9645 10.9645C11.3527 10.5763 11.9647 10.5257 12.4115 10.8448L12.9927 10.031C12.1481 9.4278 10.9913 9.52355 10.2574 10.2574L10.9645 10.9645ZM10.8447 12.4115C10.5256 11.9648 10.5763 11.3528 10.9645 10.9645L10.2574 10.2574C9.52349 10.9913 9.42774 12.1482 10.031 12.9928L10.8447 12.4115ZM11.3349 14.4008C11.3541 13.7754 11.2845 13.0272 10.8447 12.4115L10.031 12.9928C10.278 13.3385 10.3524 13.8146 10.3353 14.3701L11.3349 14.4008ZM11.3333 14.5001C11.3333 14.4668 11.3338 14.4338 11.3349 14.4008L10.3353 14.3701C10.334 14.4133 10.3333 14.4566 10.3333 14.5001H11.3333ZM11.3349 14.5993C11.3338 14.5664 11.3333 14.5333 11.3333 14.5001H10.3333C10.3333 14.5435 10.334 14.5868 10.3353 14.63L11.3349 14.5993ZM10.8447 16.5886C11.2845 15.9729 11.3541 15.2248 11.3349 14.5993L10.3353 14.63C10.3524 15.1856 10.278 15.6616 10.031 16.0074L10.8447 16.5886ZM10.9645 18.0356C10.5763 17.6474 10.5256 17.0354 10.8447 16.5886L10.031 16.0074C9.42774 16.852 9.52349 18.0088 10.2574 18.7427L10.9645 18.0356ZM12.4115 18.1554C11.9647 18.4745 11.3527 18.4238 10.9645 18.0356L10.2574 18.7427C10.9913 19.4766 12.1482 19.5724 12.9927 18.9691L12.4115 18.1554ZM14.4008 17.6652C13.7753 17.646 13.0272 17.7156 12.4115 18.1554L12.9927 18.9691C13.3385 18.7221 13.8146 18.6477 14.3702 18.6647L14.4008 17.6652ZM14.5 17.6667C14.4668 17.6667 14.4337 17.6662 14.4008 17.6652L14.3702 18.6647C14.4133 18.6661 14.4566 18.6667 14.5 18.6667V17.6667ZM14.5992 17.6652C14.5663 17.6662 14.5332 17.6667 14.5 17.6667V18.6667C14.5434 18.6667 14.5867 18.6661 14.6299 18.6647L14.5992 17.6652ZM16.5886 18.1554C15.9728 17.7156 15.2247 17.646 14.5992 17.6652L14.6299 18.6647C15.1855 18.6477 15.6615 18.7221 16.0073 18.9691L16.5886 18.1554ZM15.375 14.5C15.375 14.9833 14.9833 15.375 14.5 15.375V16.375C15.5356 16.375 16.375 15.5356 16.375 14.5H15.375ZM14.5 13.625C14.9833 13.625 15.375 14.0168 15.375 14.5H16.375C16.375 13.4645 15.5356 12.625 14.5 12.625V13.625ZM13.625 14.5C13.625 14.0168 14.0168 13.625 14.5 13.625V12.625C13.4645 12.625 12.625 13.4645 12.625 14.5H13.625ZM14.5 15.375C14.0168 15.375 13.625 14.9833 13.625 14.5H12.625C12.625 15.5356 13.4645 16.375 14.5 16.375V15.375Z" fill="#00A270"/>
</svg>
