<svg xmlns="http://www.w3.org/2000/svg"  viewBox="0 0 48 48" width="96px" height="96px"><path fill="#4CAF50" d="M42,21l-0.5,7l-5.7,4.4L36,25L42,21z M27.3,31.5v7.3l6.3-4.9L34,27L27.3,31.5z M13.7,11l1.8,12l9.5-5V7L13.7,11z M17.3,35l7.7-5v-9l-9,5L17.3,35z M17.9,38l1.1,7l6.1-4.5V33L17.9,38z"/><path fill="#1B5E20" d="M42,21l-6,4l-6.3-3.7L36,18L42,21z M13.7,11L25,7l-8-4L6,7L13.7,11z M15.5,23l-4.3-3L9,21l7,5l9-5l-2.7-1.6L15.5,23z M17.3,35l-3.9-3.1l-2,1.1l6.4,5l7.1-5l-2.3-1.5L17.3,35z M27.5,23L25,24.4V30l0,0l2.3,1.5L34,27L27.5,23z"/><path fill="#388E3C" d="M13.7,11l1.8,12l-7.2-5L6,7L13.7,11z M9,21l2,9l6.3,5L16,26L9,21z M11.5,33l1.5,7l5.9,5l-1.1-7L11.5,33z M25,30l-2.3,1.5L25,33v4l2.3,1.8v-7.3L25,30z M29.7,21.3l0.2,3.1L34,27l-0.2,3.9l2,1.5L36,25L29.7,21.3z"/></svg>