<svg width="29" height="29" viewBox="0 0 29 29" fill="none" xmlns="http://www.w3.org/2000/svg">
<path d="M7.25006 22.8546C4.8863 22.3748 3.10718 20.285 3.10718 17.7796C3.10718 15.2742 4.8863 13.1844 7.25006 12.7046C7.25004 12.6989 7.25004 12.6932 7.25004 12.6875C7.25004 9.01707 10.2255 6.04163 13.8959 6.04163C17.5663 6.04163 20.5417 9.01707 20.5417 12.6875C20.5417 12.8911 20.5325 13.0926 20.5146 13.2916H20.5417C23.2111 13.2916 25.375 15.4556 25.375 18.125C25.375 20.3771 23.8347 22.2695 21.7501 22.806" stroke="#00A270" stroke-width="2" stroke-linecap="round" stroke-linejoin="round"/>
<path d="M10.875 19.8512C10.875 19.2792 11.3387 18.8155 11.9107 18.8155H17.0893C17.6613 18.8155 18.125 19.2792 18.125 19.8512V23.131C18.125 23.703 17.6613 24.1667 17.0893 24.1667H11.9107C11.3387 24.1667 10.875 23.703 10.875 23.131V19.8512Z" stroke="#00A270" stroke-width="2" stroke-linecap="round" stroke-linejoin="round"/>
<path d="M12.9464 17.2619C12.9464 16.4039 13.642 15.7084 14.5 15.7084C15.358 15.7084 16.0536 16.4039 16.0536 17.2619V18.8155H12.9464V17.2619Z" stroke="#00A270" stroke-width="2" stroke-linecap="round" stroke-linejoin="round"/>
</svg>
