<svg fill="none" height="120" viewBox="0 0 400 120" width="400" xmlns="http://www.w3.org/2000/svg" xmlns:xlink="http://www.w3.org/1999/xlink"><clipPath id="a"><path d="m0 0h400v120h-400z"/></clipPath><g clip-path="url(#a)" fill="#146ff4"><path d="m187.137 59.1669c-6.785 0-11.356 3.2853-13.141 6.9991h-.214c-1.857-3.8567-5.928-6.9991-11.999-6.9991-4.928 0-8.785 1.8569-11.499 6.1421h-.214l-.643-5.2851h-9.427v39.9951h11.856v-19.9261c0-6.1421 2.214-10.4273 7.213-10.4273 3.714 0 5.856 1.9997 5.856 8.2847v22.0687h11.785v-19.9261c0-6.2136 2.214-10.4273 7.213-10.4273 3.714 0 5.857 1.9997 5.857 8.2847v22.0687h11.855v-26.5682c0-4.2137-2.214-14.2839-14.498-14.2839z"/><path d="m226.053 59.1669c-10.999 0-19.426 8.1418-19.426 21.0688 0 13.1412 8.499 20.6403 20.212 20.6403 7.284 0 12.712-2.4283 15.141-4.3566l-3.786-9.8559h-.571c-2.428 1.8569-5.856 3.8566-10.999 3.8566-4.999 0-8.213-2.6425-8.427-6.4992h26.496s.072-2.3568.072-3.5709c0-12.7128-7.428-21.2831-18.712-21.2831zm.214 10.0701c4.5 0 7.285 3.0711 7.642 6.2136h-15.284c.5-3.2139 3.214-6.2136 7.642-6.2136z"/><path d="m272.903 59.1669c-5.428 0-9.856 2.5711-12.141 6.1421h-.214l-.643-5.2851h-9.428v39.9951h11.856v-19.9261c0-6.9992 4.214-10.4273 8.356-10.4273 3.571 0 6.285 2.3568 6.285 7.0705v23.2829h11.856v-26.7824c0-7.642-5.142-14.0697-15.927-14.0697z"/><path d="m334.09 100.019v-52.9935h-11.427v17.1407h-.143c-2.214-3.1424-6.142-4.9993-10.856-4.9993-10.713 0-17.855 9.4274-17.855 21.4259 0 11.6414 6.785 20.2832 17.569 20.2832 6.357 0 9.856-2.4997 12.142-6.1421h.214l1 5.2851zm-19.641-30.3534c5.143 0 8.642 4.2852 8.642 10.3558 0 6.4992-3.571 9.9274-8.784 9.9274-5.214 0-8.714-3.7853-8.714-9.8559 0-6.0707 3.714-10.4273 8.856-10.4273z"/><path d="m347.913 40.5262c-4.785 0-7.427 2.9282-7.427 7.2848 0 4.2852 2.642 7.4277 7.427 7.4277 4.786 0 7.428-3.1425 7.428-7.4277 0-4.3566-2.642-7.2848-7.428-7.2848zm5.785 59.4928v-39.9952h-11.784v39.9952z"/><path d="m386.294 79.8072 11.784-19.7833h-13.784l-5.856 12.2128-5.857-12.2128h-13.784l11.784 19.7833-12.927 20.2118h13.927l6.857-12.6413 6.856 12.6413h13.927z"/><path clip-rule="evenodd" d="m100.834 5.78986h-80.6683c-7.9129 0-14.32759 6.36164-14.32759 14.20924v80.0019c0 7.847 6.41469 14.209 14.32759 14.209h80.6683c7.913 0 14.328-6.362 14.328-14.209v-80.0019c0-7.8476-6.415-14.20924-14.328-14.20924zm-80.6683-5.78986c-11.13719 0-20.1657 8.95389-20.1657 19.9991v80.0019c0 11.045 9.02851 19.999 20.1657 19.999h80.6683c11.137 0 20.166-8.954 20.166-19.999v-80.0019c0-11.04521-9.029-19.9991-20.166-19.9991z" fill-rule="evenodd"/><path d="m43.4594 79.9998c-3.3528 0-5.6115 1.6084-6.4938 3.4266h-.1059c-.9176-1.8881-2.9292-3.4266-5.9291-3.4266-2.4351 0-4.3409.9091-5.682 3.007h-.1059l-.3176-2.5874h-4.6586v19.5804h5.8585v-9.7552c0-3.007 1.0941-5.1049 3.5645-5.1049 1.8352 0 2.894.979 2.894 4.0559v10.8042h5.8232v-9.7552c0-3.042 1.0941-5.1049 3.5645-5.1049 1.8352 0 2.894.979 2.894 4.0559v10.8042h5.8585v-13.007c0-2.0629-1.0941-6.993-7.1643-6.993z"/><path d="m63.8898 90.1047 5.8231-9.6853h-6.8113l-2.894 5.979-2.8939-5.979h-6.8115l5.8233 9.6853-6.388 9.8951h6.882l3.3881-6.1888 3.388 6.1888h6.8821z"/></g></svg>