<svg width="30" height="29" viewBox="0 0 30 29" fill="none" xmlns="http://www.w3.org/2000/svg">
<path d="M10.3333 2.41663V6.04163" stroke="#00A270" stroke-width="1.5" stroke-miterlimit="10" stroke-linecap="round" stroke-linejoin="round"/>
<path d="M20 2.41663V6.04163" stroke="#00A270" stroke-width="1.5" stroke-miterlimit="10" stroke-linecap="round" stroke-linejoin="round"/>
<path d="M4.29163 10.2708C4.29163 6.64579 6.10413 4.22913 10.3333 4.22913H20C24.2291 4.22913 26.0416 6.64579 26.0416 10.2708V16.4695C24.9662 15.6116 23.6008 15.1041 22.1145 15.1041C20.6283 15.1041 19.2387 15.6237 18.1512 16.5058C16.6891 17.6537 15.7708 19.4541 15.7708 21.4479C15.7708 22.632 16.1091 23.7679 16.6891 24.7104C17.1362 25.4475 17.7162 26.0879 18.405 26.5833H10.3333C6.10413 26.5833 4.29163 24.1666 4.29163 20.5416V15.1887" stroke="#00A270" stroke-width="1.5" stroke-miterlimit="10" stroke-linecap="round" stroke-linejoin="round"/>
<path d="M9.125 13.2916H16.375" stroke="#00A270" stroke-width="1.5" stroke-miterlimit="10" stroke-linecap="round" stroke-linejoin="round"/>
<path d="M9.125 19.3334H12.2908" stroke="#00A270" stroke-width="1.5" stroke-miterlimit="10" stroke-linecap="round" stroke-linejoin="round"/>
<path d="M28.4583 21.4479C28.4583 22.632 28.1199 23.7679 27.5399 24.7104C27.2016 25.2904 26.7787 25.7979 26.2833 26.2087C25.1716 27.1995 23.7216 27.7916 22.1145 27.7916C20.7249 27.7916 19.4441 27.3445 18.4049 26.5833C17.7162 26.0879 17.1362 25.4475 16.6891 24.7104C16.1091 23.7679 15.7708 22.632 15.7708 21.4479C15.7708 19.4541 16.6891 17.6537 18.1512 16.5058C19.2387 15.6237 20.6283 15.1041 22.1145 15.1041C23.6008 15.1041 24.9662 15.6116 26.0416 16.4695C27.5158 17.6295 28.4583 19.43 28.4583 21.4479Z" stroke="#00A270" stroke-width="1.5" stroke-miterlimit="10" stroke-linecap="round" stroke-linejoin="round"/>
<path d="M22.1146 24.4688C22.1146 22.8013 23.4679 21.448 25.1354 21.448C23.4679 21.448 22.1146 20.0946 22.1146 18.4271C22.1146 20.0946 20.7612 21.448 19.0938 21.448C20.7612 21.448 22.1146 22.8013 22.1146 24.4688Z" stroke="#00A270" stroke-width="1.5" stroke-linecap="round" stroke-linejoin="round"/>
</svg>
