<?xml version="1.0" encoding="utf-8"?>
<!-- Generator: Adobe Illustrator 19.2.1, SVG Export Plug-In . SVG Version: 6.00 Build 0)  -->
<svg version="1.1" id="layer" xmlns="http://www.w3.org/2000/svg" xmlns:xlink="http://www.w3.org/1999/xlink" x="0px" y="0px"
	 viewBox="0 0 652 652" style="enable-background:new 0 0 652 652;" xml:space="preserve">
<style type="text/css">
	.st0{fill:#FF2400;}
	.st1{fill:#333333;}
</style>
<g transform="translate(-145 -20)">
	<g>
		<path id="a" class="st0" d="M201.1,341.8c-0.5-12,8.8-22.1,20.8-22.7c11.9-0.5,22,8.6,22.6,20.5c1.2,12-7.5,22.7-19.5,23.9
			c-12,1.2-22.7-7.5-23.9-19.5L201.1,341.8L201.1,341.8z M222.8,400.1c32.4,1,59.4-24.4,60.4-56.8c1-32.4-24.4-59.4-56.8-60.4
			c-1.2,0-2.4,0-3.6,0c-32.4,1-57.8,28.1-56.8,60.4C167,374.3,191.8,399.1,222.8,400.1z"/>
	</g>
	<g>
		<path id="b" class="st1" d="M351.1,341.2c0,17.8-12.4,25.6-24,25.6c-13,0-23.1-9.5-23.1-24.8c0-16.2,10.6-25.6,23.9-25.6
			C341.7,316.4,351.1,326.5,351.1,341.2L351.1,341.2z M327.5,360.2c8.4,0,14.6-7.9,14.6-18.7c0-8.2-4.1-18.6-14.4-18.6
			c-10.4,0-14.8,9.6-14.8,18.7C312.9,352.2,318.9,360.2,327.5,360.2z"/>
	</g>
	<g>
		<path id="c" class="st1" d="M406.1,351.5c0,5,0.1,9.4,0.4,13.1h-7.8l-0.4-7.8h-0.2c-3.3,5.6-9.4,9-15.9,8.9
			c-7.6,0-16.7-4.2-16.7-21.1v-28.2h8.8v26.7c0,9.2,2.8,15.4,10.7,15.4c5.9,0,10-4.1,11.6-8c0.6-1.5,0.8-3,0.8-4.5v-29.6h8.8
			L406.1,351.5z"/>
	</g>
	<g>
		<path id="d" class="st1" d="M451.5,356.7c2.6,1.7,7.2,3.5,11.6,3.5c6.4,0,9.4-3.2,9.4-7.2c0-4.2-2.5-6.4-9-8.8
			c-8.7-3.1-12.7-7.9-12.7-13.6c0-7.8,6.3-14.1,16.7-14.1c4.9,0,9.2,1.4,11.9,3l-2.2,6.3c-3-1.8-6.4-2.8-9.9-2.8c-5.2,0-8,3-8,6.6
			c0,4,2.9,5.8,9.2,8.2c8.3,3.2,12.6,7.4,12.6,14.5c0,8.5-6.6,14.5-18.1,14.5c-4.7,0-9.4-1.1-13.5-3.4L451.5,356.7z"/>
	</g>
	<g>
		<path id="e" class="st1" d="M535.3,356.8c2.6,1.7,7.2,3.5,11.6,3.5c6.4,0,9.4-3.2,9.4-7.2c0-4.2-2.5-6.5-9-8.9
			c-8.7-3.1-12.7-7.9-12.7-13.6c0-7.8,6.3-14.1,16.7-14.1c4.9,0,9.2,1.4,11.9,3l-2.2,6.4c-3-1.8-6.4-2.8-9.9-2.8c-5.2,0-8,3-8,6.5
			c0,4,2.9,5.8,9.2,8.2c8.3,3.2,12.6,7.4,12.6,14.6c0,8.4-6.6,14.5-18.1,14.5c-5.3,0-10.1-1.4-13.5-3.4L535.3,356.8z"/>
	</g>
	<g>
		<path id="f" class="st1" d="M656.5,330.6c0-5-0.1-9.1-0.4-13h7.7l0.4,7.8h0.3c2.9-5.6,8.8-9.1,15.1-8.9c6.6,0,11.6,4,13.6,9.7h0.2
			c1.3-2.5,3.2-4.6,5.4-6.3c3.1-2.3,6.8-3.5,10.7-3.4c6.4,0,15.8,4.2,15.8,20.9v28.4h-8.6v-27.3c0-9.3-3.4-14.9-10.5-14.9
			c-5,0-8.8,3.7-10.3,8c-0.4,1.4-0.7,2.9-0.7,4.4v29.7h-8.6v-28.9c0-7.7-3.4-13.2-10.1-13.2c-5.5,0-9.4,4.4-10.8,8.8
			c-0.4,1.4-0.7,2.9-0.7,4.3v29.1h-8.6V330.6z"/>
	</g>
	<g>
		<path id="g" class="st1" d="M736.6,356.8c2.6,1.7,7.2,3.5,11.6,3.5c6.4,0,9.4-3.2,9.4-7.2c0-4.2-2.5-6.5-9-8.9
			c-8.7-3.1-12.7-7.9-12.7-13.6c0-7.8,6.3-14.1,16.7-14.1c4.9,0,9.2,1.4,11.9,3l-2.2,6.4c-3-1.8-6.4-2.8-9.9-2.8c-5.2,0-8,3-8,6.5
			c0,4,2.9,5.8,9.2,8.2c8.3,3.2,12.6,7.4,12.6,14.6c0,8.4-6.6,14.5-18.1,14.5c-5.3,0-10.1-1.4-13.5-3.4L736.6,356.8z"/>
	</g>
	<g>
		<path id="h" class="st1" d="M518.9,316.4l-9.6,28.3c-1.2,3.5-2.2,7.5-3.1,10h-0.2c-0.8-2.5-2-6.7-3.1-9.8l-10.6-28.5h-9.6
			l17.8,44.5c0.4,1.1,0.6,1.8,0.6,2.3s-0.3,1.2-0.7,2.1c-1.7,3.8-4.2,7.1-7.4,9.8c-2.2,1.9-4.9,3.4-7.7,4.2l2.4,7.4
			c2.2-0.4,6.4-2,10.6-5.6c6-5.2,10.3-13.8,16.5-30.3l13.1-34.4L518.9,316.4z"/>
	</g>
	<g>
		<path id="i" class="st1" d="M614.2,343.2v0.3c0.1,1.8,0.9,10.2,7.4,14.2c1.5,0.8,3.1,1.5,4.8,1.8c5.8,0.7,11.7-0.2,16.9-2.8
			l2.2,6.7c-5,2.3-10.4,3.5-15.9,3.5c-14.9,0-23.8-9.9-23.8-24.5c0-14.5,8.6-26,22.7-26c15.8,0,20,13.9,20,22.8
			c0,1.4-0.1,2.7-0.3,4.1L614.2,343.2z M627.8,322.7c-8.9,0-12.7,8.7-13.5,14.3H640C640.1,331.4,637.7,322.7,627.8,322.7z"/>
	</g>
	<g>
		<path id="j" class="st1" d="M441,356c0,0-3,2.2-5.4,2.2c-3.1-0.1-5.1-2.1-5.1-8V323H443v-6.3h-12.5v-17.1l-9.2,6.5v43.5
			c0,5.7,1.1,10,3.6,12.6c1.2,1.4,3,2.5,5,3.1c7.3,2.5,13.1-2.6,13.1-2.6L441,356z"/>
	</g>
	<g>
		<path id="k" class="st1" d="M597.6,356c0,0-3,2.2-5.4,2.2c-3.1-0.1-5.1-2.1-5.1-8V323h12.5v-6.3H587v-17.1l-9.2,6.5v43.5
			c0,5.7,1.1,10,3.6,12.6c1.2,1.4,3,2.5,5,3.1c7.3,2.5,13.1-2.6,13.1-2.6L597.6,356z"/>
	</g>
</g>
</svg>
