<svg width="29" height="29" viewBox="0 0 29 29" fill="none" xmlns="http://www.w3.org/2000/svg">
<g clip-path="url(#clip0_4237_123)">
<path d="M19.5364 24.3341C19.3862 24.2426 19.2552 24.1201 19.1512 23.9715C19.1031 23.903 19.0625 23.8306 19.0289 23.7557H1.95313V6.92494H25.131V17.9148C25.6258 17.9595 26.041 18.2845 26.2153 18.7295C26.3696 18.6449 26.5416 18.5927 26.7224 18.5767C26.8447 18.5661 26.9662 18.5737 27.084 18.5969V2.73202C27.084 1.83453 26.354 1.10437 25.4566 1.10437H1.62758C0.730161 1.10437 0 1.83453 0 2.73202V24.0813C0 24.9788 0.730161 25.7089 1.62758 25.7089H19.3881C19.2495 25.4282 19.2166 25.1114 19.2982 24.8066C19.3452 24.6312 19.4266 24.4713 19.5364 24.3341ZM23.3437 3.83752C23.3437 3.50562 23.6127 3.2365 23.9446 3.2365H24.5456C24.8775 3.2365 25.1465 3.50555 25.1465 3.83752V4.51865C25.1465 4.85054 24.8775 5.1196 24.5456 5.1196H23.9446C23.6126 5.1196 23.3437 4.85054 23.3437 4.51865V3.83752ZM20.5492 3.83752C20.5492 3.50562 20.8182 3.2365 21.1501 3.2365H21.7512C22.0831 3.2365 22.3521 3.50555 22.3521 3.83752V4.51865C22.3521 4.85054 22.0831 5.1196 21.7512 5.1196H21.1501C20.8182 5.1196 20.5492 4.85054 20.5492 4.51865V3.83752ZM17.7546 3.83752C17.7546 3.50562 18.0238 3.2365 18.3556 3.2365H18.9565C19.2885 3.2365 19.5576 3.50555 19.5576 3.83752V4.51865C19.5576 4.85054 19.2885 5.1196 18.9565 5.1196H18.3556C18.0238 5.1196 17.7546 4.85054 17.7546 4.51865V3.83752Z" fill="#00A270"/>
<path d="M28.996 23.188L28.8154 22.1638C28.7911 22.0259 28.6597 21.9338 28.5216 21.9581L27.6109 22.1186C27.5015 21.862 27.3619 21.6217 27.1962 21.4018L27.791 20.6927C27.8343 20.6413 27.8553 20.5746 27.8495 20.5076C27.8436 20.4405 27.8113 20.3786 27.7597 20.3353L26.9632 19.6669C26.9117 19.6236 26.8449 19.6026 26.7779 19.6085C26.7109 19.6144 26.649 19.6466 26.6058 19.6981L26.0114 20.4067C25.7675 20.2824 25.5065 20.1865 25.2331 20.1233V19.1984C25.2331 19.0584 25.1195 18.9447 24.9794 18.9447H23.9394C23.7994 18.9447 23.6857 19.0584 23.6857 19.1984V20.1233C23.4122 20.1865 23.1515 20.2824 22.9074 20.4067L22.3129 19.6982C22.2229 19.5909 22.0629 19.5769 21.9555 19.6669L21.1589 20.3353C21.1074 20.3786 21.0752 20.4405 21.0692 20.5076C21.0634 20.5746 21.0844 20.6413 21.1277 20.6929L21.7226 21.4018C21.5571 21.6217 21.4172 21.8622 21.3079 22.1187L20.3972 21.9581C20.2595 21.9339 20.1278 22.0259 20.1033 22.1638L19.9228 23.188C19.9111 23.2542 19.9262 23.3223 19.9647 23.3775C20.0035 23.4326 20.0621 23.4701 20.1284 23.4818L21.0398 23.6424C21.0547 23.9248 21.1038 24.198 21.183 24.4582L20.3819 24.9205C20.3236 24.954 20.2811 25.0095 20.2637 25.0744C20.2463 25.1394 20.2555 25.2086 20.289 25.2669L20.809 26.1675C20.8425 26.2258 20.898 26.2683 20.9629 26.2857C20.9845 26.2915 21.0065 26.2943 21.0286 26.2943C21.0727 26.2943 21.1164 26.2828 21.1554 26.2603L21.9571 25.7974C22.1456 25.9994 22.3584 26.1784 22.591 26.3298L22.2745 27.1995C22.2515 27.2627 22.2545 27.3325 22.283 27.3934C22.3114 27.4544 22.3629 27.5016 22.426 27.5245L23.4031 27.8801C23.4311 27.8903 23.4605 27.8956 23.4899 27.8956C23.5265 27.8956 23.5633 27.8876 23.5972 27.8717C23.6582 27.8434 23.7052 27.7918 23.7282 27.7286L24.0447 26.8589C24.1804 26.8754 24.3185 26.8839 24.4587 26.8839C24.5988 26.8839 24.7369 26.8752 24.8726 26.8589L25.1892 27.7286C25.2121 27.7918 25.2593 27.8434 25.3202 27.8717C25.354 27.8876 25.3907 27.8956 25.4275 27.8956C25.4568 27.8956 25.4862 27.8905 25.5142 27.8801L26.4914 27.5245C26.5545 27.5016 26.606 27.4543 26.6344 27.3934C26.6628 27.3325 26.6658 27.2627 26.6429 27.1995L26.3263 26.3299C26.5587 26.1786 26.7715 25.9994 26.9602 25.7976L27.762 26.2605C27.8008 26.2828 27.8446 26.2944 27.8887 26.2944C27.9107 26.2944 27.9329 26.2915 27.9544 26.2858C28.0194 26.2684 28.0748 26.2258 28.1084 26.1676L28.6283 25.2669C28.6619 25.2088 28.671 25.1394 28.6536 25.0744C28.6362 25.0097 28.5937 24.9541 28.5354 24.9205L27.7345 24.4583C27.8136 24.1981 27.8626 23.9249 27.8775 23.6426L28.7889 23.4819C28.8552 23.4702 28.9141 23.4327 28.9526 23.3775C28.9926 23.3223 29.0077 23.2542 28.996 23.188ZM24.4595 24.8154C23.6891 24.8154 23.0645 24.1908 23.0645 23.4203C23.0645 22.6499 23.6892 22.0254 24.4595 22.0254C25.2299 22.0254 25.8545 22.6499 25.8545 23.4203C25.8545 24.1908 25.2299 24.8154 24.4595 24.8154Z" fill="#00A270"/>
<path d="M11.3736 16.2546C11.3736 15.9265 11.1813 15.625 10.8836 15.4868L8.15884 14.2208L10.8836 12.9546C11.1813 12.8163 11.3736 12.5149 11.3736 12.1868V12.1648C11.3736 11.8741 11.2273 11.6072 10.9824 11.4512C10.8469 11.3646 10.6891 11.3188 10.5262 11.3188C10.4034 11.3188 10.2801 11.3458 10.1698 11.3971L5.81374 13.4228C5.51617 13.5612 5.32397 13.8626 5.32397 14.1905V14.2511C5.32397 14.5786 5.5161 14.8798 5.81381 15.0189L10.1703 17.0448C10.283 17.0969 10.4029 17.1234 10.5268 17.1234C10.6883 17.1234 10.8456 17.0775 10.9824 16.9905C11.2274 16.8339 11.3737 16.5672 11.3737 16.2768L11.3736 16.2546Z" fill="#00A270"/>
<path d="M15.6715 9.25472C15.5126 9.03718 15.257 8.90735 14.9878 8.90735H14.9661C14.5964 8.90735 14.2722 9.14388 14.1596 9.49546L11.2895 18.3883C11.2078 18.6451 11.2538 18.9279 11.4125 19.1453C11.5714 19.3627 11.8269 19.4926 12.0962 19.4926H12.118C12.4876 19.4926 12.8115 19.256 12.924 18.9045L15.7938 10.0124C15.8762 9.75581 15.8305 9.4726 15.6715 9.25472Z" fill="#00A270"/>
<path d="M21.2702 13.4227L16.914 11.397C16.8041 11.3459 16.681 11.3188 16.5582 11.3188C16.3954 11.3188 16.2375 11.3645 16.1021 11.4509C15.8568 11.6072 15.7104 11.874 15.7104 12.1648V12.1868C15.7104 12.5145 15.9026 12.816 16.2006 12.9549L18.9252 14.2208L16.2005 15.4867C15.9028 15.625 15.7104 15.9264 15.7104 16.2546V16.2767C15.7104 16.5671 15.8568 16.8338 16.1019 16.9905C16.2383 17.0774 16.3957 17.1233 16.5574 17.1233C16.6811 17.1233 16.801 17.0969 16.9144 17.0445L21.2707 15.0186C21.5682 14.8799 21.7602 14.5786 21.7602 14.2511V14.1905C21.76 13.8625 21.5678 13.5611 21.2702 13.4227Z" fill="#00A270"/>
</g>
<defs>
<clipPath id="clip0_4237_123">
<rect width="29" height="29" fill="white"/>
</clipPath>
</defs>
</svg>
