<?xml version="1.0" ?><svg id="Lager_1" style="enable-background:new 0 0 128 128;" version="1.1" viewBox="0 0 128 128" xml:space="preserve" xmlns="http://www.w3.org/2000/svg" xmlns:xlink="http://www.w3.org/1999/xlink">
<style type="text/css">
	.st0{fill:#9B5C8F;}
	.st1{fill:#FFFFFF;}
</style><g><g><g><g><circle class="st0" cx="64" cy="64" r="50"/></g></g></g></g><g><path class="st1" d="M27.4,50.2c0.5-0.6,1.2-1,2.1-1c1.7-0.1,2.7,0.7,2.9,2.4c1,7,2.2,12.9,3.4,17.8l7.3-14c0.7-1.3,1.5-1.9,2.5-2   c1.5-0.1,2.4,0.8,2.7,2.8c0.8,4.5,1.9,8.2,3.2,11.5c0.9-8.5,2.3-14.7,4.4-18.4c0.5-0.9,1.2-1.4,2.2-1.5c0.8-0.1,1.5,0.2,2.1,0.7   c0.6,0.5,1,1.1,1,1.9c0,0.6-0.1,1.1-0.3,1.6c-1.3,2.4-2.4,6.5-3.3,12.1c-0.8,5.5-1.1,9.7-0.9,12.8c0.1,0.8-0.1,1.6-0.4,2.2   c-0.4,0.7-1,1.1-1.8,1.2c-0.9,0.1-1.8-0.3-2.6-1.2c-3.1-3.2-5.6-7.9-7.4-14.3c-2.2,4.3-3.8,7.5-4.8,9.7c-2,3.8-3.7,5.7-5.1,5.8   c-0.9,0.1-1.7-0.7-2.3-2.3c-1.7-4.4-3.6-12.9-5.5-25.5C26.8,51.6,27,50.8,27.4,50.2z"/><path class="st1" d="M99.5,55.5c-1.2-2.1-3-3.4-5.4-3.9c-0.6-0.1-1.2-0.2-1.8-0.2c-3.2,0-5.8,1.7-7.9,5c-1.7,2.9-2.6,6-2.6,9.5   c0,2.6,0.5,4.8,1.6,6.6c1.2,2.1,3,3.4,5.4,3.9c0.6,0.1,1.2,0.2,1.8,0.2c3.3,0,5.9-1.7,7.9-5c1.7-2.9,2.6-6,2.6-9.5   C101.1,59.5,100.6,57.3,99.5,55.5L99.5,55.5z M95.3,64.8c-0.5,2.2-1.3,3.9-2.5,5c-1,0.9-1.9,1.2-2.7,1.1c-0.8-0.2-1.5-0.9-2-2.2   c-0.4-1-0.6-2.1-0.6-3.1c0-0.8,0.1-1.7,0.2-2.4c0.3-1.4,0.9-2.7,1.8-4c1.1-1.6,2.3-2.3,3.5-2.1c0.8,0.2,1.5,0.9,2,2.2   c0.4,1,0.6,2.1,0.6,3.1C95.5,63.1,95.4,64,95.3,64.8L95.3,64.8z"/><path class="st1" d="M78.5,55.5c-1.2-2.1-3-3.4-5.4-3.9c-0.6-0.1-1.2-0.2-1.8-0.2c-3.2,0-5.8,1.7-7.9,5c-1.7,2.9-2.6,6-2.6,9.5   c0,2.6,0.5,4.8,1.6,6.6c1.2,2.1,3,3.4,5.4,3.9c0.6,0.1,1.2,0.2,1.8,0.2c3.3,0,5.9-1.7,7.9-5c1.7-2.9,2.6-6,2.6-9.5   C80.1,59.5,79.6,57.3,78.5,55.5L78.5,55.5z M74.3,64.8c-0.5,2.2-1.3,3.9-2.5,5c-1,0.9-1.9,1.2-2.7,1.1c-0.8-0.2-1.5-0.9-2-2.2   c-0.4-1-0.6-2.1-0.6-3.1c0-0.8,0.1-1.7,0.2-2.4c0.3-1.4,0.9-2.7,1.8-4c1.1-1.6,2.3-2.3,3.5-2.1c0.8,0.2,1.5,0.9,2,2.2   c0.4,1,0.6,2.1,0.6,3.1C74.5,63.1,74.4,64,74.3,64.8L74.3,64.8z"/></g></svg>