<svg width="30" height="29" viewBox="0 0 30 29" fill="none" xmlns="http://www.w3.org/2000/svg">
<path d="M9.72918 18.7292H3.68751C3.36704 18.7292 3.0597 18.8565 2.83309 19.0831C2.60648 19.3097 2.47918 19.617 2.47918 19.9375V25.9792C2.47918 26.2997 2.60648 26.607 2.83309 26.8336C3.0597 27.0602 3.36704 27.1875 3.68751 27.1875H9.72918C10.0496 27.1875 10.357 27.0602 10.5836 26.8336C10.8102 26.607 10.9375 26.2997 10.9375 25.9792V24.1667H15.1667C15.4871 24.1667 15.7945 24.0394 16.0211 23.8128C16.2477 23.5862 16.375 23.2788 16.375 22.9584C16.375 22.6379 16.2477 22.3305 16.0211 22.1039C15.7945 21.8773 15.4871 21.75 15.1667 21.75H10.9375V19.9375C10.9375 19.617 10.8102 19.3097 10.5836 19.0831C10.357 18.8565 10.0496 18.7292 9.72918 18.7292ZM8.52084 24.7709H4.89585V21.1459H8.52084V24.7709ZM5.50001 10.7034V15.7084C5.50001 16.0288 5.62732 16.3362 5.85392 16.5628C6.08053 16.7894 6.38788 16.9167 6.70834 16.9167C7.02881 16.9167 7.33616 16.7894 7.56277 16.5628C7.78937 16.3362 7.91668 16.0288 7.91668 15.7084V10.7034C9.05572 10.4093 10.0484 9.70991 10.7087 8.73626C11.3689 7.76261 11.6514 6.58158 11.5032 5.41456C11.3549 4.24753 10.7862 3.17463 9.90346 2.39696C9.02076 1.61929 7.88475 1.19025 6.70834 1.19025C5.53194 1.19025 4.39593 1.61929 3.51323 2.39696C2.63054 3.17463 2.06177 4.24753 1.91353 5.41456C1.7653 6.58158 2.04779 7.76261 2.70803 8.73626C3.36828 9.70991 4.36097 10.4093 5.50001 10.7034ZM6.70834 3.62502C7.18632 3.62502 7.65355 3.76675 8.05097 4.0323C8.44839 4.29785 8.75814 4.67528 8.94105 5.11687C9.12397 5.55845 9.17182 6.04437 9.07858 6.51315C8.98533 6.98194 8.75516 7.41255 8.41719 7.75053C8.07921 8.0885 7.6486 8.31867 7.17981 8.41192C6.71103 8.50516 6.22511 8.45731 5.78353 8.27439C5.34194 8.09148 4.96451 7.78173 4.69896 7.38431C4.43341 6.98689 4.29168 6.51966 4.29168 6.04168C4.29168 5.40074 4.54629 4.78606 4.9995 4.33284C5.45272 3.87963 6.06741 3.62502 6.70834 3.62502ZM24.8333 18.2966V14.5C24.8333 14.1795 24.706 13.8722 24.4794 13.6456C24.2528 13.419 23.9455 13.2917 23.625 13.2917C23.3045 13.2917 22.9972 13.419 22.7706 13.6456C22.544 13.8722 22.4167 14.1795 22.4167 14.5V18.2966C21.2776 18.5907 20.285 19.2901 19.6247 20.2638C18.9645 21.2374 18.682 22.4185 18.8302 23.5855C18.9784 24.7525 19.5472 25.8254 20.4299 26.6031C21.3126 27.3807 22.4486 27.8098 23.625 27.8098C24.8014 27.8098 25.9374 27.3807 26.8201 26.6031C27.7028 25.8254 28.2716 24.7525 28.4198 23.5855C28.5681 22.4185 28.2856 21.2374 27.6253 20.2638C26.9651 19.2901 25.9724 18.5907 24.8333 18.2966ZM23.625 25.375C23.147 25.375 22.6798 25.2333 22.2824 24.9677C21.885 24.7022 21.5752 24.3248 21.3923 23.8832C21.2094 23.4416 21.1615 22.9557 21.2548 22.4869C21.348 22.0181 21.5782 21.5875 21.9162 21.2495C22.2541 20.9115 22.6848 20.6814 23.1535 20.5881C23.6223 20.4949 24.1082 20.5427 24.5498 20.7256C24.9914 20.9086 25.3689 21.2183 25.6344 21.6157C25.8999 22.0131 26.0417 22.4804 26.0417 22.9584C26.0417 23.5993 25.7871 24.214 25.3339 24.6672C24.8806 25.1204 24.266 25.375 23.625 25.375ZM20.6042 10.2709H26.6458C26.9663 10.2709 27.2737 10.1435 27.5003 9.91694C27.7269 9.69033 27.8542 9.38299 27.8542 9.06252V3.02085C27.8542 2.70038 27.7269 2.39304 27.5003 2.16643C27.2737 1.93982 26.9663 1.81252 26.6458 1.81252H20.6042C20.2837 1.81252 19.9764 1.93982 19.7498 2.16643C19.5232 2.39304 19.3958 2.70038 19.3958 3.02085V4.83335H15.1667C14.8462 4.83335 14.5389 4.96066 14.3123 5.18726C14.0857 5.41387 13.9583 5.72121 13.9583 6.04168C13.9583 6.36215 14.0857 6.6695 14.3123 6.89611C14.5389 7.12271 14.8462 7.25002 15.1667 7.25002H19.3958V9.06252C19.3958 9.38299 19.5232 9.69033 19.7498 9.91694C19.9764 10.1435 20.2837 10.2709 20.6042 10.2709ZM21.8125 4.22918H25.4375V7.85418H21.8125V4.22918Z" fill="#00A270"/>
</svg>
