<svg width="2040" height="253" xmlns="http://www.w3.org/2000/svg"><path d="M1826.108 239.194l6.248-4.212-58.73-28.496a5448.014 5448.014 0 01-17.395-8.541c-5.586-2.766-11.54-5.801-17.239-9.254a92.908 92.908 0 01-15.982-12.319c-4.647-4.468-9.284-9.7-14.178-15.99-2.837-3.646-5.682-7.433-8.435-11.096a1450.939 1450.939 0 00-4.894-6.488c-4.913-6.467-9.477-11.726-13.95-16.08a70.311 70.311 0 00-5.425-4.762c-.124-.097-.245-.2-.369-.297-.182-.142-.366-.271-.549-.41a59.463 59.463 0 00-7.59-4.94c-.415-.224-.833-.432-1.25-.644-.256-.13-.51-.269-.767-.394l-.084-.041c-5.593-2.713-11.982-4.556-18.987-5.48a113.96 113.96 0 00-7.336-.717c-.404-.025-.822-.044-1.232-.069-.46-.026-.913-.056-1.382-.078-.443-.02-.901-.034-1.353-.05-.45-.018-.895-.039-1.355-.052-.502-.014-1.021-.022-1.534-.032-.424-.008-.84-.02-1.27-.027-.499-.005-1.017-.004-1.526-.007-.46 0-.911-.007-1.38-.005-.986.003-1.989.012-3.01.03-.283.006-.568.013-.85.017-2.268.043-4.538.09-6.81.142-4.752.104-9.663.213-14.461.235h-.113c-.42.002-.827-.002-1.241-.003-3.551-.006-6.916-.1-10.112-.299-.647-.04-1.281-.087-1.914-.135-.24-.018-.486-.032-.724-.051-2.607-.21-5.109-.49-7.527-.837a93.585 93.585 0 01-19.733-5.105c-5.905-2.25-11.527-4.812-18.153-7.965a6157.788 6157.788 0 01-17.703-8.49l-57.347-27.825.524 7.498 55.726 27.03c5.31 2.552 10.62 5.107 15.946 7.646 5.654 2.695 11.743 5.535 17.955 8.042 6.272 2.51 12.673 4.409 19.021 5.645 6.33 1.222 13.12 1.951 20.762 2.23 5.978.214 12.152.258 18.121.3l3.715.028c8.263.067 15.283.54 21.46 1.45 7.163 1.05 13.727 3.008 19.511 5.814l.109.053c5.743 2.801 11.297 6.717 16.51 11.641 4.523 4.273 9.216 9.465 14.348 15.873l2.522 3.155c3.628 4.54 7.378 9.237 11.133 13.683 4.896 5.8 9.615 10.658 14.425 14.856a102.025 102.025 0 007.644 6.028c2.186 1.56 4.464 3.03 6.792 4.439.516.312 1.017.64 1.54.944 5.72 3.307 11.635 6.298 17.173 9.036 5.531 2.73 11.06 5.438 16.574 8.138l.81.398 4.356 2.113 50.965 24.727zm-8.16 5.507l6.247-4.211-54.282-26.337-.004-.002-.815-.4c-5.516-2.702-11.045-5.41-16.58-8.141-5.544-2.739-11.475-5.737-17.292-9.1-.364-.212-.72-.432-1.082-.647a109.539 109.539 0 01-7.41-4.84 103.503 103.503 0 01-7.794-6.145c-4.89-4.27-9.677-9.2-14.638-15.073-3.77-4.464-7.527-9.168-11.159-13.715l-2.53-3.165c-5.063-6.324-9.694-11.449-14.159-15.67a77.447 77.447 0 00-1.916-1.75c-4.365-3.85-8.95-6.972-13.66-9.32-.18-.09-.358-.188-.538-.275-5.6-2.715-11.968-4.61-18.928-5.634-6.085-.895-13.015-1.362-21.186-1.429l-3.665-.026c-6-.043-12.203-.087-18.226-.304-7.745-.28-14.637-1.02-21.07-2.264-6.476-1.261-12.997-3.197-19.386-5.753a215.12 215.12 0 01-4.67-1.952c-4.461-1.922-8.802-3.953-12.926-5.916-.156-.074-.32-.15-.475-.225-5.203-2.482-10.393-4.976-15.577-7.467l-.464-.224c-.328-.158-.658-.315-.984-.474l-.729-.35-5.82-2.822-.13-.064-23.71-11.504-23.229-11.272.524 7.5 35.241 17.1 14.809 7.183 5.11 2.458c2.437 1.17 4.877 2.342 7.318 3.511 1.592.762 3.184 1.528 4.777 2.288 5.61 2.676 11.662 5.519 17.913 8.17 6.347 2.682 12.478 4.74 18.741 6.293 6.298 1.548 13.102 2.674 20.223 3.342 7.095.666 14.316 1.036 21.301 1.394 8.328.43 15.029 1.122 21.088 2.181 7.064 1.236 13.575 3.282 19.351 6.08l.133.065c5.728 2.794 11.31 6.608 16.597 11.34 4.585 4.104 9.254 8.914 14.693 15.138 4.602 5.266 9.36 10.713 14.158 15.774 4.887 5.153 9.923 9.78 14.97 13.748 4.964 3.89 10.454 7.517 16.317 10.776.292.161.585.32.877.48a324.985 324.985 0 005.15 2.755c.398.21.797.416 1.195.623a446.239 446.239 0 003.957 2.027 732.433 732.433 0 006.076 3.031c5.799 2.86 11.593 5.694 17.37 8.521l50.898 24.693zm-8.168 5.51l6.247-4.213-49.838-24.181a5697.576 5697.576 0 01-17.398-8.535 672.887 672.887 0 01-6.096-3.045l-.233-.118a441.064 441.064 0 01-3.751-1.922l-1.188-.62a298.845 298.845 0 01-5.184-2.773c-.296-.162-.591-.316-.888-.48-5.96-3.315-11.54-7-16.583-10.954-5.121-4.028-10.23-8.719-15.184-13.945-4.827-5.09-9.599-10.552-14.214-15.834-5.383-6.161-9.997-10.915-14.52-14.963-5.191-4.644-10.692-8.39-16.268-11.095-5.61-2.718-11.943-4.706-18.823-5.91-5.981-1.046-12.606-1.73-20.848-2.153-7.015-.36-14.27-.733-21.385-1.402-7.225-.677-14.127-1.819-20.515-3.391-6.362-1.576-12.591-3.667-19.042-6.392-6.319-2.682-12.383-5.53-17.994-8.207-5.376-2.568-10.738-5.147-16.095-7.723l-1.649-.794-48.494-23.53.524 7.5 62.827 30.483 3.572 1.659c4.683 2.176 9.526 4.428 14.331 6.56 6.416 2.829 12.463 5.081 18.486 6.887 6.184 1.842 12.807 3.354 19.682 4.496 6.903 1.136 14.002 1.975 20.644 2.713 8.228.914 14.768 1.922 20.586 3.172 6.94 1.491 13.376 3.66 19.13 6.449l.134.065c5.705 2.783 11.338 6.463 16.748 10.94 4.593 3.802 9.41 8.295 15.158 14.137 5.43 5.512 10.022 10.08 14.791 14.453 5.1 4.67 10.33 8.912 15.542 12.61 5.083 3.597 10.523 6.936 16.635 10.203 6.234 3.31 12.536 6.442 17.328 8.803 5.495 2.705 10.986 5.39 16.462 8.068l.93.455 46.433 22.527zM1529.48 78.571l-61.689-29.933.522 7.486 58.335 28.304a4989.183 4989.183 0 0017.73 8.507c6.598 3.142 12.184 5.686 18.004 7.902a91.635 91.635 0 0019.31 4.995c6.347.914 13.289 1.34 21.22 1.305.317 0 .64-.008.957-.01 2.1-.014 4.213-.037 6.33-.075.763-.014 1.513-.032 2.275-.048 1.681-.034 3.367-.067 5.02-.104 2.544-.056 5.087-.113 7.624-.156 8.28-.144 15.372.19 21.679 1.024 7.217.95 13.811 2.856 19.6 5.663l.112.055c5.746 2.802 11.278 6.77 16.441 11.798 4.547 4.424 9.174 9.757 14.149 16.304 1.616 2.126 3.223 4.266 4.83 6.405 2.772 3.686 5.636 7.497 8.485 11.161 4.84 6.223 9.415 11.383 13.985 15.777a91.01 91.01 0 0015.636 12.051c5.643 3.422 11.547 6.43 17.087 9.17a5443.272 5443.272 0 0017.363 8.525l59.791 29.011 6.241-4.21-63.175-30.651-.814-.398c-5.516-2.702-11.046-5.41-16.582-8.14-5.58-2.758-11.523-5.805-17.193-9.4-5.618-3.587-10.901-7.934-15.704-12.924-4.463-4.638-8.993-10.08-13.846-16.636a1200.451 1200.451 0 01-6.045-8.261 1032.268 1032.268 0 00-7.097-9.68c-4.808-6.46-9.35-11.757-13.886-16.194-5.005-4.897-10.357-8.75-15.908-11.458l-.109-.053c-5.593-2.713-11.985-4.548-18.998-5.455-6.295-.815-13.307-1.104-21.434-.883-3.848.102-7.714.248-11.58.393-3.61.136-7.224.272-10.818.374-8.22.232-15.358.016-21.826-.66-6.915-.725-13.657-2.244-20.04-4.516-5.914-2.133-11.563-4.683-18.226-7.856h-.001c-4.607-2.198-9.203-4.405-13.797-6.61l-3.958-1.9zm-58.09-37.653l-3.968 2.676.19 2.722 63.567 30.838c5.63 2.708 11.27 5.42 16.923 8.117 6.588 3.14 12.177 5.663 18.042 7.778 6.22 2.217 12.806 3.7 19.573 4.41 6.378.667 13.43.88 21.56.65 3.588-.102 7.194-.236 10.8-.372 3.874-.146 7.747-.292 11.601-.396 8.232-.222 15.346.072 21.744.901 7.223.933 13.822 2.83 19.615 5.637l.099.048c5.75 2.805 11.281 6.786 16.444 11.834 4.605 4.504 9.214 9.879 14.093 16.43 2.384 3.2 4.78 6.496 7.1 9.684 2.01 2.764 4.02 5.53 6.044 8.262 4.809 6.493 9.282 11.87 13.68 16.438 4.693 4.876 9.854 9.123 15.337 12.623 5.56 3.527 11.459 6.551 17.004 9.294a7390.296 7390.296 0 0017.387 8.534l64.216 31.155 1.445-.975-.403-5.757-62.425-30.288-1.407-.689c-5.32-2.602-10.655-5.21-15.99-7.843-5.618-2.774-11.583-5.846-17.155-9.522-5.442-3.618-10.65-8.123-15.481-13.39-4.309-4.701-8.78-10.254-13.664-16.978-1.269-1.747-2.534-3.5-3.8-5.255-3.033-4.206-6.17-8.554-9.306-12.73-4.79-6.382-9.353-11.634-13.95-16.056-5.031-4.838-10.399-8.665-15.956-11.375l-.112-.055c-5.601-2.716-11.982-4.581-18.963-5.542-6.344-.872-13.332-1.206-21.366-1.019-5.082.12-10.302.335-15.35.545-2.356.098-4.712.195-7.064.284-8.366.314-15.557.217-21.985-.297-7.177-.573-13.997-1.938-20.272-4.059-6.599-2.248-12.904-5.182-18.294-7.755-4.897-2.339-9.78-4.687-14.657-7.034l-3.086-1.484-61.81-29.989zm8.178-5.506l-6.246 4.212 63.536 30.817a6603.92 6603.92 0 0014.954 7.177h-.001c5.34 2.549 11.583 5.453 18.078 7.665 6.115 2.068 12.773 3.4 19.787 3.961 6.351.508 13.466.604 21.75.29 2.346-.088 4.696-.185 7.045-.282 5.06-.21 10.294-.428 15.4-.547 8.143-.19 15.236.15 21.683 1.036 7.19.991 13.772 2.917 19.564 5.725l.124.06c5.746 2.803 11.282 6.747 16.457 11.727 4.671 4.495 9.304 9.826 14.163 16.295 3.144 4.188 6.283 8.539 9.316 12.746 1.27 1.759 2.539 3.517 3.81 5.267 4.836 6.657 9.258 12.153 13.518 16.8 4.72 5.15 9.806 9.55 15.113 13.077 5.486 3.62 11.38 6.654 16.934 9.394a6259.91 6259.91 0 0017.37 8.519l61.405 29.794-.523-7.499-58.02-28.15a6974.891 6974.891 0 01-17.403-8.524c-6.54-3.22-11.954-6.086-17.124-9.614-5.316-3.64-10.478-8.236-15.344-13.66-.243-.272-.489-.554-.732-.83-4.026-4.548-8.144-9.726-12.889-16.216l-1.748-2.394c-3.723-5.1-7.572-10.371-11.445-15.383-4.806-6.218-9.42-11.365-14.104-15.733-5.06-4.719-10.454-8.491-16.039-11.215l-.12-.059c-5.628-2.727-11.985-4.648-18.899-5.71-6.357-.974-13.293-1.412-21.205-1.336-6.203.06-12.596.288-18.778.508l-3.531.125c-8.588.298-15.582.23-22.013-.211-7.323-.504-14.186-1.777-20.402-3.784-6.55-2.134-12.653-4.97-18.34-7.69a6489.297 6489.297 0 01-17.74-8.527l-57.36-27.831zm8.156-5.513l-6.244 4.214 56.315 27.325c5.9 2.844 11.809 5.69 17.733 8.524 5.63 2.693 11.664 5.498 18.096 7.592 6.064 1.957 12.766 3.199 19.921 3.69 6.381.439 13.31.506 21.806.209l3.53-.125c6.195-.221 12.602-.45 18.83-.51 8.022-.076 15.063.369 21.528 1.36 7.11 1.093 13.66 3.073 19.468 5.887l.124.06c5.76 2.81 11.321 6.696 16.526 11.551 4.768 4.444 9.453 9.67 14.323 15.973l.003.003c3.891 5.034 7.748 10.319 11.479 15.43l1.748 2.392c4.759 6.508 8.881 11.686 12.917 16.234.19.216.382.437.573.65 4.751 5.298 9.792 9.788 14.985 13.345 5.072 3.462 10.416 6.29 16.879 9.472 5.809 2.858 11.61 5.693 17.394 8.52l56.983 27.647-.524-7.494-53.616-26.015-1.032-.504a7932.65 7932.65 0 01-16.374-8.01c-5.316-2.61-11.461-5.724-17.116-9.654-5.25-3.648-10.398-8.263-15.305-13.72-4.2-4.674-8.549-10.037-13.686-16.88-4.33-5.767-8.808-11.73-13.377-17.39-4.85-6.01-9.533-11.013-14.318-15.299-5.146-4.61-10.658-8.35-16.276-11.076-5.656-2.742-11.988-4.735-18.816-5.924-6.352-1.105-13.219-1.686-20.992-1.774-7.09-.082-14.424.08-21.518.237l-.596.013c-8.633.193-15.6.077-21.926-.364-7.396-.516-14.269-1.766-20.427-3.717-6.62-2.095-12.869-5.02-18.383-7.601l-70.635-34.27zm8.172-5.504l-6.246 4.21 69.568 33.755c5.453 2.55 11.648 5.45 18.128 7.501 6.019 1.904 12.735 3.125 19.961 3.628 6.264.436 13.173.55 21.744.36l.596-.013c7.11-.157 14.46-.32 21.585-.238 7.881.09 14.853.68 21.312 1.803 7.012 1.221 13.52 3.272 19.346 6.094 5.787 2.833 11.453 6.652 16.738 11.387 4.865 4.357 9.621 9.438 14.538 15.533 4.562 5.647 9.057 11.632 13.404 17.421 5.134 6.838 9.448 12.157 13.591 16.765 4.807 5.348 9.841 9.861 14.959 13.416 5.53 3.844 11.6 6.92 16.857 9.503 5.808 2.851 11.61 5.683 17.394 8.507l52.585 25.514-.525-7.496-66.64-32.331c-6.196-3.099-11.752-5.96-17.11-9.672-5.217-3.613-10.385-8.185-15.359-13.59a203.729 203.729 0 01-4.434-4.995c-2.798-3.252-5.786-6.91-9.13-11.172-.096-.124-.188-.238-.285-.361-.105-.136-.216-.276-.322-.41-1.009-1.289-2.014-2.572-3.02-3.846-.77-.975-1.556-1.957-2.339-2.939-.332-.416-.663-.837-.996-1.252a381.112 381.112 0 00-6.944-8.43c-4.924-5.787-9.686-10.627-14.56-14.803-5.197-4.451-10.69-8.082-16.404-10.865-5.683-2.754-11.983-4.825-18.726-6.152-6.318-1.246-13.106-1.988-20.752-2.274-7.108-.265-14.396-.273-21.86-.259-8.675.017-15.587-.208-21.752-.707-7.381-.597-14.23-1.887-20.356-3.837-6.607-2.102-12.854-5.046-18.366-7.643l-66.18-32.112zm8.155-5.51l-6.243 4.21 65.126 31.6c5.442 2.567 11.62 5.48 18.11 7.546 5.979 1.901 12.679 3.163 19.914 3.748 6.109.495 12.967.717 21.585.701 7.486-.015 14.795-.006 21.938.262 7.757.288 14.646 1.043 21.064 2.307 6.91 1.363 13.375 3.487 19.213 6.317l.15.072c5.786 2.823 11.398 6.548 16.682 11.074 4.957 4.245 9.793 9.16 14.783 15.025.617.726 1.23 1.473 1.847 2.21 4.018 4.814 7.948 9.78 11.66 14.52l.166.21c.103.131.202.254.303.386a344.99 344.99 0 007.529 9.287 207.52 207.52 0 005.914 6.733c4.871 5.295 9.926 9.77 15.024 13.302 5.241 3.63 10.735 6.459 16.856 9.521l65.596 31.825-.524-7.497-62.234-30.193c-5.954-2.958-11.739-5.912-17.149-9.573-5.296-3.583-10.365-7.929-15.498-13.283-4.208-4.393-8.552-9.338-14.085-16.034-5.105-6.178-9.423-11.313-13.907-16.286-5.011-5.558-9.859-10.231-14.817-14.287-5.202-4.257-10.708-7.815-16.37-10.577l-.16-.078c-5.718-2.77-11.989-4.918-18.64-6.382-6.277-1.385-12.985-2.299-20.503-2.795-7.362-.486-14.993-.695-21.566-.853-8.744-.21-15.376-.581-21.506-1.2-7.438-.752-14.048-2.103-20.205-4.13-6.546-2.157-12.797-5.12-18.311-7.732l-61.742-29.956zm8.17-5.502l-6.243 4.21 60.675 29.438c5.448 2.584 11.631 5.516 18.075 7.639 6.022 1.982 12.492 3.304 19.78 4.04 6.055.612 12.64.98 21.352 1.19 6.606.159 14.27.368 21.65.857 7.62.502 14.424 1.43 20.801 2.836 6.806 1.5 13.225 3.699 19.082 6.537l.165.08c5.802 2.83 11.44 6.472 16.76 10.826 5.037 4.121 9.955 8.863 15.036 14.496a333.217 333.217 0 015.952 6.793c.266.31.53.615.796.929.11.129.221.262.331.39a809.885 809.885 0 016.885 8.24c5.5 6.657 9.815 11.568 13.987 15.923 4.953 5.168 10.059 9.546 15.174 13.011 5.296 3.586 11.02 6.508 16.91 9.434l61.196 29.69-.525-7.496-57.832-28.06c-5.577-2.75-11.5-5.72-17.283-9.166a125.708 125.708 0 01-15.624-13.096 225.826 225.826 0 01-6.648-6.86c-.262-.28-.535-.579-.802-.867-.333-.36-.66-.712-1.003-1.085l-.092-.102a450.267 450.267 0 01-5.835-6.511c-4.5-5.117-9.335-10.552-14.218-15.646-5.11-5.33-10.04-9.836-15.074-13.772-.598-.467-1.2-.925-1.805-1.376-.061-.046-.121-.094-.183-.138-.124-.093-.25-.18-.373-.271a94.147 94.147 0 00-14.19-8.62l-.102-.049c-5.737-2.781-11.98-5.002-18.556-6.601-6.233-1.517-12.858-2.602-20.256-3.318-7.328-.71-14.813-1.144-21.253-1.496-8.646-.473-15.185-1.03-21.207-1.807a123.956 123.956 0 01-20.062-4.313l-.04-.016-.037-.013c-.075-.031-.15-.064-.226-.094-5.974-2.367-11.622-5.02-17.852-7.992l-57.285-27.794zm8.162-5.507l-6.243 4.211 56.236 27.286c6.246 2.982 11.909 5.645 17.906 8.014a121.842 121.842 0 0019.698 4.232c5.94.767 12.436 1.321 21.06 1.793 7.984.436 14.667.858 21.336 1.502 7.49.724 14.207 1.825 20.535 3.365 6.712 1.632 13.09 3.902 18.956 6.746.064.03.127.06.191.092 5.802 2.83 11.46 6.39 16.822 10.586 5.12 4.006 10.12 8.573 15.286 13.963 4.918 5.132 9.768 10.581 14.277 15.708 5.654 6.431 10.06 11.157 14.281 15.325a124.439 124.439 0 0015.31 12.845c5.654 3.363 11.536 6.313 17.07 9.043l56.795 27.556-.524-7.5-53.43-25.922-.001-.001c-5.299-2.598-11.441-5.65-17.33-9.03a131.822 131.822 0 01-15.895-12.502c-4.378-4.033-8.917-8.58-14.717-14.736-4.614-4.897-9.568-10.1-14.546-14.977-5.205-5.098-10.22-9.439-15.333-13.27-.103-.077-.206-.15-.308-.226a107.172 107.172 0 00-16.455-10.04l-.106-.049a101.468 101.468 0 00-13.552-5.356 107.806 107.806 0 00-4.822-1.4c-6.188-1.643-12.735-2.897-20.014-3.834-.4-.052-.803-.1-1.205-.15-.446-.055-.893-.112-1.34-.166l-1.008-.118c-.555-.065-1.11-.13-1.665-.193l-.853-.094c-.597-.066-1.193-.132-1.787-.195l-.984-.104c-.518-.053-1.035-.108-1.551-.159l-1.492-.149-.972-.097a1444.137 1444.137 0 00-2.468-.235 1071.93 1071.93 0 00-5.6-.51c-8.51-.758-14.945-1.53-20.87-2.503a130.014 130.014 0 01-19.771-4.891h-.001l-.066-.025a242.646 242.646 0 01-9.021-3.953l-.016-.008a632.843 632.843 0 01-8.977-4.239l-52.836-25.635zm8.162-5.507l-6.242 4.21 51.79 25.129c2.911 1.4 5.797 2.776 8.688 4.11l.312.144c1.435.66 2.873 1.308 4.314 1.943l.11.048c1.474.647 2.955 1.28 4.445 1.895a128.188 128.188 0 0019.431 4.804c5.875.965 12.266 1.731 20.723 2.485a2032.864 2032.864 0 015.429.495l.916.086a903.678 903.678 0 013.15.306 627.384 627.384 0 012.959.303l.559.058c.737.079 1.467.159 2.193.24l.478.052c.666.076 1.329.153 1.988.231l.741.087c.52.063 1.037.128 1.554.192l1.036.128c7.381.95 14.012 2.22 20.273 3.884 1.657.44 3.295.917 4.912 1.427a103.14 103.14 0 0113.82 5.464l.106.049h.002c5.803 2.792 11.492 6.291 16.909 10.333.06.046.122.088.181.133.433.325.864.676 1.296 1.008 4.737 3.639 9.41 7.704 14.238 12.434 5.004 4.902 9.977 10.123 14.603 15.034 5.786 6.141 10.295 10.655 14.616 14.636a127.24 127.24 0 007.521 6.404c.897.705 1.818 1.386 2.734 2.07.416.31.82.632 1.24.938.274.198.56.385.835.583 1.078.772 2.162 1.54 3.265 2.281 5.776 3.312 11.883 6.347 17.151 8.93l1.789.867 50.602 24.552-.525-7.5-49.024-23.787c-5.618-2.723-11.614-5.682-17.395-8.856-5.518-3.471-10.971-7.38-16.262-11.648-4.709-4.217-9.61-8.847-15.017-14.188-4.684-4.625-9.69-9.54-14.878-14.307-5.309-4.881-10.405-9.062-15.582-12.781-5.438-3.905-11.083-7.307-16.875-10.09-5.767-2.796-11.96-5.151-18.406-7-6.15-1.765-12.621-3.183-19.783-4.333-6.946-1.118-13.985-2.02-20.6-2.85-7.562-.946-14.29-1.95-20.569-3.066-6.719-1.563-13.222-3.485-19.383-5.72-6.2-2.678-12.28-5.603-17.98-8.37L1528.546 2.37zm317.416 225.849l-1.441.972-10.08 6.8h-.003l-6.25 4.214.004.001-8.856 5.973-9.392 6.336-47.472-23.032-.934-.456c-5.477-2.68-10.97-5.365-16.467-8.071-4.806-2.367-11.124-5.508-17.384-8.832-6.189-3.308-11.7-6.69-16.851-10.337-5.28-3.745-10.575-8.04-15.736-12.766-4.801-4.402-9.415-8.99-14.867-14.525-5.7-5.794-10.468-10.242-15.007-14-5.288-4.376-10.787-7.97-16.35-10.682l-.13-.063c-5.61-2.719-11.894-4.836-18.677-6.293-5.75-1.236-12.229-2.234-20.387-3.14-6.67-.741-13.798-1.584-20.75-2.729-6.958-1.155-13.662-2.686-19.927-4.551-6.106-1.831-12.23-4.112-18.723-6.976h-.002c-4.821-2.138-9.672-4.394-14.363-6.574l-3.587-1.666-63.884-30.996-.847-12.101.011.005-.525-7.505-.01-.005-.844-12.1.01.004-.526-7.492-.016-.008-.35-5.04 5.879-3.968.007.004 6.256-4.218-.006-.003 10.08-6.804.007.003 6.247-4.214-.008-.004 10.081-6.799.006.003 6.246-4.211h-.001l8.16-5.505-.001-.001 10.08-6.8 49.425 23.981c5.68 2.757 11.737 5.671 17.844 8.31 6.03 2.188 12.459 4.087 19.048 5.621 6.193 1.1 12.888 2.097 20.417 3.04 6.632.831 13.689 1.737 20.668 2.86 7.242 1.163 13.79 2.596 20.016 4.384 6.556 1.882 12.857 4.278 18.727 7.124l.267.128c5.771 2.815 11.456 6.224 16.902 10.137 5.243 3.766 10.401 7.996 15.77 12.933 5.212 4.79 10.233 9.718 14.929 14.356 5.385 5.318 10.262 9.926 14.907 14.089 5.19 4.185 10.58 8.047 15.98 11.447 5.692 3.123 11.657 6.064 17.255 8.78l50.066 24.292.685 9.8.002.001.847 12.101.686 9.803-.003-.002.525 7.5.003.001.684 9.795h.001l.685 9.804.003.002.846 12.1-.008-.004.403 5.769z" fill="#25282C" fill-rule="evenodd"/></svg>