<?xml version="1.0" encoding="utf-8"?>
<!-- Generator: Adobe Illustrator 24.0.1, SVG Export Plug-In . SVG Version: 6.00 Build 0)  -->
<svg version="1.1" id="Layer_1" xmlns="http://www.w3.org/2000/svg" xmlns:xlink="http://www.w3.org/1999/xlink" x="0px" y="0px"
	 viewBox="0 0 246.54 1000" style="enable-background:new 0 0 246.54 1000;" xml:space="preserve">
<style type="text/css">
	.st0{display:none;fill:#171717;}
	.st1{fill:url(#SVGID_1_);}
</style>
<rect x="-753.46" class="st0" width="1000" height="1000"/>
<linearGradient id="SVGID_1_" gradientUnits="userSpaceOnUse" x1="-1534.8978" y1="496.1029" x2="-1316.3325" y2="496.1029" gradientTransform="matrix(-1 0 0 -1 -1288.361 996.0972)">
	<stop  offset="0" style="stop-color:#FFFFFF;stop-opacity:0.3"/>
	<stop  offset="0.0908" style="stop-color:#E9E9E9;stop-opacity:0.2728"/>
	<stop  offset="0.7244" style="stop-color:#535353;stop-opacity:0.0827"/>
	<stop  offset="1" style="stop-color:#171717;stop-opacity:0"/>
</linearGradient>
<path class="st1" d="M27.97,478.73v2.11l15.72,6.53L48.61,500l-4.92,12.61l-15.72,6.53v2.11l0.91-0.39l13.5-5.61l-4.91,9.63
	c-0.16,0.32-0.14,0.69,0.06,0.98l5.11,7.76H33c-0.35,0-0.67,0.19-0.84,0.5l-4.18,7.66l0.05,2.21l4.09,9.13
	c0.16,0.35,0.5,0.57,0.88,0.57h9.75l-4.63,7.96c-0.18,0.31-0.17,0.7,0.01,1l4.56,7.36h-9.67c-0.37,0-0.7,0.21-0.87,0.55l-4.19,8.7
	v2.14l4.18,7.77c0.17,0.31,0.5,0.51,0.85,0.51h9.81l-4.7,8.59c-0.14,0.26-0.16,0.56-0.05,0.84l3.8,9.16l-13.15-5.42l-0.75-0.22v1.99
	l14.95,6.19l5.92,13.87l-5.04,13.15l-15.21,6.32l-0.6-0.17l-0.02,2.1l0.57,0.06c0.23,0.01,0.36-0.02,0.48-0.07l13.48-5.6l-4.91,9.63
	c-0.16,0.31-0.14,0.68,0.05,0.98l5.11,7.76h-9.64c-0.35,0-0.67,0.19-0.85,0.5l-3.67,6.73l-0.62-1.04l-0.01,6.43l0.62-1.25l3.64,8.14
	c0.16,0.35,0.51,0.57,0.88,0.57h9.75l-4.63,7.96c-0.18,0.32-0.17,0.7,0.01,1l4.56,7.36h-9.67c-0.37,0-0.71,0.21-0.87,0.54
	l-3.69,7.66l-0.61-1.14l-0.02,6.23l0.61-0.99l3.68,6.86c0.17,0.31,0.5,0.51,0.85,0.51h9.81l-4.7,8.59
	c-0.14,0.27-0.16,0.57-0.04,0.84l3.8,9.16l-13.1-5.42l-0.25-0.02c-0.02,0-0.05,0-0.07,0h-0.59v2.34l0.68-0.32l14.4,5.96l5.91,13.9
	l-5.91,13.9l-14.4,5.96l-0.68-0.32v2.34h0.59c0.02,0,0.05,0,0.07,0l0.25-0.02l13.1-5.42l-3.8,9.16c-0.12,0.27-0.1,0.58,0.04,0.84
	l4.7,8.59h-9.81c-0.35,0-0.68,0.19-0.85,0.51l-3.68,6.86l-0.61-0.99l0.02,6.23l0.61-1.14l3.69,7.66c0.16,0.33,0.5,0.54,0.87,0.54
	h9.67l-4.56,7.36c-0.19,0.3-0.19,0.69-0.01,1l4.63,7.96h-9.75c-0.38,0-0.72,0.22-0.88,0.57l-3.64,8.14l-0.62-1.25l0.01,6.43
	l0.62-1.04l3.67,6.73c0.17,0.31,0.5,0.5,0.85,0.5h9.64l-5.11,7.76c-0.19,0.29-0.21,0.67-0.05,0.98l4.91,9.63l-13.48-5.6
	c-0.12-0.05-0.24-0.09-0.48-0.07l-0.57,0.06l0.02,2.1l0.6-0.17l15.21,6.32l5.04,13.15l-5.92,13.87l-14.95,6.19v1.99l0.75-0.22
	l13.15-5.42l-3.8,9.16c-0.11,0.28-0.09,0.58,0.05,0.84l4.7,8.59H33c-0.35,0-0.68,0.2-0.85,0.51l-4.18,7.77v2.14l4.19,8.7
	c0.16,0.34,0.5,0.55,0.87,0.55h9.67l-4.56,7.36c-0.19,0.31-0.19,0.69-0.01,1l4.63,7.96H33c-0.38,0-0.72,0.23-0.88,0.57l-4.09,9.13
	l-0.05,2.21l4.18,7.66c0.17,0.31,0.5,0.5,0.84,0.5h9.64l-5.11,7.76c-0.19,0.29-0.22,0.67-0.06,0.98l4.91,9.63l-13.5-5.61l-0.91-0.39
	v2.11l15.72,6.53l4.92,12.61h1.95l-0.01-0.34l-4.39-11.25l13.11,5.45l0.24,0.08h0.13c0.17,0,0.33-0.04,0.47-0.13
	c0.26-0.14,0.44-0.4,0.48-0.7l2.36-15.37l8.7,10.04c0.16,0.19,0.39,0.31,0.64,0.33l13.43,1.18L72.7,999.1
	c-0.24,0.18-0.39,0.47-0.38,0.85l0,0.04h2.61l-0.09-0.08l13.76-10.35l10.88,1.67l5.26,8.68l-0.04,0.08h2.37l-0.07-0.11l5.04-7.98
	l8.27,0.12l4.92,7.93l-0.01,0.04h2.06l0-0.09c0.01-0.19-0.04-0.38-0.14-0.54l-4.56-7.36h9.7c0.37,0,0.7-0.2,0.86-0.53l3.86-7.64
	l3.67,7.62c0.16,0.34,0.5,0.55,0.87,0.55h9.67l-4.56,7.36c-0.1,0.16-0.15,0.34-0.14,0.53l0,0.1h2.11l-0.04-0.08l4.94-7.97l8.45-0.04
	l5.16,8.08h2.13l5.27-8.7l11.26-1.46l13.42,10.16h2.42l0-0.12c0-0.3-0.15-0.6-0.38-0.77l-12.6-9.53l13.46-1.16
	c0.27-0.02,0.52-0.16,0.68-0.38l8.27-10.76l2.06,15.8c0.04,0.3,0.22,0.57,0.46,0.71c0.15,0.09,0.32,0.14,0.5,0.14l0.25-0.02
	l14.37-5.84l-4.52,11.44l-0.07,0.24v0.24h1.96l5.11-12.92l15.39-6.25l-0.01-1.85l-0.71,0.09l-13.5,5.44l4.35-9.43
	c0.14-0.29,0.12-0.64-0.04-0.91l-4.67-7.8h9.21c0.34,0,0.66-0.18,0.84-0.48l4.54-7.82v-1.62l-4.5-9.6c-0.16-0.34-0.5-0.56-0.88-0.56
	h-9.72l4.63-7.96c0.18-0.31,0.17-0.69-0.02-1l-4.56-7.35h9.7c0.37,0,0.69-0.2,0.86-0.53l4.48-8.88v-1.84l-4.54-7.96
	c-0.17-0.3-0.49-0.49-0.84-0.49h-9.24l4.93-8.18c0.16-0.26,0.18-0.6,0.06-0.89l-3.98-9.36l12.65,5.23l0.96,0.15v-1.85l-14.68-6.06
	l-5.31-14.02l4.74-13.48l15.25-6.19v-2.1l-14.1,5.73l4.35-9.44c0.13-0.29,0.12-0.63-0.05-0.91l-4.67-7.79h9.21
	c0.34,0,0.66-0.18,0.84-0.48l4.42-7.61v-2.09l-4.38-9.35c-0.16-0.34-0.5-0.55-0.87-0.55h-9.72l4.63-7.96c0.18-0.31,0.17-0.7-0.02-1
	l-4.56-7.36h9.7c0.37,0,0.7-0.2,0.86-0.53l4.36-8.63v-2.3l-4.42-7.74c-0.17-0.3-0.49-0.49-0.84-0.49h-9.24l4.92-8.17
	c0.15-0.26,0.18-0.56,0.08-0.84l-3.3-9.13l12.79,5.28v-2.1l-13.69-5.66l-5.62-14.41l5.62-14.41l13.69-5.66v-2.1l-12.79,5.28
	l3.3-9.13c0.1-0.27,0.07-0.58-0.08-0.84l-4.92-8.17h9.24c0.35,0,0.67-0.19,0.84-0.49l4.42-7.74v-2.3l-4.36-8.63
	c-0.17-0.33-0.5-0.53-0.86-0.53h-9.7l4.56-7.36c0.19-0.3,0.2-0.69,0.02-1l-4.63-7.96h9.72c0.37,0,0.71-0.22,0.87-0.55l4.38-9.35
	v-2.09l-4.42-7.61c-0.18-0.3-0.5-0.48-0.84-0.48h-9.21l4.67-7.79c0.17-0.28,0.18-0.62,0.05-0.91l-4.35-9.44l14.1,5.73v-2.1
	l-15.25-6.19l-4.74-13.48l5.31-14.02l14.68-6.06v-1.85l-0.96,0.15l-12.65,5.23l3.98-9.36c0.12-0.29,0.1-0.62-0.06-0.89l-4.93-8.18
	h9.24c0.35,0,0.67-0.19,0.84-0.49l4.54-7.96v-1.84l-4.48-8.88c-0.16-0.33-0.49-0.53-0.86-0.53h-9.7l4.56-7.35
	c0.19-0.31,0.2-0.69,0.02-1l-4.63-7.96h9.72c0.37,0,0.72-0.22,0.88-0.56l4.5-9.61v-1.62L242,534.1c-0.18-0.3-0.5-0.48-0.84-0.48
	h-9.21l4.67-7.8c0.17-0.28,0.18-0.62,0.04-0.91l-4.35-9.43l13.5,5.44l0.71,0.09l0.01-1.85l-15.39-6.25l-5.11-12.92l5.1-12.92
	l15.39-6.25l-0.01-1.85l-0.71,0.09l-13.5,5.44l4.35-9.43c0.14-0.29,0.12-0.64-0.04-0.91l-4.67-7.8h9.21c0.34,0,0.66-0.18,0.84-0.48
	l4.54-7.82v-1.62l-4.5-9.61c-0.16-0.34-0.5-0.56-0.88-0.56h-9.72l4.63-7.96c0.18-0.31,0.17-0.69-0.02-1l-4.56-7.35h9.7
	c0.37,0,0.69-0.2,0.86-0.53l4.48-8.88v-1.84l-4.54-7.96c-0.17-0.3-0.49-0.49-0.84-0.49h-9.24l4.93-8.18
	c0.16-0.26,0.18-0.6,0.06-0.89l-3.98-9.36l12.65,5.23l0.96,0.15v-1.85l-14.68-6.06l-5.31-14.02l4.74-13.48l15.25-6.19v-2.1
	l-14.1,5.73l4.35-9.44c0.13-0.29,0.12-0.63-0.05-0.91l-4.67-7.79h9.21c0.34,0,0.66-0.18,0.84-0.48l4.42-7.61v-2.09l-4.38-9.35
	c-0.16-0.34-0.5-0.55-0.87-0.55h-9.72l4.63-7.96c0.18-0.31,0.17-0.7-0.02-1l-4.56-7.36h9.7c0.37,0,0.7-0.2,0.86-0.53l4.36-8.63v-2.3
	l-4.42-7.74c-0.17-0.3-0.49-0.49-0.84-0.49h-9.24l4.92-8.17c0.15-0.26,0.18-0.56,0.08-0.84l-3.3-9.13l12.79,5.28v-2.1l-13.69-5.66
	L227.22,250l5.62-14.41l13.69-5.66v-2.1l-12.79,5.28l3.3-9.13c0.1-0.27,0.07-0.58-0.08-0.84l-4.92-8.17h9.24
	c0.35,0,0.67-0.19,0.84-0.49l4.42-7.74v-2.3l-4.36-8.63c-0.17-0.33-0.5-0.53-0.86-0.53h-9.7l4.56-7.36c0.19-0.3,0.2-0.69,0.02-1
	l-4.63-7.96h9.72c0.37,0,0.71-0.22,0.87-0.55l4.38-9.35v-2.09l-4.42-7.61c-0.18-0.3-0.5-0.48-0.84-0.48h-9.21l4.67-7.79
	c0.17-0.28,0.18-0.62,0.05-0.91l-4.35-9.44l14.1,5.73v-2.1l-15.25-6.19l-4.74-13.48l5.31-14.02l14.68-6.06v-1.85l-0.96,0.15
	l-12.65,5.23l3.98-9.36c0.12-0.29,0.1-0.62-0.06-0.89l-4.93-8.18h9.24c0.35,0,0.67-0.19,0.84-0.49l4.54-7.96v-1.84l-4.48-8.88
	c-0.16-0.33-0.49-0.53-0.86-0.53h-9.7l4.56-7.35c0.19-0.31,0.2-0.69,0.02-1l-4.63-7.96h9.72c0.37,0,0.72-0.22,0.88-0.56l4.5-9.61
	v-1.62l-4.54-7.82c-0.18-0.3-0.5-0.48-0.84-0.48h-9.21l4.67-7.8c0.17-0.28,0.18-0.62,0.04-0.91l-4.35-9.43l13.5,5.44l0.71,0.09
	l0.01-1.85l-15.39-6.25l-5.11-12.92h-1.96v0.24l0.07,0.24l4.52,11.44L214.3,6.08l-0.25-0.02c-0.18,0-0.35,0.05-0.5,0.14
	c-0.24,0.14-0.42,0.41-0.46,0.71l-2.06,15.8l-8.27-10.76c-0.17-0.22-0.41-0.35-0.68-0.38l-13.46-1.16l12.6-9.53
	c0.24-0.18,0.38-0.47,0.38-0.77l0-0.12h-2.42l-13.42,10.16L174.5,8.69l-5.27-8.7h-2.13l-5.16,8.08l-8.45-0.04l-4.94-7.97l-0.03-0.08
	h-2.05l0,0.1c0,0.19,0.05,0.37,0.14,0.53l4.56,7.36h-9.67c-0.37,0-0.71,0.22-0.87,0.55l-3.67,7.62l-3.86-7.64
	c-0.16-0.33-0.5-0.53-0.86-0.53h-9.7l4.56-7.36c0.1-0.16,0.15-0.35,0.14-0.54l0-0.09h-2.06l0.01,0.04l-4.92,7.93l-8.27,0.12
	l-5.04-7.98l0.07-0.11h-2.37l0.04,0.08l-5.26,8.68l-10.88,1.67L74.83,0.07l0.09-0.08h-2.61l0,0.04c-0.01,0.38,0.14,0.67,0.38,0.85
	l13.03,9.81L72.3,11.87c-0.25,0.02-0.48,0.14-0.64,0.33l-8.7,10.04L60.6,6.88c-0.04-0.3-0.22-0.55-0.48-0.7
	c-0.14-0.08-0.3-0.13-0.47-0.13h-0.13l-0.24,0.08l-13.11,5.45l4.39-11.25l0.01-0.34h-1.95l-4.92,12.61l-15.72,6.53v2.11l0.91-0.39
	l13.5-5.61l-4.91,9.63c-0.16,0.32-0.14,0.69,0.06,0.98l5.11,7.76H33c-0.35,0-0.67,0.19-0.84,0.5l-4.18,7.66L28.03,44l4.09,9.13
	c0.16,0.35,0.5,0.57,0.88,0.57h9.75l-4.63,7.96c-0.18,0.31-0.17,0.7,0.01,1l4.56,7.36h-9.67c-0.37,0-0.7,0.21-0.87,0.55l-4.19,8.7
	v2.14l4.18,7.77c0.17,0.31,0.5,0.51,0.85,0.51h9.81l-4.7,8.59c-0.14,0.26-0.16,0.56-0.05,0.84l3.8,9.16l-13.15-5.42l-0.75-0.22v1.99
	l14.95,6.19l5.92,13.87l-5.04,13.15l-15.21,6.32l-0.6-0.17l-0.02,2.1l0.57,0.06c0.23,0.01,0.36-0.02,0.48-0.07l13.48-5.6l-4.91,9.63
	c-0.16,0.31-0.14,0.68,0.05,0.98l5.11,7.76h-9.64c-0.35,0-0.67,0.19-0.85,0.5l-3.67,6.73l-0.62-1.04l-0.01,6.43l0.62-1.25l3.64,8.14
	c0.16,0.35,0.51,0.57,0.88,0.57h9.75l-4.63,7.96c-0.18,0.32-0.17,0.7,0.01,1l4.56,7.36h-9.67c-0.37,0-0.71,0.21-0.87,0.54
	l-3.69,7.66l-0.61-1.14l-0.02,6.23l0.61-0.99l3.68,6.86c0.17,0.31,0.5,0.51,0.85,0.51h9.81l-4.7,8.59
	c-0.14,0.27-0.16,0.57-0.04,0.84l3.8,9.16l-13.1-5.42l-0.25-0.02c-0.02,0-0.05,0-0.07,0h-0.59v2.34l0.68-0.32l14.4,5.96l5.91,13.9
	l-5.91,13.9l-14.4,5.96l-0.68-0.32v2.34h0.59c0.02,0,0.05,0,0.07,0l0.25-0.02l13.1-5.42l-3.8,9.16c-0.12,0.27-0.1,0.58,0.04,0.84
	l4.7,8.59h-9.81c-0.35,0-0.68,0.19-0.85,0.51l-3.68,6.86l-0.61-0.99l0.02,6.23l0.61-1.14l3.69,7.66c0.16,0.33,0.5,0.54,0.87,0.54
	h9.67l-4.56,7.36c-0.19,0.3-0.19,0.69-0.01,1l4.63,7.96h-9.75c-0.38,0-0.72,0.22-0.88,0.57l-3.64,8.14l-0.62-1.25l0.01,6.43
	l0.62-1.04l3.67,6.73c0.17,0.31,0.5,0.5,0.85,0.5h9.64l-5.11,7.76c-0.19,0.29-0.21,0.67-0.05,0.98l4.91,9.63l-13.48-5.6
	c-0.12-0.05-0.24-0.09-0.48-0.07l-0.57,0.06l0.02,2.1l0.6-0.17l15.21,6.32l5.04,13.15l-5.92,13.87l-14.95,6.19v1.99l0.75-0.22
	l13.15-5.42l-3.8,9.16c-0.11,0.28-0.09,0.58,0.05,0.84l4.7,8.59H33c-0.35,0-0.68,0.2-0.85,0.51l-4.18,7.77v2.14l4.19,8.7
	c0.16,0.34,0.5,0.55,0.87,0.55h9.67l-4.56,7.36c-0.19,0.31-0.19,0.69-0.01,1l4.63,7.96H33c-0.38,0-0.72,0.23-0.88,0.57l-4.09,9.13
	l-0.05,2.21l4.18,7.66c0.17,0.31,0.5,0.5,0.84,0.5h9.64l-5.11,7.76c-0.19,0.29-0.22,0.67-0.06,0.98l4.91,9.63l-13.5-5.61
	L27.97,478.73z M50.56,500.33l0.01-0.34h0l-0.01-0.33l-4.39-11.25l13.11,5.45l0.24,0.08h0.13c0.17,0,0.33-0.04,0.47-0.13
	c0.26-0.14,0.44-0.4,0.48-0.7l2.36-15.37l8.7,10.04c0.16,0.19,0.39,0.31,0.64,0.33l13.43,1.18l-13.03,9.81
	c-0.24,0.18-0.39,0.47-0.38,0.85l0,0.04h0l0,0.04c-0.01,0.38,0.14,0.67,0.38,0.85l13.03,9.81l-13.43,1.17
	c-0.25,0.02-0.48,0.14-0.64,0.33l-8.7,10.04l-2.36-15.37c-0.04-0.3-0.22-0.55-0.48-0.7c-0.14-0.08-0.3-0.13-0.47-0.13h-0.13
	l-0.24,0.08l-13.11,5.45L50.56,500.33z M50.14,455.02l-3.97-6.69l8.24-0.09c0.34-0.01,0.65-0.19,0.82-0.49l4.42-7.87l4.47,8.63
	c0.15,0.3,0.44,0.5,0.78,0.52l9.96,0.8l-10.53,8.04c-0.1,0.08-0.18,0.17-0.28,0.36l-2.38,14.76l-5.93-8.17
	c-0.18-0.25-0.47-0.4-0.78-0.4h-8.95l4.19-8.48C50.33,455.64,50.31,455.3,50.14,455.02z M50.22,420.38l-4.2-8.15h9.57
	c0.3,0,0.58-0.14,0.77-0.38l5.88-7.73l1.39,12.98c0.02,0.19,0.1,0.36,0.21,0.49l11.22,8.54l-9.75,1.26c-0.3,0.04-0.56,0.21-0.7,0.46
	L59.67,436l-4.87-7.64c-0.18-0.28-0.48-0.44-0.81-0.44l-7.72,0.03l3.93-6.62C50.36,421.04,50.37,420.68,50.22,420.38z M50.27,329.76
	l-3.97-6.7l8.24-0.09c0.34-0.01,0.66-0.2,0.82-0.49l4.42-7.87l4.47,8.64c0.16,0.3,0.45,0.49,0.78,0.52l9.96,0.8l-10.52,8.03
	c-0.1,0.08-0.18,0.17-0.19,0.2l-2.48,14.93l-5.94-8.17c-0.18-0.25-0.47-0.4-0.78-0.4h-8.95l4.19-8.48
	C50.45,330.39,50.44,330.03,50.27,329.76z M50.34,295.13l-4.2-8.15h9.58c0.29,0,0.58-0.14,0.77-0.38l5.89-7.74l1.39,12.98
	c0.02,0.17,0.09,0.34,0.23,0.52l11.2,8.51l-9.74,1.26c-0.29,0.04-0.56,0.21-0.71,0.46l-4.95,8.16l-4.86-7.63
	c-0.18-0.28-0.46-0.44-0.82-0.45l-7.72,0.03l3.93-6.63C50.49,295.78,50.5,295.42,50.34,295.13z M50.31,203.92l-3.93-6.63l7.72,0.03
	c0.36-0.01,0.64-0.17,0.82-0.45l4.86-7.63l4.95,8.16c0.15,0.25,0.42,0.42,0.71,0.46l9.74,1.26l-11.2,8.51
	c-0.14,0.18-0.21,0.34-0.23,0.52l-1.39,12.98l-5.89-7.74c-0.19-0.24-0.47-0.38-0.77-0.38h-9.58l4.2-8.15
	C50.5,204.57,50.49,204.21,50.31,203.92z M50.3,169.3l-4.19-8.48h8.95c0.3,0,0.6-0.15,0.78-0.4l5.94-8.17l2.48,14.93
	c0,0.02,0.09,0.12,0.19,0.2l10.52,8.03l-9.96,0.8c-0.33,0.02-0.62,0.22-0.78,0.52l-4.47,8.64l-4.42-7.87
	c-0.16-0.3-0.48-0.49-0.82-0.49l-8.24-0.09l3.97-6.7C50.44,169.96,50.45,169.6,50.3,169.3z M50.19,78.66l-3.93-6.62l7.72,0.03
	c0.33,0,0.64-0.17,0.81-0.44l4.87-7.64l4.95,8.16c0.15,0.25,0.4,0.42,0.7,0.46l9.75,1.26l-11.22,8.54c-0.11,0.13-0.19,0.3-0.21,0.49
	l-1.39,12.98l-5.88-7.73c-0.19-0.24-0.47-0.38-0.77-0.38h-9.57l4.2-8.15C50.37,79.31,50.36,78.95,50.19,78.66z M224.21,79.63
	l4.37,8.15h-9.63c-0.3,0-0.59,0.14-0.77,0.38l-5.85,7.77l-1.29-13.09c0,0-0.02-0.08-0.07-0.16c-0.05-0.09-0.14-0.19-0.25-0.28
	l-11.03-8.3l9.45-1.45c0.29-0.05,0.54-0.22,0.68-0.46l4.97-8.2l4.83,7.63c0.17,0.28,0.48,0.45,0.79,0.45l0.14-0.01l7.57-0.1
	l-3.89,6.71C224.06,78.97,224.05,79.34,224.21,79.63z M224.12,170.41l3.93,6.63l-7.72-0.03c-0.35,0-0.67,0.19-0.84,0.49l-4.6,8.01
	l-5.26-8.83c-0.15-0.26-0.41-0.43-0.7-0.47l-8.82-1.06l10.19-7.74c0.21-0.16,0.34-0.39,0.38-0.65l1.87-14.39l5.59,8
	c0.18,0.26,0.48,0.41,0.79,0.41l9.82,0.05l-4.65,8.63C223.94,169.74,223.94,170.11,224.12,170.41z M224.33,204.89l4.37,8.15h-9.63
	c-0.31,0-0.59,0.14-0.77,0.39l-5.84,7.76l-1.29-13.09c0,0,0,0,0,0c0,0-0.02-0.1-0.1-0.21c-0.01-0.05-0.11-0.16-0.23-0.25
	l-11.02-8.29l9.45-1.45c0.28-0.04,0.53-0.2,0.68-0.45l4.97-8.2l4.83,7.64c0.17,0.26,0.49,0.44,0.81,0.45l7.68-0.11l-3.89,6.71
	C224.18,204.24,224.18,204.59,224.33,204.89z M212.46,278.81l5.84,7.76c0.18,0.25,0.46,0.39,0.77,0.39h9.63l-4.37,8.15
	c-0.16,0.3-0.15,0.65,0.01,0.95l3.89,6.71l-7.68-0.11c-0.32,0.01-0.64,0.18-0.81,0.45l-4.83,7.64l-4.97-8.2
	c-0.15-0.25-0.4-0.42-0.68-0.45l-9.45-1.45l11.02-8.29c0.12-0.09,0.22-0.2,0.23-0.25c0.08-0.1,0.1-0.21,0.1-0.21c0,0,0,0,0,0
	L212.46,278.81z M224.1,330.55l4.65,8.63l-9.82,0.05c-0.31,0-0.61,0.15-0.79,0.41l-5.59,8l-1.87-14.39
	c-0.03-0.25-0.17-0.49-0.38-0.65l-10.19-7.74l8.82-1.06c0.29-0.04,0.55-0.21,0.7-0.47l5.26-8.83l4.6,8.01
	c0.17,0.3,0.49,0.49,0.84,0.49l7.72-0.03l-3.93,6.63C223.94,329.88,223.94,330.25,224.1,330.55z M224.23,421.31l3.89,6.71l-7.57-0.1
	l-0.14-0.01c-0.31,0-0.61,0.18-0.79,0.45l-4.83,7.63l-4.97-8.2c-0.14-0.24-0.39-0.4-0.68-0.46l-9.45-1.45l11.03-8.3
	c0.11-0.09,0.2-0.19,0.25-0.28c0.05-0.08,0.07-0.16,0.07-0.16l1.29-13.09l5.85,7.77c0.18,0.24,0.47,0.38,0.77,0.38h9.63l-4.37,8.15
	C224.05,420.65,224.06,421.02,224.23,421.31z M223.97,455.8l4.65,8.63l-9.82,0.05c-0.31,0-0.59,0.15-0.77,0.39l-5.68,7.5l-1.8-13.87
	c-0.04-0.26-0.17-0.49-0.38-0.65l-10.19-7.74l8.81-1.06c0.3-0.04,0.56-0.21,0.71-0.46l5.26-8.84l4.6,8.01
	c0.17,0.3,0.49,0.49,0.84,0.49h0l7.72-0.03l-3.93,6.63C223.82,455.13,223.81,455.5,223.97,455.8z M224,545.15l3.93,6.63l-7.72-0.03
	h0c-0.35,0-0.67,0.19-0.84,0.49l-4.6,8.01l-5.26-8.84c-0.15-0.26-0.41-0.43-0.71-0.46l-8.81-1.06l10.19-7.74
	c0.21-0.15,0.34-0.39,0.38-0.65l1.8-13.87l5.68,7.5c0.17,0.24,0.46,0.39,0.77,0.39l9.82,0.05l-4.65,8.63
	C223.81,544.49,223.82,544.86,224,545.15z M224.21,579.63l4.37,8.15h-9.63c-0.3,0-0.59,0.14-0.77,0.38l-5.85,7.77l-1.29-13.09
	c0,0-0.02-0.08-0.07-0.16c-0.05-0.09-0.14-0.19-0.25-0.28l-11.03-8.3l9.45-1.45c0.29-0.05,0.54-0.22,0.68-0.46l4.97-8.2l4.83,7.63
	c0.17,0.28,0.48,0.45,0.79,0.45l0.14-0.01l7.57-0.1l-3.89,6.71C224.06,578.97,224.05,579.34,224.21,579.63z M224.12,670.4l3.93,6.63
	l-7.72-0.03c-0.35,0-0.67,0.19-0.84,0.49l-4.6,8.01l-5.26-8.83c-0.15-0.26-0.41-0.43-0.7-0.47l-8.82-1.06l10.19-7.74
	c0.21-0.16,0.34-0.4,0.38-0.65l1.87-14.39l5.59,8c0.18,0.26,0.48,0.41,0.79,0.41l9.82,0.05l-4.65,8.63
	C223.94,669.74,223.95,670.11,224.12,670.4z M224.34,704.88l4.37,8.15h-9.63c-0.31,0-0.59,0.14-0.77,0.39l-5.84,7.76l-1.29-13.09
	c0,0,0,0,0,0c0,0-0.02-0.1-0.1-0.21c-0.01-0.05-0.11-0.16-0.23-0.25l-11.02-8.29l9.45-1.45c0.28-0.04,0.53-0.2,0.68-0.45l4.97-8.2
	l4.83,7.64c0.17,0.26,0.49,0.44,0.81,0.45l7.68-0.11l-3.89,6.71C224.18,704.24,224.18,704.59,224.34,704.88z M212.46,778.8
	l5.84,7.76c0.18,0.25,0.46,0.39,0.77,0.39h9.63l-4.37,8.15c-0.16,0.3-0.15,0.65,0.01,0.95l3.89,6.71l-7.68-0.11
	c-0.32,0.01-0.64,0.18-0.81,0.45l-4.83,7.64l-4.97-8.2c-0.15-0.25-0.4-0.42-0.68-0.45l-9.45-1.45l11.02-8.29
	c0.12-0.09,0.22-0.2,0.23-0.25c0.08-0.1,0.1-0.21,0.1-0.21c0,0,0,0,0,0L212.46,778.8z M224.1,830.54l4.65,8.63l-9.82,0.05
	c-0.31,0-0.61,0.15-0.79,0.41l-5.59,8l-1.87-14.39c-0.03-0.25-0.17-0.49-0.38-0.65l-10.19-7.74l8.82-1.06
	c0.29-0.04,0.55-0.21,0.7-0.47l5.26-8.83l4.6,8.01c0.17,0.3,0.49,0.49,0.84,0.49l7.72-0.03l-3.93,6.63
	C223.95,829.88,223.94,830.25,224.1,830.54z M224.23,921.31l3.89,6.71l-7.57-0.1l-0.14-0.01c-0.31,0-0.61,0.18-0.79,0.45l-4.83,7.63
	l-4.97-8.2c-0.14-0.24-0.39-0.4-0.68-0.46l-9.45-1.45l11.03-8.3c0.11-0.09,0.2-0.19,0.25-0.28c0.05-0.08,0.07-0.16,0.07-0.16
	l1.29-13.09l5.85,7.77c0.18,0.24,0.47,0.38,0.77,0.38h9.63l-4.37,8.15C224.05,920.65,224.06,921.02,224.23,921.31z M50.22,920.38
	l-4.2-8.15h9.57c0.3,0,0.58-0.14,0.77-0.38l5.88-7.73l1.39,12.98c0.02,0.19,0.1,0.36,0.21,0.49l11.22,8.54l-9.75,1.26
	c-0.3,0.04-0.56,0.21-0.7,0.46L59.67,936l-4.87-7.64c-0.18-0.28-0.48-0.44-0.81-0.44l-7.72,0.03l3.93-6.62
	C50.36,921.04,50.37,920.68,50.22,920.38z M50.27,829.76l-3.97-6.7l8.24-0.09c0.34-0.01,0.66-0.2,0.82-0.49l4.42-7.87l4.47,8.64
	c0.16,0.3,0.45,0.49,0.78,0.52l9.96,0.8l-10.52,8.03c-0.1,0.08-0.18,0.17-0.19,0.2l-2.48,14.93l-5.94-8.17
	c-0.18-0.25-0.47-0.4-0.78-0.4h-8.95l4.19-8.48C50.45,830.39,50.44,830.03,50.27,829.76z M50.34,795.12l-4.2-8.15h9.58
	c0.29,0,0.58-0.14,0.77-0.38l5.89-7.74l1.39,12.98c0.02,0.17,0.09,0.34,0.23,0.52l11.2,8.51l-9.74,1.26
	c-0.29,0.04-0.56,0.21-0.71,0.46l-4.95,8.16l-4.86-7.63c-0.18-0.28-0.46-0.44-0.82-0.45l-7.72,0.03l3.93-6.63
	C50.49,795.78,50.5,795.42,50.34,795.12z M50.31,703.92l-3.93-6.63l7.72,0.03c0.36-0.01,0.64-0.17,0.82-0.45l4.86-7.63l4.95,8.16
	c0.15,0.25,0.42,0.42,0.71,0.46l9.74,1.26l-11.2,8.51c-0.14,0.18-0.21,0.34-0.23,0.52l-1.39,12.98l-5.89-7.74
	c-0.19-0.24-0.47-0.38-0.77-0.38h-9.58l4.2-8.15C50.5,704.57,50.49,704.21,50.31,703.92z M50.31,669.3l-4.19-8.48h8.95
	c0.3,0,0.6-0.15,0.78-0.4l5.94-8.17l2.48,14.93c0,0.02,0.09,0.12,0.19,0.2l10.52,8.03l-9.96,0.8c-0.33,0.02-0.62,0.22-0.78,0.52
	l-4.47,8.64l-4.42-7.87c-0.16-0.3-0.48-0.49-0.82-0.49l-8.24-0.09l3.97-6.7C50.44,669.96,50.45,669.6,50.31,669.3z M50.19,578.66
	l-3.93-6.62l7.72,0.03c0.33,0,0.64-0.17,0.81-0.44l4.87-7.64l4.95,8.16c0.15,0.25,0.4,0.42,0.7,0.46l9.75,1.26l-11.22,8.54
	c-0.11,0.13-0.19,0.3-0.21,0.49l-1.39,12.98l-5.88-7.73c-0.19-0.24-0.47-0.38-0.77-0.38h-9.57l4.2-8.15
	C50.37,579.3,50.36,578.95,50.19,578.66z M50.19,544.05L46,535.57h8.95c0.3,0,0.59-0.15,0.78-0.4l5.93-8.17l2.38,14.76
	c0.1,0.19,0.18,0.28,0.28,0.36l10.53,8.04l-9.96,0.8c-0.34,0.03-0.63,0.23-0.78,0.52l-4.47,8.63l-4.42-7.87
	c-0.17-0.3-0.48-0.49-0.82-0.49l-8.24-0.09l3.97-6.69C50.31,544.69,50.33,544.35,50.19,544.05z M74.92,500L74.92,500L74.92,500
	L74.92,500L74.92,500l-0.08-0.08l13.76-10.35l10.88,1.67l5.26,8.68l-0.04,0.08h0l0,0l0,0h0l0.04,0.08l-5.26,8.68l-10.88,1.67
	l-13.76-10.35L74.92,500z M92.87,313.35c0.24-0.18,0.39-0.47,0.39-0.78c0-0.3-0.14-0.6-0.39-0.78l-12.6-9.54l14.23-1.89
	c0.25-0.03,0.48-0.16,0.63-0.36l7.8-9.94l1.97,15.17c0.04,0.31,0.22,0.56,0.46,0.7c0.15,0.1,0.32,0.14,0.5,0.14l0.25-0.02
	l14.45-5.86l-4.41,12.11c-0.08,0.22-0.08,0.47,0.01,0.69l4.99,12.63l-15.22-6.35l-0.25-0.08h-0.13c-0.16,0-0.33,0.04-0.5,0.14
	c-0.26,0.16-0.43,0.43-0.46,0.73l-1.73,16.42l-7.92-11.09c-0.15-0.23-0.4-0.37-0.67-0.41l-14.23-1.84L92.87,313.35z M77.29,322.81
	l-11.58-0.93l-4.79-9.25l5.23-8.63l11.26-1.46l13.28,10.05L77.29,322.81z M92.86,188.19c0.24-0.18,0.39-0.47,0.39-0.78
	c0-0.3-0.14-0.59-0.39-0.78l-12.83-9.8L94.26,175c0.27-0.03,0.52-0.18,0.67-0.41l7.92-11.09l1.73,16.42c0.03,0.3,0.2,0.57,0.46,0.73
	c0.17,0.1,0.34,0.14,0.5,0.14h0.13l0.25-0.08l15.22-6.35l-4.99,12.63c-0.09,0.23-0.09,0.47-0.01,0.69l4.41,12.11l-14.45-5.86
	l-0.25-0.02c-0.18,0-0.35,0.05-0.5,0.14c-0.24,0.14-0.42,0.39-0.46,0.7l-1.97,15.17l-7.8-9.94c-0.15-0.2-0.38-0.33-0.63-0.36
	l-14.23-1.89L92.86,188.19z M77.41,197.46L66.15,196l-5.23-8.63l4.79-9.25l11.58-0.93l13.4,10.22L77.41,197.46z M181.75,186.64
	c-0.24,0.18-0.39,0.47-0.39,0.78c0,0.3,0.15,0.6,0.39,0.78l13.06,9.83l-12.89,1.36c-0.26,0.03-0.48,0.15-0.64,0.34l-9.05,10.8
	l-2.43-15.79c-0.05-0.29-0.23-0.55-0.48-0.7c-0.26-0.14-0.58-0.16-0.85-0.04l-13.09,5.44L160,187.7c0.09-0.24,0.09-0.5-0.01-0.74
	l-5.3-12.52l15.14,6.27c0.28,0.12,0.59,0.09,0.85-0.05c0.27-0.17,0.45-0.44,0.48-0.74l1.72-16.22l7.44,10.96
	c0.16,0.24,0.42,0.39,0.7,0.42l14.15,1.37L181.75,186.64z M197.88,176.82l10.33,1.24l5.56,9.34l-5.24,8.65l-10.88,1.67l-13.71-10.32
	L197.88,176.82z M181.76,311.8c-0.24,0.18-0.39,0.47-0.39,0.78c0,0.31,0.15,0.6,0.39,0.78l13.4,10.18l-14.15,1.37
	c-0.28,0.03-0.54,0.18-0.7,0.42l-7.44,10.96l-1.72-16.22c-0.03-0.3-0.21-0.57-0.48-0.74c-0.25-0.15-0.56-0.17-0.85-0.05l-15.14,6.27
	l5.3-12.52c0.1-0.24,0.1-0.5,0.01-0.74l-4.61-11.72l13.09,5.44c0.27,0.12,0.59,0.1,0.85-0.04c0.25-0.14,0.43-0.4,0.48-0.7
	l2.43-15.79l9.05,10.8c0.16,0.19,0.38,0.31,0.64,0.34l12.89,1.36L181.76,311.8z M197.65,302.26l10.88,1.67l5.24,8.65l-5.56,9.34
	l-10.33,1.24l-13.94-10.59L197.65,302.26z M181.65,437.05c-0.25,0.18-0.4,0.47-0.4,0.78c0,0.31,0.14,0.6,0.38,0.79l13.36,10.15
	l-14.26,1.72c-0.26,0.03-0.49,0.17-0.65,0.37l-7.93,10.26l-1.74-16.45c-0.03-0.31-0.2-0.57-0.47-0.73c-0.15-0.09-0.32-0.14-0.5-0.14
	l-0.25,0.02l-14.6,6.04l5.22-11.78c0.1-0.24,0.11-0.5,0.01-0.75l-4.45-11.48l13.11,5.45c0.27,0.11,0.58,0.1,0.85-0.05
	c0.26-0.15,0.43-0.4,0.47-0.69l2.33-15.17l7.73,10.17c0.16,0.22,0.41,0.36,0.7,0.39l14.3,1.15L181.65,437.05z M197.53,427.52
	l10.88,1.67l5.24,8.65l-5.56,9.34l-10.34,1.25l-13.94-10.59L197.53,427.52z M181.63,561.38c-0.24,0.18-0.39,0.48-0.38,0.79
	c0,0.3,0.15,0.6,0.4,0.78l13.22,9.95l-14.3,1.15c-0.28,0.03-0.53,0.17-0.7,0.39l-7.73,10.17l-2.33-15.17
	c-0.05-0.3-0.22-0.55-0.47-0.69c-0.27-0.15-0.58-0.17-0.85-0.05l-13.11,5.45l4.45-11.48c0.09-0.25,0.09-0.51-0.01-0.75l-5.22-11.78
	l14.6,6.04l0.25,0.02c0.17,0,0.34-0.05,0.5-0.14c0.26-0.16,0.43-0.42,0.47-0.73l1.74-16.45l7.93,10.26c0.16,0.2,0.39,0.34,0.65,0.37
	l14.26,1.72L181.63,561.38z M197.76,551.56l10.34,1.25l5.56,9.34l-5.24,8.65l-10.88,1.67l-13.71-10.32L197.76,551.56z
	 M181.76,686.64c-0.24,0.18-0.39,0.47-0.39,0.78c0,0.3,0.15,0.6,0.39,0.78l13.06,9.83l-12.89,1.36c-0.26,0.03-0.48,0.15-0.64,0.34
	l-9.05,10.8l-2.43-15.79c-0.05-0.29-0.23-0.55-0.48-0.7c-0.26-0.14-0.58-0.16-0.85-0.04l-13.09,5.44L160,687.7
	c0.09-0.24,0.09-0.5-0.01-0.74l-5.3-12.52l15.14,6.27c0.28,0.12,0.59,0.09,0.85-0.05c0.27-0.17,0.45-0.44,0.48-0.74l1.72-16.22
	l7.44,10.96c0.16,0.24,0.42,0.39,0.7,0.42l14.15,1.37L181.76,686.64z M197.88,676.82l10.33,1.24l5.56,9.34l-5.24,8.65l-10.88,1.67
	l-13.71-10.32L197.88,676.82z M181.76,811.8c-0.24,0.18-0.39,0.47-0.39,0.78c0,0.31,0.15,0.6,0.39,0.78l13.4,10.18l-14.15,1.37
	c-0.28,0.03-0.54,0.18-0.7,0.42l-7.44,10.96l-1.72-16.22c-0.03-0.3-0.21-0.57-0.48-0.74c-0.26-0.15-0.56-0.17-0.85-0.05l-15.14,6.27
	l5.3-12.52c0.1-0.24,0.1-0.5,0.01-0.74l-4.61-11.72l13.09,5.44c0.27,0.12,0.59,0.1,0.85-0.04c0.25-0.14,0.43-0.4,0.48-0.7
	l2.43-15.79l9.05,10.8c0.16,0.19,0.38,0.31,0.64,0.34l12.89,1.36L181.76,811.8z M197.66,802.26l10.88,1.67l5.24,8.65l-5.56,9.34
	l-10.33,1.24l-13.94-10.59L197.66,802.26z M92.87,813.35c0.24-0.18,0.39-0.47,0.39-0.78c0-0.3-0.14-0.6-0.39-0.78l-12.6-9.54
	l14.23-1.89c0.25-0.03,0.48-0.16,0.63-0.36l7.8-9.94l1.97,15.17c0.04,0.31,0.22,0.56,0.46,0.7c0.15,0.1,0.32,0.14,0.5,0.14
	l0.25-0.02l14.45-5.86l-4.41,12.11c-0.08,0.22-0.08,0.47,0.01,0.69l4.99,12.63l-15.22-6.35l-0.25-0.08h-0.13
	c-0.16,0-0.33,0.04-0.5,0.14c-0.26,0.16-0.43,0.43-0.46,0.73l-1.73,16.42l-7.92-11.09c-0.15-0.23-0.4-0.37-0.67-0.41l-14.23-1.84
	L92.87,813.35z M77.29,822.8l-11.58-0.93l-4.79-9.25l5.23-8.63l11.26-1.46l13.28,10.05L77.29,822.8z M92.86,688.19
	c0.24-0.18,0.39-0.47,0.39-0.78c0-0.3-0.14-0.59-0.39-0.78l-12.83-9.8L94.26,675c0.27-0.03,0.52-0.18,0.67-0.41l7.92-11.09
	l1.73,16.42c0.03,0.3,0.2,0.57,0.46,0.73c0.17,0.1,0.34,0.14,0.5,0.14h0.13l0.25-0.08l15.22-6.35l-4.99,12.63
	c-0.09,0.23-0.09,0.47-0.01,0.69l4.41,12.11l-14.45-5.86l-0.25-0.02c-0.18,0-0.35,0.05-0.5,0.14c-0.24,0.14-0.42,0.39-0.46,0.7
	l-1.97,15.17l-7.8-9.94c-0.15-0.2-0.38-0.33-0.63-0.36l-14.23-1.89L92.86,688.19z M77.41,697.45l-11.26-1.46l-5.23-8.63l4.79-9.25
	l11.58-0.93l13.4,10.22L77.41,697.45z M92.74,562.93c0.24-0.18,0.38-0.47,0.39-0.77c0-0.31-0.14-0.59-0.38-0.78L80,551.64
	l13.58-1.38c0.28-0.03,0.53-0.17,0.69-0.4l7.68-10.76l1.55,16.2c0.03,0.3,0.2,0.58,0.46,0.74c0.15,0.09,0.32,0.14,0.5,0.14h0.13
	l0.24-0.07l16.46-6.8l-5.37,12.6c-0.1,0.23-0.11,0.49-0.01,0.73l4.58,11.83l-14.39-5.84l-0.25-0.02c-0.17,0-0.35,0.05-0.49,0.14
	c-0.25,0.14-0.43,0.4-0.47,0.7l-1.97,15.17l-7.99-10.22c-0.17-0.21-0.41-0.34-0.66-0.37l-14.26-1.47L92.74,562.93z M77.28,572.2
	l-11.26-1.46l-5.23-8.63l4.79-9.25l11.58-0.93l13.39,10.23L77.28,572.2z M107.06,500L107.06,500L107.06,500l-0.07-0.11l5.04-7.98
	l8.27,0.12l4.92,7.93l-0.01,0.03l0,0v0l0,0h0l0.01,0.03l-4.92,7.93l-8.27,0.12l-5.04-7.98L107.06,500L107.06,500L107.06,500z
	 M103.39,466.11l5.84,7.77c0.19,0.24,0.47,0.38,0.77,0.38h9.64l-4.37,8.14c-0.16,0.3-0.16,0.67,0.01,0.96l3.89,6.71l-7.71-0.11
	c-0.31,0-0.62,0.18-0.79,0.45l-4.83,7.63l-4.97-8.2c-0.15-0.26-0.4-0.42-0.68-0.46l-9.45-1.45l11.03-8.3
	c0.11-0.09,0.2-0.19,0.21-0.23c0.07-0.1,0.1-0.19,0.1-0.19c0,0,0,0,0,0L103.39,466.11z M107.71,249.98l4.85-8.44l8.46,0.03l4.88,8.4
	l-0.02,0.03l0.02,0.03l-4.88,8.4l-8.46,0.03l-4.85-8.44l0.01-0.02L107.71,249.98z M128.64,160.45l-4.92-8.18h9.24
	c0.35,0,0.67-0.19,0.84-0.49l3.91-6.85l3.66,6.81c0.17,0.32,0.5,0.51,0.85,0.51h9.81l-4.7,8.59c-0.14,0.26-0.16,0.57-0.04,0.85
	l3.8,9.15l-13.1-5.43l-0.36-0.02l-0.23,0.06l-12.67,5.24l3.98-9.36C128.83,161.05,128.81,160.72,128.64,160.45z M149.25,161.37
	l4.98-9.11h10.11l6.85,9l-1.82,17.17l-15.76-6.53L149.25,161.37z M153.07,150.31h-10.27l-3.98-7.4l4.04-8.39h10.34l4.28,7.22
	L153.07,150.31z M149.3,124.69l4.97-8.54l8.77,0.1l4.74,8.43l-5.1,8l-8.45-0.03L149.3,124.69z M153.09,114.31h-10.25l-4.01-8.95
	l3.95-7.24h10.27l4.38,8.87L153.09,114.31z M141.34,115.68c0.16,0.35,0.5,0.57,0.88,0.57h9.76l-4.63,7.96
	c-0.18,0.31-0.18,0.69,0.01,1l4.56,7.36h-9.67c-0.37,0-0.71,0.21-0.87,0.55l-3.67,7.62l-3.86-7.64c-0.16-0.33-0.49-0.53-0.86-0.53
	h-9.7l4.56-7.36c0.19-0.31,0.2-0.7,0.01-1.01l-4.63-7.96h9.72c0.37,0,0.72-0.22,0.87-0.56l3.87-8.13L141.34,115.68z M132.35,114.31
	h-10.39l-4.23-7.13l4.88-9.06h9.79l4.21,7.25L132.35,114.31z M125.91,124.69l-4.88,7.87l-8.27,0.12l-5.05-8l4.85-8.44l8.46,0.04
	L125.91,124.69z M122.16,134.52h10.25l4.23,8.38l-4.23,7.42h-9.82l-4.61-8.59L122.16,134.52z M126.74,161.03l-4.6,10.8l-15.78,6.58
	l-1.82-17.26l6.69-8.88h10.23L126.74,161.03z M123.63,173.32l14.11-5.89l14.41,5.97l5.92,13.97l-5.15,13.1l-15.18,6.3l-14.76-5.99
	l-4.88-13.42L123.63,173.32z M167.77,250.02l-4.73,8.43l-8.77,0.1l-4.97-8.54l0.01-0.01l-0.01-0.01l4.97-8.54l8.77,0.1l4.73,8.43
	l-0.02,0.03L167.77,250.02z M128.41,286.32l-4.67-7.79h9.21c0.34,0,0.67-0.19,0.83-0.48l3.91-6.74l3.67,6.72
	c0.17,0.31,0.5,0.5,0.84,0.5h9.64l-5.11,7.75c-0.2,0.29-0.22,0.67-0.06,0.99l4.91,9.63l-13.49-5.61c-0.12-0.05-0.25-0.08-0.38-0.08
	l-0.25,0.02l-13.38,5.43l4.35-9.43C128.6,286.93,128.58,286.59,128.41,286.32z M127.87,249.51l-4.63-7.96h9.72
	c0.37,0,0.72-0.22,0.87-0.55l3.87-8.13l3.63,8.11c0.15,0.35,0.5,0.57,0.88,0.57h9.76l-4.63,7.96c-0.08,0.14-0.12,0.31-0.12,0.49
	c0,0.17,0.04,0.34,0.12,0.49l4.63,7.96h-9.76c-0.38,0-0.72,0.23-0.88,0.57l-3.63,8.11l-3.87-8.13c-0.16-0.34-0.5-0.55-0.87-0.55
	h-9.72l4.63-7.96c0.08-0.15,0.12-0.31,0.12-0.48C127.99,249.83,127.96,249.66,127.87,249.51z M128.46,212.76l-4.35-9.43l13.38,5.43
	l0.25,0.02c0.13,0,0.25-0.03,0.38-0.08l13.49-5.61l-4.91,9.63c-0.16,0.31-0.14,0.69,0.06,0.99l5.11,7.75h-9.64
	c-0.35,0-0.67,0.19-0.84,0.5l-3.67,6.72l-3.91-6.74c-0.17-0.3-0.49-0.48-0.83-0.48h-9.21l4.67-7.79
	C128.58,213.4,128.6,213.06,128.46,212.76z M148.67,286.88l5.51-8.36h9.53l6.9,8.78c0,0.02,0.01,0.04,0.01,0.06l-2.51,16.38
	l-13.74-5.71L148.67,286.88z M153.06,276.58h-10.27l-3.95-7.24l4.01-8.95h10.25l4.35,7.33L153.06,276.58z M153.09,239.61h-10.25
	l-4.01-8.95l3.95-7.24h10.27l4.38,8.87L153.09,239.61z M148.67,213.11l5.69-11.16l13.74-5.71l2.51,16.38c0,0.02-0.01,0.04-0.01,0.06
	l-6.9,8.78h-9.53L148.67,213.11z M126.49,213.12l-5,8.35l-10.39-0.06l-6.51-9.32l2.06-15.84l14.84,6.02L126.49,213.12z
	 M122.61,223.42h9.79l4.21,7.24l-4.26,8.95h-10.39l-4.23-7.13L122.61,223.42z M121.97,260.38h10.39l4.26,8.95l-4.21,7.24h-9.79
	l-4.88-9.06L121.97,260.38z M126.49,286.87l-5,10.85l-14.84,6.02l-2.06-15.84l6.51-9.32l10.39-0.06L126.49,286.87z M122.96,299.22
	l14.76-5.99l15.18,6.3l5.15,13.1l-5.92,13.97l-14.41,5.97l-14.11-5.89l-5.54-14.04L122.96,299.22z M128.41,411.61l-4.67-7.79h9.21
	c0.35,0,0.67-0.19,0.83-0.48l3.91-6.74l3.67,6.72c0.17,0.31,0.5,0.5,0.84,0.5h9.64l-5.11,7.75c-0.2,0.29-0.22,0.67-0.06,0.98
	l4.91,9.63l-13.5-5.61c-0.12-0.05-0.24-0.07-0.37-0.07l-0.25,0.02l-13.38,5.43l4.35-9.43C128.6,412.23,128.58,411.89,128.41,411.61z
	 M127.86,374.77l-4.56-7.36h9.7c0.37,0,0.7-0.2,0.86-0.53l3.86-7.64l3.67,7.62c0.16,0.34,0.5,0.55,0.87,0.55h9.67l-4.56,7.36
	c-0.19,0.31-0.19,0.69-0.01,1l4.63,7.96h-9.76c-0.38,0-0.72,0.22-0.88,0.57l-3.63,8.11l-3.87-8.13c-0.16-0.34-0.5-0.56-0.87-0.56
	h-9.72l4.63-7.96C128.05,375.47,128.05,375.08,127.86,374.77z M128.71,338.66l-3.98-9.36l12.67,5.24l0.23,0.06l0.36-0.02l13.1-5.43
	l-3.8,9.15c-0.12,0.27-0.1,0.59,0.04,0.85l4.7,8.59h-9.81c-0.35,0-0.68,0.2-0.85,0.51l-3.66,6.81l-3.91-6.85
	c-0.17-0.3-0.49-0.49-0.84-0.49h-9.24l4.92-8.18C128.81,339.27,128.83,338.94,128.71,338.66z M148.67,412.18l5.51-8.36h9.5
	l6.84,9.42l-2.43,15.8l-13.74-5.71L148.67,412.18z M153.06,401.88h-10.27l-3.95-7.24l4.01-8.95h10.25l4.35,7.33L153.06,401.88z
	 M149.3,375.3l4.93-7.95l8.45-0.03l5.1,8l-4.74,8.43l-8.77,0.1L149.3,375.3z M153.19,365.47h-10.34l-4.04-8.39l3.98-7.4h10.27
	l4.41,8.56L153.19,365.47z M149.25,338.62l4.37-10.52l15.76-6.53l1.82,17.17l-6.85,9h-10.11L149.25,338.62z M126.74,338.96
	l-5.28,8.76h-10.23l-6.69-8.88l1.82-17.26l15.78,6.58L126.74,338.96z M122.58,349.66h9.82l4.23,7.42l-4.23,8.38h-10.25l-4.18-7.22
	L122.58,349.66z M125.91,375.3l-4.9,8.41l-8.46,0.04l-4.85-8.44l5.05-8l8.27,0.12L125.91,375.3z M121.97,385.68h10.39l4.26,8.95
	l-4.21,7.25h-9.79l-4.88-9.06L121.97,385.68z M126.49,412.17l-5,10.85l-14.84,6.02l-2.06-15.84l6.51-9.33l10.39-0.06L126.49,412.17z
	 M122.95,424.52l14.78-6l15.18,6.31l4.98,12.84l-5.88,13.27l-15.02,6.22l-13.15-5.43l-5.99-14.05L122.95,424.52z M167.77,750.02
	l-4.73,8.43l-8.77,0.1l-4.97-8.54l0.01-0.01l-0.01-0.01l4.97-8.54l8.77,0.1l4.73,8.43l-0.02,0.03L167.77,750.02z M147.33,839.14
	l4.7,8.59h-9.81c-0.35,0-0.68,0.2-0.85,0.51l-3.66,6.81l-3.91-6.85c-0.17-0.3-0.49-0.49-0.84-0.49h-9.24l4.92-8.18
	c0.16-0.27,0.18-0.6,0.06-0.88l-3.98-9.36l12.67,5.24l0.23,0.06l0.36-0.02l13.1-5.43l-3.8,9.15
	C147.17,838.56,147.19,838.88,147.33,839.14z M126.74,838.96l-5.28,8.76h-10.23l-6.69-8.88l1.82-17.26l15.78,6.58L126.74,838.96z
	 M122.58,849.66h9.82l4.23,7.42l-4.23,8.38h-10.25l-4.18-7.22L122.58,849.66z M125.91,875.3l-4.9,8.41l-8.46,0.04l-4.85-8.44l5.05-8
	l8.27,0.12L125.91,875.3z M121.97,885.68h10.39l4.26,8.95l-4.21,7.25h-9.79l-4.88-9.06L121.97,885.68z M133.83,884.29
	c-0.16-0.34-0.5-0.56-0.87-0.56h-9.72l4.63-7.96c0.19-0.31,0.18-0.7-0.01-1.01l-4.56-7.36h9.7c0.37,0,0.7-0.2,0.86-0.53l3.86-7.64
	l3.67,7.62c0.16,0.34,0.5,0.55,0.87,0.55h9.67l-4.56,7.36c-0.19,0.31-0.19,0.69-0.01,1l4.63,7.96h-9.76c-0.38,0-0.72,0.22-0.88,0.57
	l-3.63,8.11L133.83,884.29z M142.84,885.68h10.25l4.35,7.33l-4.38,8.87h-10.27l-3.95-7.24L142.84,885.68z M149.3,875.3l4.93-7.95
	l8.45-0.03l5.1,8l-4.74,8.43l-8.77,0.1L149.3,875.3z M153.19,865.47h-10.34l-4.04-8.39l3.98-7.4h10.27l4.41,8.56L153.19,865.47z
	 M149.25,838.62l4.37-10.52l15.76-6.53l1.82,17.17l-6.85,9h-10.11L149.25,838.62z M152.14,826.6l-14.41,5.97l-14.11-5.89
	l-5.54-14.04l4.88-13.42l14.76-5.99l15.18,6.3l5.15,13.1L152.14,826.6z M107.71,749.98l4.85-8.44l8.46,0.03l4.88,8.4l-0.02,0.03
	l0.02,0.03l-4.88,8.4l-8.46,0.03l-4.85-8.44l0.01-0.02L107.71,749.98z M146.75,713.72l5.11,7.75h-9.64c-0.35,0-0.67,0.19-0.84,0.5
	l-3.67,6.72l-3.91-6.74c-0.17-0.3-0.49-0.48-0.83-0.48h-9.21l4.67-7.79c0.17-0.27,0.18-0.62,0.05-0.91l-4.35-9.43l13.38,5.43
	l0.25,0.02c0.13,0,0.25-0.03,0.38-0.08l13.49-5.61l-4.91,9.63C146.53,713.04,146.55,713.42,146.75,713.72z M147.34,750.48l4.63,7.96
	h-9.76c-0.38,0-0.72,0.23-0.88,0.57l-3.63,8.11l-3.87-8.13c-0.16-0.34-0.5-0.55-0.87-0.55h-9.72l4.63-7.96
	c0.08-0.15,0.12-0.31,0.12-0.48c0-0.17-0.04-0.34-0.12-0.48l-4.63-7.96h9.72c0.37,0,0.72-0.22,0.87-0.55l3.87-8.13l3.63,8.11
	c0.15,0.35,0.5,0.57,0.88,0.57h9.76l-4.63,7.96c-0.08,0.14-0.12,0.31-0.12,0.49C147.22,750.17,147.26,750.34,147.34,750.48z
	 M146.69,787.26l4.91,9.63l-13.49-5.61c-0.12-0.05-0.25-0.08-0.38-0.08l-0.25,0.02l-13.38,5.43l4.35-9.43
	c0.14-0.29,0.12-0.64-0.05-0.91l-4.67-7.79h9.21c0.34,0,0.67-0.19,0.83-0.48l3.91-6.74l3.67,6.72c0.17,0.31,0.5,0.5,0.84,0.5h9.64
	l-5.11,7.75C146.55,786.57,146.53,786.94,146.69,787.26z M126.49,713.12l-5,8.35l-10.39-0.06l-6.51-9.32l2.06-15.84l14.84,6.02
	L126.49,713.12z M122.62,723.41h9.79l4.21,7.24l-4.26,8.95h-10.39l-4.23-7.13L122.62,723.41z M121.97,760.38h10.39l4.26,8.95
	l-4.21,7.24h-9.79l-4.88-9.06L121.97,760.38z M126.49,786.87l-5,10.85l-14.84,6.02l-2.06-15.84l6.51-9.32l10.39-0.06L126.49,786.87z
	 M148.67,786.87l5.51-8.36h9.53l6.9,8.78c0,0.02,0.01,0.04,0.01,0.06l-2.51,16.38l-13.74-5.71L148.67,786.87z M153.06,776.57h-10.27
	l-3.95-7.24l4.01-8.95h10.25l4.35,7.33L153.06,776.57z M153.09,739.61h-10.25l-4.01-8.95l3.95-7.24h10.27l4.38,8.87L153.09,739.61z
	 M148.67,713.11l5.69-11.16l13.74-5.71l2.51,16.38c0,0.02-0.01,0.04-0.01,0.06l-6.9,8.78h-9.53L148.67,713.11z M152.91,700.46
	l-15.18,6.3l-14.76-5.99l-4.88-13.42l5.54-14.04l14.11-5.89l14.41,5.97l5.92,13.97L152.91,700.46z M146.75,588.42l5.11,7.75h-9.64
	c-0.35,0-0.67,0.19-0.84,0.5l-3.67,6.72l-3.91-6.74c-0.17-0.29-0.49-0.48-0.83-0.48h-9.21l4.67-7.79c0.16-0.28,0.18-0.62,0.05-0.91
	l-4.35-9.43l13.38,5.43l0.25,0.02c0.13,0,0.25-0.02,0.37-0.07l13.5-5.61l-4.91,9.63C146.53,587.74,146.55,588.12,146.75,588.42z
	 M147.35,625.21l4.56,7.36h-9.67c-0.37,0-0.71,0.21-0.87,0.55l-3.67,7.62l-3.86-7.64c-0.16-0.33-0.49-0.53-0.86-0.53h-9.7l4.56-7.36
	c0.19-0.31,0.2-0.7,0.01-1.01l-4.63-7.96h9.72c0.37,0,0.72-0.22,0.87-0.56l3.87-8.13l3.63,8.11c0.16,0.35,0.5,0.57,0.88,0.57h9.76
	l-4.63,7.96C147.16,624.52,147.16,624.91,147.35,625.21z M147.28,661.69l3.8,9.15l-13.1-5.43l-0.36-0.02l-0.23,0.06l-12.67,5.24
	l3.98-9.36c0.12-0.28,0.1-0.61-0.06-0.88l-4.92-8.18h9.24c0.35,0,0.67-0.19,0.84-0.49l3.91-6.85l3.66,6.81
	c0.17,0.32,0.5,0.51,0.85,0.51h9.81l-4.7,8.59C147.19,661.11,147.17,661.42,147.28,661.69z M126.49,587.82l-5,8.35l-10.39-0.06
	l-6.51-9.33l2.06-15.84l14.84,6.02L126.49,587.82z M122.62,598.11h9.79l4.21,7.25l-4.26,8.95h-10.39l-4.23-7.13L122.62,598.11z
	 M125.91,624.69l-4.88,7.87l-8.27,0.12l-5.05-8l4.85-8.44l8.46,0.04L125.91,624.69z M122.16,634.52h10.25l4.23,8.38l-4.23,7.42
	h-9.82l-4.61-8.59L122.16,634.52z M126.74,661.02l-4.6,10.8l-15.78,6.58l-1.82-17.26l6.69-8.88h10.23L126.74,661.02z M149.25,661.37
	l4.98-9.11h10.11l6.85,9l-1.82,17.17l-15.76-6.53L149.25,661.37z M153.07,650.31h-10.27l-3.98-7.4l4.04-8.39h10.34l4.28,7.22
	L153.07,650.31z M149.3,624.69l4.97-8.54l8.77,0.1l4.74,8.43l-5.1,8l-8.45-0.03L149.3,624.69z M153.09,614.31h-10.25l-4.01-8.95
	l3.95-7.24h10.27l4.38,8.87L153.09,614.31z M148.67,587.81l5.69-11.15l13.74-5.71l2.43,15.8l-6.84,9.42h-9.5L148.67,587.81z
	 M152.91,575.16l-15.18,6.31l-14.78-6l-5.1-13.16l5.99-14.05l13.15-5.43l15.02,6.22l5.88,13.27L152.91,575.16z M127.25,500.08
	l0-0.09h0l0-0.08c0.01-0.19-0.04-0.38-0.14-0.54l-4.56-7.36h9.7c0.37,0,0.7-0.2,0.86-0.53l3.86-7.64l3.67,7.62
	c0.16,0.34,0.5,0.55,0.87,0.55h9.67l-4.56,7.36c-0.1,0.16-0.15,0.34-0.14,0.53l0,0.1h0l0,0.1c0,0.19,0.05,0.37,0.14,0.53l4.56,7.36
	h-9.67c-0.37,0-0.71,0.22-0.87,0.55l-3.67,7.62l-3.86-7.64c-0.16-0.33-0.5-0.53-0.86-0.53h-9.7l4.56-7.36
	C127.21,500.46,127.26,500.27,127.25,500.08z M127.96,463.26l-3.85-9.04c0.07-0.05,0.13-0.12,0.18-0.19l12.3,5.08
	c0.12,0.05,0.25,0.08,0.38,0.08l0.25-0.03l13.1-5.42l-3.8,9.15c-0.12,0.27-0.11,0.58,0.04,0.85l4.7,8.59h-9.8
	c-0.36,0-0.68,0.19-0.85,0.51l-3.66,6.82l-3.9-6.84c-0.17-0.3-0.49-0.49-0.84-0.49h-9.24l4.93-8.17
	C128.06,463.87,128.09,463.54,127.96,463.26z M131.66,474.26l4.23,7.42l-4.23,8.39h-10.25l-4.18-7.22l4.61-8.59H131.66z
	 M146.54,537.1l3.8,9.15l-13.1-5.42l-0.25-0.03c-0.13,0-0.26,0.03-0.38,0.08l-12.3,5.08c-0.05-0.07-0.11-0.14-0.18-0.19l3.85-9.04
	c0.12-0.29,0.1-0.62-0.06-0.89l-4.93-8.17h9.24c0.34,0,0.67-0.19,0.84-0.49l3.9-6.84l3.66,6.82c0.17,0.31,0.5,0.51,0.85,0.51h9.8
	l-4.7,8.59C146.44,536.52,146.43,536.83,146.54,537.1z M131.66,509.92l4.23,8.39l-4.23,7.42h-9.82l-4.61-8.59l4.18-7.22H131.66z
	 M125.99,536.43l-4.56,10.72l-16.13,6.67l-1.63-17.08l6.82-9.07h10.23L125.99,536.43z M152.84,546.14
	c-0.13-0.29-0.38-0.49-0.68-0.55l-3.66-8.81l4.98-9.12h10.12l6.84,9l-1.82,17.17l-15.17-6.28L152.84,546.14z M152.32,525.72h-10.27
	l-3.98-7.4l4.04-8.39h10.34l4.28,7.22L152.32,525.72z M148.55,500.07l0-0.15l4.94-7.97l8.45-0.04l5.16,8.08l-5.16,8.08l-8.45-0.04
	L148.55,500.07z M152.45,490.07h-10.34l-4.04-8.39l3.98-7.4h10.27l4.41,8.57L152.45,490.07z M148.5,463.21l3.66-8.81
	c0.3-0.06,0.55-0.27,0.68-0.55l0.62-1.4l15.17-6.28l1.82,17.17l-6.84,9h-10.12L148.5,463.21z M125.99,463.56l-5.27,8.76h-10.23
	l-6.82-9.07l1.63-17.08l16.13,6.67L125.99,463.56z M110.68,509.58c0.17,0.28,0.48,0.45,0.79,0.45l7.71-0.11l-3.89,6.71
	c-0.17,0.29-0.18,0.66-0.01,0.96l4.37,8.14h-9.64c-0.3,0-0.58,0.14-0.77,0.38l-5.84,7.77l-1.29-13.1c0,0,0,0,0,0
	c0,0-0.02-0.1-0.1-0.19c-0.01-0.04-0.1-0.14-0.21-0.23l-11.03-8.3l9.45-1.45c0.28-0.03,0.53-0.2,0.68-0.46l4.97-8.2L110.68,509.58z
	 M104.22,589.64l5.59,8c0.17,0.25,0.46,0.4,0.77,0.41l9.84,0.05l-4.65,8.63c-0.16,0.3-0.16,0.67,0.02,0.96l3.93,6.62l-7.72-0.04h0
	c-0.34,0-0.66,0.19-0.84,0.49l-4.6,8.01l-5.26-8.84c-0.16-0.26-0.43-0.43-0.72-0.47l-8.81-1.06l10.19-7.74
	c0.21-0.16,0.35-0.4,0.38-0.66L104.22,589.64z M106.6,626.54l4.83,7.63c0.17,0.28,0.47,0.45,0.79,0.45l0.14-0.01l7.57-0.1
	l-3.89,6.71c-0.17,0.29-0.17,0.65-0.02,0.94l4.37,8.15h-9.63c-0.3,0-0.59,0.14-0.77,0.39l-5.73,7.61l-1.4-12.95
	c0.01,0.02,0-0.02-0.04-0.1c-0.08-0.15-0.18-0.26-0.29-0.34l-11.01-8.29l9.45-1.45c0.29-0.05,0.53-0.21,0.68-0.45L106.6,626.54z
	 M104.22,714.93l5.59,8.01c0.17,0.25,0.46,0.41,0.77,0.41l9.84,0.05l-4.65,8.63c-0.16,0.3-0.16,0.67,0.02,0.97l3.93,6.62l-7.72-0.03
	h0c-0.35,0-0.67,0.19-0.84,0.49l-4.6,8.01l-5.26-8.84c-0.16-0.26-0.42-0.43-0.72-0.47l-8.81-1.06l10.19-7.74
	c0.22-0.17,0.35-0.4,0.38-0.65L104.22,714.93z M111.16,759.91c0.17,0.3,0.49,0.49,0.84,0.49h0l7.72-0.03l-3.93,6.62
	c-0.18,0.29-0.18,0.67-0.02,0.97l4.65,8.63l-9.84,0.05c-0.31,0.01-0.6,0.16-0.77,0.41l-5.59,8.01l-1.87-14.39
	c-0.03-0.25-0.16-0.48-0.38-0.65l-10.19-7.74l8.81-1.06c0.29-0.03,0.56-0.2,0.72-0.47l5.26-8.84L111.16,759.91z M102.81,854.71
	c0.04-0.08,0.05-0.12,0.04-0.1l1.4-12.95l5.73,7.61c0.18,0.25,0.47,0.39,0.77,0.39h9.63l-4.37,8.15c-0.15,0.29-0.15,0.66,0.02,0.94
	l3.89,6.71l-7.57-0.1l-0.14-0.01c-0.31,0-0.62,0.18-0.79,0.45l-4.83,7.63l-4.97-8.2c-0.15-0.24-0.39-0.41-0.68-0.45l-9.45-1.45
	l11.01-8.29C102.63,854.97,102.72,854.86,102.81,854.71z M111.16,885.21c0.17,0.3,0.49,0.49,0.84,0.49h0l7.72-0.04l-3.93,6.62
	c-0.18,0.29-0.18,0.67-0.02,0.96l4.65,8.63l-9.84,0.05c-0.31,0.01-0.6,0.16-0.77,0.41l-5.59,8l-1.87-14.39
	c-0.03-0.26-0.17-0.5-0.38-0.66l-10.19-7.74l8.81-1.06c0.29-0.03,0.56-0.2,0.72-0.47l5.26-8.84L111.16,885.21z M111.1,903.87
	l10.39-0.06l5,8.35l-5,10.85l-14.84,6.02l-2.06-15.84L111.1,903.87z M128.46,912.52c0.14-0.29,0.12-0.63-0.05-0.91l-4.67-7.79h9.21
	c0.35,0,0.67-0.19,0.83-0.48l3.91-6.74l3.67,6.72c0.17,0.31,0.5,0.5,0.84,0.5h9.64l-5.11,7.75c-0.2,0.29-0.22,0.67-0.06,0.98
	l4.91,9.63l-13.5-5.61c-0.12-0.05-0.24-0.07-0.37-0.07l-0.25,0.02l-13.38,5.43L128.46,912.52z M148.67,912.17l5.51-8.36h9.5
	l6.84,9.42l-2.43,15.8l-13.74-5.71L148.67,912.17z M164.95,902.28c-0.18-0.26-0.47-0.4-0.79-0.4h-8.95l4.19-8.47
	c0.14-0.29,0.13-0.65-0.04-0.94l-3.97-6.69l8.22-0.09c0.34,0,0.67-0.19,0.84-0.49l4.41-7.87l4.47,8.64
	c0.15,0.29,0.44,0.49,0.78,0.52l9.96,0.8l-10.54,8.04c-0.1,0.08-0.17,0.17-0.28,0.39l-2.37,14.73L164.95,902.28z M164.02,865.81
	c-0.18-0.27-0.48-0.44-0.81-0.44l-7.72,0.03l3.93-6.63c0.17-0.29,0.18-0.65,0.03-0.94l-4.2-8.15h9.57c0.3,0,0.59-0.15,0.77-0.39
	l5.88-7.74l1.39,12.97c0.02,0.19,0.09,0.36,0.21,0.5l11.22,8.54l-9.76,1.27c-0.3,0.04-0.55,0.21-0.69,0.46l-4.95,8.16L164.02,865.81
	z M170.94,784.6l-6.01-7.65c-0.18-0.24-0.47-0.38-0.77-0.38h-8.95l4.19-8.47c0.15-0.29,0.13-0.66-0.04-0.93l-3.97-6.69l8.22-0.09
	c0.35,0,0.67-0.19,0.84-0.49l4.41-7.87l4.47,8.64c0.15,0.3,0.44,0.49,0.78,0.52l9.96,0.8l-10.52,8.03
	c-0.07,0.06-0.14,0.12-0.19,0.19L170.94,784.6z M164.46,740.09c-0.17-0.3-0.49-0.49-0.84-0.49l-8.22-0.09l3.97-6.69
	c0.17-0.28,0.18-0.64,0.04-0.93l-4.19-8.47h8.95c0.3,0,0.58-0.14,0.77-0.38l6.01-7.65l2.42,14.4c0.05,0.07,0.12,0.13,0.19,0.19
	l10.52,8.03l-9.96,0.8c-0.33,0.02-0.62,0.22-0.78,0.52l-4.47,8.64L164.46,740.09z M172.86,645.46l-1.39,12.97l-5.88-7.74
	c-0.18-0.24-0.47-0.39-0.77-0.39h-9.57l4.2-8.15c0.16-0.3,0.14-0.65-0.03-0.94l-3.93-6.63l7.72,0.03c0.33,0,0.64-0.16,0.81-0.44
	l4.87-7.64l4.95,8.16c0.14,0.24,0.4,0.41,0.69,0.46l9.76,1.27l-11.22,8.54C172.95,645.1,172.88,645.28,172.86,645.46z
	 M168.87,622.66l-4.41-7.87c-0.17-0.31-0.5-0.49-0.84-0.49l-8.22-0.09l3.97-6.69c0.17-0.28,0.18-0.64,0.04-0.94l-4.19-8.47h8.95
	c0.31,0,0.6-0.15,0.79-0.4l5.93-8.16l2.37,14.73c0.11,0.22,0.19,0.31,0.28,0.39l10.54,8.04l-9.96,0.8
	c-0.34,0.03-0.62,0.22-0.78,0.52L168.87,622.66z M172.11,520.87l-1.39,12.96l-5.89-7.73c-0.17-0.24-0.46-0.38-0.77-0.38h-9.58
	l4.2-8.15c0.15-0.3,0.14-0.66-0.03-0.95l-3.93-6.62l7.72,0.03c0.33,0,0.63-0.16,0.81-0.44l4.87-7.64l4.94,8.16
	c0.15,0.25,0.4,0.42,0.69,0.46l9.76,1.27l-11.24,8.56C172.21,520.51,172.13,520.68,172.11,520.87z M168.15,498.05l-4.87-7.64
	c-0.18-0.27-0.49-0.44-0.81-0.44l-7.72,0.03l3.93-6.62c0.17-0.29,0.19-0.65,0.03-0.95l-4.2-8.15h9.58c0.3,0,0.59-0.15,0.77-0.38
	l5.89-7.73l1.39,12.96c0.02,0.19,0.1,0.36,0.2,0.48l11.24,8.56l-9.76,1.27c-0.29,0.04-0.54,0.21-0.69,0.46L168.15,498.05z
	 M170.88,410.44l-5.93-8.16c-0.18-0.26-0.47-0.4-0.79-0.4h-8.95l4.19-8.47c0.14-0.29,0.13-0.65-0.04-0.94l-3.97-6.69l8.22-0.09
	c0.34,0,0.67-0.19,0.84-0.49l4.41-7.87l4.47,8.64c0.15,0.29,0.44,0.49,0.78,0.52l9.96,0.8l-10.54,8.04
	c-0.1,0.08-0.17,0.17-0.28,0.39L170.88,410.44z M164.01,365.81c-0.18-0.27-0.48-0.44-0.81-0.44l-7.72,0.03l3.93-6.63
	c0.17-0.29,0.18-0.65,0.03-0.94l-4.2-8.15h9.57c0.3,0,0.59-0.15,0.77-0.39l5.88-7.74l1.39,12.97c0.02,0.19,0.09,0.36,0.21,0.5
	l11.22,8.54l-9.76,1.27c-0.3,0.04-0.55,0.21-0.69,0.46l-4.95,8.16L164.01,365.81z M170.94,284.6l-6.01-7.65
	c-0.18-0.24-0.47-0.38-0.77-0.38h-8.95l4.19-8.47c0.15-0.29,0.13-0.66-0.04-0.93l-3.97-6.69l8.22-0.09c0.35,0,0.67-0.19,0.84-0.49
	l4.41-7.87l4.47,8.64c0.15,0.3,0.44,0.49,0.78,0.52l9.96,0.8l-10.52,8.03c-0.07,0.06-0.14,0.12-0.19,0.19L170.94,284.6z
	 M164.45,240.1c-0.17-0.3-0.49-0.49-0.84-0.49l-8.22-0.09l3.97-6.69c0.17-0.28,0.18-0.64,0.04-0.93l-4.19-8.47h8.95
	c0.3,0,0.58-0.14,0.77-0.38l6.01-7.65l2.42,14.4c0.05,0.07,0.12,0.13,0.19,0.19l10.52,8.03l-9.96,0.8
	c-0.33,0.02-0.62,0.22-0.78,0.52l-4.47,8.64L164.45,240.1z M172.86,145.47l-1.39,12.97l-5.88-7.74c-0.18-0.24-0.47-0.39-0.77-0.39
	h-9.57l4.2-8.15c0.16-0.3,0.14-0.65-0.03-0.94l-3.93-6.63l7.72,0.03c0.33,0,0.64-0.16,0.81-0.44l4.87-7.64l4.95,8.16
	c0.14,0.24,0.4,0.41,0.69,0.46l9.76,1.27l-11.22,8.54C172.95,145.1,172.88,145.28,172.86,145.47z M168.87,122.67l-4.41-7.87
	c-0.17-0.31-0.5-0.49-0.84-0.49l-8.22-0.09l3.97-6.69c0.17-0.28,0.18-0.64,0.04-0.94l-4.19-8.47h8.95c0.31,0,0.6-0.15,0.79-0.4
	l5.93-8.16l2.37,14.73c0.11,0.22,0.19,0.31,0.28,0.39l10.54,8.04l-9.96,0.8c-0.34,0.03-0.62,0.22-0.78,0.52L168.87,122.67z
	 M163.68,96.17h-9.5l-5.51-8.36l5.69-11.15l13.74-5.71l2.43,15.8L163.68,96.17z M146.69,87.44c-0.16,0.31-0.14,0.69,0.06,0.98
	l5.11,7.75h-9.64c-0.35,0-0.67,0.19-0.84,0.5l-3.67,6.72l-3.91-6.74c-0.17-0.29-0.49-0.48-0.83-0.48h-9.21l4.67-7.79
	c0.16-0.28,0.18-0.62,0.05-0.91l-4.35-9.43l13.38,5.43l0.25,0.02c0.13,0,0.25-0.02,0.37-0.07l13.5-5.61L146.69,87.44z M126.49,87.82
	l-5,8.35l-10.39-0.06l-6.51-9.33l2.06-15.84l14.84,6.02L126.49,87.82z M109.81,97.64c0.17,0.25,0.46,0.4,0.77,0.41l9.84,0.05
	l-4.65,8.63c-0.16,0.3-0.16,0.67,0.02,0.96l3.93,6.62l-7.72-0.04h0c-0.34,0-0.66,0.19-0.84,0.49l-4.6,8.01l-5.26-8.84
	c-0.16-0.26-0.43-0.43-0.72-0.47l-8.81-1.06l10.19-7.74c0.21-0.16,0.35-0.4,0.38-0.66l1.87-14.39L109.81,97.64z M106.6,126.55
	l4.83,7.63c0.17,0.28,0.47,0.45,0.79,0.45l0.14-0.01l7.57-0.1l-3.89,6.71c-0.17,0.29-0.17,0.65-0.02,0.94l4.37,8.15h-9.63
	c-0.3,0-0.59,0.14-0.77,0.39l-5.73,7.61l-1.4-12.95c0.01,0.02,0-0.02-0.04-0.1c-0.08-0.15-0.18-0.26-0.29-0.34l-11.01-8.29
	l9.45-1.45c0.29-0.05,0.53-0.21,0.68-0.45L106.6,126.55z M104.22,214.93l5.59,8.01c0.17,0.25,0.46,0.41,0.77,0.41l9.84,0.05
	l-4.65,8.63c-0.16,0.3-0.16,0.67,0.02,0.97l3.93,6.62l-7.72-0.03h0c-0.35,0-0.67,0.19-0.84,0.49l-4.6,8.01l-5.26-8.84
	c-0.16-0.26-0.42-0.43-0.72-0.47l-8.81-1.06l10.19-7.74c0.22-0.17,0.35-0.4,0.38-0.65L104.22,214.93z M111.16,259.91
	c0.17,0.3,0.49,0.49,0.84,0.49h0l7.72-0.03l-3.93,6.62c-0.18,0.29-0.18,0.67-0.02,0.97l4.65,8.63l-9.84,0.05
	c-0.31,0.01-0.6,0.16-0.77,0.41l-5.59,8.01l-1.87-14.39c-0.03-0.25-0.16-0.48-0.38-0.65l-10.19-7.74l8.81-1.06
	c0.29-0.03,0.56-0.2,0.72-0.47l5.26-8.84L111.16,259.91z M102.8,354.71c0.04-0.08,0.05-0.12,0.04-0.1l1.4-12.95l5.73,7.61
	c0.18,0.25,0.47,0.39,0.77,0.39h9.63l-4.37,8.15c-0.15,0.29-0.15,0.66,0.02,0.94l3.89,6.71l-7.57-0.1l-0.14-0.01
	c-0.31,0-0.62,0.18-0.79,0.45l-4.83,7.63l-4.97-8.2c-0.15-0.24-0.39-0.41-0.68-0.45l-9.45-1.45l11.01-8.29
	C102.63,354.97,102.72,354.87,102.8,354.71z M111.16,385.21c0.17,0.3,0.49,0.49,0.84,0.49h0l7.72-0.04l-3.93,6.62
	c-0.18,0.29-0.18,0.67-0.02,0.96l4.65,8.63l-9.84,0.05c-0.31,0.01-0.6,0.16-0.77,0.41l-5.59,8l-1.87-14.39
	c-0.03-0.26-0.17-0.5-0.38-0.66l-10.19-7.74l8.81-1.06c0.29-0.03,0.56-0.2,0.72-0.47l5.26-8.84L111.16,385.21z M104.89,430.54
	c0.04,0.3,0.22,0.57,0.47,0.7c0.15,0.09,0.32,0.14,0.49,0.14l0.25-0.02l14.39-5.84l-4.58,11.83c-0.09,0.24-0.09,0.5,0.01,0.73
	l5.37,12.6l-16.46-6.8l-0.24-0.07h-0.13c-0.18,0-0.35,0.05-0.5,0.14c-0.26,0.16-0.43,0.43-0.46,0.74l-1.55,16.2l-7.68-10.76
	c-0.16-0.22-0.41-0.37-0.69-0.4l-13.58-1.38l12.75-9.74c0.24-0.19,0.38-0.47,0.38-0.78c0-0.3-0.14-0.59-0.39-0.77l-12.73-9.64
	l14.26-1.47c0.26-0.03,0.49-0.15,0.66-0.37l7.99-10.22L104.89,430.54z M90.56,437.84l-13.39,10.23l-11.58-0.93l-4.79-9.25l5.23-8.63
	l11.26-1.46L90.56,437.84z M77.74,450.07l15.22,1.55l8.6,12.04l-1.28,14.7l-12.23,9.2l-15.19-1.33l-9.51-10.98l2.46-16.06
	L77.74,450.07z M100.28,521.65l1.28,14.7l-8.6,12.04l-15.22,1.55l-11.93-9.1l-2.46-16.06l9.51-10.98l15.19-1.33L100.28,521.65z
	 M65.51,583.54l12.24-9.25l15.91,1.64l8.91,11.39l-2.09,16.06l-11.47,8.72l-15.65-1.73l-9.42-11.87L65.51,583.54z M89.56,614.11
	l10.34,1.24l5.56,9.34l-5.24,8.65l-10.88,1.67L75.62,624.7L89.56,614.11z M101.02,646.24l1.27,14.7l-8.69,12.19l-15.76,2.04
	c0,0,0,0-0.01,0l-11.9-9.09l-2.41-15.73l9.97-11.71l15.31-1.59L101.02,646.24z M65.64,708.79l12.45-9.4l15.77,2.1l8.72,11.12
	l-2.09,16.06L89,737.39l-14.5-1.43l-10.41-12.6L65.64,708.79z M89.56,739.41l10.34,1.24l5.54,9.32l-0.01,0.02l0.01,0.02l-5.54,9.32
	l-10.34,1.24l-13.84-10.51v-0.14L89.56,739.41z M100.48,771.31l2.09,16.06l-8.72,11.12l-15.77,2.1l-12.45-9.4l-1.54-14.57
	l10.41-12.6l14.5-1.43L100.48,771.31z M65.93,833.91l11.9-9.09c0,0,0.01,0,0.01,0l15.76,2.04l8.69,12.19l-1.27,14.7l-12.22,9.2
	l-15.31-1.59l-9.97-11.71L65.93,833.91z M89.34,864.97l10.88,1.67l5.24,8.65l-5.56,9.34l-10.34,1.24l-13.94-10.59L89.34,864.97z
	 M100.48,896.61l2.09,16.06l-8.91,11.39l-15.91,1.64l-12.24-9.25l-1.58-14.96l9.42-11.87l15.65-1.73L100.48,896.61z M66.02,929.25
	l11.26-1.46l13.28,10.05l-13.39,10.23l-11.58-0.93l-4.79-9.25L66.02,929.25z M92.75,938.6c0.24-0.19,0.38-0.47,0.38-0.78
	c0-0.3-0.14-0.59-0.39-0.77l-12.73-9.64l14.26-1.47c0.26-0.03,0.49-0.15,0.66-0.37l7.99-10.22l1.97,15.17
	c0.04,0.3,0.22,0.57,0.47,0.7c0.15,0.09,0.32,0.14,0.49,0.14l0.25-0.02l14.39-5.84l-4.58,11.83c-0.09,0.24-0.09,0.5,0.01,0.73
	l5.37,12.6l-16.46-6.8l-0.24-0.07h-0.13c-0.18,0-0.35,0.05-0.5,0.14c-0.26,0.16-0.43,0.43-0.46,0.74l-1.55,16.2l-7.68-10.76
	c-0.16-0.22-0.41-0.37-0.69-0.4L80,948.34L92.75,938.6z M105.3,946.17l16.13,6.67l4.56,10.72l-5.27,8.76h-10.23l-6.82-9.07
	L105.3,946.17z M117.85,937.67l5.1-13.16l14.78-6l15.18,6.31l4.98,12.84l-5.88,13.27l-15.02,6.22l-13.15-5.43L117.85,937.67z
	 M152.16,954.4c0.3-0.06,0.55-0.27,0.68-0.55l0.62-1.4l15.17-6.28l1.82,17.17l-6.84,9h-10.12l-4.98-9.12L152.16,954.4z
	 M170.41,944.67c-0.03-0.31-0.2-0.57-0.47-0.73c-0.15-0.09-0.32-0.14-0.5-0.14l-0.25,0.02l-14.6,6.04l5.22-11.78
	c0.1-0.24,0.11-0.5,0.01-0.75l-4.45-11.48l13.11,5.45c0.27,0.11,0.58,0.1,0.85-0.05c0.26-0.15,0.43-0.4,0.47-0.69l2.33-15.17
	l7.73,10.17c0.16,0.22,0.41,0.36,0.7,0.39l14.3,1.15l-13.22,9.95c-0.25,0.18-0.4,0.47-0.4,0.78c0,0.31,0.14,0.6,0.38,0.79
	l13.36,10.15l-14.26,1.72c-0.26,0.03-0.49,0.17-0.65,0.37l-7.93,10.26L170.41,944.67z M183.82,937.84l13.71-10.32l10.88,1.67
	l5.24,8.65l-5.56,9.34l-10.34,1.25L183.82,937.84z M210.53,901.24l-1.31,15.05l-12.01,9.04l-16.06-1.29l-8.6-11.32l2.47-16.11
	l11.91-9.09l14.64,2.08L210.53,901.24C210.53,901.24,210.53,901.24,210.53,901.24z M186.38,885.51l-11.58-0.93l-4.79-9.25l5.23-8.63
	l11.26-1.46l13.28,10.05L186.38,885.51z M174.73,853.9l-1.55-14.63l8.47-12.47l15.78-1.53l11.37,8.64l2.15,16.52l-8.69,10.87
	l-15.2,1.91L174.73,853.9z M209.34,791.04l-12.24,9.21l-14.59-1.53l-9.88-11.8l2.39-15.6l11.92-9.09l15.49,2.03l8.18,12.07
	L209.34,791.04z M186.38,760.21l-11.58-0.93l-4.79-9.26l0.02-0.03l-0.02-0.03l4.79-9.26l11.58-0.93l13.39,10.22L186.38,760.21z
	 M175.03,728.66l-2.39-15.6l9.88-11.8l14.59-1.53l12.24,9.21l1.28,14.71l-8.18,12.07l-15.49,2.03L175.03,728.66z M208.8,666.08
	l-11.37,8.64l-15.78-1.53l-8.47-12.47l1.55-14.63l12.32-9.31l15.2,1.91l8.69,10.87L208.8,666.08z M186.5,634.75l-11.26-1.46
	l-5.23-8.63l4.79-9.25l11.58-0.93l13.4,10.22L186.5,634.75z M175.03,603.37l-2.47-16.11l8.6-11.32l16.06-1.29l12.01,9.04l1.31,15.05
	c0,0,0,0,0,0l-8.94,11.63l-14.64,2.08L175.03,603.37z M208.68,540.83l-11.47,8.71l-15.85-1.92l-8.91-11.53l1.55-14.59l12.34-9.33
	l15.17,1.31l9.18,11.95L208.68,540.83z M185.76,510.15l-11.26-1.46l-5.27-8.7l5.27-8.7l11.26-1.46L199.18,500L185.76,510.15z
	 M173.99,478.49l-1.55-14.59l8.91-11.53l15.85-1.92l11.47,8.71l2,15.4l-9.18,11.95l-15.17,1.31L173.99,478.49z M210.52,401.24
	l-1.31,15.05l-12.01,9.04l-16.06-1.29l-8.6-11.32l2.47-16.11l11.91-9.09l14.64,2.08L210.52,401.24
	C210.52,401.24,210.52,401.24,210.52,401.24z M186.38,385.51l-11.58-0.93l-4.79-9.25l5.23-8.63l11.26-1.46l13.28,10.05
	L186.38,385.51z M174.73,353.9l-1.55-14.63l8.47-12.47l15.78-1.53l11.37,8.64l2.15,16.52l-8.69,10.87l-15.2,1.91L174.73,353.9z
	 M209.34,291.04l-12.24,9.21l-14.59-1.53l-9.88-11.8l2.39-15.6l11.92-9.09l15.49,2.03l8.18,12.07L209.34,291.04z M186.38,260.21
	l-11.58-0.93l-4.79-9.26l0.02-0.03l-0.02-0.03l4.79-9.26l11.58-0.93L199.77,250L186.38,260.21z M175.03,228.67l-2.39-15.6l9.88-11.8
	l14.59-1.53l12.24,9.21l1.28,14.71l-8.18,12.07l-15.49,2.03L175.03,228.67z M208.8,166.08l-11.37,8.64l-15.78-1.53l-8.47-12.47
	l1.55-14.63l12.32-9.31l15.2,1.91l8.69,10.87L208.8,166.08z M186.5,134.75l-11.26-1.46l-5.23-8.63l4.79-9.25l11.58-0.93l13.4,10.22
	L186.5,134.75z M175.03,103.37l-2.47-16.11l8.6-11.32l16.06-1.29l12.01,9.04l1.31,15.05c0,0,0,0,0,0l-8.94,11.63l-14.64,2.08
	L175.03,103.37z M208.41,70.8l-10.88,1.67l-13.71-10.32l13.94-10.59l10.34,1.25l5.56,9.34L208.41,70.8z M181.63,61.38
	c-0.24,0.18-0.39,0.48-0.38,0.79c0,0.3,0.15,0.6,0.4,0.78l13.22,9.95l-14.3,1.15c-0.28,0.03-0.53,0.17-0.7,0.39l-7.73,10.17
	l-2.33-15.17c-0.05-0.3-0.22-0.55-0.47-0.69c-0.27-0.15-0.58-0.17-0.85-0.05l-13.11,5.45l4.45-11.48c0.09-0.25,0.09-0.51-0.01-0.75
	l-5.22-11.78l14.6,6.04l0.25,0.02c0.17,0,0.34-0.05,0.5-0.14c0.26-0.16,0.43-0.42,0.47-0.73l1.74-16.45l7.93,10.26
	c0.16,0.2,0.39,0.34,0.65,0.37l14.26,1.72L181.63,61.38z M168.62,53.83l-15.17-6.28l-0.62-1.4c-0.13-0.29-0.38-0.49-0.68-0.55
	l-3.66-8.81l4.98-9.12h10.12l6.84,9L168.62,53.83z M157.88,62.32l-4.98,12.84l-15.18,6.31l-14.78-6l-5.1-13.16l5.99-14.05
	l13.15-5.43l15.02,6.22L157.88,62.32z M121.43,47.15l-16.13,6.67l-1.63-17.08l6.82-9.07h10.23l5.27,8.76L121.43,47.15z
	 M103.96,56.05c0.15,0.09,0.32,0.14,0.5,0.14h0.13l0.24-0.07l16.46-6.8l-5.37,12.6c-0.1,0.23-0.11,0.49-0.01,0.73l4.58,11.83
	l-14.39-5.84l-0.25-0.02c-0.17,0-0.35,0.05-0.49,0.14c-0.25,0.14-0.43,0.4-0.47,0.7l-1.97,15.17L94.93,74.4
	c-0.17-0.21-0.41-0.34-0.66-0.37l-14.26-1.47l12.73-9.64c0.24-0.18,0.38-0.47,0.39-0.77c0-0.31-0.14-0.59-0.38-0.78l-12.75-9.74
	l13.58-1.38c0.28-0.03,0.53-0.17,0.69-0.4l7.68-10.76l1.55,16.2C103.53,55.62,103.7,55.89,103.96,56.05z M90.56,62.15L77.28,72.2
	l-11.26-1.46l-5.23-8.63l4.79-9.25l11.58-0.93L90.56,62.15z M65.51,83.54l12.24-9.25l15.91,1.64l8.91,11.39l-2.09,16.06l-11.47,8.72
	l-15.65-1.73l-9.42-11.87L65.51,83.54z M89.56,114.11l10.34,1.24l5.56,9.34l-5.24,8.65l-10.88,1.67L75.62,124.7L89.56,114.11z
	 M101.02,146.24l1.27,14.7l-8.69,12.19l-15.76,2.04c0,0,0,0-0.01,0l-11.9-9.09l-2.41-15.73l9.97-11.71l15.31-1.59L101.02,146.24z
	 M65.64,208.8l12.45-9.4l15.77,2.1l8.72,11.12l-2.09,16.06L89,237.39l-14.5-1.43l-10.41-12.6L65.64,208.8z M89.56,239.41l10.34,1.24
	l5.54,9.32l-0.01,0.02l0.01,0.02l-5.54,9.32l-10.34,1.24l-13.84-10.51v-0.14L89.56,239.41z M100.48,271.32l2.09,16.06l-8.72,11.12
	l-15.77,2.1l-12.45-9.4l-1.54-14.57l10.41-12.6L89,262.6L100.48,271.32z M65.93,333.92l11.9-9.09c0,0,0.01,0,0.01,0l15.76,2.04
	l8.69,12.19l-1.27,14.7l-12.22,9.2l-15.31-1.59l-9.97-11.71L65.93,333.92z M89.33,364.97l10.88,1.67l5.24,8.65l-5.56,9.34
	l-10.34,1.24l-13.94-10.59L89.33,364.97z M100.48,396.62l2.09,16.06l-8.91,11.39l-15.91,1.64l-12.24-9.25l-1.58-14.96l9.42-11.87
	l15.65-1.73L100.48,396.62z M39.45,525.26l5.68-11.16l13.74-5.71l2.43,15.8l-6.85,9.42h-9.5L39.45,525.26z M33.62,551.76l-4-8.95
	l3.95-7.24h10.26l4.38,8.87l-4.35,7.33H33.62z M40.08,562.14l4.97-8.54l8.77,0.09l4.74,8.44l-5.1,8l-8.45-0.04L40.08,562.14z
	 M33.58,587.76l-3.98-7.4l4.04-8.39h10.34l4.28,7.22l-4.41,8.57H33.58z M40.02,598.82l4.99-9.12h10.11l6.68,8.78
	c-0.02,0.2,0.02,0.4,0.13,0.58l-1.78,16.81l-15.76-6.53L40.02,598.82z M50.79,625.04c0.09-0.24,0.09-0.51-0.01-0.74l-5.3-12.41
	l15.25,6.31l0.25,0.03c0.18,0,0.35-0.05,0.5-0.14c0.26-0.16,0.43-0.43,0.46-0.73l1.7-16.12l8.45,10.65c0.16,0.2,0.38,0.32,0.63,0.36
	l14.04,1.55l-13.33,10.13c-0.24,0.18-0.38,0.47-0.38,0.78c0,0.3,0.14,0.59,0.38,0.77l13.09,9.85l-13.61,1.41
	c-0.26,0.03-0.49,0.15-0.64,0.35l-9.14,10.73l-2.4-15.68c-0.05-0.3-0.23-0.55-0.49-0.7c-0.24-0.14-0.57-0.17-0.85-0.05l-13.12,5.45
	L50.79,625.04z M39.57,650.52l5.68-11.15L59,633.65l2.42,15.8l-6.84,9.42h-9.5L39.57,650.52z M33.75,677.02l-4.01-8.95l3.95-7.24
	h10.27l4.38,8.87l-4.35,7.33H33.75z M40.21,687.4l4.97-8.54l8.77,0.1l4.74,8.43l-5.1,8l-8.45-0.03L40.21,687.4z M33.7,713.02
	l-3.98-7.4l4.04-8.39H44.1l4.28,7.22l-4.41,8.57H33.7z M40.15,724.08l4.98-9.12h10.11l6.84,9l-1.82,17.17l-15.76-6.53L40.15,724.08z
	 M50.9,750.37c0.05-0.12,0.08-0.24,0.08-0.38c0-0.13-0.03-0.26-0.08-0.38l-5.3-12.47l15.25,6.32l0.25,0.02
	c0.17,0,0.34-0.04,0.49-0.13c0.26-0.15,0.44-0.43,0.47-0.73l1.75-16.56l9.46,11.46c0.16,0.19,0.39,0.32,0.65,0.34l12.81,1.26
	l-13.29,10.1c-0.24,0.18-0.38,0.47-0.38,0.77c0,0.3,0.14,0.59,0.38,0.77l13.29,10.1l-12.81,1.26c-0.26,0.03-0.48,0.15-0.65,0.34
	l-9.46,11.46l-1.75-16.56c-0.03-0.3-0.21-0.58-0.47-0.73c-0.15-0.09-0.32-0.13-0.49-0.13l-0.25,0.02l-15.25,6.32L50.9,750.37z
	 M40.15,775.91l4.37-10.52l15.76-6.53l1.82,17.17l-6.84,9H45.13L40.15,775.91z M33.76,802.76l-4.04-8.39l3.98-7.4h10.27l4.41,8.57
	l-4.28,7.22H33.76z M40.21,812.59l4.93-7.95l8.45-0.03l5.1,8l-4.74,8.43l-8.77,0.1L40.21,812.59z M33.69,839.17l-3.95-7.24
	l4.01-8.95h10.24l4.35,7.33l-4.38,8.87H33.69z M39.57,849.47l5.51-8.36h9.5l6.84,9.42L59,866.33l-13.75-5.71L39.57,849.47z
	 M50.78,875.68c0.1-0.23,0.11-0.5,0.01-0.74l-4.52-11.8l13.12,5.45c0.28,0.12,0.61,0.1,0.85-0.05c0.26-0.15,0.44-0.4,0.49-0.7
	l2.4-15.68l9.14,10.73c0.16,0.19,0.38,0.31,0.64,0.35l13.61,1.41l-13.09,9.85c-0.24,0.19-0.38,0.47-0.38,0.77
	c0,0.31,0.14,0.6,0.38,0.78l13.33,10.13l-14.04,1.55c-0.25,0.03-0.48,0.16-0.63,0.36l-8.45,10.65l-1.7-16.12
	c-0.03-0.3-0.2-0.57-0.46-0.73c-0.15-0.09-0.32-0.14-0.5-0.14l-0.25,0.03l-15.25,6.31L50.78,875.68z M40.02,901.16l4.37-10.52
	l15.76-6.53l1.78,16.81c-0.1,0.18-0.14,0.38-0.13,0.58l-6.68,8.78H45.01L40.02,901.16z M33.64,928.02l-4.04-8.39l3.98-7.4h10.27
	l4.41,8.57l-4.28,7.22H33.64z M40.08,937.85l4.93-7.95l8.45-0.04l5.1,8l-4.74,8.44l-8.77,0.09L40.08,937.85z M33.57,964.42
	l-3.95-7.24l4-8.95h10.25l4.35,7.33l-4.38,8.87H33.57z M58.88,991.59l-13.74-5.71l-5.68-11.16l5.51-8.36h9.5l6.85,9.42L58.88,991.59
	z M61.66,972.99l-5.93-8.17c-0.18-0.25-0.47-0.4-0.78-0.4H46l4.19-8.48c0.14-0.3,0.13-0.64-0.04-0.92l-3.97-6.69l8.24-0.09
	c0.34-0.01,0.65-0.19,0.82-0.49l4.42-7.87l4.47,8.63c0.15,0.3,0.44,0.5,0.78,0.52l9.96,0.8l-10.53,8.04
	c-0.1,0.08-0.18,0.17-0.28,0.36L61.66,972.99z M88.05,987.54l-15.19-1.33l-9.51-10.98l2.46-16.06l11.93-9.1l15.22,1.55l8.6,12.04
	l-1.28,14.7L88.05,987.54z M111.47,989.95c-0.31,0-0.62,0.18-0.79,0.45l-4.83,7.63l-4.97-8.2c-0.15-0.26-0.4-0.42-0.68-0.46
	l-9.45-1.45l11.03-8.3c0.11-0.09,0.2-0.19,0.21-0.23c0.07-0.1,0.1-0.19,0.1-0.19c0,0,0,0,0,0l1.29-13.1l5.84,7.77
	c0.19,0.24,0.47,0.38,0.77,0.38h9.64l-4.37,8.14c-0.16,0.3-0.16,0.67,0.01,0.96l3.89,6.71L111.47,989.95z M131.66,990.06h-10.25
	l-4.18-7.22l4.61-8.59h9.82l4.23,7.42L131.66,990.06z M136.96,979.65l-3.9-6.84c-0.17-0.3-0.49-0.49-0.84-0.49h-9.24l4.93-8.17
	c0.16-0.27,0.18-0.6,0.06-0.89l-3.85-9.04c0.07-0.05,0.13-0.12,0.18-0.19l12.3,5.08c0.12,0.05,0.25,0.08,0.38,0.08l0.25-0.03
	l13.1-5.42l-3.8,9.15c-0.12,0.27-0.11,0.58,0.04,0.85l4.7,8.59h-9.8c-0.36,0-0.68,0.19-0.85,0.51L136.96,979.65z M152.45,990.06
	h-10.34l-4.04-8.39l3.98-7.4h10.27l4.41,8.57L152.45,990.06z M173.79,989.43c-0.29,0.04-0.54,0.21-0.69,0.46l-4.94,8.16l-4.87-7.64
	c-0.18-0.27-0.49-0.44-0.81-0.44l-7.72,0.03l3.93-6.62c0.17-0.29,0.19-0.65,0.03-0.95l-4.2-8.15h9.58c0.3,0,0.59-0.15,0.77-0.38
	l5.89-7.73l1.39,12.96c0.02,0.19,0.1,0.36,0.2,0.48l11.24,8.56L173.79,989.43z M201.5,986.51l-15.17,1.31l-12.34-9.33l-1.55-14.59
	l8.91-11.53l15.85-1.92l11.47,8.71l2,15.4L201.5,986.51z M210.55,958.5c-0.04-0.26-0.17-0.49-0.38-0.65l-10.19-7.74l8.81-1.06
	c0.3-0.04,0.56-0.21,0.71-0.46l5.26-8.84l4.6,8.01c0.17,0.3,0.49,0.49,0.84,0.49h0l7.72-0.03l-3.93,6.63
	c-0.17,0.29-0.18,0.66-0.02,0.96l4.65,8.63l-9.82,0.05c-0.31,0-0.59,0.15-0.77,0.39l-5.68,7.5L210.55,958.5z M234.69,974.72
	l-5.01,10.85l-14.84,6.02l-2.14-16.48l6.57-8.69l10.41-0.05L234.69,974.72z M240.55,948.23l4.26,8.95l-4.21,7.24h-9.79l-4.88-9.06
	l4.23-7.14H240.55z M234.11,937.85l-4.9,8.42l-8.46,0.04l-4.85-8.44l5.05-8l8.27,0.12L234.11,937.85z M240.6,912.21l4.23,7.42
	l-4.23,8.39h-10.25l-4.18-7.22l4.61-8.59H240.6z M234.93,901.51l-5.27,8.76h-10.23l-6.18-8.21c0.03-0.25-0.03-0.5-0.19-0.71
	l-0.41-0.53l1.59-16.7l16.14,6.67L234.93,901.51z M224.61,874.96c-0.08,0.22-0.08,0.45,0.01,0.67l4.79,12.65l-15.65-6.46l-0.24-0.07
	h-0.12c-0.18,0-0.35,0.05-0.49,0.14c-0.26,0.15-0.43,0.43-0.47,0.74l-1.52,15.94l-8.04-10.45c-0.15-0.21-0.39-0.35-0.64-0.38
	l-13.13-1.86l12.86-9.82c0.24-0.19,0.38-0.48,0.38-0.77c0-0.3-0.15-0.59-0.39-0.78l-12.71-9.61l13.63-1.71
	c0.25-0.03,0.48-0.16,0.64-0.36l7.78-9.73l1.92,14.75c0.04,0.3,0.21,0.55,0.46,0.7c0.15,0.09,0.32,0.14,0.5,0.14l0.25-0.02
	l14.48-5.88L224.61,874.96z M234.82,849.46l-5.01,10.85l-14.84,6.02L212.98,851l0.07-0.08c0.2-0.25,0.26-0.57,0.18-0.87l6.2-8.88
	l10.39-0.06L234.82,849.46z M240.68,822.97l4.26,8.95l-4.21,7.25h-9.79l-4.88-9.06l4.23-7.14H240.68z M234.23,812.59l-4.9,8.42
	l-8.45,0.03l-4.85-8.44l5.05-8l8.27,0.12L234.23,812.59z M240.73,786.96l4.23,7.42l-4.23,8.39h-10.25l-4.18-7.22l4.61-8.59H240.73z
	 M235.07,776.23l-5.29,8.78h-10.23l-6.82-9.06l1.63-17.08l16.97,7.01L235.07,776.23z M225.23,749.78l0,0.21l0,0.21l5.14,13.17
	l-16.47-6.81l-0.24-0.07h-0.13c-0.18,0-0.35,0.04-0.5,0.14c-0.26,0.15-0.43,0.43-0.46,0.74l-1.54,16.11l-7.24-10.67
	c-0.15-0.23-0.39-0.38-0.67-0.42l-13.98-1.83l12.84-9.8c0.23-0.18,0.37-0.47,0.37-0.76c0-0.29-0.14-0.58-0.37-0.76l-12.84-9.8
	l13.98-1.83c0.28-0.04,0.52-0.19,0.67-0.42l7.24-10.67l1.54,16.11c0.03,0.31,0.2,0.59,0.46,0.74c0.15,0.09,0.32,0.14,0.5,0.14h0.13
	l0.24-0.07l16.47-6.81L225.23,749.78z M235.07,723.76l-3.74,10.35l-16.97,7.01l-1.63-17.08l6.82-9.06h10.23L235.07,723.76z
	 M240.72,697.23l4.23,8.39l-4.23,7.42h-9.82l-4.61-8.59l4.18-7.22H240.72z M234.23,687.4l-4.88,7.87l-8.27,0.12l-5.05-8l4.85-8.44
	l8.45,0.03L234.23,687.4z M240.73,660.82l4.21,7.25l-4.26,8.95h-10.39l-4.23-7.14l4.88-9.06H240.73z M234.82,650.52l-5,8.35
	l-10.39-0.06l-6.2-8.88c0.08-0.29,0.02-0.62-0.18-0.87l-0.07-0.08l1.99-15.34l14.84,6.02L234.82,650.52z M224.62,624.35
	c-0.08,0.22-0.08,0.46-0.01,0.67l4.29,12.19l-14.48-5.88l-0.25-0.02c-0.17,0-0.35,0.05-0.5,0.14c-0.25,0.15-0.42,0.4-0.46,0.7
	l-1.92,14.75l-7.78-9.73c-0.16-0.2-0.39-0.33-0.64-0.36l-13.63-1.71l12.71-9.61c0.24-0.18,0.39-0.47,0.39-0.78
	c0-0.3-0.14-0.59-0.38-0.77l-12.86-9.82l13.13-1.86c0.25-0.03,0.48-0.17,0.64-0.38l8.04-10.45l1.52,15.94
	c0.03,0.31,0.21,0.58,0.47,0.74c0.14,0.09,0.32,0.14,0.49,0.14h0.12l0.24-0.07l15.65-6.46L224.62,624.35z M234.93,598.47
	l-4.56,10.72l-16.14,6.67l-1.59-16.7l0.41-0.53c0.16-0.21,0.22-0.46,0.19-0.71l6.18-8.21h10.23L234.93,598.47z M240.6,571.97
	l4.23,8.39l-4.23,7.42h-9.82l-4.61-8.59l4.18-7.22H240.6z M234.11,562.14l-4.88,7.87l-8.27,0.12l-5.05-8l4.85-8.44l8.46,0.04
	L234.11,562.14z M240.61,535.57l4.21,7.24l-4.26,8.95h-10.39l-4.23-7.14l4.88-9.06H240.61z M234.69,525.27l-5,8.35l-10.41-0.05
	l-6.57-8.69l2.14-16.48l14.84,6.02L234.69,525.27z M224.15,499.52l-0.07,0.24V500h0v0.24l0.07,0.24l4.52,11.44l-14.37-5.84
	l-0.25-0.02c-0.18,0-0.35,0.05-0.5,0.14c-0.24,0.14-0.42,0.41-0.46,0.71l-2.06,15.8l-8.27-10.76c-0.17-0.22-0.41-0.35-0.68-0.38
	l-13.46-1.16l12.6-9.53c0.24-0.18,0.38-0.47,0.38-0.77l0-0.12h0l0-0.11c0-0.3-0.15-0.6-0.38-0.77l-12.6-9.53l13.46-1.16
	c0.27-0.02,0.52-0.16,0.68-0.38l8.27-10.76l2.06,15.8c0.04,0.3,0.22,0.57,0.46,0.71c0.15,0.09,0.32,0.14,0.5,0.14l0.25-0.02
	l14.37-5.84L224.15,499.52z M234.69,474.72l-5.01,10.85l-14.84,6.02l-2.14-16.48l6.57-8.69l10.41-0.05L234.69,474.72z
	 M240.55,448.23l4.26,8.95l-4.21,7.24h-9.79l-4.88-9.06l4.23-7.14H240.55z M234.11,437.85l-4.9,8.42l-8.46,0.04l-4.85-8.44l5.05-8
	l8.27,0.12L234.11,437.85z M240.6,412.21l4.23,7.42l-4.23,8.39h-10.25l-4.18-7.22l4.61-8.59H240.6z M234.93,401.51l-5.27,8.76
	h-10.23l-6.18-8.21c0.03-0.25-0.03-0.5-0.19-0.71l-0.41-0.53l1.59-16.7l16.14,6.67L234.93,401.51z M224.61,374.97
	c-0.08,0.22-0.08,0.45,0.01,0.67l4.79,12.65l-15.65-6.46l-0.24-0.07h-0.12c-0.18,0-0.35,0.05-0.49,0.14
	c-0.26,0.15-0.43,0.43-0.47,0.74l-1.52,15.94l-8.04-10.45c-0.15-0.21-0.39-0.35-0.64-0.38l-13.13-1.86l12.86-9.82
	c0.24-0.19,0.38-0.48,0.38-0.77c0-0.3-0.15-0.59-0.39-0.78l-12.71-9.61l13.63-1.71c0.25-0.03,0.48-0.16,0.64-0.36l7.78-9.73
	l1.92,14.75c0.04,0.3,0.21,0.55,0.46,0.7c0.15,0.09,0.32,0.14,0.5,0.14l0.25-0.02l14.48-5.88L224.61,374.97z M234.82,349.46
	l-5.01,10.85l-14.84,6.02L212.98,351l0.07-0.08c0.2-0.25,0.26-0.57,0.18-0.87l6.2-8.88l10.39-0.06L234.82,349.46z M240.67,322.97
	l4.26,8.95l-4.21,7.25h-9.79l-4.88-9.06l4.23-7.14H240.67z M234.23,312.59l-4.9,8.42l-8.45,0.03l-4.85-8.44l5.05-8l8.27,0.12
	L234.23,312.59z M240.73,286.96l4.23,7.42l-4.23,8.39h-10.25l-4.18-7.22l4.61-8.59H240.73z M235.07,276.23l-5.29,8.78h-10.23
	l-6.82-9.06l1.63-17.08l16.97,7.01L235.07,276.23z M225.23,249.79l0,0.21l0,0.21l5.14,13.17l-16.47-6.81l-0.24-0.07h-0.13
	c-0.18,0-0.35,0.04-0.5,0.14c-0.26,0.15-0.43,0.43-0.46,0.74l-1.54,16.11l-7.24-10.67c-0.15-0.23-0.39-0.38-0.67-0.42l-13.98-1.83
	l12.84-9.8c0.23-0.18,0.37-0.47,0.37-0.76c0-0.29-0.14-0.58-0.37-0.76l-12.84-9.8l13.98-1.83c0.28-0.04,0.52-0.19,0.67-0.42
	l7.24-10.67l1.54,16.11c0.03,0.31,0.2,0.59,0.46,0.74c0.15,0.09,0.32,0.14,0.5,0.14h0.13l0.24-0.07l16.47-6.81L225.23,249.79z
	 M235.07,223.76l-3.74,10.35l-16.97,7.01l-1.63-17.08l6.82-9.06h10.23L235.07,223.76z M240.72,197.23l4.23,8.39l-4.23,7.42h-9.82
	l-4.61-8.59l4.18-7.22H240.72z M234.23,187.4l-4.88,7.87l-8.27,0.12l-5.05-8l4.85-8.44l8.45,0.03L234.23,187.4z M240.73,160.82
	l4.21,7.25l-4.26,8.95h-10.39l-4.23-7.14l4.88-9.06H240.73z M234.82,150.53l-5,8.35l-10.39-0.06l-6.2-8.88
	c0.08-0.29,0.02-0.62-0.18-0.87l-0.07-0.08l1.99-15.34l14.84,6.02L234.82,150.53z M224.62,124.35c-0.08,0.22-0.08,0.46-0.01,0.67
	l4.29,12.19l-14.48-5.88l-0.25-0.02c-0.17,0-0.35,0.05-0.5,0.14c-0.25,0.15-0.42,0.4-0.46,0.7l-1.92,14.75l-7.78-9.73
	c-0.16-0.2-0.39-0.33-0.64-0.36l-13.63-1.71l12.71-9.61c0.24-0.18,0.39-0.47,0.39-0.78c0-0.3-0.14-0.59-0.38-0.77l-12.86-9.82
	l13.13-1.86c0.25-0.03,0.48-0.17,0.64-0.38l8.04-10.45l1.52,15.94c0.03,0.31,0.21,0.58,0.47,0.74c0.14,0.09,0.32,0.14,0.49,0.14
	h0.12l0.24-0.07l15.65-6.46L224.62,124.35z M234.93,98.48l-4.56,10.72l-16.14,6.67l-1.59-16.7l0.41-0.53
	c0.16-0.21,0.22-0.46,0.19-0.71l6.18-8.21h10.23L234.93,98.48z M240.6,71.97l4.23,8.39l-4.23,7.42h-9.82l-4.61-8.59l4.18-7.22H240.6
	z M234.11,62.14l-4.88,7.87l-8.27,0.12l-5.05-8l4.85-8.44l8.46,0.04L234.11,62.14z M240.61,35.57l4.21,7.24l-4.26,8.95h-10.39
	l-4.23-7.14l4.88-9.06H240.61z M214.85,8.4l14.84,6.02l5.01,10.85l-5,8.35l-10.41-0.05l-6.57-8.69L214.85,8.4z M212.35,27.62
	l5.68,7.5c0.17,0.24,0.46,0.39,0.77,0.39l9.82,0.05l-4.65,8.63c-0.16,0.3-0.15,0.67,0.02,0.96l3.93,6.63l-7.72-0.03h0
	c-0.35,0-0.67,0.19-0.84,0.49l-4.6,8.01l-5.26-8.84c-0.15-0.26-0.41-0.43-0.71-0.46l-8.81-1.06l10.19-7.74
	c0.21-0.15,0.34-0.39,0.38-0.65L212.35,27.62z M186.33,12.17l15.17,1.31l9.18,11.95l-2,15.4l-11.47,8.71l-15.85-1.92l-8.91-11.53
	l1.55-14.59L186.33,12.17z M162.46,10.02c0.33,0,0.63-0.16,0.81-0.44l4.87-7.64l4.94,8.16c0.15,0.25,0.4,0.42,0.69,0.46l9.76,1.27
	l-11.24,8.56c-0.1,0.12-0.18,0.29-0.2,0.48l-1.39,12.96l-5.89-7.73c-0.17-0.24-0.46-0.38-0.77-0.38h-9.58l4.2-8.15
	c0.15-0.3,0.14-0.66-0.03-0.95l-3.93-6.62L162.46,10.02z M142.11,9.93h10.34l4.28,7.23l-4.41,8.57h-10.27l-3.98-7.4L142.11,9.93z
	 M140.62,27.15c0.17,0.31,0.5,0.51,0.85,0.51h9.8l-4.7,8.59c-0.14,0.27-0.16,0.58-0.04,0.85l3.8,9.15l-13.1-5.42l-0.25-0.03
	c-0.13,0-0.26,0.03-0.38,0.08l-12.3,5.08c-0.05-0.07-0.11-0.14-0.18-0.19l3.85-9.04c0.12-0.29,0.1-0.62-0.06-0.89l-4.93-8.17h9.24
	c0.34,0,0.67-0.19,0.84-0.49l3.9-6.84L140.62,27.15z M121.41,9.93h10.25l4.23,8.39l-4.23,7.42h-9.82l-4.61-8.59L121.41,9.93z
	 M100.21,10.6c0.28-0.03,0.53-0.2,0.68-0.46l4.97-8.2l4.83,7.63c0.17,0.28,0.48,0.45,0.79,0.45l7.71-0.11l-3.89,6.71
	c-0.17,0.29-0.18,0.66-0.01,0.96l4.37,8.14h-9.64c-0.3,0-0.58,0.14-0.77,0.38l-5.84,7.77l-1.29-13.1c0,0,0,0,0,0
	c0,0-0.02-0.1-0.1-0.19c-0.01-0.04-0.1-0.14-0.21-0.23l-11.03-8.3L100.21,10.6z M72.86,13.78l15.19-1.33l12.23,9.2l1.28,14.7
	l-8.6,12.04l-15.22,1.55l-11.93-9.1l-2.46-16.06L72.86,13.78z M64.04,41.76c0.1,0.19,0.18,0.28,0.28,0.36l10.53,8.04l-9.96,0.8
	c-0.34,0.03-0.63,0.23-0.78,0.52l-4.47,8.63l-4.42-7.87c-0.17-0.3-0.48-0.49-0.82-0.49l-8.24-0.09l3.97-6.69
	c0.17-0.28,0.18-0.63,0.04-0.92l-4.19-8.48h8.95c0.3,0,0.59-0.15,0.78-0.4L61.66,27L64.04,41.76z M39.45,25.26l5.68-11.16L58.87,8.4
	l2.43,15.8l-6.85,9.42h-9.5L39.45,25.26z M33.62,51.76l-4-8.95l3.95-7.24h10.26l4.38,8.87l-4.35,7.33H33.62z M40.08,62.14l4.97-8.54
	l8.77,0.09l4.74,8.44l-5.1,8l-8.45-0.04L40.08,62.14z M33.57,87.76l-3.98-7.4l4.04-8.39h10.34l4.28,7.22l-4.41,8.57H33.57z
	 M40.02,98.82l4.99-9.12h10.11l6.68,8.78c-0.02,0.2,0.02,0.4,0.13,0.58l-1.78,16.81l-15.76-6.53L40.02,98.82z M50.79,125.05
	c0.09-0.24,0.09-0.51-0.01-0.74l-5.3-12.41l15.25,6.31l0.25,0.03c0.18,0,0.35-0.05,0.5-0.14c0.26-0.16,0.43-0.43,0.46-0.73
	l1.7-16.12l8.45,10.65c0.16,0.2,0.38,0.32,0.63,0.36l14.04,1.55l-13.33,10.13c-0.24,0.18-0.38,0.47-0.38,0.78
	c0,0.3,0.14,0.59,0.38,0.77l13.09,9.85l-13.61,1.41c-0.26,0.03-0.49,0.15-0.64,0.35l-9.14,10.73l-2.4-15.68
	c-0.05-0.3-0.23-0.55-0.49-0.7c-0.24-0.14-0.57-0.17-0.85-0.05l-13.12,5.45L50.79,125.05z M39.57,150.52l5.68-11.15L59,133.65
	l2.42,15.8l-6.84,9.42h-9.5L39.57,150.52z M33.75,177.02l-4.01-8.95l3.95-7.24h10.27l4.38,8.87l-4.35,7.33H33.75z M40.2,187.4
	l4.97-8.54l8.77,0.1l4.74,8.43l-5.1,8l-8.45-0.03L40.2,187.4z M33.7,213.02l-3.98-7.4l4.04-8.39H44.1l4.28,7.22l-4.41,8.57H33.7z
	 M40.15,224.08l4.98-9.12h10.11l6.84,9l-1.82,17.17l-15.76-6.53L40.15,224.08z M50.9,250.37c0.05-0.12,0.08-0.24,0.08-0.38
	c0-0.13-0.03-0.26-0.08-0.38l-5.3-12.47l15.25,6.32l0.25,0.02c0.17,0,0.34-0.04,0.49-0.13c0.26-0.15,0.44-0.43,0.47-0.73l1.75-16.56
	l9.46,11.46c0.16,0.19,0.39,0.32,0.65,0.34l12.81,1.26l-13.29,10.1c-0.24,0.18-0.38,0.47-0.38,0.77c0,0.3,0.14,0.59,0.38,0.77
	l13.29,10.1l-12.81,1.26c-0.26,0.03-0.48,0.15-0.65,0.34l-9.46,11.46l-1.75-16.56c-0.03-0.3-0.21-0.58-0.47-0.73
	c-0.15-0.09-0.32-0.13-0.49-0.13l-0.25,0.02l-15.25,6.32L50.9,250.37z M40.15,275.91l4.37-10.52l15.76-6.53l1.82,17.17l-6.84,9
	H45.13L40.15,275.91z M33.76,302.76l-4.04-8.39l3.98-7.4h10.27l4.41,8.57l-4.28,7.22H33.76z M40.2,312.59l4.93-7.95l8.45-0.03l5.1,8
	l-4.74,8.43l-8.77,0.1L40.2,312.59z M33.69,339.17l-3.95-7.24l4.01-8.95h10.24l4.35,7.33l-4.38,8.87H33.69z M39.57,349.47l5.51-8.36
	h9.5l6.84,9.42L59,366.34l-13.75-5.71L39.57,349.47z M50.78,375.68c0.1-0.23,0.11-0.5,0.01-0.74l-4.52-11.8l13.12,5.45
	c0.28,0.12,0.61,0.1,0.85-0.05c0.26-0.15,0.44-0.4,0.49-0.7l2.4-15.68l9.14,10.73c0.16,0.19,0.38,0.31,0.64,0.35l13.61,1.41
	l-13.09,9.85c-0.24,0.19-0.38,0.47-0.38,0.77c0,0.31,0.14,0.6,0.38,0.78l13.33,10.13l-14.04,1.55c-0.25,0.03-0.48,0.16-0.63,0.36
	l-8.45,10.65l-1.7-16.12c-0.03-0.3-0.2-0.57-0.46-0.73c-0.15-0.09-0.32-0.14-0.5-0.14l-0.25,0.03l-15.25,6.31L50.78,375.68z
	 M40.02,401.17l4.37-10.52l15.76-6.53l1.78,16.81c-0.1,0.18-0.14,0.38-0.13,0.58l-6.68,8.78H45.01L40.02,401.17z M33.63,428.02
	l-4.04-8.39l3.98-7.4h10.27l4.41,8.57l-4.28,7.22H33.63z M40.08,437.85l4.93-7.95l8.45-0.04l5.1,8l-4.74,8.44l-8.77,0.09
	L40.08,437.85z M33.57,464.42l-3.95-7.24l4-8.95h10.25l4.35,7.33l-4.38,8.87H33.57z M39.45,474.73l5.51-8.36h9.5l6.85,9.42
	l-2.43,15.8l-13.74-5.71L39.45,474.73z"/>
</svg>
