<svg width="64" height="64" viewBox="0 0 64 64" fill="none" xmlns="http://www.w3.org/2000/svg">
<path d="M45.2419 18.7582C44.1082 17.6244 42.6009 17 40.9976 17C39.3943 17 37.8869 17.6244 36.7532 18.7581L19.9781 35.5333C19.8353 35.676 19.7319 35.8532 19.6778 36.0477L17.0429 45.5139C16.9293 45.9222 17.0449 46.36 17.3455 46.6589C17.5681 46.8804 17.8665 47 18.172 47C18.2787 47 18.3864 46.9854 18.4921 46.9554L27.9583 44.2664C28.3577 44.153 28.6673 43.8366 28.7721 43.4349C28.8768 43.0331 28.7612 42.6059 28.468 42.3118L22.5001 36.3258L36.4053 22.4206L41.5767 27.5919L30.9317 38.2079C30.4734 38.6649 30.4724 39.4069 30.9295 39.8652C31.3864 40.3235 32.1285 40.3244 32.5867 39.8674L45.2418 27.2468C46.3756 26.1131 47 24.6058 47 23.0025C47 21.3992 46.3756 19.8918 45.2419 18.7582ZM25.402 42.5561L19.8609 44.1301L21.4128 38.5548L25.402 42.5561ZM43.5857 25.5884L43.2362 25.937L38.0626 20.7633L38.4106 20.4154C39.1015 19.7243 40.0203 19.3438 40.9976 19.3438C41.9749 19.3438 42.8936 19.7243 43.5846 20.4154C44.2757 21.1064 44.6562 22.0252 44.6562 23.0025C44.6562 23.9797 44.2757 24.8985 43.5857 25.5884Z" fill="white"/>
</svg>
