<svg width="64" height="64" viewBox="0 0 64 64" fill="none" xmlns="http://www.w3.org/2000/svg">
<path d="M37.8251 47C38.5028 46.9982 39.0959 46.5441 39.2746 45.8902L40.6569 40.7284L45.8917 39.3287C46.6894 39.1117 47.1617 38.291 46.9491 37.4923L44.2349 27.374L44.4497 26.5741C44.644 25.8374 44.255 25.072 43.5455 24.7946L42.3234 20.2315C42.1046 19.4344 41.2861 18.9613 40.4864 19.1696L31.559 21.5649L24.0731 19.5575C23.7662 19.4733 23.4404 19.4909 23.1446 19.6077L21.2744 17.7404C20.6441 17.1041 19.7217 16.8537 18.8563 17.0842C17.991 17.3147 17.315 17.9905 17.0844 18.8561C16.8537 19.7216 17.1036 20.6444 17.7395 21.2749L21.1481 24.6843L17.0643 39.9331C16.8505 40.7328 17.3233 41.5546 18.1218 41.772L37.4359 46.948C37.5626 46.9826 37.6935 47.0002 37.8251 47V47ZM45.9819 37.7507C46.0526 38.0159 45.8963 38.2887 45.6318 38.3617L40.9562 39.6116L43.7159 29.3069L45.9819 37.7507ZM40.7422 20.1366C40.8711 20.1013 41.0086 20.1192 41.1241 20.186C41.2397 20.2526 41.3237 20.3629 41.3575 20.492L42.4238 24.4758L33.49 22.0819L40.7422 20.1366ZM32.1448 32.1506L29.6212 31.3093L31.3036 29.6248L32.1448 32.1488V32.1506ZM30.1104 29.407L25.869 25.1643C25.6739 24.969 25.3572 24.969 25.162 25.1645C24.9668 25.3597 24.9671 25.6765 25.1625 25.8717L29.404 30.1132L28.6974 30.8209L21.628 23.7499L22.3348 23.0429L23.7482 24.4573C23.8747 24.5836 24.0587 24.6331 24.2314 24.5866C24.4039 24.5404 24.5387 24.4056 24.5849 24.233C24.6312 24.0604 24.582 23.8762 24.4557 23.7499L23.042 22.336L23.7489 21.6285L30.8172 28.6995L30.1104 29.407ZM20.2139 22.336L22.3348 20.2146L23.0416 20.9216L20.9212 23.0429L20.2139 22.336ZM18.0074 19.5076C18.0074 18.9009 18.3728 18.3537 18.9332 18.1216C19.4938 17.8896 20.1388 18.018 20.5676 18.4471L21.628 19.5076L19.5071 21.629L18.4463 20.568C18.1644 20.2874 18.0063 19.9056 18.0074 19.5076ZM18.0305 40.1956L21.9652 25.5016L28.3435 31.8812C28.3956 31.9322 28.4583 31.9709 28.5274 31.9947C28.5313 31.9947 28.5343 32.0002 28.5389 32.0016L31.8315 33.1015C31.9342 33.1354 32.042 33.1521 32.1502 33.1516C32.3386 33.1509 32.5228 33.0967 32.6811 32.9951L38.4294 34.539C38.4717 34.5507 38.5154 34.5566 38.5594 34.5564C38.8104 34.5564 39.0222 34.3703 39.0547 34.1216C39.0875 33.8728 38.9307 33.6384 38.6884 33.5737L33.1401 32.0838C33.1351 31.9988 33.1197 31.9149 33.0941 31.8336L31.9944 28.54C31.9944 28.5354 31.9889 28.5325 31.9869 28.5279C31.9631 28.4595 31.9244 28.397 31.8738 28.345L24.1481 20.6144L43.1281 25.6996C43.2565 25.7339 43.3658 25.8177 43.4322 25.9328C43.4986 26.0477 43.5164 26.1843 43.4821 26.3127L38.3095 45.6286C38.2754 45.757 38.1914 45.8667 38.0763 45.933C37.9612 45.9994 37.8244 46.0173 37.6963 45.9827L18.3843 40.8085C18.2561 40.7742 18.1468 40.6904 18.0802 40.5755C18.0138 40.4604 17.996 40.3238 18.0305 40.1956Z" fill="white"/>
<path d="M40.5694 29C40.7855 28.9998 40.9681 28.8079 40.9963 28.5513C41.0243 28.295 40.8893 28.0531 40.6806 27.9863L34.5536 26.0215C34.4033 25.9679 34.2408 26.0163 34.129 26.1477C34.0172 26.279 33.9738 26.4727 34.0156 26.6533C34.0574 26.8341 34.1781 26.9733 34.3304 27.017L40.4578 28.9823C40.4943 28.9941 40.5317 29 40.5694 29V29Z" fill="white"/>
<path d="M39.5723 32C39.7869 31.9998 39.9683 31.8379 39.9963 31.6211C40.0243 31.4044 39.8902 31.2002 39.6827 31.1435L35.5451 30.0167C35.3965 29.9736 35.2366 30.0153 35.1268 30.1262C35.0169 30.2368 34.9744 30.3993 35.0153 30.5511C35.0562 30.7028 35.1743 30.8203 35.3244 30.8582L39.462 31.9852C39.4978 31.995 39.5351 32 39.5723 32V32Z" fill="white"/>
<path d="M25.548 32.2936L23.7805 32.0144C23.5684 31.9779 23.3393 32.0118 23.182 32.1033C23.0246 32.1945 22.9632 32.3289 23.0218 32.4546C23.0804 32.5801 23.2495 32.6771 23.4641 32.7082L25.2316 32.9878C25.2835 32.9959 25.3365 33 25.3901 33C25.6962 33.0002 25.9548 32.8664 25.9947 32.6877C26.0346 32.5089 25.8435 32.3403 25.548 32.2936Z" fill="white"/>
<path d="M38.983 37.5349C39.0539 37.1987 38.8965 36.8536 38.6318 36.7633L27.5921 33.0118C27.3359 32.9483 27.0848 33.1474 27.017 33.4671C26.9495 33.7868 27.0885 34.1186 27.3353 34.2262L38.3743 37.9781C38.4164 37.9928 38.4596 38 38.503 38C38.7275 38.0003 38.9243 37.8096 38.983 37.5349Z" fill="white"/>
<path d="M24.5451 35.5838L22.7684 35.0237C22.4422 34.9232 22.1082 35.1514 22.021 35.5343C21.9338 35.9175 22.1264 36.3117 22.4518 36.4159L24.2284 36.9749C24.2801 36.9917 24.3333 37.0003 24.3872 37C24.6946 37.0003 24.9545 36.7322 24.9947 36.3737C25.035 36.0152 24.8429 35.6771 24.5456 35.5838H24.5451Z" fill="white"/>
<path d="M37.6634 39.7651L27.5831 36.026C27.4248 35.961 27.2537 36.0199 27.1359 36.1798C27.0181 36.34 26.9724 36.5757 27.0165 36.796C27.0605 37.0159 27.1876 37.1855 27.348 37.239L37.4285 40.9779C37.4669 40.9925 37.5066 41 37.5465 41C37.7741 40.9997 37.9664 40.766 37.9961 40.4534C38.0256 40.1409 37.8834 39.8465 37.6634 39.7651V39.7651Z" fill="white"/>
</svg>
