<svg width="64" height="64" viewBox="0 0 64 64" fill="none" xmlns="http://www.w3.org/2000/svg">
<path d="M41.7815 39.6958C41.5388 39.6958 41.3421 39.4531 41.3421 39.6958L41.3422 45.8783C41.3422 46.0121 41.2333 46.121 41.0996 46.121H38.7372V37.4669C38.7372 37.2242 38.5405 37.0274 38.2978 37.0274C38.0551 37.0274 37.8583 37.2242 37.8583 37.4669V46.121H33.1014L34.4809 44.6035C34.6316 44.4376 34.7027 44.2014 34.671 43.9714C34.6704 43.967 34.6697 43.9625 34.6689 43.958L33.3551 36.1963L33.709 35.6635C33.9047 35.8024 34.0555 35.9363 34.3382 35.9363C34.6258 35.9363 34.8947 35.7753 35.027 35.5104L36.4127 32.7329L39.5695 33.9555C39.6837 34.0045 41.3421 34.7513 41.3421 36.7234V39.6958C41.342 39.9385 41.5388 39.6958 41.7815 39.6958C42.0242 39.6958 42.221 39.9385 42.221 39.6958V36.7234C42.221 34.1251 39.9963 33.1806 39.9016 33.1416C39.8988 33.1405 39.896 33.1394 39.8932 33.1383L34.6392 31.1036V29.8713C35.4737 29.2224 36.0523 28.2603 36.1976 27.1627C36.6136 27.1334 36.9997 26.978 37.315 26.7069C37.7267 26.3529 37.963 25.8375 37.963 25.2933C37.963 24.8417 37.8 24.4104 37.5096 24.0744V22.4465C37.5096 19.4433 35.0663 17 32.0632 17C29.06 17 26.6168 19.4433 26.6168 22.4465V24.117C26.3233 24.4497 26.1637 24.8591 26.1637 25.2932C26.1637 25.8376 26.3998 26.3529 26.8117 26.7071C27.1267 26.978 27.5126 27.1333 27.9285 27.1626C28.0749 28.2808 28.6704 29.2787 29.576 29.9364V31.1036L24.3277 33.1382C24.3249 33.1393 24.3222 33.1404 24.3194 33.1415C24.2247 33.1805 22 34.125 22 36.7232V45.8782C22 46.4967 22.5031 46.9998 23.1216 46.9998H27.3085C27.5512 46.9998 27.748 46.8031 27.748 46.5604C27.748 46.3177 27.5512 46.1209 27.3085 46.1209H26.363V37.4669C26.363 37.2242 26.1662 37.0274 25.9236 37.0274C25.6809 37.0274 25.4841 37.2242 25.4841 37.4669V46.121H23.1217C22.9879 46.121 22.879 46.0122 22.879 45.8784V36.7233C22.879 34.7446 24.5485 33.9995 24.6511 33.9557L27.8054 32.7328L29.1913 35.5103C29.3239 35.7759 29.5931 35.9363 29.8801 35.9363C30.1614 35.9363 30.3107 35.8045 30.5093 35.6635L30.8632 36.1963L29.5495 43.9581C29.5488 43.9625 29.5481 43.9669 29.5475 43.9713C29.5157 44.2013 29.5868 44.4376 29.7375 44.6035L31.117 46.1211L27.3085 46.1209C25.2576 46.1207 27.748 46.3177 27.748 46.5604C27.748 46.8031 27.0658 46.9998 27.3085 46.9998L41.0996 47C41.7181 47 42.2212 46.4968 42.2212 45.8784L42.221 39.6958C42.2208 37.6449 41.7815 38.0844 41.7815 39.6958ZM35.5895 32.4142L34.2976 35.0035C34.2655 34.9807 33.5808 34.4942 32.7439 33.8999C33.107 33.4516 32.6822 33.976 34.3397 31.9302L35.5895 32.4142ZM32.992 35.1543L32.6569 35.6586H31.561L31.226 35.1543L32.109 34.5271L32.992 35.1543ZM30.4548 31.2454V30.4229C30.9887 30.6382 31.5593 30.7379 32.1166 30.7379C32.6927 30.7379 33.2577 30.6151 33.7602 30.3954V31.2489L32.109 33.2871L30.4548 31.2454ZM37.084 25.2933C37.084 25.5812 36.9593 25.8536 36.7419 26.0405C36.5982 26.1642 36.4246 26.2432 36.2344 26.2742V24.3126C36.7395 24.3946 37.084 24.8136 37.084 25.2933ZM27.8922 26.2742C27.3814 26.1913 27.0426 25.7689 27.0426 25.2932C27.0426 24.8234 27.4321 24.4411 27.8922 24.3347V26.2742ZM27.9158 23.4392C27.7758 23.4553 27.6154 23.4932 27.4958 23.5338V22.4465C27.4958 19.9279 29.5447 17.879 32.0632 17.879C34.5818 17.879 36.6307 19.9279 36.6307 22.4465V23.5037C36.503 23.4648 36.3705 23.4392 36.2345 23.4271C36.2345 23.003 36.2382 23.0848 34.851 21.5935C34.5958 21.3194 34.1738 21.2619 33.8527 21.4718C32.3216 22.4719 30.454 22.9743 28.7307 22.8506C28.3527 22.8223 28.0084 23.0713 27.9158 23.4392ZM28.7712 26.6202V23.8784V23.734C30.6681 23.8451 32.657 23.2815 34.2637 22.2526C34.8999 22.9357 35.2444 23.294 35.3555 23.4303C35.3555 23.775 35.3555 26.2255 35.3555 26.6201C35.3555 28.4041 33.9009 29.8589 32.1166 29.8589C30.1131 29.859 28.7712 28.3047 28.7712 26.6202ZM29.9205 35.0035L28.6285 32.4142L29.8762 31.931L31.4723 33.9012C30.6606 34.4776 29.9941 34.9511 29.9205 35.0035ZM30.4247 44.0529L31.6967 36.5374H32.5212L33.7932 44.0529L32.1089 45.9058L30.4247 44.0529Z" fill="white"/>
</svg>
