<svg width="64" height="64" viewBox="0 0 64 64" fill="none" xmlns="http://www.w3.org/2000/svg">
<path d="M43.5833 19.9H41.1667V18.9333C41.1667 18.4206 40.963 17.9288 40.6004 17.5663C40.2378 17.2037 39.7461 17 39.2333 17C38.7206 17 38.2288 17.2037 37.8663 17.5663C37.5037 17.9288 37.3 18.4206 37.3 18.9333V19.9H33.4333V18.9333C33.4333 18.4206 33.2296 17.9288 32.8671 17.5663C32.5045 17.2037 32.0128 17 31.5 17C30.9872 17 30.4955 17.2037 30.1329 17.5663C29.7704 17.9288 29.5667 18.4206 29.5667 18.9333V19.9H25.7V18.9333C25.7 18.4206 25.4963 17.9288 25.1337 17.5663C24.7712 17.2037 24.2794 17 23.7667 17C23.2539 17 22.7622 17.2037 22.3996 17.5663C22.037 17.9288 21.8333 18.4206 21.8333 18.9333V19.9H19.4167C18.7757 19.9 18.161 20.1546 17.7078 20.6078C17.2546 21.061 17 21.6757 17 22.3167V41.65C17 42.2909 17.2546 42.9056 17.7078 43.3588C18.161 43.8121 18.7757 44.0667 19.4167 44.0667H32.95C33.0782 44.0667 33.2011 44.0157 33.2918 43.9251C33.3824 43.8345 33.4333 43.7115 33.4333 43.5833C33.4333 43.4551 33.3824 43.3322 33.2918 43.2416C33.2011 43.1509 33.0782 43.1 32.95 43.1H19.4167C19.0325 43.0989 18.6643 42.9457 18.3926 42.674C18.121 42.4024 17.9678 42.0342 17.9667 41.65V26.6667H45.0333V34.8833C45.0333 35.0115 45.0843 35.1345 45.1749 35.2251C45.2655 35.3157 45.3885 35.3667 45.5167 35.3667C45.6449 35.3667 45.7678 35.3157 45.8584 35.2251C45.9491 35.1345 46 35.0115 46 34.8833V22.3167C46 21.6757 45.7454 21.061 45.2922 20.6078C44.839 20.1546 44.2243 19.9 43.5833 19.9ZM38.2667 18.9333C38.2667 18.677 38.3685 18.4311 38.5498 18.2498C38.7311 18.0685 38.977 17.9667 39.2333 17.9667C39.4897 17.9667 39.7356 18.0685 39.9169 18.2498C40.0982 18.4311 40.2 18.677 40.2 18.9333V21.8333C40.2 22.0897 40.0982 22.3356 39.9169 22.5169C39.7356 22.6982 39.4897 22.8 39.2333 22.8C38.977 22.8 38.7311 22.6982 38.5498 22.5169C38.3685 22.3356 38.2667 22.0897 38.2667 21.8333V18.9333ZM30.5333 18.9333C30.5333 18.677 30.6352 18.4311 30.8165 18.2498C30.9977 18.0685 31.2436 17.9667 31.5 17.9667C31.7564 17.9667 32.0023 18.0685 32.1835 18.2498C32.3648 18.4311 32.4667 18.677 32.4667 18.9333V21.8333C32.4667 22.0897 32.3648 22.3356 32.1835 22.5169C32.0023 22.6982 31.7564 22.8 31.5 22.8C31.2436 22.8 30.9977 22.6982 30.8165 22.5169C30.6352 22.3356 30.5333 22.0897 30.5333 21.8333V18.9333ZM22.8 18.9333C22.8 18.677 22.9018 18.4311 23.0831 18.2498C23.2644 18.0685 23.5103 17.9667 23.7667 17.9667C24.023 17.9667 24.2689 18.0685 24.4502 18.2498C24.6315 18.4311 24.7333 18.677 24.7333 18.9333V21.8333C24.7333 22.0897 24.6315 22.3356 24.4502 22.5169C24.2689 22.6982 24.023 22.8 23.7667 22.8C23.5103 22.8 23.2644 22.6982 23.0831 22.5169C22.9018 22.3356 22.8 22.0897 22.8 21.8333V18.9333ZM45.0333 25.7H17.9667V22.3167C17.9678 21.9325 18.121 21.5643 18.3926 21.2926C18.6643 21.0209 19.0325 20.8678 19.4167 20.8667H21.8333V21.8333C21.8333 22.3461 22.037 22.8378 22.3996 23.2004C22.7622 23.563 23.2539 23.7667 23.7667 23.7667C24.2794 23.7667 24.7712 23.563 25.1337 23.2004C25.4963 22.8378 25.7 22.3461 25.7 21.8333V20.8667H29.5667V21.8333C29.5667 22.3461 29.7704 22.8378 30.1329 23.2004C30.4955 23.563 30.9872 23.7667 31.5 23.7667C32.0128 23.7667 32.5045 23.563 32.8671 23.2004C33.2296 22.8378 33.4333 22.3461 33.4333 21.8333V20.8667H37.3V21.8333C37.3 22.3461 37.5037 22.8378 37.8663 23.2004C38.2288 23.563 38.7206 23.7667 39.2333 23.7667C39.7461 23.7667 40.2378 23.563 40.6004 23.2004C40.963 22.8378 41.1667 22.3461 41.1667 21.8333V20.8667H43.5833C43.9675 20.8678 44.3357 21.0209 44.6074 21.2926C44.879 21.5643 45.0322 21.9325 45.0333 22.3167V25.7Z" fill="white"/>
<path d="M30.5332 30.0502C30.5332 29.7938 30.4313 29.5479 30.25 29.3666C30.0688 29.1853 29.8229 29.0835 29.5665 29.0835H27.6332C27.3768 29.0835 27.1309 29.1853 26.9496 29.3666C26.7683 29.5479 26.6665 29.7938 26.6665 30.0502V31.5002C26.6665 31.7565 26.7683 32.0024 26.9496 32.1837C27.1309 32.365 27.3768 32.4668 27.6332 32.4668H29.5665C29.8229 32.4668 30.0688 32.365 30.25 32.1837C30.4313 32.0024 30.5332 31.7565 30.5332 31.5002V30.0502ZM27.6332 31.5002V30.0502H29.5665V31.5002H27.6332Z" fill="white"/>
<path d="M24.7334 30.0502C24.7334 29.7938 24.6315 29.5479 24.4502 29.3666C24.269 29.1853 24.0231 29.0835 23.7667 29.0835H21.8334C21.577 29.0835 21.3311 29.1853 21.1498 29.3666C20.9685 29.5479 20.8667 29.7938 20.8667 30.0502V31.5002C20.8667 31.7565 20.9685 32.0024 21.1498 32.1837C21.3311 32.365 21.577 32.4668 21.8334 32.4668H23.7667C24.0231 32.4668 24.269 32.365 24.4502 32.1837C24.6315 32.0024 24.7334 31.7565 24.7334 31.5002V30.0502ZM21.8334 31.5002V30.0502H23.7667V31.5002H21.8334Z" fill="white"/>
<path d="M41.1666 32.4668C41.423 32.4668 41.6689 32.365 41.8501 32.1837C42.0314 32.0024 42.1333 31.7565 42.1333 31.5002V30.0502C42.1333 29.7938 42.0314 29.5479 41.8501 29.3666C41.6689 29.1853 41.423 29.0835 41.1666 29.0835H39.2333C38.9769 29.0835 38.731 29.1853 38.5497 29.3666C38.3684 29.5479 38.2666 29.7938 38.2666 30.0502V31.5002C38.2666 31.7565 38.3684 32.0024 38.5497 32.1837C38.731 32.365 38.9769 32.4668 39.2333 32.4668H41.1666ZM39.2333 30.0502H41.1666V31.5002H39.2333V30.0502Z" fill="white"/>
<path d="M30.5332 34.4003C30.5332 34.1439 30.4313 33.898 30.25 33.7167C30.0688 33.5354 29.8229 33.4336 29.5665 33.4336H27.6332C27.3768 33.4336 27.1309 33.5354 26.9496 33.7167C26.7683 33.898 26.6665 34.1439 26.6665 34.4003V35.8503C26.6665 36.1066 26.7683 36.3525 26.9496 36.5338C27.1309 36.7151 27.3768 36.8169 27.6332 36.8169H29.5665C29.8229 36.8169 30.0688 36.7151 30.25 36.5338C30.4313 36.3525 30.5332 36.1066 30.5332 35.8503V34.4003ZM27.6332 35.8503V34.4003H29.5665V35.8503H27.6332Z" fill="white"/>
<path d="M24.7334 34.4003C24.7334 34.1439 24.6315 33.898 24.4502 33.7167C24.269 33.5354 24.0231 33.4336 23.7667 33.4336H21.8334C21.577 33.4336 21.3311 33.5354 21.1498 33.7167C20.9685 33.898 20.8667 34.1439 20.8667 34.4003V35.8503C20.8667 36.1066 20.9685 36.3525 21.1498 36.5338C21.3311 36.7151 21.577 36.8169 21.8334 36.8169H23.7667C24.0231 36.8169 24.269 36.7151 24.4502 36.5338C24.6315 36.3525 24.7334 36.1066 24.7334 35.8503V34.4003ZM21.8334 35.8503V34.4003H23.7667V35.8503H21.8334Z" fill="white"/>
<path d="M29.5665 37.7837H27.6332C27.3768 37.7837 27.1309 37.8855 26.9496 38.0668C26.7683 38.2481 26.6665 38.494 26.6665 38.7504V40.2004C26.6665 40.4567 26.7683 40.7026 26.9496 40.8839C27.1309 41.0652 27.3768 41.167 27.6332 41.167H29.5665C29.8229 41.167 30.0688 41.0652 30.25 40.8839C30.4313 40.7026 30.5332 40.4567 30.5332 40.2004V38.7504C30.5332 38.494 30.4313 38.2481 30.25 38.0668C30.0688 37.8855 29.8229 37.7837 29.5665 37.7837ZM27.6332 40.2004V38.7504H29.5665V40.2004H27.6332Z" fill="white"/>
<path d="M33.433 32.4668H35.3663C35.6227 32.4668 35.8686 32.365 36.0498 32.1837C36.2311 32.0024 36.333 31.7565 36.333 31.5002V30.0502C36.333 29.7938 36.2311 29.5479 36.0498 29.3666C35.8686 29.1853 35.6227 29.0835 35.3663 29.0835H33.433C33.1766 29.0835 32.9307 29.1853 32.7494 29.3666C32.5682 29.5479 32.4663 29.7938 32.4663 30.0502V31.5002C32.4663 31.7565 32.5682 32.0024 32.7494 32.1837C32.9307 32.365 33.1766 32.4668 33.433 32.4668ZM33.433 30.0502H35.3663V31.5002H33.433V30.0502Z" fill="white"/>
<path d="M32.4663 35.8503C32.4663 36.1066 32.5682 36.3525 32.7494 36.5338C32.9307 36.7151 33.1766 36.8169 33.433 36.8169C33.5612 36.8169 33.6841 36.766 33.7747 36.6754C33.8654 36.5847 33.9163 36.4618 33.9163 36.3336C33.9163 36.2054 33.8654 36.0825 33.7747 35.9918C33.6841 35.9012 33.5612 35.8503 33.433 35.8503V34.4003H35.3663C35.4945 34.4003 35.6174 34.3493 35.7081 34.2587C35.7987 34.1681 35.8496 34.0451 35.8496 33.9169C35.8496 33.7887 35.7987 33.6658 35.7081 33.5752C35.6174 33.4845 35.4945 33.4336 35.3663 33.4336H33.433C33.1766 33.4336 32.9307 33.5354 32.7494 33.7167C32.5682 33.898 32.4663 34.1439 32.4663 34.4003V35.8503Z" fill="white"/>
<path d="M23.7667 37.7837H21.8334C21.577 37.7837 21.3311 37.8855 21.1498 38.0668C20.9685 38.2481 20.8667 38.494 20.8667 38.7504V40.2004C20.8667 40.4567 20.9685 40.7026 21.1498 40.8839C21.3311 41.0652 21.577 41.167 21.8334 41.167H23.7667C24.0231 41.167 24.269 41.0652 24.4502 40.8839C24.6315 40.7026 24.7334 40.4567 24.7334 40.2004V38.7504C24.7334 38.494 24.6315 38.2481 24.4502 38.0668C24.269 37.8855 24.0231 37.7837 23.7667 37.7837V37.7837ZM21.8334 40.2004V38.7504H23.7667V40.2004H21.8334Z" fill="white"/>
<path d="M39.7169 33.4336C38.4742 33.4336 37.2594 33.8021 36.2261 34.4925C35.1928 35.1829 34.3875 36.1643 33.9119 37.3124C33.4363 38.4605 33.3119 39.7239 33.5543 40.9427C33.7968 42.1616 34.3952 43.2812 35.2739 44.1599C36.1527 45.0387 37.2723 45.6371 38.4911 45.8795C39.71 46.122 40.9733 45.9975 42.1215 45.522C43.2696 45.0464 44.2509 44.241 44.9413 43.2078C45.6317 42.1745 46.0003 40.9597 46.0003 39.7169C45.9983 38.0511 45.3357 36.454 44.1578 35.2761C42.9799 34.0981 41.3828 33.4355 39.7169 33.4336V33.4336ZM39.7169 45.0336C38.6654 45.0336 37.6375 44.7218 36.7631 44.1376C35.8888 43.5534 35.2074 42.723 34.805 41.7515C34.4026 40.78 34.2973 39.711 34.5024 38.6797C34.7076 37.6484 35.2139 36.701 35.9575 35.9575C36.701 35.2139 37.6484 34.7076 38.6797 34.5024C39.711 34.2973 40.78 34.4026 41.7515 34.805C42.723 35.2074 43.5534 35.8888 44.1376 36.7631C44.7218 37.6375 45.0336 38.6654 45.0336 39.7169C45.0319 41.1265 44.4712 42.4778 43.4745 43.4745C42.4778 44.4713 41.1265 45.0319 39.7169 45.0336Z" fill="white"/>
<path d="M42.5092 37.6904L38.7499 41.4497L37.0413 39.7407C36.9501 39.6526 36.828 39.6039 36.7013 39.605C36.5746 39.6061 36.4533 39.6569 36.3637 39.7466C36.2741 39.8362 36.2233 39.9574 36.2222 40.0841C36.2211 40.2108 36.2698 40.3329 36.3578 40.4241L38.4081 42.4749C38.4988 42.5655 38.6217 42.6164 38.7499 42.6164C38.878 42.6164 39.0009 42.5655 39.0916 42.4749L43.1927 38.3738C43.2807 38.2826 43.3294 38.1606 43.3283 38.0338C43.3272 37.9071 43.2764 37.7859 43.1868 37.6963C43.0972 37.6066 42.9759 37.5558 42.8492 37.5547C42.7225 37.5536 42.6004 37.6023 42.5092 37.6904Z" fill="white"/>
</svg>
