<svg width="64" height="64" viewBox="0 0 64 64" fill="none" xmlns="http://www.w3.org/2000/svg">
<path d="M45.5333 20.8H35.3764L34.7868 18.3571C34.7622 18.2553 34.7041 18.1648 34.6219 18.1C34.5396 18.0353 34.438 18 34.3333 18H29.6667C29.562 18 29.4604 18.0353 29.3781 18.1C29.2959 18.1648 29.2378 18.2553 29.2132 18.3571L28.6235 20.8H18.4667C18.3429 20.8 18.2242 20.8492 18.1367 20.9367C18.0492 21.0242 18 21.1429 18 21.2667V39.9333C18 40.0571 18.0492 40.1758 18.1367 40.2633C18.2242 40.3508 18.3429 40.4 18.4667 40.4H20.8V41.8C20.8 41.9238 20.8492 42.0425 20.9367 42.13C21.0242 42.2175 21.1429 42.2667 21.2667 42.2667H23.4419L22.6799 45.424C22.6633 45.4926 22.6624 45.5641 22.6774 45.6331C22.6924 45.702 22.7229 45.7667 22.7666 45.8222C22.8103 45.8777 22.866 45.9225 22.9295 45.9533C22.993 45.9841 23.0627 46.0001 23.1333 46H25C25.104 46 25.2051 45.9652 25.2871 45.9011C25.3691 45.8371 25.4273 45.7475 25.4525 45.6466L26.2975 42.2667H30.6V45.5333C30.6 45.6571 30.6492 45.7758 30.7367 45.8633C30.8242 45.9508 30.9429 46 31.0667 46H32.9333C33.0571 46 33.1758 45.9508 33.2633 45.8633C33.3508 45.7758 33.4 45.6571 33.4 45.5333V42.2667H37.7025L38.5475 45.6466C38.5727 45.7475 38.6309 45.8371 38.7129 45.9011C38.7949 45.9652 38.896 46 39 46H40.8667C40.9373 46.0001 41.007 45.9841 41.0705 45.9533C41.134 45.9225 41.1897 45.8777 41.2334 45.8222C41.2771 45.7667 41.3076 45.702 41.3226 45.6331C41.3376 45.5641 41.3367 45.4926 41.3201 45.424L40.5581 42.2667H42.7333C42.8571 42.2667 42.9758 42.2175 43.0633 42.13C43.1508 42.0425 43.2 41.9238 43.2 41.8V40.4H45.5333C45.6571 40.4 45.7758 40.3508 45.8633 40.2633C45.9508 40.1758 46 40.0571 46 39.9333V21.2667C46 21.1429 45.9508 21.0242 45.8633 20.9367C45.7758 20.8492 45.6571 20.8 45.5333 20.8ZM34.4163 20.8H33.4V18.9333H33.9658L34.4163 20.8ZM32.4667 20.8H31.5333V18.9333H32.4667V20.8ZM30.0342 18.9333H30.6V20.8H29.5837L30.0342 18.9333ZM24.6354 45.0667H23.7262L24.4016 42.2667H25.3354L24.6354 45.0667ZM32.4667 45.0667H31.5333V42.2667H32.4667V45.0667ZM39.3646 45.0667L38.6646 42.2667H39.5984L40.2738 45.0667H39.3646ZM42.2667 41.3333H21.7333V40.4H42.2667V41.3333ZM45.0667 39.4667H18.9333V21.7333H45.0667V39.4667Z" fill="white"/>
<rect x="21" y="24" width="6" height="1" rx="0.5" fill="white"/>
<rect x="21" y="27" width="11" height="1" rx="0.5" fill="white"/>
<rect x="21" y="30" width="11" height="1" rx="0.5" fill="white"/>
<rect x="35" y="36" width="8" height="1" rx="0.5" fill="white"/>
<rect x="39" y="33" width="4" height="1" rx="0.5" fill="white"/>
<rect x="35" y="33" width="2" height="1" rx="0.5" fill="white"/>
</svg>
