<svg width="57" height="57" viewBox="0 0 57 57" fill="none" xmlns="http://www.w3.org/2000/svg">
<path d="M12.4602 18.0291H35.1519V21.0843H12.4602V18.0291Z" fill="white"/>
<path d="M12.4602 30.3525H35.1519V33.4077H12.4602V30.3525Z" fill="white"/>
<path d="M7.93447 53.3748C5.55757 53.3748 3.62527 51.4425 3.62527 49.0656V10.2258C3.62527 7.84891 5.55757 5.91661 7.93447 5.91661H12.2209C12.808 7.29601 14.1703 8.26501 15.7606 8.26501H31.8517C33.442 8.26501 34.81 7.29601 35.3914 5.91661H39.6778C42.0547 5.91661 43.987 7.84891 43.987 10.2258V31.5951L47.0422 33.0201V10.2258C47.0422 6.15601 43.7476 2.86141 39.6778 2.86141H35.3686C34.7758 1.51051 33.4249 0.570007 31.8574 0.570007H15.7606C14.1874 0.570007 12.8422 1.51051 12.2437 2.86141H7.93447C3.86467 2.86141 0.570068 6.15601 0.570068 10.2258V49.0656C0.570068 53.1354 3.86467 56.43 7.93447 56.43H27.5881L25.2055 53.3748H7.93447Z" fill="white"/>
<path d="M33.8467 48.3018L26.8072 40.9944L23.5354 43.833L34.6105 55.29L56.4301 26.4252L33.8467 48.3018Z" fill="white"/>
</svg>
