<svg width="32" height="42" viewBox="0 0 32 42" fill="none" xmlns="http://www.w3.org/2000/svg">
<path d="M29.1284 17.3956H27.4365H27.436V11.436C27.4359 5.13029 22.3058 0 15.9999 0C9.69437 0 4.56409 5.13029 4.56409 11.4361V17.3957H2.87177C1.53397 17.3957 0.44928 18.4802 0.44928 19.8181V21.2917V38.1039V39.5775C0.44928 40.9155 1.53389 42 2.87177 42H16H29.1284C30.4662 42 31.5507 40.9155 31.5507 39.5775V38.1039V21.2917V19.8181C31.5507 18.4801 30.4662 17.3956 29.1284 17.3956ZM18.5784 34.7478H13.4217L14.3446 30.3499C13.4815 29.8007 12.905 28.8416 12.905 27.7427C12.905 26.0335 14.2908 24.6478 16 24.6478C17.7093 24.6478 19.0949 26.0335 19.0949 27.7427C19.0949 28.8416 18.5185 29.8007 17.6555 30.3498L18.5784 34.7478ZM23.3555 17.3956H16H8.64497H8.64454V11.436C8.64454 7.37982 11.944 4.08046 16 4.08046C20.0562 4.08046 23.3555 7.37991 23.3555 11.436V17.3956Z" fill="#BBBBBB"/>
</svg>
