<svg width="27" height="27" viewBox="0 0 27 27" fill="none" xmlns="http://www.w3.org/2000/svg">
<path d="M16.4737 13.5008L26.5687 3.4054C26.8463 3.1275 26.9996 2.75675 27 2.3614C27 1.96584 26.8468 1.59465 26.5687 1.31718L25.684 0.43277C25.4059 0.154209 25.0351 0.00164795 24.6394 0.00164795C24.2442 0.00164795 23.8735 0.154209 23.5954 0.43277L13.5004 10.5275L3.40507 0.43277C3.12739 0.154209 2.75641 0.00164795 2.36085 0.00164795C1.96573 0.00164795 1.59476 0.154209 1.31707 0.43277L0.432 1.31718C-0.144 1.89318 -0.144 2.83006 0.432 3.4054L10.5271 13.5008L0.432 23.5957C0.154098 23.874 0.00109756 24.2448 0.00109756 24.6401C0.00109756 25.0355 0.154098 25.4062 0.432 25.6844L1.31685 26.5688C1.59454 26.8471 1.96573 26.9999 2.36063 26.9999C2.7562 26.9999 3.12717 26.8471 3.40485 26.5688L13.5002 16.4738L23.5951 26.5688C23.8733 26.8471 24.244 26.9999 24.6391 26.9999H24.6396C25.0349 26.9999 25.4057 26.8471 25.6838 26.5688L26.5684 25.6844C26.8461 25.4065 26.9993 25.0355 26.9993 24.6401C26.9993 24.2448 26.8461 23.874 26.5684 23.5959L16.4737 13.5008Z" fill="#889096"/>
</svg>
