<svg width="56" height="56" viewBox="0 0 56 56" fill="none" xmlns="http://www.w3.org/2000/svg">
<path d="M6.85754 13.8573C6.85754 9.91894 10.0617 6.7148 14 6.7148C17.9383 6.7148 21.1425 9.91894 21.1425 13.8573C21.1425 17.7959 17.9383 21 14 21C10.0617 21 6.85754 17.7959 6.85754 13.8573ZM47 23C47 26.9383 43.7959 30.1425 39.8579 30.1425C35.9198 30.1425 32.7157 26.9383 32.7157 23C32.7157 19.0617 35.9198 15.8575 39.8579 15.8575C43.7959 15.8575 47 19.0617 47 23ZM45.32 23C45.32 19.9881 42.8695 17.5375 39.8579 17.5375C36.8462 17.5375 34.3957 19.9881 34.3957 23C34.3957 26.0119 36.8462 28.4625 39.8579 28.4625C42.8695 28.4625 45.32 26.0119 45.32 23Z" fill="white"/>
<path fill-rule="evenodd" clip-rule="evenodd" d="M29.5 51.3C32.7033 51.3 35.3 48.7033 35.3 45.5C35.3 42.2967 32.7033 39.7 29.5 39.7C26.2967 39.7 23.7 42.2967 23.7 45.5C23.7 48.7033 26.2967 51.3 29.5 51.3ZM29.5 53C33.6421 53 37 49.6421 37 45.5C37 41.3579 33.6421 38 29.5 38C25.3579 38 22 41.3579 22 45.5C22 49.6421 25.3579 53 29.5 53Z" fill="white"/>
</svg>
