<svg width="48" height="36" viewBox="0 0 48 36" fill="none" xmlns="http://www.w3.org/2000/svg">
<path d="M47.6948 16.9955C47.266 16.331 37.0489 0.72583 23.9997 0.72583C10.9506 0.72583 0.732937 16.331 0.304594 16.9949C-0.101531 17.6252 -0.101531 18.4802 0.304594 19.1106C0.732937 19.775 10.9506 35.3802 23.9997 35.3802C37.0489 35.3802 47.266 19.7749 47.6948 19.1111C48.1015 18.4808 48.1015 17.6252 47.6948 16.9955ZM23.9997 31.7953C14.3876 31.7953 6.06253 21.4378 3.59813 18.0518C6.05934 14.6628 14.367 4.31075 23.9997 4.31075C33.6113 4.31075 41.9359 14.6664 44.4013 18.0543C41.9401 21.4431 33.6324 31.7953 23.9997 31.7953Z" fill="#656565"/>
<path d="M23.9997 7.29822C18.7645 7.29822 14.5052 12.123 14.5052 18.0531C14.5052 23.9832 18.7645 28.808 23.9997 28.808C29.2349 28.808 33.4943 23.9832 33.4943 18.0531C33.4943 12.123 29.2349 7.29822 23.9997 7.29822ZM23.9997 25.2229C20.5094 25.2229 17.6701 22.0066 17.6701 18.0531C17.6701 14.0996 20.5095 10.8832 23.9997 10.8832C27.4899 10.8832 30.3294 14.0996 30.3294 18.0531C30.3294 22.0066 27.49 25.2229 23.9997 25.2229Z" fill="#656565"/>
</svg>
