<svg width="46" height="44" viewBox="0 0 46 44" fill="none" xmlns="http://www.w3.org/2000/svg">
<g clip-path="url(#clip0)">
<path d="M43.5722 -0.0670319H2.42828C1.10912 -0.0670319 0.0359374 0.992609 0.0359374 2.29512V41.7049C0.0359374 43.0079 1.10912 44.067 2.42828 44.067H43.5722C44.8919 44.067 45.9646 43.0074 45.9646 41.7049V2.29512C45.964 0.992609 44.8904 -0.0670319 43.5722 -0.0670319ZM28.741 2.76724H34.482V8.43579H28.741V2.76724ZM20.1295 2.76724H25.8705V8.43579H20.1295V2.76724ZM11.518 2.76724H17.259V8.43579H11.518V2.76724ZM2.90644 2.76724H8.64746V8.43579H2.90644V2.76724ZM8.64746 41.2327H2.90644V35.5642H8.64746V41.2327ZM17.259 41.2327H11.518V35.5642H17.259V41.2327ZM25.8705 41.2327H20.1295V35.5642H25.8705V41.2327ZM34.482 41.2327H28.741V35.5642H34.482V41.2327ZM43.0935 41.2327H37.3525V35.5642H43.0935V41.2327ZM43.0935 32.7299H2.90644V11.2701H43.0935V32.7299ZM43.0935 8.43579H37.3525V2.76724H43.0935V8.43579Z" fill="white"/>
<path d="M20.5051 27.655L29.2279 22.4857C29.679 22.2187 29.679 21.7813 29.2279 21.5138L20.5051 16.3451C20.0535 16.0775 19.6845 16.2841 19.6845 16.8036V27.1959C19.6845 27.7154 20.0535 27.922 20.5051 27.655Z" fill="white"/>
</g>
<defs>
<clipPath id="clip0">
<rect width="46" height="44" fill="white"/>
</clipPath>
</defs>
</svg>
