<svg xmlns="http://www.w3.org/2000/svg" width="24" height="24" fill="none" viewBox="0 0 24 24"><path stroke="#656565" stroke-linecap="round" stroke-linejoin="round" stroke-width="1.5" d="M9.685 9.685c.237-1.022 1.167-1.73 2.215-1.687 1.173-.065 2.178.829 2.251 2.001 0 1.505-2.15 2.001-2.15 3.001M12.125 15.752c0 .069-.056.125-.125.125s-.125-.056-.125-.125c0-.07.056-.125.125-.126.033 0 .065.014.089.037.023.024.036.056.036.089"></path><path fill-rule="evenodd" stroke="#656565" stroke-linecap="round" stroke-linejoin="round" stroke-width="1.5" d="M4.629 17.16C1.946 13.33 2.635 8.085 6.217 5.08c3.581-3.007 8.867-2.777 12.173.53 3.307 3.306 3.537 8.592.531 12.174-3.006 3.581-8.252 4.27-12.081 1.588l-2.843.631.632-2.843z" clip-rule="evenodd"></path></svg>