<svg width="31" height="27" viewBox="0 0 31 27" fill="none" xmlns="http://www.w3.org/2000/svg">
<g clip-path="url(#clip0)">
<path d="M25.046 3.95398C19.7741 -1.31799 11.2264 -1.31799 5.95398 3.95398C0.682008 9.22594 0.682008 17.7736 5.95398 23.046C11.2259 28.318 19.7736 28.318 25.046 23.046C30.3184 17.7736 30.3184 9.22594 25.046 3.95398ZM9.90425 19.0957C6.81362 16.0051 6.81362 10.9944 9.90425 7.90381C12.9949 4.81319 18.0056 4.81319 21.0962 7.90381C24.1868 10.9944 24.1868 16.0051 21.0962 19.0957C18.0056 22.1864 12.9949 22.1864 9.90425 19.0957Z" stroke="#656565" stroke-width="1.5" stroke-miterlimit="10" stroke-linecap="round" stroke-linejoin="round"/>
<path d="M22.5488 17.0925C22.1812 17.8137 21.6992 18.4922 21.096 19.0953C20.4924 19.6989 19.8144 20.1805 19.0932 20.5481L22.1381 25.2539C23.1789 24.6656 24.1597 23.9318 25.0463 23.0452C25.9329 22.1585 26.6667 21.1778 27.2551 20.137L22.5488 17.0925Z" stroke="#656565" stroke-width="1.5" stroke-miterlimit="10" stroke-linecap="round" stroke-linejoin="round"/>
<path d="M19.0928 6.45109C19.814 6.81864 20.4924 7.30072 21.0956 7.90386C21.6992 8.50744 22.1808 9.18549 22.5484 9.90665L27.2542 6.86175C26.6659 5.82094 25.9321 4.84023 25.0454 3.95359C24.1588 3.06694 23.1781 2.33315 22.1373 1.74481L19.0928 6.45109Z" stroke="#656565" stroke-width="1.5" stroke-miterlimit="10" stroke-linecap="round" stroke-linejoin="round"/>
<path d="M8.45133 9.90709C8.81888 9.18592 9.30096 8.50744 9.9041 7.9043C10.5077 7.30071 11.1857 6.81907 11.9069 6.45152L8.86199 1.74481C7.82119 2.33315 6.84048 3.06694 5.95383 3.95359C5.06719 4.84023 4.33339 5.82094 3.74506 6.86175L8.45133 9.90709Z" stroke="#656565" stroke-width="1.5" stroke-miterlimit="10" stroke-linecap="round" stroke-linejoin="round"/>
<path d="M11.9073 20.5485C11.1862 20.181 10.5077 19.6989 9.90454 19.0957C9.30096 18.4922 8.81931 17.8141 8.45177 17.093L3.74506 20.1379C4.33339 21.1787 5.06719 22.1594 5.95383 23.046C6.84048 23.9327 7.82118 24.6665 8.86199 25.2548L11.9073 20.5485Z" stroke="#656565" stroke-width="1.5" stroke-miterlimit="10" stroke-linecap="round" stroke-linejoin="round"/>
<path d="M28.5345 9.98327V7.50841C28.5345 3.61867 25.3812 0.465332 21.4915 0.465332H19.0166C23.6454 1.71125 27.2886 5.35451 28.5345 9.98327Z" stroke="#656565" stroke-width="1.5" stroke-miterlimit="10" stroke-linecap="round" stroke-linejoin="round"/>
<path d="M11.9835 0.465332H9.50869C5.61895 0.465332 2.46561 3.61867 2.46561 7.50841V9.98327C3.71153 5.35451 7.35478 1.71125 11.9835 0.465332Z" stroke="#656565" stroke-width="1.5" stroke-miterlimit="10" stroke-linecap="round" stroke-linejoin="round"/>
<path d="M19.0166 26.5342H21.4915C25.3812 26.5342 28.5345 23.3809 28.5345 19.4907V17.0159C27.2886 21.6451 23.6454 25.2883 19.0166 26.5342Z" stroke="#656565" stroke-width="1.5" stroke-miterlimit="10" stroke-linecap="round" stroke-linejoin="round"/>
<path d="M2.46561 17.0162V19.4911C2.46561 23.3808 5.61895 26.5346 9.50912 26.5346H11.984C7.35479 25.2883 3.71153 21.645 2.46561 17.0162Z" stroke="#656565" stroke-width="1.5" stroke-miterlimit="10" stroke-linecap="round" stroke-linejoin="round"/>
</g>
<defs>
<clipPath id="clip0">
<rect width="31" height="27" fill="white"/>
</clipPath>
</defs>
</svg>
