<svg width="27" height="27" viewBox="0 0 27 27" fill="none" xmlns="http://www.w3.org/2000/svg">
<path d="M13.5 0C6.0561 0 0 6.05618 0 13.5001C0 20.944 6.0561 27 13.5 27C20.9439 27 27 20.944 27 13.5001C27 6.05618 20.9439 0 13.5 0ZM13.5 24.5455C7.40945 24.5455 2.45455 19.5905 2.45455 13.5001C2.45455 7.40962 7.40945 2.45455 13.5 2.45455C19.5905 2.45455 24.5455 7.40962 24.5455 13.5001C24.5455 19.5905 19.5905 24.5455 13.5 24.5455Z" fill="black" fill-opacity="0.6"/>
<path d="M13.4998 5.72729C12.5977 5.72729 11.8638 6.4617 11.8638 7.3644C11.8638 8.26628 12.5977 9.00002 13.4998 9.00002C14.402 9.00002 15.1359 8.26628 15.1359 7.3644C15.1359 6.4617 14.402 5.72729 13.4998 5.72729Z" fill="black" fill-opacity="0.6"/>
<path d="M13.5 11.4545C12.8222 11.4545 12.2727 12.004 12.2727 12.6818V20.0454C12.2727 20.7232 12.8222 21.2727 13.5 21.2727C14.1778 21.2727 14.7273 20.7232 14.7273 20.0454V12.6818C14.7273 12.004 14.1778 11.4545 13.5 11.4545Z" fill="black" fill-opacity="0.6"/>
</svg>
