<svg width="44" height="47" viewBox="0 0 44 47" fill="none" xmlns="http://www.w3.org/2000/svg">
<path d="M0.449064 24.2246C0.534334 24.4449 0.657564 24.643 0.825898 24.8263L13.7031 38.5803C14.3616 39.2849 15.5081 39.2896 16.1732 38.5803C16.8504 37.8546 16.8504 36.6735 16.1715 35.946L6.2721 25.3728L41.9403 25.3728C42.9024 25.3728 43.6852 24.5366 43.6852 23.5094C43.6852 22.4822 42.9024 21.6461 41.9403 21.6461L6.27154 21.6461L16.1704 11.0705C16.8487 10.3459 16.8504 9.16481 16.1682 8.43204C15.8381 8.08181 15.4008 7.88966 14.937 7.88966C14.4705 7.88966 14.0321 8.08298 13.7037 8.43556L0.837999 22.1779C0.664712 22.36 0.531034 22.5727 0.460069 22.7643C0.363248 22.9994 0.314287 23.2503 0.314287 23.5088C0.314836 23.7592 0.361043 24.0024 0.449064 24.2246Z" fill="#212635"/>
</svg>
