<svg width="27" height="27" viewBox="0 0 27 27" fill="none" xmlns="http://www.w3.org/2000/svg">
<g clip-path="url(#clip0)">
<path d="M22.6494 9.14941C20.5207 9.14941 18.7454 10.6866 18.3722 12.709H16.1528C15.8116 11.5667 14.7518 10.7314 13.5 10.7314C13.0238 10.7314 12.5754 10.8523 12.1836 11.065L10.6475 9.52894C11.4109 8.53042 11.8652 7.28367 11.8652 5.93262C11.8652 2.6614 9.20389 0 5.93262 0C2.66135 0 0 2.6614 0 5.93262C0 9.20384 2.66135 11.8652 5.93262 11.8652C7.28367 11.8652 8.53042 11.4109 9.52889 10.6475L11.065 12.1836C10.8524 12.5753 10.7314 13.0238 10.7314 13.4999C10.7314 13.9761 10.8523 14.4246 11.065 14.8163L9.52889 16.3523C8.53042 15.5891 7.28367 15.1348 5.93262 15.1348C2.66135 15.1348 0 17.7962 0 21.0674C0 24.3386 2.66135 27 5.93262 27C9.20389 27 11.8652 24.3386 11.8652 21.0674C11.8652 19.7163 11.4109 18.4696 10.6475 17.4711L12.1836 15.9351C12.5754 16.1477 13.0239 16.2686 13.5001 16.2686C14.7518 16.2686 15.8116 15.4333 16.1529 14.2911H18.3723C18.7455 16.3134 20.5208 17.8506 22.6495 17.8506C25.0484 17.8506 27.0001 15.8989 27.0001 13.5001C27.0001 11.1012 25.0484 9.14941 22.6494 9.14941V9.14941ZM5.93262 10.2832C3.53368 10.2832 1.58203 8.3315 1.58203 5.93262C1.58203 3.53373 3.53368 1.58203 5.93262 1.58203C8.33156 1.58203 10.2832 3.53373 10.2832 5.93262C10.2832 8.3315 8.33156 10.2832 5.93262 10.2832ZM5.93262 25.418C3.53368 25.418 1.58203 23.4663 1.58203 21.0674C1.58203 18.6685 3.53368 16.7168 5.93262 16.7168C8.33156 16.7168 10.2832 18.6685 10.2832 21.0674C10.2832 23.4663 8.33156 25.418 5.93262 25.418ZM13.5 14.6865C12.8457 14.6865 12.3135 14.1542 12.3135 13.5C12.3135 12.8458 12.8457 12.3135 13.5 12.3135C14.1543 12.3135 14.6865 12.8458 14.6865 13.5C14.6865 14.1542 14.1543 14.6865 13.5 14.6865ZM22.6494 16.2686C21.1228 16.2686 19.8809 15.0266 19.8809 13.5C19.8809 11.9734 21.1228 10.7314 22.6494 10.7314C24.176 10.7314 25.418 11.9734 25.418 13.5C25.418 15.0266 24.176 16.2686 22.6494 16.2686Z" fill="#656565"/>
</g>
<defs>
<clipPath id="clip0">
<rect width="27" height="27" fill="white"/>
</clipPath>
</defs>
</svg>
