<svg width="24" height="31" viewBox="0 0 24 31" fill="none" xmlns="http://www.w3.org/2000/svg">
<path d="M20.25 0L3.75 0C1.68225 0 0 2.17291 0 4.84375L0 6.05469C0 6.72349 0.419719 7.26562 0.9375 7.26562C1.45528 7.26562 1.875 6.72349 1.875 6.05469V4.84375C1.875 3.50833 2.71613 2.42187 3.75 2.42187L20.25 2.42187C21.2839 2.42187 22.125 3.50833 22.125 4.84375L22.125 26.1562C22.125 27.4917 21.2839 28.5781 20.25 28.5781L3.75 28.5781C2.71613 28.5781 1.875 27.4917 1.875 26.1562L1.875 24.9453C1.875 24.2765 1.45528 23.7344 0.9375 23.7344C0.419719 23.7344 0 24.2765 0 24.9453L0 26.1562C0 28.8271 1.68225 31 3.75 31L20.25 31C22.3177 31 24 28.8271 24 26.1562L24 4.84375C24 2.17291 22.3177 0 20.25 0Z" fill="#656565"/>
<path d="M2.82098 16.5983C2.81897 16.5961 2.81692 16.5939 2.81487 16.5917C2.4597 16.2149 2.4597 15.6017 2.81674 15.2229L6.20012 11.6122C6.55484 11.2337 6.55315 10.6217 6.19638 10.2454C5.83962 9.86907 5.26286 9.87081 4.90815 10.2493L1.52663 13.858C0.462258 14.9874 0.461119 16.8242 1.52331 17.955L4.90396 21.611C5.08232 21.804 5.31816 21.9007 5.55422 21.9007C5.78442 21.9007 6.01484 21.8086 6.19206 21.6241C6.55119 21.2502 6.5567 20.6383 6.20436 20.2573L2.82098 16.5983Z" fill="#656565"/>
<path d="M17.749 14.2891L6.74023 14.2891C6.16932 14.2891 5.70654 14.8312 5.70654 15.5C5.70654 16.1688 6.16932 16.7109 6.74023 16.7109H17.749C18.3199 16.7109 18.7826 16.1688 18.7826 15.5C18.7826 14.8312 18.3199 14.2891 17.749 14.2891Z" fill="#656565"/>
</svg>
