<svg width="57" height="48" viewBox="0 0 57 48" fill="none" xmlns="http://www.w3.org/2000/svg">
<path d="M41.9383 12.904L41.5622 12.434L40.9042 12.998C40.7162 13.186 40.6222 13.28 40.4342 13.374L39.0242 14.22L39.4942 14.784C40.7162 16.382 41.4683 17.792 41.9383 19.296C42.8783 22.116 42.7843 25.312 41.7503 28.132C40.7163 30.952 38.8362 33.302 36.4862 34.9C34.7002 36.122 32.4442 36.874 30.0942 36.968V35.276C30.0942 34.618 29.8123 34.054 29.2483 33.772C28.6843 33.49 28.0262 33.49 27.5562 33.772L19.0023 38.942C18.4383 39.224 18.1562 39.788 18.1562 40.446C18.1562 41.01 18.4383 41.574 19.0023 41.95L27.5562 47.12C27.8382 47.308 28.1203 47.402 28.4023 47.402C28.6843 47.402 28.9663 47.308 29.2483 47.214C29.8123 46.932 30.0942 46.368 30.0942 45.71V43.83C33.7602 43.36 37.2382 41.856 39.9642 39.6C42.9722 37.062 45.2282 33.49 46.2622 29.542C47.2022 25.594 46.9202 21.552 45.4162 17.98C44.6642 16.288 43.5363 14.596 41.9383 12.904Z" fill="white"/>
<path d="M17.4983 33.678C16.2763 32.174 15.5243 30.67 15.0543 29.166C14.1143 26.346 14.2083 23.244 15.2423 20.33C16.2763 17.51 18.0623 15.16 20.5063 13.562C22.2923 12.34 24.4543 11.588 26.8983 11.4V13.092C26.8983 13.75 27.1803 14.314 27.7443 14.596C28.3083 14.878 28.9663 14.878 29.4363 14.596L37.9903 9.426C38.5543 9.144 38.8363 8.58 38.8363 7.922C38.8363 7.358 38.5543 6.794 37.9903 6.418L29.4363 1.248C28.8723 0.965996 28.2143 0.871996 27.7443 1.248C27.1803 1.53 26.8983 2.094 26.8983 2.752V4.632C23.2323 5.102 19.6603 6.606 17.0283 8.768C13.9263 11.306 11.5763 14.878 10.5423 18.826C9.60231 22.774 9.88431 26.91 11.3883 30.388C12.1403 32.174 13.2683 33.866 14.8663 35.558L15.2423 36.028L15.9003 35.464C16.0883 35.276 16.2763 35.088 16.5583 34.994L18.0623 34.054L17.4983 33.678Z" fill="white"/>
</svg>
