<svg width="22" height="22" viewBox="0 0 22 22" fill="none" xmlns="http://www.w3.org/2000/svg">
<path d="M17.8768 9.11197H16.9905H16.9903V5.99029C16.9902 2.68729 14.303 0 10.9999 0C7.69704 0 5.00975 2.68729 5.00975 5.99034V9.11202H4.12329C3.42254 9.11202 2.85437 9.6801 2.85437 10.3809V11.1528V19.9592V20.7311C2.85437 21.4319 3.4225 22 4.12329 22H11H17.8768C18.5775 22 19.1456 21.4319 19.1456 20.7311V19.9592V11.1528V10.3809C19.1456 9.68005 18.5775 9.11197 17.8768 9.11197ZM12.3506 18.2012H9.64943L10.1329 15.8976C9.68076 15.6099 9.37877 15.1075 9.37877 14.5319C9.37877 13.6366 10.1047 12.9108 11 12.9108C11.8954 12.9108 12.6211 13.6366 12.6211 14.5319C12.6211 15.1075 12.3192 15.6099 11.8672 15.8975L12.3506 18.2012ZM14.8529 9.11197H11H7.14735H7.14713V5.99029C7.14713 3.86562 8.87541 2.13738 11 2.13738C13.1247 2.13738 14.8529 3.86567 14.8529 5.99029V9.11197Z" fill="#BBBBBB"/>
</svg>
