<svg width="46" height="47" viewBox="0 0 46 47" fill="none" xmlns="http://www.w3.org/2000/svg">
<g clip-path="url(#clip0)">
<path d="M14.064 25.438C13.893 25.951 13.893 25.951 13.551 26.806L13.494 26.92C13.095 28.003 12.411 29.314 11.955 30.169C11.271 30.511 10.587 30.853 9.61799 31.423C7.56599 32.62 6.14099 33.475 5.62799 34.843C5.34299 35.584 4.65898 37.408 6.14098 38.605C6.65398 39.061 7.33799 39.289 7.96499 39.289C8.64899 39.289 9.27599 39.061 9.78899 38.605C10.473 37.978 10.758 37.408 11.328 36.325C11.499 36.04 11.67 35.698 11.898 35.242C12.81 33.475 13.38 32.278 13.494 32.107C13.494 32.05 13.551 31.993 13.608 31.936C14.007 31.765 14.463 31.594 14.976 31.366C16.857 30.568 17.655 30.34 19.365 29.77L20.163 29.485C20.79 29.257 21.246 29.143 21.702 28.972C22.272 28.744 22.728 28.63 23.184 28.459C23.583 28.801 23.982 29.2 24.495 29.599C25.578 30.511 26.319 30.967 27.117 31.195C27.801 31.366 28.77 31.309 29.397 31.138C31.392 30.625 31.449 29.143 31.506 28.516C31.563 27.661 31.05 26.179 28.827 25.78C27.801 25.609 27.117 25.609 26.49 25.609C25.863 25.609 25.35 25.666 24.552 25.78C24.324 25.837 24.039 25.894 23.868 25.894C23.298 25.324 22.899 24.754 22.272 23.899C21.075 22.189 20.334 20.992 19.137 18.883C18.966 18.598 18.795 18.256 18.624 17.971C18.738 17.458 18.852 16.888 18.966 16.204L19.137 15.406C19.593 13.24 19.707 12.499 19.365 10.732C18.966 8.794 17.655 8.338 16.971 8.395C16.629 8.395 15.261 8.623 14.691 10.618C14.292 11.986 14.349 13.012 14.691 14.437C14.919 15.463 15.432 16.717 16.287 18.256C16.002 19.453 15.66 20.536 15.033 22.36C14.463 24.241 14.178 24.982 14.064 25.438ZM9.90299 34.102C9.67499 34.501 9.50399 34.9 9.33299 35.185C8.76299 36.268 8.64899 36.496 8.30699 36.838C8.07899 37.009 7.79399 36.895 7.62299 36.781C7.56599 36.724 7.39499 36.61 7.79399 35.584C8.02199 35.014 9.10499 34.33 10.074 33.703C10.074 33.874 9.95999 33.988 9.90299 34.102ZM26.604 27.832C27.174 27.832 27.744 27.832 28.542 28.003C29.112 28.117 29.283 28.345 29.283 28.402C29.283 28.516 29.283 28.744 29.283 28.801C29.283 28.801 29.226 28.858 28.941 28.915C28.542 29.029 27.972 29.029 27.801 28.972C27.516 28.858 27.06 28.687 26.091 27.889C26.262 27.832 26.433 27.832 26.604 27.832ZM16.971 11.188C17.028 11.017 17.085 10.846 17.142 10.789C17.199 10.846 17.199 10.96 17.256 11.131C17.484 12.385 17.484 12.784 17.142 14.437C17.085 14.266 17.028 14.095 17.028 13.981C16.743 12.727 16.686 12.1 16.971 11.188ZM15.66 27.718L15.717 27.604C16.059 26.692 16.059 26.692 16.287 26.122C16.401 25.723 16.686 24.925 17.313 23.101C17.598 22.36 17.769 21.676 17.94 21.106C18.795 22.588 19.479 23.728 20.505 25.153C20.904 25.666 21.189 26.122 21.531 26.521C21.36 26.578 21.189 26.635 21.018 26.692C20.619 26.863 20.163 26.977 19.536 27.205L18.738 27.49C17.313 27.946 16.515 28.231 15.204 28.744C15.375 28.402 15.489 28.06 15.66 27.718ZM35.325 27.604V33.076H27.972C25.806 33.076 23.982 34.9 23.982 37.066V44.59H6.76799C4.25999 44.59 2.26499 42.538 2.26499 39.973V7.02701C2.26499 4.519 4.31698 2.41 6.76799 2.41H30.822C32.988 2.41 34.812 4.006 35.268 6.115C35.667 6.058 36.123 6.058 36.522 6.058C36.864 6.058 37.206 6.058 37.548 6.115C37.092 2.752 34.242 0.130005 30.765 0.130005H6.76799C3.00599 0.130005 -0.0150146 3.20801 -0.0150146 7.02701V40.03C-0.0150146 43.849 3.00599 46.927 6.76799 46.927H25.122C25.179 46.927 25.293 46.927 25.35 46.927C25.407 46.927 25.407 46.927 25.464 46.87C25.521 46.87 25.521 46.87 25.578 46.813C25.635 46.813 25.635 46.756 25.692 46.756C25.692 46.756 25.749 46.756 25.749 46.699C25.806 46.642 25.863 46.585 25.92 46.528L37.206 35.071C37.206 35.071 37.206 35.014 37.263 35.014C37.32 34.957 37.32 34.957 37.377 34.9C37.377 34.843 37.434 34.843 37.434 34.786C37.434 34.729 37.491 34.729 37.491 34.672C37.491 34.615 37.491 34.615 37.548 34.558C37.548 34.501 37.548 34.501 37.548 34.444C37.548 34.387 37.548 34.273 37.548 34.216V27.604C37.206 27.661 36.807 27.661 36.465 27.661C36.066 27.661 35.667 27.661 35.325 27.604ZM26.262 42.937V37.123C26.262 36.154 27.003 35.413 27.972 35.413H33.729L26.262 42.937ZM36.465 7.426C31.278 7.426 27.06 11.644 27.06 16.831C27.06 22.018 31.278 26.236 36.465 26.236C41.652 26.236 45.87 22.018 45.87 16.831C45.87 11.644 41.652 7.426 36.465 7.426ZM36.465 24.526C32.247 24.526 28.77 21.049 28.77 16.831C28.77 12.613 32.247 9.136 36.465 9.136C40.683 9.136 44.16 12.613 44.16 16.831C44.16 21.049 40.74 24.526 36.465 24.526ZM39.942 17.686C40.113 17.857 40.17 18.085 40.17 18.313C40.17 18.541 40.113 18.769 39.942 18.94L37.092 21.79C36.921 21.961 36.75 22.018 36.522 22.018H36.465C36.408 22.018 36.408 22.018 36.351 22.018C36.18 22.018 36.009 21.904 35.895 21.79L35.838 21.733L32.988 18.883C32.646 18.541 32.646 18.028 32.988 17.686C33.33 17.344 33.843 17.344 34.185 17.686L35.553 19.054V12.556C35.553 12.1 35.952 11.701 36.408 11.701C36.864 11.701 37.32 12.1 37.32 12.556V19.054L38.688 17.686C39.087 17.344 39.6 17.344 39.942 17.686Z" fill="white"/>
</g>
<defs>
<clipPath id="clip0">
<rect width="46" height="47" fill="white"/>
</clipPath>
</defs>
</svg>
