<svg width="86" height="86" viewBox="0 0 86 86" fill="none" xmlns="http://www.w3.org/2000/svg">
<ellipse cx="43" cy="43" rx="32.5122" ry="28.3171" fill="white"/>
<path d="M43 0.229421C34.5407 0.229421 26.2715 2.73787 19.2379 7.43756C12.2043 12.1373 6.72231 18.8171 3.48511 26.6324C0.247902 34.4477 -0.599098 43.0474 1.05121 51.3441C2.70153 59.6408 6.77503 67.2618 12.7566 73.2434C18.7382 79.2249 26.3592 83.2984 34.6558 84.9488C42.9525 86.5991 51.5523 85.7521 59.3676 82.5149C67.1829 79.2777 73.8627 73.7956 78.5624 66.7621C83.2621 59.7285 85.7705 51.4592 85.7705 43C85.7705 31.6565 81.2644 20.7777 73.2433 12.7566C65.2223 4.73559 54.3434 0.229421 43 0.229421V0.229421ZM64.754 42.8378L33.5609 63.6479C33.3398 63.8138 33.0765 63.9142 32.8011 63.9377C32.5256 63.9612 32.2491 63.9068 32.0031 63.7807C31.757 63.6546 31.5514 63.4619 31.4096 63.2246C31.2678 62.9873 31.1956 62.7149 31.2012 62.4385V20.7888C31.1999 20.522 31.271 20.2598 31.407 20.0301C31.543 19.8005 31.7387 19.6121 31.9733 19.485C32.2079 19.3578 32.4726 19.2967 32.7392 19.3082C33.0058 19.3196 33.2643 19.4032 33.4872 19.5499L64.754 40.3895C64.9568 40.5231 65.1236 40.7048 65.2394 40.9183C65.3552 41.1319 65.4164 41.3707 65.4177 41.6136C65.4164 41.8566 65.3552 42.0954 65.2394 42.309C65.1236 42.5225 64.9568 42.7042 64.754 42.8378V42.8378Z" fill="#EE3442"/>
</svg>
