<svg width="55" height="45" viewBox="0 0 55 45" fill="none" xmlns="http://www.w3.org/2000/svg">
<path d="M42.72 9.6C41.6267 9.6 41.08 9.04 41.08 7.92C41.08 6.85333 41.6267 6.32 42.72 6.32C43.76 6.32 44.28 6.85333 44.28 7.92C44.28 9.04 43.76 9.6 42.72 9.6ZM28.08 29.36C29.04 25.28 30.76 21.84 33.24 19.04C35.9867 15.9467 39.2133 14.4 42.92 14.4C45.9067 14.4 48.28 15.4267 50.04 17.48C51.5333 19.24 52.28 21.4133 52.28 24V25.12C52.28 27.3867 51.5867 29.1467 50.2 30.4C49.0267 31.4667 47.4667 32 45.52 32H29.24C27.6667 32 26.2933 31.6133 25.12 30.84C24.9333 33.64 23.8133 35.84 21.76 37.44C19.9467 38.88 17.6533 39.6 14.88 39.6C11.4933 39.6 8.86667 38.4 7 36C5.53333 34.16 4.8 31.96 4.8 29.4C4.8 27.1067 5.38667 25.1333 6.56 23.48L9.16 22.96C7.88 24.9067 7.24 26.9867 7.24 29.2C7.24 31.5467 8 33.48 9.52 35C10.9333 36.4133 12.72 37.12 14.88 37.12C17.4133 37.12 19.3733 36.3733 20.76 34.88C21.9067 33.6533 22.48 32.04 22.48 30.04V19.2L25.16 17.8V24.96C25.16 27.4667 26.1333 28.9333 28.08 29.36ZM49.6 24.8V24C49.6 21.76 48.8933 19.96 47.48 18.6C46.28 17.4267 44.7733 16.84 42.96 16.84C39.8133 16.84 37.04 18.3067 34.64 21.24C32.8 23.4533 31.4267 26.2133 30.52 29.52H45.32C48.1733 29.52 49.6 27.9467 49.6 24.8Z" fill="white"/>
</svg>
