<svg width="55" height="45" viewBox="0 0 55 45" fill="none" xmlns="http://www.w3.org/2000/svg">
<circle cx="11" cy="25" r="9.75" stroke="white" stroke-width="0.5" stroke-dasharray="1.5 1.5"/>
<circle cx="42" cy="20" r="9.75" stroke="white" stroke-width="0.5" stroke-dasharray="1.5 1.5"/>
<path d="M5 8.575L5.945 6.55L10.22 5.74C9.65 5.17 9.365 4.42 9.365 3.49C9.365 2.62 9.62 1.9 10.13 1.33C10.67 0.759998 11.33 0.474997 12.11 0.474997C12.92 0.474997 13.58 0.759998 14.09 1.33C14.63 1.9 14.9 2.62 14.9 3.49C14.9 4.48 14.615 5.335 14.045 6.055C13.505 6.745 12.8 7.165 11.93 7.315L5 8.575ZM12.2 5.245C12.86 4.795 13.19 4.21 13.19 3.49C13.19 2.53 12.83 2.05 12.11 2.05C11.39 2.05 11.03 2.53 11.03 3.49C11.03 4.24 11.42 4.825 12.2 5.245Z" fill="white"/>
<path d="M35 42L48.8264 38.572L50 36L36.1736 39.428L35 42Z" fill="white"/>
<path d="M35 42L48.8264 38.572L50 36L36.1736 39.428L35 42Z" fill="white"/>
<path d="M35 42L48.8264 38.572L50 36L36.1736 39.428L35 42Z" fill="white"/>
<path d="M35 42L48.8264 38.572L50 36L36.1736 39.428L35 42Z" fill="white"/>
<path d="M35 42L48.8264 38.572L50 36L36.1736 39.428L35 42Z" fill="white"/>
</svg>
