<svg width="29" height="29" viewBox="0 0 29 29" fill="none" xmlns="http://www.w3.org/2000/svg">
<path d="M28.3507 12.0318L24.9589 11.2087C24.7695 10.612 24.5307 10.0346 24.2455 9.48323L25.9856 6.58306C26.1862 6.24876 26.1335 5.82084 25.8579 5.54517L23.4549 3.14214C23.1792 2.86647 22.7512 2.81379 22.4171 3.01436L19.5167 4.75447C18.9653 4.46912 18.3878 4.23038 17.7913 4.04108L16.9682 0.649272C16.8757 0.26825 16.5346 0 16.1426 0H12.7441C12.3521 0 12.011 0.26825 11.9185 0.649272L11.0954 4.04108C10.499 4.23038 9.92145 4.46917 9.37006 4.75447L6.46972 3.01436C6.13548 2.81379 5.70762 2.86647 5.43189 3.14214L3.02886 5.54512C2.75319 5.82079 2.70051 6.24871 2.90108 6.583L4.64125 9.48317C4.35538 10.0356 4.11619 10.6143 3.92667 11.2124L0.643607 12.0331C0.265361 12.1277 0 12.4676 0 12.8574V16.2559C0 16.6457 0.265361 16.9856 0.643551 17.0801L3.92661 17.9009C4.11624 18.499 4.35527 19.0775 4.64113 19.63L2.90102 22.5302C2.70045 22.8645 2.75313 23.2924 3.0288 23.5681L5.43184 25.9711C5.70745 26.2468 6.13537 26.2995 6.46972 26.0989L9.36989 24.3588C9.92236 24.6447 10.5011 24.8838 11.0991 25.0734L11.9198 28.3564C12.0144 28.7346 12.3543 29 12.7441 29H16.1426C16.5324 29 16.8723 28.7346 16.9668 28.3564L17.7876 25.0734C18.3856 24.8838 18.9643 24.6447 19.5168 24.3588L22.4169 26.0989C22.7512 26.2995 23.1792 26.2468 23.4548 25.9711L25.8579 23.5681C26.1335 23.2924 26.1862 22.8645 25.9856 22.5302L24.2455 19.63C24.5308 19.0788 24.7695 18.5014 24.9589 17.9047L28.3507 17.0815C28.7317 16.9891 29 16.6479 29 16.2559V12.8574C29 12.4654 28.7317 12.1242 28.3507 12.0318ZM27.3008 15.5878L24.0811 16.3691C23.779 16.4424 23.5411 16.6748 23.4607 16.9751C23.2485 17.768 22.9357 18.5247 22.5311 19.2241C22.3764 19.4915 22.3789 19.8217 22.5379 20.0866L24.1873 22.8356L22.7224 24.3005L19.9735 22.6512C19.7086 22.4922 19.3783 22.4896 19.1109 22.6443C18.4113 23.0491 17.6545 23.3618 16.8618 23.5741C16.5635 23.6539 16.332 23.8892 16.2572 24.1887L15.4792 27.3008H13.4075L12.6295 24.1887C12.5547 23.8892 12.3232 23.6539 12.0249 23.5741C11.2322 23.3619 10.4755 23.0491 9.77578 22.6443C9.50843 22.4897 9.17816 22.4922 8.9132 22.6512L6.16431 24.3005L4.69942 22.8356L6.34879 20.0866C6.50778 19.8217 6.51039 19.4914 6.35564 19.2241C5.95095 18.5247 5.63818 17.768 5.426 16.9751C5.3462 16.6769 5.11085 16.4454 4.81128 16.3706L1.69922 15.5925V13.5207L4.81128 12.7427C5.1108 12.6678 5.34614 12.4364 5.426 12.1381C5.63818 11.3453 5.951 10.5886 6.3557 9.88906C6.51033 9.62166 6.50772 9.29138 6.34879 9.02648L4.69942 6.27754L6.16431 4.81264L8.91337 6.46202C9.17816 6.62095 9.50849 6.62355 9.77589 6.46887C10.4759 6.06395 11.2326 5.75118 12.0249 5.53917C12.3252 5.45885 12.5576 5.22091 12.6309 4.91879L13.4122 1.69922H15.4745L16.2558 4.9189C16.3292 5.22096 16.5615 5.45891 16.8619 5.53928C17.6541 5.75129 18.4109 6.06406 19.1108 6.46898C19.3781 6.62367 19.7085 6.62106 19.9734 6.46213L22.7224 4.81275L24.1873 6.27765L22.5379 9.02659C22.379 9.2915 22.3763 9.62177 22.531 9.88917C22.9358 10.5887 23.2485 11.3454 23.4607 12.1383C23.5411 12.4385 23.779 12.671 24.0811 12.7443L27.3008 13.5255V15.5878Z" fill="#656565"/>
<path d="M14.4434 8.60938C11.164 8.60938 8.49609 11.2773 8.49609 14.5566C8.49609 17.836 11.164 20.5039 14.4434 20.5039C17.7227 20.5039 20.3906 17.836 20.3906 14.5566C20.3906 11.2773 17.7227 8.60938 14.4434 8.60938ZM14.4434 18.8047C12.101 18.8047 10.1953 16.899 10.1953 14.5566C10.1953 12.2143 12.101 10.3086 14.4434 10.3086C16.7857 10.3086 18.6914 12.2143 18.6914 14.5566C18.6914 16.899 16.7857 18.8047 14.4434 18.8047Z" fill="#656565"/>
</svg>
