<svg width="63" height="63" viewBox="0 0 63 63" fill="none" xmlns="http://www.w3.org/2000/svg">
<g clip-path="url(#clip0)">
<path d="M50 30.5C50 42.9264 41.2696 53 30.5 53C19.7304 53 11 42.9264 11 30.5C11 18.0736 19.7304 8 30.5 8C41.2696 8 50 18.0736 50 30.5Z" fill="white"/>
<path d="M31 -0.5C24.7699 -0.5 18.6797 1.34744 13.4996 4.80871C8.3194 8.26997 4.28197 13.1896 1.89781 18.9455C-0.486352 24.7013 -1.11016 31.0349 0.105278 37.1453C1.32071 43.2557 4.3208 48.8685 8.72615 53.2739C13.1315 57.6792 18.7443 60.6793 24.8547 61.8947C30.9651 63.1102 37.2987 62.4864 43.0545 60.1022C48.8104 57.718 53.73 53.6806 57.1913 48.5005C60.6526 43.3203 62.5 37.2301 62.5 31C62.5 22.6457 59.1813 14.6335 53.2739 8.72614C47.3665 2.81874 39.3543 -0.5 31 -0.5V-0.5ZM31 44.5C28.33 44.5 25.7199 43.7082 23.4998 42.2248C21.2798 40.7414 19.5494 38.633 18.5276 36.1662C17.5059 33.6994 17.2385 30.985 17.7594 28.3663C18.2803 25.7475 19.5661 23.3421 21.4541 21.4541C23.3421 19.566 25.7476 18.2803 28.3663 17.7594C30.985 17.2385 33.6994 17.5058 36.1662 18.5276C38.633 19.5494 40.7415 21.2797 42.2249 23.4998C43.7083 25.7199 44.5 28.33 44.5 31C44.5 34.5804 43.0777 38.0142 40.546 40.5459C38.0142 43.0777 34.5804 44.5 31 44.5Z" fill="#EE3442"/>
</g>
<defs>
<clipPath id="clip0">
<rect width="63" height="63" fill="white"/>
</clipPath>
</defs>
</svg>
